<svg width="197" height="152" fill="none" xmlns="http://www.w3.org/2000/svg"><path d="M143.136 25.56H5.112A5.112 5.112 0 0 0 0 30.672v86.904a5.114 5.114 0 0 0 5.112 5.112h138.024a5.114 5.114 0 0 0 5.112-5.112V30.672a5.113 5.113 0 0 0-5.112-5.112z" fill="#D6D6D6"/><path d="M0 86.904v30.672a5.114 5.114 0 0 0 5.112 5.112h138.024a5.114 5.114 0 0 0 5.112-5.112V86.904H0zM112.464 63.9h-76.68c-5.646 0-10.224-4.578-10.224-10.224V25.56h97.128v28.116c0 5.646-4.578 10.224-10.224 10.224z" fill="#363636"/><path d="M115.02 25.56H33.228V2.556A2.557 2.557 0 0 1 35.784 0h76.68a2.557 2.557 0 0 1 2.556 2.556V25.56z" fill="#E7E7E7"/><path d="M81.792 51.676a2 2 0 0 0 2 2h26.672a2 2 0 0 0 2-2V40.34a2 2 0 0 0-2-2H83.792a2 2 0 0 0-2 2v11.336z" fill="#D6D6D6"/><path d="M185.874 151.475h-41.331c-5.823 0-10.543-4.719-10.543-10.542v-85.39C134 49.72 138.72 45 144.543 45h41.331c5.823 0 10.543 4.72 10.543 10.543v85.39c0 5.823-4.72 10.542-10.543 10.542z" fill="#363636"/><path d="M190.909 56.015h-51.402v78.938h51.402V56.015zm-20.193-3.672h-11.015a1.834 1.834 0 0 1-1.836-1.836c0-1.015.821-1.835 1.836-1.835h11.015a1.834 1.834 0 1 1 0 3.672zm16.522 0h-1.836a1.834 1.834 0 0 1-1.836-1.836c0-1.015.821-1.835 1.836-1.835h1.836a1.834 1.834 0 1 1 0 3.672zm-7.344 0h-1.835a1.834 1.834 0 0 1-1.836-1.836c0-1.015.82-1.835 1.836-1.835h1.835c1.016 0 1.836.82 1.836 1.835 0 1.016-.82 1.836-1.836 1.836zm-10.096 93.625h-9.179a2.762 2.762 0 0 1-2.754-2.754 2.761 2.761 0 0 1 2.754-2.753h9.179a2.762 2.762 0 0 1 2.754 2.753 2.762 2.762 0 0 1-2.754 2.754z" fill="#D6D6D6"/></svg>