<svg width="60" height="60" fill="none" xmlns="http://www.w3.org/2000/svg"><path d="M45.107 23.806a1.28 1.28 0 0 0 .398-.927L45.48 1.274A1.277 1.277 0 0 0 44.203 0l-28.63.033c-.339 0-.664.135-.903.376L.75 14.395l-.372.374a1.272 1.272 0 0 0-.378.907l.05 43.05C.05 59.43.621 60 1.325 60l28.63-.033c.433 0 .815-.217 1.045-.547l.006-.007.01-.014.209-.3 9.78-14.04c.149-.214.229-.468.229-.73l-.02-16.832 3.892-3.69z" fill="#AEAEAE"/><path d="M.378 14.769a1.272 1.272 0 0 0-.378.907l.05 43.05C.05 59.43.621 60 1.325 60l28.63-.033c.433 0 .815-.217 1.045-.547l.006-.008.003-.004a.551.551 0 0 0 .006-.01l.21-.3v-4.462L31.18 15.64c0-.705-.572-1.275-1.277-1.274l-25.556.03H.75l-.371.373z" fill="#D6D6D6"/><path d="M24.001 50.248l.003 2.551-5.09.006-.003-2.551 5.09-.006zm-11.652.013l.003 2.551-5.09.006-.003-2.55 5.09-.007zM22.855 21.63l-14.515.017c-.705 0-1.275.572-1.274 1.276l.023 20.437c0 .705.573 1.275 1.277 1.274l14.515-.017c.705 0 1.275-.572 1.274-1.277l-.023-20.436a1.276 1.276 0 0 0-1.277-1.274z" fill="#F5F5F5"/><path d="M53.427 38.454c-.473-.717-1.66-.715-2.13.003-.67 1.02-6.546 10.07-6.541 13.856.004 4.212 3.428 7.634 7.63 7.629 4.203-.005 7.619-3.434 7.614-7.646-.005-3.787-5.9-12.824-6.573-13.842z" fill="#363636"/></svg>