<svg width="72" height="104" fill="none" xmlns="http://www.w3.org/2000/svg"><rect width="72" height="104" rx="2" fill="#E7E7E7"/><rect x="42" y="36" width="1" height="4" rx=".5" fill="#363636"/><rect x="33" y="36" width="1" height="6" rx=".5" fill="#363636"/><rect x="24" y="36" width="1" height="8" rx=".5" fill="#363636"/><rect x="15" y="36" width="1" height="4" rx=".5" fill="#363636"/><rect x="40" y="26" width="1" height="4" rx=".5" fill="#363636"/><rect x="58" y="26" width="1" height="4" rx=".5" fill="#363636"/><rect x="31" y="26" width="1" height="6" rx=".5" fill="#363636"/><rect x="22" y="26" width="1" height="8" rx=".5" fill="#363636"/><rect x="49" y="26" width="1" height="8" rx=".5" fill="#363636"/><rect x="13" y="26" width="1" height="4" rx=".5" fill="#363636"/><rect x="49" y="16" width="1" height="4" rx=".5" fill="#363636"/><rect x="58" y="16" width="1" height="4" rx=".5" fill="#363636"/><rect x="31" y="16" width="1" height="6" rx=".5" fill="#363636"/><rect x="13" y="16" width="1" height="8" rx=".5" fill="#363636"/><rect x="40" y="16" width="1" height="8" rx=".5" fill="#363636"/><rect x="22" y="16" width="1" height="4" rx=".5" fill="#363636"/><rect x="64" y="16" width="2" height="56" rx="1" transform="rotate(90 64 16)" fill="#363636"/><rect x="64" y="26" width="2" height="56" rx="1" transform="rotate(90 64 26)" fill="#363636"/><rect x="50" y="36" width="2" height="42" rx="1" transform="rotate(90 50 36)" fill="#363636"/></svg>