<svg width="60" height="42" fill="none" xmlns="http://www.w3.org/2000/svg"><path d="M24.924 37.8c.215.609.784 1.05 1.455 1.05h8.276c.672 0 1.242-.441 1.456-1.05h20.786V3.22c0-1.778-1.42-3.22-3.173-3.22H6.276C4.524 0 3.104 1.442 3.104 3.22V37.8h21.82z" fill="#363636"/><path d="M53.792 3.15H6.206v31.5h47.586V3.15zM36.11 37.8a1.554 1.554 0 0 1-1.455 1.05H26.38a1.553 1.553 0 0 1-1.455-1.05H.598a.603.603 0 0 0-.598.607v2.986c0 .335.268.607.598.607h58.804c.33 0 .598-.272.598-.607v-2.986a.603.603 0 0 0-.598-.607H36.111z" fill="#D6D6D6"/></svg>