<svg width="56" height="108" fill="none" xmlns="http://www.w3.org/2000/svg"><rect width="56" height="108" rx="8" fill="#363636"/><path fill-rule="evenodd" clip-rule="evenodd" d="M16 4H8a4 4 0 0 0-4 4v92a4 4 0 0 0 4 4h40a4 4 0 0 0 4-4V8a4 4 0 0 0-4-4h-8a4 4 0 0 1-4 4H20a4 4 0 0 1-4-4z" fill="#E7E7E7"/><path fill-rule="evenodd" clip-rule="evenodd" d="M39.523 42.477a1.625 1.625 0 0 0-2.3 0l-9.212 9.229-9.234-9.226a1.63 1.63 0 0 0-2.303 0 1.626 1.626 0 0 0 0 2.302l9.237 9.229-9.192 9.21a1.632 1.632 0 0 0 0 2.305 1.624 1.624 0 0 0 2.3 0l9.196-9.214 9.191 9.184a1.63 1.63 0 0 0 2.304 0 1.627 1.627 0 0 0 0-2.301l-9.195-9.188 9.207-9.225a1.632 1.632 0 0 0 0-2.305z" fill="#C9473E"/></svg>