<svg width="168" height="108" fill="none" xmlns="http://www.w3.org/2000/svg"><path fill-rule="evenodd" clip-rule="evenodd" d="M60.535 100H4a4 4 0 0 0 0 8h160a4 4 0 0 0 0-8h-56.535a3.998 3.998 0 0 1-3.465 2H64a3.998 3.998 0 0 1-3.465-2z" fill="#363636"/><mask id="a" fill="#fff"><rect x="4" width="160" height="96" rx="4"/></mask><rect x="4" width="160" height="96" rx="4" fill="#E7E7E7" stroke="#363636" stroke-width="16" mask="url(#a)"/><path fill-rule="evenodd" clip-rule="evenodd" d="M95.526 36.477a1.624 1.624 0 0 0-2.3 0l-9.211 9.23-9.234-9.227a1.63 1.63 0 0 0-2.304 0 1.627 1.627 0 0 0 0 2.302l9.237 9.229-9.192 9.21a1.632 1.632 0 0 0 0 2.305 1.624 1.624 0 0 0 2.3 0l9.196-9.214 9.192 9.184a1.63 1.63 0 0 0 2.303 0 1.626 1.626 0 0 0 0-2.302l-9.195-9.186 9.208-9.226a1.632 1.632 0 0 0 0-2.305z" fill="#C9473E"/></svg>