<svg width="147" height="101" fill="none" xmlns="http://www.w3.org/2000/svg"><path d="M62.457 82.32H28.62c-.352 0-.488-.482-.195-.686l2.835-2c3.057-2.155 4.503-6.11 3.611-9.876h21.337v.003c-.891 3.768.556 7.72 3.615 9.877l2.831 1.996c.291.205.153.686-.197.686z" fill="#D6D6D6"/><path d="M85.584 69.758H5.493A5.493 5.493 0 0 1 0 64.265V6.158A5.493 5.493 0 0 1 5.493.665h80.09a5.493 5.493 0 0 1 5.494 5.493v58.105a5.493 5.493 0 0 1-5.493 5.495z" fill="#E7E7E7"/><path d="M91.077 55.625H0V6.158A5.493 5.493 0 0 1 5.493.665h80.09a5.493 5.493 0 0 1 5.494 5.493v49.467z" fill="#363636"/><path d="M63.597 87.03H27.48a2.362 2.362 0 0 1-2.355-2.355 2.362 2.362 0 0 1 2.355-2.355h36.117a2.362 2.362 0 0 1 2.355 2.355 2.362 2.362 0 0 1-2.355 2.356z" fill="#E7E7E7"/><path d="M101.803 84.969h14.349c2.584 0 5.083.925 7.046 2.607l13.866 11.892c.929.795 2.287.932 3.318.278 14.426-9.13-3.071-45.161-6.54-51.702-.367-.695-.973-4.46-1.71-4.73l-11.661-4.24a3.416 3.416 0 0 0-3.064.368s-3.287 2.101-4.024 2.101H90.635c-.736 0-4.437-2.1-4.437-2.1a3.417 3.417 0 0 0-3.064-.368l-11.66 4.24c-.739.269-1.344 4.034-1.711 4.729-3.468 6.541-20.966 42.572-6.54 51.702 1.033.653 2.391.516 3.318-.278l13.866-11.892a10.83 10.83 0 0 1 7.046-2.607h14.35z" fill="#363636"/><path d="M113.486 77.373a6.077 6.077 0 1 0 0-12.153 6.077 6.077 0 0 0 0 12.153zm-34.94-15.191a6.077 6.077 0 1 0 0-12.153 6.077 6.077 0 0 0 0 12.153z" fill="#D6D6D6"/><path d="M124.12 53.068a3.038 3.038 0 1 0 0-6.077 3.038 3.038 0 0 0 0 6.077zm-6.077 6.076a3.039 3.039 0 1 0 0-6.078 3.039 3.039 0 0 0 0 6.078zm12.153 0a3.039 3.039 0 1 0 0-6.078 3.039 3.039 0 0 0 0 6.078zm-6.076 6.076a3.038 3.038 0 1 0 0-6.076 3.038 3.038 0 0 0 0 6.077zm-18.23-22.112a4.42 4.42 0 0 0-.082-.852 1.633 1.633 0 0 0-.326-.713h-3.766c-.129.011-.251.046-.381.046-.133 0-.254-.033-.382-.046h-3.781c-.133.174-.24.373-.291.608a4.567 4.567 0 0 0 0 1.93c.376 1.778 1.86 3.21 3.651 3.516a4.56 4.56 0 0 0 5.358-4.489z" fill="#F5F5F5"/><path d="M99.054 67.732h-4.991V62.74c0-.6-.487-1.085-1.085-1.085h-3.906c-.6 0-1.084.486-1.084 1.085v4.992h-4.992c-.6 0-1.085.486-1.085 1.084v3.906c0 .6.486 1.085 1.085 1.085h4.99v4.991c0 .6.486 1.085 1.085 1.085h3.905c.6 0 1.085-.486 1.085-1.085v-4.991h4.992c.6 0 1.085-.487 1.085-1.085v-3.906a1.084 1.084 0 0 0-1.084-1.084z" fill="#D6D6D6"/></svg>