<svg width="109" height="129" fill="none" xmlns="http://www.w3.org/2000/svg"><path d="M51.874 107.34H10.543C4.72 107.34 0 102.62 0 96.797v-85.39C0 5.584 4.72.864 10.543.864h41.33c5.824 0 10.544 4.72 10.544 10.543v85.39c0 5.823-4.72 10.543-10.543 10.543z" fill="#363636"/><path d="M56.91 11.879H5.506v78.939H56.91v-78.94zM36.716 8.207H25.7a1.834 1.834 0 0 1-1.836-1.835c0-1.016.82-1.836 1.836-1.836h11.015c1.015 0 1.835.82 1.835 1.836 0 1.015-.82 1.835-1.835 1.835zm16.522 0h-1.836a1.834 1.834 0 0 1-1.836-1.835c0-1.016.82-1.836 1.836-1.836h1.836c1.015 0 1.836.82 1.836 1.836a1.834 1.834 0 0 1-1.836 1.835zm-7.343 0h-1.836a1.834 1.834 0 0 1-1.836-1.835c0-1.016.82-1.836 1.836-1.836h1.836c1.015 0 1.835.82 1.835 1.836 0 1.015-.82 1.835-1.835 1.835zm-10.097 93.625h-9.18a2.762 2.762 0 0 1-2.753-2.753 2.762 2.762 0 0 1 2.754-2.754h9.179a2.762 2.762 0 0 1 2.753 2.754 2.762 2.762 0 0 1-2.753 2.753z" fill="#D6D6D6"/><path d="M103.39 128.136H55.52a5.437 5.437 0 0 1-5.438-5.438v-95.6a5.437 5.437 0 0 1 5.438-5.438h47.872a5.437 5.437 0 0 1 5.436 5.438V122.7a5.437 5.437 0 0 1-5.438 5.436z" fill="#F5F5F5"/><path d="M49.247 38.182v1.836m0 5.508v1.835m0 5.507v1.836" stroke="#F5F5F5" stroke-width="2" stroke-miterlimit="10" stroke-linecap="round"/><path d="M108.828 32.675H50.083v80.774h58.745V32.675zm-22.03-3.672H77.62a1.835 1.835 0 1 1 0-3.671h9.178a1.835 1.835 0 1 1 0 3.671zm-14.686 0h-1.836a1.835 1.835 0 1 1 0-3.671h1.836a1.835 1.835 0 1 1 0 3.671z" fill="#363636"/><path d="M79.455 126.3a5.508 5.508 0 1 0 0-11.015 5.508 5.508 0 0 0 0 11.015z" fill="#D6D6D6"/></svg>