<svg width="168" height="80" fill="none" xmlns="http://www.w3.org/2000/svg"><rect x="50" y="27.427" width="65.133" height="38.28" rx="3" fill="#F5F5F5" stroke="#363636" stroke-width="2"/><mask id="a" fill="#fff"><path fill-rule="evenodd" clip-rule="evenodd" d="M66.237 46.095a5.359 5.359 0 1 0 0-10.717 5.359 5.359 0 0 0 0 10.717zm9.98 8.149c.805 2.057-1.053 3.908-3.262 3.908H59.52c-2.209 0-4.068-1.851-3.262-3.908a10.715 10.715 0 0 1 9.98-6.81 10.717 10.717 0 0 1 9.979 6.81z"/></mask><path fill-rule="evenodd" clip-rule="evenodd" d="M66.237 46.095a5.359 5.359 0 1 0 0-10.717 5.359 5.359 0 0 0 0 10.717zm9.98 8.149c.805 2.057-1.053 3.908-3.262 3.908H59.52c-2.209 0-4.068-1.851-3.262-3.908a10.715 10.715 0 0 1 9.98-6.81 10.717 10.717 0 0 1 9.979 6.81z" fill="#F5F5F5"/><path d="M76.217 54.244l1.862-.73-1.862.73zm-19.959 0l-1.862-.73 1.862.73zm2.401-3.67l1.414 1.414-1.414-1.414zm15.157 0L72.4 51.988l1.415-1.414zm-4.22-9.838a3.359 3.359 0 0 1-3.359 3.359v4a7.359 7.359 0 0 0 7.359-7.359h-4zm-3.359-3.358a3.359 3.359 0 0 1 3.359 3.358h4a7.359 7.359 0 0 0-7.359-7.358v4zm-3.358 3.358a3.359 3.359 0 0 1 3.358-3.358v-4a7.359 7.359 0 0 0-7.358 7.358h4zm3.358 3.359a3.359 3.359 0 0 1-3.358-3.359h-4a7.359 7.359 0 0 0 7.358 7.359v-4zm6.718 16.057c1.642 0 3.214-.683 4.256-1.854 1.083-1.218 1.575-2.978.868-4.783l-3.725 1.458a.59.59 0 0 1 .045.345.71.71 0 0 1-.177.322c-.24.269-.7.512-1.267.512v4zm-6.718 0h6.718v-4h-6.718v4zm-6.717 0h6.717v-4H59.52v4zm-5.124-6.637c-.707 1.805-.215 3.565.868 4.783 1.041 1.171 2.614 1.854 4.256 1.854v-4c-.567 0-1.028-.243-1.267-.512a.712.712 0 0 1-.177-.322.588.588 0 0 1 .044-.345l-3.724-1.458zm2.849-4.356a12.716 12.716 0 0 0-2.85 4.356l3.725 1.458a8.716 8.716 0 0 1 1.953-2.985l-2.828-2.829zm8.992-3.724a12.72 12.72 0 0 0-8.992 3.724l2.828 2.829a8.717 8.717 0 0 1 6.164-2.553v-4zm8.993 3.724a12.717 12.717 0 0 0-8.993-3.724v4c2.312 0 4.53.918 6.164 2.553l2.829-2.829zm2.849 4.356a12.716 12.716 0 0 0-2.85-4.356l-2.828 2.829a8.716 8.716 0 0 1 1.953 2.985l3.725-1.458z" fill="#363636" mask="url(#a)"/><path stroke="#363636" stroke-width="2" stroke-linecap="round" d="M83 42l22.001.004m-22.002 6.995L93 48.995"/><circle cx="116.147" cy="27" r="13" fill="#C9473E" stroke="#363636" stroke-width="2"/><path stroke="#363636" stroke-width="2" stroke-linecap="round" d="M111.939 31.41l8.585-8.586"/><circle r="2.286" transform="rotate(45 28.338 146.805)" fill="#363636"/><circle r="2.286" transform="rotate(45 22.624 160.6)" fill="#363636"/></svg>