<svg width="72" height="104" fill="none" xmlns="http://www.w3.org/2000/svg"><rect width="72" height="104" rx="2" fill="#E7E7E7"/><rect x="64" y="16" width="2" height="56" rx="1" transform="rotate(90 64 16)" fill="#363636"/><rect x="64" y="26" width="2" height="56" rx="1" transform="rotate(90 64 26)" fill="#363636"/><rect x="50" y="36" width="2" height="42" rx="1" transform="rotate(90 50 36)" fill="#363636"/><path fill-rule="evenodd" clip-rule="evenodd" d="M41.07 0h-2.31L43 7.343v12.174L32 .464V0h-2v104h2v-1.709l.987 1.709h2.31L32 98.29V86.288L42.226 104H45V0h-2v3.343L41.07 0zM47 0v104h2.638L60 86.051v12.004L56.568 104h2.309L60 102.055V104h2V0h-2v.228L49 19.281V7.107L53.103 0h-2.309L49 3.107V0h-2zM32 82.287l11 19.053V89.343L32 70.291v11.996zm11-8.947v12.003L32 66.291V54.287L43 73.34zM32 50.287L43 69.34V57.343L32 38.291v11.996zm11-10.774v13.83L32 34.291V20.46l11 19.052zM32 16.461l11 19.052V23.517L32 4.464v11.997zm17 84.643l11-19.053V70.055L49 89.107v11.997zm11-47.053v12.004L49 85.107V73.104l11-19.053zM49 69.104l11-19.053V38.055L49 57.107v11.997zm11-48.88v13.83L49 53.108v-13.83l11-19.052zM49 35.278l11-19.052V4.228L49 23.281v11.996z" fill="#AEAEAE"/></svg>