<svg width="168" height="108" fill="none" xmlns="http://www.w3.org/2000/svg"><path fill-rule="evenodd" clip-rule="evenodd" d="M60.535 100H4a4 4 0 0 0 0 8h160a4 4 0 0 0 0-8h-56.535a3.998 3.998 0 0 1-3.465 2H64a3.998 3.998 0 0 1-3.465-2z" fill="#363636"/><mask id="a" fill="#fff"><rect x="4" width="160" height="96" rx="4"/></mask><rect x="4" width="160" height="96" rx="4" fill="#E7E7E7" stroke="#363636" stroke-width="16" mask="url(#a)"/><path d="M83.158 34.526L100 32v14.99H83.158V34.526zM68 36.716l12.912-1.91v12.352H68V36.716zm15.158 24.758L100 64V49.403H83.158v12.07zM68 59.284l12.912 1.909v-11.79H68v9.881z" fill="#C9473E"/></svg>