<svg width="114" height="118" fill="none" xmlns="http://www.w3.org/2000/svg"><path d="M85.5 91.552H114V110a8 8 0 0 1-8 8H85.5V91.552z" fill="#AEAEAE"/><path d="M57 91.552h28.5V118H57V91.552z" fill="#D6D6D6"/><path d="M28.5 91.552H57V118H28.5V91.552z" fill="#AEAEAE"/><path d="M0 26.38a4 4 0 0 1 4-4h24.5v69.172H0V26.379z" fill="#D6D6D6"/><path d="M20.357 50.862a6.106 6.106 0 0 1-6.107 6.103 6.106 6.106 0 0 1-6.108-6.103c0-3.372 6.107-10.172 6.107-10.172s6.108 6.8 6.108 10.172z" fill="#F5F5F5"/><path d="M0 75.276h28.5v16.276H0V75.276z" fill="#E7E7E7"/><path d="M28.5 22.38H57v69.172H28.5V22.379z" fill="#AEAEAE"/><path d="M48.857 50.862a6.106 6.106 0 0 1-6.108 6.103 6.106 6.106 0 0 1-6.107-6.103c0-3.372 6.107-10.172 6.107-10.172s6.108 6.8 6.108 10.172z" fill="#F5F5F5"/><path d="M28.5 75.276H57v16.276H28.5V75.276zM57 22.38h28.5v69.172H57V22.379z" fill="#D6D6D6"/><path d="M77.357 50.862a6.106 6.106 0 0 1-6.108 6.103 6.106 6.106 0 0 1-6.107-6.103c0-3.372 6.108-10.172 6.108-10.172s6.107 6.8 6.107 10.172z" fill="#F5F5F5"/><path d="M57 75.276h28.5v16.276H57V75.276z" fill="#E7E7E7"/><path d="M85.5 22.38H110a4 4 0 0 1 4 4v65.172H85.5V22.379z" fill="#AEAEAE"/><path d="M105.857 50.862a6.106 6.106 0 0 1-6.108 6.103 6.106 6.106 0 0 1-6.107-6.103c0-3.372 6.108-10.172 6.108-10.172s6.107 6.8 6.107 10.172z" fill="#F5F5F5"/><path d="M85.5 75.276H114v16.276H85.5V75.276z" fill="#D6D6D6"/><path d="M8.142 75.276h4.072v6.102a2.036 2.036 0 1 1-4.072 0v-6.102zm8.143 0h4.072v6.102a2.036 2.036 0 1 1-4.072 0v-6.102zm20.357 0h4.072v6.102a2.036 2.036 0 1 1-4.072 0v-6.102zm8.143 0h4.072v6.102a2.036 2.036 0 1 1-4.072 0v-6.102zm20.357 0h4.072v6.102a2.036 2.036 0 1 1-4.072 0v-6.102zm8.143 0h4.072v6.102a2.036 2.036 0 1 1-4.072 0v-6.102zm20.357 0h4.072v6.102a2.036 2.036 0 1 1-4.072 0v-6.102zm8.143 0h4.072v6.102a2.036 2.036 0 0 1-4.072 0v-6.102z" fill="#363636"/><path d="M0 91.552h28.5V118H8a8 8 0 0 1-8-8V91.552z" fill="#D6D6D6"/><path d="M4.071 18.241a4 4 0 0 1 4-4h12.357a4 4 0 0 1 4 4v4.138H4.071v-4.138zm28.499 0a4 4 0 0 1 4-4h12.358a4 4 0 0 1 4 4v4.138H32.57v-4.138zm28.5 0a4 4 0 0 1 4-4h12.358a4 4 0 0 1 4 4v4.138H61.07v-4.138zm28.5 0a4 4 0 0 1 4-4h12.357a4 4 0 0 1 4 4v4.138H89.57v-4.138zM10.178 4.071a4.071 4.071 0 1 1 8.143 0v10.17h-8.143V4.071zm28.5 0a4.071 4.071 0 0 1 8.143 0v10.17h-8.143V4.071zm28.5 0a4.071 4.071 0 1 1 8.143 0v10.17h-8.143V4.071zm28.5 0a4.071 4.071 0 0 1 8.142 0v10.17h-8.142V4.071z" fill="#363636"/></svg>