<svg width="60" height="42" fill="none" xmlns="http://www.w3.org/2000/svg"><path d="M30 31.59h9.74a7.31 7.31 0 0 1 4.782 1.786l9.412 8.148c.63.546 1.552.64 2.252.19 9.792-6.255-2.085-30.944-4.439-35.427-.25-.476-.66-3.056-1.16-3.24L42.67.14a2.3 2.3 0 0 0-2.08.252s-2.23 1.44-2.73 1.44H22.42c-.5 0-3.012-1.44-3.012-1.44a2.3 2.3 0 0 0-2.08-.252L9.415 3.047c-.501.184-.912 2.764-1.161 3.24C5.9 10.77-5.976 35.459 3.814 41.715c.702.447 1.624.354 2.253-.19l9.412-8.15a7.31 7.31 0 0 1 4.782-1.785H30z" fill="#363636"/><path d="M37.93 26.385c2.278 0 4.125-1.864 4.125-4.164s-1.847-4.163-4.125-4.163-4.124 1.864-4.124 4.163c0 2.3 1.846 4.164 4.124 4.164zm-23.715-10.41c2.278 0 4.124-1.864 4.124-4.164s-1.846-4.164-4.124-4.164c-2.278 0-4.125 1.865-4.125 4.164 0 2.3 1.847 4.164 4.125 4.164z" fill="#D6D6D6"/><path d="M45.148 9.73a2.072 2.072 0 0 0 2.062-2.082c0-1.15-.923-2.082-2.062-2.082a2.072 2.072 0 0 0-2.062 2.082c0 1.15.923 2.082 2.062 2.082zm-4.124 4.164a2.072 2.072 0 0 0 2.062-2.082c0-1.15-.923-2.082-2.062-2.082a2.072 2.072 0 0 0-2.063 2.082c0 1.15.924 2.082 2.063 2.082zm8.248 0a2.072 2.072 0 0 0 2.063-2.082c0-1.15-.924-2.082-2.063-2.082a2.072 2.072 0 0 0-2.062 2.082c0 1.15.923 2.082 2.062 2.082zm-4.124 4.163a2.072 2.072 0 0 0 2.062-2.081c0-1.15-.923-2.082-2.062-2.082a2.072 2.072 0 0 0-2.062 2.082c0 1.15.923 2.081 2.062 2.081zM32.774 2.905c0-.2-.02-.395-.055-.584a1.125 1.125 0 0 0-.222-.488h-2.556c-.088.007-.17.031-.259.031-.09 0-.172-.023-.259-.031h-2.566c-.09.119-.163.255-.198.416a3.16 3.16 0 0 0 0 1.323c.256 1.218 1.263 2.2 2.479 2.41 1.947.334 3.636-1.172 3.636-3.077z" fill="#F5F5F5"/><path d="M28.135 19.778h-3.389v-3.42a.74.74 0 0 0-.736-.744h-2.65a.74.74 0 0 0-.737.744v3.42h-3.388a.74.74 0 0 0-.736.743v2.677c0 .41.33.743.736.743h3.387v3.42c0 .412.33.744.736.744h2.651a.74.74 0 0 0 .736-.744v-3.42h3.389a.74.74 0 0 0 .736-.743V20.52a.739.739 0 0 0-.735-.743z" fill="#D6D6D6"/></svg>