<svg width="50" height="40" fill="none" xmlns="http://www.w3.org/2000/svg"><path d="M13.862 20.364l.136.481-.136-.481-2.137.606c-.404.115-.625.471-.661.81a11.648 11.648 0 0 0 0 2.44c.036.339.257.695.66.81l2.138.606.136-.481-.136.481a1.11 1.11 0 0 1 .666 1.608l-1.083 1.94c-.204.366-.109.774.105 1.039a11.574 11.574 0 0 0 1.727 1.727.934.934 0 0 0 1.039.105l1.94-1.083a1.11 1.11 0 0 1 1.608.666l.606 2.137c.115.404.471.625.81.661a11.648 11.648 0 0 0 2.44 0c.339-.036.695-.257.81-.66l.606-2.138a1.11 1.11 0 0 1 1.608-.666l1.94 1.083c.366.203.774.108 1.039-.105a11.574 11.574 0 0 0 1.727-1.727c.214-.265.309-.673.105-1.039l-1.083-1.94a1.11 1.11 0 0 1 .666-1.608l2.137-.606c.404-.115.625-.471.661-.81a11.648 11.648 0 0 0 0-2.44c-.036-.339-.257-.695-.66-.81l-2.138-.606a1.11 1.11 0 0 1-.666-1.608l1.083-1.94-.437-.244.437.244c.204-.366.109-.774-.105-1.039a11.574 11.574 0 0 0-1.727-1.726l-.315.388.315-.389c-.265-.214-.673-.309-1.039-.105l.244.437-.244-.437-1.94 1.083a1.11 1.11 0 0 1-1.608-.666l-.481.136.481-.136-.606-2.137c-.115-.404-.471-.625-.81-.661a11.648 11.648 0 0 0-2.44 0c-.339.036-.695.257-.81.66l-.606 2.138a1.11 1.11 0 0 1-1.608.666l-1.94-1.083c-.366-.204-.774-.109-1.039.105a11.574 11.574 0 0 0-1.726 1.727c-.215.265-.31.673-.106 1.039l1.083 1.94a1.11 1.11 0 0 1-.666 1.608zM28 23a5.5 5.5 0 1 1-11 0 5.5 5.5 0 0 1 11 0z" fill="#F5F5F5" stroke="#363636"/><circle cx="31.5" cy="13" r="6.5" fill="#C9473E" stroke="#363636"/><path transform="scale(.99595 1.00404) rotate(45 -2.273 39.788)" stroke="#363636" stroke-linecap="round" d="M.5-.5h3.59"/><path transform="scale(.99595 1.00404) rotate(-45 35.282 -28.823)" stroke="#363636" stroke-linecap="round" d="M.5-.5h5.885"/></svg>