<svg width="50" height="40" fill="none" xmlns="http://www.w3.org/2000/svg"><mask id="a" fill="#fff"><path fill-rule="evenodd" clip-rule="evenodd" d="M14.045 23.873c2.548 0 4.613-2.055 4.613-4.59 0-2.536-2.065-4.59-4.613-4.59-2.547 0-4.612 2.054-4.612 4.59 0 2.535 2.065 4.59 4.612 4.59zm9.007 8.344c.24 1.078-.677 1.984-1.782 1.984H6.82c-1.105 0-2.022-.906-1.782-1.984a9.168 9.168 0 0 1 2.484-4.508 9.248 9.248 0 0 1 6.523-2.689c2.447 0 4.793.968 6.523 2.69a9.169 9.169 0 0 1 2.484 4.507z"/></mask><path fill-rule="evenodd" clip-rule="evenodd" d="M14.045 23.873c2.548 0 4.613-2.055 4.613-4.59 0-2.536-2.065-4.59-4.613-4.59-2.547 0-4.612 2.054-4.612 4.59 0 2.535 2.065 4.59 4.612 4.59zm9.007 8.344c.24 1.078-.677 1.984-1.782 1.984H6.82c-1.105 0-2.022-.906-1.782-1.984a9.168 9.168 0 0 1 2.484-4.508 9.248 9.248 0 0 1 6.523-2.689c2.447 0 4.793.968 6.523 2.69a9.169 9.169 0 0 1 2.484 4.507z" fill="#F5F5F5"/><path d="M23.052 32.217l-.976.217.976-.217zm-18.014 0l-.976-.218.976.218zm2.484-4.508l.705.71-.705-.71zm13.046 0l.705-.709-.705.71zm-2.91-8.427c0 1.979-1.613 3.59-3.613 3.59v2c3.095 0 5.613-2.497 5.613-5.59h-2zm-3.613-3.59c2 0 3.613 1.612 3.613 3.59h2c0-3.091-2.518-5.59-5.613-5.59v2zm-3.612 3.59c0-1.978 1.613-3.59 3.612-3.59v-2c-3.095 0-5.612 2.499-5.612 5.59h2zm3.612 3.59c-2 0-3.612-1.611-3.612-3.59h-2c0 3.093 2.517 5.59 5.612 5.59v-2zm7.225 12.329c1.58 0 3.17-1.347 2.758-3.202l-1.952.435a.525.525 0 0 1-.142.496.913.913 0 0 1-.664.27v2zm-7.225 0h7.225v-2h-7.225v2zm-7.225 0h7.225v-2H6.82v2zm-2.758-3.202c-.413 1.855 1.179 3.202 2.758 3.202v-2a.913.913 0 0 1-.664-.27.525.525 0 0 1-.142-.497l-1.952-.435zM6.817 27a10.168 10.168 0 0 0-2.755 5l1.952.434a8.168 8.168 0 0 1 2.213-4.016L6.817 27zm7.228-2.98A10.25 10.25 0 0 0 6.817 27l1.41 1.418a8.248 8.248 0 0 1 5.818-2.398v-2zM21.273 27a10.248 10.248 0 0 0-7.228-2.98v2c2.183 0 4.276.863 5.818 2.398L21.273 27zm2.755 5a10.168 10.168 0 0 0-2.755-5l-1.41 1.418a8.168 8.168 0 0 1 2.213 4.016l1.952-.435z" fill="#363636" mask="url(#a)"/><mask id="b" fill="#fff"><path fill-rule="evenodd" clip-rule="evenodd" d="M35.955 23.873c2.547 0 4.612-2.055 4.612-4.59 0-2.536-2.065-4.59-4.612-4.59-2.548 0-4.613 2.054-4.613 4.59 0 2.535 2.065 4.59 4.613 4.59zm9.007 8.344c.24 1.078-.678 1.984-1.782 1.984H28.73c-1.105 0-2.022-.906-1.782-1.984a9.169 9.169 0 0 1 2.484-4.508 9.248 9.248 0 0 1 6.523-2.689c2.446 0 4.793.968 6.523 2.69a9.168 9.168 0 0 1 2.484 4.507z"/></mask><path fill-rule="evenodd" clip-rule="evenodd" d="M35.955 23.873c2.547 0 4.612-2.055 4.612-4.59 0-2.536-2.065-4.59-4.612-4.59-2.548 0-4.613 2.054-4.613 4.59 0 2.535 2.065 4.59 4.613 4.59zm9.007 8.344c.24 1.078-.678 1.984-1.782 1.984H28.73c-1.105 0-2.022-.906-1.782-1.984a9.169 9.169 0 0 1 2.484-4.508 9.248 9.248 0 0 1 6.523-2.689c2.446 0 4.793.968 6.523 2.69a9.168 9.168 0 0 1 2.484 4.507z" fill="#F5F5F5"/><path d="M44.962 32.217l-.976.217.976-.217zm-18.014 0l-.977-.218.977.218zm2.484-4.508l.705.71-.705-.71zm13.046 0l.705-.709-.705.71zm-2.91-8.427c0 1.979-1.614 3.59-3.613 3.59v2c3.095 0 5.612-2.497 5.612-5.59h-2zm-3.613-3.59c2 0 3.612 1.612 3.612 3.59h2c0-3.091-2.517-5.59-5.612-5.59v2zm-3.613 3.59c0-1.978 1.613-3.59 3.613-3.59v-2c-3.096 0-5.613 2.499-5.613 5.59h2zm3.613 3.59c-2 0-3.613-1.611-3.613-3.59h-2c0 3.093 2.517 5.59 5.613 5.59v-2zm7.225 12.329c1.579 0 3.17-1.347 2.758-3.202l-1.952.435a.526.526 0 0 1-.142.496.913.913 0 0 1-.664.27v2zm-7.225 0h7.225v-2h-7.225v2zm-7.225 0h7.225v-2H28.73v2zm-2.759-3.202c-.412 1.855 1.18 3.202 2.759 3.202v-2a.913.913 0 0 1-.665-.27.525.525 0 0 1-.141-.497l-1.953-.435zM28.726 27a10.168 10.168 0 0 0-2.755 5l1.953.434a8.168 8.168 0 0 1 2.213-4.016L28.727 27zm7.229-2.98c-2.71 0-5.31 1.072-7.229 2.98l1.411 1.418a8.248 8.248 0 0 1 5.818-2.398v-2zM43.183 27a10.248 10.248 0 0 0-7.228-2.98v2c2.183 0 4.275.863 5.817 2.398L43.183 27zm2.755 5a10.168 10.168 0 0 0-2.755-5l-1.41 1.418a8.168 8.168 0 0 1 2.213 4.016l1.952-.435z" fill="#363636" mask="url(#b)"/><mask id="c" fill="#fff"><path fill-rule="evenodd" clip-rule="evenodd" d="M24.856 27.172c2.547 0 4.612-2.055 4.612-4.59 0-2.535-2.065-4.59-4.612-4.59s-4.613 2.055-4.613 4.59c0 2.535 2.066 4.59 4.613 4.59zm9.007 8.344c.24 1.078-.677 1.984-1.782 1.984h-14.45c-1.105 0-2.022-.906-1.782-1.984a9.167 9.167 0 0 1 2.484-4.508 9.248 9.248 0 0 1 6.523-2.688c2.447 0 4.793.967 6.523 2.688a9.168 9.168 0 0 1 2.484 4.508z"/></mask><path fill-rule="evenodd" clip-rule="evenodd" d="M24.856 27.172c2.547 0 4.612-2.055 4.612-4.59 0-2.535-2.065-4.59-4.612-4.59s-4.613 2.055-4.613 4.59c0 2.535 2.066 4.59 4.613 4.59zm9.007 8.344c.24 1.078-.677 1.984-1.782 1.984h-14.45c-1.105 0-2.022-.906-1.782-1.984a9.167 9.167 0 0 1 2.484-4.508 9.248 9.248 0 0 1 6.523-2.688c2.447 0 4.793.967 6.523 2.688a9.168 9.168 0 0 1 2.484 4.508z" fill="#F5F5F5"/><path d="M33.863 35.516l-.976.217.976-.217zm-18.014 0l-.976-.217.976.217zm2.484-4.508l.705.71-.705-.71zm13.046 0l.705-.708-.705.708zm-2.91-8.426c0 1.978-1.613 3.59-3.613 3.59v2c3.095 0 5.612-2.498 5.612-5.59h-2zm-3.613-3.59c2 0 3.612 1.612 3.612 3.59h2c0-3.092-2.517-5.59-5.612-5.59v2zm-3.613 3.59c0-1.978 1.613-3.59 3.613-3.59v-2c-3.095 0-5.613 2.498-5.613 5.59h2zm3.613 3.59c-2 0-3.613-1.612-3.613-3.59h-2c0 3.092 2.518 5.59 5.613 5.59v-2zM32.081 38.5c1.58 0 3.17-1.347 2.758-3.201l-1.952.434a.526.526 0 0 1-.142.497.913.913 0 0 1-.664.27v2zm-7.225 0h7.225v-2h-7.225v2zm-7.225 0h7.225v-2h-7.225v2zm-2.758-3.201c-.413 1.854 1.179 3.2 2.758 3.2v-2a.913.913 0 0 1-.664-.27.526.526 0 0 1-.142-.496l-1.952-.434zm2.755-5a10.167 10.167 0 0 0-2.755 5l1.952.434a8.167 8.167 0 0 1 2.213-4.016l-1.41-1.417zm7.228-2.98a10.25 10.25 0 0 0-7.228 2.98l1.41 1.418a8.248 8.248 0 0 1 5.818-2.397v-2zm7.228 2.98a10.248 10.248 0 0 0-7.228-2.98v2c2.183 0 4.276.864 5.818 2.398l1.41-1.417zm2.755 5a10.168 10.168 0 0 0-2.755-5l-1.41 1.418a8.168 8.168 0 0 1 2.213 4.016l1.952-.434z" fill="#363636" mask="url(#c)"/><path d="M26.246 2.57h0a.749.749 0 0 0-.648-.532 6.942 6.942 0 0 0-1.45 0 .749.749 0 0 0-.65.532l-.349 1.226a.43.43 0 0 1-.621.255l-1.119-.621a.75.75 0 0 0-.833.08 6.862 6.862 0 0 0-1.027 1.023.746.746 0 0 0-.081.835l.436-.245-.436.245.624 1.113a.422.422 0 0 1-.257.613l.136.481-.136-.481-1.233.348a.748.748 0 0 0-.534.647 6.872 6.872 0 0 0 0 1.445.748.748 0 0 0 .534.647l1.233.348.136-.481-.136.481c.267.076.39.377.257.613l.436.245-.436-.245-.624 1.113a.746.746 0 0 0 .08.835l.389-.315-.388.315c.305.376.65.72 1.027 1.023a.75.75 0 0 0 .833.08l1.119-.62a.43.43 0 0 1 .621.254l.35 1.226a.749.749 0 0 0 .648.532 6.95 6.95 0 0 0 1.45 0 .749.749 0 0 0 .65-.532l.349-1.226a.43.43 0 0 1 .621-.255l1.119.621a.75.75 0 0 0 .833-.08 6.86 6.86 0 0 0 1.027-1.023l-.388-.315.388.315a.746.746 0 0 0 .081-.835l-.624-1.113a.422.422 0 0 1 .257-.613l1.232-.348a.748.748 0 0 0 .535-.647 6.872 6.872 0 0 0 0-1.445.748.748 0 0 0-.535-.647l-1.232-.348a.422.422 0 0 1-.257-.613l.625-1.113h0a.746.746 0 0 0-.082-.835A6.862 6.862 0 0 0 29.17 3.51l-.313.39.313-.39a.75.75 0 0 0-.833-.08l-1.119.62a.43.43 0 0 1-.621-.254l-.35-1.226zm1.586 6.241a2.951 2.951 0 0 1-2.96 2.943 2.951 2.951 0 0 1-2.959-2.943 2.951 2.951 0 0 1 2.96-2.942 2.951 2.951 0 0 1 2.959 2.942z" fill="#C9473E" stroke="#363636"/></svg>