<svg width="50" height="40" fill="none" xmlns="http://www.w3.org/2000/svg"><rect x="5" y="13.713" width="32.566" height="19.14" rx="1.5" fill="#F5F5F5" stroke="#363636"/><mask id="a" fill="#fff"><path fill-rule="evenodd" clip-rule="evenodd" d="M13.119 23.048a2.68 2.68 0 1 0 0-5.36 2.68 2.68 0 0 0 0 5.36zm4.99 4.074c.402 1.029-.527 1.954-1.632 1.954H9.76c-1.105 0-2.034-.925-1.631-1.954a5.357 5.357 0 0 1 9.98 0z"/></mask><path fill-rule="evenodd" clip-rule="evenodd" d="M13.119 23.048a2.68 2.68 0 1 0 0-5.36 2.68 2.68 0 0 0 0 5.36zm4.99 4.074c.402 1.029-.527 1.954-1.632 1.954H9.76c-1.105 0-2.034-.925-1.631-1.954a5.357 5.357 0 0 1 9.98 0z" fill="#F5F5F5"/><path d="M18.108 27.122l.931-.365-.93.365zm-9.979 0l.931.365-.931-.365zm1.2-1.835l-.707-.707.708.707zm7.579 0l-.707.707.707-.707zm-2.11-4.919a1.68 1.68 0 0 1-1.68 1.68v2a3.68 3.68 0 0 0 3.68-3.68h-2zm-1.68-1.679c.928 0 1.68.752 1.68 1.68h2a3.68 3.68 0 0 0-3.68-3.68v2zm-1.678 1.68c0-.928.751-1.68 1.679-1.68v-2a3.68 3.68 0 0 0-3.68 3.68h2zm1.679 1.679a1.68 1.68 0 0 1-1.68-1.68h-2a3.68 3.68 0 0 0 3.68 3.68v-2zm3.358 8.028c.821 0 1.608-.341 2.128-.927.542-.609.788-1.489.434-2.392l-1.862.73c.032.081.03.135.022.172a.356.356 0 0 1-.088.161.862.862 0 0 1-.634.256v2zm-3.358 0h3.358v-2H13.12v2zm-3.359 0h3.359v-2H9.76v2zm-2.562-3.319c-.354.903-.108 1.783.434 2.392.52.586 1.307.927 2.128.927v-2a.862.862 0 0 1-.633-.256.355.355 0 0 1-.089-.16.294.294 0 0 1 .022-.173l-1.862-.73zm1.424-2.177a6.359 6.359 0 0 0-1.424 2.177l1.862.73a4.358 4.358 0 0 1 .977-1.493L8.622 24.58zm4.497-1.863c-1.687 0-3.304.67-4.497 1.863l1.415 1.414a4.359 4.359 0 0 1 3.082-1.277v-2zm4.496 1.863a6.359 6.359 0 0 0-4.496-1.863v2c1.156 0 2.264.46 3.082 1.277l1.414-1.414zm1.425 2.177a6.357 6.357 0 0 0-1.425-2.177L16.2 25.994c.429.43.76.938.976 1.493l1.863-.73z" fill="#363636" mask="url(#a)"/><path stroke="#363636" stroke-linecap="round" d="M21.5 21l11.001.002M21.5 24.5l5-.003"/><circle cx="38.074" cy="13.5" r="6.5" fill="#C9473E" stroke="#363636"/><path stroke="#363636" stroke-linecap="round" d="M35.97 15.705l4.293-4.293"/><ellipse rx="1.143" ry="1.143" transform="rotate(44.999 4.169 49.26)" fill="#363636"/><ellipse rx="1.143" ry="1.143" transform="rotate(44.999 1.312 56.158)" fill="#363636"/></svg>