<svg width="168" height="80" fill="none" xmlns="http://www.w3.org/2000/svg"><path stroke="#363636" stroke-width="2" d="M91.951 57.234l9.792-2.623m-25.549 2.623l-9.791-2.623m18.394-4.474V40"/><mask id="a" fill="#fff"><path fill-rule="evenodd" clip-rule="evenodd" d="M54.423 41.209a6.935 6.935 0 1 0 0-13.87 6.935 6.935 0 0 0 0 13.87zm13.298 11.66c.628 2.118-1.219 3.945-3.428 3.945H44.552c-2.21 0-4.056-1.827-3.428-3.945a13.87 13.87 0 0 1 23.107-5.863 13.87 13.87 0 0 1 3.49 5.863z"/></mask><path fill-rule="evenodd" clip-rule="evenodd" d="M54.423 41.209a6.935 6.935 0 1 0 0-13.87 6.935 6.935 0 0 0 0 13.87zm13.298 11.66c.628 2.118-1.219 3.945-3.428 3.945H44.552c-2.21 0-4.056-1.827-3.428-3.945a13.87 13.87 0 0 1 23.107-5.863 13.87 13.87 0 0 1 3.49 5.863z" fill="#F5F5F5"/><path d="M67.72 52.869l-1.917.569 1.918-.57zm-26.596 0l1.918.569-1.918-.57zm3.49-5.863L43.2 45.59l1.414 1.415zm14.744-12.732a4.935 4.935 0 0 1-4.935 4.935v4c4.934 0 8.935-4 8.935-8.935h-4zm-4.935-4.936a4.935 4.935 0 0 1 4.935 4.936h4c0-4.935-4-8.936-8.935-8.936v4zm-4.936 4.936a4.936 4.936 0 0 1 4.936-4.936v-4c-4.935 0-8.936 4-8.936 8.936h4zm4.936 4.935a4.935 4.935 0 0 1-4.936-4.935h-4c0 4.934 4 8.935 8.936 8.935v-4zm9.87 19.605c1.643 0 3.2-.676 4.255-1.83 1.083-1.186 1.623-2.887 1.09-4.684l-3.835 1.138c.095.32.026.592-.209.848-.264.29-.734.528-1.3.528v4zm-9.87 0h9.87v-4h-9.87v4zm-9.871 0h9.87v-4h-9.87v4zM39.207 52.3c-.533 1.797.007 3.498 1.09 4.685 1.054 1.153 2.612 1.829 4.255 1.829v-4c-.567 0-1.037-.238-1.302-.528-.234-.256-.303-.528-.208-.848L39.207 52.3zm3.993-6.709a15.87 15.87 0 0 0-3.993 6.709l3.835 1.138a11.87 11.87 0 0 1 2.986-5.018L43.2 45.59zm11.222-4.648A15.87 15.87 0 0 0 43.2 45.591l2.828 2.829a11.87 11.87 0 0 1 8.395-3.477v-4zm11.223 4.648a15.871 15.871 0 0 0-11.222-4.648v4c3.148 0 6.167 1.25 8.393 3.477l2.829-2.829zm3.993 6.709a15.87 15.87 0 0 0-3.993-6.709l-2.828 2.829a11.87 11.87 0 0 1 2.986 5.018l3.835-1.138z" fill="#363636" mask="url(#a)"/><mask id="b" fill="#fff"><path fill-rule="evenodd" clip-rule="evenodd" d="M85.11 26.647c3.709 0 6.716-3.055 6.716-6.823 0-3.769-3.007-6.824-6.717-6.824-3.71 0-6.717 3.055-6.717 6.823 0 3.77 3.007 6.824 6.717 6.824zm12.86 11.408C98.6 40.173 96.752 42 94.543 42H75.675c-2.21 0-4.056-1.827-3.427-3.945a13.686 13.686 0 0 1 3.362-5.705 13.329 13.329 0 0 1 9.5-3.997 13.33 13.33 0 0 1 9.499 3.997 13.69 13.69 0 0 1 3.361 5.705z"/></mask><path fill-rule="evenodd" clip-rule="evenodd" d="M85.11 26.647c3.709 0 6.716-3.055 6.716-6.823 0-3.769-3.007-6.824-6.717-6.824-3.71 0-6.717 3.055-6.717 6.823 0 3.77 3.007 6.824 6.717 6.824zm12.86 11.408C98.6 40.173 96.752 42 94.543 42H75.675c-2.21 0-4.056-1.827-3.427-3.945a13.686 13.686 0 0 1 3.362-5.705 13.329 13.329 0 0 1 9.5-3.997 13.33 13.33 0 0 1 9.499 3.997 13.69 13.69 0 0 1 3.361 5.705z" fill="#F5F5F5"/><path d="M97.97 38.055l1.917-.57-1.917.57zM85.11 42v2-2zm-9.435 0v-2 2zm-3.427-3.945l1.917.57-1.917-.57zm3.362-5.705l-1.426-1.403 1.426 1.403zm18.999 0l1.425-1.403-1.425 1.403zm-4.783-12.527c0 2.694-2.141 4.824-4.717 4.824v4c4.844 0 8.717-3.98 8.717-8.823h-4zM85.11 15c2.576 0 4.717 2.13 4.717 4.823h4c0-4.843-3.873-8.823-8.717-8.823v4zm-4.717 4.823c0-2.693 2.141-4.823 4.717-4.823v-4c-4.844 0-8.717 3.98-8.717 8.823h4zm4.717 4.824c-2.576 0-4.717-2.13-4.717-4.823h-4c0 4.843 3.873 8.823 8.717 8.823v-4zM94.543 44c1.643 0 3.2-.676 4.255-1.83 1.084-1.186 1.623-2.887 1.089-4.684l-3.834 1.14c.095.32.026.59-.208.847-.265.29-.735.527-1.302.527v4zm-9.434 0h9.434v-4H85.11v4zm-9.434 0h9.434v-4h-9.434v4zm-5.344-6.514c-.534 1.797.006 3.498 1.09 4.685 1.053 1.153 2.611 1.83 4.254 1.83v-4c-.567 0-1.037-.239-1.301-.528-.235-.257-.304-.528-.209-.848l-3.834-1.14zm3.853-6.539a15.69 15.69 0 0 0-3.853 6.539l3.834 1.14a11.689 11.689 0 0 1 2.87-4.873l-2.85-2.806zm10.925-4.594a15.329 15.329 0 0 0-10.925 4.594l2.85 2.806a11.33 11.33 0 0 1 8.075-3.4v-4zm10.925 4.594a15.329 15.329 0 0 0-10.925-4.594v4a11.33 11.33 0 0 1 8.074 3.4l2.85-2.806zm3.853 6.539a15.69 15.69 0 0 0-3.853-6.539l-2.85 2.806a11.69 11.69 0 0 1 2.869 4.872l3.834-1.14z" fill="#363636" mask="url(#b)"/><mask id="c" fill="#fff"><path fill-rule="evenodd" clip-rule="evenodd" d="M113.796 41.209a6.935 6.935 0 1 0 0-13.87 6.935 6.935 0 0 0 0 13.87zm13.298 11.66c.628 2.118-1.218 3.945-3.428 3.945h-19.741c-2.209 0-4.056-1.827-3.428-3.945a13.874 13.874 0 0 1 26.597 0z"/></mask><path fill-rule="evenodd" clip-rule="evenodd" d="M113.796 41.209a6.935 6.935 0 1 0 0-13.87 6.935 6.935 0 0 0 0 13.87zm13.298 11.66c.628 2.118-1.218 3.945-3.428 3.945h-19.741c-2.209 0-4.056-1.827-3.428-3.945a13.874 13.874 0 0 1 26.597 0z" fill="#F5F5F5"/><path d="M127.094 52.869l-1.918.569 1.918-.57zm-26.597 0l1.918.569-1.918-.57zm3.49-5.863l-1.414-1.415 1.414 1.415zm14.744-12.732a4.936 4.936 0 0 1-4.935 4.935v4c4.934 0 8.935-4 8.935-8.935h-4zm-4.935-4.936a4.936 4.936 0 0 1 4.935 4.936h4a8.936 8.936 0 0 0-8.935-8.936v4zm-4.936 4.936a4.936 4.936 0 0 1 4.936-4.936v-4c-4.935 0-8.936 4-8.936 8.936h4zm4.936 4.935a4.936 4.936 0 0 1-4.936-4.935h-4a8.936 8.936 0 0 0 8.936 8.935v-4zm9.87 19.605c1.643 0 3.201-.676 4.255-1.83 1.083-1.186 1.623-2.887 1.09-4.684l-3.835 1.138c.095.32.026.592-.208.848-.265.29-.735.528-1.302.528v4zm-9.87 0h9.87v-4h-9.87v4zm-9.871 0h9.871v-4h-9.871v4zM98.58 52.3c-.533 1.797.007 3.498 1.09 4.685 1.054 1.153 2.612 1.829 4.255 1.829v-4c-.567 0-1.037-.238-1.302-.528-.234-.256-.303-.528-.208-.848L98.58 52.3zm3.993-6.709A15.868 15.868 0 0 0 98.58 52.3l3.835 1.138a11.862 11.862 0 0 1 2.987-5.018l-2.829-2.829zm11.223-4.648a15.87 15.87 0 0 0-11.223 4.648l2.829 2.829a11.87 11.87 0 0 1 8.394-3.477v-4zm11.222 4.648a15.87 15.87 0 0 0-11.222-4.648v4a11.87 11.87 0 0 1 8.394 3.477l2.828-2.829zm3.993 6.709a15.868 15.868 0 0 0-3.993-6.709l-2.828 2.829a11.87 11.87 0 0 1 2.986 5.018l3.835-1.138z" fill="#363636" mask="url(#c)"/><circle cx="84.557" cy="57.336" r="8" fill="#C9473E" stroke="#363636" stroke-width="2"/></svg>