<svg width="168" height="108" fill="none" xmlns="http://www.w3.org/2000/svg"><path fill-rule="evenodd" clip-rule="evenodd" d="M60.535 100H4a4 4 0 0 0 0 8h160a4 4 0 0 0 0-8h-56.535a3.998 3.998 0 0 1-3.465 2H64a3.998 3.998 0 0 1-3.465-2z" fill="#363636"/><mask id="a" fill="#fff"><rect x="4" width="160" height="96" rx="4"/></mask><rect x="4" width="160" height="96" rx="4" fill="#E7E7E7" stroke="#363636" stroke-width="16" mask="url(#a)"/><path d="M85 39.486A3.743 3.743 0 1 0 85 32a3.743 3.743 0 0 0 0 7.486zM85 64a2.246 2.246 0 1 0 0-4.491A2.246 2.246 0 0 0 85 64zm-9.196-21.08a3.369 3.369 0 1 0 0-6.738 3.369 3.369 0 0 0 0 6.738zm18.394 16.895a1.871 1.871 0 1 0 0-3.743 1.871 1.871 0 0 0 0 3.743zm-22.204-8.072a2.994 2.994 0 1 0 0-5.987 2.994 2.994 0 0 0 0 5.987zm26.012-1.499a1.496 1.496 0 1 0 0-2.992 1.496 1.496 0 0 0 0 2.992zm-24.055 5.85a2.617 2.617 0 0 0 0 3.704 2.617 2.617 0 0 0 3.704 0 2.617 2.617 0 0 0 0-3.704 2.607 2.607 0 0 0-3.704 0zm20.246-15.421a1.122 1.122 0 1 0 0-2.244 1.122 1.122 0 0 0 0 2.244z" fill="#C9473E"/></svg>