<svg width="168" height="44" fill="none" xmlns="http://www.w3.org/2000/svg"><rect width="44" height="44" rx="2" fill="#C9473E"/><path fill-rule="evenodd" clip-rule="evenodd" d="M24.385 8.414l-2.122-2.121a1 1 0 0 0-1.414 0l-2.121 2.121L5.293 21.85a1 1 0 0 0 0 1.415l1.414 1.414a1 1 0 0 0 1.414 0L20.85 11.95a1 1 0 0 1 1.415 0l7.07 7.07a1 1 0 0 0 1.415 0l1.414-1.413a1 1 0 0 0 0-1.415l-7.778-7.778zm-7.799 13.172h-2a1 1 0 0 0-1 1v14a1 1 0 0 0 1 1h2a1 1 0 0 0 1-1v-14a1 1 0 0 0-1-1zm6 0h14a1 1 0 0 1 1 1v2a1 1 0 0 1-1 1h-4a1 1 0 0 0-1 1v10a1 1 0 0 1-1 1h-2a1 1 0 0 1-1-1v-10a1 1 0 0 0-1-1h-4a1 1 0 0 1-1-1v-2a1 1 0 0 1 1-1z" fill="#F5F5F5"/><path d="M63 32.66V11.29h3.551v21.37H63zm16.804 0h-3.55V14.287h-6.39V11.29h16.329v2.997h-6.389V32.66zm7.934-6.563v-2.923h7.637v2.923h-7.637zm29.27-4.327c0 3.528-.995 6.227-2.986 8.099-1.991 1.86-4.859 2.792-8.603 2.792h-6.077V11.289h6.716c3.457 0 6.146.916 8.068 2.748 1.921 1.832 2.882 4.41 2.882 7.733zm-3.744.117c0-5.116-2.432-7.674-7.295-7.674h-3.076v15.51h2.526c5.23 0 7.845-2.612 7.845-7.836zm27.71.059c0 3.479-.887 6.183-2.66 8.113-1.763 1.93-4.264 2.894-7.503 2.894-3.279 0-5.8-.955-7.563-2.865-1.753-1.92-2.629-4.644-2.629-8.172 0-3.527.881-6.237 2.644-8.127 1.773-1.89 4.299-2.836 7.578-2.836 3.229 0 5.725.96 7.488 2.88 1.763 1.92 2.645 4.624 2.645 8.113zm-16.582 0c0 2.63.54 4.629 1.62 5.993 1.08 1.355 2.679 2.032 4.799 2.032 2.11 0 3.7-.672 4.769-2.017 1.08-1.345 1.62-3.348 1.62-6.008 0-2.622-.535-4.61-1.605-5.965-1.06-1.354-2.645-2.031-4.754-2.031-2.13 0-3.74.677-4.829 2.032-1.08 1.354-1.62 3.342-1.62 5.964zm30.637 10.714l-6.3-17.848h-.118c.168 2.65.252 5.136.252 7.455v10.394h-3.224V11.289h5.007l6.032 17h.09l6.21-17H168v21.372h-3.417V22.09c0-1.061.024-2.445.074-4.15.059-1.706.109-2.74.149-3.1h-.119l-6.523 17.82h-3.135z" fill="#F5F5F5"/></svg>