<svg width="56" height="108" fill="none" xmlns="http://www.w3.org/2000/svg"><rect width="56" height="108" rx="8" fill="#363636"/><path fill-rule="evenodd" clip-rule="evenodd" d="M16 4H8a4 4 0 0 0-4 4v92a4 4 0 0 0 4 4h40a4 4 0 0 0 4-4V8a4 4 0 0 0-4-4h-8a4 4 0 0 1-4 4H20a4 4 0 0 1-4-4z" fill="#E7E7E7"/><path d="M36 64V44a2 2 0 0 0-2-2h-7.172a2 2 0 0 0-1.414.586l-4.828 4.828A2 2 0 0 0 20 48.828V64a2 2 0 0 0 2 2h12a2 2 0 0 0 2-2z" fill="#C9473E"/><path d="M26.586 56.531v-.5c0-.573.104-1.05.312-1.43.209-.38.573-.773 1.094-1.18.62-.489 1.018-.869 1.195-1.14.183-.27.274-.593.274-.968 0-.438-.146-.774-.438-1.008-.291-.235-.71-.352-1.257-.352-.495 0-.953.07-1.375.211-.422.14-.834.31-1.235.508l-.656-1.375a6.877 6.877 0 0 1 3.398-.883c1.021 0 1.831.25 2.43.75.6.5.899 1.19.899 2.07 0 .391-.058.74-.172 1.047-.115.302-.29.591-.524.867-.229.276-.627.636-1.195 1.079-.484.38-.81.695-.977.945-.161.25-.242.586-.242 1.008v.351h-1.531zm-.32 2.492c0-.786.382-1.18 1.148-1.18.375 0 .662.105.86.313.197.203.296.492.296.867 0 .37-.101.664-.304.883-.198.214-.482.32-.852.32s-.654-.104-.852-.312c-.197-.214-.296-.51-.296-.89z" fill="#fff"/></svg>