<svg width="168" height="116" fill="none" xmlns="http://www.w3.org/2000/svg"><path fill-rule="evenodd" clip-rule="evenodd" d="M65.4 3.3a1.92 1.92 0 0 1 0-2.734 1.963 1.963 0 0 1 2.758 0l17.928 17.768L98.5 6.033a1.962 1.962 0 0 1 2.758 0 1.92 1.92 0 0 1 0 2.733L89.922 20H164a4 4 0 0 1 4 4v88a4 4 0 0 1-4 4H4a4 4 0 0 1-4-4V24a4 4 0 0 1 4-4h78.251L65.4 3.3z" fill="#363636"/><path fill-rule="evenodd" clip-rule="evenodd" d="M10 28a2 2 0 0 0-2 2v76a2 2 0 0 0 2 2h124a2 2 0 0 0 2-2V30a2 2 0 0 0-2-2H10zm146 56a4 4 0 1 0-8 0 4 4 0 0 0 8 0zm-4 8a2 2 0 1 1 0 4 2 2 0 0 1 0-4zm2 10a2 2 0 1 0-3.999-.001A2 2 0 0 0 154 102z" fill="#E7E7E7"/><path fill="#D6D6D6" d="M32 28h4v80h-4z"/><path fill="#AEAEAE" d="M44 28h4v80h-4z"/><path fill="#C9473E" d="M52 28h4v80h-4z"/><path fill="#AEAEAE" d="M72 28h4v80h-4z"/></svg>