<svg width="55" height="44" fill="none" xmlns="http://www.w3.org/2000/svg"><path d="M53.47 2.254c-.878-.872-1.934-1.308-3.168-1.308H5.43c-1.234 0-2.29.436-3.17 1.308C1.382 3.127.942 4.174.942 5.4v33.847c0 1.225.44 2.274 1.318 3.146.88.872 1.936 1.308 3.17 1.308h44.872c1.234 0 2.29-.436 3.169-1.308.878-.872 1.318-1.92 1.318-3.146V5.4c0-1.225-.44-2.273-1.319-3.146zM51.2 39.248c0 .242-.089.45-.267.627a.867.867 0 0 1-.63.263H5.43a.866.866 0 0 1-.631-.264.854.854 0 0 1-.267-.627V22.324H51.2v16.924zm0-27.613H4.532V5.398c0-.24.089-.45.267-.626a.868.868 0 0 1 .63-.264h44.873c.242 0 .453.088.63.264a.853.853 0 0 1 .267.626v6.235z" fill="#8857F1"/><path d="M15.114 32.868H7.935v3.564h7.18v-3.564zm14.578 0h-10.77v3.564h10.77v-3.564z" fill="#8857F1"/></svg>