<svg width="23" height="24" fill="none" xmlns="http://www.w3.org/2000/svg"><path d="M11.375 0C5.134 0 .057 5.383.057 12s5.077 12 11.318 12c6.24 0 11.318-5.383 11.318-12S17.616 0 11.375 0zm0 22.703c-2.773 0-5.288-1.192-7.114-3.117a10.746 10.746 0 0 1-1.83-2.629A11.153 11.153 0 0 1 1.28 12c0-5.901 4.528-10.703 10.094-10.703 2.64 0 5.046 1.081 6.847 2.846a10.743 10.743 0 0 1 2.26 3.243c.633 1.398.987 2.963.987 4.614 0 5.901-4.528 10.703-10.094 10.703z" fill="#3F5060" fill-opacity=".25"/><path d="M7.679 10.621c.675 0 1.223-.58 1.223-1.297 0-.716-.548-1.297-1.223-1.297-.676 0-1.224.58-1.224 1.297s.548 1.297 1.224 1.297zm7.57 0c.676 0 1.224-.58 1.224-1.297 0-.716-.548-1.297-1.224-1.297-.676 0-1.224.58-1.224 1.297s.548 1.297 1.224 1.297zm-3.897 8.027c2.368 0 4.636-1.283 5.935-3.414l-1.027-.704c-1.193 1.957-3.375 3.049-5.56 2.781-1.702-.208-3.277-1.248-4.211-2.781l-1.028.704c1.131 1.856 3.037 3.114 5.099 3.366a6.4 6.4 0 0 0 .792.048z" fill="#3F5060" fill-opacity=".25"/></svg>