<svg xmlns="http://www.w3.org/2000/svg"><defs><font id="FontAwesome5Brands-Regular" horiz-adv-x="512"><font-face font-family="Font Awesome 5 Brands Regular" font-weight="400" units-per-em="512" panose-1="2 0 5 3 0 0 0 0 0 0" ascent="448" descent="-64" bbox="-0.000976562 -64.1582 640 448.106" underline-thickness="25" underline-position="-51" unicode-range="U+0020-F89E"/><glyph glyph-name="bitbucket" unicode="" d="M22.2 416l466.8-.2c.777-.01 2.03-.1 2.8-.2 7.396-1.22 13.398-8.291 13.398-15.787 0-.698-.088-1.824-.198-2.513L437.1-19.5c-1.217-7.398-8.29-13.402-15.787-13.402l-.213.001H95.4c-10.1.082-19.644 8.236-21.3 18.2L6.2 397.402a31.55 31.55 0 0 0-.2 2.8c.109 8.721 7.276 15.8 16 15.8h.2zm285.9-297.8l25.2 147H176l28.1-147h104z"/><glyph glyph-name="apple" unicode="" horiz-adv-x="384" d="M318.7 179.3c0-1.9-3.5-61.2 61.7-91.9-12.2-36.8-54-118.6-102.6-119.3-28.1 0-44.6 17.9-76.4 17.9-32.801 0-50.6-17.3-75.801-17.9-48.2-1.5-94.4 88.5-107.199 125.2C8.8 121.233 4 148.3 4 174.5c0 88.7 59.3 132.3 115.1 133.2 27 0 61.4-19.7 76.4-19.7 14.2 0 53 23.5 88.5 20.7 37.5-2.9 65.9-17.7 84.7-44.6-33.6-20.4-50.2-48.1-50-84.8zm-56.6 164.2c-19.6-22.9-43.4-36.3-69.5-34.3-2.2 27.6 8.1 52.1 25.6 71.9 15.9 18.5 43.8 33.5 67.9 34.9.8-10.6 3.3-40.1-24-72.5z"/><glyph glyph-name="yelp" unicode="" horiz-adv-x="384" d="M42.9 207.68l99.62-48.61c19.2-9.4 16.2-37.51-4.5-42.71L30.5 89.55c-1.511-.38-4-.687-5.558-.687-11.268 0-21.415 9.088-22.652 20.288-.71 6.181-1.286 16.25-1.286 22.472 0 17.81 4.608 45.966 10.286 62.847 2.885 8.568 12.566 15.522 21.607 15.522 2.908 0 7.389-1.036 10.003-2.312zm44-239.25c-5.485 3.752-9.927 12.19-9.927 18.836 0 4.829 2.619 11.663 5.847 15.253l74.21 82.4c14.31 15.811 40.51 5.201 39.81-16.099L192.94-42c-.412-12.148-10.612-22.007-22.767-22.007-1.071 0-2.797.146-3.853.328-23.869 4.042-59.449 18.427-79.42 32.109zM232.24 78.35c-11.3 18.11 6.2 40.41 26.51 33.91L364.17 78c8.69-2.89 15.742-12.667 15.742-21.825 0-2.813-.964-7.165-2.152-9.715-10.418-21.88-34.033-52.169-52.71-67.61-3.506-2.89-10.04-5.234-14.582-5.234-6.997 0-15.697 4.809-19.418 10.734zm148.33 132.23c1.047-2.416 1.937-6.513 1.937-9.146 0-9.498-7.396-19.382-16.507-22.064l-106.64-30.51c-20.5-5.9-37.1 17.01-25.2 34.71l62 91.92c3.75 5.557 12.235 10.065 18.938 10.065 4.745 0 11.493-2.538 15.062-5.666 18.166-16.036 40.75-47.086 50.41-69.31zM62.11 417.82c29.47 14.03 79.793 27.514 112.33 30.1.504.04 1.325.074 1.83.074 12.515 0 22.671-10.156 22.671-22.67V216.78c0-23.3-30.91-31.6-42.611-11.4L52.21 385.82c-1.682 2.921-3.046 8.029-3.046 11.4 0 7.931 5.8 17.16 12.946 20.6z"/><glyph glyph-name="houzz" unicode="" horiz-adv-x="448" d="M275.9 117.3H171.299V-32h-154.3v448h109.5V311.5l305.1-85.6V-32H275.9v149.3z"/><glyph glyph-name="rocketchat" unicode="" horiz-adv-x="576" d="M486.41 340.43c119.649-76.54 119.26-221 0-297.14C409.29-7.63 307.04-19.1 222.29-3.87 126.77-95.06 20.57-53.03 0-40.87c0 0 73.08 62.1 61.21 116.49-45.39 46.37-86.52 144.57 0 232.77C73.08 362.78 0 424.88 0 424.88 20.77 437 127.26 479.16 222.29 387.5c84.94 15.33 187.19 3.76 264.12-47.07zM294.18 43.78C420.85 43.78 523.589 110 523.589 192s-102.74 148.43-229.41 148.43S64.769 274 64.769 192c0-35.79 19.47-68.52 52-94.13 9.114-29.127 3.781-62.023-15.999-98.69C99.88-2.5 99-4.28 98-6.06c15.05 1.337 38.216 7.936 51.71 14.73 11.069 6.266 27.46 18.536 36.59 27.39l19.77 19.09c23.64-6.277 62.677-11.371 87.136-11.371l.974.001zM184.119 156.7a40.208 40.208 0 0 0-.485-.004c-18.619 0-33.992 15.108-34.315 33.724-.7 45.39 67.83 46.38 68.52 1.09V191l.002-.322c0-18.615-15.108-33.846-33.722-33.999v.021zm73.77 33.72c-.79 45.39 67.74 46.48 68.53 1.19V191c.39-45.08-67.74-45.57-68.53-.58zm143.38-33.72c-.134-.002-.35-.004-.485-.004-18.619 0-33.995 15.108-34.325 33.724-.69 45.39 67.84 46.38 68.53 1.09V191c.002-.12.004-.312.004-.43 0-18.616-15.109-33.799-33.724-33.89v.02z"/><glyph glyph-name="speakap" unicode="" horiz-adv-x="448" d="M64 56.22c-79.41 88.19-72 224.36 16.64 304.14 88.64 79.78 224.8 73 304.21-15.24 79.41-88.24 72-224.36-16.64-304.14-18.74-16.87 64-43.09 42-52.26-82.06-34.21-253.91-35-346.229 67.5h.02zm213.31 211.6l38.5 40.86c-9.61 8.89-32 26.83-76.17 27.6-52.33.91-95.86-28.3-96.77-80-.2-11.33.29-36.72 29.42-54.83 34.46-21.42 86.52-21.51 86-52.26-.37-21.28-26.42-25.81-38.59-25.6-3 .05-30.23.46-47.61 24.62l-40-42.61c28.16-27 59-32.62 83.49-33.05 10.23-.18 96.42-.33 97.84 81 .28 15.81-2.07 39.72-28.86 56.59-34.36 21.64-85 19.45-84.43 49.75.41 23.25 31 25.37 37.53 25.26.43 0 26.62-.26 39.62-17.37z"/><glyph glyph-name="osi" unicode="" d="M8 181.56c2.3 135.801 97.4 232.441 213.799 248.102 138.8 18.6 255.601-75.8 278-201.101 21.3-118.8-44-230-151.6-274-9.3-3.8-14.4-1.7-18 7.7-17.8 46.3-35.6 92.633-53.4 139-3.099 8.1-1 13.2 7 16.799 24.2 11 39.3 29.4 43.3 55.8.47 3.016.851 7.941.851 10.993 0 36.206-29.276 68.107-65.35 71.207-39 3.4-71.8-23.7-77.5-59.7-5.2-33 11.1-63.7 41.9-77.7 9.6-4.4 11.5-8.6 7.8-18.4-17.9-46.6-35.8-93.232-53.7-139.899-2.6-6.9-8.3-9.3-15.5-6.5-52.6 20.3-101.4 61-130.8 119-24.9 49.2-25.2 87.7-26.8 108.7zm20.9 1.901c.399-6.6.599-14.3 1.3-22.1 6.299-71.901 49.599-143.5 131-183.102 3.2-1.5 4.399-.8 5.599 2.3 14.9 39.1 29.9 78.201 45 117.302 1.3 3.3.6 4.8-2.4 6.7-31.6 19.9-47.3 48.5-45.6 86 1 21.6 9.3 40.5 23.8 56.3 30 32.7 77 39.8 115.5 17.6 25.317-14.598 45.864-50.164 45.864-79.388 0-3.05-.297-7.984-.664-11.013-3.6-30.6-19.3-53.899-45.7-69.8-2.7-1.599-3.5-2.899-2.3-6 15.2-39.2 30.266-78.433 45.2-117.7 1.2-3.099 2.4-3.8 5.6-2.3 35.5 16.601 65.2 40.3 88.1 72 34.8 48.201 49.1 101.9 42.3 161-13.7 117.5-119.4 214.8-255.5 198-106.1-13-195.3-102.5-197.1-225.8z"/><glyph glyph-name="sass" unicode="" horiz-adv-x="640" d="M301.84 69.08c-.3-.6-.6-1.08 0 0zm249.13 87c57.91.3 90.57-37.08 88.97-71.08-1.1-26.9-25.69-37.9-30.29-38.7-3.3-.6-5.1-.7-5.6 1.9-.3 1.8.9 2.7 4.8 5.1 3.9 2.4 15.6 10.5 17.7 25 2.1 14.5-8.8 49.3-64.48 55.8-26 3-46.39-.6-62.09-7.2 2.9-7.6 5.1-15.5 5.4-23.4.8-17.5-11.29-30.4-23.79-39.6-5.485-3.985-15.157-8.958-21.59-11.1-5.2-2.2-12.2-4.5-17.1-3.5-10.9 2.2-16.7 11.8-9.3 33.1 4 11.5 15.5 29 34.09 44.1-4.3 8.7-8.99 17.6-11.39 25.7-2.181 7.008-4.959 18.566-6.2 25.8 0 0-15.3-31.72-35.09-60.62-1.1-1.7-2.3-3.4-3.4-5 3.8-9 6.9-18.6 7.3-28.2.7-17.4-6.9-30.6-19.4-39.8-5.162-3.706-14.208-8.455-20.19-10.6-3.9-1.8-12-4.6-23.5-5.4-6.29-.5-12.29-.1-15.69 2.5-4.6 3.4-5.2 7.8-2.8 13.7 2 5 17.21 22.4 30 37.6 3.5 4.2 6.9 8.5 9.9 12.5a.36.36 0 0 0-.1.2s2.3 3 6.1 8.2c-4.7 10.1-10.6 20.5-13.4 30-2.181 7.008-4.958 18.566-6.2 25.8 0 0-15.49-39.7-31.69-71.5-12.49-24.6-20.79-39.5-24.59-46v-.3s-.5-.9-1.5-2.4c-.5-.8-.7-1.2-.7-1.2v.1c-4.21-6.2-13.61-18.3-23-18.3-25.7 0-16.3 52.2-16.3 52.2s-7.5-19.3-16-35.9c-6.89-13.6-13.09-25-26.89-25-3.9 0-10.19.1-15.39 5-11.8 11.2-20.9 39.7-19.1 61.7 1.5 18.8 4.4 31.8 8.4 42.6-7.1-3.9-15.2-8.4-23.49-13.3-4.3-2.5-8.6-5-12.8-7.5.1-.3.3-.5.401-.8 10.6-20.4 13.39-65.2-9.6-99.5S85.6-56.42 43.81-44.82c-13.39 3.8-33.79 31.6-16.29 70.4 15.49 34.2 77.38 66.6 93.67 74.7 1.4.8 2.9 1.6 4.5 2.5C93.2 131.18 12.02 169.58.63 228.48c-3.2 16.6 4.59 56.3 53.28 101.9 40.99 38.299 97.97 67.7 150.66 86.4 88.43 31.399 181.949 12.899 196.31-43.5 14.1-55.5-33.99-121.8-95.77-145.601-54.99-21.3-100.47-17.9-119.17-11.8-21.29 7-33.79 21-36.79 28.9-1.2 3.1-3.3 8.3 0 10.1 2 1.1 2.8.8 8.1-5.1 5.1-5.6 25.49-20.6 64.28-16.3 101.77 11.4 163.06 90.5 143.66 133-13.49 29.8-91.84 43.2-189.841-5.6-119.569-59.6-126.069-108.7-127.069-127.4-2.8-51.3 63.28-78.3 99.07-116.5.5-.5.9-1 1.4-1.5 6.7 3.7 13.8 7.6 20.7 11.4 18 9.9 35.1 19.2 43 23.5 12.58 18.3 38.18 38.5 56.58 38.5 29.49 0 19.39-42.4 19.39-42.4s.6 2 1.4 2c.8 0 4.1 5.5 13.2 2.2 9.4-3.5 7.2-10 7.3-10.7.1-1.3-11-38.9-15.7-63.1-2.2-11.5-.9-19.9-.3-19.9.9 0 2.8 2.9 4.5 6.1v.1s1.3 2.4 3.5 6.7c0 .2-.2-.3-.5-.8.2.4.5.9.9 1.7 2.6 5 6.2 12.4 10.4 21.6 8.19 18.1 39.48 87.7 42.08 95.4 2.6 7.7 4 15.7 5.3 19.1 1.3 3.4 12.41 6 25.3 5.9 12.89-.1 14.19-5.6 14.29-6.7.1-1.1-6.2-16.4-7.6-27.2-1.4-10.8-.1-16.2 1.1-25.3.8-6 4.5-13.5 8.9-22 13.3 21.8 36.79 63.6 39.09 75.3 1.036 5.39 3.41 13.947 5.3 19.1 1.29 3.4 12.39 6 25.29 5.9 12.9-.1 14.2-5.6 14.3-6.7.1-1.1-6.2-16.4-7.6-27.2-1.4-10.8-.1-16.2 1.1-25.3 1-7.8 7.1-18.2 13-30.1 15.128 7.453 41.093 13.5 57.957 13.5h.042zM121.79 11.38c19.4 21.1 27.39 47.92 19.1 78.32-1-.6-2-1.1-2.9-1.7 0 0-.4-.2-1.2-.7-4.8-2.9-8.7-5.3-11.4-6.9C113.59 73 95.8 61 82 48 59.31 26.58 54.61-3 66.51-9.92c11.09-6.4 36.89 1.2 55.28 21.3zm134.36 91.4c4 9.8 19.7 53.3 16.2 59.2-2.6 4.5-13.7.9-23.79-10.4-6.3-7-16.9-25-21.9-40.1-9.9-30-5.6-60.5 1.4-62.3 8.2-2.1 21.69 37.9 28.09 53.6zm111-53c7.8 4.8 24.96 16.9 25.09 34.8 0 .6-.1 1.1-.1 1.6-3.99-5.2-7.69-9.9-10.89-13.9-5.5-6.8-19.4-21.7-19.4-21.7s-2-1.9-1.1-2.4c1.2-.7 3.7.2 6.4 1.6zm85.58 19.5c9.69 3.5 25.8 11.9 25.9 34.4-.068 3.061-.92 7.9-1.9 10.8-10.41-9.2-16.4-18.8-19-24.5-6.7-14.6-7-19.3-5-20.7z"/><glyph glyph-name="angular" unicode="" horiz-adv-x="448" d="M185.7 179.9l38.1 91.6 38.1-91.6h-76.2zM223.8 416l207.8-74.4-31.8-275.7-176-97.9-176 97.9L16 341.6zM354 74.2L223.8 366.5 93.7 74.2h48.7l26.2 65.4h110.6l26.2-65.4H354z"/><glyph glyph-name="strava" unicode="" horiz-adv-x="384" d="M158.4 448l150.199-292h-88.5l-61.7 116.1L96.2 156H7zm150.2-292h67.6L264.7-64 152.5 156h67.6l44.6-88.2z"/><glyph glyph-name="stripe-s" unicode="" horiz-adv-x="384" d="M155.3 293.4c0-64.2 218-33.7 218-203.9 0-102.6-81.7-153.6-200.3-153.6-44.892.102-114.78 14.617-156 32.4V96.8c47.9-26 108.9-45.5 156.1-45.5 31.8 0 54.7 8.5 54.7 34.9 0 68.1-216.8 42.5-216.8 200.399 0 101 77.1 161.4 192.8 161.4 47.3 0 94.5-7.2 141.8-26.1V287.6c-43.4 23.4-98.5 36.7-141.899 36.7-29.8 0-48.4-8.6-48.4-30.9z"/><glyph glyph-name="typo3" unicode="" horiz-adv-x="448" d="M178.7 369.6c0-66.4 83.4-264.899 140.6-264.899 6.9 0 11.5 0 18.5 2.3C288.4 27.5 227.401-32 191.1-32 113.8-32 7 202 7 305.5c0 16.3 3.9 29.4 9.3 37.1 27 32.4 106.8 57.9 176.3 66.4-8.5-7-13.9-14.7-13.9-39.4zM301.5 416c71.8 0 138.8-11.6 138.8-52.5 0-82.6-52.5-182.3-78.8-182.3-47.9 0-101.7 132.1-101.7 198.5 0 30.9 11.6 36.3 41.7 36.3z"/><glyph glyph-name="amazon-pay" unicode="" horiz-adv-x="640" d="M14 122.7c2.3 4.2 5.2 4.9 9.7 2.5 10.4-5.6 20.6-11.4 31.2-16.7 33.7-16.805 90.775-37.547 127.4-46.3 17.273-4.168 45.586-9.454 63.2-11.8 22.083-2.969 58.09-5.378 80.372-5.378 4.038 0 10.59.08 14.628.178 17.4.4 34.8 1.8 52.1 3.8 46.738 5.448 119.896 24.623 163.3 42.8 2.9 1.2 5.9 2 9.1 1.2 6.7-1.8 9-9 4.1-13.9-2.472-2.273-6.773-5.588-9.6-7.4-30.7-21.1-64.2-36.4-99.6-47.9-20.33-6.552-53.975-14.437-75.1-17.6-14.601-2.236-38.435-4.387-53.2-4.8a25.636 25.636 0 0 1-2.5-.3H308a25.6 25.6 0 0 1-2.5.3c-3.6.2-7.2.3-10.7.4-13.997.634-36.577 3.008-50.4 5.3-22.727 3.704-58.747 13.067-80.4 20.9-44.865 16.18-110.094 55.156-145.6 87-1.801 1.6-3 3.8-4.4 5.7v2zm158 260.2c2.8 0 5.5 0 8.3-.1 3.3-.5 6.6-.8 9.8-1.5 21.3-4.4 35.4-17.3 43.9-36.9 6.9-15.9 8.6-32.7 8.1-49.8-.4-15.4-3.3-30.2-10.3-44.1-9.2-18.4-23.4-30.9-43.8-34.9-22.5-4.4-43.1.5-61 15.4-.5.5-1.1 1-2.2 1.9v-72.4c0-1 0-2-.1-3-.3-3-2.1-5-5-5-7-.1-14.1-.1-21.1 0-2.9.1-4.7 2-4.9 5-.1 1-.1 2-.1 3v209.3c0 6.9 1.3 8.2 8.2 8.2h11.5c4.6 0 6.9-2 7.6-6.6.5-2.7.9-5.5 1.3-8.2a5.142 5.142 0 0 1 .4-1.4c2.5 1.9 4.7 3.7 7.1 5.4 9.4 6.906 26.424 13.67 38 15.1zM124.6 341c.1-14.1 0-28 0-42.1 0-14.1.1-28.1 0-42.2a4.41 4.41 0 0 1-.009-.254c0-1.105.766-2.47 1.71-3.046 11.2-7.9 23.4-13.3 37.4-13.9 20.2-.9 35.8 7.2 42.6 28.5 3.2 10 4 20.2 4 30.6 0 11.2-1 22.3-4.9 33-6.4 17.5-18.6 24.8-33.5 25.9-16.801 1.3-31.9-3.7-45.6-13.2-.946-.557-1.714-1.9-1.714-2.998 0-.083.006-.219.013-.302zm205.7 41.9c4 0 8 0 11.9.1 3.6-.5 7.2-.8 10.8-1.3 7.7-1.1 15.1-3.1 21.8-7.1 11.6-6.9 17.1-17.5 19-30.4.5-3.293.905-8.67.905-12 0-.248-.002-.652-.005-.9v-106c.002-.13.004-.337.004-.466 0-.646-.047-1.692-.104-2.334-.074-2.575-2.225-4.68-4.8-4.7-5.4-.1-10.9-.1-16.3 0-2.9.1-4.8 2.1-5.4 5.2-.7 3.6-1.2 7.2-1.8 11a8.876 8.876 0 0 1-1.6-1.1c-11.8-9.7-25.2-16.1-40.3-18.4-13.1-2-26-1.2-37.9 5.4-12.4 6.9-19.4 17.7-21.4 31.7-1.5 10.5-.8 20.9 3.9 30.7 6.1 12.6 16.5 20.4 29.4 24.9 10.8 3.8 22 4.5 33.3 3.9 8.954-.557 23.29-2.753 32-4.9.4-.1.8 0 1.3-.1.09.381.18 1.008.2 1.4-.1 8.3 0 16.6-.3 24.9-.2 5.9-1.6 11.6-5.3 16.4-4.2 5.5-10.3 7.4-16.8 8.4-12.5 1.9-24.9.9-37.2-1.4-7.9-1.5-15.7-3.7-23.5-5.7-4.7-1.2-6.7.1-6.8 4.9-.1 3.3.1 6.6 0 9.9-.1 3.9 1.7 6.5 5.3 7.7 5.9 2 11.8 4.2 17.9 5.8 7.864 1.922 20.812 3.759 28.9 4.1.9.1 1.9.3 2.9.4zm35-127.7c-.1 4.7.1 9.3.1 14.1s-.1 9.5 0 14.3c0 1.6-.5 2.4-2.1 2.6-8.4 1.1-16.6 2.7-25 3.4-1.951.227-5.129.412-7.094.412-4.993 0-12.926-1.17-17.706-2.612-8-2.6-13.9-7.3-16.4-15.6-.78-2.575-1.412-6.848-1.412-9.539 0-2.786.677-7.204 1.512-9.86 1.558-5.41 7.114-11.368 12.4-13.302 5.4-2.199 11.1-2.4 16.8-1.8 13.9 1.4 26.2 6.8 37.4 14.901.832.544 1.507 1.792 1.507 2.786 0 .06-.003.155-.007.214zm259.9-129.4v-17.3c-.7-3.6-1.3-7.3-2.1-10.9-4.4-20.3-11.9-39.2-24.7-55.6-3.271-3.92-8.96-9.924-12.7-13.4-1.142-1.041-3.292-2.161-4.8-2.5-2.9-.7-4.6 1.2-4.1 4.1.2.853.649 2.197 1 3 5.8 14.8 11.7 29.7 15.8 45.1 2.1 7.6 3.9 15.3 3.5 23.3-.2 5.2-2.5 9-7.6 10.4-3.898 1.154-10.349 2.363-14.4 2.7-11.4.9-22.9.2-34.3-.9-7.8-.8-15.5-1.7-23.3-2.5a19.507 19.507 0 0 0-1.834-.104c-.1 0-.265.001-.366.004-1.5-.1-3.2.3-3.6 1.8a6.103 6.103 0 0 0-.201 1.418c0 .765.314 1.922.701 2.582.839 1.158 2.496 2.727 3.7 3.5 12.1 8.3 25.7 12.9 40 15.6 7.299 1.344 19.246 2.434 26.668 2.434 3.465 0 9.08-.239 12.531-.534 5.928-.37 15.335-2.118 21-3.9 4.301-1.4 8.101-3.3 9.101-8.3zM493.1 249c.3-.7.502-1.3.902-2.4 2.6 7.7 5.2 15 7.7 22.2l34.8 100c.5 1.4 1.1 2.7 1.6 4.1.933 2.88 4.146 5.218 7.174 5.218.145 0 .382-.008.526-.018 6.6 0 13.3.1 19.9 0 2.8 0 4.1-1.6 3.7-4.4-.277-1.566-.993-4.03-1.6-5.5a34508.902 34508.902 0 0 0-70.6-179.6c-2.141-5.278-6.262-13.521-9.2-18.4-8.8-14.9-22.4-21.8-39.5-21.4-4.708.184-12.279 1.08-16.9 2-5.4.9-7.3 3.4-7.4 8.9-.1 3.266-.1 6.566 0 9.9.1 3.5 1.8 5 5.2 4.8 2.5-.2 5-.8 7.5-1a50.747 50.747 0 0 1 4.75-.269c2.988 0 7.76.613 10.65 1.369 7.2 1.9 12.2 6.8 15.2 13.3 3.4 7.3 6 15 9.3 22.3 1.9 4.2 1.5 7.7-.2 11.8-19.8 48.5-39.5 97-59.1 145.5-.65 1.645-1.502 4.377-1.901 6.1-.5 2.5.7 4.5 3.2 4.5 7.7.1 15.3 0 22.9-.1 3.2 0 5.3-1.9 6.4-4.8 2.1-5.6 4.3-11.2 6.3-16.9 12.9-35.767 25.8-71.5 38.699-107.2z"/><glyph glyph-name="quinscape" unicode="" d="M313.6-26.6c4.4-4.4 8.1-9 13.3-12.5-18.502-5.58-49.202-10.107-68.527-10.107-.517 0-1.356.003-1.873.007C121.5-49.2 12 60.3 12 195.4S121.4 440 256.5 440s244.6-109.5 244.6-244.6c0-35.3-6.899-67.4-20.3-97.7-3 5.7-7.2 10.2-11.2 15.3 11.2 93.5-62.1 176.6-157 176.6-87.27 0-158.1-70.828-158.1-158.1S225.33-26.6 312.6-26.6h1zm-.1.1l.4-.1zm78.4 168.9c54.747 0 99.2-44.433 99.2-99.18v-.02c0-54.759-44.442-99.2-99.2-99.2-54.759 0-99.2 44.441-99.2 99.2 0 54.758 44.441 99.2 99.2 99.2z"/><glyph glyph-name="java" unicode="" horiz-adv-x="384" d="M277.74 135.1c-94.5-24.9-277-13.3-224.5 12.1 44.5 21.4 80.6 19 80.6 19s-93.1-22.1-33-30.1c25.4-3.4 76-2.6 123.1 1.3 38.5 3.2 77.2 10.2 77.2 10.2s-13.6-5.8-23.4-12.5zm-85.4 32.1c-48.5 43.8-84.1 82.3-60.2 118.2 35.1 52.5 132.2 78.1 110.7 162.6 0 0 53.16-53.2-50.5-135-83.1-65.6-19-103.1 0-145.8zm114.6 176.2c-111.601-64.7-91-83.5-64.1-121.301 28.8-40.5-33.9-72.9-33.9-72.9s31.2 25.6 6.5 54c-83.7 96.4 91.6 140.2 91.5 140.2zm-6.1-270.5c96.1 49.9 51.6 97.9 20.6 91.4-3.103-.581-8.03-1.926-11-3 1.72 2.446 5.393 5.268 8.2 6.3 61.3 21.6 108.5-63.6-19.8-97.3.65.642 1.546 1.807 2 2.6zM348 10.6c53-23.9-115.16-72-319.4-38.8C-46.3-16.1 64.7 26.3 85 12c0 0-6.5.4-17.7-2C56.5 7.7 22.2-3.4 40.5-11.3c50.8-22.1 233.7-16.8 291.6.7C362.5-1.3 348 10.6 348 10.6zM124.44 52s-19.6-11.4 13.9-15.2c40.6-4.6 61.3-4 106 4.5 7.46-4.468 20.093-10.65 28.2-13.8C172.34-15.4 45.74 30 124.44 52zm179.8-97.2c69.8 13.2 76.2 29.7 76.2 29.7-3.3-43.6-144.9-52.8-237.1-46.9-60.6 3.9-72.4 13.7-72.4 13.6 57.5-9.5 154.6-11.2 233.3 3.6zM260.64 95c5.086-4.749 14.54-10.483 21.1-12.8-121.3-35.5-256.3-2.9-169.5 25.9 0 0-21.9-16.2 11.6-19.7 43.3-4.5 77.6-4.8 136.8 6.6z"/><glyph glyph-name="keybase" unicode="" horiz-adv-x="448" d="M195.21 17.3c0-9.825-7.975-17.8-17.8-17.8-9.826 0-17.8 7.975-17.8 17.8 0 9.826 7.974 17.8 17.8 17.8 9.804-.022 17.779-7.996 17.8-17.8zM288 35.2c9.804-.022 17.778-7.996 17.8-17.8 0-9.826-7.975-17.8-17.8-17.8s-17.8 7.974-17.8 17.8 7.975 17.8 17.8 17.8zm142.3 36c0-38.9-7.6-73.9-22.2-103h-27.3c23.5 38.7 30.5 94.8 22.4 134.3-16.1-29.5-52.1-38.6-85.9-28.8C189.5 111.2 124.8 54 82.7 23.4l18.9 59.3-39.9-42.3c3.956-21.963 17.934-54.354 31.2-72.3H64.11c-8.154 13.282-18.1 36.264-22.2 51.3L18.11-5.8c0 74.9-5.5 147.6 61.5 215.2 16.469 16.74 47.425 37.662 69.1 46.7-6.8 13.5-9.5 29.2-7.8 46L121 303.3c-16.918 1.054-30.649 15.666-30.649 32.617 0 .492.022 1.291.05 1.783v.1L92 364c1.104 16.799 15.665 30.508 32.5 30.6 1.3 0-.3.1 28.2-1.7 7.66-.414 17.873-5.521 22.8-11.4 7.11 10.4 14.5 20.5 24.61 34.5l20.6-12.1c-13.6-29-9.1-36.2-9-36.3 3.9 0 13.9.5 32.4-5.7 28.838-9.548 52.242-41.95 52.242-72.329 0-8.619-2.752-22.047-6.142-29.971 19-6.1 51.3-19.9 82.4-51.8 36.6-37.6 57.7-87.4 57.7-136.6h-.01zM146 325.9c2.808 8.475 8.676 21.645 13.1 29.4.1 2 2.2 13.1-7.8 13.8-28.5 1.8-26.3 1.6-26.7 1.6h-.043c-4.478 0-8.312-3.63-8.557-8.1l-1.6-26.2a9.428 9.428 0 0 1-.011-.44c0-4.486 3.633-8.367 8.111-8.66zm25.8-61.8c4.505-7.36 14.495-16.32 22.3-20 0 21.2 28.5 41.9 52.8 17.5l8.4-10.3c20.8 18.8 19.4 45.3 12.1 60.9-13.8 29.1-46.9 32-54.3 31.7-.32-.015-.838-.028-1.157-.028-9.099 0-19.198 6.868-22.542 15.329-13.69-21.2-37.19-62.5-17.591-95.101h-.01zm82.9-68.4L235 179.6c-.9-.739-1.631-2.284-1.631-3.448 0-.89.462-2.168 1.031-2.852l8.9-10.9c.742-.896 2.288-1.623 3.45-1.623.888 0 2.165.458 2.85 1.023l19.6 16 5.5-6.8c4.9-6 13.8 1.4 9 7.3-63.6 78.3-41.5 51.1-55.3 68.1-4.7 6-13.9-1.4-9-7.3 1.9-2.3 18.4-22.6 19.8-24.3l-9.6-7.9c-4.6-3.8 2.6-13.3 7.4-9.4l9.7 8zM373.11 170c-16.9 23.7-42.6 46.7-73.4 60.4-6.184 2.737-16.444 6.59-22.9 8.6-1.644-1.838-4.512-4.615-6.4-6.2l31.9-39.2c3.705-4.541 6.712-12.984 6.712-18.845 0-7.79-4.889-18.117-10.912-23.055-1.3-1.1-13.1-10.7-29-4.9-2.9-2.3-10.1-9.9-22.2-9.9h-.042c-7.468 0-17.35 4.704-22.059 10.5l-8.9 10.9c-3.529 4.34-6.393 12.401-6.393 17.995 0 2.491.624 6.435 1.394 8.805-3.834 4.44-6.946 12.801-6.946 18.667 0 3.261 1.051 8.34 2.345 11.333-7.199 1.3-26.699 6.2-42.699 21.4-55.8-20.7-88-64.4-101.301-91.2-14.9-30.2-18.8-60.9-19.9-90.2 8.2 8.7-3.9-4.1 114 120.9l-29.9-93.6c57.8 31.1 124 36 197.4 14.4 23.6-6.9 45.1-1.6 56 13.9 11.1 15.6 8.5 37.7-6.8 59.3zm-244.5 170.9l1 15.6 15.6-1-1-15.6z"/><glyph glyph-name="mastodon" unicode="" horiz-adv-x="448" d="M433 268.89s.8-71.7-9-121.5c-6.23-31.6-55.11-66.2-111.23-72.9-20.1-2.4-93.12-14.2-178.75 6.7v-.339c0-3.76.403-9.835.9-13.56 6.63-49.6 49.22-52.6 89.63-54 40.81-1.3 77.12 10.1 77.12 10.1l1.7-36.9s-28.51-15.3-79.32-18.1c-28.01-1.6-62.819.7-103.33 11.4C8.491 9.49 15.09 153.19 15.09 268.89c0 97.2 63.72 125.7 63.72 125.7 61.92 28.4 227.96 28.7 290.48 0 0 0 63.71-28.5 63.71-125.7zm-75.12-125.2c0 122 5.29 147.71-18.42 175.01-25.71 28.7-79.72 31-103.83-6.1l-11.6-19.5-11.6 19.5c-24.01 36.9-77.93 35-103.83 6.1-23.61-27.1-18.41-52.9-18.41-175h46.73v114.2c0 49.7 64 51.6 64-6.9v-62.51h46.33v62.5c0 58.5 64 56.6 64 6.9v-114.2h46.63z"/><glyph glyph-name="teamspeak" unicode="" d="M244.2 101.21c-2.4-12.5-10.6-20-22.5-24.3-9.2-3.2-50.1-1.6-61.7-1-18 1.3-33.2 8.5-43.4 24-14.5 22.5-19.5 47.7-14.5 73.9 4.6 24.5 24.6 34.7 46.3 22.7 15.2-7.5 42.5-27.4 63.4-46.6 20.4-18.7 34.8-36.4 32.4-48.7zm205-20.8c6.7-5.41 11.2-22 11.6-32.1 1-50.4-23.9-68-46.6-85.4-65.1-50-295.101-16.9-145.4-6.4 127.4 9 164.101 96.1 172.101 121.5.647 1.99 2.871 3.605 4.964 3.605 1.04 0 2.535-.54 3.336-1.205zm62 122.4c0-17.2 1.9-34.6-1-51.7-4-24.7-29.1-41.7-53.2-36.7-7.2 1.7-9.4 7.2-9.4 14.2 0 28.1.8 56.4 0 84.6C445.7 289 411.4 346 345.3 382.61c-111 60.39-253.2-7-277.8-131.5-6.1-30.4-1.7-48.3-3.7-125.8-.3-7.2-4.3-11.2-12-11.5-30.8-1.4-51.8 18.2-51.8 49v20.9l.8 26.49c2.4 15.5 10.7 27 24.9 34 3.5 1.8 5.7 3.5 6.399 7.8 6.1 33.41 19.5 64 39.3 91.71 2.3 3.1 4 5.3 1 9.3-3.7 5.4-1 10.2 3 14.5 28.1 31.8 61.9 55.1 102 67.4 96 29.467 180.1 9.297 252.3-60.51 6.701-6.4 15.5-12.9 7-24.4-1.299-1.8 1.1-3.5 2.201-5 17.225-23.21 35.324-65.137 40.4-93.59.9-3.7 3-5.1 5.9-6.4 17.4-8.8 25.7-23.3 26-42.2zM351.6 71.31l-51.6 7.7c-22.8 5.9-51 32.7 22.2 60.8 21.6 8.5 85.7 37.2 87.8-8 .9-32-21.9-63.3-58.4-60.5z"/><glyph glyph-name="fulcrum" unicode="" horiz-adv-x="320" d="M95.75 283.86l-35.38-43.55L25 283.86l35.38 43.55zM144.23 448V236.89L103.15 192l41.08-44.89V-64l-20.51 198.18-51 57.821 50.97 57.82zm79.67-164.14l35.38 43.55 35.38-43.55-35.38-43.55zm-48.48-47V448L196 249.82 247 192l-51-57.82L175.42-64v211.11l41.08 44.889z"/><glyph glyph-name="mandalorian" unicode="" horiz-adv-x="448" d="M232.27-63.89c-1 3.26-1.69 15.83-1.39 24.58.55 15.89 1 24.72 1.4 28.76.64 6.2 2.87 20.72 3.28 21.38.6 1 .4 27.87-.24 33.13-.31 2.58-.63 11.9-.69 20.73-.13 16.47-.53 20.12-2.73 24.76-1.1 2.32-1.23 3.84-1 11.43.046 1.073.083 2.817.083 3.89 0 2.44-.19 6.391-.423 8.82-2 13-3.46 27.7-3.25 33.9s.43 7.15 2.06 9.67c3.05 4.71 6.51 14 8.62 23.27 2.26 9.86 3.88 17.18 4.59 20.74.922 4.241 2.902 10.983 4.42 15.05 2.27 6.25 2.49 15.39.37 15.39-.3 0-1.38-1.22-2.41-2.71-1.03-1.49-4.76-4.8-8.29-7.36-8.37-6.08-11.7-9.39-12.66-12.58s-1-7.23-.16-7.76c.34-.21 1.29-2.4 2.11-4.88.792-2.416 1.435-6.439 1.435-8.981 0-1.782-.32-4.64-.715-6.379-.39-1.77-1-5.47-1.46-8.23-.46-2.76-1-6.46-1.25-8.22-.15-1.276-.844-3.186-1.55-4.26-1-1-1.14-.91-2.05.53-.619 1.244-1.264 3.371-1.44 4.75-.25 1.74-1.63 7.11-3.08 11.93-3.28 10.9-3.52 16.15-1 21 .684 1.191 1.432 3.257 1.67 4.61 0 2.39-2.2 5.32-7.41 9.89-7 6.18-8.63 7.92-10.23 11.3-1.71 3.6-3.06 4.06-4.54 1.54-1.78-3-2.6-9.11-3-22l-.34-12.19 2-2.25c3.21-3.7 12.07-16.45 13.78-19.83 3.41-6.74 4.34-11.69 4.41-23.56.07-11.87.95-22.75 2-24.71.36-.66.51-1.35.34-1.52s.41-2.09 1.29-4.27c.872-2.414 1.795-6.447 2.06-9 .307-2.889 1.073-7.535 1.71-10.37 2.23-9.56 2.77-14.08 2.39-20.14-.2-3.27-.53-11.07-.73-17.32-1.31-41.76-1.85-58-2-61.21-.12-2-.39-11.51-.6-21.07-.36-16.3-1.3-27.37-2.42-28.65-.64-.73-8.07 4.91-12.52 9.49-3.75 3.87-4 4.79-2.83 9.95.7 3 2.26 18.29 3.33 32.62.36 4.78.81 10.5 1 12.71.83 9.37 1.66 20.35 2.61 34.78.56 8.46 1.33 16.44 1.72 17.73s.89 9.89 1.13 19.11l.43 16.77-2.26 4.3c-1.72 3.28-4.87 6.94-13.22 15.34-6 6.07-11.84 12.3-12.91 13.85l-1.95 2.81.75 10.9c1.09 15.71 1.1 48.57 0 59.06l-.89 8.7-3.28 4.52c-5.86 8.08-5.8 7.75-6.22 33.27-.1 6.07-.38 11.5-.63 12.06-.83 1.87-3.05 2.66-8.54 3.05-8.86.62-11 1.9-23.85 14.55-6.15 6-12.34 12-13.75 13.19-2.81 2.42-2.79 2-.56 9.63l1.35 4.65-1.69 3c-.63 1.177-1.79 3-2.59 4.07-1.33 1.51-5.5 10.89-6 13.49a5.066 5.066 0 0 0-.155 1.136c0 .868.46 2.106 1.026 2.764 2.23 2.86 3.4 5.68 4.45 10.73 2.33 11.19 7.74 26.09 10.6 29.22 3.18 3.47 7.7 1 9.41-5 1.34-4.79 1.369-9.79.1-18.55-.446-3.051-.894-8.028-1-11.11 0-4 .19-4.69 2.25-7.39 3.33-4.37 7.729-7.41 15.2-10.52 1.42-.592 3.534-1.87 4.72-2.85 11.17-10.72 18.62-16.18 22.95-16.85 5.18-.8 8-4.54 10-13.39 1.31-5.65 4-11.14 5.46-11.14.994.204 2.486.827 3.33 1.39 2 1.22 2.25 1.73 2.25 4.18-.22 4.962-1.116 12.954-2 17.84-.37 1.66-.78 4.06-.931 5.35-.15 1.29-.61 3.85-1 5.69-2.55 11.16-3.65 15.46-4.1 16-1.55 2-4.08 10.2-4.93 15.92-1.64 11.11-4 14.23-12.91 17.39-4.079 1.503-10.054 5.033-13.34 7.88-1.15 1-4 3.22-6.35 5.06-2.35 1.84-4.41 3.53-4.6 3.76a27.31 27.31 0 0 1-2.69 2c-6.24 4.22-8.84 7-11.26 12l-2.44 5-.22 13-.22 13 6.91 6.55c3.95 3.75 8.48 7.35 10.59 8.43 3.31 1.69 4.45 1.89 11.37 2 8.53.19 10.12 0 11.66-1.56 1.54-1.56 1.36-6.4-.29-8.5-.501-.564-1.101-1.603-1.34-2.32 0-.58-2.61-4.91-5.42-9-.88-1.804-1.94-4.86-2.37-6.82 20.44-13.39 21.55-3.77 14.07-29l11.36-2.52c3.11 8.66 6.47 17.26 8.61 26.22.29 7.63-12 4.19-15.4 8.68-2.33 5.93 3.13 14.18 6.06 19.2 1.6 2.34 6.62 4.7 8.82 4.15.88-.22 4.16.35 7.37 1.28 2.044.642 5.427 1.395 7.55 1.68 1.694.184 4.382.76 6 1.29 3.65 1.11 4.5 1.17 6.35.4 1.568-.538 4.176-1.148 5.82-1.36 1.75-.236 4.437-1.092 6-1.91 1.308-.766 3.548-1.738 5-2.17 2.51-.68 3-.57 7.05 1.67l4.35 2.4 10.74.39c10.44.4 10.81.47 15.26 2.68l4.58 2.32 2.46-1.43c1.76-1 3.14-2.73 4.85-6 2.36-4.51 2.38-4.58 1.37-7.37-.88-2.44-.89-3.3-.1-6.39.436-1.682 1.378-4.33 2.1-5.91.535-1.047 1.122-2.84 1.31-4 .31-4.33 0-5.3-2.41-6.92-2.17-1.47-7-7.91-7-9.34a17.868 17.868 0 0 0-1.07-3c-5-11.51-6.76-13.56-14.26-17-9.2-4.2-12.3-5.19-16.21-5.19-3.1 0-4-.25-4.54-1.26-.972-1.196-2.805-2.858-4.09-3.71-1.532-1.023-3.494-3.164-4.38-4.78-.41-1.04-1.527-2.343-2.49-2.91-.78-.321-1.878-1.088-2.45-1.71-1.835-1.611-4.97-4.021-7-5.38-3.33-2.34-6.87-5-7.87-6-.56-.604-1.627-1.366-2.38-1.7-.697-.314-1.651-1.053-2.13-1.65-1.31-1.39-1.49-2.11-1.14-4.6.257-1.655.893-4.29 1.42-5.88 1.32-3.8 1.31-7.86 0-10.57s-.89-6.65 1.35-9.59c2-2.63 2.16-4.56.71-8.84-.588-2.273-1.064-6.023-1.064-8.37 0-.15.002-.391.005-.54 0-4.88.22-6.28 1.46-8.38 1.239-2.1 1.819-2.48 3.239-2.32 2 .23 2.3 1.05 4.71 12.12 2.18 10 3.71 11.92 13.76 17.08 2.94 1.51 7.46 4 10 5.44 2.54 1.44 6.79 3.69 9.37 4.91 4.995 2.186 11.813 7.415 15.22 11.67 7.11 8.79 10 16.22 12.85 33.3.299 2.315 1.58 5.779 2.86 7.73 1.195 1.861 2.489 5.136 2.89 7.31 1 5.3 2.85 9.08 5.58 11.51 4.7 4.18 6 1.09 4.59-10.87-.46-3.86-1.1-10.33-1.44-14.38l-.61-7.36 4.45-4.09 4.45-4.09.11-8.42c.06-4.63.47-9.53.92-10.89l.82-2.47-6.43-6.28c-8.54-8.33-12.88-13.93-16.76-21.61-1.77-3.49-3.74-7.11-4.38-8-2.18-3.11-6.46-13-8.76-20.26l-2.29-7.22-7-6.49c-3.83-3.57-8-7.25-9.17-8.17-3.05-2.32-4.26-5.15-4.26-10a17.889 17.889 0 0 1-.012-.605c0-1.943.717-4.925 1.602-6.655a50.665 50.665 0 0 0 2.09-4.83c.29-.875.993-2.17 1.57-2.89 1.4-1.59 1.92-16.12.83-23.22-.68-4.48-3.63-12-4.7-12-1.79 0-4.06-9.27-5.07-20.74-.18-2-.62-5.94-1-8.7s-1-10-1.35-16.05c-.77-12.22-.19-18.77 2-23.15 3.41-6.69.52-12.69-11-22.84l-4-3.49.07-5.19c.045-2.483.555-6.457 1.14-8.87 4.61-16 4.73-16.92 4.38-37.13-.46-26.4-.26-40.27.63-44.15.41-1.914.894-5.05 1.08-7 .17-2 .66-5.33 1.08-7.36.47-2.26.78-11 .79-22.74v-19.06l-1.81-2.63c-2.71-3.91-15.11-13.54-15.49-12.29zm29.53 45.11c-.18.3-.33 6.87-.33 14.59 0 14.06-.89 27.54-2.26 34.45-.4 2-.81 9.7-.9 17.06-.15 11.93-1.4 24.37-2.64 26.38-.66 1.07-3 17.66-3 21.3 0 4.23 1 6 5.28 9.13s4.86 3.14 5.48.72c.28-1.1 1.45-5.62 2.6-10 3.93-15.12 4.14-16.27 4.05-21.74-.1-5.78-.13-6.13-1.74-17.73-1-7.07-1.17-12.39-1-28.43.17-19.4-.64-35.73-2-41.27-.71-2.78-2.8-5.48-3.43-4.43zm-71 37.58c-.639 2.952-1.414 7.786-1.73 10.79s-1.09 7.838-1.73 10.79c-.434 1.767-.88 4.675-1 6.49-.31 3.19-.91 7.46-1.33 9.48-1 4.79-3.35 19.35-3.42 21.07 0 .74-.34 4.05-.7 7.36-.67 6.21-.84 27.67-.22 28.29 1 1 6.63-2.76 11.33-7.43l5.28-5.25-.45-6.47c-.25-3.56-.6-10.23-.78-14.83-.18-4.6-.49-9.87-.67-11.71s-.61-9.36-.94-16.72c-.79-17.41-1.94-31.29-2.65-32a.707.707 0 0 0-.45-.193.68.68 0 0 0-.55.333h.01zm-87.18 266.59c21.07-12.79 17.84-14.15 28.49-17.66 13-4.29 18.87-7.13 23.15-16.87C111.6 214.72 86.25 193 78.55 180c-31-52-6-101.59 62.75-87.21-14.18-29.23-78-28.63-98.68 4.9-24.68 39.95-22.09 118.3 61 187.66v.04zm210.79-179c56.66-6.88 82.32 37.74 46.54 89.23 0 0-26.87 29.34-64.28 68 3 15.45 9.49 32.12 30.57 53.82 89.2-63.51 92-141.61 92.46-149.36 4.3-70.639-78.7-91.179-105.29-61.71v.02z"/><glyph glyph-name="phoenix-squadron" unicode="" d="M96 384.62c46.49 36.13 105.55 56.07 164.51 54.57 29.58.38 59.11-5.37 86.91-15.33-24.13 4.63-49 6.34-73.38 2.45-42.87-5.31-83.04-27.15-111.83-59.18 5.67 1 10.78 3.67 16 5.86 18.14 7.87 37.49 13.26 57.23 14.83 19.74 2.13 39.64.43 59.28-1.92-14.42-2.79-29.12-4.57-43-9.59-34.43-11.07-65.27-33.16-86.3-62.63-13.8-19.71-23.63-42.86-24.67-67.13-.35-16.49 5.22-34.81 19.83-44 7.015-4.24 19.36-7.68 27.555-7.68 2.776 0 7.24.42 9.965.94 15.45 2.46 30.07 8.64 43.6 16.33 11.52 6.82 22.67 14.55 32 24.25 3.79 3.22 2.53 8.45 2.62 12.79-2.12.34-4.38 1.11-6.3-.3-9.477-5.196-25.524-12.081-35.82-15.37-20-6.17-42.16-8.46-62.1-.78 12.79-1.73 26.06-.31 37.74 5.44 20.23 9.72 36.81 25.2 54.44 38.77 23.011 17.717 62.839 42.495 88.9 55.31 25.71 12 52.94 22.78 81.57 24.12-15.63-13.72-32.15-26.52-46.78-41.38-14.51-14-27.46-29.5-40.11-45.18-3.52-4.6-8.95-6.94-13.58-10.16-18.851-12.677-42.098-39.601-51.89-60.1-9.33-19.68-14.5-41.85-11.77-63.65 1.94-13.69 8.71-27.59 20.9-34.91 12.9-8 29.05-8.07 43.48-5.1 32.8 7.45 61.43 28.89 81 55.84 20.44 27.52 30.52 62.2 29.16 96.35-.52 7.5-1.57 15-1.66 22.49 8-19.48 14.82-39.71 16.65-60.83 2-14.28.75-28.76-1.62-42.9-1.91-11-5.67-21.51-7.78-32.43 17.21 19.293 34.833 55.612 39.34 81.07 1.241 7.858 2.25 20.695 2.25 28.651 0 21.957-7.374 56-16.46 75.989 20.78-32 32.34-69.58 35.71-107.48.49-12.73.49-25.51 0-38.23-2.373-28.733-15.629-72.525-29.59-97.75-26.12-47.34-68-85.63-117.19-108-78.29-36.23-174.68-31.32-248 14.68C83.91 3.469 42.94 47.668 25.361 82 13.071 106.202 1.71 147.83.001 174.92v31.34C3.93 276 40.87 342.18 96 384.62zm222-80.33c4.547.77 11.715 2.777 16 4.48 5 1.77 9.24 5.94 10.32 11.22-8.96-4.99-17.98-9.92-26.32-15.7z"/><glyph glyph-name="wolf-pack-battalion" unicode="" d="M267.73-23.53l-11.44-21.14-11.44 21.11-10.56-15.84-5.28 12.32-5.28-7v-29.83c-21.06 7.92-21.11 66.86-25.51 97.21-4.62 31.88.88 92.81-81.37 149.11 8.88 23.6 12 49.43 2.64 80.05-27.87-3.33-53.94-10.58-63.34-54.1L86.5 200c-11.2-23.04-17.02-46.76-13.2-72.14l27.27 7 6.16-33.43 18.47 7L134 75l19.35 7-26.43-21.06-8.8 28.15-24.63-5.28-7 35.63-26.39-14.52c-.25 20.02-6.96 58.06 8.8 84.45l-26.39-5.28c-3.99 22.07 2.38 39.21 7.92 56.74L28 231.15c.44 25.07 29.94 56.79 61.59 58.51 20.22 1.09 56.73 25.16 54.1 51.9-1.96 19.87-17.45 42.62-43.11 49.7 43.98-36.51 9.72-67.3-5.28-73.46-4.4 11.44-17.54 69.08 0 130.2 40.469-22.87 89.7-65.1 93.21-147.86l58.06-38.71 3.52-93.25L142.76 228l-7-7 17.58-3.51 44-38.71 15.84 5.28 28.15-49.26 3.52-119.64L223.74-.68l32.55-15.84L288.84-.68l-21.11 15.84 3.52 119.64 28.1 49.25 15.84-5.28 44 38.71 17.59 3.52-7 7-107.3-59.77 3.52 93.25 58 38.71c3.55 82.69 52.809 124.92 93.2 147.79 17.54-61.12 4.399-118.76 0-130.2-14.96 6.16-49.28 36.95-5.28 73.46-25.661-7.08-41.111-29.83-43.111-49.7-2.64-26.73 33.88-50.81 54.1-51.9 31.64-1.71 61.14-33.43 61.58-58.5l-22.43 9.68c5.54-17.53 11.92-34.67 7.92-56.74l-26.39 5.28c15.8-26.39 9.05-64.45 8.8-84.45l-26.39 14.52-7-35.63-24.59 5.24-8.8-28.15L359.22 82l19.35-7 8.8 33.39 18.47-7 6.16 33.43 27.28-7.05c3.8 25.38-2.05 49.14-13.2 72.14l30.35 8.36C447 251.79 421 259 393.09 262.37c-9.36-30.62-6.24-56.44 2.64-80.05-82.25-56.3-76.75-117.22-81.37-149.11-4.4-30.35-4.45-89.29-25.51-97.21v29.95l-5.28 7-5.28-12.32zm79.17 95L331.06 82c7.47 4.36 13.76 8.42 19.35 12.32-.6-7.22-.27-13.84-3.51-22.84v-.01zm28.15 49.26c-.4-10.94-.9-21.66-1.76-31.67-7.85 1.86-15.57 3.8-21.11 7 8.24 7.94 15.55 16.32 22.87 24.68v-.01zm24.63-5.28l-23.75 6.16c5.627 7.168 13.901 19.385 18.47 27.27 3.23-9.22 5.28-20 5.28-33.43zm3.52 80.94c19.44-12.81 27.8-33.66 29.91-56.3-12.32 4.53-24.63 9.31-36.95 10.56 5.06 12 6.65 28.14 7 45.74h.04zm-1.76 45.74c18.56-2.63 35.15-9.19 45.76-28.15-14.22-4.36-24.78-5.97-44-14.08.08 13.41-.95 27.93-1.76 42.23zM165.68 71.48c-3.24 9-2.91 15.58-3.51 22.84 5.59-3.9 11.88-7.96 19.35-12.32zm-28.15 49.26c7.32-8.36 14.63-16.74 22.87-24.67-5.54-3.2-13.26-5.14-21.11-7-.86 10.01-1.36 20.73-1.76 31.67zm-24.64-5.28c0 13.43 2 24.21 5.28 33.43 4.57-7.885 12.844-20.102 18.47-27.27zm-3.52 80.94h.09c.35-17.6 2-33.74 7-45.74-12.37-1.25-24.68-6.03-37-10.56 2.11 22.64 10.47 43.49 29.91 56.3zm1.76 45.74c-.81-14.3-1.84-28.82-1.76-42.23-19.22 8.11-29.78 9.72-44 14.08 10.63 18.95 27.23 25.52 45.76 28.15z"/><glyph glyph-name="hornbill" unicode="" d="M76.38 77.7c.183-1.372.331-3.608.331-4.992 0-20.866-16.935-37.8-37.8-37.8s-37.8 16.934-37.8 37.8c0 20.865 16.935 37.8 37.8 37.8 1.498 0 3.916-.174 5.399-.388-78.28 111.35 52 190.53 52 190.53-5.86-43-8.24-91.16-8.24-91.16-67.31-41.49.93-64.06 39.81-72.87 18.644-50.713 77.628-91.902 131.66-91.94 1.92 0 3.77.21 5.67.28l.11-18.86c-99.22-1.39-158.7 29.14-188.94 51.6zm108 327.7c109.75 73.94 187.601-54.06 187.601-54.06-43.04 5.86-91.18 8.24-91.18 8.24-43.1 70.01-65.8-6.58-73.8-44.29-48.481-19.556-87.855-77.855-87.89-130.13 0-.91.14-1.78.14-2.68l-21.84-.15c-1.41 100.43 29.87 160.09 52.42 190a45.63 45.63 0 0 0-3.057-.123c-20.948 0-37.95 17-37.95 37.949 0 20.949 17.002 37.95 37.95 37.95 13.193 0 28.527-9.657 34.227-21.557 2.042-4.254 3.7-11.538 3.7-16.257 0-1.356-.144-3.548-.32-4.892zm304.19-134.17c-4.218-2.009-11.39-3.639-16.061-3.639-.887 0-2.325.063-3.21.139 84.45-113.45-49-194.61-49-194.61 5.87 43.03 8.21 91.16 8.21 91.16 66.601 40.96.641 63.54-38.46 72.54-19.363 48.978-77.823 88.742-130.49 88.76-2.75 0-5.439-.26-8.14-.41l-.139 22.5c93.61 1.33 151.72-25.8 183.45-47.74-.226 1.525-.409 4.014-.409 5.555 0 20.944 16.997 37.94 37.94 37.94 20.943 0 37.94-16.996 37.94-37.94 0-13.223-9.69-28.57-21.631-34.255zM374.06 11.76v-.06l.33.001c20.938 0 37.93-16.992 37.93-37.93s-16.992-37.93-37.93-37.93c-13.196 0-28.527 9.663-34.22 21.57-1.763 3.665-3.394 9.938-3.64 14-111.98-80.34-191.9 51-191.9 51 43.071-5.88 91.191-8.22 91.191-8.22 41.33-67.171 63.92.54 72.77 39.489 50.418 18.764 91.36 77.654 91.39 131.45 0 2.08-.22 4.09-.3 6.15l19.52.14c1.28-89.97-23.71-147.2-45.14-179.66z"/><glyph glyph-name="nimblr" unicode="" horiz-adv-x="384" d="M246.6 148.71c15.57 0 27.15-11.46 27.15-27s-11.62-27-27.15-27c-15.7 0-27.15 11.57-27.15 27s11.55 27 27.15 27zM113 121.75c0 15.61 11.68 27 27.15 27 15.47 0 27.15-11.46 27.15-27s-11.47-27-27.15-27c-15.44 0-27.15 11.31-27.15 27zM191.76 289c98.37 0 177.76-78.91 177.76-176.48S289.91-64 191.76-64C93.61-64 14 14.87 14 112.52V448l45.25-227c30.2 48.23 97.75 68 132.51 68zm0-308.12c73.24 0 132.51 58.96 132.51 131.64 0 72.68-59.24 131.54-132.51 131.54-73.27 0-132.51-58.9-132.51-131.59S118.49-19.12 191.76-19.12z"/><glyph glyph-name="rev" unicode="" horiz-adv-x="448" d="M289.67 173.11c0-36.194-29.375-65.58-65.57-65.58-36.195 0-65.57 29.375-65.57 65.57 0 36.195 29.375 65.57 65.57 65.57h.01c36.145-.044 65.516-29.415 65.56-65.56zm139.55 5.05V-32H219.06v.11C108.121-29.18 19 61.52 19 173.11c0 108.57 84.3 197.32 191 204.57V416l108.77-62.78L210 290.43v39.12C130 322.39 67 255 67 173.12 67 86.5 137.49 16 224.11 16S381.2 86.5 381.2 173.12c-.022 47.17-32.193 106.234-71.81 131.84l45.38 26.2c39.801-32.859 73.097-101.402 74.32-153h.13z"/><glyph glyph-name="shopware" unicode="" d="M403.5-7.41c-36.09-26.822-101.875-48.591-146.841-48.591l-.66.001C118.81-56 8 55 8 192c0 137.19 111 248 248 248h.213c52.4 0 126.538-28.448 165.488-63.5.643-.586 1.166-1.769 1.166-2.64a3.57 3.57 0 0 0-4.027-3.54c-15.222 2.033-40.042 3.682-55.4 3.682l-1.31-.002c-129.36 0-222.399-53.47-222.399-155.35 0-109 92.13-145.881 176.83-178.73 33.64-13 65.4-25.36 87-41.59.788-.593 1.426-1.874 1.426-2.86 0-.985-.638-2.267-1.427-2.86zM503 214.91c.578-6.283 1.047-16.504 1.047-22.814 0-25.86-7.628-66.404-17.027-90.497-.496-1.237-1.98-2.243-3.314-2.243-.495 0-1.25.19-1.686.424-29.49 16.36-61.61 28.34-92.68 39.93C329.06 162.2 277 181.6 277 224.2c0 1.46-3.88 53.63 80.25 53.63 50.86 0 92.72-17.48 144.48-60.48.625-.53 1.193-1.624 1.27-2.44z"/><glyph glyph-name="themeco" unicode="" horiz-adv-x="448" d="M202.9 439.57c9.9 5.73 26 5.82 35.95.21L430 332.15c10-5.6 18-19.44 18-30.86V84c0-11.44-8.06-25.29-18-31L238.81-55.74c-9.93-5.66-26-5.57-35.85.21L17.86 52.88C8 58.66 0 72.62 0 84v217.29c0 11.44 8 25.36 17.91 31.08zm-77.4-199.83c-15.94 0-31.89-.14-47.83-.14V138.15H96.8V168h28.7c49.71 0 49.56 71.74 0 71.74zm140.14-100.29l-30.73 34.64c37 7.51 34.8 65.23-10.87 65.51-16.09 0-32.17.14-48.26.14V138.15h19.13v33.91h18.41l29.56-33.91h22.76v1.3zm-41.59 82.32c23.34 0 23.26-32.46 0-32.46h-29.13v32.46h29.13zm-95.56 1.6c21.18 0 21.11-38.85 0-38.85H96.18v38.84zm192.65 18.25c-68.46 0-71-105.8 0-105.8 69.48.01 69.41 105.8 0 105.8zm0-17.39c44.12 0 44.8-70.86 0-70.86s-44.43 70.86 0 70.86z"/><glyph glyph-name="hackerrank" unicode="" d="M477.5 320c14.5-25 14.48-230.92-.01-256S285.1-64 256.16-64C227.22-64 49.33 38.8 34.84 64s-14.41 230.79 0 256 192.351 128 221.32 128S463 344.95 477.5 320zM316.13 33.78c3.96 0 40.44 35.78 37.56 38.69-.87.84-8.82 1.49-17.69 1.84 0 32.4-3 19.05.68 210.34.07 3.66-1.04 5.38-4.5 5.38-11.08.07-22.16.02-33.23-.06-3.26-.03-4.31-1.81-4.21-5.2 1.59-48.9 1.2-79.09 1.2-83.64h-80.26c.63 25.8.21 79.64 2.63 105.39v3.16c8.87.35 15.9.971 16.77 1.84 2.9 2.91-34.32 38.69-38.27 38.69-3.95 0-41.41-35.769-38.49-38.69.88-.84 7.59-1.49 17.26-1.84v-3.17c3.15-128.67 1.07-179.229.15-212.67-.13-4.58 1.64-6.109 5.74-6.109 10.14.03 20.28-.08 30.41-.08 4.16-.06 5.97 1.4 5.74 5.94-1.83 36.68-1.37 65.78-1.37 72.88h79.93c0-2.42.44-3.85.44-5.85-.35-17.73-.94-60.09-.94-86.32-11.29-.35-16.68-.96-17.55-1.83-2.91-2.92 34-38.69 38-38.69z"/><glyph glyph-name="kaggle" unicode="" horiz-adv-x="320" d="M304.2-53.5l1.4-7.6c-.5-2-2.5-3-6-3h-66.9c-4 0-7.5 1.8-10.5 5.3L111.7 81.8 80.9 52.5v-109c0-5-2.5-7.5-7.5-7.5H21.5c-5 0-7.5 2.5-7.5 7.5v497c0 5 2.5 7.5 7.5 7.5h51.9c5 0 7.5-2.5 7.5-7.5v-306l132.3 133.7c3.5 3.5 7 5.3 10.5 5.3h69.2c7 0 7.9-7.8 5.3-10.5L158.4 127.7z"/><glyph glyph-name="neos" unicode="" d="M415.44-64h-95.11L212.12 90.54V-.56L125.69-64H28v482.18L68.47 448h108.05l123.74-176.13v112.68L386.69 448h97.69V-13.5zM38.77 412.73V-48l72 52.88V254l215.5-307.64h84.79l52.35 38.17h-78.27L69 435zm82.54-466.61l80 58.78v101l-79.76 114.4V-.64L49-53.89h72.34zM80.63 437.23L391.23-5.34h82.37v442.57h-79.75V119.669L170.911 437.23h-90.28zM311 256.35l72-102.81v278.53l-72-53V256.349z"/><glyph glyph-name="the-red-yeti" unicode="" d="M488.23 206.3c2.498-3.353 5.515-9.312 6.77-13.3 3.377-9.199 7.365-24.52 8.9-34.2l-2.5-.5-13 14.3c-17.9-28.1-9.9-15.4-16.7-25.1C471.7 23.3 370.4-64 248.7-64 187.2-64 134.8-43.8 91.2-3.8c-64.5 60.9-64.9 125-64.9 150.5-.5 1.8-.7 3.5-1.2 5.2L4.9 129.5c-6.8 43 25.7 74.3 33 80.7.5 1 .7 2.2 1.2 3.2l-28.8 1-3 3.4c8.5 3.5 25.3 13.3 40.3 14.3 6.302 12.068 18.756 30.123 27.8 40.3 1.3 6.4 3.3 14.2 6.6 25.8l-7.6-4.7-1.7 1.7 1.7 8.4c8.872 21.386 29.794 51.58 46.7 67.4l-33 14.3h3.7c20.9 4.9 33.2 3.3 49.2 0-2.5 4.1-5.4 10.5-8.4 18.9-1.168 3.21-2.115 8.587-2.115 12.003 0 3.812 1.17 9.769 2.614 13.297 8.9-7.4 14.301-24.6 15.2-27 .7 3.6 2.1 21.3 33.7 45.5l1.83-.5-12-44.2c30 17.7 63 21.9 97.901 11.8-12.7-12.2-24.3-28.9-42.5-33 7.4-2.3 28.7-9.7 34.2-15.2l-24.8 7.1c6.5-6 19.6-16.4 25.1-25.1 19.418-.893 50.062-6.852 68.4-13.3l-.5.5c29.4 14.7 37.7 27.3 74.8 3 0-30.2-2.3-23.4 3-29.8 6.415 5.424 17.75 12.815 25.3 16.5 13 6.4 23.1 4.7 30.7-5.9 11.8 0 17.8-15.7 18.4-27 14.8-2.9 2.7-30.7 2.5-30.7l-7.1-18.2c7.8-7.8 22.1-20.9 31.7-44.8zM398 336.8c-13.1 8.9-22.7 11.9-28.3 8.5 8.1-7.2 13-14.3 13.5-20.7 1.2-7.6-2.2-14.8-10.6-21.9l-4.2-3.4c3.601-5.91 7.364-16.258 8.4-23.1h2.5c-2.1 13.9-2.5 11 .7 14.8 11-6.4 14.9-14.5 16-19.9 21.8 10.1 29.5 12.7 54.8 20.9l-18.2-16c11.4 0 25.6.3 46.5-8.4 7 24.3 7.1 20.7 2.5 20.7l-4.7-11.3c-1.7 10.5-2.9 18.9-3.4 25.3-.5 6.7-3.9 9.6-9.3 10.1a66.202 66.202 0 0 1-.017-1.391c0-3.87.77-10.057 1.717-13.809l-1.7-5.9c-2.9 10.6-5.9 20.2-9.3 27.8-9.7 17.7-30.2-9.2-43-11.3 3.723-.207 9.77-.376 13.5-.376 3.729 0 9.777.169 13.5.376l-22.4-5.4 3.4-4.7c-5.5 0-16.9-.9-22.4 17.2zm-39.6 10.1l-20.3-11.8c11.3-7.6 20.2-18.2 27.8-31.2 6.4 2.9 10.1 5.1 11.8 7.6 2.5 2.8 2.5 4.7 3 7.1.6 1.3.8 2.7-3.4 11.1-7.5 11.8-16.2 15.3-18.9 17.2zM91 304.9c-7.8-24.1-11.7-49.4-13.2-74.6l13.2-5 1.2 27c9.5-16.4 11.2-23.3 12.3-28.8 2.8 2.1 7.7 7 22.6 11.3l1.2-1.7-7.6-10.6c10.1 3.5 19.5 3.5 28.3.5l-10.6-8.4c22.8-8.4 26.6-7.6 38.4-26.1l-11.8 1.2c34.93-20.5 66-47.9 141.2-63.2 15.6 24.1 14 21.1 14 22.9l.2.2-.2.2c-.7 1.9-14.1 16.6-18.2 20.7 7.3-1.8 6-.9 10.8-3.7 1.7-.9-5.4 5.4-21.9 20.2 16.5-6.7 27.6-15.5 33-27.8l1.7 30.7-22.4 17.7 6.4 5.9c-7.3 0-31 3.7-49.2-16l-2.5.5c5.899 12.18 13.067 32.788 16 46 1.62 7.726 2.963 20.405 3 28.3 0 19.5-4.7 38.4-13.5 56.6-6.4 13.5-16.5 25.3-30 35.4-5.47 4.099-14.744 10.147-20.7 13.5 3 .7 1 1.2-5.4 1.2-6.4.2-13 .7-19.4 1.2v-3c-8.678-1.375-20.012-8.185-25.3-15.2h-1.2l-5.4-3.4c-1.2 2.9 0 6.3 4.2 9.3l10.6 11.3-3.4-.5 2 3.4c-2.3.2-4.2.5-6.2.7l-.5 1.2 2.5 1.7c2.2-.2 4.6-.5 7.1-.7 2.525 1.345 6.897 2.438 9.758 2.438 1.184 0 3.083-.196 4.242-.438l2.5-1.2.2-.5c6.505.421 16.988 1.72 23.4 2.9 20.7 2.9 36.7 11.3 48.5 24.8l-21.1.5c-25.8.5-49.4-5.4-71.3-18.9l-2.5 2.5.5 4.7 1.7 7.1c1.377 7.081 4.244 18.415 6.4 25.3-1.7-.7-4.6-4.9-9.3-11.3-4.7-6.4-8.4-13-10.1-19.4-.905-4.246-3.548-10.652-5.9-14.3l-13.5 29 8.4-35.8-.5-1.7h-.016c-4.52 0-11.68 1.12-15.984 2.5-3.4.7-10.6 1.2-20.9 1.2.5 0-.7 0-3.2-.5 5.4-1.3 13.5-4.2 24.8-8.4l6.4 1.2c-4.2-3.4-10.9-10.1-20.2-19.4-9.4-8.9-20.2-26.1-32.5-50.2l4.2 1.2 10.1 9.3-5.4-4.7 13 12.3-2.5-3.4c-5.1-7.6-8.1-12.3-9.3-15.2zm276.5-330c8.3 40.3 3.6 55.2-.7 89.5-35.5-11.8-20.3-6-32-10.8l10.5-14.2-1.2-1.2c-20.2 6-23.2 10.8-27.8 15 6-22.2 13.9-26.4 29.5-31.7-9.5-9.6-25.4 4-34.4 13l2.5-23.6-4.2-3c-5 22.1-22 39.1-25.3 39.1-44-13-79.1-5.8-113.9 10.6-1.6-.4-70.6-18-120.5 37.1 13.7-35 32.3-63.7 71.3-82.6-4.136 8.569-13.41 20.486-20.7 26.6 0 0 .7 3.7 1.2 10.1 19.4-19.4 50.7-39.5 93.2-60.2-59.6 24.5-59.9 24.8-69.1 29l16-20.7c-3-1.3-6.7-.5-10.1 1.2-10.336 6.038-26.194 17.148-35.4 24.8 1.9-2.2 80.1-98.5 200.9-74.3-43.1 21.8-52.4 52.4-66.6 73.5l17.7-7.6-11.8 23.1c20.1-27.8 28.6-35 38.4-44.3L245 9.8c12.6-27.1 33.7-47 63.5-58.8 2.9 1.5 9.1-1.1 59 23.9zm115.3 214.4l8.93-12.8-12.3 32.5c10.9 0 10-.1 21.2-3.4-6.722 9.448-18.818 23.784-27 32l-26.6 23.1 1.2 3 23.6 2.5c-9.003 1.986-23.787 3.868-33 4.2l-17.7-.5-.5 2.9 14.8 13-41.8-20.2-12.3 18.9 3.4-16-2.5-1.2-5.9 4.2h-10.1l5.4-4.2v-2l-13.5-27.8c-10.1-31.2-21.9-67.9-35.4-109.7l1.2 16-1.2-3v-.5c-6.4-16-13.6-29.5-21.2-39.6l9.3 21.9-46.7-20.2c11.8 13.5 23.6 19.4 34.9 18.9-71.2 11.4-106.2 41-110.4 46 3.601-6.2 13.2-17.8 16-40.1l-1.7-1.2c-4.3 15.6-16.4 46.6-55.8 69.6l23.601-2.5c-10.5 12.6-36.3 17.8-40.8 16l-2.5 2.5 8.4 8.4-22.3-5.8 5.4 13.5c-8.1-4.4-4.3-2.4-17-8.9l-1.7.5c.6.6.9-.7-3 9.3-.6-11-.4-8.6-1-11.8-1.073-.355-2.731-1.117-3.7-1.7-40 20.6-57.2 11-73 5.2 36.8-6 29.3-4 38.4-9.3-25.8-12.2-31.9-12.6-51.4-70.1l22.27 22.3 2.5-16.4c13.4-58 68.7-92.5 126.4-83.4L131.6 85.8l44.8-22.4-1.2-3c4.6-1.7 9.3-3 13.5-4.2 16.473-4.875 43.786-8.831 60.965-8.831 8.947 0 23.389 1.088 32.236 2.431L249.4 71c35.8-7 50.699-31.4 56.8-39.6l-7.601 29 1.2 2.5 19-27.9-9.3 26.6 21.9-13.5h1.2l-3.4 4.2 7.1-4.7-14.3 16 1.2 3 7.6-7.1c4.3 1.2 41.4 10.5 80.9 40.3 47.9 35.4 68.1 73.8 71.6 79.7l-3 9.3zm-6.1 71.3l-18.2-1.2 14.3-11.8zm-254.8-7.1c2.7-5.1 5.7-12.4 18.4-18.8-7.5-10.9-8.3-10.5-20.2-16-7.6-7.7-13.5-13.1-17.7-14.8l7.1 13c-4.62-1.693-12.36-3.066-17.28-3.066-2.088 0-5.457.253-7.52.566l-.5 1.2c19 2.1 37.2 9.4 46.5 16-4.1 4.2-7.1 11.3-8.8 21.9zm3.7 102.3c4.926-2.788 11.349-8.97 14.3-13.8 14.7-24.1 19.2-40.1 11.3-47.7-7.9-7.6-16.8-7.1-26.1 3s-13.5 23.7-11.8 39.6c1.7 15.9 5.9 22.3 12.3 18.9zm-4.7-46.3c7.1-21.3 33.4-23.1 26.9 4.9-3.9 16.5-8.8 27.1-15.2 32.5-6.6 5.4-10.1 6.7-11.3 4.2-2.5-2.9-3.5-11.3-3-24.8 7.5 12.8 11.6 5.9 12.5 4.7l-.5-.5c-.8-1.7-2.6-3.1 1.7-6.2l1.2.5v-4.7c-1.8-12.5-6.9-12.8-12.3-10.6zm-45 5.5c-2.094.389-4.497 2.27-5.4 4.2-3.5 8.5 0 21.2 8.1 21.2 2-.5 3.7-1.7 5.4-4.7-1.5-.4-4.7-4.8.7-5.9h.5c0-13.7-7.7-15.1-9.3-14.8zm40.1 50.1l-3.7 2.4-.5 2.5c18.3 0 25.8-8.8 28.3-14.3-6.046 3.297-16.542 5.973-23.43 5.973-.737 0-1.934-.032-2.67-.073l-.5 3zm-71.8-49.4c1.6-1.6.6-.3 4.9-6.6-25.4-4.7-23.2-12.3-30-12.3.3.6 7.1 16 23.6 16l-7.1 7.6c9.4.5 15.2 2.1 19.9-5.9.017 6.61 1.316 17.182 2.9 23.6 2 7.6 3.7 11.8 5.4 13.5 1 1.5 16.3 15.7 29 22.4 2.054 1.48 5.776 2.682 8.308 2.682 1.485 0 3.81-.44 5.192-.982.285-.346.515-.99.515-1.437 0-.073-.007-.19-.015-.263l-13-7.6c7.6-11.8 10.5-25.3 8.8-41.3-.933-9.46-7.563-22.138-14.8-28.3l2.9-4.7c-30 2.2-24.8 6.8-46.5 23.6zm18.7 18.7c-1.8-7.2-2.3-16-3.1-26l5.4-6.4 7.1-3.4c2.014-.386 5.314-.698 7.365-.698 1.089 0 2.851.089 3.934.197 1 1.7 3.5 4.2 6.4 7.6 5 5.9 7.901 13.8 8.401 23.1.07 1.183.127 3.105.127 4.29 0 5.927-1.401 15.34-3.127 21.01-3 8.1-5.9 11-10.1 9.3-5.4-1.7-10.6-5.4-16-11.8-3-4.2-5.2-9.6-6.4-17.2zm42-56.1l-3.1-6.5c7.1 4.2 13.5 7.2 19.4 8.4l7.1.5 11.8-7.6h-2.5c-8.8 3.7-19.4 1.2-30.7-7.6-.5-4.7 1.7-14.7 5.9-29.5l9.2.5c-21.9-6.6-37.6-8.4-48.9-5.4-24.9 6.7-27.4 23.6-27.5 24.1-1.478 5.693-2.678 15.087-2.678 20.97 0 3.533.439 9.237.978 12.73-6.4-.5-11-4.2-15.2-10.6-2.9 5.9-5.4 8.8-5.9 9.3 1.5.7 12.3 7.5 32.5 4.9l.5-2.5-5.9-1.2c-.1-.4-1.9-29.5 18.9-24.8 1.4.3 1.3-.1 36.1 14.3z"/><glyph glyph-name="acquisitions-incorporated" unicode="" horiz-adv-x="384" d="M357.45-20.2c2.2-14.3 4.1-28.7 6.6-43.7H26.95c-4 0-6.101.7-5.3 5.7 2.1 12.9 3.5 25.9 5 38.8.5 4.8 2.3 6.8 7.6 6.8 118.1-1 114.9-.3 121.4 2.4 9.399 4 14.899 12.9 14.899 23.1-.1 42.9-.3 85.9-.2 128.8 0 3.8-1.2 5.9-4.6 6.8-15.7 3.9-31.3 7.7-47.6 11.7-5.3-12.3-10.4-24.4-15.7-36.7 1.8-3.3 28.4-2.9 35.3-2.9V93h-114.3c1 8.6 1.7 16.8 3.2 24.9.3 1.4 3.6 3.1 5.5 3.2 8.4.4 16.9.3 25.4.1 4 0 5.9 1.1 7.6 5.2 16.6 40.7 13.5 31.2 67.3 161 31.5 76.1 33 76 32.6 87.4-.7 18.6-25.4 22.3-37.7 22.1-30-.4-38.4.5-101.8.5-7.2 44.5-4.2 32.1-6.4 45.3-.7 4.2 1 5.3 4.6 5.3l339.1-.2c-.8-5.4-1.6-10.8-2.4-16.1-1.3-9.7-2.8-19.4-4-29.2-.3-2.9-1.2-4.3-4.3-4.3-20.6-.1-41.2-.1-61.8-.5-18.7-.4-37.6-.3-56.2-2-13.4-1.2-23.3-12.6-18.9-26.6 8.6-27.1 27.7-69.1 36.5-89.2 65.7-154.2 61.4-157 84-158.6 6.6-.5 13.4-.1 20.4-.1 1.3-9.4 2.6-18 4-27.5h-116v27c10.4 0 20.4.1 30.4-.1 3.5 0 5 .7 3.4 4.4-4.4 10.3-8.7 20.6-13.2 30.9-1.6 3.7-4.1 4.8-8.4 3.5-12.4-3.6-24.8-6.7-37.3-9.7-4.3-1.1-6-2.8-5.9-7.5.8-57.5.9-127.5 1-129.101.4-12.6 8.7-21.4 21-23.1.9-.2 12.9-2.8 112.7-2.6 8.3 0 8.4.1 9.6-7.6zm-174.9 205.7c2.465-.87 6.587-1.575 9.2-1.575s6.736.706 9.2 1.575c13 4.2 26.3 7.8 39.4 11.7a43.04 43.04 0 0 1 3.9 2.1c-6.7 17.4-13.1 34.2-19.7 50.9-8.9 22.7-17.7 60.3-27 82.8-1.5.8-1.9-2.4-9.4 0-17.1-44-34.1-87.8-51.3-132.1 1.543-.918 4.141-2.217 5.8-2.9 13.3-4.3 26.6-8.3 39.9-12.5z"/><glyph glyph-name="critical-role" unicode="" horiz-adv-x="448" d="M225.82 448c.26-.15 216.569-124.51 217.12-124.72 3-1.18 3.7-3.46 3.7-6.56-.074-83.447-.074-166.9 0-250.36.009-.124.017-.326.017-.45 0-2.068-1.522-4.457-3.398-5.33C421.89 48.58 235.4-57.71 224.33-64h-3C142-18.34 3.08 61.44 2.93 61.52c-1.043.491-1.89 1.825-1.89 2.978 0 .073.005.19.01.262 0 .87 0 225.94-.05 253.101a5.92 5.92 0 0 0-.013.372c0 1.783 1.318 3.825 2.943 4.558 23.261 13.1 209.271 119.21 220.141 125.21h1.75zm-10.42-20.42l-.22.158c-64.747-36.86-129.474-73.73-194.18-110.61 0-.12.08-.23.13-.35l30.86-11.64c-7.71-6-8.32-6-10.65-5.13-.1 0-24.17 9.28-26.8 10V79.578c.88 1.41 64.07 110.91 64.13 111 1.62 2.82 3 1.92 9.12 1.52 1.4-.09 1.48-.22.78-1.42-41.19-71.33-36.4-63-67.48-116.94-.81-1.4-.61-1.13 1.25-1.13h186.5c1.44 0 1.69.23 1.7 1.64v8.88c0 1.34 2.36.81-18.37 1-7.46.07-14.14 3.22-21.38 12.7-7.38 9.66-14.62 19.43-21.85 29.21-2.28 3.08-3.45 2.38-16.76 2.38-1.75 0-1.78 0-1.76-1.82.29-26.21.15-25.27 1-32.66.52-4.37 2.16-4.2 9.69-4.81 3.14-.26 3.88-4.08.52-4.92-1.57-.39-31.6-.51-33.67.1-.982.27-1.78 1.316-1.78 2.334 0 1.16.932 2.233 2.08 2.397 3.29.76 6.16-.81 6.66 4.44 1.3 13.66 1.17 9 1.1 79.42 0 10.82-.35 12.58-5.36 13.55-1.22.24-3.54.16-4.69.55-2.88 1-2 4.84 1.77 4.85 33.67 0 46.08 1.07 56.06-4.86 7.74-4.61 12-11.48 12.51-20.4.88-14.59-6.51-22.35-15-32.59-.282-.242-.51-.739-.51-1.11 0-.372.228-.869.51-1.11 2.6-3.25 5-6.63 7.71-9.83 27.56-33.23 24.11-30.54 41.28-33.06.89-.13 1 .42 1 1.15v11c0 1 .32 1.43 1.41 1.26 2.987-.455 7.862-.823 10.882-.823 3.532 0 9.22.503 12.698 1.122 1.08.15 1.5-.2 1.48-1.33 0-.11.88-26.69.87-26.8-.05-1.52.67-1.62 1.89-1.62h186.71A266557.192 266557.192 0 0 0 346 213.67c2.26.66-.4 0 6.69 1.39 2 .39 2.05.41 3.11-1.44 7.31-12.64 77.31-134 77.37-134.06V310c-1.72-.5-103.3-38.72-105.76-39.68-1.08-.42-1.55-.2-1.91.88a95.085 95.085 0 0 1-2.09 5.62c-.32.79-.09 1.13.65 1.39.1 0 95.53 35.849 103 38.77-65.42 37.57-130.56 75-196 112.6l86.82-150.39-.28-.33c-9.57.9-10.46 1.6-11.8 3.94-1 1.69-73.5 127.71-82 142.16-9.1-14.67-83.56-146.21-85.37-146.32-2.93-.17-5.88-.08-9.25-.08 28.833 49.826 57.56 99.493 86.18 149zm51.931-129.922c1.547.12 4.028.501 5.54.85 1.69.3 2.53-.2 2.6-1.92 0-.11.07-19.06-.86-20.45-.93-1.39-1.88-1.22-2.6.19-5 9.69 6.22 9.66-39.12 12-.7 0-1-.23-1-.93 0-.13 3.72-122 3.73-122.11 0-.89.52-1.2 1.21-1.51 2.465-.98 6.362-2.794 8.7-4.05 7.31-4.33 11.38-10.84 12.41-19.31 1.44-11.8-2.77-35.77-32.21-37.14-2.75-.13-28.26-1.08-34.14 23.25-4.66 19.26 8.26 32.7 19.89 36.4 1.11.202 2.013 1.282 2.013 2.411 0 .068-.006.18-.013.25.1 5.629 3 107.1 3.71 121.35.05 1.08-.62 1.16-1.35 1.15-32.35-.52-36.75.34-40.22-8.52-2.42-6.18-4.14-1.32-3.95-.23 1.06 6 2.163 12 3.31 18 .4 2.11 1.43 2.61 3.43 1.86 5.59-2.11 6.72-1.7 37.25-1.92 1.73 0 1.78.08 1.82 1.85.68 27.49.58 22.59 1 29.55.01.087.019.23.019.32 0 .986-.738 2.097-1.65 2.48-5.599 2.91-8.75 7.55-8.899 13.87-.35 14.81 17.72 21.67 27.38 11.51 6.84-7.19 5.8-18.91-2.45-24.15-1.243-.685-2.252-2.392-2.252-3.811 0-.146.015-.384.032-.53 0-.59-.11 4.31 1-30.05 0-.9.43-1.12 1.24-1.11.1 0 23 .09 34.47.37zm-199.06 8.64c19.84 4.51 32.68.56 52.49-1.69 2.76-.31 3.74-1.22 3.62-4-.21-5-1.16-22.33-1.24-23.15-.038-.932-.768-1.981-1.63-2.34-4.06-1.7-3.61 4.45-4 7.29-3.13 22.43-73.87 32.7-74.63-25.4-.31-23.92 17-53.63 54.08-50.88 27.24 2 19 20.19 24.84 20.47a2.721 2.721 0 0 0 3.083-2.695c0-.187-.037-.484-.083-.665-1.83-10.85-3.42-18.95-3.45-19.15-1.54-9.17-86.7-22.09-93.35 42.06-2.71 25.85 10.44 53.37 40.27 60.15zm80-87.67h-19.49a2.99 2.99 0 0 0-.208-.009c-1.041 0-2.139.806-2.451 1.799 2.38 3.75 5.89-.92 5.86 6.14-.08 25.75.21 38 .23 40.1 0 3.42-.53 4.65-3.32 4.94-7 .72-3.11 3.37-1.11 3.38 11.84.1 22.62.18 30.05-.72 8.769-1.07 16.71-12.63 7.93-22.62-2-2.25-4-4.42-6.14-6.73.95-1.15 6.899-8.82 17.28-19.68 2.659-2.78 6.15-3.51 9.88-3.13h.021c1.171 0 2.16.95 2.208 2.12.3 3.42.26-4.73.45 40.58 0 5.65-.34 6.58-3.23 6.83-3.95.35-4 2.26-.69 3.37l19.09.09c.32 0 4.49-.53 1-3.38 0-.05-.16 0-.24 0-3.61-.26-3.94-1-4-4.62-.27-43.93.07-40.23.41-42.82.11-.84.27-2.23 5.1-2.14 2.49 0 3.86-3.37 0-3.4-10.37-.08-20.74 0-31.11-.07-10.67 0-13.47 6.2-24.21 20.82-1.6 2.18-8.31 2.36-8.2.37.88-16.47 0-17.78 4-17.67 4.75.1 4.73-3.57.83-3.55h.06zm275 10.15c-1.21-7.13.17-10.38-5.3-10.34-61.55.42-47.82.22-50.72.31-1.022.1-2.648.427-3.63.73-2.53.6 1.48 1.23-.38 5.6-1.43 3.37-2.78 6.78-4.11 10.19-.21.797-1.05 1.444-1.875 1.444a2.63 2.63 0 0 1-.125-.004c-1.828.088-4.797.159-6.628.159-2.197 0-5.758-.103-7.952-.23-.588-.077-1.313-.551-1.62-1.06-1.58-3.62-3.07-7.29-4.51-11-1.27-3.23 7.86-1.32 12.19-2.16 3-.57 4.53-3.719.66-3.729h-26.37c-2.919 0-3.09 3.15-.74 3.21.08-.004.209-.007.289-.007 2.146 0 4.67 1.558 5.632 3.477 1.5 3 2.8 6 4.11 9.09 18.18 42.14 17.06 40.17 18.42 41.61.3.432.973.781 1.5.781s1.198-.35 1.5-.78c2.93-3.34 18.4-44.71 23.62-51.92 2-2.7 5.74-2 6.36-2 3.61-.132 4 1.109 4.13 4.29.089 1.868.08-1.172.07 41.239 0 4.46-2.36 3.74-5.55 4.27-.26 0-2.56.63-.08 3.06.21.2-.891.24 21.7.15 2.32 0 5.32-2.75-1.21-3.45l-.115.003a2.561 2.561 0 0 1-2.545-2.833c-.07-1.63-.19-38.89.29-41.21.278-1.347 1.62-2.439 2.996-2.439.064 0 .169.004.233.01 13.25-.432 14.92-.441 16 3.41 1.67 5.779 4.13 2.519 3.73.189zm-104.72-64.37c-4.24 0-4.42 3.39-.61 3.41 35.91.16 28.11-.38 37.19.65 1.68.19 2.38-.24 2.25-1.89-.26-3.39-.64-6.78-1-10.16-.25-2.16-3.2-2.61-3.4.15-.38 5.31-2.15 4.45-15.63 5.08-1.58.07-1.64 0-1.64-1.52v-16.13c0-1.65 0-1.6 1.62-1.47 3.12.25 10.31-.34 15.69 1.52.47.16 3.3 1.79 3.07-1.76 0-.21-.76-10.35-1.18-11.39-.53-1.29-1.88-1.51-2.58-.32-1.17 2 0 5.08-3.71 5.3-15.42.9-12.91 2.55-12.91-6 0-12.25-.76-16.11 3.89-16.24 16.64-.48 14.4 0 16.43 5.71.84 2.37 3.5 1.77 3.18-.58-.44-3.21-.85-6.43-1.23-9.64 0-.36-.16-2.4-4.66-2.39-37.16.08-34.54.19-35.21.31-2.72.51-2.2 3 .22 3.45 1.1.19 4-.54 4.16 2.56 2.44 56.22-.07 51.34-3.91 51.33zm-.41 109.52c2.46-.61 3.13-1.76 2.95-4.65-.33-5.3-.34-9-.55-9.69-.66-2.23-3.15-2.12-3.34.27-.38 4.81-3.05 7.82-7.57 9.15-26.28 7.73-32.81-15.46-27.17-30.22 5.88-15.41 22-15.92 28.86-13.78 5.92 1.85 5.88 6.5 6.91 7.58 1.23 1.3 2.25 1.84 3.12-1.1 0-.1.57-11.89-6-12.75-1.6-.21-19.38-3.69-32.68 3.39-21 11.19-16.74 35.47-6.88 45.33 14 14.06 39.91 7.06 42.32 6.47h.03zm-28.34-106.07c3.28 0 3.66-3 .16-3.43-2.61-.32-5 .42-5-5.46 0-2-.19-29.05.4-41.45.11-2.29 1.15-3.52 3.44-3.65 22-1.21 14.95 1.65 18.79 6.34 1.83 2.24 2.76-.84 2.76-1.08.35-13.62-4-12.39-5.19-12.4l-38.16.19c-1.93.23-2.06 3-.42 3.38 2 .48 4.94-.4 5.13 2.8 1 15.87.57 44.65.34 47.81-.27 3.77-2.8 3.27-5.68 3.71-2.47.38-2 3.22.34 3.22 1.45.02 17.97.03 23.09.02zm-31.63 57.79c.07-4.08 2.86-3.46 6-3.58 2.61-.1 2.53-3.41-.07-3.43-6.48 0-13.7 0-21.61.06-3.84 0-3.38 3.35 0 3.37 4.49 0 3.24-1.61 3.41 45.54 0 5.08-3.27 3.54-4.72 4.23-2.58 1.23-1.36 3.09.41 3.15 1.29 0 20.19.41 21.17-.21.98-.62 1.87-1.65-.42-2.86-1-.52-3.86.28-4.15-2.47 0-.21-.82-1.63-.07-43.8h.05zm-36.91-274.27c.408-.274 1.139-.495 1.63-.495.492 0 1.222.221 1.63.495 17 9.79 182 103.57 197.42 112.51-.14.43 11.26.18-181.52.27-1.22 0-1.57-.37-1.53-1.56 0-.1 1.25-44.51 1.22-50.38-.079-2.18-.688-5.634-1.36-7.71-.55-1.83.38.5-13.5-32.23-.73-1.72-1-2.21-2 .08-4.19 10.34-8.28 20.72-12.57 31-1.122 2.525-2.032 6.816-2.032 9.579 0 .334.015.877.032 1.212.16 2.46.8 16.119 1.51 48 0 1.949 0 2-2 2h-183c2.58-1.631 178.32-102.57 196-112.761zm-90.9 188.75c0-2.4.36-2.79 2.76-3 11.54-1.17 21-3.74 25.64 7.32 6 14.46 2.66 34.41-12.48 38.84-2 .59-16 2.76-15.94-1.51.05-8.04.01-11.61.02-41.65zm105.75 15.05c0-2.13 1.07-38.68 1.09-39.13.34-9.94-25.58-5.77-25.23 2.59.08 2 1.37 37.42 1.1 39.43-14.1-7.44-14.42-40.21 6.44-48.8 1.881-.817 5.075-1.48 7.126-1.48 5.535 0 12.372 3.83 15.264 8.55 4.91 7.76 6.84 29.47-5.43 39a3.3 3.3 0 0 0-.36-.12v-.04zm-12.28 198c-9.83 0-9.73-14.75-.07-14.87 9.66-.12 10.1 14.88.07 14.91v-.04zm-80.15-103.83c0-1.8.41-2.4 2.17-2.58 13.62-1.39 12.51 11 12.16 13.36-1.69 11.22-14.38 10.2-14.35 7.81.05-4.5-.03-13.68.02-18.59zm212.32-6.4l-6.1 15.84c-2.16-5.48-4.16-10.57-6.23-15.84H356z"/><glyph glyph-name="think-peaks" unicode="" horiz-adv-x="576" d="M465.4 38.6L259.2 392.4 55 40.3l-32 .3L259.2 448 465.4 94.1l55.1 95 32-.3zM110.1 82.7l149.601 257.9L495.501-64l-32.5.099-203.4 349.1L142.202 82.7h-32.1z"/><glyph glyph-name="reacteurope" unicode="" horiz-adv-x="576" d="M250.6 236.26l2 6.8-5.7 4.3 7.2.1 2.3 6.8 2.3-6.8 7.1-.1-5.7-4.3 2.1-6.8-5.8 4.1zm63.7 0l1.9 6.8-5.7 4.3 7.2.1 2.3 6.8 2.3-6.8 7.2-.1-5.7-4.3 2.1-6.8-5.8 4.1zm-91.3-50.5c4.9 0 3.8-3.9 3.8-13.76 0-10.3-6.7-14.1-16.8-14.1h-.2c-10.1 0-16.8 3.7-16.8 14.1v40.06c0 9.9 6.7 14.1 16.8 14.1h.2c10.1 0 16.8-4.2 16.8-14.1 0-8.4.9-12.2-3.8-12.3h-3.4c-4.5 0-3.8 3.3-3.8 10.5 0 4.7-2.3 6.1-5.8 6.1s-5.8-1.4-5.8-6.1v-36.6c0-4.7 2.3-6.1 5.8-6.1s5.8 1.4 5.8 6.1c0 8.1-1 12.1 3.8 12.1h3.4zm-80.7-17.4c2.5 0 3.8-1.3 3.8-3.8v-2.1c0-2.5-1.3-3.8-3.8-3.8h-21.9c-2.5 0-3.8 1.3-3.8 3.8v59.1c0 2.5 1.3 3.9 3.7 3.8H142c2.5 0 3.8-1.3 3.8-3.8v-2.1c0-2.5-1.3-3.8-3.8-3.8h-14.4v-18.3H139c2.5 0 3.8-1.3 3.8-3.8v-2.1c0-2.5-1.3-3.8-3.8-3.8h-11.4v-19.3h14.7zm-42 18.5l8.1-23.9c.8-2.6-.4-4.4-3.2-4.4h-3.3a5.058 5.058 0 0 0-.297-.012c-1.816 0-3.609 1.439-4.003 3.211l-7.4 23.5h-5.6V162.36c0-2.5-1.3-3.8-3.8-3.8h-3.4c-2.5 0-3.8 1.3-3.8 3.8v59.1c0 2.5 1.3 3.8 3.8 3.8h13.4c10.1 0 16.8-4 16.8-14.1v-11.9c0-6.4-2.7-10.4-7.3-12.4zm-3.8 14v8.7c0 4.8-2.5 6.1-6.1 6.1h-5.8v-20.9h5.8c3.6 0 6.1 1.3 6.1 6.1zM176 222l11.2-59.2c.5-2.7-.8-4.1-3.4-4.1h-3.5c-.1-.01-.265-.018-.366-.018-1.946 0-3.619 1.576-3.734 3.518l-1.8 11.3h-12.2l-1.8-11.3c-.116-1.942-1.788-3.518-3.733-3.518-.102 0-.266.008-.367.018h-3c-2.5 0-3.9 1.4-3.4 4.1l11 59.2c.136 1.885 1.78 3.415 3.67 3.415.091 0 .24-.007.33-.015h6.9c.11.012.29.02.401.02 1.899 0 3.6-1.531 3.799-3.42zm-12.3-39.3h9.4l-4.7 29.7zm89.3-20.2c0-2.46-1.3-3.84-3.8-3.8h-3.4c-2.5 0-3.8 1.3-3.8 3.8v53.2h-7.3c-2.5 0-3.8 1.3-3.8 3.8v2.1c0 2.5 1.3 3.8 3.8 3.8h25.8c2.5 0 3.8-1.3 3.8-3.8v-2.1c0-2.5-1.3-3.8-3.8-3.8H253v-53.2zm248 .8c.045.004.12-.032.164-.032A1.841 1.841 0 0 0 503 161.3v-.8a1.81 1.81 0 0 0-2-1.9h-22.5a1.81 1.81 0 0 0-2 1.9v63a1.621 1.621 0 0 0 2 1.8h22.2a1.77 1.77 0 0 0 2-1.9v-.8a1.89 1.89 0 0 0-2-2h-19.1v-25.8h16.1a1.89 1.89 0 0 0 2-2v-.8a1.89 1.89 0 0 0-2-2h-16.1v-26.7H501zm-93.1 62.9c10.1 0 15.3-4.74 15.3-14.1V172c0-9.3-5.2-14.1-15.3-14.1h-.8c-10.1 0-15.3 4.8-15.3 14.1v40.1c0 9.4 5.2 14.1 15.3 14.1h.8zm10.2-52.4v36.6c0 7.9-3 11.1-10.5 11.1s-10.5-3.2-10.5-11.1v-36.6c0-8 3-11.1 10.5-11.1s10.4 3.1 10.5 11.1zm-46.5 14.5l10.6-27.3c.5-1.3-.1-2.3-1.5-2.3h-1.5a2.798 2.798 0 0 0-.128-.004c-.887 0-1.86.674-2.171 1.504l-10.4 27.2h-11.6v-26.9a1.74 1.74 0 0 0-1.9-1.9h-1.2a1.81 1.81 0 0 0-2.003 1.8l.002.1v63l-.003.1a1.81 1.81 0 0 0 2.003 1.8h13.7c10.1 0 15.3-4.7 15.3-14.1v-9.7c0-7.2-3.1-11.7-9.2-13.3zm-6.4 3.9c7.5 0 10.5 3.16 10.5 11v6.4c0 8-3 11.1-10.5 11.1H355v-28.5h10.2zm85.9 33.1c10.1 0 15.3-4.7 15.3-14.1v-10.5c0-9.3-5.2-14.1-15.3-14.1h-10.6v-26.1a1.74 1.74 0 0 0-1.9-1.9h-1.2a1.81 1.81 0 0 0-2 1.9v63a1.621 1.621 0 0 0 2 1.8h13.7zm10.2-22.8v7.1c0 7.9-3 11.1-10.5 11h-10.2v-29.2h10.2c7.5 0 10.5 3.2 10.5 11.1zM259.5 140l7.1-.1-5.7-4.3 2.1-6.8-5.8 4.1-5.8-4.1 2.1 6.8-5.7 4.3 7.1.1 2.3 6.8zm227.6 136.1C609.401 230 605.501 143.56 453.202 99.76c13.399-49.7 18.1-101.899.1-133.8-3.8-6.7-16.8-27.7-47.6-27.7-41.5 0-110.2 41.6-182.101 142-42.8 3.5-72.2 10.1-84.6 13-20.5-82.3-6.8-125.3 15.5-137.9 1.2-.7 38.4-27.2 120.9 52.8 3.4-3.5 6.799-6.9 10.198-10.2-63.1-61.2-110.199-71-138.199-55.2-32.4 18.3-42.8 72-22.3 153.9-18.9 5-121.6 33.2-122.1 92.8-.401 40.9 49.8 74.7 120.3 95-13.4 49.6-18.2 101.8-.1 133.8C127 425 140 446 170.8 446c41.6 0 110.3-41.64 182.2-142.14 23.61-1.884 61.512-7.708 84.599-13 20.5 82 6.9 125.1-15.5 137.8-1.3.7-38.4 27.2-120.899-52.8-3.4 3.5-6.8 6.9-10.2 10.2 52.3 50.94 103.7 74.6 138.2 55.24 33.9-19.2 41.9-75.9 22.3-153.9 9.985-2.614 25.934-7.677 35.6-11.3zM135.901 411.16c-23.1-40.8 1-121.562 1.2-122.961 22.99 5.785 60.801 12.326 84.4 14.6 12.779 18.678 35.492 47.44 50.7 64.2 3.4-3.333 6.8-6.746 10.2-10.24-12.537-13.745-31.443-37.22-42.2-52.399 14.821 1.12 38.914 2.027 53.778 2.027 11.082 0 29.057-.504 40.121-1.127-64.5 86.6-126.5 126.2-163.3 126.2-23 0-32-15.2-34.9-20.3zm304.8-438.3c3.3 6 21.5 38.599-1.2 123-4.1-1.101-37.1-9.901-84.4-14.601-12.758-18.695-35.472-47.455-50.7-64.2-3.4 3.3-6.8 6.7-10.2 10.2 12.537 13.746 31.442 37.22 42.2 52.4-14.771-1.142-38.784-2.07-53.6-2.07-11.132 0-29.187.525-40.3 1.17 64.6-86.8 126.6-126.2 163.3-126.2 23.1 0 32 15.2 34.9 20.3zm9.1 138.599c25.6 7.3 85.9 27.4 105.7 62.5 1.4 2.5 33.5 50.5-72.6 90.4-9.369 3.516-24.825 8.444-34.5 11-3.6-12.9-7.9-26.1-12.8-39.5-3.158-.43-7.145-2.94-8.9-5.6l-.1.1c-1.642 1.558-4.689 3.485-6.8 4.3 5.7 15 10.6 29.8 14.6 44.2-7.2 1.7-31.8 7.6-72.2 11.7 16.7-24.5 27.9-44.1 34.3-55.5-3.508-1.147-8.167-4.461-10.4-7.4-13.6 16.4-11 19.9-42.5 64.5-13.752.966-36.102 1.75-49.888 1.75-17.287 0-45.292-1.231-62.512-2.75-16.9-25-28.3-45.2-34.8-56.9-3.497-1.49-8.067-5.254-10.2-8.4-.914 2.89-3.781 6.474-6.4 8 6.1 11.4 16.9 31 32.8 55.3-39.6-4.6-65-11.2-72-13 4.3-14.1 9.4-28.6 15.2-43.3-.716-.522-1.746-1.507-2.3-2.2-1.5 1.9-4 5.3-14.4 5.3-4.7 12.3-8.8 24.5-12.4 36.4-138.8-40.36-158.4-121.36 1.5-164 3.6 12.9 7.8 26 12.7 39.4.27-.015.708-.028.979-.028 1.684 0 4.336.461 5.92 1.028 3-1.2 5.201-1 8.401-1-5.5-14.6-10.2-28.9-14.1-42.9 19.712-4.56 52.057-9.801 72.2-11.7-16.3 23.9-27.5 43.4-33.8 54.6 8.7 0 10.7 1.6 12.6 3.2.795-.48 2.14-1.152 3-1.5 15.3-26.7 28.9-46.6 36.8-57.8 13.751-.966 36.101-1.75 49.886-1.75 17.287 0 45.294 1.232 62.514 2.75 16.5 24.3 27.7 44 33.9 55.2 7.3 0 9.8 3 10.9 4.2 1.533-1.115 4.22-2.548 6-3.2-15-28-28.7-48.9-32.2-54.2 20.118 2.227 52.373 8.051 72 13-4.1 13.8-9 27.9-14.7 42.2 1.657.744 4.076 2.357 5.4 3.6l.1.1c2.072-3.147 6.813-5.7 10.581-5.7h.12c4.699-12.3 8.8-24.5 12.399-36.4zm-114.4 114a2.02 2.02 0 0 0 2.2-1.9v-51.5c0-9.5-5-14.1-15.1-14.1h-.4c-10.1 0-15.1 4.5-15.1 14.1v51.5a1.811 1.811 0 0 0 2 1.9h1.2a1.69 1.69 0 0 0 1.9-1.9v-49.8c0-8 2.6-11.1 10.1-11.1s10.1 3.2 10.1 11.1v49.8a1.74 1.74 0 0 0 1.9 1.9h1.2zm-13.7-85.46l7.1-.1-5.7-4.3 2.1-6.8-5.8 4.1-5.8-4.1 2.1 6.8-5.7 4.3 7.1.1 2.3 6.8zm-31.1-7.4l7.1-.1-5.7-4.3 2.1-6.8-5.8 4.1-5.8-4.1 2.1 6.8-5.7 4.3 7.1.1 2.3 6.8zm5.1 30.8c.05.005.134-.031.186-.031a1.83 1.83 0 0 0 1.814-2.07v-.8a1.77 1.77 0 0 0-2-1.9h-22.5a1.81 1.81 0 0 0-2 1.9v63a1.81 1.81 0 0 0 2 1.9h22.2a1.77 1.77 0 0 0 2-1.9v-.8a1.89 1.89 0 0 0-2-2h-19.1V194.9h16.1a1.89 1.89 0 0 0 2-2v-.8a1.89 1.89 0 0 0-2-2h-16.1v-26.7h19.4zm-7.4 99.4l2.3-6.8 7.1-.1-5.7-4.3 2.1-6.8-5.8 4.1-5.8-4.1 2.1 6.8-5.7 4.3 7.1.1z"/><glyph glyph-name="adobe" unicode="" d="M315.5 384h170.9V0zm-119 0L25.6 0v384h170.9zM256 241.9L363.5 0h-73l-30.7 76.8h-78.7z"/><glyph glyph-name="artstation" unicode="" d="M2 70.6h315.1L376.3-32H90.887C73.405-32 52.848-19.322 45-3.7zM501.8 98c19-29.4-.1-55.9-2-59.1l-40.7-70.5L201.8 416h88.412c17.06 0 37.394-12.23 45.388-27.3zM275 143.5H44l115.5 200z"/><glyph glyph-name="canadian-maple-leaf" unicode="" d="M383.8 96.3c-5-5-10-7.5-5-22.5s10-35.1 10-35.1-95.2 20.1-105.2 22.6c-8.9.9-18.4-2.4-18.4-12.5S271-64 271-64h-30s5.8 102.8 5.8 112.8-9.6 13.4-18.3 12.5c-10.1-2.5-105.3-22.6-105.3-22.6s5 20.1 10.1 35.1c4.9 15 0 17.5-5.1 22.5C125.6 98.8 23 188.7 23 188.7l17.5 7.6c10 4.9 7.4 11.4 5 17.4C43 221.3 25.4 281 25.4 281s47.6-10 57.7-12.5c7.5-2.4 10 2.5 12.5 7.5s15 32.3 15 32.3 52.6-59.8 55.1-62.3c10.1-7.5 20.1 0 17.6 10 0 10-27.6 129.6-27.6 129.6s30.1-17.4 40.1-22.4c7.6-5 12.6-5 17.6 5 5 7.5 42.5 79.8 42.5 79.8s37.6-72.3 42.7-79.8c5-10 10.1-10 17.6-5 10 5 40.1 22.4 40.1 22.4S328.7 266 328.7 256c-2.5-10 7.6-17.5 17.6-10 2.5 2.4 55.1 62.3 55.1 62.3s12.5-27.4 15-32.4 5-9.9 12.5-7.5c10 2.5 57.7 12.5 57.7 12.5s-17.7-59.7-20.1-67.3c-2.4-5.9-5-12.5 5-17.4l17.5-7.5S386.3 98.8 383.8 96.3z"/><glyph glyph-name="centos" unicode="" horiz-adv-x="448" d="M289.6 350.5l31.6-31.7-76.3-76.5v108.2h44.7zm-162.4-31.7l31.6 31.7h44.7V242.3zm41.5 41.6l55.5 55.6 55.5-55.6H235V232.5l-10.8-10.8-10.8 10.8v127.9h-44.7zm26.2-168.1l-10.8-10.8H55.5v-44.8L0 192.3l55.5 55.6v-44.8h128.6zm79.3 20.7l76.3 76.5 31.6-31.7V213H274.2zm173.3-20.7L392 136.7v44.8H264.3l-10.8 10.8 10.8 10.8H392v44.8zM65.4 271.8v78.7h79.4l-31.6-31.7 90.3-90.5V213h-15.3l-90.3 90.5zm316.7 78.7v-78.7l-31.6 31.7-90.3-90.5h-15.3v15.3l90.3 90.5-31.6 31.7h78.5zM203.5 34.1V34h-44.7l-31.6 31.7 76.3 76.5V34.1zM65.4 213v44.8l32.5 31.7 76.3-76.5H65.4zm316.7-100.2V34.1h-78.5l31.6 31.7-90.3 90.5v15.3h15.3l90.3-90.5zm0 58.8v-44.8l-31.6-31.7-76.3 76.5h107.9zM321.2 65.8l-31.6-31.6h-44.7v108.1zM97.9 95.1l-32.5 31.7v44.8h108.8zm181.8-70.9l-55.5-55.6-55.5 55.6h44.7v127.9l10.8 10.8 10.8-10.8V24.2h44.7zM113.2 65.8l31.6-31.7H65.4v78.7l32.5-31.7 90.3 90.5h15.3v-15.3z"/><glyph glyph-name="diaspora" unicode="" d="M251.64 93.45c-1.4 0-88-119.9-88.7-119.9-.7 0-86.6 60.45-86.94 61.2s86.6 125.7 86.6 127.4c0 2.2-129.6 44-137.6 47.1-1.3.5 31.4 101.8 31.7 102.1.6.7 144.4-47 145.5-47 .4 0 .9.6 1 1.3.4 2 1 148.6 1.7 149.6.8 1.201 104.5.701 105.1.3 1.5-1 3.5-156.1 6.1-156.1 1.4 0 138.7 47 139.301 46.3.8-.9 31.9-102.2 31.5-102.6-.9-.9-140.2-47.1-140.601-48.8-.3-1.4 82.8-122.1 82.5-122.9s-85.5-63.5-86.3-63.5c-1 .2-89 125.5-90.9 125.5h.04z"/><glyph glyph-name="fedora" unicode="" horiz-adv-x="448" d="M225 416c123.7-.3 223.7-100.9 223.4-224.6C448.1 67.7 347.5-32.3 223.799-32l-170.2.4C24.011-31.6-.001-7.587-.001 22v.3l.4 170.3C.8 316.3 101.3 416.3 225 416zm169.8-157.2c-.077 6.27-1.332 16.305-2.8 22.4l-55.2 56.1v-1.6c0-5.1-1.5-9.6-3.8-14.3zM331 353.7c1.653-2.313 3.535-6.436 4.2-9.2l54.3-54.6c-8.275 24.825-34.483 53.408-58.5 63.8zM118.1 200.8c-4.548-.37-11.806-1.669-16.2-2.9l8.5-8.5c1.685 3.444 5.136 8.551 7.7 11.4zM97 196.6c-3.912-1.09-10.05-3.419-13.7-5.2l27-27.2c-1.305 3.327-2.38 8.927-2.4 12.5l.9 8zm-18.2-7.4c-3.215-1.795-8.233-5.02-11.2-7.2l35.3-35.9c3.708 1.846 10.026 3.952 14.1 4.7zm-15.2-9.8c-3.068-2.294-7.592-6.505-10.1-9.4l34.9-34.6c2.662 2.638 7.366 6.446 10.5 8.5zm-13.3-12.3c-2.9-3.3-5.8-6.7-8.6-10.5l35.8-35.9c1.741 3.406 5.191 8.513 7.7 11.4zm-11-14.3c-2.077-3.185-5.08-8.56-6.7-12L72.1 101c.306 4.359 1.919 11.168 3.6 15.2zm-8.8-16.3c-1.8-4.9-3.3-9.6-4.7-14.5l52.7-53.5c-3.426 6.828-6.428 18.565-6.7 26.2zm-7.9-43c.038-6.146 1.337-15.957 2.9-21.9l55.4-55.7V17c.035 4.188 1.648 10.595 3.6 14.3zm5.3-30.7C36.198 37.995 62.406 9.413 86.4-1c-1.618 2.33-3.5 6.451-4.2 9.2zm-5.3 37L87 35.6c2.305 2.887 6.74 6.786 9.9 8.7l-72.2 72.5c-1.08-4.63-2.021-12.246-2.1-17zm253.3 51.8c32.6-.1 32.7 49.2.2 49.4l-33.6.1c-4.913.022-8.9 4.027-8.9 8.94v.06l.1 47c.1 40.5 38.6 60.8 66 54.9 15.4-3.9 30.3 8.4 30.3 23.9 0 12.1-8.7 22.2-19.9 24-5.391 1.27-14.262 2.302-19.802 2.302l-.398-.001h-.42c-57.96 0-105.082-47.04-105.18-105l-.1-56-42.601.1c-32.6.1-32.7-49.201-.1-49.3l33.6-.1c4.4 0 8.9-4.5 8.9-9l-.1-47c-.005-30.858-25.053-55.9-55.91-55.9h-.19c-9.4 0-9.4 1.599-15.7 1.599-13.37-.208-24.346-11.23-24.5-24.6 0-15.5 14.2-24.2 19.9-24.2C168.8-20.1 233 26.4 233.2 95.7l.1 56zm23.5.3c4.508.442 11.72 1.742 16.1 2.9l-8.5 8.5c-1.48-3.558-4.885-8.666-7.6-11.4zm21 4.2c3.925 1.09 10.063 3.465 13.7 5.3l-27 27.2c1.305-3.326 2.38-8.926 2.4-12.5l-.9-8.1zm18 7.4c4 2.2 8.1 4.7 11.9 7.2l-36.2 35.9c-4.1-2.3-8.8-3.6-13.7-4.7zm15.5 9.8c2.922 2.333 7.447 6.364 10.1 9l-34.9 35c-2.638-2.668-7.342-6.477-10.5-8.5zm13.2 12.3c2.525 2.774 6.378 7.479 8.6 10.5L339.9 232c-1.78-3.379-5.23-8.486-7.7-11.4zm11 14.3c2.11 3.166 5.111 8.542 6.7 12l-39.5 39.8c-.305-4.359-1.919-11.168-3.6-15.2zm13.5 30.9l-53.1 53.4c3.695-6.761 6.875-18.499 7.1-26.2l41.3-41.5c1.51 3.877 3.615 10.283 4.7 14.3zm1 5.6c1.06 4.522 2.09 11.959 2.3 16.6l-64.3 64.7c-2.184-3.13-6.618-7.251-9.9-9.2z"/><glyph glyph-name="figma" unicode="" horiz-adv-x="384" d="M277 277.3h-85.4v-256c-.028-47.085-38.264-85.3-85.35-85.3C59.137-64 20.9-25.763 20.9 21.35s38.237 85.35 85.35 85.35h.05c-47.113 0-85.35 38.237-85.35 85.35s38.237 85.35 85.35 85.35c-47.085 0-85.3 38.215-85.3 85.3 0 47.085 38.215 85.3 85.3 85.3H277c47.113 0 85.35-38.236 85.35-85.35S324.112 277.3 277 277.3zm0 0c47.08-.005 85.295-38.22 85.3-85.3 0-47.086-38.214-85.3-85.3-85.3s-85.3 38.214-85.3 85.3 38.214 85.3 85.3 85.3z"/><glyph glyph-name="sketch" unicode="" d="M27.5 285.8l78.9 105.8-6.9-130.699H9zm368.8 116.5l7.1-133.5L267.7 416zM112.2 229.7L234.8-10 9.901 251.7h91.1zm2 31.2L256.3 415l60.4-65.6 81.5-88.5h-284zm297.3-9.1v-.1h90.9L277.6-10zm3.9 127.2l87.9-118.1H413l-6.1 113.399-.9 17.3zm-301.9-24.5l2.6 47.8L244.7 416 108.9 268.9zm287.7-102.7L256.3-32 153.6 168.9l-42.4 82.9h290z"/><glyph glyph-name="sourcetree" unicode="" horiz-adv-x="448" d="M427.2 245c-.095-81.522-63.128-168.031-140.7-193.1V-49.701c0-7.894-6.406-14.3-14.3-14.3h-96.4c-7.894 0-14.3 6.406-14.3 14.3v101.7C83.943 77.053 21 163.534 21 245.036v.363c.2 112 91.1 202.8 203.2 202.6 112.1 0 203-90.9 203-203zm-271.6 0c0-91 137.2-89.9 137.301 0 0 90.8-137.301 90.8-137.301 0z"/><glyph glyph-name="suse" unicode="" horiz-adv-x="640" d="M471.08 345.34c0 1 1.02.76.92.66 4.2-.6 92.2-13.7 129.2-35.3 12.1-6.9 20.7-21.5 34.5-69.6.7-2.8-2.8-5.1-3.6-5.7-26.9-18.8-56.8-36.6-145.2 21.7 11.1-26.7 10.7-25.1 11-25.5 5.4-2.8 56.3-28.7 81.6-28.2 20.4.4 42.2 10.4 50.9 15.6 0 0 4.5 2.7 3.2-2.4-.5-1.9-3.3-14.6-7-17.7-1-1-36.6-28.4-103.1-28-42.7 1-76.8 16.4-82.4-17.4-2.8-17.1 6.1-37.5 18.9-55.8h-48.6c-15.9 28.4-23.1 68.3-79.8 68.3-51.6 0-48.4-50.7-42.7-68.3H243c-18.8 68.8-69.2 98.6-102.4 104.3-74.3 12.8-113-49.2-87-98.4C76.7 60 135 59.5 153.3 83.2c19.2 25 3.8 62.9-28.5 65.7-12.3 1.1-25.3-4.6-25.5-16.9v-.06c0-10.9 10-13.8 12-14 7.3.4 8.9 1.9 11.8 2.4 5.2.9 16.8-1.8 16.8-13.9 0-8.4-6.8-13.1-13.3-14.9-4.238-1.467-11.316-2.677-15.8-2.7-17.2 0-41.2 14.8-41.5 42.6-.2 15.7 7.7 30 21.6 39.2 15.9 10.5 43.6 14.1 69.2-1.6 31.5-19.3 39.7-57.1 31.5-82.9-11.9-37.3-45.6-57.2-90-53.3-31.5 2.8-60.7 19.4-78.1 44.4-6.327 9.034-13.72 25.027-16.5 35.7C-.12 141 7 171 12.48 184.34c25.7 63.6 80.2 97.3 99.6 109.7 100.2 61.6 171.1 59.1 223 57.3 61.3-2.2 126.6-23.3 135.7-26.3 0 2 .3 20.3.3 20.3zm60.4-72.8c-1.1-33.5 39.1-51.6 63.3-28.9 24.4 22.9 9 64-24.4 65.2-.381.013-1 .025-1.38.025-20.062 0-36.872-16.273-37.52-36.325zm38.6 25.3c14.031-.413 25.42-12.14 25.42-26.179 0-.282-.009-.739-.02-1.021-.503-13.98-12.264-25.326-26.254-25.326-14.5 0-26.269 11.77-26.269 26.27s11.769 26.27 26.27 26.27c.236 0 .618-.006.853-.014zm4.3-28.8c15.4 0 15.4 15.6 0 15.6s-15.4-15.6 0-15.6z"/><glyph glyph-name="ups" unicode="" horiz-adv-x="384" d="M103.2 145v123h32.6V126.4c-17.7-12.1-97.9-35.9-97.9 39V268h32.7V164c0-32.1 27.4-22.6 32.6-19zM4 373.18c93.6 49.6 259.1 61.6 375.4 0V152.281c0-103.9-75.3-135.2-187.7-184.101C78.9 17.08 4 48.58 4 152.281V373.18zm358.1-220.9v216.2c-109.3 10.2-238.6 4-340.899-89.8v-126.4c0-86.6 53-113.5 170.5-165.3 117.2 51.7 170.399 78.7 170.399 165.3zm-209.6 107.4c23.7 15.32 104.4 31.8 104.4-65.6 0-75.9-47.3-85.8-71.7-78.5v-68.7h-32.7v212.8zm32.7-117.3c2-.8 38.4-16.9 38.4 51 0 62-30 53.5-38.4 49.3v-100.3zm79.1 86.4c-.2 41.1 51.2 53.9 79.7 31.9v-28.4c-17.9 18.3-47.9 18.1-48.5-2.2-.7-26.6 55.1-21.7 53.4-73.2-1.3-41.6-47-55-83.2-33.5v30.1c20.4-18.1 51.4-18.6 50.8 4.9-.6 27.9-52.1 23.1-52.2 70.4z"/><glyph glyph-name="usps" unicode="" horiz-adv-x="576" d="M460.3 206.3c-1.4-2.2-4.3-4.4-3.8.1 2.9 11.6 13.9 30.5 4.4 32-17.8 3.1-88.1-4.5-88.1 0 0 2.4 26.7 3.1 37.9 8.7 9.4 9.4 10.8 8 10.9 8h27c26.9 0 37.5-7.5 11.7-48.8zm-112.1-22.6C285.9 162.5 223.4 129.5 27 32.2l52.4 245.5c185 0 335.2 5.6 337.9-22.6H220.7l30.7-93.3c35 16.8 120.899 51.7 172.6 53.9 21.8.8 30.6-2.9 26.2-5.8-4.7-2.3-38-4.9-102-26.2zM94.7 352H549L481.3 32.3H58.2s402 157.3 406.399 160.2c0 0 35.7 48 14.6 67.7-6.5 6.6-16 6.6-52.4 6.6-2.1 19.5-78.8 31.5-332.1 85.2z"/><glyph glyph-name="airbnb" unicode="" horiz-adv-x="448" d="M224 74.88h.06c24.71 31.18 39.55 58.93 45 83.18 22.55 88-112.61 88-90.06 0 4.92-23.75 19.76-51.51 45-83.18zM362.15 1.65c35.64 15.35 50.18 53.57 37.01 86.64-25.49 61.61-78.84 168.47-114.84 239.09-16.97 33.93-28.03 59.87-60.37 59.87-33.82 0-43.63-27.33-59.38-57.4-4.15-10.38-100.771-202.4-115.87-241.56C30.89 38.26 70-10.23 120-2.8c24.6 2.23 52.62 18.87 85.15 54.92-29.2 37.11-47.5 70.31-54.43 99.5-11.88 53.99 18.36 100.5 73.28 100.5 64.96 0 122.75-69.93 18.85-200 35.63-39.59 77.24-68.78 119.3-50.47zm47 136.12c0-.68 16.85-35.69 16.83-39.58C451.22 28.86 399.26-32.05 336.37-32c-11.11 0-53.69-1.379-112.37 62.401-51.76-56.34-90.66-62.4-112.37-62.4C48.74-32-3.22 28.86 22 98.19c.89 2.619 11.18 32.71 117.34 245.02C159.13 384.33 178.48 416 224 416c49.13 0 56.27-3.93 185.15-278.23z"/><glyph glyph-name="battle-net" unicode="" d="M448.61 222.38c60.75-36.25 71.99-73.81 57.32-93.69-4.71-6.88-25.18-36.24-148-31.64-21.82-30.4-45.25-53.27-67.47-69.27C319-26 344.76-57.25 353-64c0 0-3.44.16-8.58 3.37-2.695 1.612-6.615 4.788-8.75 7.09-15.63 16.18-35.52 41.94-55.7 74.12-43.95-28.11-81.13-29.1-88.44-9.45-4.84 10.83 1.53 26.5 9.06 39.34-31.32-17.51-61.7-26.85-86.7-21.14-6.79 1.54-17.63 5.51-23.2 18.26-4.52 9.53-6.02 24.26-.15 47.14 9.07 35.34 37.58 82.3 47.31 97.7 3.75-8.63-20.78 40.19-26 93.19-89.16 0-110.56-8.84-111.56-9.22 1.54 2.45 7.86 7.27 17.759 9.72 22 5.48 54.64 9.85 93 11.23-2.39 52.07 15.34 84.77 36 81.29h.18c11.33-1.3 21.26-13.58 28.5-25.93.67 35.2 7.8 65.54 25 84.07 4.73 5.15 13.57 12.55 27.4 11h.05c10.52-.85 24-6.92 40.84-23.47 25.6-25.07 51.54-71.99 60.48-88.93 37.25-3.7 68.77-12.58 93.77-23.8 32.35 51.59 46.48 89.53 48.2 100.05.64-1.25 2.93-8.42-.45-20.25-6.23-21.62-18.58-51.72-36.34-85.3 45.79-23.73 65.32-55.01 52.85-71.33-3.35-4.94-12.05-12.55-38.92-12.37zm-77.85-106.22c70.41 4.38 79.65 20.57 78.51 33.5-1.88 21.25-21.2 41.26-49.06 58.83.89-24.56-5.64-54.62-29.45-92.33zM216.9 60.31c-19.04-30.46 9.2-39.56 49.8-17.7-7 12.09-13.92 24.86-20.6 38.19-9.67-7.37-19.44-14.26-29.2-20.49zm215 171.35c36.26-1.23 29.42 27.85-9.64 51.95-5.971-10.373-16.159-26.904-22.74-36.9 11.22-4.71 22.09-9.71 32.38-15.05zM279.18 50c28.38 18.2 60.169 48.12 84.77 85.43 18.46 27.96 26.149 56.02 25.41 79.57-30.58 17.32-89.36 42.72-167.23 57.21.35 18.48 2.09 19.88 2.16 20.33 10.923-1.335 28.57-4.045 39.39-6.05 32.566-6.09 84.238-20.296 115.34-31.71C363.4 287.93 337.61 302 337.5 302c1.6.16 28.13-6 48.86-43.72 8.427 11.206 16.203 22.03 23.33 32.47-29.96 15.46-71.75 28.04-116.32 30.71-33.45 1.99-61.63-5.39-81.63-17.81.24-35.26 7.67-98.96 34-173.43-16.83-9.13-17.74-7.87-18.67-8.25-17.192 40.762-37.203 109.234-44.67 152.84-21.09-30.4-20.14-59.5-20.14-59.57-.92 1.23-8.82 27.43 13.47 64.23a758.496 758.496 0 0 1-38.85 3.88c1.57-33.68 11.57-76.15 31.57-116.07 14.87-29.71 35.12-50.31 55.71-61.49 30.41 17.92 81.05 55.65 132.75 115.92 14.97-9 16.15-11.71 16.51-12a644.091 644.091 0 0 0-24.928-31.11c-21.542-25.143-59.65-62.775-85.06-84 37.53-3.39 62.53 12.18 62.53 12.25-.86-1.68-20.03-21.68-63.28-20.41 5.5-12.94 10.99-25.09 16.5-36.44zm27.399 287c-1.58 2.45-39.58 58.85-56.48 54.61-16.9 1.1-36.21-22.98-38.21-75.28 21.11 13.24 50.13 22.33 94.69 20.67zm-130.65-3.1c-3.8 6.69-8.67 12.48-14.43 13.57h-.09c-24.79 1.41-24.75-52.83-24.67-49.59 13.66-.01 27.85-.41 42.4-1.26-1.62 12.66-2.73 25.17-3.21 37.28zm-28.06-162c-30.8-61.51-19.87-76.61-19.67-76.82 7.39-15.49 38.13-20.25 84.92 4.51-21.95 11.74-44.49 32.61-65.25 72.31zm210.06-74.8z"/><glyph glyph-name="bootstrap" unicode="" horiz-adv-x="448" d="M292.3 136.07c0-42.41-39.72-41.43-43.92-41.43h-80.89v81.69h80.89c42.56 0 43.92-31.9 43.92-40.26zm-50.15 73.13h-74.66v72.18h74.66c34.93 0 38.44-20.35 38.44-35.87 0-37.31-37.77-36.31-38.44-36.31zM448 341.33V42.67c-.12-41.098-33.572-74.55-74.67-74.67H74.67C33.572-31.88.12 1.572 0 42.67v298.66c.12 41.098 33.572 74.55 74.67 74.67h298.66c41.098-.12 74.55-33.572 74.67-74.67zM338.05 130.14c0 21.57-6.65 58.29-49.05 67.35v.73c22.91 9.78 37.34 28.25 37.34 55.64 0 7 2 64.78-77.6 64.78h-127V57.31c128.23 0 139.87-1.68 163.6 5.71 14.21 4.42 52.71 17.98 52.71 67.12z"/><glyph glyph-name="buffer" unicode="" horiz-adv-x="448" d="M427.84 67.33l-196.5-97.82c-1.938-.832-5.225-1.507-7.335-1.507-2.11 0-5.395.675-7.335 1.507L20.16 67.33c-4 2-4 5.28 0 7.29L67.22 98c1.942.832 5.232 1.507 7.345 1.507 2.113 0 5.403-.675 7.345-1.507l134.76-67c1.939-.837 5.225-1.516 7.335-1.516 2.111 0 5.398.68 7.335 1.516L366.1 98c1.94.832 5.23 1.508 7.34 1.508s5.4-.676 7.34-1.508l47.06-23.43c4.05-1.96 4.05-5.24 0-7.24zm0 136.53c4.05-2.01 4.05-5.29 0-7.31l-196.5-97.8c-1.938-.832-5.225-1.508-7.335-1.508-2.11 0-5.395.676-7.335 1.508l-196.51 97.8c-4 2.02-4 5.31 0 7.31l47.06 23.43c1.942.832 5.232 1.507 7.345 1.507 2.113 0 5.403-.675 7.345-1.507l134.76-67.08c1.94-.829 5.226-1.5 7.335-1.5s5.396.671 7.335 1.5l134.76 67.08c1.94.832 5.23 1.508 7.34 1.508s5.4-.676 7.34-1.508zM20.16 317.58c-4.05 1.86-4.05 4.89 0 6.74l196.5 90.28c1.95.774 5.237 1.403 7.335 1.403s5.385-.63 7.335-1.403l196.51-90.28c4-1.85 4-4.88 0-6.74l-196.51-90.29c-1.952-.766-5.238-1.388-7.335-1.388s-5.383.622-7.335 1.388z"/><glyph glyph-name="chromecast" unicode="" d="M447.83 384h.17c23.581 0 42.72-19.139 42.72-42.72V42.72C490.72 19.137 471.58 0 448 0H298.64v42.72h149.19v298.56H64v-63.92H21.28v63.92C21.28 364.861 40.42 384 64 384h383.83zM21.28 64.42c35.279 0 63.91-28.632 63.91-63.91V.5H21.28v63.92zm0 85.28l.03-.34h.33c82.248-.105 149-66.942 149-149.19V0h-42.72v.37C127.92 59.23 80.15 107 21.29 107h-.01v42.7zm0 85.27v-.33C150.74 234.27 255.62 129.46 256.08 0h-42.72v.5c-.08 106-86.08 191.85-192.08 191.75v42.72z"/><glyph glyph-name="evernote" unicode="" horiz-adv-x="384" d="M120.82 315.79c1.6-22.31-17.55-21.59-21.61-21.59-68.93 0-73.64 1-83.58-3.34-.56-.22-.74 0-.37.37l108.53 110.32c.38.37.599.22.38-.37-4.35-9.99-3.35-15.09-3.35-85.39zm79-308c-14.68 37.08 13 76.93 52.52 76.62 17.49 0 22.6-23.21 7.95-31.42-6.19-3.3-24.95-1.74-25.14-19.2-.05-17.09 19.67-25 31.2-24.89h.01C291.553 8.9 312 29.347 312 54.54v.09c0 11.63-7.79 47.22-47.54 55.34-7.72 1.54-65 6.35-68.35 50.52C192.37 143.56 178.71 97 153 91.4c-8.74-1.94-69.68-7.64-112.92 36.77 0 0-18.57 15.23-28.23 57.95-3.38 15.75-9.28 39.7-11.14 62 0 18 11.14 30.45 25.07 32.2 81 0 90-2.32 101 7.8 9.82 9.24 7.8 15.5 7.8 102.78 1 8.3 7.79 30.81 53.41 24.14 6-.86 31.91-4.18 37.48-30.64l64.26-11.15c20.43-3.71 70.94-7 80.6-57.94 22.66-121.09 8.91-238.46 7.8-238.46C362.15-37.53 267.06-32 267.06-32c-18.95.23-54.25 9.4-67.27 39.83zm80.94 204.84c-1-1.92-2.2-6 .85-7 14.09-4.93 39.75-6.84 45.88-5.53 3.11.25 3.05 4.43 2.48 6.65-3.53 21.85-40.83 26.5-49.24 5.92z"/><glyph glyph-name="itch-io" unicode="" d="M71.92 413.23C91.14 414.9 186.24 416 256 416s116.56-.4 184-2.73c21.72-12.93 64.52-62.1 64.92-75v-21.34c0-27.06-25.25-50.84-48.25-50.84-27.54 0-50.54 22.88-50.54 50 0-27.15-22.23-50-49.76-50s-49 22.88-49 50c0-27.15-23.59-50-51.16-50h-.5c-27.57 0-51.16 22.88-51.16 50 0-27.15-21.42-50-49-50s-49.76 22.88-49.76 50c0-27.15-22.97-50-50.54-50C32.29 266.09 7 289.87 7 316.93v21.34c.4 12.89 43.2 62.06 64.92 74.96zm132.32-134.39c9.148-15.99 31.553-28.979 49.975-28.979.498 0 1.306.013 1.804.029 28.711 0 44.66 16.45 51.761 28.94 22-38.34 77.85-38.76 99.85-.24 13.12-23.06 43.08-32.1 56-27.66 3.57-37.15 13.9-236.88-17.75-269.15-77.68-18.12-299.76-18.67-379.76 0-31.4 32.02-21.601 229-17.73 269.15 12.83-4.41 42.83 4.52 56 27.66 21.95-38.46 77.85-38.15 99.85.25zm-41.58-53.77l-.02-.07c-52.32 0-65.21-77.45-83.88-144.45C61.5 18.4 84.28 16.88 112.7 16.82c42.15 1.57 65.49 32.18 65.49 62.79 53.62-8.79 116.3-6.43 155.55 0 0-30.61 23.34-61.22 65.49-62.79 28.43.06 51.21 1.58 33.95 63.73C414.53 147.47 401.64 225 349.31 225c-16.46 0-31.09 0-49.25-19.71-12.138 1.231-31.89 2.23-44.09 2.23-12.2 0-31.952-.999-44.09-2.23-18.13 19.78-32.75 19.78-49.22 19.78zM256 177.21l-.06-.01s44.35-40.76 52.35-55.24l-29 1.17V97.85c0-1.16-11.66-.7-23.31-.16-1.99 0-23.33-1.39-23.33.16v25.32l-29-1.17c7.97 14.44 52.35 55.21 52.35 55.21z"/><glyph glyph-name="salesforce" unicode="" horiz-adv-x="640" d="M248.89 202.36h-26.35c.69 5.16 3.32 14.12 13.64 14.12 6.75 0 11.97-3.82 12.71-14.12zm136.66 13.88c.45 0 14.11 1.76 14.11-20 0-6.46-1.11-20-14.11-20-.48 0-14.11-1.77-14.11 20s13.64 20 14.11 20zm-243.22-23.76c4.2 3.61 15.61 2.72 20.93 1.65v-16.94c-5.86-1.171-16.23-2.75-20.93.95-1.21 1-3.29 2.27-3.29 7.05a10.64 10.64 0 0 0-.015.499c0 2.317 1.48 5.36 3.305 6.791zM640 216c0-87.58-80-154.39-165.36-136.43-18.37-33-70.73-70.75-132.199-41.63-41.16-96.05-177.891-92.18-213.811 5.17C8.91 19.22-50.19 181.48 53.36 242.389c-34.75 79.43 22.64 173.61 114.31 173.61 33.834-.021 77.989-21.839 98.561-48.7 20.7 21.4 49.4 34.81 81.15 34.81 42.34 0 79-23.52 98.8-58.57C539 384.219 640 315.309 640 215.999zm-519.55-31.8c0 11.76-11.69 15.17-17.87 17.17-5.27 2.11-13.41 3.51-13.41 8.94 0 9.46 17 6.66 25.17 2.12 0 0 1.17-.71 1.64.47.24.7 2.36 6.58 2.59 7.29.03.093.054.247.054.344 0 .441-.338.919-.754 1.065-12.33 7.631-40.7 8.511-40.7-12.699 0-12.46 11.49-15.44 17.88-17.17 4.72-1.58 13.17-3 13.17-8.7 0-4-3.53-7.06-9.17-7.06-5.827.01-14.338 2.854-19 6.35-.47.23-1.42.71-1.65-.71l-2.4-7.47c-.47-.94.23-1.18.23-1.41 1.75-1.4 10.3-6.59 22.82-6.59 13.17 0 21.4 7.06 21.4 18.11v-.05zm32 42.58c-10.13 0-18.66-3.17-21.4-5.18a1.12 1.12 0 0 1-.431-.823c0-.179.086-.442.19-.587l2.591-7.06c.114-.4.545-.724.961-.724.06 0 .16.01.219.023.65 0 6.8 4 16.93 4 4 0 7.06-.71 9.18-2.359 3.6-2.8 3.06-8.29 3.06-10.58-4.79.3-19.11 3.44-29.41-3.76-4.058-2.783-7.35-9.034-7.35-13.954 0-.162.004-.425.01-.586 0-5.9 1.51-10.4 6.59-14.35 12.24-8.16 36.28-2 38.1-1.41 1.58.32 3.53.66 3.53 1.88v33.88c.04 4.61.32 21.64-22.78 21.64zM199 247.76l.002.072a1.11 1.11 0 0 1-1.182 1.109H188a1.11 1.11 0 0 1-1.17-1.18V168.76a1.11 1.11 0 0 1 1.17-1.18h9.88l.072-.002a1.11 1.11 0 0 1 1.108 1.182zm55.75-28.93c-2.1 2.31-6.79 7.53-17.65 7.53-3.51 0-14.16-.23-20.7-8.94-6.35-7.63-6.58-18.11-6.58-21.41 0-3.12.15-14.26 7.06-21.17 2.64-2.91 9.06-8.23 22.81-8.23 10.82 0 16.47 2.35 18.58 3.76.47.24.71.71.24 1.88l-2.35 6.83c-.187.402-.7.728-1.142.728-.076 0-.195-.012-.268-.028-2.59-.94-6.35-2.82-15.29-2.82-17.42 0-16.85 14.74-16.94 16.7h37.17c.523.01 1.047.432 1.17.94-.29 0 2.07 14.7-6.09 24.23h-.02zm36.69-52.69c13.17 0 21.41 7.06 21.41 18.11 0 11.76-11.7 15.17-17.88 17.17-4.14 1.66-13.41 3.38-13.41 8.94 0 3.76 3.29 6.35 8.47 6.35 4.88-.097 12.361-1.993 16.7-4.23 4.338-2.236 1.18-.71 1.65.47.23.7 2.35 6.58 2.58 7.29.029.093.053.248.053.344 0 .442-.338.92-.754 1.067-7.91 4.9-16.74 4.94-20.23 4.94-12 0-20.46-7.29-20.46-17.64 0-12.46 11.48-15.44 17.87-17.17 6.11-2 13.17-3.261 13.17-8.7 0-4-3.52-7.061-9.17-7.061-5.825.013-14.337 2.857-19 6.35a1.163 1.163 0 0 1-.65.242 1.01 1.01 0 0 1-1-.951l-2.35-7.52c-.47-.94.23-1.18.23-1.41 1.72-1.4 10.33-6.59 22.79-6.59h-.02zM357.09 224c0 .71-.24 1.18-1.18 1.18h-11.76c0 .14.94 8.94 4.47 12.47 4.16 4.15 11.76 1.64 12 1.64 1.17-.47 1.41 0 1.64.47l2.83 7.77c.7.94 0 1.17-.24 1.41-5.09 2-17.35 2.87-24.46-4.24-5.48-5.48-7-13.92-8-19.52h-8.47c-.6-.05-1.125-.578-1.17-1.18l-1.42-7.76c0-.7.24-1.17 1.18-1.17h8.23c-8.51-47.9-8.75-50.21-10.35-55.52-1.08-3.62-3.29-6.9-5.88-7.76-.09 0-3.88-1.68-9.64.24 0 0-.94.47-1.41-.71-.24-.71-2.59-6.82-2.83-7.53s0-1.41.47-1.41c5.11-2 13-1.77 17.88 0 6.28 2.28 9.72 7.89 11.53 12.94 2.75 7.71 2.81 9.79 11.76 59.74h12.23c.602.05 1.131.578 1.18 1.18zm53.39-16c-.56 1.68-5.1 18.11-25.17 18.11-15.25 0-23-10-25.16-18.11-1-3-3.18-14 0-23.52.09-.3 4.41-18.12 25.16-18.12 14.95 0 22.9 9.61 25.17 18.12 3.21 9.61 1.01 20.52 0 23.52zm45.4 16.7c-5 1.65-16.62 1.9-22.11-5.41v4.47l.002.062a1.11 1.11 0 0 1-1.182 1.107h-9.4a1.112 1.112 0 0 1-1.18-1.17V168.48a1.12 1.12 0 0 1 1.18-1.18h9.64l.062-.002a1.12 1.12 0 0 1 1.118 1.182v27.77c0 2.91.05 11.37 4.46 15.05 4.9 4.9 12 3.36 13.41 3.06.556.01 1.188.43 1.41.94.973 2.159 2.344 5.743 3.06 8 .045.113.08.302.08.423 0 .357-.246.8-.55.987v-.01zm46.81-54.1l-2.12 7.29c-.47 1.18-1.41.71-1.41.71-4.23-1.82-10.15-1.89-11.29-1.89-4.64 0-17.17 1.13-17.17 19.76 0 6.23 1.85 19.76 16.47 19.76.245.007.643.012.888.012 3.006 0 7.769-.745 10.632-1.662 2.862-.917.94-.47 1.18.71.94 2.59 1.64 4.47 2.59 7.53.23.94-.47 1.17-.71 1.17-11.59 3.87-22.34 2.53-27.76 0-1.59-.74-16.23-6.49-16.23-27.52 0-2.9-.58-30.11 28.94-30.11 4.423.01 11.377 1.277 15.52 2.83.29.216.525.683.525 1.045 0 .105-.025.274-.055.376v-.011zm53.87 39.52c-.8 3-5.37 16.23-22.35 16.23-16 0-23.52-10.11-25.64-18.59-.912-3.017-1.654-8.025-1.654-11.177 0-.161.002-.422.004-.583 0-25.87 18.84-29.4 29.88-29.4 10.82 0 16.46 2.35 18.58 3.76.47.24.71.71.24 1.88l-2.36 6.83c-.186.403-.698.729-1.142.729a1.42 1.42 0 0 1-.268-.03c-2.59-.939-6.35-2.819-15.29-2.819-17.42 0-16.85 14.74-16.93 16.7h37.16c.523.013 1.051.434 1.18.94-.239.01.94 7.07-1.41 15.54v-.01zm-23.29 6.35c5.11 0 11.85-2.2 12.73-14.12h-26.37c.64 5.12 3.311 14.12 13.64 14.12z"/><glyph glyph-name="speaker-deck" unicode="" d="M213.86 152H100C44.8 152 0 196.8 0 252s44.8 100 100 100h132.84c22.08 0 40-17.92 40-40s-17.92-40-40-40H98c-26.47 0-26.45-40 0-40h113.82c55.2 0 100-44.8 100-100s-44.8-100-100-100H40C17.92 32 0 49.92 0 72s17.92 40 40 40h173.86c26.48 0 26.46 40 0 40zM298 32c23.596 16.018 46.493 51.857 51.11 80h64.55c10.853.093 19.66 8.977 19.66 19.83v120.34c0 10.853-8.807 19.737-19.66 19.83H296.42c8.292 9.483 15.02 27.403 15.02 40s-6.728 30.517-15.02 40h136.93c43.44 0 78.65-35.82 78.65-80V112c0-44.18-35.21-80-78.65-80H298z"/><glyph glyph-name="symfony" unicode="" d="M256 440c137 0 248-111 248-248S393-56 256-56 8 55 8 192s111 248 248 248zm133.74-143.54c15.35.54 19.77 15.44 19.52 23.13-.64 18.06-19.67 29.46-44.83 28.65-1.9-.07-65.26 3.47-102.43-105.53-10.06 8.29-57.77 65.16-110.58 25.81-18.95-14.18-31.42-47.92-2.95-79.67 16.95-18.14 26.72-25.33 22.25-39.85-9.15-29.79-55.56-16.16-51-1.39 1.36 4.39 3.49 4.47 6.28 13.07 7.74 25.32-27.11 37.75-34.62 13.6-4.32-14.06 2.38-39.51 38.38-50.62 42.16-12.96 77.82 10.01 82.88 39.94 3.2 18.75-5.29 32.69-20.8 50.62l-12.63 14c-7.66 7.7-10.29 20.7-2.37 30.7 6.69 8.46 16.2 12.06 31.81 7.83 22.77-6.17 32.92-21.97 49.85-34.72-1.231-4-10.04-32.34-18.231-82-12.11-63.49-21.35-98.35-45.35-118.35-4.84-3.49-11.76-8.64-22.18-9-1.94-.06-14.14 2.84-2.05 12.55 15.24 8.33 7.01 34.75-14.88 34-9.86-.33-24.87-9.59-24.31-26.59.58-17.53 16.93-30.69 41.58-29.84 13.18.44 42.58 5.8 71.58 40.26 39.85 46.72 47.44 102.2 58.2 161.72 51.68-6.11 77.24 17.84 77.6 35.7.55 24.3-28 23.46-32 5.3-1.92-8.84 13.42-16.81 1.42-24.56-8.49-5.5-23.71-9.37-45.14-6.22 10.3 56.85 19.11 112.56 58.89 113.85 2.71.15 12.64-.119 12.87-6.67.15-5.41-6.8-9.67-6.53-18.849.37-10.42 8.3-17.28 19.77-16.87z"/><glyph glyph-name="waze" unicode="" d="M502.17 246.33C516.69 160.47 471.23 78.41 389 38.2 402 4.1 376.6-32 340.68-32c-27.063.021-50.166 21.973-51.57 49-6.44-.19-64.2 0-76.33.64-1.106-27.381-24.244-49.604-51.648-49.604-.589 0-1.544.02-2.132.044-33.86 1.36-57.95 34.84-47 67.92-37.21 13.11-72.54 34.87-99.62 70.8-13 17.28-.48 41.8 20.84 41.8 46.31 0 32.22 54.17 43.15 110.26C94.8 352.8 193.12 416 288.09 416c102.48 0 197.15-70.67 214.08-169.67zM373.51 59.72c42 19.18 81.33 56.71 96.29 102.14 40.48 123.09-64.15 228-181.71 228-83.45 0-170.32-55.42-186.07-136-9.53-48.91 5-131.35-68.75-131.35C58.21 89.4 91.6 69.89 127 58.46c24.66 21.8 63.87 15.47 79.83-14.34 14.22-1 79.19-1.18 87.901-.82 7.95 15.53 28.564 28.135 46.01 28.135 10.2 0 24.88-5.248 32.77-11.715zM205.12 260.87c0 34.74 50.84 34.75 50.84 0s-50.84-34.74-50.84 0zm116.57 0c0 34.74 50.86 34.75 50.86 0s-50.86-34.75-50.86 0zm-122.61-70.69c-3.44 16.94 22.18 22.18 25.62 5.21l.06-.28c4.14-21.42 29.85-44 64.12-43.07 35.68.94 59.25 22.21 64.11 42.77 4.46 16.05 28.6 10.36 25.47-6-5.23-22.18-31.21-62-91.46-62.9-42.55 0-80.88 27.84-87.9 64.25z"/><glyph glyph-name="yammer" unicode="" d="M421.78 295.83c-48.16-26.39-118.561-58.15-130.2-50s91.44 80.37 106.689 88.77c.92.5 1.8.97 2.63 1.4 1.766.521 4.694.945 6.536.945 12.73 0 23.06-10.33 23.06-23.06 0-6.144-3.905-14.233-8.715-18.055zm0-217.17c4.769-3.823 8.64-11.887 8.64-18 0-12.734-10.335-23.07-23.07-23.07-1.817 0-4.707.412-6.45.92-.83.41-1.71.9-2.63 1.41-15.27 8.39-118.25 80.64-106.69 88.74 11.56 8.1 82.04-23.62 130.2-50zM464.21 211c10.095-2.113 18.256-12.2 18.256-22.512 0-10.788-8.64-20.956-19.286-22.698-54.91.02-131.93 6.01-138.21 18.76-6.28 12.75 118.84 26.51 136.24 26.51 1.05 0 2.05-.06 3-.06zM31 351.35c-.7 2.107-1.267 5.62-1.267 7.839 0 13.733 11.146 24.88 24.88 24.88 8.73 0 18.822-6.415 22.527-14.319l81-205.06h1.21l77 203.53c3.225 8.26 13.04 14.964 21.909 14.964 12.983 0 23.52-10.537 23.52-23.52 0-1.892-.438-4.9-.98-6.714L171.2 79.559c-18.55-47.22-37.12-79.56-93.29-79.56h-.545c-6.467 0-16.889.873-23.265 1.95-8.52 2.443-15.436 11.62-15.436 20.485 0 11.764 9.547 21.31 21.31 21.31.284 0 .744-.011 1.027-.025.66-.06 10.91-.66 13.86-.66 30.47 0 43.74 18.94 58.07 59.41z"/></font>
</defs>
</svg>
