<svg xmlns="http://www.w3.org/2000/svg"><defs><font id="FontAwesome5Duotone-Solid" horiz-adv-x="512"><font-face font-family="Font Awesome 5 Duotone Solid" font-weight="900" units-per-em="512" panose-1="2 0 5 3 0 0 0 0 0 0" ascent="448" descent="-64" bbox="-0.577148 -65.7881 640.024 448.031" underline-thickness="25" underline-position="-51" unicode-range="U+0020-10F89B"/><glyph glyph-name="bolt-primary" unicode="" horiz-adv-x="320" d="M319.93 263.93c-.009-3.53-1.451-8.875-3.22-11.93l-176-304c-3.838-6.551-13.115-11.868-20.708-11.868-13.248 0-24 10.752-24 24 0 1.5.273 3.905.609 5.368l46.1 194.5 37.9 128H296c13.209-.038 23.93-10.79 23.93-24v-.07z"/><glyph glyph-name="sun-primary" unicode="" d="M352 192c0-52.992-43.008-96-96-96s-96 43.008-96 96 43.008 96 96 96c52.91-.082 95.918-43.09 96-96z"/><glyph glyph-name="snowflake-primary" unicode="" horiz-adv-x="448" d="M446 81.95l-.09-.15L430.44 55c-2.45-4.286-8.448-7.766-13.386-7.766-2.269 0-5.706.917-7.674 2.046L256 137.8 255.8-48c0-8.832-7.168-16-16-16h-32c-8.832 0-16 7.168-16 16l.1 185.7L38.65 49.2c-1.97-1.123-5.412-2.035-7.68-2.035-4.934 0-10.947 3.465-13.42 7.735L2 81.7C.877 83.67-.035 87.11-.035 89.38c0 4.934 3.466 10.946 7.735 13.42L162.16 192 7.87 281.2C3.581 283.653.1 289.653.1 294.593c0 2.266.915 5.7 2.04 7.666L17.67 329c2.451 4.275 8.44 7.744 13.367 7.744 2.255 0 5.674-.907 7.633-2.024h.05L192 246.2V432c0 8.833 7.168 16 16 16h32c8.832 0 16-7.167 16-16V246.2l153.3 88.5c1.97 1.124 5.41 2.035 7.68 2.035 4.934 0 10.947-3.465 13.42-7.734l15.5-26.8c1.123-1.97 2.035-5.411 2.035-7.68 0-4.934-3.465-10.947-7.735-13.42L285.85 192l154.49-89.2c4.237-2.433 7.676-8.374 7.676-13.26 0-2.244-.903-5.644-2.017-7.59z"/><glyph glyph-name="cloud-moon-primary" unicode="" horiz-adv-x="576" d="M416 16c0-44.16-35.84-80-80-80H96C43.008-64 0-20.992 0 32c0 41.9 27.1 77.2 64.6 90.3-.1 1.9-.6 3.7-.6 5.7 0 52.992 43.008 96 96 96 36.2 0 67.4-20.3 83.7-49.9 10.253 9.957 30.175 18.038 44.467 18.038 35.234 0 63.83-28.597 63.83-63.83 0-9.818-4.12-24.605-9.197-33.008C383.7 91.8 416 57.9 416 16z"/><glyph glyph-name="cloud-sun-primary" unicode="" horiz-adv-x="640" d="M575.2 122.36c37.6-13 64.8-48.29 64.8-90.38 0-52.992-43.008-96-96-96H272c-52.992 0-96 43.008-96 96 0 50.59 39.3 91.58 88.9 95.28-.2 2.9-.9 5.7-.9 8.7 0 61.824 50.176 112 112 112 45.4 0 84.3-27.2 101.9-66 8.659 5.518 24.021 9.996 34.29 9.996 35.223 0 63.81-28.587 63.81-63.81V128a65.088 65.088 0 0 0-.8-5.6v-.04z"/><glyph glyph-name="wind-primary" unicode="" d="M156.76 192c48.71 0 92.33-35 98.43-83.4.608-3.979 1.101-10.474 1.101-14.498 0-52.993-43.008-96-96-96-44.546 0-86.914 35.615-94.571 79.498-1.8 9.6 6.11 18.4 15.91 18.4h32.83c6.6 0 13.1-3.8 15.21-10.1 4.07-12.025 17.674-21.784 30.368-21.784 17.698 0 32.061 14.364 32.061 32.06 0 1.452-.192 3.792-.429 5.224-2.6 15.7-17.51 26.6-33.41 26.6H16c-8.832 0-16 7.168-16 16v32c0 8.832 7.168 16 16 16h140.76zm289.07 148.72c1.222-5.598 2.214-14.79 2.214-20.52 0-53.016-43.027-96.114-96.044-96.2H16c-8.832 0-16 7.168-16 16v32c0 8.832 7.168 16 16 16h334.22c16 0 30.78 10.91 33.4 26.62.323 1.664.584 4.392.584 6.087 0 17.664-14.336 32-32 32-13.045 0-26.747-10.119-30.584-22.587-2.1-6.3-8.5-10.1-15.2-10.1h-32.8c-9.7 0-17.7 8.7-15.8 18.3 8.404 42.904 50.707 77.724 94.425 77.724 5.717 0 14.89-.987 20.475-2.204 36.2-7.6 65.51-36.91 73.11-73.12z"/><glyph glyph-name="ballot-primary" unicode="" horiz-adv-x="384" d="M112 96c8.832 0 16-7.168 16-16V48c0-8.832-7.168-16-16-16H80c-8.832 0-16 7.168-16 16v32c0 8.832 7.168 16 16 16h32zm0 128c8.832 0 16-7.168 16-16v-32c0-8.832-7.168-16-16-16H80c-8.832 0-16 7.168-16 16v32c0 8.832 7.168 16 16 16h32zm0 128c8.832 0 16-7.168 16-16v-32c0-8.832-7.168-16-16-16H80c-8.832 0-16 7.168-16 16v32c0 8.832 7.168 16 16 16h32z"/><glyph glyph-name="ballot-check-primary" unicode="" horiz-adv-x="384" d="M80 288c-8.832 0-16 7.168-16 16v32c0 8.832 7.168 16 16 16h32c8.832 0 16-7.168 16-16v-32c0-8.832-7.168-16-16-16H80zm94.3-55.1c.87-.87 1.576-2.571 1.576-3.8 0-1.23-.706-2.931-1.576-3.8l-64.2-63.6c-.868-.87-2.57-1.576-3.8-1.576-1.229 0-2.932.706-3.8 1.576L65.6 199c-.87.868-1.575 2.57-1.575 3.8 0 1.229.706 2.931 1.575 3.8l12.7 12.6c.87.869 2.571 1.575 3.8 1.575 1.23 0 2.931-.706 3.8-1.575l20.6-20.8 47.6 47.2c.869.87 2.571 1.575 3.8 1.575 1.23 0 2.931-.706 3.8-1.576zM112 96c8.832 0 16-7.168 16-16V48c0-8.832-7.168-16-16-16H80c-8.832 0-16 7.168-16 16v32c0 8.832 7.168 16 16 16h32z"/><glyph glyph-name="booth-curtain-primary" unicode="" d="M416 448V47.937c0-26.496-21.504-48-48-48-12.318 0-28.76 7.644-36.7 17.063-2.484 2.814-7.546 5.1-11.3 5.1s-8.816-2.286-11.3-5.1C300.745 7.614 284.303-.002 272-.002S243.255 7.614 235.3 17c-2.484 2.814-7.546 5.1-11.3 5.1s-8.816-2.286-11.3-5.1C204.76 7.581 188.318-.063 176-.063c-26.496 0-48 21.504-48 48V448h288z"/><glyph glyph-name="box-ballot-primary" unicode="" horiz-adv-x="576" d="M0 128h576V-32c0-17.664-14.336-32-32-32H32C14.336-64 0-49.664 0-32v160zm574.7 32H1.2c-.3.5-.5.7-.8 1.2L56 299.8c4.456 11.076 17.761 20.081 29.7 20.1h26.1l.2-64h-.5l-16-32h384.4l-16 32-.2 64h26.6c11.938-.019 25.243-9.024 29.7-20.1l55.5-138.6c-.193-.35-.551-.887-.8-1.2z"/><glyph glyph-name="calendar-star-primary" unicode="" horiz-adv-x="448" d="M400 384c26.496 0 48-21.504 48-48v-48H0v48c0 26.496 21.504 48 48 48h48v48c0 8.832 7.168 16 16 16h32c8.832 0 16-7.168 16-16v-48h128v48c0 8.832 7.168 16 16 16h32c8.832 0 16-7.168 16-16v-48h48zm-86-256.3c5.663-.831 10.259-6.15 10.259-11.873 0-2.81-1.639-6.675-3.66-8.627L281 68.6l9.4-54.6c.09-.54.163-1.421.163-1.967 0-6.624-5.376-12-12-12-1.628 0-4.12.612-5.563 1.367l-49 25.8-48.9-25.8c-1.443-.755-3.934-1.367-5.562-1.367-6.624 0-12 5.376-12 12 0 .546.072 1.428.162 1.967l9.4 54.6-39.6 38.6c-2.02 1.952-3.66 5.817-3.66 8.627 0 5.724 4.598 11.042 10.26 11.873l54.7 8 24.5 49.6c1.826 3.68 6.641 6.668 10.75 6.668s8.925-2.988 10.75-6.668l24.5-49.6z"/><glyph glyph-name="clipboard-list-check-primary" unicode="" horiz-adv-x="384" d="M96 104h.06C109.276 104 120 93.275 120 80.06V80c0-13.248-10.752-24-24-24S72 66.752 72 80s10.752 24 24 24zm65.7 141.6l12.6-12.7c.87-.868 1.576-2.57 1.576-3.8 0-1.228-.706-2.93-1.576-3.8l-64.2-63.6c-.869-.87-2.57-1.576-3.8-1.576-1.229 0-2.932.707-3.8 1.577L65.6 199c-.87.868-1.576 2.57-1.576 3.8 0 1.229.706 2.93 1.575 3.799l12.7 12.6c.87.87 2.572 1.576 3.8 1.576 1.23 0 2.932-.706 3.801-1.575l20.6-20.8 47.6 47.199c.869.87 2.57 1.576 3.8 1.576 1.229 0 2.93-.706 3.8-1.576zM256 384c35.328 0 64-28.672 64-64H64c0 35.328 28.672 64 64 64 0 35.328 28.672 64 64 64s64-28.672 64-64zm-64-24h.06c13.215 0 23.94 10.725 23.94 23.94v.06c0 13.248-10.752 24-24 24s-24-10.752-24-24 10.752-24 24-24z"/><glyph glyph-name="cloud-drizzle-primary" unicode="" d="M512 224c0-52.992-43.008-96-96-96H96c-52.992 0-96 43.008-96 96 0 42.5 27.8 78.2 66.1 90.8-1.13 5.797-2.07 15.295-2.1 21.2v.06C64 397.85 114.15 448 175.94 448h.06c43.3 0 80.4-24.8 99-60.8 14.7 17.5 36.4 28.8 61 28.8 44.16 0 80-35.84 80-80v-.467c0-4.387-.716-11.436-1.6-15.734.5 0 1 .2 1.6.2 52.992 0 96-43.007 96-96z"/><glyph glyph-name="cloud-hail-primary" unicode="" d="M512 224c0-52.992-43.008-96-96-96H96c-52.992 0-96 43.008-96 96 0 42.5 27.8 78.2 66.1 90.8-1.13 5.797-2.07 15.295-2.1 21.2v.06C64 397.85 114.15 448 175.94 448h.06c43.3 0 80.4-24.8 99-60.8 14.7 17.5 36.4 28.8 61 28.8 44.16 0 80-35.84 80-80v-.467c0-4.387-.716-11.436-1.6-15.734.5 0 1 .2 1.6.2 52.992 0 96-43.007 96-96z"/><glyph glyph-name="cloud-hail-mixed-primary" unicode="" d="M512 224c0-52.992-43.008-96-96-96H96c-52.992 0-96 43.008-96 96 0 42.5 27.8 78.2 66.1 90.8-1.13 5.797-2.07 15.295-2.1 21.2v.06C64 397.85 114.15 448 175.94 448h.06c43.3 0 80.4-24.8 99-60.8 14.7 17.5 36.4 28.8 61 28.8 44.16 0 80-35.84 80-80v-.467c0-4.387-.716-11.436-1.6-15.734.5 0 1 .2 1.6.2 52.992 0 96-43.007 96-96z"/><glyph glyph-name="cloud-meatball-primary" unicode="" d="M416 128h-43.4c-2.945 6.791-9.576 16.557-14.8 21.8-11.604 11.642-34.363 21.185-50.8 21.3-11.712 11.538-34.56 20.902-51 20.902s-39.288-9.364-51-20.902c-25.855-.101-55.244-19.41-65.6-43.1H96c-52.992 0-96 43.008-96 96 0 42.5 27.8 78.2 66.1 90.8-1.13 5.797-2.07 15.295-2.1 21.2v.06C64 397.85 114.15 448 175.94 448h.06c43.3 0 80.4-24.8 99-60.8 14.7 17.5 36.4 28.8 61 28.8 44.16 0 80-35.84 80-80v-.467c0-4.387-.716-11.436-1.6-15.734.5 0 1 .2 1.6.2 52.992 0 96-43.007 96-96s-43.008-96-96-96z"/><glyph glyph-name="cloud-moon-rain-primary" unicode="" horiz-adv-x="576" d="M416 144c0-44.16-35.84-80-80-80H80C35.906 64.065.12 99.905.12 144c0 36.095 28.707 71.218 64.08 78.4 0 .5-.2 1.1-.2 1.6v.178c0 52.892 42.927 95.819 95.82 95.819 27.164 0 62.055-17.918 77.88-39.997 8.962 4.373 24.328 7.957 34.3 8 36.684-.08 71.852-29.424 78.5-65.5 36.156-6.582 65.5-41.75 65.5-78.5z"/><glyph glyph-name="cloud-rain-primary" unicode="" d="M512 224c0-52.992-43.008-96-96-96H96c-52.992 0-96 43.008-96 96 0 42.5 27.8 78.2 66.1 90.8-1.13 5.797-2.07 15.295-2.1 21.2v.06C64 397.85 114.15 448 175.94 448h.06c43.3 0 80.4-24.8 99-60.8 14.7 17.5 36.4 28.8 61 28.8 44.16 0 80-35.84 80-80v-.467c0-4.387-.716-11.436-1.6-15.734.5 0 1 .2 1.6.2 52.992 0 96-43.007 96-96z"/><glyph glyph-name="cloud-rainbow-primary" unicode="" horiz-adv-x="576" d="M399.2 122.4C436.8 109.4 464 74 464 32c0-52.993-43.008-96-96-96H96C43.008-64 0-20.993 0 32c0 50.6 39.2 91.6 88.9 95.3-.2 2.9-.9 5.7-.9 8.7v.122c0 61.753 50.118 111.87 111.87 111.87 39.94 0 85.65-29.565 102.03-65.993 8.659 5.518 24.021 9.997 34.29 9.997 35.223 0 63.81-28.587 63.81-63.81v-.187a65.088 65.088 0 0 0-.8-5.6z"/><glyph glyph-name="cloud-showers-primary" unicode="" d="M512 224c0-52.992-43.008-96-96-96H96c-52.992 0-96 43.008-96 96 0 42.5 27.8 78.2 66.1 90.8-1.13 5.797-2.07 15.295-2.1 21.2v.06C64 397.85 114.15 448 175.94 448h.06c43.3 0 80.4-24.8 99-60.8 14.7 17.5 36.4 28.8 61 28.8 44.16 0 80-35.84 80-80v-.467c0-4.387-.716-11.436-1.6-15.734.5 0 1 .2 1.6.2 52.992 0 96-43.007 96-96z"/><glyph glyph-name="cloud-showers-heavy-primary" unicode="" d="M512 224c0-52.992-43.008-96-96-96H96c-52.992 0-96 43.008-96 96 0 42.5 27.8 78.2 66.1 90.8-1.13 5.797-2.07 15.295-2.1 21.2 0 61.824 50.176 112 112 112 43.3 0 80.4-24.8 99-60.8 14.7 17.5 36.4 28.8 61 28.8 44.16 0 80-35.84 80-80l.001-.467c0-4.387-.717-11.435-1.6-15.733.5 0 1 .2 1.599.2 52.992 0 96-43.008 96-96z"/><glyph glyph-name="cloud-sleet-primary" unicode="" d="M416 128H96c-52.992 0-96 43.008-96 96 0 42.5 27.8 78.2 66.1 90.8-1.13 5.797-2.07 15.295-2.1 21.2v.06C64 397.85 114.15 448 175.94 448h.06c43.3 0 80.4-24.8 99-60.8 14.7 17.5 36.4 28.8 61 28.8 44.16 0 80-35.84 80-80v-.467c0-4.387-.716-11.436-1.6-15.734.5 0 1 .2 1.6.2 52.992 0 96-43.007 96-96s-43.008-96-96-96z"/><glyph glyph-name="cloud-snow-primary" unicode="" d="M0 224c0 42.5 27.8 78.2 66.1 90.8-1.13 5.797-2.07 15.295-2.1 21.2v.06C64 397.85 114.15 448 175.94 448h.06c43.3 0 80.4-24.8 99-60.8 14.7 17.5 36.4 28.8 61 28.8 44.16 0 80-35.84 80-80v-.467c0-4.387-.716-11.436-1.6-15.734.5 0 1 .2 1.6.2 52.992 0 96-43.007 96-96s-43.008-96-96-96H96c-52.993 0-96 43.008-96 96z"/><glyph glyph-name="cloud-sun-rain-primary" unicode="" horiz-adv-x="576" d="M576 144c0-44.16-35.84-80-80-80H240c-44.094.065-79.88 35.905-79.88 80 0 36.095 28.707 71.218 64.08 78.4 0 .5-.2 1.1-.2 1.6v.178c0 52.892 42.927 95.819 95.82 95.819 27.164 0 62.055-17.918 77.88-39.997 8.962 4.373 24.328 7.957 34.3 8 36.684-.08 71.852-29.424 78.5-65.5 36.156-6.582 65.5-41.75 65.5-78.5z"/><glyph glyph-name="clouds-primary" unicode="" horiz-adv-x="640" d="M640 32c0-52.992-43.008-96-96-96H224c-52.992 0-96 43.008-96 96 0 42.5 27.8 78.2 66.1 90.8-1.13 5.797-2.07 15.295-2.1 21.2v.06C192 205.85 242.15 256 303.94 256h.06c43.2 0 80.4-24.9 99-60.8 14.7 17.5 36.4 28.8 61 28.8 44.16 0 80-35.84 80-80v-.467c0-4.387-.716-11.436-1.6-15.734.5 0 1 .2 1.6.2 52.992 0 96-43.007 96-96z"/><glyph glyph-name="clouds-moon-primary" unicode="" horiz-adv-x="640" d="M448 128c52.992 0 96-43.008 96-96s-43.008-96-96-96H127.84c-52.992 0-96 43.008-96 96 0 42.1 27.31 77.5 65.16 90.4 5.26 56.9 52.58 101.6 110.96 101.6 43.18 0 80.39-24.9 99-60.8 13.192 15.898 40.662 28.8 61.32 28.8 36.032 0 71.03-28.671 78.122-63.998h1.6zM68 144.59c-5.004-2.72-12.732-7.741-17.25-11.21C22.736 144.385 0 177.743 0 207.84v.01c0 44.25 35.6 80.08 79.6 80.08h17.54c7.032 35.33 41.976 64.006 78 64.006s70.967-28.675 78-64.006h17.54c39.01 0 71.35-28.32 78.11-65.66-10.828-1.736-27.363-7.525-36.91-12.92-23.246 25.692-70.233 46.547-104.88 46.55-67.49 0-124.21-46.65-139-111.31z"/><glyph glyph-name="clouds-sun-primary" unicode="" horiz-adv-x="640" d="M512 128c52.992 0 96-43.008 96-96s-43.008-96-96-96H192c-52.992 0-96 43.008-96 96 0 42.1 27.3 77.5 65.1 90.4C166.4 179.3 213.7 224 272 224c43.2 0 80.4-24.9 99-60.8 14.7 17.5 36.4 28.8 61 28.8h.016c36.057 0 71.172-28.671 78.384-64h1.6zm48 160h.18c44.056 0 79.811-35.755 79.811-79.81 0-30.144-22.804-63.471-50.901-74.39-13.54 10.433-38.179 21.365-55 24.4-16.492 36.29-62.229 65.813-102.09 65.9-16.13-.011-40.59-6.507-54.6-14.5-17.027 18.647-50.891 38.046-75.59 43.3 13.095 19.375 42.703 35.1 66.09 35.1h17.74c7.2 35.345 42.319 64.031 78.39 64.031 36.07 0 71.19-28.686 78.39-64.031H560z"/><glyph glyph-name="democrat-primary" unicode="" horiz-adv-x="640" d="M637.29 191.14c1.492-2.245 2.703-6.257 2.703-8.952 0-4.733-3.178-10.73-7.093-13.388l-26.6-17.7c-2.23-1.492-6.217-2.704-8.9-2.704-4.72 0-10.677 3.182-13.3 7.104-21.8 32.7-23.9 38.1-40.1 50.3V128H192l-54 108-38.11-34.6c-5.162-5.182-15.287-9.393-22.6-9.4h-31c-10.904.02-23.718 7.95-28.6 17.7l-14.3 28.6C1.522 242.033.006 248.45.006 252.622c0 5.88 2.86 14.471 6.384 19.178l74.6 99.3c1.7 2.3 4.2 3.7 6.4 5.4-4 2.2-8 4.2-11.3 7.5-7.751 7.77-14.041 22.983-14.041 33.957 0 7.968 3.562 19.832 7.95 26.484 1.325 1.963 4.322 3.556 6.691 3.556 1.842 0 4.396-1.055 5.7-2.357l42.91-42.84 41.8 41.8c1.596 1.6 4.726 2.898 6.986 2.898 2.917 0 6.597-1.97 8.214-4.398 5.364-8.125 9.717-22.62 9.717-32.356 0-13.435-7.713-32.047-17.217-41.543L256 288h235.808c44.721 0 101.117-30.222 125.883-67.46zm-341.1 13.6c.834.813 1.51 2.417 1.51 3.581 0 2.302-1.837 4.505-4.1 4.919l-22.8 3.3-10.2 20.7c-.755 1.557-2.77 2.82-4.5 2.82s-3.746-1.263-4.5-2.82l-10.2-20.7-22.8-3.3c-2.363-.344-4.281-2.56-4.281-4.948 0-1.15.663-2.742 1.48-3.552l16.5-16.1-3.899-22.7a6.003 6.003 0 0 1-.072-.846c0-2.76 2.24-5 5-5 .663 0 1.68.245 2.271.545l20.4 10.7 20.39-10.7c.591-.3 1.61-.545 2.273-.545 2.76 0 5 2.24 5 5a6 6 0 0 1-.073.846l-3.899 22.7zm112 0c.834.813 1.51 2.417 1.51 3.581 0 2.302-1.837 4.505-4.1 4.919l-22.8 3.3-10.2 20.7c-.755 1.557-2.77 2.82-4.5 2.82s-3.746-1.263-4.5-2.82l-10.2-20.7-22.8-3.3c-2.363-.344-4.281-2.56-4.281-4.948 0-1.15.663-2.742 1.48-3.552l16.5-16.1-3.899-22.7a6.003 6.003 0 0 1-.072-.846c0-2.76 2.24-5 5-5 .663 0 1.68.245 2.271.545l20.4 10.7 20.39-10.7c.591-.3 1.61-.545 2.273-.545 2.76 0 5 2.24 5 5a6 6 0 0 1-.073.846l-3.899 22.7zm112 0c.834.813 1.51 2.417 1.51 3.581 0 2.302-1.837 4.505-4.1 4.919l-22.8 3.3-10.2 20.7c-.755 1.557-2.77 2.82-4.5 2.82s-3.746-1.263-4.5-2.82l-10.2-20.7-22.8-3.3c-2.363-.344-4.281-2.56-4.281-4.948 0-1.15.663-2.742 1.48-3.552l16.5-16.1-3.899-22.7a6.003 6.003 0 0 1-.072-.846c0-2.76 2.24-5 5-5 .663 0 1.68.245 2.271.545l20.4 10.7 20.39-10.7c.591-.3 1.61-.545 2.273-.545 2.76 0 5 2.24 5 5a6 6 0 0 1-.073.846l-3.899 22.7z"/><glyph glyph-name="dewpoint-primary" unicode="" d="M384 114.1C384 15.7 298.1-64 192-64S0 15.7 0 114.1c0 111.21 109.1 154.11 160.1 311.811 9.8 30.1 55.1 28.8 63.8 0 51.2-158.5 160.1-200 160.1-311.811z"/><glyph glyph-name="eclipse-primary" unicode="" horiz-adv-x="640" d="M640 192c0-97.152-78.848-176-176-176S288 94.848 288 192s78.848 176 176 176 176-78.848 176-176z"/><glyph glyph-name="eclipse-alt-primary" unicode="" d="M330.4 131.5C314.494 111.904 281.101 96 255.863 96c-52.992 0-96 43.008-96 96s43.008 96 96 96h.32c4.793 0 12.506-.717 17.217-1.6 2.013-.384 3.646-2.36 3.646-4.41 0-1.432-1.006-3.175-2.247-3.89-20.975-11.942-38-41.223-38-65.36v-.04c0-47.1 42.8-82.8 89.3-73.9.23.044.608.08.842.08 2.484 0 4.5-2.017 4.5-4.5 0-.9-.466-2.19-1.041-2.88z"/><glyph glyph-name="fire-smoke-primary" unicode="" horiz-adv-x="640" d="M640 48v-.06C640-13.85 589.85-64 528.06-64H112C50.176-64 0-13.824 0 48s50.176 112 112 112c37.1 0 69.7-18.3 90.1-46.1 18.238 43.147 71.058 78.165 117.9 78.165s99.662-35.018 117.9-78.164c20.4 27.8 53 46.1 90.1 46.1h.06C589.85 160 640 109.85 640 48.06V48z"/><glyph glyph-name="flag-alt-primary" unicode="" d="M64 416V-48c0-8.832-7.168-16-16-16H16C7.168-64 0-56.832 0-48v464c0 17.664 14.336 32 32 32s32-14.336 32-32z"/><glyph glyph-name="flag-usa-primary" unicode="" d="M32 448c17.664 0 32-14.336 32-32V-48c0-8.832-7.168-16-16-16H16C7.168-64 0-56.832 0-48v464c0 17.664 14.336 32 32 32zm64-32.4c100.3 45.31 149.32 33.63 192 18.82v-158c-51.71 12.68-108.17 20.42-192-12.75V415.6zm64-95.7c8.832 0 16 7.147 16 15.98v.02c0 8.832-7.168 16-16 16s-16-7.168-16-16 7.168-16 16-16zm0 55.79c8.832 0 16 7.147 16 15.98v.02c0 8.832-7.168 16-16 16s-16-7.168-16-16 7.168-16 16-16zm64-47.9c8.832 0 16 7.148 16 15.98v.02c0 8.832-7.168 16-16 16s-16-7.168-16-16 7.168-16 16-16zm0 55.9c8.832 0 16 7.147 16 15.98v.02c0 8.832-7.168 16-16 16s-16-7.168-16-16 7.168-16 16-16z"/><glyph glyph-name="fog-primary" unicode="" horiz-adv-x="640" d="M64 224c0 42.5 27.8 78.2 66.1 90.8-1.13 5.797-2.07 15.295-2.1 21.2v.06C128 397.85 178.15 448 239.94 448h.06c43.3 0 80.4-24.8 99-60.8 14.7 17.5 36.4 28.8 61 28.8 44.16 0 80-35.84 80-80v-.467c0-4.387-.716-11.436-1.6-15.734.5 0 1 .2 1.6.2 52.992 0 96-43.007 96-96s-43.008-96-96-96H160c-52.993 0-96 43.008-96 96z"/><glyph glyph-name="house-flood-primary" unicode="" horiz-adv-x="576" d="M562.2.12c8.04-.9 13.8-8.31 13.74-16.32v-31.63c0-9.11-7.6-16.81-16.7-16-23.484 2.084-58.93 13.656-79.12 25.83-55-34.13-135.521-34.63-192 0-55-34.13-135.521-34.63-192 0C72.81-52.51 45.51-61.42 16.7-63.92c-9.1-.8-16.7 6.9-16.7 16v32.22C0-7.79 5.7-.78 13.6.02c21.71 2.3 42.21 10.21 57.71 22.42 13.8 10.91 33.61 13.21 47.11 2 38.31-31.7 107.23-31.83 145.23-1.7 13.699 10.91 33.199 13 46.699 1.8 38.51-31.93 107.82-31.93 145.73-1.5 5.844 4.64 16.643 8.407 24.105 8.407s18.261-3.766 24.105-8.407c15.8-12.41 36.4-20.52 57.91-22.92zM22 203.95l-.06.05c-2.2 2.502-3.987 7.236-3.987 10.568 0 3.978 2.418 9.346 5.397 11.982l238.27 211.4c6.227 5.547 18.05 10.05 26.39 10.05 8.341 0 20.163-4.503 26.39-10.05l101.24-90v52c0 8.832 7.168 16 16 16h31.93c8.833 0 16-7.168 16-16V291.3l73-64.8v.05c2.959-2.65 5.36-8.027 5.36-11.998 0-3.34-1.783-8.088-3.98-10.602l-21.15-24c-2.636-2.977-8.002-5.392-11.977-5.392-3.334 0-8.07 1.788-10.573 3.992l-222.31 197.3L65.7 178.55l-.05-.05c-2.496-2.178-7.209-3.945-10.52-3.945-3.977 0-9.344 2.417-11.98 5.395z"/><glyph glyph-name="humidity-primary" unicode="" horiz-adv-x="384" d="M128 192c17.664 0 32-14.336 32-32s-14.336-32-32-32-32 14.336-32 32 14.336 32 32 32zm128-96c17.664 0 32-14.336 32-32s-14.336-32-32-32-32 14.336-32 32 14.336 32 32 32z"/><glyph glyph-name="hurricane-primary" unicode="" horiz-adv-x="384" d="M176 352c114.9 0 208-93.1 208-208 0-106.39-80-195.58-183.1-207.89a19.558 19.558 0 0 0-1.941-.117c-8.965 0-16.24 7.276-16.24 16.24 0 1.407.349 3.637.78 4.977L208 32C93.1 32 0 125.1 0 240c0 106.39 80 195.58 183.1 207.88.542.066 1.423.12 1.967.12 8.954 0 16.22-7.267 16.22-16.221 0-1.411-.351-3.646-.786-4.99zm16-256c52.992 0 96 43.008 96 96s-43.008 96-96 96-96-43.008-96-96 43.008-96 96-96z"/><glyph glyph-name="landmark-alt-primary" unicode="" d="M288 432v-18.9c74.147-12.573 144.527-82.954 157.1-157.1H464c8.832 0 16-7.168 16-16v-32c0-8.832-7.168-16-16-16H48c-8.832 0-16 7.168-16 16v32c0 8.832 7.168 16 16 16h18.9c12.573 74.146 82.954 144.527 157.1 157.1V432c0 8.832 7.169 16 16 16h32c8.833 0 16-7.168 16-16z"/><glyph glyph-name="meteor-primary" unicode="" d="M191.94 256c70.655 0 128-57.344 128-128S262.595 0 191.94 0c-70.656 0-128 57.344-128 128s57.344 128 128 128zm-32-128c17.663 0 32 14.336 32 32s-14.337 32-32 32c-17.664 0-32-14.336-32-32s14.336-32 32-32zm48-64c8.832 0 16 7.168 16 16s-7.168 16-16 16-16-7.168-16-16 7.168-16 16-16z"/><glyph glyph-name="moon-cloud-primary" unicode="" horiz-adv-x="576" d="M320 128c-.033-35.295-28.705-63.967-64-64H64C28.672 64 0 92.672 0 128s28.672 64 64 64c.6 0 1.1-.2 1.6-.2 7.045 35.438 42.088 64.2 78.22 64.2 40.543 0 76.15-32.793 79.48-73.2 8.394 5.078 23.17 9.199 32.98 9.199 35.174 0 63.721-28.546 63.721-63.72L320 128z"/><glyph glyph-name="moon-stars-primary" unicode="" d="M332.2 21.6c8.1 1.6 13.9-8 8.6-14.5C309.12-32.148 242.473-64 192.036-64h-.237C85.8-64 0 22 0 128c0 120 108.7 210.6 227 188.8 8.2-1.6 10.1-12.6 2.8-16.7-42.007-23.847-76.1-82.404-76.1-130.707v-.093c0-94 85.4-165.399 178.5-147.7z"/><glyph glyph-name="person-booth-primary" unicode="" horiz-adv-x="576" d="M288 448h192V32c0-17.664-14.336-32-32-32s-32 14.336-32 32v-.004c0-17.592-14.277-31.87-31.87-31.87-16.732 0-30.992 13.562-31.83 30.274C348 9.1 335.2 0 320 0c-18.4 0-35.7 16.7-31.4 38.3l30.9 154.6L288 416v32zm-64-224c17.664 0 32-14.336 32-32s-14.336-32-32-32h-57.593c-10.954 0-26.1 6.316-33.807 14.1L111.7 195v-80.6l41.2-61.3c3.699-7.453 6.7-20.252 6.7-28.572V-32c0-17.664-14.336-32-32-32s-32 14.336-32 32v56L66.5 67c-.9.4-1.6 1.2-2.5 1.7L63.9-32c.028-.493.05-1.294.05-1.788 0-17.664-14.336-32-32-32s-32 14.336-32 32c0 .494.023 1.295.05 1.788l.2 160-.2 95.9v.1c0 35.328 28.672 64 64 64h18.877c14.57 0 34.74-8.378 45.023-18.7l45.2-45.3H224z"/><glyph glyph-name="person-sign-primary" unicode="" d="M321 236l13 36 45.29-16.43L333.1 128.7c-2.108-5.828-8.849-10.558-15.046-10.558-1.552 0-3.995.43-5.454.958l-15 5.5c-5.829 2.108-10.558 8.848-10.558 15.047 0 1.551.429 3.995.958 5.453l11.2 30.8-46.1 15.4c-7.894 2.676-19.094 9.62-25 15.5l-20 20v-91.2l41.2-82.5c3.698-7.452 6.7-20.252 6.7-28.572V-32c0-17.664-14.336-32-32-32s-32 14.336-32 32v56.5L156.18 96h-15.3l-13.2-131.2c-1.617-15.855-15.863-28.758-31.8-28.8-1 0-2.1.1-3.2.2-15.873 1.618-28.757 15.88-28.757 31.836 0 .875.07 2.293.157 3.165L80 129.6v54.8l-19.42-38.7c-4.697-10.386-17.759-18.813-29.157-18.813-17.664 0-32 14.336-32 32 0 4.534 1.773 11.44 3.957 15.413L58.6 284.7c9.673 19.54 35.22 35.4 57.025 35.4h63.185c14.609 0 34.81-8.423 45.09-18.8l49.3-49.3zm108.68 205.5c5.828-2.107 10.559-8.849 10.559-15.046 0-1.552-.43-3.995-.958-5.454l-5.49-15-45.1 16.4 5.489 15c2.108 5.829 8.849 10.558 15.047 10.558 1.552 0 3.995-.429 5.453-.958z"/><glyph glyph-name="podium-star-primary" unicode="" horiz-adv-x="448" d="M400-16c8.832 0 16-7.168 16-16v-16c0-8.832-7.168-16-16-16H48c-8.832 0-16 7.168-16 16v16c0 8.832 7.168 16 16 16h352zm-92.63 143c-.263-1.84-1.548-4.394-2.87-5.7l-33-32.2 7.8-45.5c.075-.45.135-1.184.135-1.64 0-5.52-4.48-10-10-10-1.356 0-3.433.51-4.635 1.14L224 54.6l-40.8-21.5c-1.202-.63-3.28-1.14-4.636-1.14-5.52 0-10 4.48-10 10 0 .456.06 1.19.136 1.64l7.8 45.5-33 32.2c-1.692 1.629-3.065 4.855-3.065 7.204 0 4.776 3.837 9.21 8.565 9.896l45.6 6.73 20.4 41.4c1.524 3.058 5.533 5.54 8.95 5.54 3.416 0 7.426-2.482 8.95-5.54l20.4-41.4 45.6-6.7c4.737-.7 8.58-5.154 8.58-9.942 0-.413-.05-1.08-.11-1.488zM432 304c8.832 0 16-7.168 16-16v-16c0-8.832-7.168-16-16-16H16c-8.832 0-16 7.168-16 16v16c0 8.832 7.168 16 16 16h49c6.66 52.85 45.81 95.52 96.69 108 5.084 19.838 25.832 35.966 46.31 36h64c26.496 0 48-21.504 48-48s-21.504-48-48-48h-64.009c-10.716 0-25.638 6.07-33.311 13.55-31.15-7.25-54.8-31.26-61-61.55H432z"/><glyph glyph-name="poll-people-primary" unicode="" horiz-adv-x="640" d="M96 32c35.295-.033 63.967-28.705 64-64v-16c0-8.832-7.168-16-16-16H16C7.168-64 0-56.832 0-48v16C.033 3.295 28.705 31.967 64 32h32zm0 288c35.295-.033 63.967-28.705 64-64v-16c0-8.832-7.168-16-16-16H16c-8.832 0-16 7.168-16 16v16c.033 35.295 28.705 63.967 64 64h32zm32-208c0-26.496-21.504-48-48-48s-48 21.504-48 48 21.504 48 48 48 48-21.504 48-48zM80 352c-26.496 0-48 21.504-48 48s21.504 48 48 48 48-21.504 48-48-21.504-48-48-48zm144-247.88c.033 13.182 10.758 23.88 23.94 23.88H384V-32H247.88C234.698-31.967 224-21.242 224-8.06v112.18zM248 416h232V256H247.88c-13.182.033-23.88 10.758-23.88 23.94v112.18c.033 13.182 10.758 23.88 23.94 23.88h.06z"/><glyph glyph-name="poo-storm-primary" unicode="" horiz-adv-x="448" d="M374.4 223.3c41-3.3 73.6-37.5 73.5-79.3-.132-44.028-35.972-79.868-80-80h-30l8.1 14c3.254 5.636 5.894 15.492 5.894 22 0 24.285-19.709 43.997-43.994 44h-16l6.6 24.7c.814 3.066 1.475 8.128 1.475 11.3 0 24.275-19.701 43.987-43.975 44h-68c-21.218-.068-40.795-17.182-43.7-38.2l-16-120c.02-.248.038-.651.038-.9 0-.248-.018-.652-.039-.9H80C35.972 64.132.132 99.972 0 144c0 41.8 32.6 76 73.6 79.3-5.23 8.268-9.53 22.918-9.6 32.7.034 35.295 28.706 63.967 64 64h16.213c44.043 0 79.79 35.746 79.79 79.79 0 14.24-6.766 35.165-15.102 46.71 4.134.755 10.898 1.427 15.1 1.5 52.992 0 96-43.008 96-96-.087-9.116-2.73-23.452-5.9-32h5.9c35.294-.033 63.966-28.705 64-64-.07-9.782-4.37-24.432-9.6-32.7z"/><glyph glyph-name="rainbow-primary" unicode="" horiz-adv-x="576" d="M268.3 415.33C436 426.63 576 293.33 576 128V-16c0-8.832-7.168-16-16-16h-32c-8.832 0-16 7.168-16 16v136.23c0 113.77-81.6 215.399-194.5 229.869-136.6 17.6-253.5-88.9-253.5-222.1v-144c0-8.832-7.168-16-16-16H16c-8.832 0-16 7.168-16 16v133.83c0 153.3 115.4 287.3 268.3 297.5zm.6-193.2c5.191 1.047 13.703 1.897 19 1.897 53.007 0 96.06-43.02 96.1-96.027V-16c0-8.832-7.168-16-16-16h-32c-8.832 0-16 7.168-16 16v144c0 17.664-14.336 32-32 32s-32-14.336-32-32V-16c0-8.832-7.168-16-16-16h-32c-8.832 0-16 7.168-16 16v140.23c0 46.4 31.3 89 76.9 97.9z"/><glyph glyph-name="raindrops-primary" unicode="" horiz-adv-x="448" d="M341.2 304.8C375.4 195.901 448 167.3 448 90.401c0-67.6-57.2-122.4-128-122.4s-128 54.7-128 122.4c0 76.5 72.7 106 106.7 214.399 6.5 20.7 36.7 19.8 42.5 0z"/><glyph glyph-name="republican-primary" unicode="" horiz-adv-x="640" d="M384 416c88.32 0 160-71.68 160-160v-64H0v64c0 88.32 71.68 160 160 160h224zM176.3 277.6c.979.972 1.772 2.879 1.772 4.258 0 2.883-2.317 5.545-5.171 5.942l-27.4 4-12.201 24.8c-.92 1.813-3.316 3.284-5.35 3.284s-4.43-1.47-5.35-3.284l-12.2-24.8-27.4-4c-2.806-.432-5.085-3.09-5.085-5.93 0-1.384.8-3.297 1.785-4.27l19.8-19.3-4.7-27.3a7.206 7.206 0 0 1-.081-.983c0-3.313 2.688-6 6-6 .814 0 2.06.306 2.781.684L128 237.6l24.5-12.9c.722-.377 1.967-.683 2.781-.683 3.312 0 6 2.687 6 6 0 .273-.036.714-.08.983l-4.7 27.3zm144 0c.979.972 1.772 2.879 1.772 4.258 0 2.883-2.317 5.545-5.171 5.942l-27.4 4-12.201 24.8c-.92 1.813-3.316 3.284-5.35 3.284s-4.43-1.47-5.35-3.284l-12.2-24.8-27.4-4c-2.806-.432-5.085-3.09-5.085-5.93 0-1.384.8-3.297 1.785-4.27l19.8-19.3-4.7-27.3a7.206 7.206 0 0 1-.081-.983c0-3.313 2.688-6 6-6 .814 0 2.06.306 2.781.684L272 237.6l24.5-12.9c.722-.377 1.967-.683 2.781-.683 3.312 0 6 2.687 6 6 0 .273-.036.714-.08.983l-4.7 27.3zm144 0c.979.972 1.772 2.879 1.772 4.258 0 2.883-2.317 5.545-5.171 5.942l-27.4 4-12.201 24.8c-.92 1.813-3.316 3.284-5.35 3.284s-4.43-1.47-5.35-3.284l-12.2-24.8-27.4-4c-2.806-.432-5.085-3.09-5.085-5.93 0-1.384.8-3.297 1.785-4.27l19.8-19.3-4.7-27.3a7.206 7.206 0 0 1-.081-.983c0-3.313 2.688-6 6-6 .814 0 2.06.306 2.781.684L416 237.6l24.5-12.9c.722-.377 1.967-.683 2.781-.683 3.312 0 6 2.687 6 6 0 .273-.036.714-.08.983l-4.7 27.3z"/><glyph glyph-name="smog-primary" unicode="" horiz-adv-x="640" d="M0 304v.275c0 79.34 64.39 143.73 143.729 143.73 34.093 0 80.806-20.073 104.271-44.805 23.38 24.722 69.973 44.793 104 44.8 54.8 0 102-31 126.3-76.1 12.923 6.601 35.188 12.022 49.7 12.1 61.824 0 112-50.176 112-112s-50.176-112-112-112h-60.1c-22.6-19.7-51.6-32-83.9-32s-61.4 12.3-83.9 32H144C64.512 160 0 224.51 0 304z"/><glyph glyph-name="smoke-primary" unicode="" horiz-adv-x="640" d="M640 48v-.06C640-13.85 589.85-64 528.06-64H143.62C64.133-64-.38.511-.38 80s64.512 144 144 144c34.116 0 80.878-20.07 104.38-44.8 23.381 24.723 69.973 44.794 104 44.8 54.8 0 102-31 126.3-76.1 12.923 6.602 35.189 12.023 49.7 12.1h.06C589.851 160 640 109.851 640 48.06V48z"/><glyph glyph-name="snow-blowing-primary" unicode="" horiz-adv-x="640" d="M291.93 123.9l-11.71-3.1c-.854-.23-2.268-.417-3.153-.417-5.153 0-10.414 4.04-11.746 9.017l-14.9 55.6L200 214.1v-56.9l40.4-40.2c1.948-1.942 3.529-5.75 3.529-8.5s-1.581-6.559-3.53-8.5l-8.5-8.5c-1.942-1.949-5.75-3.53-8.5-3.53s-6.558 1.581-8.5 3.53l-14.8 14.8V76c0-6.624-5.376-12-12-12h-24c-6.624 0-12 5.376-12 12v30.3l-14.8-14.8c-1.941-1.949-5.749-3.53-8.5-3.53-2.75 0-6.559 1.581-8.5 3.53l-8.5 8.5c-1.948 1.941-3.53 5.749-3.53 8.5s1.582 6.558 3.53 8.5l40.2 40.2v56.9L101.58 185l-14.9-55.6c-1.352-4.97-6.63-9.005-11.781-9.005-.875 0-2.273.18-3.118.404L60.07 123.9c-4.971 1.352-9.005 6.63-9.005 11.781 0 .875.18 2.273.404 3.118L57 159.2l-26.6-15.3c-1.564-.913-4.302-1.653-6.112-1.653-3.86 0-8.563 2.712-10.498 6.052l-12.1 21c-.911 1.563-1.652 4.3-1.652 6.109 0 3.86 2.711 8.56 6.052 10.492l26.51 15.4-20.41 5.5c-4.97 1.352-9.004 6.63-9.004 11.782 0 .875.18 2.271.404 3.118l3.1 11.7c1.352 4.97 6.63 9.005 11.782 9.005.875 0 2.272-.182 3.118-.405l55.72-15 50.21 29-50.24 29-55.62-14.9c-.855-.23-2.268-.417-3.153-.417-5.152 0-10.415 4.04-11.747 9.017l-3.1 11.7c-.229.854-.416 2.268-.416 3.153 0 5.152 4.04 10.414 9.016 11.746l20.41 5.5-26.61 15.3c-3.34 1.933-6.052 6.633-6.052 10.492 0 1.809.74 4.546 1.652 6.109l12.1 21c1.935 3.34 6.638 6.052 10.498 6.052 1.81 0 4.549-.74 6.112-1.653l26.5-15.3-5.5 20.4c-.228.854-.414 2.263-.414 3.146 0 5.165 4.052 10.431 9.044 11.754l11.71 3.2c.856.23 2.268.416 3.154.416 5.152 0 10.415-4.039 11.747-9.015l15-55.7L152 297.9v56.9L111.69 395c-1.949 1.941-3.53 5.749-3.53 8.5s1.581 6.558 3.53 8.5l8.5 8.5c1.941 1.948 5.749 3.529 8.5 3.529 2.75 0 6.557-1.581 8.5-3.53L152 405.7V436c0 6.625 5.375 12 12 12h24c6.623 0 12-5.375 12-12v-30.3l14.7 14.8c1.94 1.949 5.748 3.53 8.5 3.53 2.75 0 6.558-1.581 8.5-3.53l8.5-8.5c1.948-1.94 3.529-5.748 3.529-8.5s-1.581-6.558-3.53-8.5L200 354.8v-56.9l50.42 29.1 14.9 55.6c1.352 4.97 6.63 9.004 11.782 9.004.875 0 2.272-.18 3.118-.404l11.71-3.1c4.97-1.352 9.005-6.63 9.005-11.782 0-.875-.18-2.273-.405-3.118L295 352.8l26.6 15.3c1.564.912 4.303 1.653 6.112 1.653 3.861 0 8.564-2.712 10.498-6.053l12.1-21c.912-1.563 1.652-4.3 1.652-6.109 0-3.859-2.71-8.56-6.052-10.492l-26.61-15.3 20.41-5.5c4.97-1.351 9.005-6.63 9.005-11.78 0-.877-.182-2.273-.405-3.119l-3.1-11.7c-1.352-4.97-6.63-9.005-11.782-9.005-.875 0-2.272.182-3.118.404L274.72 285l-50.21-29 50.21-29 55.62 14.901c.856.23 2.269.416 3.153.416 5.153 0 10.415-4.04 11.747-9.017l3.1-11.7c.23-.854.416-2.267.416-3.153 0-5.151-4.039-10.414-9.016-11.746l-20.41-5.5 26.61-15.3c3.34-1.933 6.052-6.633 6.052-10.492 0-1.809-.74-4.546-1.652-6.109l-12.1-21c-1.934-3.34-6.637-6.052-10.498-6.052-1.81 0-4.548.74-6.112 1.653L295 159.2l5.5-20.4c.24-.87.434-2.308.434-3.21 0-5.141-4.033-10.378-9.004-11.69z"/><glyph glyph-name="stars-primary" unicode="" d="M377.09 141.5l-75.9-74 17.9-104.6a27.77 27.77 0 0 0 .315-3.797c0-12.695-10.303-23-23-23-3.104 0-7.86 1.163-10.615 2.597L192-11.9 98.2-61.3C81.6-70.2 61.7-56 64.9-37.1l18 104.6-75.9 74C-6.7 154.8.9 178 19.7 180.7L124.49 196l46.9 95.2c8.5 17.2 32.8 17 41.2 0l46.9-95.2 104.8-15.3c18.8-2.7 26.4-25.9 12.8-39.2z"/><glyph glyph-name="sun-cloud-primary" unicode="" horiz-adv-x="640" d="M640 160c-.033-35.295-28.705-63.967-64-64H384c-35.328 0-64 28.672-64 64s28.672 64 64 64c.6 0 1.1-.2 1.6-.2 7.045 35.438 42.088 64.2 78.22 64.2 40.543 0 76.15-32.793 79.48-73.2 8.394 5.078 23.17 9.199 32.98 9.199 35.174 0 63.721-28.546 63.721-63.72L640 160z"/><glyph glyph-name="sun-dust-primary" unicode="" d="M160 0c17.664 0 32-14.336 32-32s-14.336-32-32-32-32 14.336-32 32 14.336 32 32 32zm320 256c-17.664 0-32 14.336-32 32s14.336 32 32 32 32-14.336 32-32-14.336-32-32-32zm-96-96c0-17.664-14.336-32-32-32s-32 14.336-32 32 14.336 32 32 32 32-14.336 32-32zM240 96c17.664 0 32-14.336 32-32s-14.336-32-32-32-32 14.336-32 32 14.336 32 32 32zm160 0c17.664 0 32-14.336 32-32s-14.336-32-32-32-32 14.336-32 32 14.336 32 32 32zm80-96c17.664 0 32-14.336 32-32s-14.336-32-32-32-32 14.336-32 32 14.336 32 32 32zm0 192c17.664 0 32-14.336 32-32s-14.336-32-32-32-32 14.336-32 32 14.336 32 32 32zM320 0c17.664 0 32-14.336 32-32s-14.336-32-32-32-32 14.336-32 32 14.336 32 32 32z"/><glyph glyph-name="sun-haze-primary" unicode="" horiz-adv-x="640" d="M80 112c-8.832 0-16 7.168-16 16v16c0 8.832 7.168 16 16 16h336c8.832 0 16-7.168 16-16v-16c0-8.832-7.168-16-16-16H80zm544 48c8.832 0 16-7.168 16-16v-16c0-8.832-7.168-16-16-16H496c-8.832 0-16 7.168-16 16v16c0 8.832 7.168 16 16 16h128zM208-16c8.832 0 16-7.168 16-16v-16c0-8.832-7.168-16-16-16H80c-8.832 0-16 7.168-16 16v16c0 8.832 7.168 16 16 16h128zm416 0c8.832 0 16-7.168 16-16v-16c0-8.832-7.168-16-16-16H288c-8.832 0-16 7.168-16 16v16c0 8.832 7.168 16 16 16h336zm-48 56c0-8.832-7.168-16-16-16H16C7.168 24 0 31.168 0 40v16c0 8.832 7.168 16 16 16h544c8.832 0 16-7.168 16-16V40z"/><glyph glyph-name="sunrise-primary" unicode="" horiz-adv-x="576" d="M560-16c8.832 0 16-7.168 16-16v-16c0-8.832-7.168-16-16-16H16C7.168-64 0-56.832 0-48v16c0 8.832 7.168 16 16 16h544zM190.8 320c-14.2 0-21.4 17.35-11.2 27.3L276 443c2.746 2.737 8.122 4.958 12 4.958s9.254-2.22 12-4.958l96.4-95.6c10.2-10.1 3.1-27.4-11.2-27.4H320v-80c0-8.832-7.168-16-16-16h-32c-8.832 0-16 7.168-16 16v80h-65.2z"/><glyph glyph-name="sunset-primary" unicode="" horiz-adv-x="576" d="M560-16c8.832 0 16-7.168 16-16v-16c0-8.832-7.168-16-16-16H16C7.168-64 0-56.832 0-48v16c0 8.832 7.168 16 16 16h544zM276 229l-96.4 95.6c-10.2 10.1-3.1 27.4 11.2 27.4H256v80c0 8.832 7.168 16 16 16h32c8.832 0 16-7.168 16-16v-79.9h65.1c14.3 0 21.4-17.3 11.3-27.4L300 229c-2.746-2.737-8.122-4.958-12-4.958s-9.254 2.22-12 4.958z"/><glyph glyph-name="temperature-frigid-primary" unicode="" horiz-adv-x="576" d="M200.06 322.8v-56.9l88 50.8v-56.1l-63.4-36.6 63.44-36.7v-7.2c-6.684-9.695-15.51-26.494-19.7-37.5l-68.3 39.5v-56.9L240.5 85c1.949-1.941 3.53-5.749 3.53-8.5s-1.581-6.558-3.53-8.5l-8.5-8.5c-1.94-1.948-5.749-3.53-8.5-3.53s-6.558 1.582-8.5 3.53l-14.84 14.8V44c0-6.624-5.375-12-12-12h-24c-6.623 0-12 5.376-12 12v30.3l-14.8-14.8c-1.94-1.948-5.75-3.53-8.5-3.53s-6.558 1.582-8.5 3.53l-8.5 8.5c-1.947 1.942-3.53 5.75-3.53 8.5s1.583 6.559 3.53 8.5l40.2 40.2v56.9l-50.4-29.1-14.9-55.6c-1.351-4.97-6.63-9.004-11.78-9.004-.876 0-2.273.18-3.12.404l-11.7 3.1c-4.97 1.352-9.004 6.63-9.004 11.782 0 .875.182 2.272.404 3.118l5.5 20.4-26.6-15.3c-1.562-.912-4.298-1.652-6.108-1.652-3.86 0-8.56 2.711-10.491 6.052l-12.1 21c-.912 1.562-1.652 4.3-1.652 6.108 0 3.86 2.71 8.56 6.052 10.493l26.5 15.399-20.4 5.5c-4.971 1.353-9.006 6.63-9.006 11.782 0 .875.182 2.272.406 3.118l3.1 11.7c1.352 4.971 6.63 9.005 11.782 9.005.875 0 2.271-.181 3.118-.405l55.7-15 50.2 29-50.2 29-55.66-14.9c-.856-.23-2.269-.416-3.154-.416-5.152 0-10.415 4.04-11.747 9.016l-3.1 11.7c-.229.855-.415 2.268-.415 3.154 0 5.151 4.039 10.414 9.015 11.746l20.4 5.5-26.6 15.3c-3.34 1.932-6.052 6.633-6.052 10.492 0 1.809.74 4.546 1.653 6.108l12.1 21c1.932 3.341 6.632 6.052 10.491 6.052 1.81 0 4.545-.74 6.109-1.652L57 320.8l-5.54 20.4c-.23.856-.417 2.268-.417 3.154 0 5.152 4.04 10.414 9.016 11.746l11.7 3.2c.856.23 2.269.416 3.154.416 5.152 0 10.415-4.039 11.747-9.016l15-55.7L152 265.9v56.9L111.76 363c-1.949 1.942-3.53 5.75-3.53 8.5s1.581 6.559 3.53 8.5l8.5 8.5c1.94 1.948 5.75 3.53 8.5 3.53s6.558-1.582 8.5-3.53l14.799-14.8V404c0 6.624 5.376 12 12 12h24c6.624 0 12-5.376 12-12v-30.3l14.7 14.8c1.942 1.948 5.75 3.53 8.5 3.53 2.751 0 6.559-1.582 8.5-3.53l8.5-8.5c1.948-1.941 3.53-5.749 3.53-8.5s-1.582-6.558-3.53-8.5zm248-197.7c17.664-6.245 32-26.519 32-45.255 0-26.495-21.504-48-48-48-26.495 0-48 21.505-48 48 0 18.736 14.337 39.01 32 45.255V144c0 8.832 7.168 16 16 16s16-7.168 16-16v-18.9z"/><glyph glyph-name="temperature-high-primary" unicode="" d="M416 448c52.91-.082 95.918-43.09 96-96 0-52.992-43.008-96-96-96s-96 43.008-96 96 43.008 96 96 96zm0-128c17.664 0 32 14.336 32 32s-14.336 32-32 32-32-14.336-32-32 14.336-32 32-32zM160 125.1c17.664-6.245 32-26.519 32-45.255 0-26.495-21.504-48-48-48s-48 21.505-48 48c0 18.736 14.336 39.01 32 45.255V336c0 8.832 7.168 16 16 16s16-7.168 16-16V125.1z"/><glyph glyph-name="temperature-hot-primary" unicode="" horiz-adv-x="640" d="M160 224c0 35.3 28.7 64 64 64s64-28.7 64-64-28.7-64-64-64-64 28.7-64 64zm77.6 215.6l41.4-82.8 81.9 27.3c-5.4-15.1-8.9-31.2-8.9-48.1V180.1c-20.8-29.199-32-64.1-32.1-100 0-.899.1-1.699.1-2.5l-41.1 13.7-41.4-82.899c-1.4-2.9-3.8-5.3-6.8-6.8-7.5-3.7-16.6-.7-20.3 6.8l-41.4 82.8-87.9-29.3c-3.1-1-6.5-1-9.6 0-8 2.7-12.3 11.3-9.6 19.2L91.2 169 8.4 210.5c-2.9 1.4-5.3 3.8-6.8 6.8-3.7 7.5-.7 16.6 6.8 20.3L91.2 279l-29.3 87.9c-1 3-1 6.3 0 9.4 2.6 8 11.2 12.4 19.2 9.8l87.9-29.3 41.4 82.8c1.5 2.9 3.9 5.3 6.8 6.8 7.5 3.8 16.6.7 20.4-6.8zm54.3-283.5c37.5 37.5 37.5 98.3 0 135.801s-98.3 37.5-135.801 0c-37.4-37.4-37.5-98.4 0-135.801 37.5-37.4 98.3-37.4 135.801 0zm220.1-31c13.7-4.8 24.4-15.6 29.3-29.3 8.8-25-4.3-52.5-29.3-61.3s-52.5 4.3-61.3 29.3 4.3 52.5 29.3 61.3V336c0 8.8 7.2 16 16 16s16-7.2 16-16V125.1z"/><glyph glyph-name="temperature-low-primary" unicode="" d="M416 448c52.91-.082 95.918-43.09 96-96 0-52.992-43.008-96-96-96s-96 43.008-96 96 43.008 96 96 96zm0-128c17.664 0 32 14.336 32 32s-14.336 32-32 32-32-14.336-32-32 14.336-32 32-32zM160 125.1c17.664-6.245 32-26.519 32-45.255 0-26.495-21.504-48-48-48s-48 21.505-48 48c0 18.736 14.336 39.01 32 45.255V144c0 8.832 7.168 16 16 16s16-7.168 16-16v-18.9z"/><glyph glyph-name="thunderstorm-primary" unicode="" d="M512 224c0-52.992-43.008-96-96-96h-30c1.053 3.573 1.907 9.495 1.907 13.22 0 25.823-20.958 46.78-46.78 46.78H310.5l10.9 40.9c.874 3.283 1.584 8.704 1.584 12.1 0 25.936-21.048 46.991-46.984 47h-85c-22.689-.037-43.565-18.315-46.6-40.8L128.5 128H96c-52.992 0-96 43.008-96 96 0 42.5 27.8 78.2 66.1 90.8-1.13 5.797-2.07 15.295-2.1 21.2v.06C64 397.85 114.15 448 175.94 448h.06c43.3 0 80.4-24.8 99-60.8 14.7 17.5 36.4 28.8 61 28.8 44.16 0 80-35.84 80-80v-.467c0-4.387-.716-11.436-1.6-15.733.5 0 1 .2 1.6.2 52.992 0 96-43.008 96-96z"/><glyph glyph-name="thunderstorm-moon-primary" unicode="" horiz-adv-x="576" d="M350.58 222.5c36.126-6.648 65.446-41.857 65.446-78.59 0-44.11-35.8-79.91-79.91-79.91H306l8.11 14c3.254 5.636 5.895 15.492 5.895 22 0 24.288-19.712 44-44 44H260l6.6 24.7c.815 3.066 1.476 8.128 1.476 11.3 0 24.288-19.712 44-44 44H156c-21.223-.063-40.805-17.178-43.71-38.2l-16-120c.02-.248.037-.652.037-.9 0-.249-.017-.652-.037-.9H80C35.906 64.065.119 99.905.119 144c0 36.095 28.708 71.218 64.081 78.4 0 .5-.2 1.1-.2 1.6v.14c0 52.909 42.94 95.85 95.85 95.85 27.164 0 62.06-17.916 77.89-39.99 8.964 4.374 24.335 7.958 34.31 8 36.688-.075 71.86-29.42 78.51-65.5h.02z"/><glyph glyph-name="thunderstorm-sun-primary" unicode="" horiz-adv-x="576" d="M510.58 222.5c36.126-6.648 65.446-41.857 65.446-78.59 0-44.11-35.8-79.91-79.91-79.91H466l8.11 14c3.254 5.636 5.895 15.492 5.895 22 0 24.288-19.712 44-44 44H420l6.6 24.7c.815 3.066 1.476 8.128 1.476 11.3 0 24.288-19.712 44-44 44H316c-21.223-.063-40.805-17.178-43.71-38.2l-16-120c.02-.248.037-.652.037-.9 0-.249-.017-.652-.037-.9H240c-44.094.065-79.881 35.905-79.881 80 0 36.095 28.708 71.218 64.081 78.4 0 .5-.2 1.1-.2 1.6v.14c0 52.909 42.94 95.85 95.85 95.85 27.164 0 62.06-17.916 77.89-39.99 8.964 4.374 24.335 7.958 34.31 8 36.688-.075 71.86-29.42 78.51-65.5h.02z"/><glyph glyph-name="tornado-primary" unicode="" d="M429.26 422.8c-7.19-10.21-17.493-27.592-23-38.8H5.111C2.788 397.012.499 418.292.001 431.5a17.07 17.07 0 0 0-.003.32c0 8.895 7.218 16.143 16.113 16.18h400.25c12.9 0 20.3-14.6 12.9-25.2zm.7-188.1c27.07-28.4 60.04-53.2 74.51-85.3H235.08c-49.12 21.7-105.01 44.9-150.12 85.3h345zM331.85-41.1c5.344 10.95 12.333 29.363 15.6 41.1h104.32c-14.737-16.216-40.008-41.17-56.41-55.7-5.123-4.558-14.843-8.276-21.7-8.3h-27.41c-8.812.02-15.964 7.187-15.964 16 0 2.002.7 5.094 1.564 6.9z"/><glyph glyph-name="volcano-primary" unicode="" d="M480-64H32.1C5.7-64-9.4-33.9 6.5-12.8l100.1 127.7 8.4-10.6c22-27.5 68-27.5 90.1 0 4.158 5.209 12.939 9.554 19.601 9.7h.4c6.523-.01 15.26-4.043 19.5-9l31.6-36.8c9.518-11.15 29.14-20.198 43.8-20.198s34.282 9.049 43.8 20.198l40.9 47.7 100.8-128.7c15.9-21.13.8-51.2-25.5-51.2z"/><glyph glyph-name="vote-nay-primary" unicode="" horiz-adv-x="640" d="M286.1 240l-51 50.9c-2.565 2.591-4.647 7.654-4.647 11.3s2.082 8.71 4.647 11.3l11.3 11.3c2.592 2.565 7.654 4.648 11.3 4.648s8.71-2.083 11.3-4.648l50.9-50.9 50.9 50.9c2.592 2.565 7.654 4.648 11.3 4.648s8.709-2.083 11.3-4.648l11.3-11.3c2.566-2.59 4.648-7.653 4.648-11.3s-2.082-8.709-4.647-11.3L353.9 240l50.9-50.9c2.565-2.591 4.648-7.654 4.648-11.3s-2.083-8.71-4.649-11.3l-11.3-11.3c-2.59-2.565-7.653-4.648-11.3-4.648s-8.708 2.083-11.3 4.648L320 206.1l-50.9-50.9c-2.59-2.565-7.653-4.648-11.3-4.648s-8.709 2.083-11.3 4.648l-11.3 11.3c-2.565 2.59-4.648 7.653-4.648 11.3s2.083 8.709 4.649 11.3zM608 128c17.664 0 32-14.336 32-32V0c0-17.664-14.336-32-32-32H32C14.336-32 0-17.664 0 0v96c0 17.664 14.336 32 32 32h64V64H73.6c-5.3 0-9.6-3.6-9.6-8V40c0-4.4 4.3-8 9.6-8h492.8c5.3 0 9.6 3.6 9.6 8v16c0 4.4-4.3 8-9.6 8H544v64h64z"/><glyph glyph-name="vote-yea-primary" unicode="" horiz-adv-x="640" d="M285.3 156.1l-74.1 74.7c-1.76 1.729-3.189 5.133-3.189 7.6 0 2.468 1.429 5.872 3.19 7.6l25.5 25.3c1.723 1.734 5.106 3.14 7.55 3.14 2.49 0 5.917-1.451 7.65-3.24l41.3-41.6 95.2 94.4c1.723 1.734 5.106 3.14 7.55 3.14 2.49 0 5.916-1.451 7.649-3.24l25.3-25.5c1.733-1.724 3.14-5.107 3.14-7.551 0-2.49-1.452-5.916-3.24-7.648L300.5 156c-1.724-1.734-5.106-3.14-7.55-3.14-2.491 0-5.918 1.451-7.65 3.24zM608 128c17.664 0 32-14.336 32-32V0c0-17.664-14.336-32-32-32H32C14.336-32 0-17.664 0 0v96c0 17.664 14.336 32 32 32h64V64H73.6c-5.3 0-9.6-3.6-9.6-8V40c0-4.4 4.3-8 9.6-8h492.8c5.3 0 9.6 3.6 9.6 8v16c0 4.4-4.3 8-9.6 8H544v64h64z"/><glyph glyph-name="water-primary" unicode="" horiz-adv-x="576" d="M562.2 64.07c8.1-.9 13.9-8.3 13.74-16.3V16.16c0-9.1-7.6-16.8-16.7-16-23.481 2.08-58.927 13.639-79.12 25.8-55-34.1-135.49-34.61-192 0-55-34.1-135.49-34.61-192 0C72.81 11.46 45.51 2.56 16.7.06 7.6-.74 0 6.96 0 16.06v32.21c0 7.9 5.7 14.9 13.6 15.7 21.71 2.3 42.21 10.2 57.71 22.41 13.8 10.9 33.61 13.2 47.11 2 38.31-31.7 107.23-31.81 145.23-1.7 13.699 10.9 33.199 13 46.699 1.8 38.51-31.91 107.82-31.91 145.73-1.5 5.845 4.636 16.645 8.399 24.105 8.399 7.46 0 18.26-3.763 24.105-8.399 15.8-12.41 36.4-20.51 57.91-22.91zm0 144c8.1-.9 13.9-8.27 13.74-16.27v-31.6c0-9.1-7.6-16.8-16.7-16-23.483 2.077-58.929 13.64-79.12 25.81-55-34.11-135.49-34.61-192 0-55-34.11-135.49-34.61-192 0C72.81 155.5 45.51 146.6 16.7 144.1c-9.1-.81-16.7 6.89-16.7 16v32.2c0 7.9 5.7 14.91 13.6 15.67 21.71 2.3 42.21 10.2 57.71 22.4 13.8 10.9 33.61 13.21 47.11 2 38.31-31.7 107.23-31.81 145.23-1.7 13.699 10.9 33.199 13.01 46.699 1.8 38.51-31.91 107.82-31.91 145.73-1.5 5.845 4.636 16.645 8.399 24.105 8.399 7.46 0 18.26-3.763 24.105-8.4 15.8-12.399 36.4-20.5 57.91-22.899z"/><glyph glyph-name="water-lower-primary" unicode="" horiz-adv-x="576" d="M396.27 324.67L300 228.95c-2.746-2.737-8.122-4.959-12-4.959s-9.253 2.222-12 4.96l-96.2 95.62C169.62 334.67 176.71 352 191 352h65.1v80c0 8.831 7.168 16 16 16H304c8.833 0 16-7.169 16-16v-79.92h65c14.26 0 21.35-17.311 11.27-27.411z"/><glyph glyph-name="water-rise-primary" unicode="" horiz-adv-x="576" d="M385.19 320H320v-80c0-8.832-7.168-16-16-16h-32c-8.832 0-16 7.168-16 16v80h-65.2c-14.2 0-21.4 17.31-11.2 27.31L276 443c2.746 2.737 8.122 4.958 12 4.958s9.254-2.22 12-4.958l96.4-95.62c10.19-10.05 3.09-27.38-11.21-27.38z"/><glyph glyph-name="wind-warning-primary" unicode="" horiz-adv-x="640" d="M540.17 128c46.4 0 89-31.3 97.89-76.9 1.06-5.218 1.919-13.775 1.919-19.1 0-53-43.014-96.014-96.014-96.014-43.322 0-85.477 34.457-94.095 76.914-.16.831-.29 2.194-.29 3.04 0 8.827 7.163 16.022 15.99 16.06h32.8c6.6 0 13.1-3.8 15.2-10.1C517.407 9.432 531.11-.687 544.154-.687c17.664 0 32 14.335 32 32 0 1.696-.261 4.422-.584 6.087-2.6 15.7-17.5 26.6-33.4 26.6H308.89c-.45.043-1.166.177-1.6.3 22.568 13.597 53.166 42.134 68.3 63.7h164.58zm95.1 158.5C655.77 220.7 606.77 160 544 160H394c8.026 16.854 16.707 45.525 19.38 64h128.8c16 0 30.801 10.9 33.4 26.6.323 1.665.585 4.391.585 6.087 0 17.665-14.336 32-32 32-13.045 0-26.747-10.119-30.584-22.587-2.1-6.3-8.5-10.1-15.2-10.1h-32.8c-9.9 0-17.7 9.1-15.7 18.9 10.69 53.3 65.6 90.8 124.69 72.4 25.403-8.145 52.596-35.383 60.699-60.8zM192 192c17.664 0 32-14.336 32-32s-14.336-32-32-32-32 14.336-32 32 14.336 32 32 32zm22.3 192c8.821-.01 15.98-7.179 15.98-16 0-.442-.036-1.16-.08-1.6l-12.8-128c-.797-7.94-7.921-14.39-15.9-14.4h-19c-7.978.01-15.102 6.46-15.9 14.4l-12.8 128a19.43 19.43 0 0 0-.08 1.6c0 8.821 7.16 15.99 15.98 16h44.6z"/><glyph glyph-name="windsock-primary" unicode="" d="M112 46.9v274.2l80-11.4V58.3zm144 20.5v233.2l96-13.7V81.1zM498.3 266c7.541-1.15 13.679-8.272 13.7-15.9V117.873c0-7.637-6.137-14.704-13.7-15.773L416 90.3v187.4z"/><glyph glyph-name="bolt-secondary" unicode="􏃧" horiz-adv-x="320" d="M224 423.81c-.007-1.684-.36-4.371-.79-6L180.61 288l-37.9-128H24c-13.248 0-24 10.752-24 24v.002c0 .887.094 2.32.21 3.198l32 240c1.545 11.482 12.2 20.8 23.786 20.8H200c13.248-.05 24-10.842 24-24.09v-.1z"/><glyph glyph-name="sun-secondary" unicode="􏆅" d="M502.42 207.5c5.288-2.644 9.581-9.588 9.581-15.501 0-5.998-4.382-12.986-9.781-15.599l-94.7-47.3 33.5-100.4c4.6-13.5-8.3-26.4-21.9-21.9l-100.4 33.5-47.31-94.7c-2.635-5.3-9.58-9.604-15.5-9.604s-12.864 4.303-15.5 9.604l-47.3 94.7L92.7 6.8c-13.5-4.6-26.4 8.3-21.9 21.9l33.5 100.5-94.7 47.3c-5.3 2.636-9.603 9.58-9.603 15.5s4.302 12.865 9.603 15.5l94.7 47.4-33.5 100.4c-4.6 13.5 8.3 26.4 21.9 21.9l100.51-33.5 47.3 94.7c2.636 5.301 9.58 9.604 15.5 9.604 5.922 0 12.865-4.303 15.5-9.604l47.41-94.8 100.4 33.5c13.5 4.6 26.4-8.3 21.9-21.9l-33.5-100.4zm-155.9-106c20.66 20.706 37.428 61.25 37.428 90.5s-16.768 69.794-37.428 90.5c-49.9 49.9-131.1 49.9-181 0-20.66-20.706-37.427-61.25-37.427-90.5s16.768-69.794 37.427-90.5c49.89-49.9 131.091-49.9 181 0z"/><glyph glyph-name="snowflake-secondary" unicode="􏋜" horiz-adv-x="448" d="M138.08 6.34l.16.16 53.66 53.66-.06-67.86-19.7-19.7c-2.591-2.566-7.654-4.648-11.3-4.648s-8.71 2.082-11.3 4.648l-11.3 11.3c-2.61 2.573-4.727 7.635-4.727 11.3 0 3.591 2.046 8.582 4.567 11.14zM91.37 364.1c1.07.282 2.836.51 3.942.51 6.528 0 13.215-5.11 14.928-11.41l19-70.74-56.67 32.74-7 26c-.287 1.08-.52 2.86-.52 3.977 0 6.531 5.116 13.217 11.42 14.923zM65.45 42.7l7 26 56.69 32.73-19-70.73c-1.711-6.302-8.4-11.416-14.929-11.416-1.112 0-2.887.232-3.96.516l-14.901 4c-6.304 1.707-11.42 8.392-11.42 14.923 0 1.117.233 2.898.52 3.977zm355 167.2l-70.7 18.97 56.7 32.73 26-7c6.303-1.71 11.418-8.4 11.418-14.93 0-1.115-.232-2.893-.519-3.97l-4-14.9c-1.713-6.302-8.406-11.417-14.936-11.417-1.112 0-2.888.232-3.963.517zM8.67 220.8l-4 14.9c-.291 1.088-.527 2.884-.527 4.01 0 6.584 5.164 13.3 11.527 14.99l25.95 7 56.72-32.8-70.77-19c-1.077-.286-2.856-.518-3.97-.518-6.53 0-13.22 5.115-14.93 11.418zm18.87-46.7l70.76-18.99-56.76-32.71-26 7c-6.304 1.707-11.42 8.392-11.42 14.924 0 1.116.233 2.897.52 3.976l4 14.9c1.71 6.303 8.399 11.419 14.93 11.419 1.115 0 2.893-.233 3.97-.519zm122.2 237.2c2.589 2.555 7.643 4.629 11.28 4.629 3.637 0 8.69-2.074 11.28-4.629l19.7-19.7v-67.9l-53.66 53.7c-2.61 2.573-4.727 7.635-4.727 11.3 0 3.591 2.046 8.582 4.566 11.14.04.049.113.12.16.16zm293.7-263.1c.29-1.086.526-2.879.526-4.003 0-6.526-5.11-13.213-11.407-14.928l-26-7L349.87 155l70.67 19c1.076.286 2.851.516 3.963.516 6.53 0 13.223-5.114 14.938-11.416zm-60.9 193l-7.01-26-56.69-32.74 19 70.74c1.703 6.305 8.385 11.422 14.916 11.422 1.118 0 2.903-.233 3.984-.523l14.9-4c6.302-1.71 11.418-8.398 11.418-14.93 0-1.114-.232-2.892-.518-3.969zm-7-272.4l7.02-26c.286-1.077.518-2.856.518-3.97 0-6.531-5.115-13.22-11.418-14.93l-14.9-4c-1.076-.286-2.854-.518-3.968-.518-6.53 0-13.215 5.115-14.922 11.418l-19 70.73zM256 60.3l53.4-53.7c2.564-2.592 4.644-7.655 4.644-11.3s-2.08-8.708-4.644-11.3l-11.3-11.3c-2.591-2.565-7.654-4.648-11.3-4.648s-8.71 2.083-11.3 4.648L255.84-7.64zm42.4 351l11.31-11.3c2.563-2.592 4.643-7.654 4.643-11.3s-2.08-8.708-4.643-11.3L256 323.7v67.9l19.8 19.7c2.591 2.565 7.653 4.648 11.3 4.648s8.708-2.083 11.3-4.648z"/><glyph glyph-name="cloud-moon-secondary" unicode="􏛃" horiz-adv-x="576" d="M574 134.53C544.719 98.428 483.298 66.83 436.9 64c-9.506 19.885-33.475 43.495-53.5 52.7.331 2.93.6 7.702.6 10.65v.07c0 53-43.1 96.17-96 96.17h-.078c-10.42 0-26.692-3.23-36.323-7.21-4.262 4.33-11.744 10.702-16.699 14.22-.96 6.88-1.766 18.103-1.8 25.05C233.1 361.94 319.1 448 425 448c9.766-.018 25.491-1.456 35.099-3.21 8.2-1.6 10.1-12.62 2.8-16.73-42.007-23.917-76.1-82.56-76.1-130.9v-.1c0-94.17 85.4-165.699 178.5-148 .475.094 1.251.169 1.734.169 4.968 0 9-4.032 9-9 0-1.773-.91-4.326-2.034-5.698z"/><glyph glyph-name="cloud-sun-secondary" unicode="􏛄" horiz-adv-x="640" d="M366.8 386.11c1.297.435 3.459.788 4.826.788 8.368 0 15.16-6.79 15.16-15.16 0-1.365-.352-3.524-.786-4.818l-29.8-88.89c-8.703-1.132-22.456-4.491-30.7-7.5-16.322 36.702-62.169 66.49-102.337 66.49-61.824 0-112-50.176-112-112 0-25.988 15.07-61.838 33.637-80.02 8.611-8.613 24.74-19.365 36-24-8.003-8.206-18.576-23.228-23.6-33.53L81.1 62.18c-1.296-.436-3.458-.789-4.826-.789-8.369 0-15.16 6.791-15.16 15.16 0 1.366.352 3.524.786 4.819l29.3 87.78-82.8 41.4c-4.637 2.3-8.4 8.369-8.4 13.544 0 5.177 3.763 11.245 8.4 13.545l82.8 41.49-29.3 87.79c-.412 1.267-.746 3.377-.746 4.71 0 8.406 6.823 15.229 15.23 15.229 1.335 0 3.447-.335 4.716-.748l87.9-29.29 41.4 82.78c2.303 4.636 8.374 8.398 13.55 8.398s11.247-3.762 13.55-8.399l41.5-82.78zM224 308c29.904-.06 64.176-22.224 76.5-49.47-32.519-20.048-62.714-67.088-67.4-105-7.307-2.471-18.596-7.714-25.2-11.7-37.484 7.26-67.906 44.14-67.906 82.32 0 46.286 37.565 83.85 83.85 83.85H224z"/><glyph glyph-name="wind-secondary" unicode="􏜮" d="M508.88 53.29c-9.6-41.1-43.5-74-84.69-82.7-58.9-12.5-111.6 21.7-129.39 72.3-3.7 10.3 4.4 21.1 15.29 21.1h33.8c5.8 0 11.6-2.6 14.5-7.6 7.607-13.386 26.276-24.25 41.671-24.25 26.458 0 47.93 21.472 47.93 47.93 0 26.457-21.472 47.93-47.93 47.93H283.5c-5.47 21.095-23.3 49.767-39.8 64H400c70.48 0 126-65.5 108.88-138.71z"/><glyph glyph-name="ballot-secondary" unicode="􏜲" horiz-adv-x="384" d="M360 448h.06c13.215 0 23.94-10.725 23.94-23.94V-40.06C384-53.276 373.275-64 360.06-64H23.94C10.724-64 0-53.275 0-40.06v464.12C0 437.275 10.725 448 23.94 448H360zM128 48v32c0 8.832-7.168 16-16 16H80c-8.832 0-16-7.168-16-16V48c0-8.832 7.168-16 16-16h32c8.832 0 16 7.168 16 16zm0 128v32c0 8.832-7.168 16-16 16H80c-8.832 0-16-7.168-16-16v-32c0-8.832 7.168-16 16-16h32c8.832 0 16 7.168 16 16zm0 128v32c0 8.832-7.168 16-16 16H80c-8.832 0-16-7.168-16-16v-32c0-8.832 7.168-16 16-16h32c8.832 0 16 7.168 16 16zM320 56v16c0 4.416-3.584 8-8 8H168c-4.416 0-8-3.584-8-8V56c0-4.416 3.584-8 8-8h144c4.416 0 8 3.584 8 8zm0 128v16c0 4.416-3.584 8-8 8H168c-4.416 0-8-3.584-8-8v-16c0-4.416 3.584-8 8-8h144c4.416 0 8 3.584 8 8zm0 128v16c0 4.416-3.584 8-8 8H168c-4.416 0-8-3.584-8-8v-16c0-4.416 3.584-8 8-8h144c4.416 0 8 3.584 8 8z"/><glyph glyph-name="ballot-check-secondary" unicode="􏜳" horiz-adv-x="384" d="M360 448h.06c13.215 0 23.94-10.725 23.94-23.94V-40.06C384-53.276 373.275-64 360.06-64H23.94C10.724-64 0-53.275 0-40.06v464.12C0 437.275 10.725 448 23.94 448H360zM161.7 245.6c-.87.87-2.571 1.576-3.8 1.576-1.23 0-2.931-.706-3.8-1.576l-47.6-47.2-20.6 20.8c-.869.87-2.571 1.576-3.8 1.576-1.23 0-2.931-.706-3.8-1.575L65.6 206.6c-.87-.868-1.576-2.57-1.576-3.8 0-1.228.706-2.931 1.575-3.8l36.9-37.3c.869-.87 2.572-1.576 3.8-1.576 1.23 0 2.932.706 3.8 1.577l64.2 63.6c.87.868 1.577 2.57 1.577 3.799 0 1.23-.706 2.932-1.576 3.8zM64 336v-32c0-8.832 7.168-16 16-16h32c8.832 0 16 7.168 16 16v32c0 8.832-7.168 16-16 16H80c-8.832 0-16-7.168-16-16zm64-288v32c0 8.832-7.168 16-16 16H80c-8.832 0-16-7.168-16-16V48c0-8.832 7.168-16 16-16h32c8.832 0 16 7.168 16 16zm192 8v16c0 4.416-3.584 8-8 8H168c-4.416 0-8-3.584-8-8V56c0-4.416 3.584-8 8-8h144c4.416 0 8 3.584 8 8zm-9.6 120c5.3 0 9.6 3.6 9.6 8h-.1v16c0 4.4-4.3 8-9.6 8H200.6c-1.2-1.8-30.4-32-30.4-32h140.2zm9.6 136v16c0 4.416-3.584 8-8 8H168c-4.416 0-8-3.584-8-8v-16c0-4.416 3.584-8 8-8h144c4.416 0 8 3.584 8 8z"/><glyph glyph-name="booth-curtain-secondary" unicode="􏜴" d="M480 448c17.664 0 32-14.336 32-32V-48c0-8.832-7.168-16-16-16h-32c-8.832 0-16 7.168-16 16v496h32zM0 416c0 17.664 14.336 32 32 32h64v-64H64V-48c0-8.832-7.168-16-16-16H16C7.168-64 0-56.832 0-48v464z"/><glyph glyph-name="box-ballot-secondary" unicode="􏜵" horiz-adv-x="576" d="M144 256l-.5 175.8c0 8.942 7.258 16.2 16.2 16.2l255.8-.6c8.832 0 16-7.167 16-16L432 256H144z"/><glyph glyph-name="calendar-star-secondary" unicode="􏜶" horiz-adv-x="448" d="M0-16v272h448V-16c0-26.496-21.504-48-48-48H48C21.504-64 0-42.496 0-16zm134.1 143.7c-5.662-.831-10.259-6.15-10.259-11.873 0-2.81 1.64-6.675 3.66-8.627L167.1 68.6 157.7 14c-.09-.54-.162-1.421-.162-1.967 0-6.624 5.376-12 12-12 1.628 0 4.12.612 5.562 1.367L224 27.2l49-25.8c1.443-.755 3.935-1.367 5.563-1.367 6.624 0 12 5.376 12 12 0 .546-.073 1.428-.162 1.967L281 68.6l39.599 38.6c2.02 1.952 3.66 5.817 3.66 8.627 0 5.724-4.597 11.042-10.26 11.873l-54.7 8-24.5 49.6c-1.825 3.68-6.641 6.668-10.75 6.668s-8.924-2.988-10.75-6.668l-24.5-49.6z"/><glyph glyph-name="clipboard-list-check-secondary" unicode="􏜷" horiz-adv-x="384" d="M336 384c26.496 0 48-21.504 48-48V-16c0-26.496-21.504-48-48-48H48C21.504-64 0-42.496 0-16v352c0 26.496 21.504 48 48 48h80c-35.328 0-64-28.672-64-64h256c0 35.328-28.672 64-64 64h80zM65.6 206.6c-.87-.868-1.576-2.57-1.576-3.8 0-1.228.706-2.931 1.576-3.8l36.9-37.3c.868-.87 2.571-1.576 3.8-1.576 1.23 0 2.931.706 3.8 1.577l64.2 63.6c.87.868 1.576 2.57 1.576 3.799 0 1.23-.706 2.932-1.576 3.8l-12.6 12.7c-.869.87-2.571 1.576-3.8 1.576-1.23 0-2.931-.706-3.8-1.576l-47.6-47.2-20.6 20.8c-.869.87-2.57 1.576-3.8 1.576-1.229 0-2.931-.706-3.8-1.575zM96 56h.06C109.276 56 120 66.725 120 79.94V80c0 13.248-10.752 24-24 24S72 93.248 72 80s10.752-24 24-24zm224 16v16c0 4.416-3.584 8-8 8H168c-4.416 0-8-3.584-8-8V72c0-4.416 3.584-8 8-8h144c4.416 0 8 3.584 8 8zm0 96v16c0 4.4-4.3 8-9.6 8h-124l-32.3-32h156.3c5.3 0 9.6 3.6 9.6 8z"/><glyph glyph-name="cloud-drizzle-secondary" unicode="􏜸" d="M48 88c8.832 0 16-7.168 16-16V32c0-8.832-7.168-16-16-16s-16 7.168-16 16v40c0 8.832 7.168 16 16 16zm96-80c8.832 0 16-7.168 16-16v-40c0-8.832-7.168-16-16-16s-16 7.168-16 16v40c0 8.832 7.168 16 16 16zm96 80c8.832 0 16-7.168 16-16V32c0-8.832-7.168-16-16-16s-16 7.168-16 16v40c0 8.832 7.168 16 16 16zm96-80c8.832 0 16-7.168 16-16v-40c0-8.832-7.168-16-16-16s-16 7.168-16 16v40c0 8.832 7.168 16 16 16zm96 80c8.832 0 16-7.168 16-16V32c0-8.832-7.168-16-16-16s-16 7.168-16 16v40c0 8.832 7.168 16 16 16z"/><glyph glyph-name="cloud-hail-secondary" unicode="􏜹" d="M384 96c17.664 0 32-14.336 32-32s-14.336-32-32-32-32 14.336-32 32 14.336 32 32 32zM192 0c17.664 0 32-14.336 32-32s-14.336-32-32-32-32 14.336-32 32 14.336 32 32 32zm128 0c17.664 0 32-14.336 32-32s-14.336-32-32-32-32 14.336-32 32 14.336 32 32 32zm-64 96c17.664 0 32-14.336 32-32s-14.336-32-32-32-32 14.336-32 32 14.336 32 32 32zM64 0c17.664 0 32-14.336 32-32S81.664-64 64-64 32-49.664 32-32 46.336 0 64 0zm64 96c17.664 0 32-14.336 32-32s-14.336-32-32-32-32 14.336-32 32 14.336 32 32 32z"/><glyph glyph-name="cloud-hail-mixed-secondary" unicode="􏜺" d="M183.89 77.87c4.46-2.54 8.08-8.77 8.08-13.902 0-2.328-.932-5.863-2.08-7.888l-64-112c-2.54-4.462-8.77-8.084-13.904-8.084-2.331 0-5.868.934-7.896 2.084-4.477 2.518-8.112 8.73-8.112 13.868 0 2.342.946 5.89 2.112 7.922l64 112c2.51 4.487 8.719 8.128 13.86 8.128 2.348 0 5.906-.953 7.94-2.128zm95.3.4c4.888-2.494 8.855-8.97 8.855-14.459 0-2.077-.742-5.276-1.656-7.141l-16-32c-2.447-4.858-8.848-8.8-14.288-8.8h-.012c-2.092.023-5.318.784-7.2 1.7-4.909 2.434-8.893 8.856-8.893 14.335 0 2.088.758 5.298 1.694 7.165l16 32c2.434 4.91 8.855 8.894 14.335 8.894 2.088 0 5.298-.759 7.165-1.694zm-192 0c4.884-2.495 8.858-8.97 8.858-14.454 0-2.079-.743-5.28-1.658-7.146l-16-32c-2.448-4.858-8.849-8.8-14.288-8.8h-.012c-2.093.023-5.319.784-7.2 1.7-4.91 2.434-8.894 8.856-8.894 14.335 0 2.088.759 5.298 1.694 7.165l16 32c2.434 4.91 8.856 8.894 14.335 8.894 2.088 0 5.298-.759 7.165-1.694zm384 0c4.889-2.494 8.846-8.97 8.846-14.459 0-2.077-.742-5.276-1.657-7.141l-16-32c-2.447-4.858-8.848-8.8-14.288-8.8h-.011c-2.093.023-5.319.784-7.2 1.7-4.906 2.435-8.886 8.856-8.886 14.331 0 2.09.76 5.301 1.696 7.17l16 32c2.434 4.909 8.855 8.893 14.335 8.893 2.088 0 5.298-.759 7.165-1.694zm-95.29-.4c4.465-2.54 8.077-8.77 8.077-13.906 0-2.327-.93-5.86-2.077-7.884l-64-112c-2.541-4.462-8.77-8.084-13.905-8.084-2.33 0-5.868.934-7.896 2.084-4.477 2.518-8.112 8.73-8.112 13.868 0 2.342.946 5.89 2.112 7.922l64 112c2.51 4.487 8.719 8.128 13.86 8.128 2.35 0 5.907-.953 7.941-2.128zM32 0c17.664 0 32-14.336 32-32S49.664-64 32-64 0-49.664 0-32 14.336 0 32 0zm192 0c17.664 0 32-14.336 32-32s-14.336-32-32-32-32 14.336-32 32 14.336 32 32 32zm192 0c17.664 0 32-14.336 32-32s-14.336-32-32-32-32 14.336-32 32 14.336 32 32 32z"/><glyph glyph-name="cloud-meatball-secondary" unicode="􏜻" d="M48 96c26.496 0 48-21.504 48-48S74.496 0 48 0 0 21.504 0 48s21.504 48 48 48zm416 0c26.496 0 48-21.504 48-48S490.496 0 464 0s-48 21.504-48 48 21.504 48 48 48zM345 84.9c13.5-7 23-20.7 23-36.9s-9.5-29.9-23-36.9c4.6-14.5 1.7-30.8-9.8-42.3-6.762-6.79-20.027-12.3-29.61-12.3h-.09c-4.3 0-8.5 1.2-12.6 2.5-7-13.5-20.7-23-36.9-23s-29.9 9.5-36.9 23c-3.363-1.268-9.008-2.388-12.6-2.5h-.09c-9.583 0-22.848 5.51-29.61 12.3-11.5 11.5-14.5 27.8-9.9 42.3-13.5 7-23 20.7-23 36.9s9.5 29.9 23 36.9c-4.5 14.5-1.6 30.8 9.9 42.3s27.8 14.5 42.3 9.9c7 13.5 20.7 23 36.9 23s29.9-9.5 36.9-23c14.5 4.5 30.9 1.6 42.3-9.9 11.4-11.5 14.4-27.8 9.8-42.3z"/><glyph glyph-name="cloud-moon-rain-secondary" unicode="􏜼" horiz-adv-x="576" d="M567.9 224.2c6.2 1.2 10.6-6 6.4-10.8-24.02-29.422-74.34-53.3-112.322-53.3h-.278c-5.2 0-10.1 1-15.2 1.5-5.572 35.12-37.023 74.006-70.2 86.8-9.203 23.762-35.591 51.403-58.9 61.7 3.3 76.7 66.5 137.9 144.4 137.9h.068c7.355 0 19.197-1.076 26.431-2.401 3.052-.558 5.529-3.527 5.529-6.63 0-2.172-1.537-4.802-3.428-5.87-31.705-17.794-57.465-61.743-57.5-98.1 0-70.5 64.6-124.1 135-110.8zM364.5 29.9c4.462-2.54 8.084-8.77 8.084-13.905 0-2.33-.934-5.868-2.084-7.895l-36.6-64c-2.54-4.462-8.77-8.083-13.905-8.083-2.33 0-5.868.933-7.895 2.083-4.474 2.525-8.106 8.744-8.106 13.881 0 2.341.943 5.888 2.106 7.92l36.6 64c2.54 4.461 8.77 8.082 13.904 8.082 2.332 0 5.869-.933 7.896-2.083zm-96 0c4.462-2.54 8.084-8.77 8.084-13.905 0-2.33-.934-5.868-2.084-7.895l-36.6-64c-2.54-4.462-8.77-8.083-13.905-8.083-2.33 0-5.868.933-7.895 2.083-4.474 2.525-8.106 8.744-8.106 13.881 0 2.341.943 5.888 2.106 7.92l36.6 64c2.54 4.461 8.77 8.082 13.904 8.082 2.332 0 5.869-.933 7.896-2.083zm-96 0c4.462-2.54 8.084-8.77 8.084-13.905 0-2.33-.934-5.868-2.084-7.895l-36.6-64c-2.54-4.462-8.77-8.083-13.905-8.083-2.33 0-5.868.933-7.895 2.083-4.474 2.525-8.106 8.744-8.106 13.881 0 2.341.943 5.888 2.106 7.92l36.6 64c2.54 4.461 8.77 8.082 13.904 8.082 2.332 0 5.869-.933 7.896-2.083zm-96 0c4.462-2.54 8.084-8.77 8.084-13.905 0-2.33-.934-5.868-2.084-7.895l-36.6-64c-2.54-4.462-8.77-8.083-13.905-8.083-2.33 0-5.868.933-7.895 2.083-4.474 2.525-8.106 8.744-8.106 13.881 0 2.341.943 5.888 2.106 7.92l36.6 64c2.54 4.461 8.77 8.082 13.904 8.082 2.332 0 5.869-.933 7.896-2.083z"/><glyph glyph-name="cloud-rain-secondary" unicode="􏜽" d="M88 73.78c.88 3.424 4.464 6.204 8 6.204s7.12-2.78 8-6.204c12.8-44.6 40-56.29 40-87.69C144-41.6 122.5-64 96-64S48-41.6 48-13.91c0 31.3 27.2 43.29 40 87.69zm160 0c.88 3.424 4.464 6.204 8 6.204s7.12-2.78 8-6.204c12.8-44.6 40-56.29 40-87.69C304-41.6 282.5-64 256-64s-48 22.4-48 50.09c0 31.3 27.2 43.29 40 87.69zm176 0c12.8-44.6 40-56.29 40-87.69C464-41.6 442.5-64 416-64s-48 22.4-48 50.09c0 31.3 27.2 43.29 40 87.69.88 3.424 4.464 6.204 8 6.204s7.12-2.78 8-6.204z"/><glyph glyph-name="cloud-rainbow-secondary" unicode="􏜾" horiz-adv-x="576" d="M430.8 143.1c-1.519 9.597-6.715 24.202-11.6 32.6 36.001 35.49 106.247 64.297 156.8 64.3v-64c-47 0-88.9-20.8-118.3-53.2-6.663 6.613-18.713 15.707-26.9 20.3zM238.6 274.4C314.2 379.299 437.1 448 576 448v-64c-114.7 0-216.4-55.4-280.8-140.6-13.637 12.179-38.994 26.067-56.6 31zm87.2-51.5C384.4 296.6 474.7 344 576 344v-64h-.03c-58.939 0-140.371-34.048-181.77-76-31.7 24.3-61 19.7-68.4 18.9z"/><glyph glyph-name="cloud-showers-secondary" unicode="􏜿" d="M48 80c8.832 0 16-7.168 16-16v-80c0-8.832-7.168-16-16-16s-16 7.168-16 16v80c0 8.832 7.168 16 16 16zm96-32c8.832 0 16-7.168 16-16v-80c0-8.832-7.168-16-16-16s-16 7.168-16 16v80c0 8.832 7.168 16 16 16zm96 32c8.832 0 16-7.168 16-16v-80c0-8.832-7.168-16-16-16s-16 7.168-16 16v80c0 8.832 7.168 16 16 16zm96-32c8.832 0 16-7.168 16-16v-80c0-8.832-7.168-16-16-16s-16 7.168-16 16v80c0 8.832 7.168 16 16 16zm96 32c8.832 0 16-7.168 16-16v-80c0-8.832-7.168-16-16-16s-16 7.168-16 16v80c0 8.832 7.168 16 16 16z"/><glyph glyph-name="cloud-showers-heavy-secondary" unicode="􏝀" d="M183.9 77.9c4.462-2.54 8.083-8.77 8.083-13.905 0-2.33-.934-5.868-2.083-7.895l-64-112c-2.541-4.462-8.77-8.083-13.905-8.083-2.33 0-5.868.933-7.896 2.083-4.478 2.52-8.112 8.736-8.112 13.875 0 2.342.946 5.893 2.112 7.925l64 112c2.51 4.487 8.719 8.128 13.86 8.128 2.35 0 5.907-.954 7.941-2.128zm96 0c4.462-2.54 8.083-8.77 8.083-13.905 0-2.33-.934-5.868-2.083-7.895l-64-112c-2.541-4.462-8.77-8.083-13.905-8.083-2.33 0-5.868.933-7.896 2.083-4.478 2.52-8.112 8.736-8.112 13.875 0 2.342.946 5.893 2.112 7.925l64 112c2.51 4.487 8.719 8.128 13.86 8.128 2.35 0 5.907-.954 7.941-2.128zm-192 0c4.458-2.542 8.086-8.768 8.086-13.9 0-2.333-.934-5.872-2.086-7.9l-64-112c-2.54-4.462-8.77-8.083-13.905-8.083-2.33 0-5.868.933-7.895 2.083-4.48 2.52-8.113 8.736-8.113 13.875 0 2.342.947 5.893 2.113 7.925l64 112c2.51 4.487 8.718 8.128 13.859 8.128 2.35 0 5.907-.954 7.941-2.128zm384 0c4.467-2.54 8.081-8.771 8.081-13.909 0-2.329-.933-5.864-2.081-7.891l-64-112c-2.541-4.462-8.77-8.083-13.905-8.083-2.33 0-5.868.933-7.896 2.083-4.478 2.52-8.112 8.736-8.112 13.875 0 2.342.946 5.893 2.112 7.925l64 112c2.51 4.487 8.719 8.128 13.86 8.128 2.35 0 5.907-.954 7.941-2.128zm-96 0c4.467-2.54 8.081-8.771 8.081-13.909 0-2.329-.933-5.864-2.081-7.891l-64-112c-2.541-4.462-8.77-8.083-13.905-8.083-2.33 0-5.868.933-7.896 2.083-4.478 2.52-8.112 8.736-8.112 13.875 0 2.342.946 5.893 2.112 7.925l64 112c2.51 4.487 8.719 8.128 13.86 8.128 2.35 0 5.907-.954 7.941-2.128z"/><glyph glyph-name="cloud-sleet-secondary" unicode="􏝁" d="M87.2 94.3c4.889-2.493 8.856-8.97 8.856-14.458 0-2.077-.742-5.277-1.656-7.142l-64-128c-2.448-4.857-8.85-8.8-14.289-8.8H16.1c-2.092.023-5.318.785-7.2 1.7C3.99-59.967.006-53.544.006-48.064c0 2.087.759 5.297 1.694 7.164l64 128c2.468 4.887 8.914 8.853 14.389 8.853 2.07 0 5.255-.74 7.111-1.653zm256 0c4.889-2.493 8.855-8.97 8.855-14.458 0-2.077-.74-5.277-1.655-7.142l-64-128c-2.448-4.857-8.85-8.8-14.289-8.8h-.012c-2.091.023-5.317.785-7.199 1.7-4.91 2.433-8.894 8.856-8.894 14.336 0 2.087.758 5.297 1.694 7.164l64 128c2.468 4.887 8.914 8.853 14.389 8.853 2.069 0 5.255-.74 7.111-1.653zM492 16c2.19-1.278 3.967-4.373 3.967-6.91 0-1.179-.478-2.967-1.067-3.99l-8-13.9c-1.278-2.19-4.374-3.967-6.909-3.967-1.18 0-2.969.478-3.991 1.067L448 4.4V-24c0-4.416-3.584-8-8-8h-16c-4.416 0-8 3.584-8 8V4.4l-28-16.1c-1.022-.589-2.81-1.067-3.991-1.067-2.535 0-5.631 1.778-6.91 3.967l-8 13.9c-.588 1.023-1.066 2.811-1.066 3.99 0 2.537 1.778 5.632 3.967 6.91l27.9 16L372 48c-2.19 1.278-3.967 4.373-3.967 6.91 0 1.179.478 2.967 1.067 3.99l8 13.9c1.278 2.19 4.374 3.967 6.909 3.967 1.18 0 2.969-.478 3.991-1.067l28-16.1V88c0 4.416 3.584 8 8 8h16c4.416 0 8-3.584 8-8V59.6l28 16.1c1.022.589 2.81 1.067 3.991 1.067 2.535 0 5.631-1.778 6.91-3.967l8-13.9c.588-1.023 1.066-2.811 1.066-3.99 0-2.537-1.778-5.632-3.967-6.91l-27.9-16zM238.9 58.9c.589-1.023 1.066-2.811 1.066-3.99 0-2.537-1.777-5.632-3.966-6.91l-27.9-16L236 16c2.19-1.278 3.966-4.373 3.966-6.91 0-1.179-.477-2.967-1.066-3.99l-8-13.9c-1.278-2.19-4.374-3.967-6.91-3.967-1.18 0-2.968.478-3.99 1.067L192 4.4V-24c0-4.416-3.584-8-8-8h-16c-4.416 0-8 3.584-8 8V4.4l-28-16.1c-1.023-.589-2.81-1.067-3.992-1.067-2.535 0-5.63 1.778-6.909 3.967l-8 13.9c-.589 1.023-1.066 2.811-1.066 3.99 0 2.537 1.777 5.632 3.967 6.91l27.9 16L116 48c-2.19 1.278-3.967 4.373-3.967 6.91 0 1.179.477 2.967 1.066 3.99l8 13.9c1.279 2.19 4.374 3.967 6.91 3.967 1.18 0 2.968-.478 3.99-1.067l28-16.1V88c0 4.416 3.585 8 8 8h16c4.417 0 8-3.584 8-8V59.6l28 16.1c1.023.59 2.811 1.067 3.992 1.067 2.535 0 5.63-1.778 6.909-3.967z"/><glyph glyph-name="cloud-snow-secondary" unicode="􏝂" d="M126.9 58.9c.589-1.023 1.066-2.811 1.066-3.99 0-2.537-1.777-5.632-3.966-6.91L96.1 32 124 16c2.19-1.278 3.966-4.373 3.966-6.91 0-1.179-.477-2.967-1.066-3.99l-8-13.9c-1.278-2.19-4.374-3.967-6.91-3.967-1.18 0-2.968.478-3.99 1.067L80 4.4V-24c0-4.416-3.584-8-8-8H56c-4.416 0-8 3.584-8 8V4.4L20-11.7c-1.023-.589-2.81-1.067-3.992-1.067-2.535 0-5.63 1.778-6.909 3.967l-8 13.9C.51 6.123.033 7.91.033 9.09.033 11.628 1.81 14.723 4 16l27.9 16L4 48C1.81 49.278.033 52.373.033 54.91c0 1.179.477 2.967 1.066 3.99l8 13.9c1.279 2.19 4.374 3.967 6.91 3.967 1.18 0 2.968-.478 3.99-1.067l28-16.1V88c0 4.416 3.585 8 8 8h16c4.417 0 8-3.584 8-8V59.6l28 16.1c1.023.59 2.811 1.067 3.992 1.067 2.535 0 5.63-1.778 6.909-3.967zm192-32c.589-1.023 1.066-2.811 1.066-3.99 0-2.537-1.777-5.632-3.966-6.91L288.1 0 316-16c2.19-1.278 3.966-4.373 3.966-6.91 0-1.179-.477-2.967-1.066-3.99l-8-13.9c-1.278-2.19-4.374-3.967-6.91-3.967-1.18 0-2.968.478-3.99 1.067l-28 16.1V-56c0-4.416-3.584-8-8-8h-16c-4.416 0-8 3.584-8 8v28.4l-28-16.1c-1.023-.589-2.81-1.067-3.992-1.067-2.535 0-5.63 1.778-6.909 3.967l-8 13.9c-.589 1.023-1.066 2.811-1.066 3.99 0 2.537 1.777 5.632 3.967 6.91l27.9 16L196 16c-2.19 1.278-3.967 4.373-3.967 6.91 0 1.179.477 2.967 1.066 3.99l8 13.9c1.279 2.19 4.374 3.967 6.91 3.967 1.18 0 2.968-.478 3.99-1.067l28-16.1V56c0 4.416 3.585 8 8 8h16c4.417 0 8-3.584 8-8V27.6l28 16.1c1.023.59 2.811 1.067 3.992 1.067 2.535 0 5.63-1.778 6.909-3.967zM508 16c2.19-1.278 3.967-4.373 3.967-6.91 0-1.179-.478-2.967-1.067-3.99l-8-13.9c-1.278-2.19-4.374-3.967-6.909-3.967-1.18 0-2.969.478-3.991 1.067L464 4.4V-24c0-4.416-3.584-8-8-8h-16c-4.416 0-8 3.584-8 8V4.4l-28-16.1c-1.022-.589-2.81-1.067-3.991-1.067-2.535 0-5.631 1.778-6.91 3.967l-8 13.9c-.588 1.023-1.066 2.811-1.066 3.99 0 2.537 1.778 5.632 3.967 6.91l27.9 16L388 48c-2.19 1.278-3.967 4.373-3.967 6.91 0 1.179.478 2.967 1.067 3.99l8 13.9c1.278 2.19 4.374 3.967 6.909 3.967 1.18 0 2.969-.478 3.991-1.067l28-16.1V88c0 4.416 3.584 8 8 8h16c4.416 0 8-3.584 8-8V59.6l28 16.1c1.022.589 2.81 1.067 3.991 1.067 2.535 0 5.631-1.778 6.91-3.967l8-13.9c.588-1.023 1.066-2.811 1.066-3.99 0-2.537-1.778-5.632-3.967-6.91l-27.9-16z"/><glyph glyph-name="cloud-sun-rain-secondary" unicode="􏝃" horiz-adv-x="576" d="M322 351.8c-.7 0-1.3.2-2 .2-20.792-.054-51.794-9.327-69.2-20.7-37.6 29.4-92.1 27.2-126.7-7.4-15.483-15.541-28.05-45.96-28.05-67.9s12.566-52.357 28.049-67.9c2.651-2.491 7.221-6.21 10.2-8.3-3.367-9.622-6.145-25.705-6.2-35.9 0-2.5.5-4.8.7-7.2L69.6 117c-1.102-.364-2.939-.66-4.1-.66-7.21 0-13.06 5.85-13.06 13.06 0 1.16.296 2.998.66 4.1l25.1 75.3-71 35.5c-3.992 1.977-7.231 7.196-7.231 11.65s3.24 9.673 7.231 11.65l71 35.5-25.1 75.3c-.377 1.117-.683 2.98-.683 4.158 0 7.176 5.824 13 13 13 1.156 0 2.986-.295 4.083-.657l75.3-25.101 35.5 71c1.977 3.992 7.196 7.231 11.65 7.231s9.673-3.239 11.65-7.231l35.5-71 75.3 25.1c1.117.378 2.98.683 4.158.683 7.176 0 13-5.824 13-13 0-1.156-.295-2.985-.657-4.083zm-96.2-41.7c-13.964-15.092-28.255-43.764-31.9-64-15.125-6.942-35.196-23.608-44.8-37.2-11.616 10.405-21.069 31.506-21.1 47.1.033 35.295 28.705 63.967 64 64 10.122-.022 25.265-4.458 33.8-9.9zM524.5 29.9c4.462-2.54 8.084-8.77 8.084-13.905 0-2.33-.934-5.868-2.084-7.895l-36.6-64c-2.54-4.462-8.77-8.083-13.905-8.083-2.33 0-5.868.933-7.895 2.083-4.474 2.525-8.106 8.744-8.106 13.881 0 2.341.943 5.888 2.106 7.92l36.6 64c2.54 4.461 8.77 8.082 13.904 8.082 2.332 0 5.869-.933 7.896-2.083zm-96 0c4.462-2.54 8.084-8.77 8.084-13.905 0-2.33-.934-5.868-2.084-7.895l-36.6-64c-2.54-4.462-8.77-8.083-13.905-8.083-2.33 0-5.868.933-7.895 2.083-4.474 2.525-8.106 8.744-8.106 13.881 0 2.341.943 5.888 2.106 7.92l36.6 64c2.54 4.461 8.77 8.082 13.904 8.082 2.332 0 5.869-.933 7.896-2.083zm-96 0c4.462-2.54 8.084-8.77 8.084-13.905 0-2.33-.934-5.868-2.084-7.895l-36.6-64c-2.54-4.462-8.77-8.083-13.905-8.083-2.33 0-5.868.933-7.895 2.083-4.474 2.525-8.106 8.744-8.106 13.881 0 2.341.943 5.888 2.106 7.92l36.6 64c2.54 4.461 8.77 8.082 13.904 8.082 2.332 0 5.869-.933 7.896-2.083zm-96 0c4.462-2.54 8.084-8.77 8.084-13.905 0-2.33-.934-5.868-2.084-7.895l-36.6-64c-2.54-4.462-8.77-8.083-13.905-8.083-2.33 0-5.868.933-7.895 2.083-4.474 2.525-8.106 8.744-8.106 13.881 0 2.341.943 5.888 2.106 7.92l36.6 64c2.54 4.461 8.77 8.082 13.904 8.082 2.332 0 5.869-.933 7.896-2.083z"/><glyph glyph-name="clouds-secondary" unicode="􏝄" horiz-adv-x="640" d="M161.6 160H96c-52.992 0-96 43.008-96 96s43.008 96 96 96c.6 0 1.1-.2 1.6-.2 7.7 54.3 54 96.2 110.4 96.2 42.773-.041 89.589-32.611 104.5-72.7 10.379 4.774 28.075 8.673 39.5 8.7 52.992 0 96-43.008 96-96-.075-9.952-3.21-25.497-7-34.7-9.225-1.91-23.382-7.196-31.6-11.8-23.405 25.668-70.591 46.5-105.328 46.5H304c-73.9 0-134.3-56.2-142.4-128z"/><glyph glyph-name="clouds-moon-secondary" unicode="􏝅" horiz-adv-x="640" d="M638.48 190.13c-21.632-28.941-68.188-56.775-103.921-62.13-14.842 12.232-42.336 24.399-61.37 27.16-14.986 30.74-54.755 58.57-88.77 62.12-3.238 20.098-17.6 48.04-32.06 62.37 0 .7-.24 1.3-.27 2-2.96 88.82 66.01 163.23 153.91 166.26 1.504.053 3.945.096 5.45.096 6.58 0 17.197-.813 23.7-1.815 3.534-.55 6.401-3.896 6.401-7.47 0-2.313-1.59-5.185-3.55-6.411-32.893-20.463-59.59-68.51-59.59-107.25 0-1.228.036-3.222.08-4.45 2.62-78.77 75.59-136.11 152.399-118.57 6.75 1.54 11.76-6.24 7.59-11.91z"/><glyph glyph-name="clouds-sun-secondary" unicode="􏝆" horiz-adv-x="640" d="M314.45 394.9c1.13.387 3.019.701 4.214.701 7.176 0 13-5.823 13-13 0-1.161-.298-2.999-.664-4.101l-26.35-78.4c-6.335-4.412-15.56-12.745-20.59-18.6-3.505 13.49-14.302 32.485-24.1 42.4-15.54 15.483-45.953 28.05-67.89 28.05s-52.351-12.567-67.89-28.05c-15.787-15.416-28.601-45.835-28.601-67.9 0-30.182 21.19-66.962 47.3-82.1-3.778-7.714-8.482-20.751-10.5-29.1-5.914-3.21-14.92-9.303-20.099-13.6L69.59 117c-1.103-.365-2.94-.66-4.1-.66-7.21 0-13.06 5.85-13.06 13.06 0 1.16.296 2.997.66 4.1l25.1 75.3-71 35.5c-3.992 1.976-7.231 7.196-7.231 11.65s3.24 9.673 7.231 11.65l71 35.5-25.1 75.3c-.364 1.102-.66 2.939-.66 4.1 0 7.21 5.85 13.06 13.06 13.06 1.16 0 2.997-.296 4.1-.66l75.29-25.1 35.49 71c1.977 3.992 7.195 7.23 11.65 7.23 4.454 0 9.673-3.238 11.65-7.23l35.49-71zM192.07 320c35.312-.017 63.997-28.689 64.03-64 0-.5-.1-.9-.1-1.4-32.805-3.533-75.916-27.5-96.23-53.5-17.494 10.184-31.692 34.878-31.692 55.12 0 35.207 28.573 63.78 63.78 63.78h.212z"/><glyph glyph-name="democrat-secondary" unicode="􏝇" horiz-adv-x="640" d="M544 96V-48c0-8.832-7.168-16-16-16h-64c-8.832 0-16 7.168-16 16v80H288v-80c0-8.832-7.168-16-16-16h-64c-8.832 0-16 7.168-16 16V96h352z"/><glyph glyph-name="dewpoint-secondary" unicode="􏝈" d="M416 448c52.91-.082 95.918-43.09 96-96 0-52.992-43.008-96-96-96s-96 43.008-96 96 43.008 96 96 96zm0-128c17.664 0 32 14.336 32 32s-14.336 32-32 32-32-14.336-32-32 14.336-32 32-32z"/><glyph glyph-name="eclipse-secondary" unicode="􏝉" horiz-adv-x="640" d="M295.2 70.8c7.007-9.755 19.91-24.225 28.8-32.3l-5.3 1.8-47.3-94.7c-2.636-5.301-9.58-9.604-15.5-9.604S243.036-59.7 240.4-54.4l-47.3 94.7L92.7 6.8c-13.5-4.6-26.4 8.3-21.9 21.9l33.5 100.5-94.7 47.3c-5.301 2.636-9.604 9.58-9.604 15.5S4.3 204.864 9.6 207.5l94.7 47.4-33.5 100.4c-4.6 13.5 8.3 26.4 21.9 21.9l100.5-33.5 47.3 94.7c2.636 5.3 9.58 9.604 15.5 9.604s12.864-4.303 15.5-9.604l48.9-96.3c-7.682-7.321-18.926-20.268-25.1-28.9-44.3 14.3-94.7 4.4-129.8-30.7-20.66-20.707-37.427-61.25-37.427-90.5s16.768-69.794 37.427-90.5c35.1-35.1 85.5-45 129.7-30.7zM256 288c6.249-.08 16.24-1.379 22.3-2.9-12.31-24.221-22.3-65.93-22.3-93.1s9.99-68.879 22.3-93.1c-6.358-1.597-16.838-2.894-23.393-2.894-52.992 0-96 43.009-96 96 0 52.992 43.008 96 96 96 .302 0 .791-.002 1.093-.006z"/><glyph glyph-name="eclipse-alt-secondary" unicode="􏝊" d="M502.42 207.5c5.288-2.644 9.581-9.588 9.581-15.501 0-5.998-4.382-12.986-9.781-15.599l-94.7-47.3 33.5-100.4c4.6-13.5-8.3-26.4-21.9-21.9l-100.4 33.5-47.31-94.7c-2.635-5.3-9.58-9.604-15.5-9.604s-12.864 4.303-15.5 9.604l-47.3 94.7L92.7 6.8c-13.5-4.6-26.4 8.3-21.9 21.9l33.51 100.5L9.6 176.5c-5.3 2.636-9.603 9.58-9.603 15.5s4.302 12.865 9.603 15.5l94.71 47.4L70.8 355.3c-4.6 13.5 8.3 26.4 21.9 21.9l100.51-33.5 47.3 94.7c2.636 5.301 9.58 9.604 15.5 9.604 5.922 0 12.865-4.303 15.5-9.604l47.41-94.8 100.4 33.5c13.5 4.6 26.4-8.3 21.9-21.9l-33.5-100.4zm-155.9-106c20.66 20.706 37.428 61.25 37.428 90.5s-16.768 69.794-37.428 90.5c-49.9 49.9-131.1 49.9-181 0-20.66-20.706-37.427-61.25-37.427-90.5s16.768-69.794 37.427-90.5c49.89-49.9 131.091-49.9 181 0z"/><glyph glyph-name="fire-smoke-secondary" unicode="􏝋" horiz-adv-x="640" d="M195.7 164.8c-11.268 7.999-31.203 17.542-44.5 21.3-3.951 13.208-7.177 35.115-7.2 48.9 0 54.2 54.8 144.1 132 213 30.1-26.9 56.6-55.7 77.9-84 11.331 13.375 31.133 33.715 44.2 45.4 57-50.8 97.8-133.9 97.8-174.2-.023-13.785-3.249-35.693-7.2-48.9-13.297-3.758-33.233-13.3-44.5-21.3-8.674 10.612-25.025 25.306-36.5 32.8 3.083 8.819 5.585 23.558 5.585 32.9 0 13.094-4.787 33.21-10.686 44.9-2.5 4.9-5.3 10.1-8.399 15.4l-43.8-51.7s-68.6 90.7-73.8 96.9c-36.2-45-54.4-71.3-54.4-101.1-.002-.22-.003-.574-.003-.792 0-11.022 3.317-28.273 7.402-38.508-10.588-7.207-25.776-21.095-33.899-31z"/><glyph glyph-name="flag-alt-secondary" unicode="􏝌" d="M512 417.17V115.88l.001-.179c0-11.199-8.29-24.022-18.501-28.62C317.7 10.67 281.7 156.17 96 64v351.58c209.4 94.589 195.3-59.1 366.6 28.189 22.6 11.5 49.4-1.5 49.4-26.6z"/><glyph glyph-name="flag-usa-secondary" unicode="􏝍" d="M299.9 144.38c31.1-8.21 62.6-16.5 100-16.57 31.9 0 68.5 6.8 112.1 24.1v-36l.001-.178c0-11.2-8.29-24.023-18.501-28.622C317.7 10.7 281.7 156.2 96 64v69.28c92.2 39.89 146.7 26.19 203.9 11.1zm9.5 221.89c-7 2.11-14.1 4.21-21.3 6.21v-33.21c4-1.1 8.1-2.289 12.1-3.5 26.7-8.1 52.9-15.89 85.7-15.89 32.8 0 72.5 7.89 126.1 31.39v-68.93c-92.2-39.8-146.7-26.1-203.9-11.1-6.65 1.741-13.34 3.48-20.1 5.14v158c46.43-16.149 85.35-36.09 174.6 9.39 22.601 11.5 49.4-1.5 49.4-26.6v-30.79c-105.2-49.11-150.8-35.71-202.6-20.11zm-9.5-125.89c31.1-8.21 62.6-16.5 100-16.47 31.9 0 68.5 6.79 112.1 24.09v-61.53c-92.2-39.89-146.7-26.19-203.9-11.09-57.5 15.09-117.3 30-212.1-7.6v61.5c92.2 39.89 146.7 26.19 203.9 11.1z"/><glyph glyph-name="fog-secondary" unicode="􏝎" horiz-adv-x="640" d="M208-16c8.832 0 16-7.168 16-16v-16c0-8.832-7.168-16-16-16H80c-8.832 0-16 7.168-16 16v16c0 8.832 7.168 16 16 16h128zm416 0c8.832 0 16-7.168 16-16v-16c0-8.832-7.168-16-16-16H288c-8.832 0-16 7.168-16 16v16c0 8.832 7.168 16 16 16h336zm-48 64c0-8.832-7.168-16-16-16H16C7.168 32 0 39.168 0 48v16c0 8.832 7.168 16 16 16h544c8.832 0 16-7.168 16-16V48z"/><glyph glyph-name="house-flood-secondary" unicode="􏝏" horiz-adv-x="576" d="M287.94 333.15l191.6-170.051v-99.8h-.1c-13.583 0-33.206-6.9-43.8-15.4-12.17-9.8-31.43-15.6-51.58-15.6-21.16 0-40.61 6.1-53.39 16.7-9.835 8.171-28.194 14.802-40.98 14.802-.144 0-.377 0-.52-.002-14.07-.101-34.41-7.314-45.4-16.1-12.39-9.8-31.03-15.4-51.39-15.4-21.15 0-40.61 6.1-53.38 16.7-9.803 8.116-28.087 14.703-40.814 14.703l-.506-.002c-.5 0-.89-.101-1.39-.101v99.4zm47.91-125.25h-.03c0 8.782-7.127 15.95-15.91 16H256c-8.832 0-16-7.168-16-16v-64c0-8.832 7.168-16 16-16h63.85c8.832 0 16 7.168 16 16v64z"/><glyph glyph-name="humidity-secondary" unicode="􏝐" horiz-adv-x="384" d="M223.9 425.91C275.1 267.41 384 225.809 384 114.099c0-98.4-85.9-178.1-192-178.1S0 15.699 0 114.099c0 111.21 109.1 154.11 160.1 311.811 9.9 30.1 55.1 28.8 63.8 0zM96 160c0-17.664 14.336-32 32-32s32 14.336 32 32-14.336 32-32 32-32-14.336-32-32zm49.5-131.8l118 147.51c.996 1.205 1.805 3.451 1.805 5.015 0 2.11-1.347 4.88-3.005 6.185l-12.5 10c-1.21.966-3.446 1.751-4.994 1.751-2.1 0-4.88-1.322-6.206-2.95L120.6 48.2c-.966-1.21-1.75-3.448-1.75-4.996 0-2.1 1.32-4.88 2.95-6.205l12.5-10c1.205-.996 3.451-1.805 5.014-1.805 2.11 0 4.881 1.347 6.186 3.005zM256 32c17.664 0 32 14.336 32 32s-14.336 32-32 32-32-14.336-32-32 14.336-32 32-32z"/><glyph glyph-name="hurricane-secondary" unicode="􏝑" horiz-adv-x="384" d="M236 192c0-24.288-19.712-44-44-44s-44 19.712-44 44 19.712 44 44 44 44-19.712 44-44z"/><glyph glyph-name="landmark-alt-secondary" unicode="􏝒" d="M0-48v32C0-7.168 7.168 0 16 0h16v16c0 8.832 7.168 16 16 16h16v128h64V32h96v128h64V32h96v128h64V32h16c8.832 0 16-7.168 16-16V0h16c8.832 0 16-7.168 16-16v-32c0-8.832-7.168-16-16-16H16C7.168-64 0-56.832 0-48z"/><glyph glyph-name="meteor-secondary" unicode="􏝓" d="M491.14 447.3c1.27.387 3.38.7 4.707.7 8.927 0 16.17-7.244 16.17-16.17 0-1.304-.303-3.38-.677-4.63-11.6-38.7-34.3-111.7-61.3-187.7 7-2.1 13.4-4 18.6-5.6a18.676 18.676 0 0 0 2.86-1.18c4.705-2.498 8.524-8.848 8.524-14.176 0-2.212-.844-5.591-1.884-7.544C456 168.7 395.44 58.2 335.64-3.4c-1-1.1-2-2.5-3-3.5C256.57-83 133.18-83.13 57.09-7S-19 192.5 57.04 268.6c1 1 2.4 2 3.5 3 61.6 59.901 172 120.4 214.44 142.5.758.403 2.04.936 2.86 1.191 1.253.378 3.33.685 4.638.685 6.565 0 13.447-5.096 15.362-11.375 1.6-5.1 3.5-11.6 5.6-18.6 75.9 27 149 49.7 187.7 61.3zM191.94 0c70.655 0 128 57.344 128 128s-57.345 128-128 128c-70.656 0-128-57.344-128-128s57.344-128 128-128z"/><glyph glyph-name="moon-cloud-secondary" unicode="􏝔" horiz-adv-x="576" d="M574.1 71C542.336 31.752 475.578-.102 425.087-.102 386.79-.102 331.827 19.79 302.4 44.3c29.5 16.4 49.7 47.5 49.7 83.6-.002 52.99-43.01 95.998-96 95.998-2.963 0-7.757-.268-10.7-.598-1.676 3.603-4.767 9.248-6.9 12.6C258.4 320.8 334.3 384 425.1 384c9.739-.015 25.42-1.449 35-3.2 8.2-1.6 10.1-12.6 2.8-16.7-42.007-23.847-76.1-82.403-76.1-130.707v-.093c0-94 85.4-165.399 178.5-147.7 8.2 1.6 14-8 8.8-14.6z"/><glyph glyph-name="moon-stars-secondary" unicode="􏝕" d="M320 416l32-16-32-16-16-32-16 32-32 16 32 16 16 32zm138.7-149.3L512 240l-53.3-26.7L432 160l-26.7 53.3L352 240l53.3 26.7L432 320z"/><glyph glyph-name="person-booth-secondary" unicode="􏝖" horiz-adv-x="576" d="M192 416c0 17.664 14.336 32 32 32h32V256h-64v160zm0-464v176h64V-48c0-8.832-7.168-16-16-16h-32c-8.832 0-16 7.168-16 16zM64 416c26.496 0 48-21.504 48-48s-21.504-48-48-48-48 21.504-48 48 21.504 48 48 48zm480 32c17.664 0 32-14.336 32-32V-48c0-8.832-7.168-16-16-16h-32c-8.832 0-16 7.168-16 16v496h32z"/><glyph glyph-name="person-sign-secondary" unicode="􏝗" d="M144 448c26.452-.044 47.956-21.548 48-48 0-26.496-21.504-48-48-48s-48 21.504-48 48 21.504 48 48 48zm357.5-66.6c5.8-2.1 10.487-8.81 10.487-14.98 0-1.572-.442-4.045-.987-5.52l-43.62-120.301c-2.108-5.828-8.849-10.558-15.046-10.558-1.552 0-3.995.43-5.454.958l-180.5 65.6c-5.828 2.108-10.558 8.849-10.558 15.047 0 1.552.429 3.995.958 5.453l43.8 120.301c2.108 5.828 8.849 10.558 15.046 10.558 1.552 0 3.995-.43 5.454-.958z"/><glyph glyph-name="podium-star-secondary" unicode="􏝘" horiz-adv-x="448" d="M384 224L361.78-16H86.22L64 224h320z"/><glyph glyph-name="poll-people-secondary" unicode="􏝙" horiz-adv-x="640" d="M615.12 128c13.182-.033 23.88-10.758 23.88-23.94V-8.12C638.967-21.302 628.242-32 615.06-32H384v64h192v32H384v64h231.12zm0 288c13.182-.033 23.88-10.758 23.88-23.94V279.88c-.033-13.182-10.758-23.88-23.94-23.88H480v64h96v32h-96v64h135.12z"/><glyph glyph-name="poo-storm-secondary" unicode="􏝚" horiz-adv-x="448" d="M318.4 94l-88-152c-1.9-3.378-6.586-6.12-10.46-6.12-6.625 0-12 5.376-12 12 0 .818.16 2.127.36 2.92l23 97.2h-59.308c-6.624 0-12 5.376-12 12 0 .443.048 1.16.106 1.6l16 120c.795 5.72 6.126 10.379 11.9 10.4h68.008c6.624 0 12-5.376 12-12 0-.87-.182-2.259-.408-3.1L250.3 112h57.707c6.625 0 12-5.376 12-12 0-1.774-.72-4.463-1.607-6z"/><glyph glyph-name="rainbow-secondary" unicode="􏝛" horiz-adv-x="576" d="M262.7 318.43C379.8 333.43 480 242.23 480 128V-16c0-8.832-7.168-16-16-16h-32c-8.832 0-16 7.168-16 16v138.33c0 66.9-48.7 126.6-115.2 133.1C224.5 262.83 160 202.83 160 128V-16c0-8.832-7.168-16-16-16h-32c-8.832 0-16 7.168-16 16v137.33c0 97.6 70 184.7 166.7 197.1z"/><glyph glyph-name="raindrops-secondary" unicode="􏝜" horiz-adv-x="448" d="M169.3 409.1c14.9-49.5 46.7-62.5 46.7-97.4 0-30.911-25.088-56-56-56s-56 25.089-56 56c0 34.7 31.8 48.1 46.7 97.4 2.9 9.4 16.1 9 18.6 0zm-122.6-192c2.9 9.4 16.1 9 18.6 0 14.9-49.5 46.7-62.5 46.7-97.4 0-30.912-25.088-56-56-56s-56 25.088-56 56c0 34.7 31.8 48.1 46.7 97.4z"/><glyph glyph-name="republican-secondary" unicode="􏝞" horiz-adv-x="640" d="M0-16v176h544V48c0-8.832 7.168-16 16-16s16 7.168 16 16v64c0 8.832 7.168 16 16 16h32c8.832 0 16-7.168 16-16V48c-.063-44.175-35.965-80.026-80.14-80.026-2.286 0-5.986.19-8.26.426C510-27.4 480 10.9 480 52.7V96h-32V-16c0-8.832-7.168-16-16-16h-96c-8.832 0-16 7.168-16 16v80H128v-80c0-8.832-7.168-16-16-16H16C7.168-32 0-24.832 0-16z"/><glyph glyph-name="smog-secondary" unicode="􏝟" horiz-adv-x="640" d="M624 80c8.832 0 16-7.168 16-16V48c0-8.832-7.168-16-16-16H80c-8.832 0-16 7.168-16 16v16c0 8.832 7.168 16 16 16h544zM144-16c8.832 0 16-7.168 16-16v-16c0-8.832-7.168-16-16-16H16C7.168-64 0-56.832 0-48v16c0 8.832 7.168 16 16 16h128zm416 0c8.832 0 16-7.168 16-16v-16c0-8.832-7.168-16-16-16H224c-8.832 0-16 7.168-16 16v16c0 8.832 7.168 16 16 16h336z"/><glyph glyph-name="smoke-secondary" unicode="􏝠" horiz-adv-x="640" d="M512 352l.607.001c70.32 0 127.391-57.07 127.391-127.39 0-20.13-8.645-50.33-19.297-67.411C595.6 178.6 563.5 192 528 192h-.038c-10.395 0-26.955-2.285-36.963-5.1-28.942 38.144-91.29 69.1-139.173 69.1-31.765 0-78.28-15.322-103.827-34.2-11.238 8.216-30.995 18.7-44.1 23.4 20.2 44 64.4 74.8 116.1 74.8 31.6 0 60.1-11.9 82.401-30.8C424.7 326.7 465.2 352 512 352zm-192 0c-66.3 0-122.8-40.8-146.9-98.5-8.057 1.382-21.23 2.503-29.404 2.503-30.356 0-75.154-14.158-99.995-31.603C17.1 247.9 0 281.8 0 320c0 70.656 57.343 128 128 128 46.8 0 87.3-25.3 109.6-62.8 22.3 18.9 50.8 30.8 82.4 30.8 37.967-.01 85.768-25.725 106.7-57.4-11.4-7.4-22.3-15.6-31.6-25.8-19.387 10.546-53.031 19.147-75.1 19.2z"/><glyph glyph-name="snow-blowing-secondary" unicode="􏝡" horiz-adv-x="640" d="M540.3 128c46.42 0 89.13-31.3 97.84-76.9.993-5.058 1.799-13.346 1.799-18.5 0-53.026-43.036-96.06-96.06-96.06-43.067 0-85.187 34.21-94.018 76.36a19.35 19.35 0 0 0-.291 3.04c0 8.827 7.164 16.022 15.99 16.06h32.84c6.6 0 13.1-3.8 15.21-10.1C517.68 9.875 531.285.116 543.98.116c17.697 0 32.06 14.364 32.06 32.06 0 1.452-.192 3.792-.428 5.224C573.01 53.1 558.1 64 542.2 64H308.82c-15.91 0-22.111 20.5-8.91 29.3l44 29.3c4.468 2.964 12.447 5.383 17.809 5.4H540.3zM400 160c-8.832 0-16 7.168-16 16v32c0 8.832 7.168 16 16 16h142.22c16 0 30.78 10.91 33.37 26.62.248 1.465.45 3.86.45 5.346 0 17.691-14.36 32.05-32.05 32.05-12.744 0-26.363-9.809-30.4-21.896-2.1-6.3-8.5-10.1-15.2-10.1h-32.8c-9.7 0-17.7 8.7-15.8 18.3 8.409 42.904 50.714 77.724 94.434 77.724 5.717 0 14.89-.987 20.477-2.204 36.2-7.6 65.51-36.91 73.109-73.12 1.223-5.598 2.215-14.79 2.215-20.52 0-53.006-43.02-96.103-96.025-96.2H400z"/><glyph glyph-name="stars-secondary" unicode="􏝢" d="M362.69 394.7L416 368l-53.3-26.7L336 288l-26.7 53.3L256 368l53.3 26.7L336 448zM480 256l32-16-32-16-16-32-16 32-32 16 32 16 16 32z"/><glyph glyph-name="sun-cloud-secondary" unicode="􏝣" horiz-adv-x="640" d="M429.4 64L441 28.7c4.6-13.5-8.3-26.4-21.9-21.9L318.7 40.3l-47.3-94.7c-2.635-5.301-9.58-9.604-15.5-9.604S243.036-59.7 240.4-54.4l-47.3 94.7L92.7 6.8c-13.5-4.6-26.4 8.3-21.9 21.9l33.5 100.5-94.7 47.3c-5.3 2.636-9.604 9.58-9.604 15.5S4.3 204.864 9.6 207.5l94.7 47.4-33.5 100.4c-4.6 13.5 8.3 26.4 21.9 21.9l100.5-33.5 47.3 94.7c2.636 5.3 9.58 9.604 15.5 9.604s12.865-4.303 15.5-9.604l47.3-94.8 100.4 33.5c13.5 4.6 26.4-8.3 21.9-21.9l-13.9-41.7c-23.24-8.195-51.284-32.61-62.6-54.5-4.229 7.051-12.337 17.535-18.1 23.4-20.563 19.97-60.514 36.177-89.177 36.177-70.656 0-128-57.344-128-128 0-28.663 16.207-68.615 36.177-89.177 43.4-43.3 110.3-48.9 159.9-16.9C339.62 73.26 365.874 64.077 384 64h45.4zm-92.5 179.3C307.8 226.8 288 195.8 288 160c.04-15.348 6.805-38.286 15.1-51.2-12.304-7.066-33.805-12.802-47.994-12.802-53.19 0-96.36 43.17-96.36 96.36 0 53.191 43.17 96.36 96.36 96.36 29.536 0 66.179-20.348 81.794-45.418z"/><glyph glyph-name="sun-dust-secondary" unicode="􏝤" d="M160 192c.035 52.956 43.044 95.936 96 95.936 21.912 0 52.287-12.56 67.8-28.036L188.1 124.2c-15.51 15.477-28.1 45.82-28.1 67.732V192zm259.3 185.2c1.494.522 3.99.947 5.572.947 3.95 0 9.384-2.305 12.128-5.147l-90.5-90.5c-20.562 19.97-60.514 36.177-89.177 36.177-70.656 0-128-57.344-128-128 0-28.663 16.207-68.615 36.177-89.177L75 11c-2.842 2.744-5.147 8.178-5.147 12.128 0 1.582.425 4.078.947 5.572l33.5 100.5-94.7 47.3c-5.301 2.636-9.604 9.58-9.604 15.5S4.3 204.864 9.6 207.5l94.7 47.4-33.5 100.4c-4.6 13.5 8.3 26.4 21.9 21.9l100.5-33.5 47.3 94.7c2.636 5.3 9.58 9.603 15.5 9.603s12.864-4.302 15.5-9.603l47.4-94.7z"/><glyph glyph-name="sun-haze-secondary" unicode="􏝥" horiz-adv-x="640" d="M471.7 254.9l93.7-46.9h-119c-3.4 27.2-15 53.6-35.9 74.5-20.706 20.659-61.25 37.426-90.5 37.426s-69.794-16.767-90.5-37.426c-20.9-20.9-32.5-47.3-35.9-74.5h-119l93.7 46.9-33.5 100.399c-4.6 13.5 8.3 26.4 21.9 21.9l100.5-33.5 47.3 94.7c2.636 5.301 9.58 9.604 15.5 9.604s12.864-4.303 15.5-9.603l47.4-94.7 100.4 33.5c13.5 4.599 26.4-8.3 21.9-21.901zM320 288c47.5 0 86.7-34.7 94.4-80H225.6c7.7 45.3 46.9 80 94.4 80z"/><glyph glyph-name="sunrise-secondary" unicode="􏝦" horiz-adv-x="576" d="M250.9 73.55c45.5 18.8 96.8.1 120.6-41.55H204.3c10.3 18 26 33 46.6 41.55zm260.8 20.1c8.998-.618 16.3-8.44 16.3-17.459 0-3.616-1.926-8.764-4.3-11.49L495.3 32h-87.6c-11.092 27.873-42.586 59.815-70.3 71.3-65.8 27.3-141.4-4.1-168.7-69.9-.2-.4-.2-.9-.4-1.4H80.7L52.3 64.75c-2.352 2.72-4.26 7.848-4.26 11.444 0 8.998 7.284 16.819 16.26 17.456l106.5 7.6 7.6 106.5c.637 8.976 8.457 16.26 17.457 16.26 3.595 0 8.722-1.908 11.443-4.26l80.7-70 80.7 70c2.721 2.352 7.848 4.26 11.444 4.26 8.999 0 16.819-7.284 17.456-16.26l7.6-106.5z"/><glyph glyph-name="sunset-secondary" unicode="􏝧" horiz-adv-x="576" d="M250.9 73.5c45.5 18.8 96.8.1 120.6-41.5H204.3c10.3 18 26 33 46.6 41.5zm260.8 20.1c8.976-.637 16.26-8.457 16.26-17.456 0-3.596-1.908-8.723-4.26-11.444L495.3 32h-87.6c-11.092 27.873-42.586 59.815-70.3 71.3-65.8 27.3-141.4-4.1-168.7-69.9-.2-.4-.2-.9-.4-1.4H80.7L52.3 64.7c-2.352 2.72-4.26 7.848-4.26 11.444 0 8.999 7.284 16.819 16.26 17.456l106.5 7.6 7.6 106.5c.637 8.976 8.457 16.26 17.457 16.26 3.595 0 8.722-1.908 11.443-4.26l80.7-70 80.7 70c2.721 2.352 7.848 4.26 11.444 4.26 8.999 0 16.82-7.284 17.456-16.26l7.6-106.5z"/><glyph glyph-name="temperature-frigid-secondary" unicode="􏝨" horiz-adv-x="576" d="M544.06 169.5c19.7-24.6 32-55.5 32-89.5 0-79.488-64.512-144-144-144-79.487 0-144 64.512-144 144 0 34 12.3 64.9 32 89.5V336c0 61.824 50.177 112 112 112 61.824 0 112-50.176 112-112V169.5zM432.06 0h.124c44.088 0 79.87 35.781 79.87 79.87 0 22.064-14.333 50.704-31.994 63.93V336c0 26.496-21.504 48-48 48-26.495 0-48-21.504-48-48V143.8c-17.66-13.226-31.993-41.866-31.993-63.93 0-44.089 35.782-79.87 79.87-79.87h.123z"/><glyph glyph-name="temperature-high-secondary" unicode="􏝩" d="M256 169.5c19.7-24.6 32-55.5 32-89.5C288 .512 223.488-64 144-64S0 .512 0 80c0 34 12.3 64.8 32 89.5V336c0 61.824 50.176 112 112 112s112-50.176 112-112V169.5zM144 0h.123c44.089 0 79.87 35.781 79.87 79.87 0 22.064-14.333 50.704-31.993 63.93V336c0 26.496-21.504 48-48 48s-48-21.504-48-48V143.8c-17.66-13.226-31.993-41.866-31.993-63.93 0-44.089 35.78-79.87 79.87-79.87H144z"/><glyph glyph-name="temperature-hot-secondary" unicode="􏝪" horiz-adv-x="640" d="M608 169.5c19.7-24.6 32-55.5 32-89.5C640 .5 575.5-64 496-64S352 .5 352 80c0 34 12.3 64.9 32 89.5V336c0 61.9 50.1 112 112 112s112-50.1 112-112V169.5zM496 0c25.2 0 48.9 11.8 64.1 32 26.4 35.3 19.2 85.4-16.1 111.8V336c0 26.5-21.5 48-48 48s-48-21.5-48-48V143.8c-20.2-15.2-32-38.9-32-64.1.1-44.1 35.9-79.8 80-79.7z"/><glyph glyph-name="temperature-low-secondary" unicode="􏝫" d="M256 169.5c19.7-24.6 32-55.5 32-89.5C288 .512 223.488-64 144-64S0 .512 0 80c0 34 12.3 64.8 32 89.5V336c0 61.824 50.176 112 112 112s112-50.176 112-112V169.5zM144 0h.123c44.089 0 79.87 35.781 79.87 79.87 0 22.064-14.333 50.704-31.993 63.93V336c0 26.496-21.504 48-48 48s-48-21.504-48-48V143.8c-17.66-13.226-31.993-41.866-31.993-63.93 0-44.089 35.78-79.87 79.87-79.87H144z"/><glyph glyph-name="thunderstorm-secondary" unicode="􏝬" d="M350 137.5l-98-194c-2.383-4.18-8.22-7.571-13.031-7.571-8.28 0-15 6.72-15 15 0 1 .193 2.6.431 3.571L256 96h-81.034c-8.28 0-15 6.72-15 15 0 .555.06 1.45.134 2l16 130c.997 7.16 7.673 12.982 14.9 13h82.016c8.28 0 15-6.72 15-15 0-1.096-.23-2.843-.516-3.9L264.92 160h72.09c8.28 0 15-6.72 15-15 0-2.219-.9-5.58-2.01-7.5z"/><glyph glyph-name="thunderstorm-moon-secondary" unicode="􏝭" horiz-adv-x="576" d="M567.94 224.2c6.2 1.2 10.6-6 6.4-10.8-24.02-29.422-74.34-53.3-112.322-53.3h-.278c-5.2 0-10.1 1-15.2 1.5-5.576 35.12-37.03 74.007-70.21 86.8-9.203 23.762-35.59 51.403-58.9 61.7 3.3 76.7 66.5 137.9 144.41 137.9h.068c7.355 0 19.196-1.076 26.431-2.401 3.052-.558 5.528-3.527 5.528-6.63 0-2.172-1.535-4.802-3.427-5.87-31.705-17.794-57.465-61.743-57.5-98.1 0-70.5 64.6-124.1 135-110.8zM276 112c6.624 0 12.008-5.376 12.008-12 0-1.774-.72-4.463-1.608-6l-88-152c-1.899-3.378-6.586-6.12-10.46-6.12-6.625 0-12 5.376-12 12 0 .818.16 2.127.36 2.92l23 97.2h-59.307c-6.624 0-12 5.376-12 12 0 .443.048 1.16.107 1.6l16 120c.795 5.72 6.126 10.379 11.9 10.4h68.027c6.624 0 12-5.376 12-12 0-.87-.182-2.259-.407-3.1l-17.3-64.9H276z"/><glyph glyph-name="thunderstorm-sun-secondary" unicode="􏝮" horiz-adv-x="576" d="M322 351.8c-.7 0-1.3.2-2 .2-20.792-.054-51.794-9.327-69.2-20.7-37.6 29.4-92.1 27.2-126.7-7.4-15.483-15.541-28.05-45.96-28.05-67.9s12.566-52.357 28.049-67.9c2.651-2.491 7.221-6.21 10.2-8.3-3.367-9.622-6.145-25.705-6.2-35.9 0-2.5.5-4.8.7-7.2L69.6 117c-1.102-.364-2.939-.66-4.1-.66-7.21 0-13.06 5.85-13.06 13.06 0 1.16.296 2.998.66 4.1l25.1 75.3-71 35.5c-3.992 1.977-7.231 7.196-7.231 11.65s3.24 9.673 7.231 11.65l71 35.5-25.1 75.3c-.377 1.117-.683 2.98-.683 4.158 0 7.176 5.824 13 13 13 1.156 0 2.986-.295 4.083-.657l75.3-25.101 35.5 71c1.977 3.992 7.196 7.231 11.65 7.231s9.673-3.239 11.65-7.231l35.5-71 75.3 25.1c1.117.378 2.98.683 4.158.683 7.176 0 13-5.824 13-13 0-1.156-.295-2.985-.657-4.083zM128 256c.033 35.295 28.705 63.967 64 64 10.122-.022 25.265-4.458 33.8-9.9-13.964-15.092-28.255-43.764-31.9-64-15.126-6.943-35.196-23.609-44.8-37.2-11.617 10.405-21.069 31.505-21.1 47.1zm308-144c6.624 0 12.008-5.376 12.008-12 0-1.774-.72-4.463-1.608-6l-88-152c-1.899-3.378-6.586-6.12-10.46-6.12-6.625 0-12 5.376-12 12 0 .818.16 2.127.36 2.92l23 97.2h-59.307c-6.624 0-12 5.376-12 12 0 .443.048 1.16.107 1.6l16 120c.795 5.72 6.126 10.379 11.9 10.4h68.008c6.623 0 12-5.376 12-12 0-.87-.183-2.259-.408-3.1L378.3 112H436z"/><glyph glyph-name="tornado-secondary" unicode="􏝯" d="M393.86 352c-9.7-35.1-3.2-62.2 10.9-85.3H54.92c-18.21 23.2-33.01 51.1-42.71 85.3h381.65zM512 117.3c.57-23.3-9-50.9-34.13-85.3H352.35c1.1 39.5-20.3 64.8-53.3 85.3H512z"/><glyph glyph-name="volcano-secondary" unicode="􏝰" d="M351.5 432c35.58 0 64.5-28.7 64.5-64s-28.92-64-64.5-64c-10.528.007-26.24 4.666-35.07 10.4L287 256h-64.5l-29.42 58.4c-8.834-5.732-24.55-10.391-35.08-10.4-35.57 0-64.49 28.7-64.49 64s28.92 64 64.49 64c13.028-.043 31.634-6.955 41.53-15.43 10.315 17.34 35.06 31.41 55.235 31.41s44.92-14.07 55.235-31.41c9.886 8.478 28.478 15.39 41.5 15.43zm-47.1-208c8.632-.003 19.966-5.513 25.3-12.3l55-70.2-45.1-52.6c-9.8-11.4-29.2-11.4-39 0L269 125.7c-11.2 13.1-27.6 21.6-44.8 20.1-14.993-.2-34.75-9.877-44.1-21.6-9.8-12.2-30.3-12.2-40.1 0l-13.2 16.5 55.6 71c5.3 6.785 16.59 12.295 25.2 12.3h96.8z"/><glyph glyph-name="vote-nay-secondary" unicode="􏝱" horiz-adv-x="640" d="M512 383.7V64H128v319.7c.038 17.83 14.54 32.3 32.37 32.3h319.34c17.824 0 32.29-14.466 32.29-32.29v-.01zM404.8 166.5c2.565 2.59 4.648 7.653 4.648 11.3s-2.083 8.709-4.648 11.3L353.9 240l50.8 50.9c2.566 2.591 4.648 7.654 4.648 11.3s-2.082 8.71-4.648 11.3l-11.3 11.3c-2.591 2.565-7.654 4.648-11.3 4.648s-8.708-2.083-11.3-4.648l-50.9-50.9-50.9 50.9c-2.59 2.565-7.653 4.648-11.3 4.648s-8.709-2.083-11.3-4.648l-11.3-11.3c-2.566-2.59-4.648-7.653-4.648-11.3s2.082-8.709 4.648-11.3l51-50.9-50.9-50.9c-2.565-2.591-4.648-7.654-4.648-11.3s2.083-8.71 4.648-11.3l11.3-11.3c2.591-2.565 7.654-4.648 11.3-4.648s8.709 2.083 11.3 4.648l50.9 50.9 50.9-50.9c2.591-2.565 7.654-4.648 11.3-4.648s8.71 2.083 11.3 4.648z"/><glyph glyph-name="vote-yea-secondary" unicode="􏝲" horiz-adv-x="640" d="M512 383.7V64H128v319.7c.038 17.83 14.54 32.3 32.37 32.3h319.34c17.824 0 32.29-14.466 32.29-32.29v-.01zm-83.2-100.5c1.788 1.732 3.24 5.16 3.24 7.648 0 2.445-1.407 5.828-3.14 7.552l-25.3 25.5c-1.733 1.788-5.16 3.24-7.649 3.24-2.444 0-5.827-1.407-7.55-3.14l-95.2-94.4-41.3 41.6c-1.733 1.788-5.16 3.24-7.65 3.24-2.444 0-5.827-1.407-7.55-3.14L211.2 246c-1.761-1.729-3.19-5.133-3.19-7.6 0-2.468 1.429-5.872 3.19-7.6l74.099-74.7c1.732-1.789 5.16-3.24 7.65-3.24 2.444 0 5.827 1.406 7.55 3.14z"/><glyph glyph-name="water-secondary" unicode="􏝳" horiz-adv-x="576" d="M562.2 352.14c8.1-.9 13.9-8.3 13.8-16.3v-31.61c0-9.1-7.6-16.8-16.7-16-23.479 2.073-58.924 13.618-79.12 25.77-55-34.11-135.52-34.61-192 0-55-34.11-135.52-34.61-192 0-23.31-14.5-50.61-23.4-79.42-25.9-9.1-.8-16.7 6.9-16.7 16v32.24c0 7.9 5.7 14.9 13.6 15.7 21.71 2.3 42.21 10.2 57.71 22.41 13.8 10.9 33.61 13.2 47.11 2 38.31-31.71 107.22-31.81 145.23-1.7 13.7 10.9 33.2 13 46.7 1.8 38.51-31.91 107.82-31.91 145.729-1.5 5.845 4.637 16.644 8.4 24.105 8.4s18.26-3.763 24.105-8.4c15.8-12.41 36.4-20.41 57.91-22.91h-.06z"/><glyph glyph-name="water-lower-secondary" unicode="􏝴" horiz-adv-x="576" d="M562.2.1c8.1-.9 13.9-8.3 13.74-16.3v-31.6c0-9.1-7.6-16.8-16.7-16-23.481 2.08-58.927 13.639-79.12 25.8-55-34.1-135.49-34.6-192 0-55-34.1-135.49-34.6-192 0C72.81-52.5 45.51-61.4 16.7-63.9 7.6-64.7 0-57 0-47.9v32.2C0-7.8 5.7-.8 13.6 0c21.71 2.3 42.21 10.2 57.71 22.4 13.8 10.9 33.61 13.2 47.11 2 38.31-31.7 107.23-31.8 145.23-1.7 13.699 10.9 33.199 13 46.699 1.8 38.51-31.9 107.82-31.9 145.73-1.5 5.845 4.637 16.645 8.4 24.105 8.4 7.46 0 18.26-3.763 24.105-8.4 15.8-12.4 36.4-20.5 57.91-22.9zm0 144c8.1-.9 13.9-8.3 13.74-16.3V96.2c0-9.1-7.6-16.8-16.7-16-23.481 2.08-58.927 13.64-79.12 25.8-55-34.1-135.49-34.6-192 0-55-34.1-135.49-34.6-192 0C72.81 91.5 45.51 82.6 16.7 80.1 7.6 79.3 0 87 0 96.1v32.2c0 7.9 5.7 14.9 13.6 15.7 21.71 2.3 42.21 10.2 57.71 22.4 13.8 10.9 33.61 13.2 47.11 2 38.31-31.7 107.23-31.8 145.23-1.7 13.699 10.9 33.199 13 46.699 1.8 38.51-31.9 107.82-31.9 145.73-1.5 5.845 4.637 16.645 8.4 24.105 8.4 7.46 0 18.26-3.763 24.105-8.4 15.8-12.4 36.4-20.5 57.91-22.9z"/><glyph glyph-name="water-rise-secondary" unicode="􏝵" horiz-adv-x="576" d="M562.2.15c8.1-.9 13.9-8.3 13.74-16.3v-31.6c0-9.1-7.6-16.8-16.7-16-23.481 2.08-58.927 13.639-79.12 25.8-55-34.1-135.49-34.6-192 0-55-34.1-135.49-34.6-192 0-23.31-14.5-50.61-23.4-79.42-25.9-9.1-.8-16.7 6.9-16.7 16v32.2C0-7.75 5.7-.75 13.6.05c21.71 2.3 42.21 10.2 57.71 22.4 13.8 10.9 33.61 13.2 47.11 2 38.31-31.7 107.23-31.8 145.23-1.7 13.699 10.9 33.199 13 46.699 1.8 38.51-31.9 107.82-31.9 145.73-1.5 5.845 4.637 16.645 8.4 24.105 8.4 7.46 0 18.26-3.763 24.105-8.4 15.8-12.4 36.4-20.5 57.91-22.9zm0 144c8.1-.9 13.9-8.3 13.74-16.3v-31.6c0-9.1-7.6-16.8-16.7-16-23.481 2.08-58.927 13.638-79.12 25.8-55-34.1-135.49-34.6-192 0-55-34.1-135.49-34.6-192 0-23.31-14.5-50.61-23.4-79.42-25.9-9.1-.8-16.7 6.9-16.7 16v32.2c0 7.9 5.7 14.9 13.6 15.7 21.71 2.3 42.21 10.2 57.71 22.4 13.8 10.9 33.61 13.2 47.11 2 38.31-31.7 107.23-31.8 145.23-1.7 13.699 10.9 33.199 13 46.699 1.8 38.51-31.9 107.82-31.9 145.73-1.5 5.845 4.636 16.645 8.399 24.105 8.399 7.46 0 18.26-3.763 24.105-8.4 15.8-12.399 36.4-20.5 57.91-22.899z"/><glyph glyph-name="wind-warning-secondary" unicode="􏝶" horiz-adv-x="640" d="M384 256c0-106-86-192-192-192S0 150 0 256s86 192 192 192 192-86 192-192zM192 128c17.664 0 32 14.336 32 32s-14.336 32-32 32-32-14.336-32-32 14.336-32 32-32zm38.2 238.4c.044.44.08 1.157.08 1.6 0 8.82-7.16 15.989-15.98 16h-44.6c-8.821-.011-15.98-7.18-15.98-16 0-.443.036-1.16.08-1.6l12.8-128c.797-7.94 7.921-14.39 15.9-14.4h19c7.978.01 15.102 6.46 15.9 14.4z"/><glyph glyph-name="windsock-secondary" unicode="􏝷" d="M106.64 416c2.959-6.259 5.36-16.957 5.36-23.88 0-19.537-14.336-42.17-32-50.52V-48c0-8.832-7.168-16-16-16H48c-8.832 0-16 7.168-16 16v389.6C14.421 349.987.154 372.602.154 392.08c0 30.872 25.056 55.929 55.93 55.929 19.547 0 42.197-14.34 50.556-32.009z"/></font>
</defs>
</svg>
