<svg xmlns="http://www.w3.org/2000/svg"><defs><font id="FontAwesome5Duotone-Solid" horiz-adv-x="512"><font-face font-family="Font Awesome 5 Duotone Solid" font-weight="900" units-per-em="512" panose-1="2 0 5 3 0 0 0 0 0 0" ascent="448" descent="-64" bbox="-0.0791016 -64.0928 640.06 448.049" underline-thickness="25" underline-position="-51" unicode-range="U+0020-10F89B"/><glyph glyph-name="glass-martini-primary" unicode="" d="M405.12 384L256 234.87 106.84 384h298.28z"/><glyph glyph-name="tint-primary" unicode="" horiz-adv-x="352" d="M176 0C114.253.077 64.077 50.253 64 112c0 8.832 7.168 16 16 16s16-7.168 16-16c.05-44.11 35.89-79.95 80-80 8.832 0 16-7.168 16-16s-7.168-16-16-16z"/><glyph glyph-name="cut-primary" unicode="" horiz-adv-x="448" d="M444.48 358.43L185.36 99.26c3.69-9.357 6.684-25.116 6.684-35.175 0-52.936-42.963-95.9-95.9-95.9-52.937 0-95.9 42.964-95.9 95.9s42.963 95.9 95.9 95.9c3.664 0 9.585-.41 13.216-.914L325.69 375.43c13.58 13.58 40.19 24.601 59.394 24.601S430.9 389.01 444.48 375.43c1.948-1.942 3.53-5.75 3.53-8.5s-1.582-6.559-3.53-8.5zM96 32c17.664 0 32 14.336 32 32s-14.336 32-32 32-32-14.336-32-32 14.336-32 32-32z"/><glyph glyph-name="magic-primary" unicode="" d="M359.44 165.36l-220-220c-5.174-5.173-15.31-9.37-22.625-9.37-7.316 0-17.452 4.197-22.625 9.37L9.38 30.23C4.207 35.403.01 45.54.01 52.855c0 7.316 4.198 17.451 9.37 22.625l220 220z"/><glyph glyph-name="smile-primary" unicode="" d="M336 272c17.664 0 32-14.336 32-32s-14.336-32-32-32-32 14.336-32 32 14.336 32 32 32zm-160 0c17.664 0 32-14.336 32-32s-14.336-32-32-32-32 14.336-32 32 14.336 32 32 32z"/><glyph glyph-name="frown-primary" unicode="" d="M176 272c17.664 0 32-14.336 32-32s-14.336-32-32-32-32 14.336-32 32 14.336 32 32 32zm160 0c17.664 0 32-14.336 32-32s-14.336-32-32-32-32 14.336-32 32 14.336 32 32 32z"/><glyph glyph-name="meh-primary" unicode="" d="M336 272c17.664 0 32-14.336 32-32s-14.336-32-32-32-32 14.336-32 32 14.336 32 32 32zm-160 0c17.664 0 32-14.336 32-32s-14.336-32-32-32-32 14.336-32 32 14.336 32 32 32z"/><glyph glyph-name="crop-primary" unicode="" d="M416 384c17.664 0 32-14.336 32-32V-40c0-13.248-10.752-24-24-24h-48c-13.248 0-24 10.752-24 24v328H192v96h224zM0 360c0 13.248 10.752 24 24 24h40v-96H24c-13.248 0-24 10.752-24 24v48z"/><glyph glyph-name="taxi-primary" unicode="" d="M462 206.45c27.6-6.188 50-34.165 50-62.45V96c0-35.328-28.672-64-64-64H64C28.672 32 0 60.672 0 96v48c0 28.285 22.4 56.262 50 62.45l22 84.75c9.6 35.2 41.6 60.8 76.8 60.8h214.4c35.2 0 67.2-25.6 76.8-60.8zm-328.25 67.91L116.55 208h278.9l-17.39 67.14c-2.02 7.38-9.38 12.86-14.85 12.86h-214.4c-5.47 0-12.81-5.48-15.06-13.64zM96 96c17.664 0 32 14.336 32 32s-14.336 32-32 32-32-14.336-32-32 14.336-32 32-32zm320 0c17.664 0 32 14.336 32 32s-14.336 32-32 32-32-14.336-32-32 14.336-32 32-32z"/><glyph glyph-name="eye-dropper-primary" unicode="" d="M483.9 284.1L406.8 207l13.1-13.1c9.4-9.4 9.4-24.6 0-33.9l-41-41c-9.4-9.3-24.5-9.3-33.9 0L183 281c-9.4 9.4-9.4 24.6 0 33.9l41 41c9.4 9.4 24.6 9.4 33.9 0l13.1-13.2 77.1 77.1c37.5 37.5 98.3 37.5 135.8 0s37.5-98.2 0-135.7z"/><glyph glyph-name="paint-brush-primary" unicode="" d="M255 65.32c.41-2.506.857-6.595 1-9.13C256-20.23 203.87-64 128-64 37.94-64 0 8.38 0 90.73c9.79-6.68 44.14-34.35 55.25-34.35l.265-.002c5.88 0 12.298 4.48 14.325 10.002 20.66 54.44 57.07 69.72 97.19 72.3z"/><glyph glyph-name="bus-primary" unicode="" d="M488 320c13.248 0 24-10.752 24-24v-80c0-13.248-10.752-24-24-24h-8V32c0-17.664-14.336-32-32-32H64C46.336 0 32 14.336 32 32v160h-8c-13.248 0-24 10.752-24 24v80c0 13.248 10.752 24 24 24h8v48c0 44.8 99.2 80 224 80s224-35.2 224-80v-48h8zm-392 0V192c0-17.664 14.336-32 32-32h256c17.664 0 32 14.336 32 32v128c0 17.664-14.336 32-32 32H128c-17.664 0-32-14.336-32-32zm16-272c17.664 0 32 14.336 32 32s-14.336 32-32 32-32-14.336-32-32 14.336-32 32-32zm288 0c17.664 0 32 14.336 32 32s-14.336 32-32 32-32-14.336-32-32 14.336-32 32-32z"/><glyph glyph-name="bed-primary" unicode="" horiz-adv-x="640" d="M640 160V16c0-8.832-7.168-16-16-16h-32c-8.832 0-16 7.168-16 16v48H64V16c0-8.832-7.168-16-16-16H16C7.168 0 0 7.168 0 16v352c0 8.832 7.168 16 16 16h32c8.832 0 16-7.168 16-16V160h576z"/><glyph glyph-name="map-primary" unicode="" horiz-adv-x="576" d="M0 330.34c.02 11.94 9.033 25.227 20.12 29.66L160 416V32L21.94-30.86c-1.579-.631-4.24-1.144-5.94-1.144-8.832 0-16 7.168-16 16V330.34zm554.06 84.5c1.58.632 4.24 1.144 5.94 1.144 8.824 0 15.992-7.16 16-15.984V53.66c0-11.96-9.014-25.27-20.12-29.71L416-32v384z"/><glyph glyph-name="pen-primary" unicode="" d="M12.85 76.89l277.93 277.87 128-128-278-278-114.14-12.6a29.009 29.009 0 0 0-2.637-.146c-13.248 0-24 10.752-24 24 0 .736.065 1.925.147 2.656z"/><glyph glyph-name="pen-alt-primary" unicode="" d="M336 309.51l82.77-82.77L222 29.95C177.176-14.871 89.663-56.893 26.66-63.85a28.767 28.767 0 0 0-2.66-.147c-13.247 0-24 10.753-24 24 0 .737.067 1.927.149 2.658v.23C7.16 25.828 49.204 113.238 94 158l151.52 151.52-22.63 22.62-101.82-101.819c-2.586-2.588-7.656-4.687-11.315-4.687s-8.728 2.1-11.314 4.687l-22.631 22.63c-2.584 2.586-4.683 7.653-4.683 11.31 0 3.657 2.099 8.723 4.683 11.31l118.78 118.79c6.466 6.465 19.136 11.711 28.28 11.711s21.813-5.246 28.28-11.71z"/><glyph glyph-name="smile-wink-primary" unicode="" d="M396 225.8c1.7-11.1-11.4-18.3-19.8-10.8l-9.7 8.5c-14.8 13.2-46.2 13.2-61 0L296 215c-8.3-7.4-21.6-.4-19.8 10.8 4 25.2 34.2 42.1 59.9 42.1 25.7 0 55.9-16.9 59.9-42.1zM176 272c17.664 0 32-14.336 32-32s-14.336-32-32-32-32 14.336-32 32 14.336 32 32 32z"/><glyph glyph-name="wine-glass-primary" unicode="" horiz-adv-x="320" d="M224.35 194.38c-9.788-13.28-30.773-27.102-46.84-30.85-4.766-1.105-12.606-2.003-17.5-2.003-4.892 0-12.733.898-17.5 2.003-16.066 3.75-37.05 17.57-46.84 30.85C87.02 206.055 80 227.322 80 241.853c0 2.154.17 5.643.38 7.787L92.39 384h135.24l12-134.36c.213-2.154.386-5.66.386-7.824 0-14.52-7.019-35.772-15.666-47.436z"/><glyph glyph-name="feather-primary" unicode="" d="M24-64h-.059c-13.248 0-24 10.752-24 24 0 5.501 3.163 13.117 7.059 17l264 264c3.887 3.887 11.503 7.042 17 7.042 13.27 0 24.042-10.772 24.042-24.042 0-5.497-3.155-13.113-7.042-17L41-57c-3.867-3.864-11.441-7-16.908-7H24z"/><glyph glyph-name="angry-primary" unicode="" d="M212.6 247.33c6.303-1.884 11.41-8.752 11.41-15.33 0-8.832-7.169-16-16-16H207c.561-2.172 1.016-5.756 1.016-8 0-17.663-14.336-32-32-32s-32 14.337-32 32c0 7.693 4.571 18.19 10.204 23.43l-30.82 9.24c-6.295 1.89-11.404 8.757-11.404 15.33 0 8.835 7.17 16.005 16.004 16.005 1.297 0 3.358-.302 4.6-.675zm187.73 13.27c.372-1.241.675-3.3.675-4.598 0-6.58-5.118-13.45-11.425-15.332L358 231.2c5.509-5.224 9.98-15.625 9.98-23.218 0-17.664-14.337-32-32-32s-32 14.336-32 32c0 2.249.456 5.842 1.02 8.018-8.824.008-15.985 7.176-15.985 16 0 6.564 5.1 13.427 11.385 15.32l80 24c1.243.375 3.307.677 4.606.677 6.569 0 13.434-5.105 15.324-11.397z"/><glyph glyph-name="archway-primary" unicode="" horiz-adv-x="576" d="M576-16v-32c0-8.832-7.168-16-16-16H400c-8.832 0-16 7.168-16 16v176c0 52.992-43.008 96-96 96s-96-43.008-96-96V-48c0-8.832-7.168-16-16-16H16C7.168-64 0-56.832 0-48v32C0-7.168 7.168 0 16 0h16v352h512V0h16c8.832 0 16-7.168 16-16z"/><glyph glyph-name="atlas-primary" unicode="" horiz-adv-x="448" d="M224 350.69c7.69-7.45 20.77-34.43 23.44-78.69h-46.87c2.66 44.27 15.74 71.24 23.43 78.69zM318.38 240c-4.625-27.068-28.503-58.612-53.3-70.41 7.67 19.06 12.72 43.41 14.21 70.41h39.09zm0 32h-39.09c-1.49 27-6.53 51.35-14.21 70.41 24.794-11.8 48.673-43.344 53.3-70.41zM182.92 169.59c-24.797 11.798-48.675 43.342-53.3 70.41h39.09c1.49-27 6.53-51.35 14.21-70.41zM247.43 240c-2.66-44.26-15.74-71.24-23.44-78.69-7.69 7.45-20.77 34.43-23.43 78.69h46.87zM96 64c-16 0-32-12.8-32-32S76.8 0 96 0h328c13.248 0 24-10.752 24-24v-16c0-13.248-10.752-24-24-24H96C43.008-64 0-20.992 0 32v320c0 52.992 43.008 96 96 96h320c17.664 0 32-14.336 32-32V88c0-13.248-10.752-24-24-24H96zm128 320c-70.656 0-128-57.344-128-128s57.344-128 128-128 128 57.344 128 128-57.344 128-128 128zm-41.08-41.59C175.24 323.35 170.2 299 168.71 272h-39.09c4.625 27.068 28.503 58.612 53.3 70.41z"/><glyph glyph-name="backspace-primary" unicode="" horiz-adv-x="640" d="M491.31 129.94c2.588-2.587 4.688-7.656 4.688-11.315s-2.1-8.729-4.688-11.316L468.69 84.69c-2.586-2.588-7.655-4.688-11.314-4.688s-8.729 2.1-11.316 4.688L384 146.75l-62.06-62.06c-2.586-2.588-7.655-4.688-11.314-4.688s-8.729 2.1-11.316 4.688l-22.619 22.62c-2.588 2.586-4.688 7.655-4.688 11.315s2.1 8.728 4.688 11.315l62.06 62.06-62.06 62.06c-2.588 2.586-4.688 7.655-4.688 11.315s2.1 8.728 4.688 11.315l22.62 22.62c2.586 2.587 7.655 4.688 11.314 4.688s8.729-2.101 11.316-4.689L384 237.25l62.06 62.06c2.586 2.588 7.655 4.689 11.314 4.689s8.729-2.101 11.316-4.689l22.619-22.619c2.588-2.587 4.688-7.656 4.688-11.315s-2.1-8.729-4.688-11.316L429.25 192z"/><glyph glyph-name="bezier-curve-primary" unicode="" horiz-adv-x="640" d="M208 360v-72c.014-7.65 2.63-19.495 5.84-26.44-29.639-21.01-61.447-66.508-71-101.56h-49.4c11.74 55.285 60.824 123.38 109.56 152h-79.75c-8.931-22.08-35.511-40-59.329-40-35.328 0-64 28.671-64 64s28.672 64 64 64c23.818 0 50.398-17.92 59.33-40H208zm368 40h.06c35.328 0 64-28.672 64-64s-28.672-64-64-64c-23.819 0-50.398 17.92-59.33 40H437c48.723-28.626 97.787-96.722 109.52-152h-49.4c-9.552 35.052-41.36 80.55-71 101.56 3.218 6.943 5.852 18.788 5.88 26.44v72h84.75c8.909 22.069 35.453 39.989 59.25 40z"/><glyph glyph-name="bong-primary" unicode="" horiz-adv-x="448" d="M443.31 230.63c2.588-2.587 4.688-7.656 4.688-11.315s-2.1-8.728-4.688-11.315l-11.3-11.32c-2.587-2.587-7.656-4.688-11.314-4.688-3.66 0-8.729 2.1-11.316 4.688l-9.38 9.38-43.44-43.4c15.15-25.119 27.446-69.311 27.446-98.645 0-28.201-11.426-70.92-25.506-95.355-10.243-17.952-35.33-32.584-56-32.66h-221c-20.667.08-45.754 14.712-56 32.66C11.424-6.975 0 35.64 0 63.778V64c0 71 38.67 132.9 96 166.11V384H80c-8.832 0-16 7.168-16 16v31.74c0 8.832 7.168 16 16 16l224 .26c8.832 0 16-7.168 16-16v-31.74c0-8.832-7.168-16-16-16h-16V230.1c11.7-6.796 29.015-20.022 38.65-29.52l39.41 39.41-9.38 9.38c-2.587 2.587-4.687 7.657-4.687 11.315 0 3.66 2.1 8.729 4.687 11.315l11.31 11.32c2.588 2.588 7.657 4.688 11.315 4.688 3.66 0 8.729-2.1 11.316-4.687zm-126.39-238C327.451 10.918 336 42.896 336 64c0 93.78-79.85 129.09-96 138.44v181.369h-96V202.44C127.85 193.09 48 157.78 48 64c.001-21.104 8.549-53.072 19.08-71.36 2.61-4.673 9.07-8.544 14.42-8.64h221c5.35.094 11.81 3.96 14.42 8.63z"/><glyph glyph-name="brush-primary" unicode="" horiz-adv-x="384" d="M0 160h384v-32c0-35.328-28.672-64-64-64h-64V0c0-35.328-28.672-64-64-64s-64 28.672-64 64v64H64C28.672 64 0 92.672 0 128v32zM192-24c13.248 0 24 10.752 24 24s-10.752 24-24 24-24-10.752-24-24 10.752-24 24-24z"/><glyph glyph-name="bus-alt-primary" unicode="" d="M488 320c13.248 0 24-10.752 24-24v-80c0-13.248-10.752-24-24-24h-8V32c0-17.664-14.336-32-32-32H64C46.336 0 32 14.336 32 32v160h-8c-13.248 0-24 10.752-24 24v80c0 13.248 10.752 24 24 24h8v48c0 44.8 99.2 80 224 80s224-35.2 224-80v-48h8zM112 48c17.664 0 32 14.336 32 32s-14.336 32-32 32-32-14.336-32-32 14.336-32 32-32zm128 112v160H128c-17.664 0-32-14.336-32-32v-96c0-17.664 14.336-32 32-32h112zm-72 192h176c4.416 0 8 3.584 8 8v16c0 4.416-3.584 8-8 8H168c-4.416 0-8-3.584-8-8v-16c0-4.416 3.584-8 8-8zm104-32V160h112c17.664 0 32 14.336 32 32v96c0 17.664-14.336 32-32 32H272zM400 48c17.664 0 32 14.336 32 32s-14.336 32-32 32-32-14.336-32-32 14.336-32 32-32z"/><glyph glyph-name="cannabis-primary" unicode="" d="M272 168V-56c0-4.416-3.584-8-8-8h-16c-4.416 0-8 3.584-8 8v224c0 4.416 3.584 8 8 8h16c4.416 0 8-3.584 8-8z"/><glyph glyph-name="cocktail-primary" unicode="" horiz-adv-x="576" d="M7.27 277.95C-8.25 293.47 2.74 320 24.69 320h366.64c21.95 0 32.94-26.53 17.42-42.05L240 109.22V-16h56c22.08 0 40-17.92 40-40 0-4.416-3.584-8-8-8H88c-4.416 0-8 3.584-8 8 0 22.08 17.92 40 40 40h56v125.22z"/><glyph glyph-name="concierge-bell-primary" unicode="" d="M480 96H32c0 123.71 100.29 224 224 224S480 219.71 480 96z"/><glyph glyph-name="cookie-primary" unicode="" d="M368 176c17.664 0 32-14.336 32-32s-14.336-32-32-32-32 14.336-32 32 14.336 32 32 32zM208 304c17.664 0 32-14.336 32-32s-14.336-32-32-32-32 14.336-32 32 14.336 32 32 32zm-32-160c17.664 0 32-14.336 32-32s-14.336-32-32-32-32 14.336-32 32 14.336 32 32 32z"/><glyph glyph-name="cookie-bite-primary" unicode="" d="M368 176c17.664 0 32-14.336 32-32s-14.336-32-32-32-32 14.336-32 32 14.336 32 32 32zM208 304c17.664 0 32-14.336 32-32s-14.336-32-32-32-32 14.336-32 32 14.336 32 32 32zm-32-160c17.664 0 32-14.336 32-32s-14.336-32-32-32-32 14.336-32 32 14.336 32 32 32z"/><glyph glyph-name="crop-alt-primary" unicode="" d="M416 384c17.664 0 32-14.336 32-32V-40c0-13.248-10.752-24-24-24h-48c-13.248 0-24 10.752-24 24v328H192v96h224zM0 360c0 13.248 10.752 24 24 24h40v-96H24c-13.248 0-24 10.752-24 24v48z"/><glyph glyph-name="digital-tachograph-primary" unicode="" horiz-adv-x="640" d="M608 352c17.664 0 32-14.336 32-32V64c0-17.664-14.336-32-32-32H32C14.336 32 0 46.336 0 64v256c0 17.664 14.336 32 32 32h576zM304 96v8c0 4.416-3.584 8-8 8H72c-4.416 0-8-3.584-8-8v-8c0-4.416 3.584-8 8-8h224c4.416 0 8 3.584 8 8zM72 160c0-4.416 3.584-8 8-8h16c4.416 0 8 3.584 8 8v16c0 4.416-3.584 8-8 8H80c-4.416 0-8-3.584-8-8v-16zm64 0c0-4.416 3.584-8 8-8h16c4.416 0 8 3.584 8 8v16c0 4.416-3.584 8-8 8h-16c-4.416 0-8-3.584-8-8v-16zm64 0c0-4.416 3.584-8 8-8h16c4.416 0 8 3.584 8 8v16c0 4.416-3.584 8-8 8h-16c-4.416 0-8-3.584-8-8v-16zm64 0c0-4.416 3.584-8 8-8h16c4.416 0 8 3.584 8 8v16c0 4.416-3.584 8-8 8h-16c-4.416 0-8-3.584-8-8v-16zm40 64v48c0 8.832-7.168 16-16 16H80c-8.832 0-16-7.168-16-16v-48c0-8.832 7.168-16 16-16h208c8.832 0 16 7.168 16 16zM576 96v8c0 4.416-3.584 8-8 8H344c-4.416 0-8-3.584-8-8v-8c0-4.416 3.584-8 8-8h224c4.416 0 8 3.584 8 8z"/><glyph glyph-name="dizzy-primary" unicode="" d="M403.3 227.3c15.2-15.2-7.9-37.4-22.6-22.6L352 233.4l-28.7-28.7c-14.8-14.8-37.8 7.5-22.6 22.6l28.7 28.7-28.7 28.7c-15 15 7.7 37.6 22.6 22.6l28.7-28.7 28.7 28.7c15 15 37.6-7.7 22.6-22.6L374.6 256zM182.6 256l28.7-28.7c15.2-15.2-7.9-37.4-22.6-22.6L160 233.4l-28.7-28.7c-14.8-14.8-37.8 7.5-22.6 22.6l28.7 28.7-28.7 28.7c-15 15 7.7 37.6 22.6 22.6l28.7-28.7 28.7 28.7c15 15 37.6-7.7 22.6-22.6z"/><glyph glyph-name="drafting-compass-primary" unicode="" d="M457.21 103.25L512 8.35l-7-58.25c-.95-7.76-8.064-14.056-15.882-14.056-1.814 0-4.64.581-6.308 1.296l-53.95 23-54.5 94.4c24.907 9.904 62.024 31.637 82.85 48.51zM340.9 304.7l50.98-88.32c-19.325-19.383-56.352-41.268-82.65-48.85L258.74 255h-2.24c-1.08 0-2.15.06-3.22.06L83.17-39.7l-54-23c-1.662-.71-4.478-1.287-6.285-1.287-7.831 0-14.948 6.31-15.885 14.086L0 8.35l171.61 297.23c-6.411 11.857-11.614 32.419-11.614 45.899 0 53.267 43.231 96.5 96.5 96.5 53.267 0 96.5-43.233 96.5-96.5 0-13.775-5.42-34.732-12.096-46.779zM256.5 320c17.388 0 31.5 14.112 31.5 31.5S273.888 383 256.5 383 225 368.888 225 351.5s14.112-31.5 31.5-31.5z"/><glyph glyph-name="drum-primary" unicode="" horiz-adv-x="576" d="M576 224V64c0-30.48-24-58.46-64-80.44V80c0 17.664-14.336 32-32 32s-32-14.336-32-32V-42.43c-37.4-11.13-81-18.46-128-20.77V48c0 17.664-14.336 32-32 32s-32-14.336-32-32V-63.2c-47 2.31-90.6 9.64-128 20.77V80c0 17.664-14.336 32-32 32S64 97.664 64 80v-96.43c-40 22-64 50-64 80.44V224c0 70.69 128.94 128 288 128 21.847-.013 57.167-2.252 78.84-5l-71.91-43.14c-2.31 0-4.59.12-6.93.12-132.55 0-240-35.82-240-80s107.45-80 240-80 240 35.81 240 80c0 30.27-50.45 56.6-124.82 70.19l54.9 32.94C529.46 303.83 576 266.37 576 224z"/><glyph glyph-name="drum-steelpan-primary" unicode="" horiz-adv-x="576" d="M288 416c159.06 0 288-57.31 288-128V96c0-70.69-128.94-128-288-128S0 25.31 0 96v192c0 70.69 128.94 128 288 128zm-83-158.36c1.402 5.19 2.54 13.765 2.54 19.14 0 10.918-4.453 27.441-9.94 36.88L172 358c-73.89-13.61-124-39.84-124-70 0-30.78 52.23-57.46 128.69-70.84 11.83 8.364 24.513 26.498 28.31 40.48zM288 208c21.08 0 41.41 1 60.89 2.7-8.06 26.13-32.15 45.3-60.89 45.3s-52.83-19.17-60.89-45.3c19.48-1.7 39.81-2.7 60.89-2.7zm64 144v13c-20.4 1.92-41.8 3-64 3s-43.6-1.12-64-3v-13c0-35.328 28.672-64 64-64s64 28.672 64 64zm46.93-134.9C475.6 230.46 528 257.17 528 288c0 30.21-50.28 56.5-124.44 70.1l-25.63-44.42c-5.495-9.424-9.955-25.927-9.955-36.836 0-20.916 13.868-47.681 30.955-59.744z"/><glyph glyph-name="feather-alt-primary" unicode="" d="M24-64h-.059c-13.248 0-24 10.752-24 24 0 5.501 3.163 13.117 7.059 17l264 264c3.887 3.887 11.503 7.042 17 7.042 13.27 0 24.042-10.772 24.042-24.042 0-5.497-3.155-13.113-7.042-17L41-57c-3.867-3.864-11.441-7-16.908-7H24z"/><glyph glyph-name="file-contract-primary" unicode="" horiz-adv-x="384" d="M246.65 70.5c1.687-3.54 6.238-6.452 10.16-6.5H304c8.832 0 16-7.168 16-16s-7.168-16-16-16h-47.325c-14.709 0-31.959 10.69-38.505 23.86-1.625 3.599-6.15 6.52-10.1 6.52h-.233c-3.791 0-8.198-2.773-9.837-6.19l-7.67-15.34c-2.44-4.885-8.853-8.85-14.314-8.85H176c-.38 0-.75 0-1.14.05-5.877.419-12.148 5.298-14 10.89L144 93.41l-10.61-31.88C127.96 45.23 109.611 32 92.43 32H80c-8.831 0-16 7.168-16 16s7.169 16 16 16h12.39c4.448.009 9.202 3.44 10.61 7.66l18.191 54.64c3.014 9.07 13.217 16.43 22.774 16.43s19.761-7.36 22.776-16.43l13.88-41.64c19.8 16.19 54.08 9.7 66.03-14.16z"/><glyph glyph-name="file-download-primary" unicode="" horiz-adv-x="384" d="M94.82 128H160v80c0 8.832 7.168 16 16 16h32c8.832 0 16-7.168 16-16v-80h65.18c14.28 0 21.4-17.29 11.27-27.36L204 4.94c-2.751-2.726-8.127-4.938-12-4.938s-9.249 2.212-12 4.938l-96.42 95.7C73.42 110.71 80.54 128 94.82 128z"/><glyph glyph-name="file-invoice-primary" unicode="" horiz-adv-x="384" d="M312 32c4.416 0 8-3.584 8-8V8c0-4.416-3.584-8-8-8h-80c-4.416 0-8 3.584-8 8v16c0 4.416 3.584 8 8 8h80zm-8 192c8.832 0 16-7.168 16-16v-96c0-8.832-7.168-16-16-16H80c-8.832 0-16 7.168-16 16v96c0 8.832 7.168 16 16 16h224zm-16-96v64H96v-64h192z"/><glyph glyph-name="file-invoice-dollar-primary" unicode="" horiz-adv-x="384" d="M176 216c0 4.416 3.584 8 8 8h16c4.416 0 8-3.584 8-8v-24.29c9.613-.492 23.667-5.577 31.37-11.35 1.704-1.326 3.087-4.155 3.087-6.314 0-1.908-1.127-4.519-2.517-5.826L228.18 157c-1.297-1.182-3.774-2.14-5.529-2.14-1.39 0-3.45.631-4.601 1.41-3.24 2.054-8.984 3.725-12.82 3.73h-28.11c-6.5 0-11.8-5.92-11.8-13.19 0-5.95 3.61-11.19 8.77-12.73l45-13.5c18.59-5.58 31.58-23.42 31.58-43.39 0-24.53-19-44.44-42.67-45.07V8c0-4.416-3.584-8-8-8h-16c-4.416 0-8 3.584-8 8v24.29c-9.612.496-23.666 5.581-31.37 11.35-1.704 1.326-3.087 4.155-3.087 6.314 0 1.908 1.127 4.519 2.517 5.826L155.81 67c1.298 1.182 3.774 2.14 5.529 2.14 1.389 0 3.45-.631 4.602-1.41 3.24-2.05 8.984-3.721 12.819-3.73h28.11c6.5 0 11.8 5.92 11.8 13.19 0 5.95-3.61 11.19-8.77 12.73l-45 13.5c-18.59 5.58-31.58 23.42-31.58 43.39 0 24.52 19.05 44.44 42.67 45.07z"/><glyph glyph-name="file-prescription-primary" unicode="" horiz-adv-x="384" d="M304 38.62c2.585-2.587 4.683-7.653 4.683-11.31 0-3.657-2.098-8.723-4.683-11.31L292.69 4.68c-2.587-2.587-7.656-4.688-11.315-4.688s-8.729 2.1-11.315 4.688L240 34.75 209.94 4.69c-2.587-2.587-7.656-4.688-11.315-4.688s-8.729 2.1-11.315 4.688L176 16c-2.588 2.587-4.688 7.656-4.688 11.315s2.1 8.728 4.688 11.315l30.06 30.06L146.74 128H128V80c0-8.832-7.168-16-16-16H96c-8.832 0-16 7.168-16 16v160c0 8.832 7.168 16 16 16h80.192c35.218 0 63.801-28.582 63.801-63.8 0-20.993-14.987-46.135-33.453-56.12L240 102.62l29.9 29.9c2.587 2.587 7.656 4.688 11.315 4.688s8.729-2.1 11.315-4.689l11.31-11.31c2.588-2.586 4.688-7.655 4.688-11.315 0-3.658-2.1-8.727-4.688-11.314l-29.9-29.9zM176 176c8.832 0 16 7.168 16 16s-7.168 16-16 16h-48v-32h48z"/><glyph glyph-name="file-signature-primary" unicode="" horiz-adv-x="576" d="M246.65 70.5c1.594-3.2 5.783-6.005 9.35-6.26V32.11c-14.433.197-31.381 10.836-37.83 23.75-1.625 3.599-6.15 6.52-10.1 6.52h-.233c-3.791 0-8.198-2.773-9.837-6.19l-7.69-15.34c-6.37-12.78-25.03-11.37-29.48 2.09L144 93.41l-10.61-31.88C127.96 45.23 109.611 32 92.43 32H80c-8.831 0-16 7.168-16 16s7.169 16 16 16h12.39c4.448.009 9.202 3.44 10.61 7.66l18.22 54.64c3.015 9.069 13.218 16.43 22.776 16.43s19.76-7.36 22.774-16.43l13.881-41.64c19.75 16.19 54.06 9.7 66-14.16zM288 101l162.79 161.66 67.88-67.88L357 32h-69v69zm280.54 179.67c4.122-4.116 7.468-12.185 7.468-18.01 0-5.821-3.341-13.885-7.458-18l-27.25-27.25-67.88 67.88 27.25 27.25c4.117 4.112 12.18 7.45 18 7.45s13.883-3.338 18-7.45z"/><glyph glyph-name="file-upload-primary" unicode="" horiz-adv-x="384" d="M300.43 123.35c10.15-10.07 3-27.36-11.25-27.36H224v-80c0-8.831-7.168-16-16-16h-32c-8.832 0-16 7.169-16 16V96H94.82c-14.28 0-21.41 17.29-11.27 27.36L180 219c2.751 2.726 8.127 4.938 12 4.938s9.25-2.212 12-4.938z"/><glyph glyph-name="fill-primary" unicode="" d="M502.63 231c5.178-5.175 9.38-15.315 9.38-22.635 0-7.325-4.206-17.47-9.39-22.645L281.05-35.85c-15.52-15.514-45.926-28.105-67.87-28.105s-52.35 12.591-67.87 28.106L28.121 81.34C12.603 96.86.011 127.268.011 149.215c0 21.947 12.592 52.354 28.11 67.875l94.76 94.76-86.19 86.18c-2.585 2.586-4.682 7.654-4.682 11.31 0 3.657 2.097 8.723 4.682 11.31l22.62 22.62c2.586 2.584 7.653 4.682 11.31 4.682 3.656 0 8.724-2.098 11.31-4.683l86.18-86.19 81.58 81.581c5.173 5.172 15.309 9.37 22.625 9.37 7.316 0 17.452-4.198 22.625-9.37zM235.78 9.39l198.96 198.96-162.42 162.41-58.92-58.93 58.6-58.6c5.167-5.173 9.36-15.304 9.36-22.615 0-17.664-14.336-32-32-32-7.323 0-17.466 4.204-22.64 9.385l-58.6 58.58-94.75-94.74c-5.17-5.173-9.365-15.307-9.365-22.62s4.195-17.447 9.365-22.62L190.559 9.39c5.173-5.164 15.302-9.355 22.61-9.355s17.439 4.19 22.61 9.355z"/><glyph glyph-name="fill-drip-primary" unicode="" horiz-adv-x="576" d="M503.63 231c5.178-5.175 9.38-15.315 9.38-22.635 0-7.325-4.206-17.47-9.39-22.645L282.05-35.85c-15.52-15.514-45.926-28.105-67.87-28.105s-52.35 12.591-67.87 28.106L29.121 81.34c-15.518 15.52-28.11 45.928-28.11 67.875 0 21.947 12.592 52.354 28.11 67.875l94.76 94.76-86.19 86.18c-2.585 2.586-4.682 7.654-4.682 11.31 0 3.657 2.097 8.723 4.682 11.31l22.62 22.62c2.586 2.584 7.653 4.682 11.31 4.682 3.656 0 8.724-2.098 11.31-4.683l86.18-86.19 81.58 81.581c5.173 5.172 15.309 9.37 22.625 9.37 7.316 0 17.452-4.198 22.625-9.37zM236.78 9.39l198.96 198.96-162.42 162.41-58.92-58.93 58.6-58.6c5.167-5.173 9.36-15.304 9.36-22.615 0-17.664-14.336-32-32-32-7.323 0-17.466 4.204-22.64 9.385l-58.6 58.58-94.75-94.74c-5.17-5.173-9.365-15.307-9.365-22.62s4.195-17.447 9.365-22.62L191.559 9.39c5.173-5.164 15.302-9.355 22.61-9.355s17.439 4.19 22.61 9.355z"/><glyph glyph-name="fingerprint-primary" unicode="" d="M466 335.15c2.664-3.54 4.825-10.005 4.825-14.435 0-13.248-10.752-24-24-24-7.178 0-16.185 4.881-20.105 10.895-35.224 50.015-113.453 91.406-174.62 92.39-56.34.78-108.92-20.09-147.66-58.87-31.086-30.884-56.315-91.514-56.315-135.334 0-1.012.016-2.655.035-3.667L48 178.49c-.375-12.861-11.123-23.299-23.99-23.299h-.73c-12.856.38-23.29 11.127-23.29 23.99 0 .193.005.506.01.7l.13 21.47a289.098 289.098 0 0 0-.044 4.562c0 54.763 31.524 130.542 70.365 169.147 48.01 48.03 112.55 73.76 182.35 72.94 74.688-1.21 170.202-51.767 213.2-112.85zm-212 30.73c101.12-1.5 184.63-83.08 186.19-181.88.059-3.898.106-10.226.106-14.124 0-29.27-2.7-76.626-6.027-105.706-1.07-9.23-9.86-23.06-26.579-21.11-11.74 1.346-21.267 12.028-21.267 23.844 0 .757.07 1.984.157 2.736 3.138 27.494 5.686 72.266 5.686 99.94 0 3.778-.048 9.911-.106 13.69-1.15 73.08-63.45 133.45-138.88 134.58-.45.005-1.177.01-1.625.01-9.053 0-23.557-1.658-32.375-3.7-1.506-.356-3.984-.645-5.53-.645-13.252 0-24.006 10.753-24.006 24.004 0 10.481 8.277 20.947 18.475 23.36 11.464 2.781 30.34 5.038 42.136 5.038 1.006 0 2.639-.017 3.644-.037zm1.22-82.11c56.97-.84 104.061-46.92 104.94-102.77.056-3.611.1-9.475.1-13.087 0-38.62-5.107-100.889-11.4-138.993-.77-4.67-7.58-23.1-27.58-19.77-11.084 1.836-20.08 12.443-20.08 23.677 0 1.085.144 2.833.32 3.904 5.912 35.858 10.711 94.457 10.711 130.8 0 3.52-.046 9.231-.101 12.75-.47 30.13-26.31 55-57.62 55.47-34.53.15-54.86-26.39-54.45-52.34.048-3.053.086-8.01.086-11.063 0-39.581-6.476-103.169-14.456-141.938-2.057-10.76-12.618-19.494-23.573-19.494-13.248 0-24 10.752-24 24 0 1.457.257 3.792.573 5.214 7.425 36.102 13.451 95.317 13.451 132.176 0 2.864-.036 7.512-.082 10.374-.84 54.02 41.9 101.16 103.16 101.09z"/><glyph glyph-name="fish-primary" unicode="" horiz-adv-x="576" d="M327.1 352C464.56 352 576 224 576 192S464.56 32 327.1 32c-89.97 0-168.55 54.77-212.279 101.62l-87.33-66.05C15.35 58.4-2.75 68.17.35 82.23L24.54 192 .36 301.71c-3.1 14.06 15.01 23.84 27.14 14.66l87.33-66C158.56 297.232 237.1 352 327.1 352zm87.43-192c17.664 0 32 14.336 32 32s-14.336 32-32 32-32-14.336-32-32 14.336-32 32-32z"/><glyph glyph-name="flushed-primary" unicode="" d="M160 248h.06c13.215 0 23.94-10.725 23.94-23.94V224c0-13.248-10.752-24-24-24s-24 10.752-24 24 10.752 24 24 24zm192 0h.06c13.215 0 23.94-10.725 23.94-23.94V224c0-13.248-10.752-24-24-24s-24 10.752-24 24 10.752 24 24 24z"/><glyph glyph-name="frown-open-primary" unicode="" d="M176 272c17.664 0 32-14.336 32-32s-14.336-32-32-32-32 14.336-32 32 14.336 32 32 32zm160 0c17.664 0 32-14.336 32-32s-14.336-32-32-32-32 14.336-32 32 14.336 32 32 32z"/><glyph glyph-name="glass-martini-alt-primary" unicode="" d="M405.12 384H106.84L256 234.87zm73.06 64c30.05 0 45.1-36.34 23.82-57.64l-214-214V-16h56c22.08 0 40-17.92 40-40 0-4.416-3.584-8-8-8H136c-4.416 0-8 3.584-8 8 0 22.08 17.92 40 40 40h56v192.4l-214 214C-11.32 411.66 3.73 448 33.78 448h444.4z"/><glyph glyph-name="globe-africa-primary" unicode="" d="M431.5 240c-8.556 0-15.5-6.944-15.5-15.5v-6.932c0-5.288-3.84-11.496-8.57-13.858L392 196c-1.8-.896-4.894-1.624-6.904-1.624-2.6 0-6.465 1.176-8.626 2.624l-18.17 12.12c-2.157 1.437-6.01 2.603-8.603 2.603-1.387 0-3.58-.356-4.897-.793l-2.65-.88c-5.858-1.94-10.612-8.524-10.612-14.695 0-2.593 1.17-6.449 2.612-8.605l13.24-19.86c2.538-3.809 8.313-6.9 12.89-6.9h8.21c8.556 0 15.5-6.944 15.5-15.5v-11.34c0-2.851-1.39-7.018-3.1-9.3l-18.74-25c-1.192-1.594-2.46-4.474-2.83-6.43L355 69.61c-.528-2.8-2.661-6.634-4.76-8.56-7.876-7.212-19.076-20.276-25-29.16l-13-19.55C307.69 5.528 297.35 0 289.156 0c-9.468 0-20.59 6.872-24.826 15.34-4.599 9.19-8.33 24.99-8.33 35.266V80.5c0 8.556-6.944 15.5-15.5 15.5h-25.88c-30.15.006-54.62 24.48-54.62 54.63v14.06c.004 15.074 9.792 34.653 21.85 43.7l27.58 20.69c8.039 6.027 22.718 10.92 32.766 10.92h.914c7.114 0 18.05-2.585 24.41-5.77l14.72-7.36c1.806-.903 4.91-1.636 6.929-1.636 1.388 0 3.584.357 4.901.796l47.31 15.77c5.843 1.954 10.585 8.539 10.585 14.7 0 8.548-6.938 15.491-15.485 15.5h-10.13c-3.543 0-8.453 2.034-10.96 4.54l-6.92 6.92c-2.506 2.506-7.416 4.54-10.96 4.54h-90.04c-8.54.016-15.47 6.96-15.47 15.5v4.4c.023 6.658 5.282 13.378 11.74 15l14.45 3.61c3.208.804 7.303 3.689 9.14 6.44l8.08 12.11c2.529 3.826 8.304 6.935 12.89 6.94h24.21c8.55.006 15.49 6.949 15.49 15.5v70.45C394 424.3 479 343.76 499.34 240H431.5z"/><glyph glyph-name="globe-americas-primary" unicode="" d="M329.39 150.64L343.1 137c4.93-4.93 8.93-14.591 8.93-21.563v-.057c0-10.677-6.146-25.453-13.72-32.98-3.9-3.881-7.99-7.95-11.31-11.28-2.512-2.495-5.303-7.294-6.23-10.71-1.51-5.66-2.77-11.38-4.77-16.87L301.88-14.1c-1.82-7.532-9.511-14.592-17.17-15.761-1.74-.26-3.48-.49-5.23-.7a25.079 25.079 0 0 0-2.48-.147c-11.591 0-21 9.409-21 21V19.37c1.69 12.62-7.63 36.25-22.63 51.25-5.17 5.173-9.37 15.31-9.37 22.625v32.091c0 10.383-7.374 22.889-16.46 27.914-14.37 7.95-34.81 19.06-48.81 26.11-9.541 4.83-23.72 14.574-31.65 21.75l-.8.72c-5.675 5.124-13.766 14.415-18.06 20.74-7.29 10.7-23.95 35.38-35.67 52.77-4.718 6.993-8.548 19.515-8.55 27.95V349c18.391 22.474 54.348 51.352 80.26 64.46l40.58-38.64c3.952-3.762 11.12-8.798 16-11.24 1.866-.933 5.073-1.69 7.158-1.69 1.242 0 3.22.279 4.413.62 6.398 1.948 11.59 8.954 11.59 15.643v.187c.008 6.184 5.007 11.707 11.16 12.33 2.53.271 5.05.481 7.58.65.216.015.569.025.787.025 2.834 0 6.76-1.628 8.762-3.634l24.4-24.4c2.588-2.588 4.688-7.656 4.688-11.315s-2.1-8.729-4.687-11.316L272 336l-10.33-10.349c-1.293-1.294-2.341-3.827-2.341-5.655s1.048-4.363 2.34-5.656l4.69-4.689c1.293-1.294 2.342-3.827 2.342-5.655s-1.05-4.363-2.341-5.656l-8-8c-1.294-1.292-3.826-2.34-5.655-2.34H243.7c-1.806-.018-4.306-1.072-5.58-2.349l-9.92-9.65c-1.334-1.3-2.416-3.867-2.416-5.73 0-1.036.374-2.632.836-3.56l15.59-31.19c.466-.933.845-2.537.845-3.58a8.003 8.003 0 0 0-7.996-8h-5.64c-1.652.01-4 .906-5.24 2l-9.28 8.06c-2.49 2.16-7.189 3.916-10.487 3.916-1.437 0-3.71-.37-5.073-.827l-31.17-10.39c-4.449-1.546-8.06-6.624-8.06-11.334 0-4.037 2.913-8.815 6.5-10.665l11.08-5.54c7.898-3.952 21.475-7.16 30.307-7.16H208c10.52 0 22.59-27.29 32-32h66.776c7.31 0 17.442-4.194 22.614-9.36zm156.28 135.09C495.788 260.827 504 218.8 504 191.92c0-15.75-2.89-40.987-6.45-56.33l-55.64 29.219-20.52 10.1c-3.632 1.556-8.354 5.49-10.54 8.78l-18 27c-2.224 3.338-4.029 9.3-4.029 13.31s1.805 9.973 4.029 13.31l19.59 29.381c1.955 2.925 6.094 6.576 9.24 8.15 7.178 3.581 19.488 7.05 27.48 7.74z"/><glyph glyph-name="globe-asia-primary" unicode="" d="M268.07 230.28c-.577.343-1.589.621-2.26.621-1.395 0-3.103-.977-3.81-2.182l-17.34-28.95c-2.572-4.288-8.719-7.77-13.72-7.77h-.313c-3.66 0-8.73-2.1-11.318-4.69l-5.659-5.659c-1.293-1.294-2.342-3.827-2.342-5.655s1.05-4.362 2.342-5.655l5.66-5.66c2.587-2.586 4.688-7.653 4.69-11.31V144c0-8.832-7.168-16-16-16h-6.1c-5.448.011-11.846 3.976-14.28 8.85L165 182.08c-1.219 2.448-4.427 4.434-7.162 4.434-1.84 0-4.383-1.06-5.678-2.364l-19.47-19.46c-2.586-2.588-7.652-4.688-11.31-4.69H10.05C8.918 168.788 8 183.112 8 191.973V192c0 137 111 248 248 248h.15c17.923 0 46.529-3.742 63.85-8.35v-34.39c0-7.694-4.982-17.703-11.12-22.34l-41.41-31.27c-1.965-1.311-3.561-4.293-3.561-6.655 0-2.73 1.98-5.935 4.42-7.155l10.831-5.41c4.88-2.442 8.84-8.852 8.84-14.31V232c0-4.416-3.584-8-8-8h-3.06c-2.727 0-5.93 1.981-7.15 4.42-.323.653-1.094 1.487-1.72 1.86zm143.24-104.8c2.588-2.586 4.688-7.653 4.69-11.31v-24.6c-.002-3.658-2.102-8.725-4.69-11.31l-9.57-9.57c-2.585-2.588-7.652-4.688-11.31-4.69h-15.16c-3.68.002-8.77 2.125-11.36 4.74l-13 13c-4.326 4.308-12.792 7.806-18.898 7.806-1.828 0-4.749-.362-6.521-.806l-21.27-5.32c-1.053-.265-2.788-.48-3.873-.48H290c-3.634.018-8.67 2.118-11.24 4.69l-11.91 11.91c-1.29 1.293-2.34 3.826-2.34 5.653v10.221c0 2.976 2.24 6.3 5 7.416l39.34 15.74c1.645.655 4.15 2.021 5.59 3.05l23.71 16.89c1.15.817 3.226 1.48 4.637 1.48h12.146c2.947 0 6.257-2.21 7.388-4.93l5.35-12.85c.566-1.358 2.22-2.46 3.69-2.46h3.8c1.656 0 3.376 1.29 3.84 2.88l4.16 14.49c.463 1.59 2.183 2.88 3.84 2.88h6.059c2.208 0 4-1.792 4-4v-12.956c0-1.829 1.049-4.36 2.34-5.655z"/><glyph glyph-name="grimace-primary" unicode="" d="M176 272c17.664 0 32-14.336 32-32s-14.336-32-32-32-32 14.336-32 32 14.336 32 32 32zm160 0c17.664 0 32-14.336 32-32s-14.336-32-32-32-32 14.336-32 32 14.336 32 32 32z"/><glyph glyph-name="grin-primary" unicode="" d="M176 272c17.664 0 32-14.336 32-32s-14.336-32-32-32-32 14.336-32 32 14.336 32 32 32zm160 0c17.664 0 32-14.336 32-32s-14.336-32-32-32-32 14.336-32 32 14.336 32 32 32z"/><glyph glyph-name="grin-alt-primary" unicode="" d="M159.7 311.3c3.245 4.782 10.57 8.663 16.35 8.663s13.104-3.88 16.35-8.663c12.4-18.4 15.1-36.9 15.7-55.3-.5-18.4-3.3-36.9-15.7-55.3-3.246-4.782-10.571-8.663-16.35-8.663s-13.105 3.881-16.35 8.663c-12.4 18.4-15.1 36.9-15.7 55.3.5 18.4 3.3 36.9 15.7 55.3zm192.7 0c12.4-18.4 15.1-36.9 15.7-55.3-.5-18.4-3.3-36.9-15.7-55.3-3.246-4.782-10.571-8.663-16.35-8.663s-13.105 3.881-16.35 8.663c-12.4 18.4-15.1 36.9-15.7 55.3.5 18.4 3.3 36.9 15.7 55.3 3.245 4.782 10.57 8.663 16.35 8.663s13.104-3.88 16.35-8.663z"/><glyph glyph-name="grin-beam-primary" unicode="" d="M176 296c23.8 0 52.7-29.3 56-71.4.7-8.6-10.8-11.9-14.9-4.5l-9.5 17c-7.7 13.7-19.2 21.6-31.5 21.6s-23.8-7.9-31.5-21.6l-9.5-17c-4.2-7.4-15.6-4-14.9 4.5 3.1 42.1 32 71.4 55.8 71.4zm216-71.4c.7-8.6-10.8-11.9-14.9-4.5l-9.5 17c-7.7 13.7-19.2 21.6-31.5 21.6s-23.8-7.9-31.5-21.6l-9.5-17c-4.1-7.3-15.6-4-14.9 4.5 3.1 42.1 32 71.4 55.8 71.4s52.7-29.3 56-71.4z"/><glyph glyph-name="grin-beam-sweat-primary" unicode="" d="M466.4 440.77C479.5 423.38 508 383 508 363c0-26-21.5-47-48-47s-48 21-48 47c0 20 28.5 60.38 41.6 77.77 1.324 1.767 4.192 3.2 6.4 3.2s5.075-1.433 6.4-3.2zM172 292c23.8 0 52.7-29.33 56-71.4.7-8.6-10.8-12-14.9-4.5l-9.5 17c-7.7 13.69-19.2 21.59-31.5 21.59s-23.8-7.9-31.5-21.59l-9.5-17c-4.2-7.41-15.6-4-14.9 4.5 3.1 42.09 32 71.4 55.8 71.4zm160 0c23.8 0 52.7-29.33 56-71.4.7-8.6-10.8-12-14.9-4.5l-9.5 17c-7.7 13.69-19.2 21.59-31.5 21.59s-23.8-7.9-31.5-21.59l-9.5-17c-4.1-7.41-15.6-4-14.9 4.5 3.1 42.09 32 71.4 55.8 71.4z"/><glyph glyph-name="grin-hearts-primary" unicode="" d="M193.9 319.4c16.617-2.507 30.104-18.18 30.104-34.984 0-2.676-.584-6.94-1.304-9.516L203.3 205c-.964-3.474-4.672-6.293-8.278-6.293-.624 0-1.62.131-2.223.293l-70.2 18.2c-14.685 3.798-26.603 19.19-26.603 34.36 0 3.667 1.077 9.42 2.404 12.84 6.7 17.6 26.7 26.7 44.9 21.9l7.1-1.9 2 7.1c5 18.1 22.8 30.9 41.5 27.9zm219.7-54.9c1.34-3.43 2.429-9.205 2.429-12.889 0-15.173-11.93-30.545-26.628-34.311l-70.2-18.2a10.456 10.456 0 0 0-2.16-.273c-3.605 0-7.341 2.81-8.34 6.273L289.3 275c-.72 2.577-1.304 6.84-1.304 9.516 0 16.805 13.486 32.478 30.103 34.984 18.6 3 36.4-9.8 41.5-27.9l2-7.1 7.1 1.9c18.2 4.7 38.2-4.3 44.9-21.9z"/><glyph glyph-name="grin-squint-primary" unicode="" d="M222.2 250.3c3.225-1.928 5.843-6.542 5.843-10.3s-2.618-8.372-5.843-10.3l-80-48c-11.5-6.8-24 7.6-15.4 18l33.6 40.3-33.6 40.3c-8.6 10.3 3.8 24.9 15.4 18zm163-50.6c8.7-10.4-3.9-24.8-15.4-18l-80 48c-3.19 1.948-5.778 6.563-5.778 10.3s2.588 8.351 5.778 10.3l80 48c11.6 6.9 24-7.7 15.4-18L351.6 240z"/><glyph glyph-name="grin-squint-tears-primary" unicode="" d="M102.42 47.9c.35.054.92.098 1.275.098a8.313 8.313 0 0 0 8.31-8.31c0-.33-.038-.862-.085-1.188-3.3-22.6-12-73.5-26.8-88.3-19.2-19.2-50.6-18.9-70.2.7-19.6 19.6-19.9 51.1-.8 70.2 14.8 14.8 65.7 23.6 88.3 26.8zm94 167.1c.768.186 2.03.336 2.82.336 6.624 0 12-5.376 12-12 0-.794-.152-2.065-.34-2.836L188.3 110c-3.1-13.2-22.2-11.7-23.5 1.7L160 164l-52.28 4.8c-13.4 1.2-14.9 20.3-1.8 23.6zm140 68.1c13.4-1.2 14.9-20.3 1.8-23.6l-90.5-22.6a14.413 14.413 0 0 0-2.841-.341c-6.624 0-12 5.376-12 12 0 .796.152 2.068.34 2.842l22.5 90.6c3.3 13.2 22.401 11.5 23.601-1.8l4.8-52.3zm160.8 150c19.6-19.6 19.9-51 .7-70.2-14.8-14.8-65.7-23.6-88.3-26.8-.35-.054-.921-.098-1.275-.098a8.313 8.313 0 0 0-8.31 8.31c0 .33.039.862.085 1.188 3.3 22.6 12 73.5 26.8 88.3 19.08 19.2 50.7 18.9 70.3-.7z"/><glyph glyph-name="grin-stars-primary" unicode="" d="M217.3 279.1c3.638-.563 6.589-4.008 6.589-7.688 0-1.784-1.026-4.252-2.29-5.511L196.2 241.3l6-34.9a9.07 9.07 0 0 0 .126-1.37c0-4.128-3.35-7.48-7.48-7.48-1.074 0-2.707.426-3.646.95L160 214.7l-31.3-16.3c-.938-.525-2.572-.95-3.646-.95a7.483 7.483 0 0 0-7.48 7.48c0 .382.056.995.126 1.37l6 34.9-25.4 24.6c-1.269 1.269-2.299 3.755-2.299 5.55 0 3.69 2.956 7.161 6.599 7.749l34.9 5 15.5 31.6c1.168 2.399 4.281 4.346 6.95 4.346 2.668 0 5.782-1.947 6.95-4.345l15.5-31.601zm192-.1c3.693-.484 6.69-3.9 6.69-7.625 0-1.775-1.026-4.229-2.29-5.475l-25.4-24.6 6-34.9c.07-.375.127-.988.127-1.369a7.484 7.484 0 0 0-7.48-7.48c-1.075 0-2.709.426-3.647.949L352 214.7l-31.3-16.3c-.938-.524-2.572-.949-3.646-.949a7.483 7.483 0 0 0-7.48 7.48c0 .382.056.995.126 1.369l6 34.9-25.4 24.6c-1.245 1.26-2.256 3.72-2.256 5.491 0 3.667 2.937 7.12 6.556 7.709l34.9 5 15.5 31.6c1.168 2.399 4.281 4.346 6.95 4.346 2.668 0 5.782-1.947 6.95-4.346l15.5-31.6z"/><glyph glyph-name="grin-tears-primary" unicode="" horiz-adv-x="640" d="M102.42 191.9c.35.054.92.098 1.275.098a8.313 8.313 0 0 0 8.31-8.31c0-.33-.038-.862-.085-1.188-3.3-22.6-12-73.5-26.8-88.3-19.2-19.2-50.6-18.9-70.2.7-19.6 19.6-19.9 51.1-.8 70.2 14.8 14.8 65.7 23.6 88.3 26.8zM240 296c23.82 0 52.72-29.3 56-71.4.7-8.6-10.8-12-14.9-4.5l-9.5 17c-7.7 13.7-19.2 21.6-31.5 21.6s-23.8-7.9-31.5-21.6l-9.5-17c-4.2-7.4-15.6-4-14.9 4.5 3.1 42.1 32 71.4 55.8 71.4zm385.8-130.9c19.18-19.1 18.8-50.7-.8-70.3-19.6-19.6-51-19.9-70.2-.7-14.8 14.8-23.6 65.7-26.8 88.3-.048.332-.088.873-.088 1.208 0 4.626 3.755 8.38 8.381 8.38.335 0 .876-.04 1.207-.087 22.6-3.301 73.5-12 88.3-26.801zM400 296c23.82 0 52.72-29.3 56-71.4.7-8.6-10.8-12-14.9-4.5l-9.5 17c-7.7 13.7-19.2 21.6-31.5 21.6s-23.8-7.9-31.5-21.6l-9.5-17c-4.2-7.4-15.6-4-14.9 4.5 3.1 42.1 32 71.4 55.8 71.4z"/><glyph glyph-name="grin-tongue-primary" unicode="" horiz-adv-x="640" d="M330.5 59.8c3.5 15.4 20.2 24.1 34.6 17.6.8-.4-.5.3 19-9.3v-64c-.036-35.331-28.739-64.005-64.07-64.005-.23 0-.601.002-.83.005-35.1.4-63.1 29.7-63.1 64.9v63c19.2 9.6 18 9 18.9 9.4 14.4 6.5 31.1-2.2 34.6-17.6l1.8-7.8c2.1-9.2 15.2-9.2 17.3 0zM272 244c0-17.664-14.336-32-32-32s-32 14.336-32 32 14.336 32 32 32 32-14.336 32-32zm128 32c17.664 0 32-14.336 32-32s-14.336-32-32-32-32 14.336-32 32 14.336 32 32 32z"/><glyph glyph-name="grin-tongue-squint-primary" unicode="" d="M222.2 254.3c3.19-1.948 5.777-6.563 5.777-10.3s-2.588-8.351-5.777-10.3l-80-48c-11.5-6.8-24 7.6-15.4 18l33.6 40.3-33.6 40.3c-8.6 10.3 3.8 24.9 15.4 18zm44.3-194.5c3.5 15.4 20.2 24.1 34.6 17.6.8-.4-.5.3 19-9.3v-64c-.036-35.331-28.739-64.005-64.07-64.005-.23 0-.601.002-.83.005-35.1.4-63.1 29.7-63.1 64.9v63c19.2 9.6 18 9 18.9 9.4 14.4 6.5 31.1-2.2 34.6-17.6l1.8-7.8c2.1-9.2 15.2-9.2 17.3 0zm118.7 143.9c8.7-10.4-3.9-24.8-15.4-18l-80 48c-3.225 1.928-5.843 6.542-5.843 10.3s2.618 8.372 5.843 10.3l80 48c11.7 6.9 23.9-7.7 15.4-18L351.6 244z"/><glyph glyph-name="grin-tongue-wink-primary" unicode="" d="M220 229.8c1.6-11.1-11.6-18.2-20-10.8l-9.5 8.5c-14.8 13.2-46.2 13.2-61 0L120 219c-8.5-7.4-21.6-.3-19.8 10.8 4 25.2 34.2 42.1 59.9 42.1 25.7 0 55.9-16.9 59.9-42.1zm46.5-170c3.5 15.4 20.2 24.1 34.6 17.6.8-.4-.5.3 19-9.3v-64c-.036-35.331-28.739-64.005-64.07-64.005-.23 0-.601.002-.83.005-35.1.4-63.1 29.7-63.1 64.9v63c19.2 9.6 18 9 18.9 9.4 14.4 6.5 31.1-2.2 34.6-17.6l1.8-7.8c2.1-9.2 15.2-9.2 17.3 0zM352 268h.06c13.215 0 23.94-10.725 23.94-23.94V244c0-13.248-10.752-24-24-24s-24 10.752-24 24 10.752 24 24 24z"/><glyph glyph-name="grip-horizontal-primary" unicode="" horiz-adv-x="448" d="M416 352c17.664 0 32-14.336 32-32v-64c0-17.664-14.336-32-32-32h-64c-17.664 0-32 14.336-32 32v64c0 17.664 14.336 32 32 32h64zm-320 0c17.664 0 32-14.336 32-32v-64c0-17.664-14.336-32-32-32H32c-17.664 0-32 14.336-32 32v64c0 17.664 14.336 32 32 32h64zm160 0c17.664 0 32-14.336 32-32v-64c0-17.664-14.336-32-32-32h-64c-17.664 0-32 14.336-32 32v64c0 17.664 14.336 32 32 32h64z"/><glyph glyph-name="grip-vertical-primary" unicode="" horiz-adv-x="320" d="M96 96c17.664 0 32-14.336 32-32V0c0-17.664-14.336-32-32-32H32C14.336-32 0-17.664 0 0v64c0 17.664 14.336 32 32 32h64zm0 160c17.664 0 32-14.336 32-32v-64c0-17.664-14.336-32-32-32H32c-17.664 0-32 14.336-32 32v64c0 17.664 14.336 32 32 32h64zm0 160c17.664 0 32-14.336 32-32v-64c0-17.664-14.336-32-32-32H32c-17.664 0-32 14.336-32 32v64c0 17.664 14.336 32 32 32h64z"/><glyph glyph-name="headphones-alt-primary" unicode="" d="M160 160c17.664 0 32-14.336 32-32V0c0-17.664-14.336-32-32-32h-16c-35.328.033-64 28.732-64 64.06v63.89c0 35.328 28.672 64.023 64 64.05h16zm208 0c35.328-.033 64-28.732 64-64.06V32.06c0-35.328-28.672-64.027-64-64.06h-16c-17.664 0-32 14.336-32 32v128c0 17.664 14.336 32 32 32h16z"/><glyph glyph-name="headset-primary" unicode="" d="M368 272c35.328 0 64-28.672 64-64v-48c0-35.328-28.672-64-64-64h-16c-17.664 0-32 14.336-32 32v112c0 17.664 14.336 32 32 32h16zm-208 0c17.664 0 32-14.336 32-32V128c0-17.664-14.336-32-32-32h-16c-35.328 0-64 28.672-64 64v48c0 35.328 28.672 64 64 64h16z"/><glyph glyph-name="highlighter-primary" unicode="" horiz-adv-x="544" d="M0-32l68.37 70.45 67-67L99.92-64zm527.92 400.73c8.893-8.877 16.11-26.277 16.11-38.843 0-11.444-6.142-27.702-13.71-36.288l-170-199.06L190.6 264.28l199 170c8.59 7.576 24.856 13.725 36.309 13.725 12.549 0 29.936-7.201 38.81-16.075z"/><glyph glyph-name="hot-tub-primary" unicode="" d="M480 192c17.664 0 32-14.336 32-32V0c0-35.328-28.672-64-64-64H64C28.672-64 0-35.328 0 0v192h480zM128 8v112c0 4.416-3.584 8-8 8h-16c-4.416 0-8-3.584-8-8V8c0-4.416 3.584-8 8-8h16c4.416 0 8 3.584 8 8zm96 0v112c0 4.416-3.584 8-8 8h-16c-4.416 0-8-3.584-8-8V8c0-4.416 3.584-8 8-8h16c4.416 0 8 3.584 8 8zm96 0v112c0 4.416-3.584 8-8 8h-16c-4.416 0-8-3.584-8-8V8c0-4.416 3.584-8 8-8h16c4.416 0 8 3.584 8 8zm96 0v112c0 4.416-3.584 8-8 8h-16c-4.416 0-8-3.584-8-8V8c0-4.416 3.584-8 8-8h16c4.416 0 8 3.584 8 8z"/><glyph glyph-name="hotel-primary" unicode="" horiz-adv-x="576" d="M560 384h-16V0h16c8.832 0 16-7.168 16-16v-32c0-8.832-7.168-16-16-16H320v96h96c0 70.656-57.344 128-128 128S160 102.656 160 32h96v-96H16C7.168-64 0-56.832 0-48v32C0-7.168 7.168 0 16 0h16v384H16c-8.832 0-16 7.168-16 16v32c0 8.832 7.168 16 16 16h544c8.832 0 16-7.168 16-16v-32c0-8.832-7.168-16-16-16zM192 204.8v38.4c0 6.4-6.4 12.8-12.8 12.8h-38.4c-6.4 0-12.8-6.4-12.8-12.8v-38.4c0-6.4 6.4-12.8 12.8-12.8h38.4c6.4 0 12.8 6.4 12.8 12.8zm0 96v38.4c0 6.4-6.4 12.8-12.8 12.8h-38.4c-6.4 0-12.8-6.4-12.8-12.8v-38.4c0-6.4 6.4-12.8 12.8-12.8h38.4c6.4 0 12.8 6.4 12.8 12.8zm128-96v38.4c0 6.4-6.4 12.8-12.8 12.8h-38.4c-6.4 0-12.8-6.4-12.8-12.8v-38.4c0-6.4 6.4-12.8 12.8-12.8h38.4c6.4 0 12.8 6.4 12.8 12.8zm0 96v38.4c0 6.4-6.4 12.8-12.8 12.8h-38.4c-6.4 0-12.8-6.4-12.8-12.8v-38.4c0-6.4 6.4-12.8 12.8-12.8h38.4c6.4 0 12.8 6.4 12.8 12.8zm128-96v38.4c0 6.4-6.4 12.8-12.8 12.8h-38.4c-6.4 0-12.8-6.4-12.8-12.8v-38.4c0-6.4 6.4-12.8 12.8-12.8h38.4c6.4 0 12.8 6.4 12.8 12.8zm0 96v38.4c0 6.4-6.4 12.8-12.8 12.8h-38.4c-6.4 0-12.8-6.4-12.8-12.8v-38.4c0-6.4 6.4-12.8 12.8-12.8h38.4c6.4 0 12.8 6.4 12.8 12.8z"/><glyph glyph-name="joint-primary" unicode="" horiz-adv-x="640" d="M360.89 95.95h.087c16.249 0 38.019-10.013 48.594-22.35L527.52-64h-88.45c-16.247 0-38.016 10.013-48.59 22.35L272.68 95.78c1.4.02 53.81.11 88.21.17zM195 89c2.937.491 7.736.889 10.714.889 16.361 0 38.348-10.026 49.076-22.38L367.51-64h-88.57C195.62-64 70.657-28.16 0 16c49.745 31.038 137.105 63.742 195 73zm421 7c13.248 0 24-10.752 24-24V-40c0-13.248-10.752-24-24-24h-17.42c-16.244.003-38.009 10.016-48.58 22.35L432 96h184z"/><glyph glyph-name="kiss-beam-primary" unicode="" d="M392.1 224.6c.5-8.5-10.9-12-15.1-4.5l-9.5 17c-7.7 13.7-19.2 21.6-31.5 21.6s-23.8-7.9-31.5-21.6l-9.5-17c-4.1-7.3-15.6-4-14.9 4.5 3.3 42.1 32.2 71.4 56 71.4 23.8 0 52.7-29.3 56-71.4zm-216 71.4c23.8 0 52.7-29.3 56-71.4.5-8.5-10.9-12-15.1-4.5l-9.5 17c-7.7 13.7-19.2 21.6-31.5 21.6s-23.8-7.9-31.5-21.6l-9.5-17c-4.2-7.4-15.6-4-14.9 4.5 3.3 42.1 32.2 71.4 56 71.4z"/><glyph glyph-name="kiss-wink-heart-primary" unicode="" d="M505.1 45.5c1.602-4.066 2.901-10.914 2.901-15.284 0-17.889-14.067-35.994-31.401-40.416l-83-21.5a12.3 12.3 0 0 0-2.562-.326c-4.262 0-8.67 3.327-9.837 7.426L358.3 58c-.848 3.041-1.535 8.072-1.535 11.23 0 19.841 15.919 38.375 35.534 41.37 22 3.5 43.1-11.6 49-33l2.3-8.4 8.4 2.2c21.6 5.6 45.1-5.1 53.1-25.9zM388.2 231l-9.5 8.5c-14.8 13.2-46.2 13.2-61 0L308 231c-8.3-7.4-21.6-.4-19.8 10.8 4 25.2 34.2 42.1 59.9 42.1 25.7 0 55.9-16.9 59.9-42.1a14.38 14.38 0 0 0 .136-1.798c0-6.624-5.376-12-12-12-2.503 0-6.059 1.343-7.936 2.998zM172 272c17.664 0 32-14.336 32-32s-14.336-32-32-32-32 14.336-32 32 14.336 32 32 32z"/><glyph glyph-name="laugh-primary" unicode="" d="M336 288c17.664 0 32-14.336 32-32s-14.336-32-32-32-32 14.336-32 32 14.336 32 32 32zm-160 0c17.664 0 32-14.336 32-32s-14.336-32-32-32-32 14.336-32 32 14.336 32 32 32z"/><glyph glyph-name="laugh-beam-primary" unicode="" d="M392 240.6c.7-8.6-10.8-11.9-14.9-4.5l-9.5 17c-7.7 13.7-19.2 21.6-31.5 21.6s-23.8-7.9-31.5-21.6l-9.5-17c-4.2-7.4-15.8-4.1-15.1 4.5 3.3 42.1 32.2 71.4 56 71.4s52.7-29.3 56-71.4zM176 312c23.8 0 52.7-29.3 56-71.4.7-8.6-10.8-11.9-14.9-4.5l-9.5 17c-7.7 13.7-19.2 21.6-31.5 21.6s-23.8-7.9-31.5-21.6l-9.5-17c-4.3-7.4-15.8-4-15.1 4.5 3.3 42.1 32.2 71.4 56 71.4z"/><glyph glyph-name="laugh-squint-primary" unicode="" d="M385.2 227.7c8.7-10.4-3.9-24.8-15.4-18l-80 48c-3.19 1.948-5.778 6.563-5.778 10.3s2.588 8.351 5.778 10.3l80 48c11.6 6.9 24-7.7 15.4-18L351.6 268zm-163 50.6c3.225-1.928 5.843-6.542 5.843-10.3s-2.618-8.372-5.843-10.3l-80-48c-11.5-6.8-24 7.6-15.4 18l33.6 40.3-33.6 40.3c-8.6 10.3 3.8 24.9 15.4 18z"/><glyph glyph-name="laugh-wink-primary" unicode="" d="M395.9 241.9c1.7-11.1-11.4-18.3-19.8-10.8l-9.5 8.5c-14.8 13.2-46.2 13.2-61 0L296 231c-1.886-1.65-5.45-2.99-7.956-2.99-6.67 0-12.08 5.411-12.08 12.08 0 .501.06 1.313.135 1.81 4 25.2 34.2 42.1 59.9 42.1s55.901-16.9 59.901-42.1zM176 288c17.664 0 32-14.336 32-32s-14.336-32-32-32-32 14.336-32 32 14.336 32 32 32z"/><glyph glyph-name="luggage-cart-primary" unicode="" horiz-adv-x="640" d="M624 64c8.832 0 16-7.168 16-16V16c0-8.832-7.168-16-16-16H80c-8.832 0-16 7.168-16 16v368H16c-8.832 0-16 7.168-16 16v32c0 8.832 7.168 16 16 16h96c8.832 0 16-7.168 16-16V64h496zM288 352V128h-32v224h32zm224 0V128h-32v224h32z"/><glyph glyph-name="map-marked-primary" unicode="" horiz-adv-x="576" d="M414 322c0-56.26-82.35-158.8-113.9-196-2.61-3.122-8.03-5.656-12.1-5.656s-9.49 2.534-12.1 5.656C244.35 163.2 162 265.74 162 322c0 69.552 56.449 126 126 126s126-56.448 126-126z"/><glyph glyph-name="map-marked-alt-primary" unicode="" horiz-adv-x="576" d="M288 448c69.552 0 126-56.448 126-126 0-56.26-82.35-158.8-113.9-196-2.61-3.122-8.03-5.656-12.1-5.656s-9.49 2.534-12.1 5.656C244.35 163.2 162 265.74 162 322c0 69.552 56.449 126 126 126zm0-168c23.184 0 42 18.816 42 42s-18.816 42-42 42-42-18.816-42-42 18.816-42 42-42z"/><glyph glyph-name="marker-primary" unicode="" d="M485.5 293.47L320 128 192 256l98.48 98.47-19.6 19.59-87.15-87.15c-2.587-2.588-7.656-4.687-11.315-4.687s-8.728 2.1-11.315 4.687l-22.62 22.62c-2.587 2.587-4.688 7.656-4.688 11.315s2.1 8.728 4.689 11.315L242.6 436.28c6.466 6.465 19.136 11.711 28.28 11.711s21.813-5.246 28.28-11.71l36.56-36.55 21.76 21.76c14.538 14.105 42.777 25.552 63.033 25.552 49.967 0 90.52-40.553 90.52-90.52 0-20.257-11.448-48.495-25.553-63.033z"/><glyph glyph-name="medal-primary" unicode="" d="M256 288c97.152 0 176-78.848 176-176S353.152-64 256-64 80 14.848 80 112s78.848 176 176 176zm92.52-157.26c1.928 1.868 3.492 5.564 3.492 8.249 0 5.49-4.409 10.583-9.842 11.371L289.74 158l-23.43 47.52c-1.748 3.53-6.365 6.395-10.305 6.395s-8.556-2.865-10.304-6.396L222.27 158l-52.4-7.63c-5.417-.798-9.814-5.89-9.814-11.366 0-2.673 1.552-6.357 3.464-8.223l37.93-37-9-52.22a13.78 13.78 0 0 1-.161-1.924c0-6.336 5.142-11.48 11.479-11.48 1.562 0 3.95.589 5.332 1.313L256 54.12l46.94-24.69c1.383-.724 3.771-1.313 5.333-1.313 6.337 0 11.48 5.144 11.48 11.48 0 .535-.073 1.397-.163 1.923l-9 52.221z"/><glyph glyph-name="meh-blank-primary" unicode="" d="M176 272c17.664 0 32-14.336 32-32s-14.336-32-32-32-32 14.336-32 32 14.336 32 32 32zm160 0c17.664 0 32-14.336 32-32s-14.336-32-32-32-32 14.336-32 32 14.336 32 32 32z"/><glyph glyph-name="meh-rolling-eyes-primary" unicode="" d="M383 280c.552-2.156 1-5.712 1-7.938 0-17.664-14.336-32-32-32s-32 14.336-32 32c0 2.226.448 5.782 1 7.938 7.985 4.42 21.873 8.009 31 8.009s23.015-3.588 31-8.009zm-223 8h.094c9.101 0 22.947-3.584 30.906-8 .552-2.156 1-5.712 1-7.938 0-17.664-14.336-32-32-32s-32 14.336-32 32c0 2.226.448 5.782 1 7.938 7.959 4.416 21.805 8 30.906 8H160z"/><glyph glyph-name="monument-primary" unicode="" horiz-adv-x="384" d="M289.14 347.26L320 32H64l30.87 315.26c.627 6.272 4.753 14.982 9.21 19.44l76.6 76.61c2.587 2.588 7.656 4.688 11.315 4.688s8.728-2.1 11.315-4.688l76.62-76.61c4.457-4.458 8.583-13.168 9.21-19.44zM240 140.8v38.4c0 6.4-6.4 12.8-12.8 12.8h-70.4c-6.4 0-12.8-6.4-12.8-12.8v-38.4c0-6.4 6.4-12.8 12.8-12.8h70.4c6.4 0 12.8 6.4 12.8 12.8z"/><glyph glyph-name="mortar-pestle-primary" unicode="" d="M16 256h480c8.832 0 16-7.168 16-16v-32c0-8.832-7.168-16-16-16h-16c0-81-50.2-150.11-121.13-178.32C369.919-.746 381.097-27.034 383.82-45c.112-.705.202-1.856.202-2.57 0-8.983-7.29-16.344-16.272-16.43h-223.5c-8.983.086-16.273 7.447-16.273 16.43 0 .714.091 1.865.202 2.57 2.73 17.966 13.908 44.26 24.95 58.69C82.2 41.89 32 111 32 192H16c-8.831 0-16 7.169-16 16v32c0 8.833 7.169 16 16 16z"/><glyph glyph-name="paint-brush-alt-primary" unicode="" d="M167.87 138.71l87.07-72.56c.452-2.743.927-7.223 1.06-10C256-20.23 203.86-64 128-64 37.93-64 0 8.38 0 90.73c9.79-6.68 44.14-34.35 55.25-34.35l.265-.002c5.88 0 12.298 4.48 14.325 10.002 20.8 54.8 57.58 69.92 98.03 72.33z"/><glyph glyph-name="paint-roller-primary" unicode="" d="M512 320v-64c0-52.992-43.008-96-96-96H256v-32c17.664 0 32-14.336 32-32V-32c0-17.664-14.336-32-32-32h-64c-17.664 0-32 14.336-32 32V96c0 17.664 14.336 32 32 32v32c0 35.328 28.672 64 64 64h160c17.664 0 32 14.336 32 32v128c35.328 0 64-28.672 64-64z"/><glyph glyph-name="passport-primary" unicode="" horiz-adv-x="448" d="M224 161.31c-7.69 7.45-20.77 34.43-23.44 78.69h46.87c-2.66-44.27-15.74-71.24-23.43-78.69zM129.62 240h39.09c1.49-27 6.53-51.35 14.21-70.41-24.794 11.8-48.673 43.344-53.3 70.41zm0 32c4.625 27.068 28.503 58.612 53.3 70.41-7.67-19.06-12.72-43.41-14.21-70.41h-39.09zm135.46 70.41c24.797-11.798 48.675-43.342 53.3-70.41h-39.09c-1.49 27-6.53 51.35-14.21 70.41zM200.57 272c2.66 44.26 15.74 71.24 23.44 78.69 7.69-7.45 20.77-34.43 23.43-78.69h-46.87zM416 448c17.664 0 32-14.336 32-32V-32c0-17.664-14.336-32-32-32H64C28.672-64 0-35.328 0 0v384c0 35.328 28.672 64 64 64h352zM336 32c8.832 0 16 7.168 16 16s-7.168 16-16 16H112c-8.832 0-16-7.168-16-16s7.168-16 16-16h224zm-112 96c70.656 0 128 57.344 128 128s-57.344 128-128 128S96 326.656 96 256s57.344-128 128-128zm41.08 41.59c7.68 19.06 12.72 43.41 14.21 70.41h39.09c-4.625-27.068-28.503-58.612-53.3-70.41z"/><glyph glyph-name="pen-fancy-primary" unicode="" d="M483.48 305.45L284 122.34l-97.85 97.85 183.1 199.49c74.48 84.26 199.15-39.16 114.23-114.23z"/><glyph glyph-name="pen-nib-primary" unicode="" d="M497.94 373.83c7.768-7.762 14.072-22.974 14.072-33.955s-6.304-26.194-14.072-33.955l-56.55-56.55-128 128 56.55 56.55c7.762 7.768 22.974 14.073 33.954 14.073 10.981 0 26.193-6.305 33.955-14.073z"/><glyph glyph-name="pencil-ruler-primary" unicode="" d="M497.94 388.68c7.781-7.764 14.098-22.987 14.098-33.98 0-10.988-6.312-26.206-14.088-33.97l-46-46-113.21 113.2 46 46c7.768 7.768 22.99 14.072 33.974 14.072 10.987 0 26.207-6.304 33.976-14.072zM19.08 68.32l297 296.96 113.21-113.19L132.37-44.84 24.92-63.68a25.47 25.47 0 0 0-3.676-.32C9.524-64 .014-54.49.014-42.77c0 1.014.141 2.65.316 3.65z"/><glyph glyph-name="plane-arrival-primary" unicode="" horiz-adv-x="640" d="M32.23 265.59L32 367.37c.054 9.065 7.454 16.423 16.52 16.423 1.178 0 3.06-.243 4.2-.543l39.73-10.83c4.41-1.22 9.337-5.668 11-9.93l27.59-67.88 102.2-27.84L185.34 431c-.003.125-.006.329-.006.455 0 9.113 7.396 16.51 16.51 16.51 1.18 0 3.064-.245 4.206-.546l65.09-17.73c5.123-1.422 10.347-6.757 11.66-11.91l100.36-191.85 97.51-26.56c26.48-7.21 51.55-20.18 70.83-40 21.64-22.25 27.2-40.46 23.37-55S557.29 77 527.62 68.7c-26.44-7.36-54.52-5.85-81 1.36L159 148.409c-7.948 2.167-19.359 8.407-25.47 13.93l-88.74 80c-6.53 5.91-12.37 14.34-12.56 23.25z"/><glyph glyph-name="prescription-primary" unicode="" horiz-adv-x="384" d="M379.32 17.91c2.587-2.587 4.688-7.656 4.688-11.315 0-3.658-2.101-8.728-4.688-11.315l-22.63-22.63c-2.587-2.587-7.656-4.687-11.315-4.687s-8.729 2.1-11.316 4.687L256 50.71l45.26 45.2zM172 225.22l84-84L210.75 96l-128 128H64v-80c0-8.832-7.168-16-16-16H16c-8.832 0-16 7.168-16 16v256c0 8.832 7.168 16 16 16h144c52.992 0 96-43.008 96-96 0-48.89-36.73-88.78-84-94.78zM64 288h96c17.664 0 32 14.336 32 32s-14.336 32-32 32H64v-64z"/><glyph glyph-name="sad-cry-primary" unicode="" d="M160.1 267.9c25.7 0 55.9-16.9 59.9-42.1a14.38 14.38 0 0 0 .136-1.798c0-6.624-5.376-12-12-12-2.503 0-6.058 1.342-7.935 2.998l-9.7 8.5c-14.8 13.2-46.2 13.2-61 0L120 215c-1.879-1.656-5.433-2.998-7.936-2.998-6.624 0-12 5.376-12 12 0 .499.06 1.304.136 1.797 4 25.2 34.2 42.101 59.899 42.101zM412 225.8c.053-.42.095-1.106.095-1.53 0-3.989-2.82-8.813-6.295-10.77-1.476-.806-4.04-1.46-5.72-1.46-2.527 0-6.101 1.37-7.98 3.06l-9.5 8.5c-14.8 13.2-46.2 13.2-61 0L312 215c-1.878-1.655-5.433-2.998-7.936-2.998-6.624 0-12 5.376-12 12 0 .5.061 1.305.136 1.798 4 25.2 34.2 42.1 59.9 42.1 25.7 0 55.9-16.9 59.9-42.1zM368 176c8.832 0 16-7.168 16-16V-20.47c-8.505-5.134-22.84-12.423-32-16.27V160c0 8.832 7.168 16 16 16zm-224 0c8.832 0 16-7.168 16-16V-36.74c-9.16 3.848-23.495 11.137-32 16.27V160c0 8.833 7.168 16 16 16z"/><glyph glyph-name="sad-tear-primary" unicode="" d="M336 272c17.664 0 32-14.336 32-32s-14.336-32-32-32-32 14.336-32 32 14.336 32 32 32zM153.6 156.8c1.325 1.767 4.192 3.2 6.4 3.2s5.076-1.433 6.4-3.2C179.5 139.4 208 99 208 79c0-26-21.5-47-48-47s-48 21-48 47c0 20 28.5 60.4 41.6 77.8zM176 272c17.664 0 32-14.336 32-32s-14.336-32-32-32-32 14.336-32 32 14.336 32 32 32z"/><glyph glyph-name="shuttle-van-primary" unicode="" horiz-adv-x="640" d="M628.88 237.35c6.137-7.371 11.118-21.139 11.12-30.73V96c0-17.664-14.336-32-32-32h-17.14c-7.624 53.026-57.29 96.061-110.86 96.061s-103.236-43.035-110.86-96.06h-98.279c-7.624 53.025-57.29 96.06-110.86 96.06s-103.236-43.035-110.86-96.06h-17.14c-17.664 0-32 14.335-32 32v288c0 17.664 14.336 32 32 32h425.52c12.41-.001 28.927-7.739 36.87-17.27zM160 256v96H64v-96h96zm160 0v96h-96v-96h96zm64 0h146l-80 96h-66v-96z"/><glyph glyph-name="smile-beam-primary" unicode="" d="M176 296c23.8 0 52.7-29.3 56-71.4.7-8.6-10.8-11.9-14.9-4.5l-9.5 17c-7.7 13.7-19.2 21.6-31.5 21.6s-23.8-7.9-31.5-21.6l-9.5-17c-4.3-7.4-15.8-4-15.1 4.5 3.3 42.1 32.2 71.4 56 71.4zm216.1-71.4c.6-8.6-11-11.9-15.1-4.5l-9.5 17c-7.7 13.7-19.2 21.6-31.5 21.6s-23.8-7.9-31.5-21.6l-9.5-17c-4.1-7.3-15.6-4-14.9 4.5 3.3 42.1 32.2 71.4 56 71.4 23.8 0 52.7-29.3 56-71.4z"/><glyph glyph-name="smile-plus-primary" unicode="" horiz-adv-x="640" d="M624 368c8.832 0 16-7.168 16-16v-32c0-8.832-7.168-16-16-16h-64v-64c0-8.832-7.168-16-16-16h-32c-8.832 0-16 7.168-16 16v64h-64c-8.832 0-16 7.168-16 16v32c0 8.832 7.168 16 16 16h64v64c0 8.832 7.168 16 16 16h32c8.832 0 16-7.168 16-16v-64h64zM272 218.8c14.794 0 26.8-12.006 26.8-26.8s-12.006-26.8-26.8-26.8-26.8 12.006-26.8 26.8 12.006 26.8 26.8 26.8zm-128 0c14.794 0 26.8-12.006 26.8-26.8s-12.006-26.8-26.8-26.8-26.8 12.006-26.8 26.8 12.006 26.8 26.8 26.8z"/><glyph glyph-name="solar-panel-primary" unicode="" horiz-adv-x="640" d="M432 0c8.832 0 16-7.168 16-16v-31.74c0-8.832-7.168-16-16-16L208-64c-8.832 0-16 7.168-16 16v31.74c0 8.832 7.168 16 16 16l48 .05V32h128V-.05zm-51.84 384l9.77-96H250.06l9.77 96h120.33zm161.59-96H439l-9.73 96h96.19zm-146.93-48l11.4-112H233.77l11.4 112h149.65zM90.1 240h105.97l-11.41-112H71.1zm120.62 144L201 288H98.24l16.29 96h96.19zM549.9 240l19.01-112H455.3l-11.4 112h106z"/><glyph glyph-name="spa-primary" unicode="" horiz-adv-x="576" d="M576 248.18c-.23-27.92-7.13-126.14-88.77-199.3C403.19-33 320-32 288-32S172.79-33 88.77 48.88C7.14 122 .231 220.26.001 248.18a7.603 7.603 0 0 0 7.75 7.82c29-.13 135-6.16 213.84-83 33.12-29.64 53.41-63.3 66.41-94.86 13.05 31.56 33.29 65.22 66.41 94.85 78.83 76.84 184.8 82.87 213.84 83l.154.001A7.602 7.602 0 0 0 576 248.18z"/><glyph glyph-name="splotch-primary" unicode="" d="M472.29 252.11c48.54-16.62 53.83-73.83 8.95-96.8l-62-31.74c-17.83-9.13-29.28-25.2-30.63-43l-4.7-61.86C381.57-12 351.81-32 320.66-32a90.752 90.752 0 0 0-.516-.002c-12.458 0-30.684 6.03-40.684 13.461l-54.32 40.83c-10.122 7.398-28.51 13.402-41.047 13.402l-.513-.001h-.018c-4.325 0-11.266-.75-15.492-1.67l-70-15.28c-4.347-.955-11.49-1.735-15.94-1.74-43.24 0-75.92 38.76-57.51 75.6l28.43 57c8.18 16.4 6.44 35.169-4.59 50.24l-38.54 52.4c-26.8 36.46 4.36 83.069 52.95 83.069 1.99 0 4-.08 6.05-.24l71.88-5.62c1.92-.15 3.83-.22 5.74-.22 18.62 0 36.46 7.09 48.46 19.53l46.09 47.67c12.96 13.39 30.67 19.57 48.17 19.57 27.63 0 54.74-15.4 61.83-42.19l16-60.45c4.6-17.38 18.86-31.7 38.14-38.3zM306.89 61c2.26 29.67.63 95.25 79.87 135.87-86.2 29.52-94.59 86.93-105.069 126.52-47.71-49.29-68.54-79.8-172.07-71.71 44.86-61.02 27.66-112.399 10.86-146.08 103.41 22.57 123.28 2.86 186.41-44.6z"/><glyph glyph-name="spray-can-primary" unicode="" d="M224 288c52.992 0 96-43.008 96-96V-32c0-17.664-14.336-32-32-32H32C14.336-64 0-49.664 0-32v224c0 52.992 43.008 96 96 96h128zM160 32c44.16 0 80 35.84 80 80s-35.84 80-80 80-80-35.84-80-80 35.84-80 80-80zm64 384v-96H96v96c0 17.664 14.336 32 32 32h64c17.664 0 32-14.336 32-32z"/><glyph glyph-name="stamp-primary" unicode="" d="M32 0h448v-64H32V0z"/><glyph glyph-name="star-half-alt-primary" unicode="" horiz-adv-x="544" d="M94.9-26.5l25 145.5L14.2 222c-19 18.5-8.5 50.8 17.7 54.6L178 297.8l65.3 132.4c4.778 9.826 17.522 17.8 28.448 17.8H272V8.4L141.3-60.201c-23.4-12.3-50.9 7.6-46.4 33.7z"/><glyph glyph-name="suitcase-rolling-primary" unicode="" horiz-adv-x="384" d="M336 288c26.496 0 48-21.504 48-48V16c0-26.496-21.504-48-48-48h-16v-16c0-8.832-7.168-16-16-16h-32c-8.832 0-16 7.168-16 16v16H128v-16c0-8.832-7.168-16-16-16H80c-8.832 0-16 7.168-16 16v16H48C21.504-32 0-10.496 0 16v224c0 26.496 21.504 48 48 48h288zM320 72v16c0 4.416-3.584 8-8 8H72c-4.416 0-8-3.584-8-8V72c0-4.416 3.584-8 8-8h240c4.416 0 8 3.584 8 8zm0 96v16c0 4.416-3.584 8-8 8H72c-4.416 0-8-3.584-8-8v-16c0-4.416 3.584-8 8-8h240c4.416 0 8 3.584 8 8z"/><glyph glyph-name="surprise-primary" unicode="" d="M336 272c17.664 0 32-14.336 32-32s-14.336-32-32-32-32 14.336-32 32 14.336 32 32 32zm-160 0c17.664 0 32-14.336 32-32s-14.336-32-32-32-32 14.336-32 32 14.336 32 32 32z"/><glyph glyph-name="swatchbook-primary" unicode="" d="M159.68 448c17.63-.033 31.94-14.37 31.94-32V32c0-52.887-42.922-95.81-95.81-95.81C42.923-63.81 0-20.887 0 32v384c0 17.63 14.31 31.967 31.94 32h127.74zM95.81 8c13.248 0 24 10.752 24 24s-10.752 24-24 24-24-10.752-24-24 10.752-24 24-24zM63.88 192h63.88v64H63.88v-64zm0 128h63.88v64H63.88v-64z"/><glyph glyph-name="swimmer-primary" unicode="" horiz-adv-x="640" d="M640 80V48c0-8.832-7.168-16-16-16h-16c-38.62 0-72.72 12.18-96 31.84C488.72 44.19 454.62 32 416 32s-72.72 12.18-96 31.84C296.72 44.19 262.62 32 224 32s-72.72 12.18-96 31.84C104.72 44.19 70.62 32 32 32H16C7.168 32 0 39.168 0 48v32c0 8.832 7.168 16 16 16h16c26 0 45.8 8.42 56.07 17.9 8.9 8.21 19.66 14.1 31.77 14.1h16.3c12.11 0 22.87-5.89 31.77-14.1C178.2 104.42 198 96 224 96s45.8 8.42 56.07 17.9c8.9 8.21 19.66 14.1 31.77 14.1h16.3c12.11 0 22.87-5.89 31.77-14.1C370.2 104.42 390 96 416 96s45.8 8.42 56.07 17.9c8.9 8.21 19.66 14.1 31.77 14.1h16.3c12.11 0 22.87-5.89 31.77-14.1C562.2 104.42 582 96 608 96h16c8.832 0 16-7.168 16-16z"/><glyph glyph-name="swimming-pool-primary" unicode="" horiz-adv-x="640" d="M0-16v32c0 8.832 7.168 16 16 16h16c26 0 45.8 8.42 56.07 17.9 8.9 8.21 19.66 14.1 31.77 14.1h16.3c12.11 0 22.87-5.89 31.77-14.1C178.2 40.42 198 32 224 32s45.8 8.42 56.07 17.9c8.9 8.21 19.66 14.1 31.77 14.1h16.3c12.11 0 22.87-5.89 31.77-14.1C370.2 40.42 390 32 416 32s45.8 8.42 56.07 17.9c8.9 8.21 19.66 14.1 31.77 14.1h16.3c12.11 0 22.87-5.89 31.77-14.1C562.2 40.42 582 32 608 32h16c8.832 0 16-7.168 16-16v-32c0-8.832-7.168-16-16-16h-16c-38.62 0-72.72 12.18-96 31.84C488.72-19.81 454.62-32 416-32S343.28-19.82 320-.16C296.72-19.81 262.62-32 224-32S151.28-19.82 128-.16C104.72-19.81 70.62-32 32-32H16C7.168-32 0-24.832 0-16z"/><glyph glyph-name="tint-slash-primary" unicode="" horiz-adv-x="640" d="M636.64-32.55L617-57.82c-2.652-3.412-8.311-6.183-12.633-6.183-3.032 0-7.434 1.512-9.827 3.373L6.18 394.1c-3.41 2.65-6.177 8.31-6.177 12.63 0 3.03 1.508 7.428 3.368 9.82L23 441.82c2.652 3.415 8.313 6.187 12.637 6.187 3.035 0 7.439-1.513 9.832-3.378L633.821-10.1c3.414-2.652 6.184-8.312 6.184-12.635 0-3.028-1.507-7.424-3.364-9.815z"/><glyph glyph-name="tired-primary" unicode="" d="M222.2 250.3c3.225-1.928 5.843-6.542 5.843-10.3s-2.618-8.372-5.843-10.3l-80-48c-11.5-6.8-24 7.6-15.4 18l33.6 40.3-33.6 40.3c-8.6 10.3 3.8 24.9 15.4 18zm163-50.6c8.7-10.4-3.9-24.8-15.4-18l-80 48c-3.19 1.948-5.778 6.563-5.778 10.3s2.588 8.351 5.778 10.3l80 48c11.6 6.9 24-7.7 15.4-18L351.6 240z"/><glyph glyph-name="tooth-primary" unicode="" horiz-adv-x="448"/><glyph glyph-name="umbrella-beach-primary" unicode="" horiz-adv-x="640" d="M247.63 262.94c44.49 101.979 114.74 171.13 172.76 171.17h.296c6.484 0 16.697-1.792 22.795-4 61.32-22.34 78.38-132.62 42.619-254zM115.38 311.1c-10.08 3.67-14.11 16.32-7.38 24.72 49.589 61.915 154.214 112.164 233.54 112.164 4.128 0 10.826-.167 14.95-.373-52.79-29.41-103.81-92.15-139-173.69zm406.09 76.4c65.42-49.6 118.517-156.484 118.517-238.582 0-1.862-.034-4.886-.076-6.748-.26-10.74-11.48-17.84-21.57-14.17l-102.62 37.31c17.53 58.77 24.69 117.11 18.95 167-1.723 15.692-7.636 40.417-13.2 55.19zM560 0c8.832 0 16-7.168 16-16v-32c0-8.832-7.168-16-16-16H16C7.168-64 0-56.832 0-48v32C0-7.168 7.168 0 16 0h544z"/><glyph glyph-name="vector-square-primary" unicode="" d="M128 96c17.664 0 32-14.336 32-32v-96c0-17.664-14.336-32-32-32H32C14.336-64 0-49.664 0-32v96c0 17.664 14.336 32 32 32h96zM96 0v32H64V0h32zm384 96c17.664 0 32-14.336 32-32v-96c0-17.664-14.336-32-32-32h-96c-17.664 0-32 14.336-32 32v96c0 17.664 14.336 32 32 32h96zM448 0v32h-32V0h32zm32 448c17.664 0 32-14.336 32-32v-96c0-17.664-14.336-32-32-32h-96c-17.664 0-32 14.336-32 32v96c0 17.664 14.336 32 32 32h96zm-32-96v32h-32v-32h32zm-320 96c17.664 0 32-14.336 32-32v-96c0-17.664-14.336-32-32-32H32c-17.664 0-32 14.336-32 32v96c0 17.664 14.336 32 32 32h96zm-32-96v32H64v-32h32z"/><glyph glyph-name="weight-hanging-primary" unicode="" d="M510.28 2.15C518.61-31.16 495.62-64 464-64H48C16.38-64-6.61-31.16 1.77 2.15l73 292.13C78.56 309.46 91.21 320 105.64 320h300.77c14.43 0 27.07-10.53 30.87-25.72z"/><glyph glyph-name="wine-glass-alt-primary" unicode="" horiz-adv-x="320" d="M80.35 249.63L86.66 320h146.7l6.3-70.36c.213-2.155.385-5.66.385-7.825 0-14.52-7.018-35.771-15.665-47.435-9.79-13.28-30.773-27.102-46.84-30.85-4.767-1.105-12.606-2.003-17.5-2.003s-12.733.898-17.5 2.003c-16.066 3.75-37.05 17.57-46.84 30.85-8.68 11.687-15.723 32.988-15.723 47.546 0 2.132.167 5.583.373 7.704z"/><glyph glyph-name="glass-martini-secondary" unicode="􏀀" d="M502 390.4L288 176.36V-16h56c22.08 0 40-17.92 40-40 0-4.416-3.584-8-8-8H136c-4.416 0-8 3.584-8 8 0 22.08 17.92 40 40 40h56v192.4l-214 214C-11.32 411.66 3.73 448 33.78 448h444.4c30.05 0 45.1-36.34 23.82-57.6zM256 234.87L405.12 384H106.84z"/><glyph glyph-name="tint-secondary" unicode="􏁃" horiz-adv-x="352" d="M205.22 425.91C252.21 267.43 352 225.84 352 114.09 352 15.65 273.28-64 176-64S0 15.65 0 114.09c0 111.19 100 154.061 146.78 311.82 9 30.12 50.5 28.78 58.44 0zM176 0c8.832 0 16 7.168 16 16s-7.168 16-16 16c-44.11.05-79.95 35.89-80 80 0 8.832-7.168 16-16 16s-16-7.168-16-16C64.077 50.253 114.253.077 176 0z"/><glyph glyph-name="cut-secondary" unicode="􏃄" horiz-adv-x="448" d="M96 224C43.024 224.017.03 267.024.03 320c0 52.992 43.008 96 96 96 52.991 0 96-43.008 96-96 0-10.084-3.007-25.88-6.71-35.26l24.85-24.86L142.29 192l-32.93 32.93c-3.67-.513-9.655-.93-13.36-.93zm0 128c-17.664 0-32-14.336-32-32s14.336-32 32-32 32 14.336 32 32-14.336 32-32 32zM444.48 25.57c1.948-1.941 3.53-5.75 3.53-8.5s-1.582-6.558-3.53-8.5c-13.581-13.58-40.19-24.6-59.395-24.6S339.27-5.01 325.69 8.57L210.169 124.12l67.89 67.88z"/><glyph glyph-name="magic-secondary" unicode="􏃐" d="M80 448l26.66-53.33L160 368l-53.34-26.67L80 288l-26.66 53.33L0 368l53.34 26.67zm192-48l-32-16-16-32-16 32-32 16 32 16 16 32 16-32zm186.66-293.33L512 80l-53.34-26.67L432 0l-26.66 53.33L352 80l53.34 26.67L432 160zM399 204.93l-39.51-39.57-39.59 39.58-50.91 50.91-39.61 39.61 39.62 39.6 86.49 86.54 17 17c5.173 5.173 15.31 9.37 22.625 9.37s17.451-4.197 22.625-9.37l17-17 50.86-50.86 17-17c5.175-5.173 9.375-15.312 9.375-22.63s-4.2-17.455-9.376-22.63l-17-17zm-90.5 90.52l50.95-50.91 86.6 86.55L395.14 382z"/><glyph glyph-name="smile-secondary" unicode="􏄘" d="M256 440c137 0 248-111 248-248S393-56 256-56 8 55 8 192s111 248 248 248zm80-168c-17.664 0-32-14.336-32-32s14.336-32 32-32 32 14.336 32 32-14.336 32-32 32zm-160 0c-17.664 0-32-14.336-32-32s14.336-32 32-32 32 14.336 32 32-14.336 32-32 32zm194.8-170.2c13.5 16.3-11.2 36.7-24.6 20.5-19.446-23.294-59.856-42.2-90.2-42.2s-70.754 18.906-90.2 42.2c-13.6 16.2-38.2-4.2-24.6-20.5C165.926 72.102 217.357 48 256 48s90.075 24.102 114.8 53.8z"/><glyph glyph-name="frown-secondary" unicode="􏄙" d="M256 440c137 0 248-111 248-248S393-56 256-56 8 55 8 192s111 248 248 248zm80-168c-17.664 0-32-14.336-32-32s14.336-32 32-32 32 14.336 32 32-14.336 32-32 32zm-160 0c-17.664 0-32-14.336-32-32s14.336-32 32-32 32 14.336 32 32-14.336 32-32 32zM346.2 53.8c13.5-16.3 38.1 4.2 24.5 20.4-24.723 29.698-76.15 53.802-114.792 53.802-38.599 0-89.987-24.059-114.708-53.702-13.5-16.3 11.1-36.8 24.6-20.5C185.246 77.094 225.656 96 256 96s70.754-18.906 90.2-42.2z"/><glyph glyph-name="meh-secondary" unicode="􏄚" d="M256 440c137 0 248-111 248-248S393-56 256-56 8 55 8 192s111 248 248 248zm-80-168c-17.664 0-32-14.336-32-32s14.336-32 32-32 32 14.336 32 32-14.336 32-32 32zM352 80c21.2 0 21.2 32 0 32H160c-21.2 0-21.2-32 0-32h192zm-16 128c17.664 0 32 14.336 32 32s-14.336 32-32 32-32-14.336-32-32 14.336-32 32-32z"/><glyph glyph-name="crop-secondary" unicode="􏄥" d="M512 72V24c0-13.248-10.752-24-24-24h-40v96h40c13.248 0 24-10.752 24-24zm-96 312h-13.25l59.31 59.31c2.587 2.587 7.656 4.688 11.315 4.688s8.729-2.1 11.315-4.688l22.62-22.62c2.587-2.586 4.688-7.656 4.688-11.315s-2.1-8.728-4.688-11.315L448 338.75V352c0 17.664-14.336 32-32 32zm-64-141.25L205.25 96H320V0H96C78.336 0 64 14.336 64 32v392c0 13.248 10.752 24 24 24h48c13.248 0 24-10.752 24-24V141.25L306.75 288H352v-45.25z"/><glyph glyph-name="taxi-secondary" unicode="􏆺" d="M352 384v-32H160v32c0 17.664 14.336 32 32 32h128c17.664 0 32-14.336 32-32zM96 80c17.664 0 32-14.336 32-32V0c0-17.664-14.336-32-32-32H64C46.336-32 32-17.664 32 0v48c0 17.664 14.336 32 32 32h32zm352 0c17.664 0 32-14.336 32-32V0c0-17.664-14.336-32-32-32h-32c-17.664 0-32 14.336-32 32v48c0 17.664 14.336 32 32 32h32zm-69.94 195.14L395.45 208h-278.9l17.2 66.36c2.231 8.16 9.59 13.64 15.06 13.64h214.4c5.47 0 12.85-5.48 14.85-12.86z"/><glyph glyph-name="eye-dropper-secondary" unicode="􏇻" d="M32-64L0-32l32 56v45.5c0 17 6.7 33.3 18.8 45.3l126.6 126.6 128-128L178.7-13.3c-12-12-28.299-18.7-45.2-18.7H88z"/><glyph glyph-name="paint-brush-secondary" unicode="􏇼" d="M512 398.45c0-16.14-6.52-31.64-13.9-46C385.06 141.47 349.06 96 287 96c-6.283.063-16.313 1.407-22.39 3l-63.82 53.18c-4.753 10.153-8.663 27.49-8.73 38.7 0 53.75 21.27 58 225.68 240.64 10.79 9.77 25 16.48 40.16 16.48 28.1 0 54.1-20.64 54.1-49.55z"/><glyph glyph-name="bus-secondary" unicode="􏈇" d="M352 0h96v-32c0-17.664-14.336-32-32-32h-32c-17.664 0-32 14.336-32 32V0zM64-32V0h96v-32c0-17.664-14.336-32-32-32H96c-17.664 0-32 14.336-32 32zm64 192c-17.664 0-32 14.336-32 32v128c0 17.664 14.336 32 32 32h256c17.664 0 32-14.336 32-32V192c0-17.664-14.336-32-32-32H128z"/><glyph glyph-name="bed-secondary" unicode="􏈶" horiz-adv-x="640" d="M528 320c61.824 0 112-50.176 112-112v-48H288v144c0 8.832 7.168 16 16 16h224zm-352 32c44.16 0 80-35.84 80-80s-35.84-80-80-80-80 35.84-80 80 35.84 80 80 80z"/><glyph glyph-name="map-secondary" unicode="􏉹" horiz-adv-x="576" d="M192 416l192-64V-32L192 32v384z"/><glyph glyph-name="pen-secondary" unicode="􏌄" d="M498 305.92l-56.6-56.55-128 128 56.55 56.55c7.762 7.769 22.974 14.073 33.955 14.073s26.194-6.304 33.955-14.073L498 373.83c7.769-7.762 14.073-22.973 14.073-33.955S505.77 313.682 498 305.92z"/><glyph glyph-name="pen-alt-secondary" unicode="􏌅" d="M498 373.83c7.769-7.762 14.073-22.974 14.073-33.955S505.77 313.68 498 305.92l-56.6-56.55-128 128 56.55 56.55c7.762 7.768 22.974 14.073 33.955 14.073s26.194-6.305 33.955-14.073z"/><glyph glyph-name="smile-wink-secondary" unicode="􏓚" d="M256 440c137 0 248-111 248-248S393-56 256-56 8 55 8 192s111 248 248 248zm-80-168c-17.664 0-32-14.336-32-32s14.336-32 32-32 32 14.336 32 32-14.336 32-32 32zm194.8-170.3c13.5 16.3-11 36.7-24.6 20.5C326.754 98.906 286.344 80 256 80s-70.754 18.906-90.2 42.2c-13.4 16.3-38.1-4.1-24.6-20.4C165.94 72.102 217.39 48 256.042 48c38.609 0 90.02 24.057 114.758 53.7zm5.4 113.3c8.4-7.5 21.5-.3 19.8 10.8-4 25.2-34.2 42.1-59.9 42.1-25.7 0-55.9-16.9-59.9-42.1-1.8-11.2 11.5-18.2 19.8-10.8l9.5 8.5c14.8 13.2 46.2 13.2 61 0z"/><glyph glyph-name="wine-glass-secondary" unicode="􏓣" horiz-adv-x="320" d="M227.63 384H92.39L80.38 249.64c-.21-2.143-.38-5.629-.38-7.781 0-14.531 7.02-35.802 15.67-47.479 9.79-13.28 30.774-27.1 46.84-30.85 4.767-1.105 12.607-2.002 17.5-2.002 4.894 0 12.733.897 17.5 2.003 16.067 3.748 37.052 17.569 46.84 30.85 8.647 11.663 15.666 32.914 15.666 47.435 0 2.164-.173 5.67-.386 7.824zm44.12 64c7.984-.074 14.995-6.592 15.65-14.55l16-178.1c.335-3.647.608-9.58.608-13.242 0-63.465-50.18-126.597-112.008-140.918V-16h40c22.08 0 40-17.92 40-40 0-4.416-3.584-8-8-8H56c-4.416 0-8 3.584-8 8 0 22.08 17.92 40 40 40h40v117.18C66.155 115.493 15.963 178.627 15.963 242.106c0 3.66.272 9.59.607 13.234l16 178.11c.656 7.983 7.69 14.501 15.7 14.55h223.48z"/><glyph glyph-name="feather-secondary" unicode="􏔭" d="M483.4 203.8L351.849 160h97.78c-9.92-10.68 3.68 3.07-46.3-46.86L255.75 64h98.19C279-9.11 159.42-6.65 107.12 9.06l-.06.05L305 207c3.887 3.887 7.042 11.503 7.042 17 0 13.271-10.771 24.043-24.042 24.043-5.497 0-13.113-3.156-17-7.042L73.19 43.13l-.2.21C60.86 83.71 46.87 209.62 129.1 291.77c24.78 24.74 7.15 7.14 85.75 85.66 90.61 90.51 189.73 88.21 252.28 25.73 50.58-50.52 61.7-124.9 16.27-199.36z"/><glyph glyph-name="angry-secondary" unicode="􏕖" d="M256 440c137 0 248-111 248-248S393-56 256-56 8 55 8 192s111 248 248 248zM144 208c.035-17.629 14.371-31.938 32-31.938 17.664 0 32 14.337 32 32 0 2.226-.448 5.782-1 7.938h1.019c8.832 0 16 7.168 16 16 0 6.578-5.116 13.446-11.42 15.33l-80 24c-1.242.373-3.302.675-4.599.675-8.835 0-16.005-7.17-16.005-16.005 0-6.573 5.11-13.44 11.405-15.33l30.82-9.24c-5.642-5.221-10.22-15.697-10.22-23.383V208zM312.32 53.95c13.47-16.04 38.49 3.98 24.66 20.41-17.522 20.79-53.81 37.664-81 37.664-27.19 0-63.478-16.874-81-37.664-13.66-16.23 11.15-36.64 24.72-20.41 28.03 33.26 84.69 33.26 112.62 0zm77.28 186.72c6.293 1.889 11.39 8.755 11.39 15.325 0 8.832-7.167 16-16 16-1.296 0-3.358-.303-4.6-.675l-80-24c-6.284-1.893-11.385-8.756-11.385-15.32 0-8.829 7.166-15.997 15.995-16-.563-2.177-1.02-5.77-1.02-8.018 0-17.665 14.336-32 32-32s32 14.335 32 32c0 7.592-4.47 17.994-9.98 23.218z"/><glyph glyph-name="archway-secondary" unicode="􏕗" horiz-adv-x="576" d="M576 432v-32c0-8.832-7.168-16-16-16H16c-8.832 0-16 7.168-16 16v32c0 8.832 7.168 16 16 16h544c8.832 0 16-7.168 16-16z"/><glyph glyph-name="atlas-secondary" unicode="􏕘" horiz-adv-x="448" d="M96 0C76.8 0 64 12.8 64 32s16 32 32 32h319.33c-1.93-16.24-1.76-48.38.53-64H96z"/><glyph glyph-name="backspace-secondary" unicode="􏕚" horiz-adv-x="640" d="M576 384c35.328 0 64-28.672 64-64V64c0-35.328-28.672-64-64-64H205.25C190.617.002 170.346 8.402 160 18.75L9.38 169.38C4.208 174.554.01 184.69.01 192.005s4.198 17.452 9.37 22.625L160 365.25C170.348 375.6 190.624 384 205.26 384H576zm-84.69-254.06L429.25 192l62.06 62.06c2.588 2.586 4.688 7.655 4.688 11.315s-2.1 8.728-4.688 11.315l-22.62 22.62c-2.586 2.587-7.655 4.688-11.314 4.688s-8.729-2.101-11.316-4.689L384 237.25l-62.06 62.06c-2.586 2.588-7.655 4.689-11.314 4.689s-8.729-2.101-11.316-4.689l-22.619-22.619c-2.588-2.587-4.688-7.656-4.688-11.315s2.1-8.729 4.688-11.316l62.06-62.06-62.06-62.059c-2.588-2.587-4.688-7.656-4.688-11.315s2.1-8.729 4.688-11.316l22.62-22.619c2.586-2.588 7.655-4.688 11.314-4.688s8.729 2.1 11.316 4.688L384 146.75l62.06-62.06c2.586-2.588 7.655-4.688 11.314-4.688s8.729 2.1 11.316 4.688l22.619 22.62c2.588 2.586 4.688 7.655 4.688 11.315s-2.1 8.728-4.688 11.315z"/><glyph glyph-name="bezier-curve-secondary" unicode="􏕛" horiz-adv-x="640" d="M368 416c17.664 0 32-14.336 32-32v-96c0-17.664-14.336-32-32-32h-96c-17.664 0-32 14.336-32 32v96c0 17.664 14.336 32 32 32h96zM160 128c17.664 0 32-14.336 32-32V0c0-17.664-14.336-32-32-32H64C46.336-32 32-17.664 32 0v96c0 17.664 14.336 32 32 32h96zm416 0c17.664 0 32-14.336 32-32V0c0-17.664-14.336-32-32-32h-96c-17.664 0-32 14.336-32 32v96c0 17.664 14.336 32 32 32h96z"/><glyph glyph-name="bong-secondary" unicode="􏕜" horiz-adv-x="448" d="M48 64c0 25.42 5.87 46.53 14.74 64h258.52C330.13 110.53 336 89.42 336 64c0-21.104-8.548-53.072-19.08-71.36-2.608-4.673-9.068-8.544-14.42-8.64h-221c-5.351.096-11.811 3.967-14.42 8.64C56.55 10.928 48.002 42.896 48 64z"/><glyph glyph-name="brush-secondary" unicode="􏕝" horiz-adv-x="384" d="M384 416V192H0v224c0 17.664 14.336 32 32 32h320c17.664 0 32-14.336 32-32z"/><glyph glyph-name="bus-alt-secondary" unicode="􏕞" d="M96 288c0 17.664 14.336 32 32 32h112V160H128c-17.664 0-32 14.336-32 32v96zm320-96c0-17.664-14.336-32-32-32H272v160h112c17.664 0 32-14.336 32-32v-96zM64-32V0h96v-32c0-17.664-14.336-32-32-32H96c-17.664 0-32 14.336-32 32zM352 0h96v-32c0-17.664-14.336-32-32-32h-32c-17.664 0-32 14.336-32 32V0z"/><glyph glyph-name="cannabis-secondary" unicode="􏕟" d="M512 73.6c0-5.317-3.813-11.661-8.51-14.15C501 58.16 442.72 27.73 370 27.73c-6.127 0-11.96.104-17.5.31 11.36-22.23 16.52-38.31 16.81-39.22.41-1.298.743-3.458.743-4.819 0-8.832-7.168-16-16-16-1.339 0-3.464.322-4.743.719-1.83.58-37.72 12-77.3 39.29V168c0 4.416-3.584 8-8 8H248c-4.416 0-8-3.584-8-8V8c-39.58-27.3-75.47-38.72-77.3-39.29-1.279-.397-3.404-.719-4.743-.719-8.832 0-16 7.168-16 16 0 1.361.333 3.52.743 4.818.29.91 5.44 17 16.81 39.221-5.54-.21-11.36-.31-17.5-.31-72.73 0-131 30.43-133.49 31.72-4.704 2.487-8.521 8.823-8.521 14.145S3.816 85.243 8.52 87.73c1.57.82 32.39 16.89 76.78 25.81C21.06 188.68 1.26 275.23.38 279.2c-.209.943-.378 2.495-.378 3.462 0 8.832 7.168 16 16 16 .958 0 2.494-.167 3.428-.372 3.89-.86 86.551-19.6 160.58-79.76v4.4c0 118.79 60 213.72 62.53 217.7 2.607 4.06 8.64 7.357 13.465 7.357s10.859-3.296 13.465-7.358c2.55-4 62.53-98.91 62.53-217.7v-4.4c74 60.17 156.7 78.911 160.58 79.76.932.21 2.463.38 3.418.38h.022c8.833 0 16-7.167 16-16 0-.968-.169-2.523-.38-3.47-.88-4-20.68-90.52-84.93-165.64 44.39-8.92 75.22-25 76.78-25.81 4.698-2.488 8.51-8.822 8.51-14.138v-.012z"/><glyph glyph-name="cocktail-secondary" unicode="􏕡" horiz-adv-x="576" d="M432 448c.253.002.663.003.916.003 79.488 0 144-64.512 144-144s-64.512-144-144-144c-22.508 0-56.33 9.577-75.496 21.377l35.26 35.26c10.336-4.735 27.95-8.606 39.32-8.64 52.992 0 96 43.008 96 96s-43.008 96-96 96c-35.37 0-66-19.45-82.64-48h-52.53c19.83 55.8 72.57 96 135.17 96z"/><glyph glyph-name="concierge-bell-secondary" unicode="􏕢" d="M512 48V16c0-8.832-7.168-16-16-16H16C7.168 0 0 7.168 0 16v32c0 8.832 7.168 16 16 16h480c8.832 0 16-7.168 16-16zM208 336c-8.832 0-16 7.168-16 16v16c0 8.832 7.168 16 16 16h96c8.832 0 16-7.168 16-16v-16c0-8.832-7.168-16-16-16h-16v-18.29c-8.787 1.264-23.123 2.29-32 2.29s-23.213-1.026-32-2.29V336h-16z"/><glyph glyph-name="cookie-secondary" unicode="􏕣" d="M510.37 193.22c.896-5.678 1.624-14.951 1.624-20.7 0-17.593-6.484-44.595-14.475-60.27l-35.1-68.87c-10.77-21.13-36.66-47.025-57.79-57.8l-69.11-35.21C319.94-57.562 293.107-64 275.625-64c-5.728 0-14.968.725-20.625 1.62l-76.67 12.14c-23.385 3.712-55.955 20.31-72.7 37.05L50.87 41.56c-16.793 16.804-33.44 49.486-37.16 72.95L1.63 190.79c-.9 5.688-1.631 14.978-1.631 20.737 0 17.573 6.473 44.544 14.451 60.204l35.1 68.88c10.771 21.13 36.66 47.025 57.79 57.8l69.14 35.21c15.576 7.939 42.407 14.383 59.89 14.383 5.73 0 14.972-.727 20.63-1.624l76.67-12.2c23.382-3.692 55.953-20.269 72.7-37l54.76-54.7c16.803-16.815 33.45-49.519 37.16-73zM176 80c17.664 0 32 14.336 32 32s-14.336 32-32 32-32-14.336-32-32 14.336-32 32-32zm32 160c17.664 0 32 14.336 32 32s-14.336 32-32 32-32-14.336-32-32 14.336-32 32-32zm160-128c17.664 0 32 14.336 32 32s-14.336 32-32 32-32-14.336-32-32 14.336-32 32-32z"/><glyph glyph-name="cookie-bite-secondary" unicode="􏕤" d="M510.52 192.19c.828-5.458 1.5-14.367 1.5-19.888 0-17.544-6.455-44.474-14.41-60.112l-35.1-68.88c-10.768-21.136-36.658-47.035-57.79-57.81l-69.13-35.21c-15.579-7.94-42.414-14.383-59.9-14.383-5.729 0-14.97.726-20.63 1.623l-76.71 12.15c-23.39 3.71-55.964 20.314-72.71 37.06L50.87 41.5c-16.801 16.816-33.449 49.52-37.16 73L1.63 190.768c-.904 5.7-1.638 15.01-1.638 20.781 0 17.578 6.477 44.557 14.458 60.219l35.1 68.88c10.769 21.136 36.658 47.035 57.79 57.81l69.13 35.22C192.028 441.584 218.818 448 236.269 448c5.53 0 14.455-.677 19.922-1.511.78-69.794 58.061-126.462 127.859-126.49.061-69.755 56.72-127.014 126.47-127.81zM176 80c17.664 0 32 14.336 32 32s-14.336 32-32 32-32-14.336-32-32 14.336-32 32-32zm32 160c17.664 0 32 14.336 32 32s-14.336 32-32 32-32-14.336-32-32 14.336-32 32-32zm160-128c17.664 0 32 14.336 32 32s-14.336 32-32 32-32-14.336-32-32 14.336-32 32-32z"/><glyph glyph-name="crop-alt-secondary" unicode="􏕥" d="M160 424V96h160V0H96C78.336 0 64 14.336 64 32v392c0 13.248 10.752 24 24 24h48c13.248 0 24-10.752 24-24zM488 96c13.248 0 24-10.752 24-24V24c0-13.248-10.752-24-24-24h-40v96h40z"/><glyph glyph-name="digital-tachograph-secondary" unicode="􏕦" horiz-adv-x="640" d="M296 112c4.416 0 8-3.584 8-8v-8c0-4.416-3.584-8-8-8H72c-4.416 0-8 3.584-8 8v8c0 4.416 3.584 8 8 8h224zm272 0c4.416 0 8-3.584 8-8v-8c0-4.416-3.584-8-8-8H344c-4.416 0-8 3.584-8 8v8c0 4.416 3.584 8 8 8h224zM288 288c8.832 0 16-7.168 16-16v-48c0-8.832-7.168-16-16-16H80c-8.832 0-16 7.168-16 16v48c0 8.832 7.168 16 16 16h208z"/><glyph glyph-name="dizzy-secondary" unicode="􏕧" d="M256 440c137 0 248-111 248-248S393-56 256-56 8 55 8 192s111 248 248 248zm-96-206.6l28.7-28.7c14.7-14.8 37.8 7.4 22.6 22.6L182.6 256l28.7 28.7c15 14.9-7.6 37.6-22.6 22.6L160 278.6l-28.7 28.7c-14.9 15-37.6-7.6-22.6-22.6l28.7-28.7-28.7-28.7c-15.2-15.1 7.8-37.4 22.6-22.6zM256 32c35.295.033 63.967 28.705 64 64 0 35.328-28.672 64-64 64s-64-28.672-64-64 28.672-64 64-64zm124.7 172.7c14.7-14.8 37.8 7.4 22.6 22.6L374.6 256l28.7 28.7c15 14.9-7.6 37.6-22.6 22.6L352 278.6l-28.7 28.7c-14.9 15-37.6-7.6-22.6-22.6l28.7-28.7-28.7-28.7c-15.2-15.1 7.8-37.4 22.6-22.6l28.7 28.7z"/><glyph glyph-name="drafting-compass-secondary" unicode="􏕨" d="M12.5 198.14c-4.86 7.67-1.89 18 6.05 22.39l28.07 15.57c7.48 4.15 16.61 1.46 21.26-5.72 8.398-12.977 24.414-32.04 35.75-42.55L71 131.32c-19.023 15.923-45.231 45.859-58.5 66.82zm487 0C452.657 124.152 343.569 64.057 256 64h-.017c-29.148 0-74.918 8.41-102.163 18.77l32.53 56.35c18.745-6.138 49.965-11.119 69.69-11.119 67.291 0 151.551 45.865 188.08 102.379 4.65 7.18 13.78 9.87 21.26 5.72l28.07-15.57c7.94-4.39 10.91-14.72 6.05-22.39z"/><glyph glyph-name="drum-secondary" unicode="􏕩" horiz-adv-x="576" d="M571.44 432.46c2.512-4.192 4.55-11.562 4.55-16.45 0-9.994-6.952-22.283-15.52-27.43l-320-192c-4.197-2.52-11.576-4.563-16.47-4.563-17.666 0-32.003 14.338-32.003 32.003 0 10 6.959 22.293 15.533 27.44l320 192c4.194 2.516 11.567 4.557 16.458 4.557 10.01 0 22.307-6.97 27.452-15.557zM96 112c17.664 0 32-14.336 32-32V-42.43c-24.17 7.19-45.75 16-64 26V80c0 17.664 14.336 32 32 32zm192-32c17.664 0 32.002-14.337 32.002-32.001v-111.2a596.001 596.001 0 0 0-32.001-.79A690.42 690.42 0 0 0 256-63.2V48c0 17.664 14.336 32 32 32zm192.002 31.999c17.664 0 32-14.336 32-32v-96.43c-18.25-10-39.83-18.81-64-26V80c0 17.664 14.336 32 32 32z"/><glyph glyph-name="drum-steelpan-secondary" unicode="􏕪" horiz-adv-x="576" d="M172 358l25.6-44.34c5.488-9.422 9.942-25.919 9.942-36.822 0-20.889-13.835-47.638-30.882-59.708C100.23 230.54 48 257.22 48 288c0 30.16 50.11 56.39 124 70zm116-70c-35.29.038-63.962 28.71-64 64v13c20.4 1.92 41.8 3 64 3s43.6-1.12 64-3v-13c-.038-35.29-28.71-63.962-64-64zm110.93-70.9c-17.087 12.063-30.975 38.828-30.975 59.744 0 10.91 4.46 27.412 9.955 36.836l25.65 44.42C477.72 344.5 528 318.21 528 288c0-30.83-52.4-57.54-129.07-70.9zm-50-6.4C329.45 209 309.08 208 288 208s-41.41 1-60.89 2.7c8.06 26.13 32.15 45.3 60.89 45.3s52.83-19.17 60.93-45.3z"/><glyph glyph-name="feather-alt-secondary" unicode="􏕫" d="M458.38 213.21L351.83 160H433c-7.485-13.6-21.132-34.71-30.46-47.12L255.73 64h101c-35.57-30.07-79.11-51.1-132.591-56.54C189.479 3.484 133.036.188 98.149.1h-.06L305 207c3.887 3.886 7.042 11.503 7.042 17 0 13.27-10.771 24.042-24.042 24.042-5.497 0-13.113-3.156-17-7.042L64 34c.08 62.81 4 100.05 7 126.44 25.44 249.359 389.21 284 441 287.56-1.81-26.26-11.71-132.86-53.62-234.79z"/><glyph glyph-name="file-contract-secondary" unicode="􏕬" horiz-adv-x="384" d="M224 312c.038-13.21 10.79-23.962 24-24h136V-40.06C384-53.276 373.275-64 360.06-64H23.94C10.724-64 0-53.275 0-40.06v464.12C0 437.276 10.725 448 23.94 448H224V312zM64 376v-16c0-4.416 3.584-8 8-8h80c4.416 0 8 3.584 8 8v16c0 4.416-3.584 8-8 8H72c-4.416 0-8-3.584-8-8zm0-64v-16c0-4.416 3.584-8 8-8h80c4.416 0 8 3.584 8 8v16c0 4.416-3.584 8-8 8H72c-4.416 0-8-3.584-8-8zM256.81 64c-3.933.038-8.497 2.95-10.19 6.5-12 23.86-46.23 30.35-66 14.16l-13.88 41.64c-3.014 9.07-13.217 16.43-22.775 16.43s-19.76-7.36-22.774-16.43L103 71.66c-1.409-4.22-6.163-7.651-10.611-7.66H80c-8.832 0-16-7.168-16-16s7.168-16 16-16h12.432c17.18 0 35.53 13.23 40.958 29.53L144 93.41l16.86-50.47c1.852-5.592 8.124-10.471 14-10.89.39-.05.76-.05 1.14-.05h.017c5.461 0 11.873 3.965 14.314 8.85L198 56.19c1.64 3.418 6.045 6.191 9.836 6.191l.163-.001h.072c3.949 0 8.473-2.92 10.098-6.52C224.717 42.69 241.967 32 256.676 32H304c8.832 0 16 7.168 16 16s-7.168 16-16 16h-47.19zM384 326.1V320H256v128h6.16c5.473 0 13.063-3.135 16.94-7l97.9-98c3.862-3.865 6.998-11.436 7-16.9z"/><glyph glyph-name="file-download-secondary" unicode="􏕭" horiz-adv-x="384" d="M224 312c.038-13.21 10.79-23.962 24-24h136V-40.06C384-53.276 373.275-64 360.06-64H23.94C10.724-64 0-53.275 0-40.06v464.12C0 437.276 10.725 448 23.94 448H224V312zm153 31c3.862-3.865 6.998-11.437 7-16.9V320H256v128h6.16c5.473 0 13.063-3.136 16.94-7z"/><glyph glyph-name="file-invoice-secondary" unicode="􏕰" horiz-adv-x="384" d="M288 128H96v64h192v-64zm-40 160h136V-40.06C384-53.276 373.275-64 360.06-64H23.94C10.724-64 0-53.275 0-40.06v464.12C0 437.276 10.725 448 23.94 448H224V312c.038-13.21 10.79-23.962 24-24zM64 360c0-4.416 3.584-8 8-8h80c4.416 0 8 3.584 8 8v16c0 4.416-3.584 8-8 8H72c-4.416 0-8-3.584-8-8v-16zm0-64c0-4.416 3.584-8 8-8h80c4.416 0 8 3.584 8 8v16c0 4.416-3.584 8-8 8H72c-4.416 0-8-3.584-8-8v-16zM320 24c0 4.416-3.584 8-8 8h-80c-4.416 0-8-3.584-8-8V8c0-4.416 3.584-8 8-8h80c4.416 0 8 3.584 8 8v16zm-16 200H80c-8.832 0-16-7.168-16-16v-96c0-8.832 7.168-16 16-16h224c8.832 0 16 7.168 16 16v96c0 8.832-7.168 16-16 16zm73 119c3.862-3.865 6.998-11.437 7-16.9V320H256v128h6.16c5.473 0 13.063-3.136 16.94-7z"/><glyph glyph-name="file-invoice-dollar-secondary" unicode="􏕱" horiz-adv-x="384" d="M384 326.1V320H256v128h6.16c5.473 0 13.063-3.135 16.94-7l97.9-98c3.862-3.865 6.998-11.436 7-16.9zM248 288h136V-40.06C384-53.276 373.275-64 360.06-64H23.94C10.724-64 0-53.275 0-40.06v464.12C0 437.276 10.725 448 23.94 448H224V312c.038-13.21 10.79-23.962 24-24zM64 360c0-4.416 3.584-8 8-8h80c4.416 0 8 3.584 8 8v16c0 4.416-3.584 8-8 8H72c-4.416 0-8-3.584-8-8v-16zm8-72h80c4.416 0 8 3.584 8 8v16c0 4.416-3.584 8-8 8H72c-4.416 0-8-3.584-8-8v-16c0-4.416 3.584-8 8-8zM250.67 77.19c0 20-13 37.81-31.58 43.39l-45 13.5c-5.16 1.54-8.77 6.78-8.77 12.73 0 7.27 5.3 13.19 11.8 13.19h28.11c3.836-.002 9.579-1.669 12.82-3.72 1.15-.78 3.212-1.411 4.601-1.411 1.755 0 4.232.959 5.529 2.14l11.75 11.21c1.39 1.308 2.517 3.919 2.517 5.827 0 2.159-1.382 4.988-3.087 6.314-7.7 5.772-21.75 10.856-31.36 11.35V216c0 4.416-3.584 8-8 8h-16c-4.416 0-8-3.584-8-8v-24.12c-23.62-.63-42.67-20.55-42.67-45.07 0-20 13-37.81 31.58-43.39l45-13.5c5.16-1.54 8.77-6.78 8.77-12.73 0-7.27-5.3-13.19-11.8-13.19h-28.12c-3.834.006-9.577 1.673-12.82 3.72-1.15.779-3.212 1.41-4.601 1.41-1.755 0-4.231-.958-5.53-2.14l-11.75-11.21c-1.389-1.307-2.516-3.918-2.516-5.826 0-2.16 1.383-4.988 3.087-6.314 7.704-5.769 21.758-10.854 31.37-11.35V8c0-4.416 3.584-8 8-8h16c4.416 0 8 3.584 8 8v24.12c23.62.63 42.67 20.54 42.67 45.07z"/><glyph glyph-name="file-prescription-secondary" unicode="􏕲" horiz-adv-x="384" d="M192 192c0-8.832-7.168-16-16-16h-48v32h48c8.832 0 16-7.168 16-16zm185 151c3.862-3.865 6.998-11.437 7-16.9V320H256v128h6.16c5.473 0 13.063-3.136 16.94-7zm-129-55h136V-40.06C384-53.276 373.275-64 360.06-64H23.94C10.724-64 0-53.275 0-40.06v464.12C0 437.276 10.725 448 23.94 448H224V312c.038-13.21 10.79-23.962 24-24zm21.9-155.48l-29.9-29.9-33.46 33.46c18.465 9.986 33.453 35.128 33.453 56.12 0 35.219-28.583 63.8-63.801 63.8H96c-8.833 0-16-7.167-16-16V80c0-8.832 7.167-16 16-16h16c8.832 0 16 7.168 16 16v48h18.74l59.319-59.31-30.06-30.06c-2.587-2.587-4.687-7.656-4.687-11.314 0-3.66 2.1-8.729 4.687-11.316l11.31-11.31c2.587-2.587 7.656-4.688 11.315-4.688s8.729 2.101 11.316 4.689L240 34.75l30.059-30.07c2.587-2.588 7.656-4.688 11.315-4.688s8.729 2.1 11.316 4.687L304 16c2.587 2.587 4.687 7.657 4.687 11.316 0 3.658-2.1 8.727-4.688 11.314l-30.06 30.06 29.9 29.9c2.588 2.587 4.688 7.657 4.688 11.316 0 3.658-2.1 8.727-4.688 11.314l-11.31 11.31c-2.586 2.586-7.653 4.683-11.31 4.683-3.661 0-8.732-2.102-11.32-4.693z"/><glyph glyph-name="file-signature-secondary" unicode="􏕳" horiz-adv-x="576" d="M384 320H256v128h6.16c5.473 0 13.063-3.136 16.94-7l97.9-98c3.862-3.865 6.998-11.437 7-16.9V320zm0-260.81v-99.25C384-53.276 373.275-64 360.06-64H23.94C10.724-64 0-53.275 0-40.06v464.12C0 437.276 10.725 448 23.94 448H224V312c.038-13.21 10.79-23.962 24-24h136v-91.65L288 101V32h69zm-128 5.05c-3.57.252-7.764 3.056-9.36 6.26-11.94 23.86-46.25 30.35-66 14.16l-13.87 41.64c-3.014 9.07-13.217 16.43-22.775 16.43s-19.76-7.36-22.775-16.43L103 71.66c-1.408-4.22-6.162-7.651-10.61-7.66H80c-8.832 0-16-7.168-16-16s7.168-16 16-16h12.432c17.18 0 35.53 13.23 40.958 29.53L144 93.41l16.83-50.47c4.45-13.46 23.11-14.87 29.48-2.09L198 56.19c1.64 3.417 6.046 6.19 9.837 6.19h.234c3.95 0 8.474-2.921 10.099-6.52 6.45-12.914 23.397-23.553 37.83-23.75v32.13z"/><glyph glyph-name="file-upload-secondary" unicode="􏕴" horiz-adv-x="384" d="M224 312c.038-13.21 10.79-23.962 24-24h136V-40.06C384-53.276 373.275-64 360.06-64H23.94C10.724-64 0-53.275 0-40.06v464.12C0 437.276 10.725 448 23.94 448H224V312zm65.18-216c14.28 0 21.4 17.28 11.24 27.3L204 219c-2.75 2.726-8.127 4.938-12 4.938s-9.249-2.212-12-4.938l-96.45-95.64C73.41 113.29 80.54 96 94.82 96H160V16c0-8.832 7.168-16 16-16h32c8.832 0 16 7.168 16 16v80h65.18zM384 326.1V320H256v128h6.16c5.473 0 13.063-3.135 16.94-7l97.9-98c3.862-3.865 6.998-11.436 7-16.9z"/><glyph glyph-name="fill-secondary" unicode="􏕵" d="M386.39 160L235.781 9.39c-5.172-5.164-15.302-9.354-22.61-9.354s-17.438 4.19-22.61 9.354L73.37 126.6c-5.173 5.155-9.37 15.265-9.37 22.567v.053c.01 3.064.848 7.893 1.87 10.78h320.52z"/><glyph glyph-name="fill-drip-secondary" unicode="􏕶" horiz-adv-x="576" d="M387.39 160L236.781 9.39c-5.172-5.164-15.302-9.354-22.61-9.354s-17.438 4.19-22.61 9.354L74.37 126.6c-5.173 5.155-9.37 15.265-9.37 22.567v.053c.01 3.064.848 7.893 1.87 10.78h320.52zM512 128s64-92.65 64-128c0-35.328-28.672-64-64-64s-64 28.672-64 64c0 35.35 64 128 64 128z"/><glyph glyph-name="fingerprint-secondary" unicode="􏕷" d="M506.1 244.43c6.23-28.23 6.01-50.16 5.83-72.34-.11-13.137-10.86-23.8-23.999-23.8h-.2c-13.139.11-23.802 10.86-23.802 24l.001.2c.21 24.19.01 40.19-4.7 61.6-.343 1.48-.622 3.913-.622 5.432 0 13.248 10.752 24 24 24 10.765 0 21.29-8.553 23.492-19.092zM256.11 202c13.242-.006 23.99-10.758 23.99-24 .056-3.472.102-9.108.102-12.581 0-59.635-13.253-154.583-29.582-211.938-2.71-9.664-13.054-17.513-23.09-17.52-20.97 0-25.85 20.77-23.12 30.49 15.344 54.048 27.796 143.51 27.796 199.694 0 3.272-.043 8.584-.096 11.855 0 13.248 10.752 24 24 24zM144.56 303.55c4.885-3.976 8.85-12.315 8.85-18.613 0-4.697-2.402-11.47-5.36-15.116-15.471-18.866-28.027-53.977-28.027-78.374 0-.725.012-1.902.027-2.626.044-2.749.08-7.208.08-9.957 0-30.984-4.454-80.88-9.94-111.374-.82-4.55-7.78-22.86-27.89-19.36-10.896 1.966-19.739 12.547-19.739 23.62 0 1.182.17 3.086.38 4.25 5.068 28.165 9.182 74.25 9.182 102.867 0 2.54-.033 6.663-.073 9.203-.011.746-.02 1.957-.02 2.703 0 33.962 17.369 82.927 38.77 109.297 3.977 4.89 12.319 8.858 18.62 8.858 4.706 0 11.489-2.41 15.14-5.378z"/><glyph glyph-name="fish-secondary" unicode="􏕸" horiz-adv-x="576" d="M446.53 192c0-17.664-14.336-32-32-32s-32 14.336-32 32 14.336 32 32 32 32-14.336 32-32z"/><glyph glyph-name="flushed-secondary" unicode="􏕹" d="M256 440c137 0 248-111 248-248S393-56 256-56 8 55 8 192s111 248 248 248zM88 224c0-39.744 32.256-72 72-72s72 32.256 72 72-32.256 72-72 72-72-32.256-72-72zM320 48c21.2 0 21.2 32 0 32H192c-21.2 0-21.2-32 0-32h128zm32 104c39.744 0 72 32.256 72 72s-32.256 72-72 72-72-32.256-72-72 32.256-72 72-72z"/><glyph glyph-name="frown-open-secondary" unicode="􏕺" d="M256 440c137 0 248-111 248-248S393-56 256-56 8 55 8 192s111 248 248 248zM144 240c0-17.664 14.336-32 32-32s32 14.336 32 32-14.336 32-32 32-32-14.336-32-32zM331.3 56.7c1.281-.398 3.41-.721 4.751-.721 8.832 0 16 7.167 16 16 0 .785-.112 2.048-.251 2.82C344.8 114.7 291.7 136 256 136s-88.8-21.2-95.8-61.2a19.23 19.23 0 0 1-.25-2.821c0-8.833 7.167-16 16-16 1.341 0 3.47.323 4.75.721C211.9 66.3 240.1 72 256 72s44.1-5.7 75.3-15.3zM336 208c17.664 0 32 14.336 32 32s-14.336 32-32 32-32-14.336-32-32 14.336-32 32-32z"/><glyph glyph-name="glass-martini-alt-secondary" unicode="􏕻" d="M256 234.87L154.84 336h202.271z"/><glyph glyph-name="globe-africa-secondary" unicode="􏕼" d="M499.33 240c2.574-13.123 4.667-34.627 4.67-48C504 55 393-56 256-56S8 55 8 192s111 248 248 248h.026c8.862 0 23.186-.918 31.974-2.05V367.5c0-8.55-6.94-15.494-15.49-15.5H248.3c-4.586-.005-10.362-3.114-12.89-6.94l-8.08-12.11c-1.837-2.75-5.932-5.636-9.14-6.44l-14.45-3.61c-6.458-1.622-11.718-8.341-11.74-15v-4.4c0-8.54 6.93-15.483 15.47-15.5h90.04c3.544 0 8.454-2.034 10.96-4.54l6.92-6.92c2.506-2.506 7.417-4.54 10.96-4.54h10.13c8.547-.009 15.485-6.952 15.485-15.5 0-6.161-4.742-12.746-10.585-14.7l-47.31-15.77c-1.317-.44-3.513-.796-4.901-.796-2.02 0-5.123.733-6.929 1.636l-14.72 7.36c-6.361 3.185-17.297 5.77-24.41 5.77h-.914c-10.048 0-24.727-4.893-32.766-10.92l-27.58-20.69c-12.058-9.047-21.846-28.625-21.85-43.7v-14.06c0-30.15 24.47-54.624 54.62-54.63h25.88c8.555 0 15.5-6.944 15.5-15.5V50.607c0-10.277 3.731-26.077 8.33-35.267C268.566 6.872 279.688 0 289.156 0c8.192 0 18.533 5.529 23.084 12.34l13 19.55c5.924 8.885 17.124 21.948 25 29.16 2.099 1.926 4.232 5.76 4.76 8.56l4.32 22.81c.37 1.956 1.638 4.836 2.83 6.43l18.74 25c1.71 2.282 3.1 6.45 3.1 9.3v11.34c0 8.556-6.944 15.5-15.5 15.5h-8.21c-4.577 0-10.352 3.091-12.89 6.9l-13.24 19.86c-1.442 2.157-2.612 6.012-2.612 8.606 0 6.17 4.754 12.754 10.612 14.694l2.65.88c1.316.437 3.51.793 4.897.793 2.592 0 6.445-1.166 8.603-2.603L376.47 197c2.16-1.448 6.025-2.624 8.626-2.624 2.01 0 5.104.728 6.904 1.624l15.43 7.71c4.73 2.362 8.57 8.57 8.57 13.859v6.931c0 8.555 6.944 15.5 15.5 15.5h67.83z"/><glyph glyph-name="globe-americas-secondary" unicode="􏕽" d="M497.55 135.59C472 25.78 373.59-56 256-56 119-56 8 55 8 192v.386C8 241.138 33.088 311.3 64 349v-45.71c.002-8.436 3.832-20.957 8.55-27.95 11.72-17.39 28.38-42.07 35.67-52.77 4.294-6.326 12.385-15.617 18.06-20.74l.8-.72c7.929-7.177 22.108-16.92 31.65-21.75 14-7.05 34.44-18.16 48.81-26.11 9.086-5.026 16.46-17.531 16.46-27.914V93.245c0-7.316 4.198-17.452 9.37-22.625 15-15 24.32-38.63 22.63-51.25V-9.707c0-11.592 9.408-21 21-21 .687 0 1.798.065 2.48.147 1.75.21 3.49.44 5.23.7 7.658 1.168 15.35 8.229 17.17 15.76L316 43.54c2 5.49 3.26 11.21 4.77 16.87.926 3.417 3.717 8.216 6.23 10.71 3.32 3.33 7.41 7.4 11.31 11.28 7.574 7.527 13.72 22.303 13.72 32.98v.057c0 6.972-4 16.633-8.93 21.564l-13.71 13.67c-5.17 5.15-15.287 9.33-22.584 9.33H240c-9.41 4.71-21.48 32-32 32h-.004c-8.831 0-22.408 3.208-30.306 7.16l-11.08 5.54c-3.588 1.85-6.5 6.628-6.5 10.665 0 4.71 3.61 9.788 8.06 11.335l31.17 10.39c1.363.456 3.635.826 5.073.826 3.298 0 7.996-1.755 10.487-3.916l9.28-8.06c1.24-1.094 3.587-1.99 5.24-2h5.64a8.003 8.003 0 0 1 7.996 8c0 1.043-.38 2.647-.846 3.58l-15.59 31.19c-.462.928-.836 2.524-.836 3.56 0 1.863 1.082 4.43 2.416 5.73l9.92 9.65c1.274 1.277 3.774 2.331 5.58 2.35h9.006c1.828 0 4.36 1.047 5.654 2.34l8 8c1.292 1.292 2.341 3.827 2.341 5.655s-1.049 4.361-2.34 5.655l-4.691 4.69c-1.292 1.292-2.341 3.827-2.341 5.655s1.049 4.361 2.34 5.655L272 336l4.691 4.68c2.587 2.586 4.688 7.656 4.688 11.315s-2.1 8.727-4.688 11.314l-24.4 24.4c-2.003 2.007-5.929 3.635-8.763 3.635-.218 0-.57-.01-.787-.024-2.53-.17-5.05-.38-7.58-.65-6.152-.624-11.151-6.147-11.16-12.33v-.188c0-6.689-5.192-13.695-11.59-15.643-1.193-.341-3.17-.62-4.412-.62-2.086 0-5.293.757-7.158 1.69-4.88 2.442-12.048 7.478-16 11.24l-40.58 38.64C173.257 428.11 223.157 440 255.645 440H256c103.83 0 192.71-63.76 229.67-154.27l-36.51-3.15c-7.992-.69-20.302-4.158-27.48-7.74-3.146-1.573-7.285-5.225-9.24-8.15l-19.59-29.38c-2.224-3.337-4.029-9.3-4.029-13.31s1.805-9.973 4.029-13.31l18-27c2.186-3.29 6.908-7.224 10.54-8.78l20.52-10.1z"/><glyph glyph-name="globe-asia-secondary" unicode="􏕾" d="M320 431.65C426 403.44 504 306.87 504 192 504 55 393-56 256-56 129.84-56 25.74 38.12 10.05 160h111.33c3.658.002 8.725 2.103 11.31 4.69l19.47 19.46c1.295 1.305 3.84 2.365 5.678 2.365 2.735 0 5.943-1.987 7.162-4.435l22.62-45.23c2.435-4.873 8.832-8.838 14.28-8.85h6.1c8.832 0 16 7.168 16 16v9.37c-.002 3.657-2.102 8.725-4.69 11.31l-5.66 5.66c-1.293 1.293-2.341 3.827-2.341 5.655s1.048 4.361 2.341 5.655l5.66 5.66c2.588 2.588 7.658 4.69 11.317 4.69h.313c5.001 0 11.148 3.481 13.72 7.77L262 228.72c.707 1.204 2.415 2.181 3.81 2.181.671 0 1.683-.278 2.26-.62.626-.374 1.397-1.208 1.72-1.861 1.22-2.439 4.423-4.419 7.15-4.42H280c4.416 0 8 3.584 8 8v78.121c0 5.457-3.96 11.867-8.84 14.309l-10.83 5.41c-2.44 1.22-4.42 4.426-4.42 7.155 0 2.362 1.595 5.344 3.56 6.655l41.41 31.27c6.139 4.638 11.12 14.646 11.12 22.34v34.39zm96-342.08v24.6c-.013 3.641-2.114 8.685-4.69 11.26l-11.91 11.91c-1.292 1.293-2.34 3.826-2.34 5.654V156c0 2.208-1.792 4-4 4H387c-1.656 0-3.376-1.29-3.84-2.88L379 142.63c-.464-1.59-2.184-2.88-3.84-2.88h-3.8c-1.47.001-3.124 1.103-3.69 2.46l-5.35 12.85c-1.13 2.721-4.44 4.93-7.387 4.93h-12.147c-1.41 0-3.487-.663-4.636-1.48l-23.71-16.89c-1.441-1.028-3.946-2.394-5.59-3.05l-39.34-15.74c-2.76-1.116-5-4.44-5-7.416v-10.22c0-1.828 1.049-4.36 2.34-5.654l11.91-11.91c2.57-2.571 7.605-4.672 11.24-4.69h10.348c1.085 0 2.82.215 3.872.48l21.27 5.32c1.773.445 4.694.806 6.522.806 6.105 0 14.572-3.497 18.898-7.806l13-13c2.59-2.615 7.68-4.738 11.36-4.74h15.16c3.658.002 8.724 2.103 11.31 4.69l9.57 9.57c2.587 2.586 4.688 7.652 4.69 11.31z"/><glyph glyph-name="grimace-secondary" unicode="􏕿" d="M256 440c137 0 248-111 248-248S393-56 256-56 8 55 8 192s111 248 248 248zM152 48v40h-40v-8c0-17.664 14.336-32 32-32h8zm0 56v40h-8c-17.664 0-32-14.336-32-32v-8h40zm-8 136c0-17.664 14.336-32 32-32s32 14.336 32 32-14.336 32-32 32-32-14.336-32-32zm72-192v40h-48V48h48zm0 56v40h-48v-40h48zm64-56v40h-48V48h48zm0 56v40h-48v-40h48zm64-56v40h-48V48h48zm0 56v40h-48v-40h48zm-8 104c17.664 0 32 14.336 32 32s-14.336 32-32 32-32-14.336-32-32 14.336-32 32-32zm64-128v8h-40V48h8c17.664 0 32 14.336 32 32zm0 24v8c0 17.664-14.336 32-32 32h-8v-40h40z"/><glyph glyph-name="grin-secondary" unicode="􏖀" d="M256 440c137 0 248-111 248-248S393-56 256-56 8 55 8 192s111 248 248 248zm80-168c-17.664 0-32-14.336-32-32s14.336-32 32-32 32 14.336 32 32-14.336 32-32 32zm-160 0c-17.664 0-32-14.336-32-32s14.336-32 32-32 32 14.336 32 32-14.336 32-32 32zm223.8-162.7c1.9 11.8-9.4 21.6-20.7 17.9C348.9 117.5 304 112 256 112s-92.9 5.5-123.1 15.2c-1.326.43-3.532.777-4.926.777-8.832 0-16-7.168-16-16 0-.743.1-1.944.226-2.677C121.5 54.3 195.4 16 256 16s134.5 38.3 143.8 93.3z"/><glyph glyph-name="grin-alt-secondary" unicode="􏖁" d="M256 440c137 0 248-111 248-248S393-56 256-56 8 55 8 192s111 248 248 248zm63.7-128.7c-12.4-18.4-15.2-36.9-15.7-55.3.6-18.4 3.3-36.9 15.7-55.3 3.245-4.782 10.57-8.663 16.35-8.663s13.104 3.881 16.35 8.663c12.4 18.4 15.2 36.9 15.7 55.3-.6 18.4-3.3 36.9-15.7 55.3-3.246 4.782-10.571 8.663-16.35 8.663s-13.105-3.88-16.35-8.663zm-160 0c-12.4-18.4-15.2-36.9-15.7-55.3.6-18.4 3.3-36.9 15.7-55.3 3.245-4.782 10.57-8.663 16.35-8.663s13.104 3.881 16.35 8.663c12.4 18.4 15.2 36.9 15.7 55.3-.6 18.4-3.3 36.9-15.7 55.3-3.246 4.782-10.571 8.663-16.35 8.663s-13.105-3.88-16.35-8.663zm240.1-202a19.4 19.4 0 0 1 .213 2.604c0 8.86-7.19 16.05-16.05 16.05-1.375 0-3.553-.338-4.863-.754C348.9 117.5 304 112 256 112s-92.9 5.5-123.1 15.2c-1.326.43-3.532.777-4.926.777-8.832 0-16-7.168-16-16 0-.743.1-1.944.226-2.677C121.5 54.3 195.4 16 256 16s134.5 38.3 143.8 93.3z"/><glyph glyph-name="grin-beam-secondary" unicode="􏖂" d="M256 440c137 0 248-111 248-248S393-56 256-56 8 55 8 192s111 248 248 248zm24.2-215.4c-.7-8.5 10.8-11.8 14.9-4.5l9.5 17c7.7 13.7 19.2 21.6 31.5 21.6s23.8-7.9 31.5-21.6l9.5-17c4.1-7.4 15.6-4.1 14.9 4.5-3.3 42.1-32.2 71.4-56 71.4s-52.7-29.3-55.8-71.4zm-160 0c-.7-8.5 10.7-11.9 14.9-4.5l9.5 17c7.7 13.7 19.2 21.6 31.5 21.6s23.8-7.9 31.5-21.6l9.5-17c4.1-7.4 15.6-4.1 14.9 4.5-3.3 42.1-32.2 71.4-56 71.4s-52.7-29.3-55.8-71.4zm279.6-115.3a19.4 19.4 0 0 1 .213 2.604c0 8.86-7.19 16.05-16.05 16.05-1.375 0-3.553-.338-4.863-.754C348.9 117.5 304 112 256 112s-92.9 5.5-123.1 15.2c-1.326.43-3.532.777-4.926.777-8.832 0-16-7.168-16-16 0-.743.1-1.944.226-2.677C121.5 54.3 195.4 16 256 16s134.5 38.3 143.8 93.3z"/><glyph glyph-name="grin-beam-sweat-secondary" unicode="􏖃" d="M460 284c5.467.078 14.203 1.243 19.5 2.6 11.316-26.02 20.5-70.168 20.5-98.543V188C500 51 389-60 252-60S4 51 4 188s111 248 248 248h.152c40.904 0 101.808-18.283 135.947-40.81-7.8-18-8.1-27.79-8.1-32.19 0-43.6 35.901-79 80-79zm-183.8-63.4c-.7-8.5 10.8-11.93 14.9-4.5l9.5 17c7.7 13.69 19.2 21.59 31.5 21.59s23.8-7.9 31.5-21.59l9.5-17c4.1-7.5 15.6-4.1 14.9 4.5-3.3 42.09-32.2 71.4-56 71.4s-52.7-29.31-55.8-71.4zm-160 0c-.7-8.5 10.7-11.93 14.9-4.5l9.5 17c7.7 13.69 19.2 21.59 31.5 21.59s23.8-7.9 31.5-21.59l9.5-17c4.1-7.5 15.6-4.1 14.9 4.5-3.3 42.09-32.2 71.4-56 71.4s-52.7-29.31-55.8-71.4zm279.6-115.33c.12.72.217 1.896.217 2.626 0 8.86-7.19 16.05-16.051 16.05-1.375 0-3.555-.338-4.866-.755C344.9 113.5 300 108 252 108s-92.9 5.48-123.1 15.19c-1.326.429-3.532.776-4.926.776-8.832 0-16-7.168-16-16 0-.744.1-1.943.226-2.676C117.5 50.29 191.4 12 252 12s134.5 38.27 143.8 93.27z"/><glyph glyph-name="grin-hearts-secondary" unicode="􏖄" d="M256 440c137 0 248-111 248-248S393-56 256-56 8 55 8 192s111 248 248 248zM98.4 264.4c-1.327-3.42-2.404-9.173-2.404-12.84 0-15.17 11.918-30.562 26.604-34.36l70.2-18.2a10.345 10.345 0 0 1 2.222-.293c3.606 0 7.314 2.819 8.278 6.293l19.4 69.9c.72 2.576 1.304 6.84 1.304 9.516 0 16.804-13.486 32.477-30.104 34.984-18.7 3-36.5-9.8-41.5-27.9l-2-7.1-7.1 1.9c-18.2 4.8-38.2-4.3-44.9-21.9zm301.4-155.1c.113.702.205 1.85.205 2.562 0 8.876-7.203 16.08-16.08 16.08-1.362 0-3.524-.332-4.825-.742C348.9 117.5 304 112 256 112s-92.9 5.5-123.1 15.2c-1.326.43-3.532.777-4.926.777-8.832 0-16-7.168-16-16 0-.743.1-1.944.226-2.677C121.5 54.3 195.4 16 256 16s134.5 38.3 143.8 93.3zm-10.4 108c14.698 3.767 26.628 19.138 26.628 34.312 0 3.683-1.088 9.458-2.429 12.888-6.699 17.6-26.699 26.6-44.9 21.9l-7.1-1.9-2 7.1c-5.1 18.1-22.9 30.9-41.5 27.9-16.617-2.506-30.103-18.178-30.103-34.984 0-2.676.584-6.939 1.303-9.516l19.4-69.9c1-3.462 4.736-6.273 8.34-6.273.606 0 1.574.122 2.16.273z"/><glyph glyph-name="grin-squint-secondary" unicode="􏖅" d="M256 440c137 0 248-111 248-248S393-56 256-56 8 55 8 192s111 248 248 248zm33.8-189.7c-3.19-1.948-5.777-6.563-5.777-10.3s2.588-8.351 5.777-10.3l80-48c11.5-6.8 24.1 7.6 15.4 18L351.6 240l33.6 40.3c8.6 10.3-3.8 24.9-15.4 18zm-147.6 48c-11.6 6.9-24-7.7-15.4-18l33.6-40.3-33.6-40.3c-8.6-10.4 3.9-24.8 15.4-18l80 48c3.225 1.928 5.843 6.542 5.843 10.3s-2.618 8.372-5.843 10.3zm257.6-189c.116.71.21 1.87.21 2.59 0 8.865-7.194 16.06-16.06 16.06-1.37 0-3.544-.336-4.85-.75C348.9 117.5 304 112 256 112s-92.9 5.5-123.1 15.2c-1.326.43-3.532.777-4.926.777-8.832 0-16-7.168-16-16 0-.743.1-1.944.226-2.677C121.5 54.3 195.4 16 256 16s134.5 38.3 143.8 93.3z"/><glyph glyph-name="grin-squint-tears-secondary" unicode="􏖆" d="M414.12 304.4c24 3.5 42.1 7.4 56.5 11.5 54.8-94.9 42-218.2-39.2-299.301-81.2-81.1-204.5-94-299.3-39.2 4.1 14.4 8.1 32.5 11.5 56.5 2.9 20.5-12.5 49.6-45.7 45.7-24.1-3.5-42.1-7.4-56.5-11.5-54.8 94.9-42 218.2 39.2 299.301 81.2 81.1 204.5 94 299.3 39.2-4.1-14.4-8.1-32.5-11.5-56.5-2.9-20.6 12.7-49.6 45.7-45.7zm-180.9-53a14.422 14.422 0 0 1-.34-2.842c0-6.624 5.375-12 12-12 .794 0 2.068.154 2.84.342l90.5 22.6c13.1 3.3 11.6 22.4-1.8 23.6l-52.3 4.8-4.8 52.3c-1.2 13.3-20.3 15-23.6 1.8zm-68.4-139.7c1.3-13.4 20.4-14.9 23.5-1.7l22.58 90.5c.188.772.34 2.046.34 2.84 0 6.625-5.375 12-12 12-.795 0-2.067-.152-2.84-.34l-90.5-22.6c-13.1-3.3-11.6-22.4 1.8-23.6L160 164zm215.7-44.2c42.8 42.9 68 122.3 35.7 167.6-2.64 3.718-8.484 6.735-13.044 6.735-5.412 0-11.799-3.913-14.256-8.735-14.6-28.2-42.4-63.9-76.3-97.8s-69.5-61.7-97.8-76.3c-4.817-2.44-8.727-8.802-8.727-14.202 0-4.549 3.014-10.37 6.728-12.998 14.4-10.2 32.1-14.7 51-14.7 41 0 87.4 21.1 116.699 50.4z"/></font>
</defs>
</svg>
