<svg xmlns="http://www.w3.org/2000/svg"><defs><font id="FontAwesome5Duotone-Solid" horiz-adv-x="512"><font-face font-family="Font Awesome 5 Duotone Solid" font-weight="900" units-per-em="512" panose-1="2 0 5 3 0 0 0 0 0 0" ascent="448" descent="-64" bbox="-0.00195312 -64 640.009 448" underline-thickness="25" underline-position="-51" unicode-range="U+0020-10F89B"/><glyph glyph-name="redo-primary" unicode="" d="M512 436V236c0-6.624-5.376-12-12-12H300c-6.624 0-12 5.376-12 12v47.32c0 6.624 5.376 12 12 12h.58l147.54-7.06-7.44 147.19a15.5 15.5 0 0 0-.013.564c0 6.303 5.108 11.672 11.403 11.986H500c6.624 0 12-5.376 12-12z"/><glyph glyph-name="sync-primary" unicode="" d="M12.3 238.18C33.93 353.08 134.81 440 256 440h.253c63.227 0 147.74-39.128 188.647-87.34l-4 82.77c-.008.157-.014.413-.014.57 0 6.624 5.376 12 12 12h47.443c6.624 0 12-5.376 12-12V235.67c0-6.624-5.376-12-12-12H300c-6.624 0-12 5.376-12 12v47.424c0 6.624 5.376 12 12 12 .158 0 .414-.006.57-.014l101.53-4.88c-28.887 42.943-94.336 77.794-146.091 77.794-76.512 0-153.187-60.36-171.148-134.734-1.198-5.105-6.426-9.254-11.67-9.26H24.1c-6.624 0-12 5.376-12 12 0 .607.089 1.583.2 2.18z"/><glyph glyph-name="volume-off-primary" unicode="" horiz-adv-x="256"/><glyph glyph-name="magnet-primary" unicode="" d="M512 255.8c-.2-20.2-.6-40.4 0-53.2C512 51.9 377.5-44.1 256.9-44.1 136.299-44.1.099 51.9.099 202.5c.6 13 .1 31.901 0 53.3v.101c0 6.624 5.376 12 12 12h152c6.624 0 12-5.376 12-12v-52c0-127.9 160-128.1 160 0v52c0 6.624 5.376 12 12 12h151.9c6.624 0 12-5.376 12-12v-.1z"/><glyph glyph-name="eraser-primary" unicode="" d="M377.94 54.06L195.309 236.69l-45.25 45.25 120 120c7.76 7.76 22.966 14.058 33.94 14.058s26.18-6.298 33.94-14.057l160-160c7.76-7.761 14.058-22.966 14.058-33.94s-6.297-26.18-14.057-33.941z"/><glyph glyph-name="id-card-primary" unicode="" horiz-adv-x="576" d="M176 128c-35.328 0-64 28.672-64 64s28.672 64 64 64 64-28.672 64-64-28.672-64-64-64zm48-32c25.655-.01 52.938-19.811 60.9-44.2 3.2-9.9-5.2-19.8-15.6-19.8H82.7c-10.4 0-18.8 10-15.6 19.8C75.06 76.189 102.343 95.99 128 96h8.2c10.54-4.416 28.37-8 39.8-8s29.258 3.584 39.8 8h8.2zm304 320c26.496 0 48-21.504 48-48v-16H0v16c0 26.496 21.504 48 48 48h480z"/><glyph glyph-name="expand-arrows-alt-primary" unicode="" horiz-adv-x="448" d="M370.9 299.2L116.799 45.099l36.2-36.1c15.1-15.1 4.4-41-17-41H23.94C10.724-32-.001-21.276-.001-8.06V104c0 21.4 25.9 32.1 41 17l36.2-36.2L331.3 338.9 295.1 375c-15.1 15.1-4.4 41 17 41h112.06c13.215 0 23.94-10.725 23.94-23.94V280c0-21.4-25.9-32.1-41-17z"/><glyph glyph-name="arrow-alt-right-primary" unicode="" horiz-adv-x="448" d="M265 376.89L441 209c3.878-3.89 7.025-11.507 7.025-17s-3.147-13.11-7.025-17L265 7.06c-15.1-15.11-41-4.4-41 17v335.83c0 21.42 25.75 32.11 41 17z"/><glyph glyph-name="volleyball-ball-primary" unicode="" d="M194.49 339C110.73 299.57 45.86 230.95 12.38 148.16c-2.146 11.973-3.887 31.56-3.887 43.724 0 81.129 57.769 178.567 128.947 217.496 18.882-16.882 44.44-48.413 57.05-70.38zm36.9-134.4C170.602 167.253 105.198 81.273 85.401 12.731c-20.285 19.307-45.74 55.85-56.82 81.57 22.99 94 89.56 173.72 180.11 216 11.888-27.965 22.057-75.32 22.699-105.7zm150.7-30.7c-30.167 3.66-76.267 18.467-102.899 33.1-1.902 71.373-43.61 171.066-93.1 222.53 18.88 5.563 50.18 10.08 69.864 10.08h.135c8.032-.008 21.024-.775 29-1.71 69.851-66.92 105.58-164.41 97-264zm-42.56 251.17c95.59-34.26 163.97-125.65 163.979-233.03a324.99 324.99 0 0 0-.08-6.26c-23.898-7.795-63.694-14.12-88.832-14.12h-.598c7.88 92.34-19.27 183.04-74.47 253.41zM159.09 64.66c53.45-37.2 143.51-77.97 256-62.22-38.093-31.961-109.364-57.9-159.089-57.9-38.389 0-96.14 16.227-128.911 36.22 6.37 29.69 16.85 57.99 32 83.9zm98.3 99.7c49.7-26.8 104-40.8 158.61-40.9 22.58.156 58.667 4.801 80.55 10.37-6.574-27.248-25.552-67.569-42.36-90-92.84-27.07-195.13-9.28-277 47.93 18.278 24.298 54.207 56.823 80.2 72.6z"/><glyph glyph-name="plane-departure-primary" unicode="" horiz-adv-x="640" d="M636.11 388.92c7.23-14.56 5.24-35.17-13.07-63.65-16.31-25.37-40.28-44.74-67-58.31l-291-147.65c-7.713-3.913-20.991-7.103-29.64-7.12L104.88 112c-8.017.001-18.917 4.8-24.331 10.71l-76.21 83c-2.396 2.825-4.342 8.123-4.342 11.829 0 6.153 4.44 13.434 9.912 16.252L50 254.14c2.092 1.058 5.692 1.916 8.035 1.916s5.944-.858 8.035-1.917l72.35-36.47 103.21 52.38-156.18 98.12c-2.62 2.884-4.745 8.387-4.745 12.283 0 6.154 4.442 13.433 9.915 16.248l65.75 33.37c2.096 1.063 5.705 1.926 8.056 1.926 3 0 7.455-1.36 9.944-3.037l218.7-82.06 98.51 50c26.74 13.55 56.42 21.41 86.28 19.47 33.51-2.18 51.04-12.88 58.25-27.45z"/><glyph glyph-name="flower-primary" unicode="" horiz-adv-x="448" d="M304 192c0-44.16-35.84-80-80-80s-80 35.84-80 80 35.84 80 80 80 80-35.84 80-80z"/><glyph glyph-name="wave-square-primary" unicode="" horiz-adv-x="640"/><glyph glyph-name="redo-secondary" unicode="􏀞" d="M422.36 25.31c1.948-1.942 3.53-5.75 3.53-8.5s-1.582-6.558-3.53-8.5l-.49-.46C382.907-27.395 308.644-56 256.105-56h-.436c-136.9 0-247.9 110.93-248 247.81C7.57 328.47 119 440 255.67 440h.239c63.228 0 147.748-39.124 188.662-87.33l3.519-64.43-46.5 2.22c-28.89 42.787-94.236 77.513-145.863 77.513-97.152 0-176-78.848-176-176s78.848-176 176-176c36.661 0 88.752 19.657 116.273 43.877 1.873 1.638 5.413 2.968 7.901 2.968 2.74 0 6.54-1.572 8.479-3.508z"/><glyph glyph-name="sync-secondary" unicode="􏀡" d="M0-52v200.33c0 6.624 5.376 12 12 12h200.33c6.624 0 12-5.376 12-12v-47.424c0-6.624-5.376-12-12-12-.157 0-.413.006-.57.014L109.89 93.8c28.887-42.949 94.339-77.805 146.099-77.805 76.516 0 153.192 60.365 171.15 134.745 1.199 5.105 6.426 9.254 11.67 9.26H487.9c6.623 0 12-5.376 12-12 0-.607-.09-1.583-.2-2.18C478.07 30.92 377.19-56 256-56h-.244c-63.155 0-147.61 39.052-188.516 87.17l4.13-82.57c.008-.165.015-.434.015-.6 0-6.624-5.376-12-12-12H12C5.376-64 0-58.624 0-52z"/><glyph glyph-name="volume-off-secondary" unicode="􏀦" horiz-adv-x="256" d="M0 120v144c0 13.248 10.752 24 24 24h102.06l89 89c15 15 41 4.49 41-17V24c0-21.44-25.94-32-41-17l-89 88.95H24c-13.248 0-24 10.752-24 24v.05z"/><glyph glyph-name="magnet-secondary" unicode="􏁶" d="M476.1 428c19.872 0 36-16.128 36-36v-80.11c0-6.564-5.326-11.89-11.89-11.89H348.1c-6.624 0-12 5.376-12 12v80c0 19.872 16.128 36 36 36h104zm-336.1-.1c19.872 0 36-16.128 36-36v-80l.001-.11c0-6.564-5.327-11.89-11.89-11.89H12c-6.624 0-12 5.376-12 12v80c0 19.872 16.128 36 36 36h104z"/><glyph glyph-name="eraser-secondary" unicode="􏄭" d="M512 20v-40c0-6.624-5.376-12-12-12H144c-10.975.001-26.18 6.3-33.94 14.06l-96 96C6.3 85.82.002 101.025.002 112S6.3 138.18 14.06 145.94l136 136L377.94 54.06 355.88 32H500c6.624 0 12-5.376 12-12z"/><glyph glyph-name="id-card-secondary" unicode="􏋂" horiz-adv-x="576" d="M0 16v304h576V16c0-26.496-21.504-48-48-48H48C21.504-32 0-10.496 0 16zm352 232v-16c0-4.416 3.584-8 8-8h144c4.416 0 8 3.584 8 8v16c0 4.416-3.584 8-8 8H360c-4.416 0-8-3.584-8-8zm0-64v-16c0-4.416 3.584-8 8-8h144c4.416 0 8 3.584 8 8v16c0 4.416-3.584 8-8 8H360c-4.416 0-8-3.584-8-8zm0-64v-16c0-4.416 3.584-8 8-8h144c4.416 0 8 3.584 8 8v16c0 4.416-3.584 8-8 8H360c-4.416 0-8-3.584-8-8zM176 256c-35.328 0-64-28.672-64-64s28.672-64 64-64 64 28.672 64 64-28.672 64-64 64zM67.1 51.8C63.9 42 72.3 32 82.7 32h186.6c10.4 0 18.8 9.9 15.6 19.8-7.96 24.389-35.243 44.19-60.9 44.2h-8.2c-10.54-4.416-28.37-8-39.8-8s-29.258 3.584-39.8 8H128c-25.655-.01-52.938-19.811-60.9-44.2z"/><glyph glyph-name="expand-arrows-alt-secondary" unicode="􏌞" horiz-adv-x="448" d="M.05 280v112.06C.05 405.276 10.775 416 23.99 416h112.06c21.4 0 32.1-25.9 17-41l-36.2-36.2 107.2-107.2L184.4 192 77.15 299.25 41.05 263c-15.05-15.05-41-4.35-41 17zm407-159.1c15.1 15.05 41 4.45 41-16.95V-8.11c0-13.216-10.725-23.94-23.94-23.94H312.05c-21.4 0-32.1 25.9-17 41l36.2 36.2-107.2 107.199 39.65 39.65L371 84.75z"/><glyph glyph-name="arrow-alt-right-secondary" unicode="􏍖" horiz-adv-x="448" d="M24 256h200V127.86H24c-13.248 0-24 10.752-24 24V232c0 13.248 10.752 24 24 24z"/><glyph glyph-name="volleyball-ball-secondary" unicode="􏑟" d="M454.23 43.83c-9.49-12.674-27.04-31.217-39.17-41.39-112.46-15.75-202.52 25-256 62.22-15.15-25.91-25.63-54.21-32-83.91-12.433 7.612-31.093 21.948-41.65 32 19.8 68.545 85.208 154.484 146 191.83-.642 30.38-10.812 77.734-22.7 105.7-90.55-42.28-157.12-122-180.11-216-6.184 14.364-13.442 38.516-16.2 53.91C45.86 230.95 110.73 299.57 194.49 339c-12.61 21.968-38.168 53.498-57.05 70.38 12.807 6.984 34.562 15.985 48.56 20.09 49.505-51.439 91.254-151.104 93.19-222.47 26.631-14.645 72.731-29.509 102.9-33.18 8.58 99.59-27.15 197.09-97.06 264 15.445-1.803 39.861-7.523 54.5-12.77C394.73 354.7 421.88 264 414 171.66l.597-.001c25.138 0 64.935 6.326 88.832 14.12-.357-14.552-3.418-37.848-6.83-52-21.898-5.557-58.007-10.18-80.6-10.32-54.599.1-108.9 14.1-158.6 40.9-25.992-15.776-61.921-48.3-80.2-72.6 81.86-57.21 184.15-75.04 277.03-47.93z"/><glyph glyph-name="plane-departure-secondary" unicode="􏖰" horiz-adv-x="640" d="M640 0v-32c0-8.832-7.168-16-16-16H16C7.168-48 0-40.832 0-32V0c0 8.832 7.168 16 16 16h608c8.832 0 16-7.168 16-16z"/><glyph glyph-name="flower-secondary" unicode="􏟿" horiz-adv-x="448" d="M403.86 192C430.7 168.54 448 134.45 448 96c0-70.656-57.344-128-128-128-38.45 0-72.54 17.3-96 44.14C200.54-14.7 166.45-32 128-32 57.343-32 0 25.344 0 96c0 38.45 17.3 72.54 44.14 96C17.3 215.46 0 249.55 0 288c0 70.656 57.343 128 128 128 38.45 0 72.54-17.3 96-44.14C247.46 398.7 281.55 416 320 416c70.656 0 128-57.344 128-128 0-38.45-17.3-72.54-44.14-96zM303.2 112.8c18.105 18.013 32.8 53.358 32.8 78.897V192c-.005 61.82-50.18 111.992-112 111.992-61.824 0-112-50.176-112-112s50.176-112 112-112c25.61 0 61.092 14.698 79.2 32.808z"/><glyph glyph-name="wave-square-secondary" unicode="􏠾" horiz-adv-x="640" d="M476-32H324c-19.872 0-36 16.128-36 36v348h-96V196c0-19.872-16.128-36-36-36H16c-8.832 0-16 7.168-16 16v32c0 8.832 7.168 16 16 16h112v156c0 19.872 16.128 36 36 36h152c19.872 0 36-16.128 36-36V32h96v156c0 19.872 16.128 36 36 36h140c8.832 0 16-7.168 16-16v-32c0-8.832-7.168-16-16-16H512V4c0-19.872-16.128-36-36-36z"/></font>
</defs>
</svg>
