<svg xmlns="http://www.w3.org/2000/svg"><defs><font id="FontAwesome5Duotone-Solid" horiz-adv-x="512"><font-face font-family="Font Awesome 5 Duotone Solid" font-weight="900" units-per-em="512" panose-1="2 0 5 3 0 0 0 0 0 0" ascent="448" descent="-64" bbox="-0.0263672 -64.0996 640.022 448.014" underline-thickness="25" underline-position="-51" unicode-range="U+0020-10F89B"/><glyph glyph-name="heart-primary" unicode="" d="M462.3 385.37c62.81-53.6 66.11-149.8 9.83-207.9l-193.5-199.8c-5.11-5.349-15.262-9.69-22.66-9.69-6.94 0-16.644 3.893-21.66 8.69-.35.34-.68.66-1 1l-193.5 199.8c-56.2 58.1-52.9 154.3 9.9 207.9 19.849 16.908 57.12 30.632 83.194 30.632l.676-.002c37.28 0 74.85-15.41 102.73-44.23l19.69-20.3 19.7 20.3C303.64 400.59 341.2 416 378.47 416l.674.002c26.065 0 63.32-13.724 83.156-30.632zm-47.66-152.25c22.8 23.53 24.89 66.51-4.31 91.3-23.05 19.58-57.07 12.38-77.22-8.42L256 236.58l-77.19 79.57c-18.81 19.45-53.05 28.92-77.21 8.33-28.96-24.77-27.14-67.77-4.29-91.39L256 69.27z"/><glyph glyph-name="video-primary" unicode="" horiz-adv-x="576" d="M0 47.8v288.4C0 362.585 21.414 384 47.8 384h288.4c26.385 0 47.8-21.415 47.8-47.8V47.8C384 21.414 362.585 0 336.2 0H47.8C21.414 0 0 21.414 0 47.8z"/><glyph glyph-name="leaf-primary" unicode="" horiz-adv-x="576" d="M24.5-64c-2.731.005-6.987.878-9.5 1.95C6.755-58.494.065-48.32.065-39.342c0 2.755.867 7.052 1.935 9.592 1.08 2.6 27.24 64.33 83.81 126.43 33.47 36.75 70.75 66.09 110.81 87.22 41.866 22.136 114.278 40.102 161.636 40.102.34 0 .894 0 1.235-.002 13.354-.268 24.193-11.328 24.193-24.684 0-13.358-10.839-24.417-24.193-24.686l-1.18.003c-40.464 0-102.387-15.256-138.22-34.053-34.9-18.28-67.6-43.89-97.18-76.12C71.66 8.61 47.33-48.37 47.09-48.94 43.615-57.236 33.495-63.983 24.5-64z"/><glyph glyph-name="comment-primary" unicode="" d="M256 416c141.4 0 256-93.1 256-208S397.4 0 256 0h-.339C225.141 0 177.18 8.691 148.6 19.4 124-.2 74.3-32 8-32h-.08C5.046-32 1.811-29.85.7-27.2c-.373.848-.674 2.29-.674 3.217 0 1.75.973 4.208 2.174 5.483.5.5 42.3 45.4 54.8 95.8C21.4 113 0 158.4 0 208c0 114.9 114.6 208 256 208zm0-336c100.8 0 176 62.57 176 128 0 65.69-75.46 128-176 128-100.8 0-176-62.57-176-128 0-65.69 75.46-128 176-128z"/><glyph glyph-name="comments-primary" unicode="" horiz-adv-x="576" d="M576 128c0-34.3-14.1-66-38-92 13.4-30.3 35.5-54.2 35.8-54.5 1.201-1.275 2.175-3.732 2.175-5.483 0-.927-.302-2.369-.675-3.217-1.125-2.65-4.374-4.8-7.253-4.8H568c-36.6 0-66.9 12.3-88.7 25C447.1-22.8 409-32 368-32c-86.2 0-160.2 40.4-191.7 97.9 8.721-.989 22.923-1.84 31.7-1.9 132.3 0 240 86.1 240 192l.001.48c0 5.439-.583 14.229-1.3 19.62C522.5 252.2 576 194.9 576 128z"/><glyph glyph-name="globe-primary" unicode="" d="M384 192v-.268c0-17.638-1.501-46.191-3.35-63.732h115c-2.408-9.039-7.3-23.375-10.92-32h-108.4c-9.86-59.53-28.62-109.68-52.75-142.68-18.242-5.145-48.428-9.32-67.382-9.32H256c8.94 0 18.38 4.48 28.05 13.48 11.96 11.06 23.49 28.29 33.34 49.83 10.71 23.41 19.13 50.93 25.13 81.78.44 2.29.87 4.6 1.28 6.91H168.2c.41-2.31.84-4.62 1.28-6.91 5.97-30.85 14.42-58.37 25.13-81.78 9.85-21.54 21.34-38.77 33.34-49.83C237.62-51.47 247.06-56 256-56h-.197c-18.954 0-49.14 4.175-67.383 9.32-24.13 33-42.89 83.15-52.75 142.68H27.27c-3.62 8.625-8.512 22.96-10.92 32h115c-1.844 17.616-3.34 46.288-3.34 64s1.496 46.384 3.34 64h-115c2.408 9.04 7.3 23.375 10.92 32h108.4c9.86 59.53 28.62 109.68 52.75 142.68 18.242 5.145 48.429 9.32 67.383 9.32H256c-8.94 0-18.38-4.53-28-13.48-12-11.06-23.54-28.29-33.39-49.83-10.71-23.41-19.13-50.93-25.13-81.78-.44-2.29-.87-4.6-1.28-6.91h175.6c-.41 2.31-.84 4.62-1.28 6.91-5.97 30.85-14.42 58.37-25.13 81.78-9.85 21.54-21.34 38.77-33.34 49.83C274.38 435.47 264.94 440 256 440h.198c18.954 0 49.14-4.175 67.382-9.32 24.13-33 42.89-83.15 52.75-142.68h108.41c3.62-8.625 8.512-22.96 10.92-32h-115c1.844-17.516 3.34-46.025 3.34-63.638V192zm-35.55-64c1.96 17.472 3.55 45.92 3.55 63.501v.998c0 17.581-1.59 46.03-3.55 63.501h-184.9c-1.959-17.61-3.55-46.281-3.55-64s1.591-46.39 3.55-64h184.9z"/><glyph glyph-name="suitcase-primary" unicode="" d="M336 416c26.496 0 48-21.504 48-48V-32H128v400c0 26.496 21.504 48 48 48h160zm-16-96v32H192v-32h128zm144 0c26.496 0 48-21.504 48-48V16c0-26.496-21.504-48-48-48h-32v352h32zM0 272c0 26.496 21.504 48 48 48h32V-32H48C21.504-32 0-10.496 0 16v256z"/><glyph glyph-name="quote-left-primary" unicode="" d="M176 192c26.496 0 48-21.504 48-48V16c0-26.496-21.504-48-48-48H48C21.504-32 0-10.496 0 16v240c0 88.32 71.68 160 160 160h8.12c13.182-.033 23.88-10.758 23.88-23.94v-48.18c-.033-13.182-10.758-23.88-23.94-23.88H160c-35.295-.033-63.967-28.705-64-64v-64h80z"/><glyph glyph-name="quote-right-primary" unicode="" d="M464 416c26.496 0 48-21.504 48-48V128c0-88.32-71.68-160-160-160h-8.12C330.698-31.967 320-21.242 320-8.06v48.18C320.033 53.302 330.758 64 343.94 64H352c35.295.033 63.967 28.705 64 64v64h-80c-26.496 0-48 21.504-48 48v128c0 26.496 21.504 48 48 48h128z"/><glyph glyph-name="dollar-sign-primary" unicode="" horiz-adv-x="320" d="M297.72 72.9C282.32 28.8 238.61 1.1 192 .2L128 0c-26.71.11-65.467 13.55-86.51 30-7.9 6.1-8.9 17.6-1.8 24.5l34.81 34c2.519 2.499 7.44 4.526 10.988 4.526 2.557 0 6.37-1.131 8.512-2.526 8.548-5.792 23.865-10.495 34.19-10.5h66.352c16.278 0 29.49 13.212 29.49 29.49 0 12.208-9.512 24.89-21.232 28.31l-102.52 30c-44.4 13-79.61 50.5-83.81 96.6-.254 2.762-.46 7.254-.46 10.028 0 55.188 44.603 104.07 99.56 109.112 3.3.3 6.61.46 9.92.46H192c26.713-.109 65.473-13.55 86.52-30 7.9-6.1 8.9-17.6 1.8-24.5l-34.81-34c-2.518-2.5-7.441-4.527-10.989-4.527-2.556 0-6.369 1.132-8.512 2.527-8.553 5.79-23.88 10.495-34.21 10.5h-66.351c-16.278 0-29.49-13.212-29.49-29.49 0-12.209 9.511-24.891 21.232-28.31l108-31.6c57.93-16.9 94.04-80.1 72.53-141.7z"/><glyph glyph-name="archive-primary" unicode="" d="M512 384v-48c0-8.832-7.168-16-16-16H16c-8.832 0-16 7.168-16 16v48c0 17.664 14.336 32 32 32h448c17.664 0 32-14.336 32-32z"/><glyph glyph-name="handshake-primary" unicode="" horiz-adv-x="640" d="M544 319.8h96V63.901h-64c-17.664 0-32 14.336-32 32V319.8zm48-223.9c8.832 0 16 7.168 16 16s-7.168 16-16 16-16-7.168-16-16 7.168-16 16-16zm-108.1 13.4c6.516-5.31 11.804-16.444 11.804-24.85 0-6.297-3.228-15.369-7.204-20.25L479 52.5c-5.302-6.536-16.436-11.84-24.851-11.84-6.26 0-15.286 3.199-20.15 7.14l-5.4 4.4-31.4-38.6C391.044 6.018 378.12-.136 368.353-.136c-7.29 0-17.797 3.735-23.452 8.336L327 23.7l-.2-.2C316.196 10.462 293.951-.12 277.145-.12c-12.538 0-30.613 6.416-40.347 14.32l-90.5 81.9H128V320l54.7 54.6c5.162 5.182 15.287 9.393 22.6 9.4h83.8l-81.8-74.9c-12.199-11.728-22.1-34.981-22.1-51.904 0-39.744 32.257-72 72-72 14.929 0 36.164 7.976 47.4 17.804l30 27.5z"/><glyph glyph-name="usd-circle-primary" unicode="" d="M232 320v16c0 8.832 7.168 16 16 16h16c8.832 0 16-7.168 16-16v-16.2c13.997-.51 34.784-7.275 46.4-15.1 8.7-5.9 10-18.1 2.3-25.2l-12-11.3c-5.4-5.1-13.3-5.4-19.7-1.6-5.05 2.981-13.908 5.4-19.773 5.4H232.1c-11.3 0-20.5-10.5-20.5-23.4 0-10.6 6.3-19.9 15.2-22.7l72-21.9c29-8.8 49.2-37 49.2-68.6.2-39.3-30.4-71.2-68-71.4V48c0-8.832-7.168-16-16-16h-16c-8.832 0-16 7.168-16 16v16.2c-13.997.51-34.784 7.275-46.4 15.1-8.7 5.9-10 18.1-2.3 25.2l12 11.3c5.4 5.1 13.3 5.4 19.7 1.6 5.05-2.981 13.908-5.4 19.773-5.4H279.9c11.3 0 20.5 10.5 20.5 23.4 0 10.6-6.3 19.9-15.2 22.7L213 180c-29 8.8-49.2 37-49.2 68.6 0 39.3 30.6 71.3 68.2 71.4z"/><glyph glyph-name="usd-square-primary" unicode="" horiz-adv-x="448" d="M248 64V48c0-8.832-7.168-16-16-16h-16c-8.832 0-16 7.168-16 16v16.2c-13.997.51-34.784 7.275-46.4 15.1-8.7 5.9-10 18.1-2.3 25.2l12 11.3c5.4 5.1 13.3 5.4 19.7 1.6 5.05-2.981 13.908-5.4 19.773-5.4H247.9c11.3 0 20.5 10.5 20.5 23.4 0 10.6-6.3 19.9-15.2 22.7L181 180c-29 8.8-49.2 37-49.2 68.6 0 39.3 30.6 71.3 68.2 71.4v16c0 8.832 7.168 16 16 16h16c8.832 0 16-7.168 16-16v-16.2c13.997-.51 34.784-7.275 46.4-15.1 8.7-5.9 10-18.1 2.3-25.2l-12-11.3c-5.4-5.1-13.3-5.4-19.7-1.6-5.05 2.981-13.908 5.4-19.773 5.4H200.1c-11.3 0-20.5-10.5-20.5-23.4 0-10.6 6.3-19.9 15.2-22.7l72-21.9c29-8.8 49.2-37 49.2-68.6.2-39.3-30.4-71.2-68-71.4z"/><glyph glyph-name="poo-primary" unicode="" d="M320 192c17.664 0 32-14.336 32-32s-14.336-32-32-32-32 14.336-32 32 14.336 32 32 32zm-128 0c17.664 0 32-14.336 32-32s-14.336-32-32-32-32 14.336-32 32 14.336 32 32 32z"/><glyph glyph-name="phone-slash-primary" unicode="" horiz-adv-x="640" d="M3.37 416.59L23 441.79c2.662 3.406 8.331 6.172 12.654 6.172 3.036 0 7.448-1.51 9.846-3.372l588.3-454.7c3.435-2.626 6.223-8.267 6.223-12.59 0-2.994-1.489-7.344-3.323-9.71l-19.6-25.3c-2.661-3.407-8.331-6.171-12.654-6.171-3.037 0-7.447 1.51-9.846 3.372L6.17 394.19c-3.41 2.64-6.176 8.282-6.176 12.593 0 3.028 1.513 7.42 3.376 9.806z"/><glyph glyph-name="hand-holding-box-primary" unicode="" horiz-adv-x="576" d="M480 432V208c0-8.832-7.168-16-16-16H112c-8.832 0-16 7.168-16 16v224c0 8.832 7.168 16 16 16h112V320l64 32 64-32v128h112c8.832 0 16-7.168 16-16z"/><glyph glyph-name="hand-receiving-primary" unicode="" horiz-adv-x="640" d="M201.2 297.6c-5.133 5.102-9.299 15.114-9.299 22.35s4.166 17.25 9.299 22.35l96.4 96.4c5.117 5.133 15.152 9.298 22.4 9.298s17.283-4.165 22.4-9.297l96.3-96.3c5.133-5.117 9.298-15.153 9.298-22.4s-4.165-17.284-9.298-22.401l-96.4-96.4c-5.119-5.091-15.131-9.223-22.35-9.223-7.22 0-17.232 4.132-22.35 9.224z"/><glyph glyph-name="blanket-primary" unicode="" d="M512 352s-.07-179.79-.28-233.47c-3.364 40.502-39.078 73.416-79.72 73.47H129.41C58.78 192 .41 135.38 0 64.75v-.73V352c.077 52.914 43.085 95.922 96 96h320c52.915-.078 95.923-43.086 96-96z"/><glyph glyph-name="box-alt-primary" unicode="" horiz-adv-x="448" d="M446.7 288H288l-32 128h104.935c12.74 0 26.344-9.812 30.364-21.9l56.3-104.9c-.4-.5-.5-.7-.9-1.2zM160 288H1.3c-.4.5-.5.7-.9 1.2l56.3 104.9c4.02 12.088 17.624 21.9 30.365 21.9H192zm128-32h160V0c0-17.664-14.336-32-32-32H32C14.336-32 0-17.664 0 0v256h160v-80c0-8.832 7.168-16 16-16h96c8.832 0 16 7.168 16 16v80z"/><glyph glyph-name="box-fragile-primary" unicode="" horiz-adv-x="448" d="M320 256c0-47.5-34.6-86.7-80-94.4V64h40c4.416 0 8-3.584 8-8V40c0-4.416-3.584-8-8-8H168c-4.416 0-8 3.584-8 8v16c0 4.416 3.584 8 8 8h40v97.6c-44.127 7.37-79.967 49.662-80 94.4v80c0 8.832 7.168 16 16 16h60.4l24.5-27.6-64-32 91-68.4-37 59.6 64 32-22.8 36.4H304c8.832 0 16-7.168 16-16v-80z"/><glyph glyph-name="box-heart-primary" unicode="" horiz-adv-x="448" d="M301.4 181c10.263-8.23 18.592-25.586 18.592-38.741 0-11.513-6.672-27.399-14.893-35.46L232.5 35.4c-1.96-1.904-5.767-3.449-8.5-3.449s-6.54 1.545-8.5 3.45L142.9 106.8c-8.24 8.054-14.928 23.941-14.928 35.464 0 13.164 8.345 30.517 18.627 38.736 20.5 16.7 51.1 13.7 70-4.8l7.4-7.3 7.401 7.3c18.8 18.5 49.4 21.5 70 4.8zm89.9 213.1l56.3-104.899c-.4-.5-.5-.7-.9-1.2H240v128h120.936c12.74 0 26.343-9.812 30.364-21.9zM208 416V288H1.3c-.4.5-.5.7-.9 1.2l56.3 104.9c4.02 12.088 17.624 21.9 30.365 21.9H208z"/><glyph glyph-name="box-up-primary" unicode="" horiz-adv-x="448" d="M134.3 349l64-80c.969-1.21 1.755-3.45 1.755-5 0-4.392-3.564-7.976-7.955-8h-32V144c0-8.832-7.168-16-16-16h-32c-8.832 0-16 7.168-16 16v112H64c-4.391.024-7.955 3.608-7.955 8 0 1.55.786 3.79 1.755 5l64 80c1.367 1.572 4.167 2.849 6.25 2.849 2.084 0 4.884-1.277 6.25-2.849zm256-80c.94-1.205 1.702-3.423 1.702-4.95 0-4.417-3.585-8.024-8.002-8.05h-32V144c0-8.832-7.168-16-16-16h-32c-8.832 0-16 7.168-16 16v112h-32c-4.391.024-7.955 3.608-7.955 8 0 1.55.786 3.79 1.755 5l64 80c1.367 1.572 4.167 2.849 6.25 2.849 2.084 0 4.884-1.277 6.25-2.849z"/><glyph glyph-name="box-usd-primary" unicode="" horiz-adv-x="448" d="M208 416V288H1.3c-.4.5-.5.7-.9 1.2l56.3 104.9c4.02 12.088 17.624 21.9 30.365 21.9H208zm43.2-295.4c18.6-5.6 31.6-23.4 31.6-43.4-.1-24.5-19.2-44.5-42.8-45.1V16c0-4.416-3.584-8-8-8h-16c-4.416 0-8 3.584-8 8v16.3c-9.61.5-23.677 5.562-31.4 11.3-1.7 1.326-3.08 4.152-3.08 6.31 0 1.891 1.11 4.485 2.48 5.79l11.8 11.2c1.286 1.179 3.746 2.134 5.49 2.134 1.395 0 3.46-.642 4.61-1.434 3.242-2.023 8.977-3.68 12.8-3.7h28.1c6.5 0 11.8 5.9 11.8 13.2 0 6-3.6 11.2-8.8 12.7l-45 13.5c-18.6 5.6-31.6 23.4-31.6 43.4 0 24.5 19 44.4 42.7 45.1V208c0 4.416 3.584 8 8 8h16c4.416 0 8-3.584 8-8v-16.3c9.609-.498 23.676-5.56 31.4-11.3 1.7-1.325 3.08-4.152 3.08-6.309 0-1.891-1.11-4.485-2.48-5.79L260.2 157c-1.286-1.178-3.746-2.134-5.49-2.134-1.396 0-3.461.642-4.61 1.433-3.243 2.025-8.977 3.682-12.8 3.7h-28.1c-6.5 0-11.8-5.9-11.8-13.2 0-6 3.6-11.2 8.8-12.7zm140.1 273.5l56.3-104.899c-.4-.5-.5-.7-.9-1.2H240v128h120.936c12.74 0 26.343-9.812 30.364-21.9z"/><glyph glyph-name="boxes-alt-primary" unicode="" horiz-adv-x="576" d="M176 224c-8.832 0-16 7.168-16 16v192c0 8.832 7.168 16 16 16h80v-88c0-4.416 3.584-8 8-8h48c4.416 0 8 3.584 8 8v88h80c8.832 0 16-7.168 16-16V240c0-8.832-7.168-16-16-16H176zm384-64c8.832 0 16-7.168 16-16V-48c0-8.832-7.168-16-16-16H336c-8.832 0-16 7.168-16 16v192c0 8.832 7.168 16 16 16h80V72c0-4.416 3.584-8 8-8h48c4.416 0 8 3.584 8 8v88h80zm-320 0c8.832 0 16-7.168 16-16V-48c0-8.832-7.168-16-16-16H16C7.168-64 0-56.832 0-48v192c0 8.832 7.168 16 16 16h80V72c0-4.416 3.584-8 8-8h48c4.416 0 8 3.584 8 8v88h80z"/><glyph glyph-name="comment-alt-check-primary" unicode="" d="M370.1 284.2l-131-130c-1.775-1.764-5.247-3.194-7.75-3.194-2.548 0-6.064 1.475-7.85 3.294l-75.7 76.3c-1.763 1.776-3.193 5.247-3.193 7.75 0 2.548 1.475 6.065 3.294 7.85l26 25.8c1.775 1.762 5.247 3.194 7.75 3.194 2.548 0 6.064-1.475 7.85-3.294l42.099-42.5 97.2 96.4c1.777 1.763 5.248 3.194 7.75 3.194 2.549 0 6.066-1.476 7.85-3.294l25.8-26c1.736-1.77 3.144-5.22 3.144-7.7 0-2.526-1.453-6.02-3.244-7.8z"/><glyph glyph-name="comment-alt-dots-primary" unicode="" d="M384 272c17.664 0 32-14.336 32-32s-14.336-32-32-32-32 14.336-32 32 14.336 32 32 32zm-128 0c17.664 0 32-14.336 32-32s-14.336-32-32-32-32 14.336-32 32 14.336 32 32 32zm-128 0c17.664 0 32-14.336 32-32s-14.336-32-32-32-32 14.336-32 32 14.336 32 32 32z"/><glyph glyph-name="comment-alt-edit-primary" unicode="" d="M161.4 191.4l96.3 96.3 54-54-96.3-96.3-48.2-5.4c-.3-.033-.787-.059-1.09-.059-5.612 0-10.169 4.557-10.169 10.17 0 .302.026.789.059 1.089zm204.7 125.3c3.27-3.27 5.925-9.676 5.925-14.3 0-4.625-2.654-11.031-5.925-14.3l-31.8-31.8-54 54 31.8 31.8c3.27 3.27 9.676 5.924 14.3 5.924 4.625 0 11.031-2.654 14.3-5.925z"/><glyph glyph-name="comment-alt-exclamation-primary" unicode="" d="M256 176c17.664 0 32-14.336 32-32s-14.336-32-32-32-32 14.336-32 32 14.336 32 32 32zm22.3 192c8.821-.01 15.98-7.179 15.98-16 0-.442-.036-1.16-.08-1.6l-12.8-128c-.797-7.94-7.921-14.39-15.9-14.4h-19c-7.978.01-15.102 6.46-15.9 14.4l-12.8 128a19.283 19.283 0 0 0-.074 1.54c0 8.818 7.157 16.013 15.974 16.06h44.6z"/><glyph glyph-name="comment-alt-lines-primary" unicode="" d="M280 208c4.416 0 8-3.584 8-8v-16c0-4.416-3.584-8-8-8H136c-4.416 0-8 3.584-8 8v16c0 4.416 3.584 8 8 8h144zm96 96c4.416 0 8-3.584 8-8v-16c0-4.416-3.584-8-8-8H136c-4.416 0-8 3.584-8 8v16c0 4.416 3.584 8 8 8h240z"/><glyph glyph-name="comment-alt-minus-primary" unicode="" d="M144 248c0 8.832 7.168 16 16 16h192c8.832 0 16-7.168 16-16v-16c0-8.832-7.168-16-16-16H160c-8.832 0-16 7.168-16 16v16z"/><glyph glyph-name="comment-alt-plus-primary" unicode="" d="M144 248c0 8.832 7.168 16 16 16h72v72c0 8.832 7.168 16 16 16h16c8.832 0 16-7.168 16-16v-72h72c8.832 0 16-7.168 16-16v-16c0-8.832-7.168-16-16-16h-72v-72c0-8.832-7.168-16-16-16h-16c-8.832 0-16 7.168-16 16v72h-72c-8.832 0-16 7.168-16 16v16z"/><glyph glyph-name="comment-alt-slash-primary" unicode="" horiz-adv-x="640" d="M636.67-32.52l-19.6-25.31c-2.662-3.406-8.332-6.172-12.655-6.172-3.036 0-7.446 1.51-9.845 3.372L6.17 394.21c-3.409 2.642-6.176 8.287-6.176 12.6 0 3.028 1.512 7.424 3.377 9.81L23 441.83c2.662 3.407 8.33 6.172 12.654 6.172 3.036 0 7.447-1.51 9.845-3.372L633.8-10.21c3.425-2.628 6.205-8.265 6.205-12.582 0-3-1.494-7.358-3.334-9.727z"/><glyph glyph-name="comment-alt-smile-primary" unicode="" d="M320 261.2c-14.794 0-26.8 12.006-26.8 26.8s12.006 26.8 26.8 26.8 26.8-12.006 26.8-26.8-12.006-26.8-26.8-26.8zm-128 0c-14.794 0-26.8 12.006-26.8 26.8s12.006 26.8 26.8 26.8 26.8-12.006 26.8-26.8-12.006-26.8-26.8-26.8zm162.3-64.7c3.147-2.646 5.702-8.133 5.702-12.246 0-3.243-1.703-7.882-3.802-10.354-21.852-25.337-66.742-45.899-100.2-45.899s-78.347 20.562-100.2 45.9c-1.723 2.336-3.123 6.591-3.123 9.496 0 8.833 7.168 16 16 16 3.71 0 8.827-2.149 11.423-4.797 16.547-19.101 50.487-34.603 75.757-34.603 25.315 0 59.293 15.547 75.844 34.703 2.661 3.091 8.13 5.599 12.209 5.599 3.25 0 7.906-1.702 10.39-3.799z"/><glyph glyph-name="comment-alt-times-primary" unicode="" d="M340.9 166.5l-11.3-11.3c-2.592-2.565-7.654-4.648-11.3-4.648s-8.71 2.083-11.3 4.648l-51 50.9-50.9-50.9c-2.592-2.565-7.654-4.648-11.3-4.648s-8.71 2.083-11.3 4.648l-11.3 11.3c-2.566 2.59-4.649 7.653-4.649 11.3s2.083 8.709 4.649 11.3l50.9 50.9-50.9 50.9c-2.566 2.591-4.649 7.654-4.649 11.3s2.083 8.71 4.649 11.3l11.3 11.3c2.59 2.565 7.653 4.648 11.3 4.648s8.708-2.083 11.3-4.648l50.9-50.9 50.9 50.9c2.59 2.565 7.653 4.648 11.3 4.648s8.709-2.083 11.3-4.648l11.3-11.3c2.565-2.59 4.648-7.653 4.648-11.3s-2.083-8.709-4.649-11.3L289.9 240l51-50.9c2.565-2.591 4.647-7.654 4.647-11.3s-2.082-8.71-4.647-11.3z"/><glyph glyph-name="comment-check-primary" unicode="" d="M370.1 252.2l-131-130c-1.775-1.764-5.247-3.194-7.75-3.194-2.548 0-6.064 1.475-7.85 3.294l-75.7 76.3c-1.763 1.776-3.193 5.247-3.193 7.75 0 2.548 1.475 6.065 3.294 7.85l26 25.8c1.775 1.762 5.247 3.194 7.75 3.194 2.548 0 6.064-1.475 7.85-3.294l42.099-42.5 97.2 96.4c1.777 1.763 5.248 3.194 7.75 3.194 2.549 0 6.066-1.476 7.85-3.294l25.8-26c1.736-1.77 3.144-5.22 3.144-7.7 0-2.526-1.453-6.02-3.244-7.8z"/><glyph glyph-name="comment-dots-primary" unicode="" d="M128 240c17.664 0 32-14.336 32-32s-14.336-32-32-32-32 14.336-32 32 14.336 32 32 32zm128 0c17.664 0 32-14.336 32-32s-14.336-32-32-32-32 14.336-32 32 14.336 32 32 32zm128 0c17.664 0 32-14.336 32-32s-14.336-32-32-32-32 14.336-32 32 14.336 32 32 32z"/><glyph glyph-name="comment-edit-primary" unicode="" d="M366.1 284.7c3.27-3.27 5.925-9.676 5.925-14.3 0-4.625-2.654-11.031-5.925-14.3l-31.8-31.8-54 54 31.8 31.8c3.27 3.27 9.676 5.924 14.3 5.924 4.625 0 11.031-2.654 14.3-5.925zM161.4 159.4l96.3 96.3 54-54-96.3-96.3-48.2-5.4c-.3-.033-.787-.059-1.09-.059-5.612 0-10.169 4.557-10.169 10.17 0 .302.026.789.059 1.089z"/><glyph glyph-name="comment-exclamation-primary" unicode="" d="M256 144c17.664 0 32-14.336 32-32s-14.336-32-32-32-32 14.336-32 32 14.336 32 32 32zm22.3 192c8.821-.01 15.98-7.179 15.98-16 0-.442-.036-1.16-.08-1.6l-12.8-128c-.797-7.94-7.921-14.39-15.9-14.4h-19c-7.978.01-15.102 6.46-15.9 14.4l-12.8 128a19.283 19.283 0 0 0-.074 1.54c0 8.818 7.157 16.013 15.974 16.06h44.6z"/><glyph glyph-name="comment-lines-primary" unicode="" d="M376 272c4.416 0 8-3.584 8-8v-16c0-4.416-3.584-8-8-8H136c-4.416 0-8 3.584-8 8v16c0 4.416 3.584 8 8 8h240zm-96-96c4.416 0 8-3.584 8-8v-16c0-4.416-3.584-8-8-8H136c-4.416 0-8 3.584-8 8v16c0 4.416 3.584 8 8 8h144z"/><glyph glyph-name="comment-minus-primary" unicode="" d="M368 200c0-8.832-7.168-16-16-16H160c-8.832 0-16 7.168-16 16v16c0 8.832 7.168 16 16 16h192c8.832 0 16-7.168 16-16v-16z"/><glyph glyph-name="comment-plus-primary" unicode="" d="M368 200c0-8.832-7.168-16-16-16h-72v-72c0-8.832-7.168-16-16-16h-16c-8.832 0-16 7.168-16 16v72h-72c-8.832 0-16 7.168-16 16v16c0 8.832 7.168 16 16 16h72v72c0 8.832 7.168 16 16 16h16c8.832 0 16-7.168 16-16v-72h72c8.832 0 16-7.168 16-16v-16z"/><glyph glyph-name="comment-slash-primary" unicode="" horiz-adv-x="640" d="M636.67-32.52l-19.6-25.31c-2.662-3.406-8.332-6.172-12.655-6.172-3.036 0-7.446 1.51-9.845 3.372L6.17 394.21c-3.409 2.642-6.176 8.287-6.176 12.6 0 3.028 1.512 7.424 3.377 9.81L23 441.83c2.662 3.407 8.33 6.172 12.654 6.172 3.036 0 7.447-1.51 9.845-3.372L633.8-10.21c3.425-2.628 6.205-8.265 6.205-12.582 0-3-1.494-7.358-3.334-9.727z"/><glyph glyph-name="comment-smile-primary" unicode="" d="M320 229.2c-14.794 0-26.8 12.006-26.8 26.8s12.006 26.8 26.8 26.8 26.8-12.006 26.8-26.8-12.006-26.8-26.8-26.8zm-128 0c-14.794 0-26.8 12.006-26.8 26.8s12.006 26.8 26.8 26.8 26.8-12.006 26.8-26.8-12.006-26.8-26.8-26.8zm162.3-64.7c3.147-2.646 5.702-8.133 5.702-12.246 0-3.243-1.703-7.882-3.802-10.354-21.852-25.337-66.742-45.899-100.2-45.899s-78.347 20.562-100.2 45.9c-2.526 2.575-4.576 7.594-4.576 11.201 0 8.833 7.168 16 16 16 4.46 0 10.229-2.913 12.876-6.502 16.547-19.101 50.487-34.603 75.757-34.603 25.315 0 59.293 15.547 75.844 34.703 2.661 3.091 8.13 5.599 12.209 5.599 3.25 0 7.906-1.702 10.39-3.799z"/><glyph glyph-name="comment-times-primary" unicode="" d="M340.9 134.5l-11.3-11.3c-2.592-2.565-7.654-4.648-11.3-4.648s-8.71 2.083-11.3 4.648l-51 50.9-50.9-50.9c-2.592-2.565-7.654-4.648-11.3-4.648s-8.71 2.083-11.3 4.648l-11.3 11.3c-2.566 2.59-4.649 7.653-4.649 11.3s2.083 8.709 4.649 11.3l50.9 50.9-50.9 50.9c-2.566 2.591-4.649 7.654-4.649 11.3s2.083 8.71 4.649 11.3l11.3 11.3c2.59 2.565 7.653 4.648 11.3 4.648s8.708-2.083 11.3-4.648l50.9-50.9 50.9 50.9c2.59 2.565 7.653 4.648 11.3 4.648s8.709-2.083 11.3-4.648l11.3-11.3c2.565-2.59 4.648-7.653 4.648-11.3s-2.083-8.709-4.649-11.3L289.9 208l51-50.9c2.565-2.591 4.647-7.654 4.647-11.3s-2.082-8.71-4.647-11.3z"/><glyph glyph-name="comments-alt-primary" unicode="" horiz-adv-x="576" d="M576 224V64c-.033-35.295-28.705-63.967-64-64h-32v-54.325c0-5.355-4.346-9.7-9.7-9.7-1.778 0-4.375.862-5.8 1.925L381.7 0H256c-35.295.033-63.967 28.705-64 64v64h160c52.91.082 95.918 43.09 96 96v64h64c35.295-.033 63.967-28.705 64-64z"/><glyph glyph-name="container-storage-primary" unicode="" horiz-adv-x="640" d="M624 32c8.832 0 16-7.168 16-16v-32c0-8.832-7.168-16-16-16H16C7.168-32 0-24.832 0-16v32c0 8.832 7.168 16 16 16h608zm0 384c8.832 0 16-7.168 16-16v-32c0-8.832-7.168-16-16-16H16c-8.832 0-16 7.168-16 16v32c0 8.832 7.168 16 16 16h608z"/><glyph glyph-name="couch-primary" unicode="" horiz-adv-x="640" d="M640 192c-.074-20.294-14.41-44.978-32-55.1V16c0-8.832-7.168-16-16-16h-64c-8.832 0-16 7.168-16 16v16H128V16c0-8.832-7.168-16-16-16H48c-8.832 0-16 7.168-16 16v120.9C14.33 147.053-.01 171.831-.01 192.21c0 35.213 28.577 63.79 63.79 63.79H96c17.664 0 32-14.336 32-32v-96h384v96c0 17.664 14.336 32 32 32h32c35.295-.033 63.967-28.705 64-64z"/><glyph glyph-name="donate-primary" unicode="" d="M218.4 228.1c-25.7 7.7-43.7 32.4-43.7 60.1.1 34 26.4 61.5 59.1 62.4v16.84c0 9.141 7.418 16.56 16.56 16.56h11.18c9.141 0 16.56-7.419 16.56-16.56V350.4c13.153-.658 32.418-7.558 43-15.4 2.54-1.853 4.603-5.91 4.603-9.055 0-2.617-1.525-6.222-3.404-8.044L306 302.4c-3.8-3.7-9.5-3.801-14-1-4.449 2.815-12.332 5.1-17.598 5.1H235.3c-9 0-16.3-8.2-16.3-18.3 0-8.2 5-15.5 12.1-17.601l62.3-18.7c25.7-7.7 43.7-32.4 43.7-60.1 0-34-26.4-61.5-59.1-62.4v-16.84c0-9.14-7.42-16.56-16.56-16.56h-11.18c-9.141 0-16.56 7.42-16.56 16.56v17.04c-13.155.66-32.42 7.559-43 15.4-2.541 1.854-4.603 5.912-4.603 9.056 0 2.617 1.525 6.222 3.403 8.044l16.3 15.5c3.8 3.7 9.5 3.8 14 1 4.449-2.815 12.332-5.1 17.598-5.1h39.101c9 0 16.3 8.2 16.3 18.3 0 8.2-5 15.5-12.1 17.6zM480 96c17.664 0 32-14.336 32-32v-96c0-17.664-14.336-32-32-32H32C14.336-64 0-49.664 0-32v96c0 17.664 14.336 32 32 32h32.4c16.556-21.762 49.26-50.434 73-64H73.6c-5.3 0-9.6-3.6-9.6-8V8c0-4.4 4.3-8 9.6-8h364.7c5.3 0 9.6 3.6 9.6 8v16c0 4.4-4.3 8-9.6 8h-63.8c23.759 13.545 56.463 42.218 73 64H480z"/><glyph glyph-name="dove-primary" unicode="" d="M400 384h112l-32-64V159.87C480 71.622 408.378 0 320.13 0h-77.01l-65.2-56.1c-5.014-4.369-14.478-7.915-21.129-7.915-.267 0-.703.007-.97.015C63-60.15 20-14.55 2.598 12.35 1.15 14.564-.026 18.51-.026 21.156c0 6.905 5.432 13.892 12.124 15.594l143.9 36c-11.3 8.383-28.728 23.077-38.9 32.8-51 49-85.1 115.1-85.1 185.9v.117c0 33.514 11.649 85.296 26 115.583 5.8 12.3 23.5 11.6 29-.9 36.974-84.02 141.357-156.483 233-161.75v59.44c0 44.159 35.84 80.026 80 80.06zm0-96.1v.05c8.805 0 15.973 7.145 16 15.95 0 8.832-7.168 16-16 16s-16-7.168-16-16 7.168-16 16-16z"/><glyph glyph-name="fragile-primary" unicode="" horiz-adv-x="288" d="M160 97.7V-32h53.9c24.5 0 33.1-32 20-32H54.11c-13.2 0-4.5 32 20 32H128V97.7C51.31 106.4-6.59 175.3.61 255.3l16 178.101c.607 8.036 7.64 14.576 15.7 14.6h85.6l32.8-48.3-85.5-56 121.5-119.7-49.4 104.3 85.5 56-30.6 63.7h63.5c8.06-.023 15.092-6.563 15.7-14.6l16-178.1c7.2-80-50.7-148.8-127.41-157.6z"/><glyph glyph-name="hand-heart-primary" unicode="" horiz-adv-x="448" d="M194.57 149c20.5 16.7 51.1 13.7 70-4.8l7.4-7.3 7.4 7.3c18.8 18.5 49.4 21.5 70 4.8 10.262-8.23 18.592-25.586 18.592-38.741 0-11.513-6.672-27.399-14.892-35.46L280.47 3.4c-1.96-1.904-5.768-3.449-8.5-3.449s-6.54 1.545-8.5 3.45L190.87 74.8c-8.24 8.054-14.928 23.941-14.928 35.464 0 13.164 8.346 30.517 18.628 38.736z"/><glyph glyph-name="hand-holding-primary" unicode="" horiz-adv-x="576"/><glyph glyph-name="hand-holding-heart-primary" unicode="" horiz-adv-x="576" d="M404.1 430.48c35.4-30.6 37.2-85.6 5.6-118.801L300.8 197.48c-2.851-3.064-8.564-5.55-12.75-5.55s-9.897 2.486-12.75 5.55L166.403 311.679c-31.601 33.2-29.7 88.2 5.6 118.801 30.799 26.7 76.7 21.9 104.9-7.8L288 411.08l11.2 11.7c28.2 29.6 74.1 34.4 104.899 7.7z"/><glyph glyph-name="hand-holding-seedling-primary" unicode="" horiz-adv-x="576" d="M160 448c88.32 0 160-71.68 160-160V176c0-8.832-7.168-16-16-16h-32c-8.832 0-16 7.168-16 16v112c-88.32 0-160 71.68-160 160h64zm256 0h64c0-77.5-55.1-142-128.2-156.8-.565 35.93-19.202 87.898-41.6 116C338.5 432.3 375.3 448 416 448z"/><glyph glyph-name="hand-holding-usd-primary" unicode="" horiz-adv-x="576" d="M329.29 225.6V208c0-8.8-7.77-16-17.26-16h-17.25c-9.48 0-17.25 7.2-17.25 16v17.7c-10.173 1.055-25.53 6.207-34.28 11.5-3.042 1.848-5.51 6.236-5.51 9.796 0 2.86 1.742 6.715 3.89 8.604l18.87 17.5c4 3.7 10 4.2 15.2 2 2.947-1.205 7.925-2.19 11.11-2.2h35.36c5 0 9.06 3.8 9.06 8.4-.103 3.627-3.051 7.256-6.58 8.1l-53.91 14.3c-23.93 6.4-43.13 24.7-46.25 47.7-4.31 32 20.48 59.4 53.15 63V432c0 8.8 7.76 16 17.25 16h17.25c9.49 0 17.25-7.2 17.25-16v-17.7c10.174-1.055 25.537-6.207 34.29-11.5 3.039-1.85 5.504-6.24 5.504-9.796 0-2.86-1.74-6.714-3.884-8.603l-18.87-17.5c-4-3.7-10-4.2-15.2-2-2.948 1.204-7.925 2.19-11.11 2.199h-35.36c-5 0-9.06-3.8-9.06-8.4.104-3.626 3.05-7.255 6.58-8.1l53.91-14.3c23.93-6.4 43.12-24.7 46.25-47.7 4.31-32-20.44-59.4-53.15-63z"/><glyph glyph-name="hand-holding-water-primary" unicode="" horiz-adv-x="576" d="M300.8 441.62C326.9 406.73 384 326 384 286c0-51.9-43-94-96-94s-96 42.1-96 94c0 40 57.1 120.71 83.2 155.6 2.65 3.54 8.387 6.41 12.808 6.41 4.411 0 10.143-2.862 12.792-6.39z"/><glyph glyph-name="hands-primary" unicode="" horiz-adv-x="640"/><glyph glyph-name="hands-heart-primary" unicode="" horiz-adv-x="640" d="M198.4 311.68c-31.6 33.2-29.7 88.2 5.6 118.801 30.8 26.7 76.7 21.9 104.9-7.8l11.1-11.6 11.099 11.7c28.2 29.6 74.1 34.4 104.9 7.7 35.4-30.6 37.2-85.6 5.7-118.801l-108.9-114.199c-2.852-3.064-8.564-5.55-12.75-5.55s-9.897 2.486-12.75 5.55z"/><glyph glyph-name="hands-helping-primary" unicode="" horiz-adv-x="640" d="M4.32 90.62C1.936 94.725.001 101.907.001 106.654c0 10.19 7.167 22.583 15.999 27.666l80 46.2v47.3c.005 19.994 13.938 44.543 31.1 54.8l64.89 39V200c0-39.744 32.256-72 72-72s72 32.256 72 72v56h152.07c13.216 0 23.94-10.725 23.94-23.94v-48.12c0-13.215-10.724-23.94-23.94-23.94H480V96c0-17.664-14.336-32-32-32h-16c-.033-35.295-28.705-63.967-64-64H231.41L128-59.68c-4.097-2.363-11.26-4.28-15.99-4.28-10.182 0-22.587 7.15-27.69 15.96z"/><glyph glyph-name="hands-usd-primary" unicode="" horiz-adv-x="640" d="M246.7 351.4c-4.1 32 19 59.4 49.3 63V432c0 8.832 7.168 16 16 16h16c8.832 0 16-7.168 16-16v-17.7c9.526-1.1 23.773-6.253 31.8-11.5 6.2-4.1 6.8-13.1 1.5-18.4l-17.5-17.5c-3.7-3.7-9.3-4.2-14.1-2-2.716 1.201-7.33 2.187-10.3 2.2h-32.803a8.413 8.413 0 0 1-8.41-8.41c0-3.508 2.739-7.132 6.113-8.09l50.1-14.3c22.2-6.4 40-24.7 42.9-47.7.257-1.985.466-5.221.466-7.223 0-27.65-22.296-52.638-49.766-55.778V208c0-8.831-7.168-16-16-16h-16c-8.832 0-16 7.169-16 16v17.7c-9.527 1.1-23.774 6.253-31.8 11.5-6.2 4.1-6.8 13.1-1.5 18.4l17.5 17.5c3.7 3.7 9.3 4.2 14.1 2 2.715-1.2 7.33-2.186 10.3-2.199h32.802a8.413 8.413 0 0 1 8.41 8.41c0 3.507-2.738 7.131-6.112 8.09l-50.1 14.3c-22.2 6.4-40 24.7-42.9 47.7z"/><glyph glyph-name="handshake-alt-primary" unicode="" horiz-adv-x="640" d="M0 112.1V304c0 8.832 7.168 16 16 16h112l54.7 54.6c5.161 5.182 15.286 9.393 22.6 9.4h83.8l-81.8-74.9c-12.873-11.813-23.322-35.58-23.322-53.051 0-15.458 8.477-37.253 18.922-48.649 14.9-16.3 61.1-41.5 101.7-4.4l30 27.5 149.3-121.2c6.516-5.31 11.804-16.444 11.804-24.85 0-6.296-3.227-15.369-7.204-20.25L479 52.5c-5.302-6.536-16.436-11.84-24.85-11.84-6.26 0-15.287 3.199-20.15 7.14l-5.4 4.4-31.4-38.6C391.043 6.018 378.12-.136 368.353-.136 361.06-.136 350.556 3.6 344.9 8.2L327 23.7l-.2-.2C316.197 10.462 293.952-.12 277.147-.12c-12.539 0-30.614 6.416-40.347 14.32l-90.5 81.9H16c-8.832 0-16 7.168-16 16z"/><glyph glyph-name="heart-circle-primary" unicode="" d="M379.5 167.7L268.9 53.5c-2.918-3.064-8.72-5.552-12.95-5.552-4.232 0-10.033 2.488-12.95 5.552L132.5 167.7c-32.1 33.2-30.2 88.2 5.7 118.8 31.3 26.7 77.9 21.9 106.6-7.7l11.3-11.6 11.3 11.6c28.7 29.6 75.3 34.4 106.6 7.7 35.8-30.6 37.7-85.6 5.5-118.8z"/><glyph glyph-name="heart-square-primary" unicode="" horiz-adv-x="448" d="M106.2 286.5c31.3 26.7 77.9 21.9 106.6-7.7l11.3-11.6 11.3 11.6c28.7 29.6 75.3 34.4 106.6 7.7 35.8-30.6 37.7-85.6 5.5-118.8L236.9 53.5c-2.917-3.064-8.72-5.552-12.95-5.552-4.231 0-10.033 2.488-12.95 5.552L100.5 167.7c-32.1 33.2-30.2 88.2 5.7 118.8z"/><glyph glyph-name="leaf-heart-primary" unicode="" horiz-adv-x="576" d="M245.65 242.68c24 20 59.6 16.4 81.6-5.8l8.6-8.7 8.6 8.7c22 22.2 57.7 25.8 81.6 5.8 12.084-10.028 21.892-30.913 21.892-46.617 0-13.69-7.792-32.723-17.393-42.483L345.85 68c-2.258-2.277-6.692-4.126-9.9-4.126s-7.642 1.849-9.9 4.126l-84.7 85.6c-9.626 9.774-17.437 28.84-17.437 42.558 0 15.644 9.738 36.486 21.738 46.522z"/><glyph glyph-name="loveseat-primary" unicode="" d="M512 192c-.074-20.294-14.41-44.978-32-55.1V16c0-8.832-7.168-16-16-16h-64c-8.832 0-16 7.168-16 16v16H128V16c0-8.832-7.168-16-16-16H48c-8.832 0-16 7.168-16 16v120.9C14.33 147.053-.01 171.831-.01 192.21c0 35.213 28.577 63.79 63.79 63.79H96c17.664 0 32-14.336 32-32v-96h256v96c0 17.664 14.336 32 32 32h32c35.295-.033 63.967-28.705 64-64z"/><glyph glyph-name="parachute-box-primary" unicode="" d="M.1 273c9.1 75.5 78.4 132.3 158.3 158.7C122 392.3 96 331.099 96 256H16.1c-9.2 0-17.1 7.9-16 17zM256 448c59.1 0 128-76.8 128-192H128c0 115.2 68.9 192 128 192zm255.9-175c1.1-9.2-6.8-17-16.1-17H416c0 75.1-26 136.3-62.4 175.7 79.9-26.3 149.2-83.1 158.3-158.7z"/><glyph glyph-name="people-carry-primary" unicode="" horiz-adv-x="640" d="M637.71-20.1c1.266-3.16 2.293-8.489 2.293-11.894 0-11.953-9.006-25.262-20.103-29.706-3.115-1.27-8.373-2.3-11.737-2.3H608c-11.946.006-25.247 9.01-29.69 20.1l-27.69 69.2 2 18.2 41.09 46.4zm-591.4 110l41.11-46.4 2-18.2-27.71-69.2c-4.55-10.815-17.764-19.591-29.496-19.591-17.664 0-32 14.336-32 32 0 3.25.94 8.353 2.096 11.391zm150.31 162.2l11.3-33.9 16.06-10.2v-75.58c-.41.22-.81.44-1.19.68l-51.1 32.5c-12.59 9.2-20.4 20.1-24.5 32.6l-6.79 20.4-17.61-70.3 43.31-49c7.333-8.31 14.318-23.99 15.59-35l10.1-92.8c.11-.975.197-2.565.197-3.546 0-15.819-12.762-30.043-28.487-31.753-1.21-.101-2.31-.2-3.5-.2-15.819.008-30.06 12.777-31.79 28.5L118.12 57.1 50.92 133c-8.847 10.019-16.027 28.998-16.027 42.363 0 4.008.729 10.431 1.626 14.338l18.4 80.2c4.083 17.627 20.884 37.742 37.5 44.9 6.55 2.876 17.67 5.211 24.824 5.211 9.271 0 23.284-3.813 31.276-8.512 19.423-11.417 40.972-38.028 48.101-59.4zm406.9-62.4c.878-3.875 1.59-10.245 1.59-14.218 0-13.389-7.168-32.42-16-42.482l-67.19-75.9-10.11-92.6c-1.73-15.723-15.972-28.491-31.79-28.5-1.21 0-2.31.1-3.5.2-15.732 1.73-28.501 15.98-28.501 31.808 0 .966.086 2.53.191 3.492l10.1 92.8c1.27 11.015 8.264 26.695 15.61 35l43.29 49-17.59 70.3-6.81-20.4c-4.1-12.6-11.89-23.4-24.5-32.6l-51.1-32.5c-.38-.24-.79-.47-1.21-.7V208l16 10.2 11.29 33.9c7.174 21.338 28.728 47.95 48.11 59.4 7.993 4.7 22.005 8.514 31.276 8.514 7.154 0 18.276-2.336 24.825-5.214 16.617-7.158 33.418-27.273 37.5-44.9z"/><glyph glyph-name="person-carry-primary" unicode="" horiz-adv-x="384" d="M0-31.9V97.7c.6-.5 48-41.4 64-55.1v-74.5c0-17.664-14.336-32-32-32S0-49.564 0-31.9zM128 160l-32 59.9v-78.3l44-37.7c9.73-8.373 19.362-25.442 21.5-38.1l14.1-92.5c.238-1.436.431-3.781.431-5.237 0-14.96-11.975-29.1-26.731-31.563-26.7-4.4-35.8 20.6-36.8 26.3L98.4 55.3l-76 65.1C10.05 130.97.015 152.744 0 169v103c0 26.496 21.504 48 48 48h28.776c21.312 0 46.634-15.321 56.524-34.2l33.3-61.8H192v-64h-64z"/><glyph glyph-name="person-dolly-primary" unicode="" d="M479 127.1c.302-1.125.547-2.983.547-4.148 0-6.772-5.308-13.694-11.847-15.452l-117-31.3c-1.125-.301-2.983-.546-4.148-.546-6.772 0-13.695 5.306-15.452 11.846l-31.4 116.9c-.302 1.125-.547 2.984-.547 4.149 0 6.771 5.307 13.693 11.847 15.451l117 31.3c1.125.302 2.983.547 4.149.547 6.771 0 13.694-5.307 15.45-11.847zM0-31.9V97.7c.5-.5 48-41.4 64-55.1v-74.5c0-17.664-14.336-32-32-32S0-49.564 0-31.9zm128 192L96 220v-78.3l44-37.7c9.731-8.373 19.363-25.441 21.5-38.1l14.1-92.5c.238-1.435.431-3.781.431-5.237 0-14.96-11.975-29.1-26.731-31.563-26.7-4.4-35.8 20.6-36.8 26.3L98.4 55.4l-76 65.1C10.053 131.073.018 152.845 0 169.1v103c0 26.496 21.504 48 48 48h28.7l.164.001c21.314 0 46.642-15.322 56.536-34.2l33.3-61.801h39l17.1-64H128z"/><glyph glyph-name="person-dolly-empty-primary" unicode="" d="M0-31.9V97.7c.5-.5 48-41.4 64-55.1v-74.5c0-17.664-14.336-32-32-32S0-49.564 0-31.9zm205.7 256l17.1-64H128L96 220v-78.3l44-37.7c9.731-8.373 19.363-25.441 21.5-38.1l14.1-92.5c.238-1.435.431-3.781.431-5.236 0-14.96-11.976-29.1-26.731-31.564-26.7-4.4-35.8 20.6-36.8 26.3L98.4 55.4l-76 65.1C10.053 131.073.017 152.845 0 169.1v103c0 26.496 21.504 48 48 48h28.7l.164.001c21.314 0 46.642-15.322 56.536-34.2l33.3-61.801h39z"/><glyph glyph-name="phone-plus-primary" unicode="" d="M512 400C512 143.5 304.1-64 48-64h-.016C37.447-64 26.971-55.667 24.6-45.4l-24 104c-.327 1.453-.592 3.84-.592 5.33 0 8.786 6.537 18.762 14.592 22.27l112 48c2.489 1.06 6.704 1.921 9.41 1.921 6.286 0 14.614-3.952 18.59-8.821l49.6-60.6c66.477 31.337 145.862 110.723 177.2 177.2l-60.6 49.6c-4.876 3.966-8.834 12.287-8.834 18.572 0 2.712.866 6.936 1.934 9.428l48 112c3.492 8 13.412 14.494 22.142 14.494 1.5 0 3.905-.27 5.368-.605l104-24c10.262-2.374 18.59-12.85 18.59-23.381V400z"/><glyph glyph-name="piggy-bank-primary" unicode="" horiz-adv-x="576" d="M560 224c8.832 0 16-7.168 16-16V80c0-8.832-7.168-16-16-16h-48.72c-7.43-9.838-21.442-23.85-31.28-31.28V-48c0-8.832-7.168-16-16-16h-64c-8.832 0-16 7.168-16 16V0H256v-48c0-8.832-7.168-16-16-16h-64c-8.832 0-16 7.168-16 16v80.73V32c-35.328 26.453-64 83.741-64 127.875V160c0 81.12 65.17 160 160 160h128c7.88 0 15.43-1.22 23-2.32C424.61 338.5 450.6 352 480 352h32l-18.89-75.54c13.296-12.355 30.043-35.857 37.38-52.46H560zm-128-64c8.832 0 16 7.168 16 16s-7.168 16-16 16-16-7.168-16-16 7.168-16 16-16z"/><glyph glyph-name="ramp-loading-primary" unicode="" horiz-adv-x="384" d="M292.4 119.2l80-160c.944-1.875 1.71-5.1 1.71-7.2 0-8.832-7.167-16-16-16H25.89c-8.833 0-16 7.168-16 16 0 2.1.766 5.325 1.71 7.2l80 160c2.43 4.857 8.809 8.8 14.24 8.8h172.32c5.431 0 11.81-3.943 14.24-8.8z"/><glyph glyph-name="ribbon-primary" unicode="" horiz-adv-x="448" d="M89.34 219.31c-48.6 53.8-13 113.5-11.5 116l43.6 73.2c3.532 6 11.058 14.064 16.8 18 44 29.7 130.7 27.6 171.4 0 5.741-3.936 13.268-12 16.8-18l43.7-73.5c7.589-12.76 13.748-35.166 13.748-50.012 0-20.74-11.266-50.079-25.148-65.488l-34.2-38-79.1 87.7s52.7 59 56 64.6c-15.4 8.4-40.2 17.9-77.5 17.9s-62.1-9.5-77.5-17.9c3.4-5.5 295.399-330.1 295.399-330.1 3.385-3.745 6.132-10.882 6.132-15.93 0-6.956-4.674-15.768-10.432-19.67l-68.8-27.9c-3.367-2.283-9.4-4.136-13.47-4.136-5.895 0-13.883 3.556-17.83 7.936z"/><glyph glyph-name="seedling-primary" unicode="" d="M288 128V-16c0-8.832-7.168-16-16-16h-32c-8.832 0-16 7.168-16 16v144C100.3 128 0 228.3 0 352h64c123.7 0 224-100.3 224-224z"/><glyph glyph-name="sign-primary" unicode="" d="M160 64v224h320V64H160z"/><glyph glyph-name="tape-primary" unicode="" horiz-adv-x="640" d="M288 192c0-35.328-28.672-64-64-64s-64 28.672-64 64 28.672 64 64 64c35.295-.033 63.967-28.705 64-64z"/><glyph glyph-name="truck-container-primary" unicode="" horiz-adv-x="640" d="M621.3 210.7c10.322-10.323 18.7-30.55 18.7-45.148V79.9c0-8.832-7.168-16-16-16h-17.47a2.465 2.465 0 0 0 0-.24c-13.477 26.661-48.662 48.299-78.536 48.299-29.813 0-64.965-21.575-78.464-48.16H408v.2H16C7.168 64 0 71.169 0 80v15.9c0 8.832 7.168 16 16 16h416v144c0 17.664 14.336 32 32 32h53.59c14.613 0 34.867-8.378 45.21-18.7zM480 192h92.1l-43.3 43.3c-2.584 2.583-7.647 4.688-11.3 4.7H480v-48zM32 144c-17.664 0-32 14.336-32 32v208c0 17.664 14.336 32 32 32h336c17.664 0 32-14.336 32-32V176c0-17.664-14.336-32-32-32H32zm272 224V192h32v176h-32zm-80 0V192h32v176h-32zm-80 0V192h32v176h-32zm-80 0V192h32v176H64z"/><glyph glyph-name="truck-couch-primary" unicode="" horiz-adv-x="640" d="M384 448h256V116.56C618.942 140.54 575.952 160 544.04 160H544c-67 0-122.09-51.7-127.55-117.3-.05.34-.05.67-.05 1L22.7-63.7a9.647 9.647 0 0 0-2.087-.276c-3.365 0-6.82 2.633-7.713 5.877L.3-11.799a9.639 9.639 0 0 0-.277 2.087C.023-6.348 2.656-2.892 5.9-2L352 92.4V416c0 17.664 14.336 32 32 32z"/><glyph glyph-name="truck-loading-primary" unicode="" horiz-adv-x="640" d="M384 448h256V116.56C618.942 140.54 575.952 160 544.04 160H544c-67 0-122.09-51.7-127.55-117.3-.05.34-.05.67-.05 1L22.7-63.7a9.647 9.647 0 0 0-2.087-.276c-3.365 0-6.82 2.633-7.713 5.877L.3-11.799a9.639 9.639 0 0 0-.277 2.087C.023-6.348 2.656-2.892 5.9-2L352 92.4V416c0 17.664 14.336 32 32 32zM175.8 222L114 205.5l-24.8 92.7 61.8 16.5z"/><glyph glyph-name="truck-moving-primary" unicode="" horiz-adv-x="640" d="M621.3 210.7c10.322-10.315 18.7-30.53 18.7-45.123V80c0-8.832-7.168-16-16-16h-5.49c-12.497 35.312-53.041 63.973-90.5 63.973S450.007 99.313 437.51 64h-123c-12.501 35.305-53.042 63.957-90.494 63.957-28.45 0-64.297-19.244-80.016-42.957-15.693 23.734-51.523 42.997-79.977 42.997-20.259 0-48.942-10.98-64.023-24.507V384c0 17.664 14.336 32 32 32h416c17.664 0 32-14.336 32-32v-96.1h37.59c14.613 0 34.867-8.377 45.21-18.7zM480 192h92.1l-43.3 43.3c-2.571 2.595-7.624 4.7-11.277 4.7H480v-48z"/><glyph glyph-name="truck-ramp-primary" unicode="" horiz-adv-x="640" d="M384 448h256V116.56C618.942 140.54 575.952 160 544.04 160H544c-67 0-122.09-51.7-127.55-117.3-.05.34-.05.67-.05 1L22.7-63.7a9.647 9.647 0 0 0-2.087-.276c-3.365 0-6.82 2.633-7.713 5.877L.3-11.799a9.639 9.639 0 0 0-.277 2.087C.023-6.348 2.656-2.892 5.9-2L352 92.4V416c0 17.664 14.336 32 32 32z"/><glyph glyph-name="video-plus-primary" unicode="" horiz-adv-x="576" d="M336.2 384c26.386 0 47.8-21.414 47.8-47.8V47.8C384 21.415 362.586 0 336.2 0H47.8C21.414 0 0 21.415 0 47.8v288.4C0 362.586 21.414 384 47.8 384h288.4zM304 184v16c0 8.832-7.168 16-16 16h-72v72c0 8.832-7.168 16-16 16h-16c-8.832 0-16-7.168-16-16v-72H96c-8.832 0-16-7.168-16-16v-16c0-8.832 7.168-16 16-16h72V96c0-8.832 7.168-16 16-16h16c8.832 0 16 7.168 16 16v72h72c8.832 0 16 7.168 16 16z"/><glyph glyph-name="video-slash-primary" unicode="" horiz-adv-x="640" d="M3.37 416.63L23 441.83c2.662 3.406 8.331 6.172 12.654 6.172 3.036 0 7.448-1.51 9.846-3.372l588.3-454.7c3.427-2.626 6.209-8.262 6.209-12.58 0-3.036-1.527-7.436-3.41-9.82L617-57.77c-2.662-3.406-8.33-6.171-12.654-6.171-3.036 0-7.447 1.51-9.846 3.371L6.17 394.231c-3.409 2.64-6.176 8.282-6.176 12.594 0 3.027 1.513 7.42 3.376 9.805z"/><glyph glyph-name="heart-secondary" unicode="􏀄" d="M414.64 233.12L256 69.269 97.31 233.089c-22.85 23.62-24.67 66.62 4.29 91.39 24.16 20.59 58.4 11.12 77.21-8.33l.08-.08L256 236.58 333.11 316c20.15 20.8 54.17 28 77.22 8.42 29.2-24.79 27.111-67.77 4.31-91.3z"/><glyph glyph-name="video-secondary" unicode="􏀽" horiz-adv-x="576" d="M525.6 37.8L416 113.3v157.4l109.6 75.6c21.3 14.6 50.4-.4 50.4-25.8V63.6c0-25.5-29.2-40.4-50.4-25.8z"/><glyph glyph-name="leaf-secondary" unicode="􏁬" horiz-adv-x="576" d="M576 293.69c0-172.381-110.51-313.171-267.53-324.57-5.634-.6-14.804-1.103-20.47-1.12v.55h-.339c-60.758 0-134.92 42.591-165.54 95.07l.769.85c29.58 32.23 62.28 57.84 97.18 76.12 35.834 18.797 97.757 34.052 138.222 34.052.325 0 .853 0 1.178-.003 13.355.27 24.194 11.329 24.194 24.686s-10.84 24.416-24.194 24.685c-.36.002-.944.002-1.304.002-47.358 0-119.77-17.965-161.635-40.102-33.77-17.81-65.56-41.48-94.77-70.49-3.18 12.688-5.76 33.603-5.76 46.683v.177C96 266.17 181.86 352 287.77 352H368c63.4 0 118.91 33.59 149.91 87.49 6.7 11.8 22.71 11.3 28.31-1.2 18.98-42.41 29.78-94.4 29.78-144.6z"/><glyph glyph-name="comment-secondary" unicode="􏁵" d="M256 80C155.46 80 80 142.31 80 208c0 65.43 75.2 128 176 128 100.54 0 176-62.31 176-128 0-65.43-75.2-128-176-128z"/><glyph glyph-name="comments-secondary" unicode="􏂆" horiz-adv-x="576" d="M208 96c-41 0-79.1 9.3-111.3 25C74.9 108.3 44.6 96 8 96h-.08c-2.873 0-6.11 2.15-7.22 4.8-.373.848-.675 2.29-.675 3.217 0 1.75.974 4.208 2.175 5.483.3.3 22.4 24.3 35.8 54.5-23.9 26.1-38 57.7-38 92 0 88.4 93.1 160 208 160s208-71.6 208-160S322.9 96 208 96z"/><glyph glyph-name="globe-secondary" unicode="􏂬" d="M348.45 128h-184.9c-1.959 17.61-3.55 46.281-3.55 64s1.591 46.39 3.55 64h184.9c1.96-17.472 3.55-45.92 3.55-63.501v-.998c0-17.581-1.59-46.03-3.55-63.501zM168.2 288c.41 2.31.8 4.62 1.33 6.91 5.97 30.85 14.42 58.37 25.13 81.78 9.85 21.54 21.34 38.77 33.34 49.83 9.62 8.95 19.06 13.48 28 13.48s18.38-4.53 28.05-13.48c11.95-11.06 23.49-28.29 33.34-49.83 10.71-23.41 19.13-50.93 25.13-81.78.44-2.29.87-4.6 1.28-6.91H168.2zM128 192v-.362c0-17.613 1.496-46.122 3.34-63.638h-115c-4.61 17.363-8.35 46.035-8.35 64s3.74 46.637 8.35 64h115c-1.844-17.516-3.34-46.025-3.34-63.638V192zm367.65 64c4.61-17.363 8.36-46.035 8.36-64s-3.74-46.637-8.35-64h-115c1.844 17.516 3.34 46.025 3.34 63.638v.63c0 17.638-1.501 46.191-3.35 63.732h115zm-10.92 32h-108.4c-9.86 59.53-28.62 109.68-52.75 142.68 63.384-18.025 135.579-81.946 161.15-142.68zM323.58-46.68c24.13 33 42.89 83.15 52.75 142.68h108.4C459.159 35.267 386.963-28.654 323.58-46.68zM343.8 96c-.41-2.31-.8-4.62-1.28-6.91-5.97-30.85-14.42-58.37-25.13-81.78-9.85-21.54-21.34-38.77-33.34-49.83C274.38-51.47 264.94-56 256-56s-18.38 4.48-28.05 13.48c-11.96 11.06-23.49 28.29-33.34 49.83-10.71 23.41-19.13 50.93-25.13 81.78-.44 2.29-.87 4.6-1.28 6.91h175.6zM188.42 430.68c-24.13-33-42.89-83.15-52.75-142.68H27.27c25.571 60.733 97.767 124.654 161.15 142.68zM27.27 96h108.4c9.86-59.53 28.62-109.68 52.75-142.68C125.035-28.655 52.84 35.266 27.27 96z"/><glyph glyph-name="suitcase-secondary" unicode="􏃲" d="M80-32v352h48V-32H80zm304 352h48V-32h-48v352z"/><glyph glyph-name="quote-left-secondary" unicode="􏄍" d="M464 192c26.496 0 48-21.504 48-48V16c0-26.496-21.504-48-48-48H336c-26.496 0-48 21.504-48 48v240c0 88.32 71.68 160 160 160h8.12c13.182-.033 23.88-10.758 23.88-23.94v-48.18c-.033-13.182-10.758-23.88-23.94-23.88H448c-35.295-.033-63.967-28.705-64-64v-64h80z"/><glyph glyph-name="quote-right-secondary" unicode="􏄎" d="M176 416c26.496 0 48-21.504 48-48V128c0-88.32-71.68-160-160-160h-8.12C42.698-31.967 32-21.242 32-8.06v48.18C32.033 53.302 42.758 64 55.94 64H64c35.295.033 63.967 28.705 64 64v64H48c-26.496 0-48 21.504-48 48v128c0 26.496 21.504 48 48 48h128z"/><glyph glyph-name="dollar-sign-secondary" unicode="􏅕" horiz-adv-x="320" d="M192 384h-64v48c0 8.832 7.168 16 16 16h32c8.832 0 16-7.168 16-16v-48zM128 0h64v-48c0-8.832-7.168-16-16-16h-32c-8.832 0-16 7.168-16 16V0z"/><glyph glyph-name="archive-secondary" unicode="􏆇" d="M32 288h448V0c0-17.664-14.336-32-32-32H64C46.336-32 32-17.664 32 0v288zm288-84v8c0 6.624-5.376 12-12 12H204c-6.624 0-12-5.376-12-12v-8c0-6.624 5.376-12 12-12h104c6.624 0 12 5.376 12 12z"/><glyph glyph-name="handshake-secondary" unicode="􏊵" horiz-adv-x="640" d="M0 64v255.8h96V96c0-17.664-14.336-32-32-32H0zm48 63.9c-8.832 0-16-7.168-16-16s7.168-16 16-16 16 7.168 16 16-7.168 16-16 16zm409.3 246.7l54.6-54.6V126.5c-2.017 2.293-5.556 5.743-7.9 7.7L358.4 252.4l26.1 23.9c2.73 2.61 4.944 7.791 4.944 11.566 0 8.832-7.168 16-16 16-3.322 0-8.046-1.777-10.544-3.965L283 226.7c-.1-.101-.3-.101-.4-.2-16.7-14.901-43.4-11.201-56.1 2.7-5.803 6.303-10.513 18.373-10.513 26.94 0 9.532 5.65 22.55 12.612 29.06.101.099.2.3.301.399l98.3 90c5.06 4.635 14.737 8.398 21.6 8.4h85.941c7.307 0 17.413-4.21 22.559-9.4z"/><glyph glyph-name="usd-circle-secondary" unicode="􏋨" d="M256 440c137 0 248-111 248-248S393-56 256-56 8 55 8 192s111 248 248 248zm24-376c37.6.2 68.2 32.1 68 71.4 0 31.6-20.2 59.8-49.2 68.6l-72 21.9c-8.9 2.8-15.2 12.1-15.2 22.7 0 12.9 9.2 23.4 20.5 23.4h45.127c5.865 0 14.722-2.419 19.773-5.4 6.4-3.8 14.3-3.5 19.7 1.6l12 11.3c7.7 7.1 6.4 19.3-2.3 25.2-11.616 7.825-32.403 14.59-46.4 15.1V336c0 8.832-7.168 16-16 16h-16c-8.832 0-16-7.168-16-16v-16c-37.6-.1-68.2-32.1-68.2-71.4 0-31.6 20.2-59.8 49.2-68.6l72.2-21.9c8.9-2.8 15.2-12.1 15.2-22.7 0-12.9-9.2-23.4-20.5-23.4h-45.127c-5.865 0-14.722 2.419-19.773 5.4-6.4 3.8-14.3 3.5-19.7-1.6l-12-11.3c-7.7-7.1-6.4-19.3 2.3-25.2 11.616-7.825 32.403-14.59 46.4-15.1V48c0-8.832 7.168-16 16-16h16c8.832 0 16 7.168 16 16v16z"/><glyph glyph-name="usd-square-secondary" unicode="􏋩" horiz-adv-x="448" d="M400 416c26.496 0 48-21.504 48-48V16c0-26.496-21.504-48-48-48H48C21.504-32 0-10.496 0 16v352c0 26.496 21.504 48 48 48h352zM248 64c37.6.2 68.2 32.1 68 71.4 0 31.6-20.2 59.8-49.2 68.6l-72 21.9c-8.9 2.8-15.2 12.1-15.2 22.7 0 12.9 9.2 23.4 20.5 23.4h45.127c5.865 0 14.722-2.419 19.773-5.4 6.4-3.8 14.3-3.5 19.7 1.6l12 11.3c7.7 7.1 6.4 19.3-2.3 25.2-11.616 7.825-32.403 14.59-46.4 15.1V336c0 8.832-7.168 16-16 16h-16c-8.832 0-16-7.168-16-16v-16c-37.6-.1-68.2-32.1-68.2-71.4 0-31.6 20.2-59.8 49.2-68.6l72.2-21.9c8.9-2.8 15.2-12.1 15.2-22.7 0-12.9-9.2-23.4-20.5-23.4h-45.127c-5.865 0-14.722 2.419-19.773 5.4-6.4 3.8-14.3 3.5-19.7-1.6l-12-11.3c-7.7-7.1-6.4-19.3 2.3-25.2 11.616-7.825 32.403-14.59 46.4-15.1V48c0-8.832 7.168-16 16-16h16c8.832 0 16 7.168 16 16v16z"/><glyph glyph-name="poo-secondary" unicode="􏋾" d="M451.4 78.9c33.429-5.34 60.56-37.147 60.56-71 0-39.69-32.212-71.9-71.9-71.9H71.94C32.252-64 .04-31.79.04 7.9c0 33.853 27.13 65.66 60.56 71-15.784 11.887-28.595 37.57-28.595 57.33 0 39.618 32.154 71.77 71.771 71.77H118.1c-12.201 10.526-22.102 32.147-22.102 48.26 0 35.185 28.555 63.74 63.74 63.74h16.473c44.044 0 79.79 35.746 79.79 79.79 0 14.24-6.765 35.165-15.101 46.71 4.134.755 10.898 1.427 15.1 1.5 52.992 0 96-43.008 96-96-.087-9.116-2.73-23.452-5.901-32h6.162c35.185 0 63.74-28.555 63.74-63.74 0-16.114-9.901-37.734-22.101-48.26h14.323c39.617 0 71.77-32.152 71.77-71.77 0-19.76-12.81-45.443-28.593-57.33zM320 192c-17.664 0-32-14.336-32-32s14.336-32 32-32 32 14.336 32 32-14.336 32-32 32zm-128 0c-17.664 0-32-14.336-32-32s14.336-32 32-32 32 14.336 32 32-14.336 32-32 32zM351.5 53c.272.749.493 2.004.493 2.8a8.204 8.204 0 0 1-8.2 8.201L343.7 64H168.3l-.093.001a8.203 8.203 0 0 1-8.2-8.2c0-.797.22-2.052.493-2.801C171 25.1 219 0 256 0s85 25.1 95.5 53z"/><glyph glyph-name="phone-slash-secondary" unicode="􏏝" horiz-adv-x="640" d="M377.91 321.49l48 112c3.491 8.004 13.412 14.501 22.145 14.501 1.497 0 3.895-.27 5.355-.602l104-24c10.262-2.374 18.59-12.85 18.59-23.381v-.74c0-88.926-44.876-217.623-100.17-287.269l-76 58.76c14.969 18.71 35.398 51.49 45.6 73.17l-60.6 49.6c-4.878 3.967-8.837 12.288-8.837 18.575 0 2.698.86 6.903 1.917 9.386zM268.17 66.59c11.5 5.41 22.7 11.6 33.6 18.1l80-61.8c-66.634-47.97-187.35-86.9-269.453-86.9h-.262c-10.537 0-21.014 8.333-23.385 18.6l-24 104c-.346 1.484-.627 3.925-.627 5.449 0 8.728 6.508 18.606 14.527 22.05l112 48c2.489 1.061 6.705 1.923 9.41 1.923 6.286 0 14.615-3.952 18.59-8.822z"/><glyph glyph-name="hand-holding-box-secondary" unicode="􏑻" horiz-adv-x="576" d="M352 320l-64 32-64-32v128h128V320zm213.3-200.1c5.919-5.27 10.724-15.977 10.724-23.902 0-8.495-5.387-19.695-12.024-24.998L412.8-50c-9.68-7.728-27.59-14-39.977-14H16C7.168-64 0-56.832 0-48v96c0 8.832 7.168 16 16 16h55.4l46.5 37.7c17.88 14.507 51.076 26.289 74.1 26.3h160.06c17.664 0 32-14.336 32-32 0-1.501-.205-3.92-.46-5.4C381 74.9 366.2 64 350.3 64H272c-8.832 0-16-7.168-16-16s7.168-16 16-16h118.466c12.353 0 30.198 6.271 39.834 14l92.4 73.9c12.4 10 30.8 10.7 42.6 0z"/><glyph glyph-name="hand-receiving-secondary" unicode="􏑼" horiz-adv-x="640" d="M204.8 217.6l57.6-76.8c14.12-18.846 25.589-53.252 25.6-76.8V-48c0-8.832-7.168-16-16-16H140.133c-6.632 0-13.41 5.197-15.133 11.6-1.637 6.58-6.296 16.302-10.4 21.7L10.5 103.6C4.704 110.86 0 124.292 0 133.58V352c0 17.664 14.336 32 32 32s32-14.336 32-32V203.6l89.8-107.8c2.634-3.212 8.142-5.818 12.296-5.818 3.663 0 8.727 2.113 11.304 4.719l12.8 12.8c2.588 2.586 4.689 7.656 4.689 11.315 0 2.938-1.429 7.232-3.189 9.585l-38.1 50.8c-3.533 4.71-6.4 13.311-6.4 19.2 0 17.664 14.336 32 32 32 8.832 0 20.301-5.735 25.6-12.801zM608 384c17.664 0 32-14.336 32-32V133.58c0-9.289-4.704-22.72-10.5-29.98L525.4-30.7c-4.104-5.398-8.763-15.12-10.4-21.7-1.752-6.404-8.563-11.6-15.202-11.6H368c-8.832 0-16 7.168-16 16V64c.012 23.548 11.481 57.954 25.6 76.8l57.6 76.8c5.299 7.066 16.768 12.8 25.6 12.8 17.664 0 32-14.335 32-32 0-5.888-2.868-14.49-6.4-19.2l-38.1-50.8c-1.76-2.352-3.189-6.646-3.189-9.584 0-3.66 2.1-8.729 4.689-11.316l12.8-12.8c2.59-2.562 7.65-4.641 11.293-4.641 4.136 0 9.65 2.572 12.307 5.741L576 203.6V352c0 17.664 14.336 32 32 32z"/><glyph glyph-name="blanket-secondary" unicode="􏒘" d="M512-16v-32c0-8.832-7.168-16-16-16H128C57.17-64-.41-6.17 0 64.75.41 135.38 58.78 192 129.41 192H432c44.162-.048 80.003-35.929 80.003-80.09 0-.193-.001-.507-.003-.7-.43-44-37-79.21-81-79.21H127.987c-17.664 0-32 14.336-32 32 0 .248.006.651.013.9.48 17.43 15.22 31.1 32.66 31.1h303.36c8.833 0 16 7.168 16 16 0 .224-.008.587-.02.81-.42 8.59-7.84 15.19-16.44 15.19H128c-35.332-.03-64.007-28.729-64.007-64.06 0-.26.003-.68.007-.94.53-35.12 29.84-63 65-63h367c8.832 0 16-7.168 16-16z"/><glyph glyph-name="box-alt-secondary" unicode="􏒚" horiz-adv-x="448" d="M256 416l32-128V176c0-8.832-7.168-16-16-16h-96c-8.832 0-16 7.168-16 16v112l32 128h64z"/><glyph glyph-name="box-fragile-secondary" unicode="􏒛" horiz-adv-x="448" d="M416 416c17.664 0 32-14.336 32-32V0c0-17.664-14.336-32-32-32H32C14.336-32 0-17.664 0 0v384c0 17.664 14.336 32 32 32h384zm-96-160v80c0 8.832-7.168 16-16 16H144c-8.832 0-16-7.168-16-16v-80c.033-44.738 35.873-87.03 80-94.4V64h-40c-4.416 0-8-3.584-8-8V40c0-4.416 3.584-8 8-8h112c4.416 0 8 3.584 8 8v16c0 4.416-3.584 8-8 8h-40v97.6c45.4 7.7 80 46.9 80 94.4z"/><glyph glyph-name="box-heart-secondary" unicode="􏒝" horiz-adv-x="448" d="M0 256h448V0c0-17.664-14.336-32-32-32H32C14.336-32 0-17.664 0 0v256zm305.1-149.2c8.22 8.06 14.893 23.946 14.893 35.459 0 13.155-8.33 30.51-18.592 38.741-20.6 16.7-51.2 13.7-70-4.8l-7.4-7.3-7.401 7.3c-18.9 18.5-49.5 21.5-70 4.8-10.282-8.219-18.627-25.572-18.627-38.736 0-11.523 6.688-27.41 14.928-35.464l72.6-71.4c1.96-1.904 5.767-3.449 8.5-3.449s6.54 1.545 8.5 3.45z"/><glyph glyph-name="box-up-secondary" unicode="􏒟" horiz-adv-x="448" d="M416 416c17.664 0 32-14.336 32-32V0c0-17.664-14.336-32-32-32H32C14.336-32 0-17.664 0 0v384c0 17.664 14.336 32 32 32h384zM57.8 269c-.969-1.21-1.755-3.45-1.755-5 0-4.392 3.563-7.976 7.955-8h32.1V144c0-8.832 7.168-16 16-16h32c8.832 0 16 7.168 16 16v112h32c4.391.024 7.955 3.608 7.955 8 0 1.55-.786 3.79-1.755 5l-64 80c-1.366 1.572-4.166 2.849-6.25 2.849-2.083 0-4.883-1.277-6.25-2.849zM384 40v16c0 4.416-3.584 8-8 8H72c-4.416 0-8-3.584-8-8V40c0-4.416 3.584-8 8-8h304c4.416 0 8 3.584 8 8zm0 216c4.417.026 8.002 3.633 8.002 8.05 0 1.527-.763 3.745-1.702 4.95l-64 80c-1.366 1.572-4.166 2.849-6.25 2.849-2.083 0-4.883-1.277-6.25-2.849l-64-80c-.969-1.21-1.755-3.45-1.755-5 0-4.392 3.563-7.976 7.955-8h32V144c0-8.832 7.168-16 16-16h32c8.832 0 16 7.168 16 16v112h32z"/><glyph glyph-name="box-usd-secondary" unicode="􏒠" horiz-adv-x="448" d="M0 256h448V0c0-17.664-14.336-32-32-32H32C14.336-32 0-17.664 0 0v256zM240 32.1c23.6.6 42.7 20.6 42.8 45.1 0 20-13 37.8-31.6 43.4l-45 13.5c-5.2 1.5-8.8 6.7-8.8 12.7 0 7.3 5.3 13.2 11.8 13.2h28.1c3.823-.019 9.557-1.676 12.8-3.7 1.149-.791 3.214-1.434 4.61-1.434 1.744 0 4.204.956 5.49 2.134l11.7 11.3c1.37 1.305 2.48 3.9 2.48 5.79 0 2.158-1.379 4.984-3.08 6.31-7.724 5.739-21.791 10.801-31.4 11.3V208c0 4.416-3.584 8-8 8h-16c-4.416 0-8-3.584-8-8v-16.2c-23.7-.7-42.7-20.6-42.7-45.1 0-20 13-37.8 31.6-43.4l45-13.5c5.2-1.5 8.8-6.7 8.8-12.7 0-7.3-5.3-13.2-11.8-13.2h-28.1c-3.823.019-9.557 1.676-12.8 3.7-1.149.792-3.214 1.433-4.61 1.433-1.744 0-4.204-.955-5.49-2.133L176 55.7c-1.37-1.305-2.48-3.9-2.48-5.79 0-2.158 1.38-4.984 3.08-6.31 7.723-5.739 21.79-10.801 31.4-11.3V16c0-4.416 3.584-8 8-8h16c4.416 0 8 3.584 8 8v16.1z"/><glyph glyph-name="boxes-alt-secondary" unicode="􏒡" horiz-adv-x="576" d="M320 448v-88c0-4.416-3.584-8-8-8h-48c-4.416 0-8 3.584-8 8v88h64zm160-288V72c0-4.416-3.584-8-8-8h-48c-4.416 0-8 3.584-8 8v88h64zm-320 0V72c0-4.416-3.584-8-8-8h-48c-4.416 0-8 3.584-8 8v88h64z"/><glyph glyph-name="comment-alt-check-secondary" unicode="􏒢" d="M448 448c35.295-.033 63.967-28.705 64-64V96c-.033-35.295-28.705-63.967-64-64H304L179.1-61.7c-1.749-1.283-4.93-2.325-7.1-2.325-6.624 0-12 5.376-12 12V32H64C28.705 32.033.034 60.705 0 96v288c.034 35.295 28.705 63.967 64 64h384zm-77.9-163.8c1.791 1.78 3.244 5.274 3.244 7.8 0 2.48-1.408 5.93-3.143 7.7l-25.8 26c-1.785 1.818-5.302 3.294-7.85 3.294-2.503 0-5.974-1.43-7.75-3.194L231.6 229.4l-42.1 42.5c-1.785 1.819-5.301 3.294-7.85 3.294-2.502 0-5.974-1.431-7.75-3.194l-26-25.8c-1.818-1.785-3.293-5.302-3.293-7.85 0-2.503 1.43-5.974 3.193-7.75l75.7-76.3c1.786-1.819 5.302-3.294 7.85-3.294 2.503 0 5.975 1.43 7.75 3.194z"/><glyph glyph-name="comment-alt-dots-secondary" unicode="􏒣" d="M448 448c35.295-.033 63.967-28.705 64-64V96c-.033-35.295-28.705-63.967-64-64H304L179.1-61.7c-1.749-1.283-4.93-2.325-7.1-2.325-6.624 0-12 5.376-12 12V32H64C28.705 32.033.034 60.705 0 96v288c.034 35.295 28.705 63.967 64 64h384zM128 208c17.664 0 32 14.336 32 32s-14.336 32-32 32-32-14.336-32-32 14.336-32 32-32zm128 0c17.664 0 32 14.336 32 32s-14.336 32-32 32-32-14.336-32-32 14.336-32 32-32zm128 0c17.664 0 32 14.336 32 32s-14.336 32-32 32-32-14.336-32-32 14.336-32 32-32z"/><glyph glyph-name="comment-alt-edit-secondary" unicode="􏒤" d="M448 448c35.295-.033 63.967-28.705 64-64V96c-.033-35.295-28.705-63.967-64-64H304L179.1-61.7c-1.749-1.283-4.93-2.325-7.1-2.325-6.624 0-12 5.376-12 12V32H64C28.705 32.033.034 60.705 0 96v288c.034 35.295 28.705 63.967 64 64h384zM215.4 137.4l96.3 96.3-54 54-96.3-96.3-5.4-48.2c-.033-.3-.059-.787-.059-1.09 0-5.612 4.557-10.169 10.17-10.169.302 0 .789.026 1.089.059zm150.7 150.7c3.27 3.27 5.925 9.676 5.925 14.3 0 4.625-2.654 11.031-5.925 14.3l-25.4 25.4c-3.269 3.27-9.675 5.925-14.3 5.925-4.624 0-11.03-2.654-14.3-5.925l-31.8-31.8 54-54z"/><glyph glyph-name="comment-alt-exclamation-secondary" unicode="􏒥" d="M448 448c35.295-.033 63.967-28.705 64-64V96c-.033-35.295-28.705-63.967-64-64H304L179.1-61.7c-1.749-1.283-4.93-2.325-7.1-2.325-6.624 0-12 5.376-12 12V32H64C28.705 32.033.034 60.705 0 96v288c.034 35.295 28.705 63.967 64 64h384zM256 112c17.664 0 32 14.336 32 32s-14.336 32-32 32-32-14.336-32-32 14.336-32 32-32zm38.2 238.4c.044.44.08 1.157.08 1.6 0 8.82-7.16 15.989-15.98 16h-44.6c-8.817-.047-15.975-7.243-15.975-16.06 0-.427.034-1.116.075-1.54l12.8-128c.797-7.94 7.921-14.39 15.9-14.4h19c7.978.01 15.102 6.46 15.9 14.4z"/><glyph glyph-name="comment-alt-lines-secondary" unicode="􏒦" d="M448 448c35.295-.033 63.967-28.705 64-64V96c-.033-35.295-28.705-63.967-64-64H304L179.1-61.7c-1.749-1.283-4.93-2.325-7.1-2.325-6.624 0-12 5.376-12 12V32H64C28.705 32.033.034 60.705 0 96v288c.034 35.295 28.705 63.967 64 64h384zM288 184v16c0 4.416-3.584 8-8 8H136c-4.416 0-8-3.584-8-8v-16c0-4.416 3.584-8 8-8h144c4.416 0 8 3.584 8 8zm96 96v16c0 4.416-3.584 8-8 8H136c-4.416 0-8-3.584-8-8v-16c0-4.416 3.584-8 8-8h240c4.416 0 8 3.584 8 8z"/><glyph glyph-name="comment-alt-minus-secondary" unicode="􏒧" d="M448 448c35.295-.033 63.967-28.705 64-64V96c-.033-35.295-28.705-63.967-64-64H304L179.1-61.7c-1.749-1.283-4.93-2.325-7.1-2.325-6.624 0-12 5.376-12 12V32H64C28.705 32.033.034 60.705 0 96v288c.034 35.295 28.705 63.967 64 64h384zm-80-216v16c0 8.832-7.168 16-16 16H160c-8.832 0-16-7.168-16-16v-16c0-8.832 7.168-16 16-16h192c8.832 0 16 7.168 16 16z"/><glyph glyph-name="comment-alt-plus-secondary" unicode="􏒨" d="M448 448c35.295-.033 63.967-28.705 64-64V96c-.033-35.295-28.705-63.967-64-64H304L179.1-61.7c-1.749-1.283-4.93-2.325-7.1-2.325-6.624 0-12 5.376-12 12V32H64C28.705 32.033.034 60.705 0 96v288c.034 35.295 28.705 63.967 64 64h384zm-80-216v16c0 8.832-7.168 16-16 16h-72v72c0 8.832-7.168 16-16 16h-16c-8.832 0-16-7.168-16-16v-72h-72c-8.832 0-16-7.168-16-16v-16c0-8.832 7.168-16 16-16h72v-72c0-8.832 7.168-16 16-16h16c8.832 0 16 7.168 16 16v72h72c8.832 0 16 7.168 16 16z"/><glyph glyph-name="comment-alt-slash-secondary" unicode="􏒩" horiz-adv-x="640" d="M75.89 421.11C86.447 435.944 109.793 447.99 128 448h384c35.295-.034 63.967-28.706 64-64V95.958c0-15.093-8.875-35.786-19.81-46.189zM64 96v172.5L370 32h-2L243.1-61.7c-1.749-1.283-4.93-2.325-7.1-2.325-6.624 0-12 5.376-12 12V32h-96c-35.295.033-63.966 28.705-64 64z"/><glyph glyph-name="comment-alt-smile-secondary" unicode="􏒪" d="M448 448c35.295-.033 63.967-28.705 64-64V96c-.033-35.295-28.705-63.967-64-64H304L179.1-61.7c-1.749-1.283-4.93-2.325-7.1-2.325-6.624 0-12 5.376-12 12V32H64C28.705 32.033.034 60.705 0 96v288c.034 35.295 28.705 63.967 64 64h384zM320 314.8c-14.794 0-26.8-12.006-26.8-26.8s12.006-26.8 26.8-26.8 26.8 12.006 26.8 26.8-12.006 26.8-26.8 26.8zm-128 0c-14.794 0-26.8-12.006-26.8-26.8s12.006-26.8 26.8-26.8 26.8 12.006 26.8 26.8-12.006 26.8-26.8 26.8zm164.2-140.9c2.055 2.467 3.723 7.074 3.723 10.285 0 8.871-7.2 16.07-16.07 16.07-4.055 0-9.5-2.489-12.153-5.555-16.55-19.156-50.528-34.703-75.844-34.703-25.27 0-59.21 15.502-75.757 34.602-2.596 2.649-7.713 4.798-11.422 4.798-8.832 0-16-7.168-16-16 0-2.905 1.399-7.16 3.123-9.497C177.652 148.563 222.542 128 256 128s78.347 20.563 100.2 45.9z"/><glyph glyph-name="comment-alt-times-secondary" unicode="􏒫" d="M448 448c35.295-.033 63.967-28.705 64-64V96c-.033-35.295-28.705-63.967-64-64H304L179.1-61.7c-1.749-1.283-4.93-2.325-7.1-2.325-6.624 0-12 5.376-12 12V32H64C28.705 32.033.034 60.705 0 96v288c.034 35.295 28.705 63.967 64 64h384zM340.9 166.5c2.565 2.59 4.647 7.653 4.647 11.3s-2.082 8.709-4.647 11.3l-51 50.9 50.9 50.9c2.565 2.591 4.648 7.654 4.648 11.3s-2.083 8.71-4.649 11.3l-11.3 11.3c-2.59 2.565-7.653 4.648-11.3 4.648s-8.708-2.083-11.299-4.648L256 273.9l-50.9 50.9c-2.592 2.565-7.654 4.648-11.3 4.648s-8.71-2.083-11.3-4.648l-11.3-11.3c-2.566-2.59-4.649-7.653-4.649-11.3s2.083-8.709 4.649-11.3l50.9-50.9-50.9-50.9c-2.566-2.591-4.649-7.654-4.649-11.3s2.083-8.71 4.649-11.3l11.3-11.3c2.59-2.565 7.653-4.648 11.3-4.648s8.708 2.083 11.3 4.648l50.9 50.9 51-50.9c2.59-2.565 7.653-4.648 11.3-4.648s8.708 2.083 11.3 4.648z"/><glyph glyph-name="comment-check-secondary" unicode="􏒬" d="M256 416c141.4 0 256-93.1 256-208S397.4 0 256 0h-.36c-30.513 0-78.467 8.691-107.04 19.4C124-.2 74.3-32 8-32h-.08C5.046-32 1.81-29.85.7-27.2c-.373.848-.675 2.29-.675 3.217 0 1.75.974 4.208 2.175 5.483.5.5 42.3 45.4 54.8 95.8C21.4 113 0 158.4 0 208c0 114.9 114.6 208 256 208zm114.1-163.8c1.791 1.78 3.244 5.274 3.244 7.8 0 2.48-1.408 5.93-3.143 7.7l-25.8 26c-1.785 1.818-5.302 3.294-7.85 3.294-2.503 0-5.974-1.43-7.75-3.194L231.6 197.4l-42.1 42.5c-1.785 1.819-5.301 3.294-7.85 3.294-2.502 0-5.974-1.431-7.75-3.194l-26-25.8c-1.818-1.785-3.293-5.302-3.293-7.85 0-2.503 1.43-5.974 3.193-7.75l75.7-76.3c1.786-1.819 5.302-3.294 7.85-3.294 2.503 0 5.975 1.43 7.75 3.194z"/><glyph glyph-name="comment-dots-secondary" unicode="􏒭" d="M256 416c141.4 0 256-93.1 256-208S397.4 0 256 0h-.36c-30.513 0-78.467 8.691-107.04 19.4C124-.2 74.3-32 8-32h-.08C5.046-32 1.81-29.85.7-27.2c-.373.848-.675 2.29-.675 3.217 0 1.75.974 4.208 2.175 5.483.5.5 42.3 45.4 54.8 95.8C21.4 113 0 158.4 0 208c0 114.9 114.6 208 256 208zM128 176c17.664 0 32 14.336 32 32s-14.336 32-32 32-32-14.336-32-32 14.336-32 32-32zm128 0c17.664 0 32 14.336 32 32s-14.336 32-32 32-32-14.336-32-32 14.336-32 32-32zm128 0c17.664 0 32 14.336 32 32s-14.336 32-32 32-32-14.336-32-32 14.336-32 32-32z"/><glyph glyph-name="comment-edit-secondary" unicode="􏒮" d="M256 416c141.4 0 256-93.1 256-208S397.4 0 256 0h-.36c-30.513 0-78.467 8.691-107.04 19.4C124-.2 74.3-32 8-32h-.08C5.046-32 1.81-29.85.7-27.2c-.373.848-.675 2.29-.675 3.217 0 1.75.974 4.208 2.175 5.483.5.5 42.3 45.4 54.8 95.8C21.4 113 0 158.4 0 208c0 114.9 114.6 208 256 208zm-40.6-310.6l96.3 96.3-54 54-96.3-96.3-5.4-48.2c-.033-.3-.059-.787-.059-1.09 0-5.612 4.557-10.169 10.17-10.169.302 0 .789.026 1.089.059zm150.7 150.7c3.27 3.27 5.925 9.676 5.925 14.3 0 4.625-2.654 11.031-5.925 14.3l-25.4 25.4c-3.269 3.27-9.675 5.925-14.3 5.925-4.624 0-11.03-2.654-14.3-5.925l-31.8-31.8 54-54z"/><glyph glyph-name="comment-exclamation-secondary" unicode="􏒯" d="M256 416c141.4 0 256-93.1 256-208S397.4 0 256 0h-.36c-30.513 0-78.467 8.691-107.04 19.4C124-.2 74.3-32 8-32h-.08C5.046-32 1.81-29.85.7-27.2c-.373.848-.675 2.29-.675 3.217 0 1.75.974 4.208 2.175 5.483.5.5 42.3 45.4 54.8 95.8C21.4 113 0 158.4 0 208c0 114.9 114.6 208 256 208zm0-336c17.664 0 32 14.336 32 32s-14.336 32-32 32-32-14.336-32-32 14.336-32 32-32zm38.2 238.4c.044.44.08 1.157.08 1.6 0 8.82-7.16 15.989-15.98 16h-44.6c-8.817-.047-15.975-7.243-15.975-16.06 0-.427.034-1.116.075-1.54l12.8-128c.797-7.94 7.921-14.39 15.9-14.4h19c7.978.01 15.102 6.46 15.9 14.4z"/><glyph glyph-name="comment-lines-secondary" unicode="􏒰" d="M256 416c141.4 0 256-93.1 256-208S397.4 0 256 0h-.36c-30.513 0-78.467 8.691-107.04 19.4C124-.2 74.3-32 8-32h-.08C5.046-32 1.81-29.85.7-27.2c-.373.848-.675 2.29-.675 3.217 0 1.75.974 4.208 2.175 5.483.5.5 42.3 45.4 54.8 95.8C21.4 113 0 158.4 0 208c0 114.9 114.6 208 256 208zm32-264v16c0 4.416-3.584 8-8 8H136c-4.416 0-8-3.584-8-8v-16c0-4.416 3.584-8 8-8h144c4.416 0 8 3.584 8 8zm96 96v16c0 4.416-3.584 8-8 8H136c-4.416 0-8-3.584-8-8v-16c0-4.416 3.584-8 8-8h240c4.416 0 8 3.584 8 8z"/><glyph glyph-name="comment-minus-secondary" unicode="􏒱" d="M256 416c141.4 0 256-93.1 256-208S397.4 0 256 0h-.36c-30.513 0-78.467 8.691-107.04 19.4C124-.2 74.3-32 8-32h-.08C5.046-32 1.81-29.85.7-27.2c-.373.848-.675 2.29-.675 3.217 0 1.75.974 4.208 2.175 5.483.5.5 42.3 45.4 54.8 95.8C21.4 113 0 158.4 0 208c0 114.9 114.6 208 256 208zm112-216v16c0 8.832-7.168 16-16 16H160c-8.832 0-16-7.168-16-16v-16c0-8.832 7.168-16 16-16h192c8.832 0 16 7.168 16 16z"/><glyph glyph-name="comment-plus-secondary" unicode="􏒲" d="M256 416c141.4 0 256-93.1 256-208S397.4 0 256 0h-.36c-30.513 0-78.467 8.691-107.04 19.4C124-.2 74.3-32 8-32h-.08C5.046-32 1.81-29.85.7-27.2c-.373.848-.675 2.29-.675 3.217 0 1.75.974 4.208 2.175 5.483.5.5 42.3 45.4 54.8 95.8C21.4 113 0 158.4 0 208c0 114.9 114.6 208 256 208zm112-216v16c0 8.832-7.168 16-16 16h-72v72c0 8.832-7.168 16-16 16h-16c-8.832 0-16-7.168-16-16v-72h-72c-8.832 0-16-7.168-16-16v-16c0-8.832 7.168-16 16-16h72v-72c0-8.832 7.168-16 16-16h16c8.832 0 16 7.168 16 16v72h72c8.832 0 16 7.168 16 16z"/><glyph glyph-name="comment-slash-secondary" unicode="􏒳" horiz-adv-x="640" d="M150.21 363.65C195.39 396.21 254.84 416 320 416c141.4 0 256-93.1 256-208 0-49.23-21-94.46-56.23-130.08zM64 208c.074 15.194 4.048 39.22 8.87 53.63L398.4 10C377.113 4.48 341.99 0 320 0h-.36c-30.513 0-78.467 8.69-107.04 19.4C188-.2 138.3-32 72-32a8.003 8.003 0 0 0-7.99 8c0 1.759.98 4.223 2.19 5.5.5.6 42.2 45.5 54.8 95.8C85.4 113 64 158.4 64 208z"/><glyph glyph-name="comment-smile-secondary" unicode="􏒴" d="M256 416c141.4 0 256-93.1 256-208S397.4 0 256 0h-.36c-30.513 0-78.467 8.691-107.04 19.4C124-.2 74.3-32 8-32h-.08C5.046-32 1.81-29.85.7-27.2c-.373.848-.675 2.29-.675 3.217 0 1.75.974 4.208 2.175 5.483.5.5 42.3 45.4 54.8 95.8C21.4 113 0 158.4 0 208c0 114.9 114.6 208 256 208zm64-133.2c-14.794 0-26.8-12.006-26.8-26.8s12.006-26.8 26.8-26.8 26.8 12.006 26.8 26.8-12.006 26.8-26.8 26.8zm-128 0c-14.794 0-26.8-12.006-26.8-26.8s12.006-26.8 26.8-26.8 26.8 12.006 26.8 26.8-12.006 26.8-26.8 26.8zm164.2-140.9c2.055 2.467 3.723 7.074 3.723 10.285 0 8.871-7.2 16.07-16.07 16.07-4.055 0-9.5-2.489-12.153-5.555-16.55-19.156-50.528-34.703-75.844-34.703-25.27 0-59.21 15.502-75.757 34.602-2.647 3.59-8.416 6.503-12.876 6.503-8.832 0-16-7.168-16-16 0-3.607 2.05-8.627 4.577-11.202C177.652 116.563 222.542 96 256 96s78.347 20.563 100.2 45.9z"/><glyph glyph-name="comment-times-secondary" unicode="􏒵" d="M256 416c141.4 0 256-93.1 256-208S397.4 0 256 0h-.36c-30.513 0-78.467 8.691-107.04 19.4C124-.2 74.3-32 8-32h-.08C5.046-32 1.81-29.85.7-27.2c-.373.848-.675 2.29-.675 3.217 0 1.75.974 4.208 2.175 5.483.5.5 42.3 45.4 54.8 95.8C21.4 113 0 158.4 0 208c0 114.9 114.6 208 256 208zm84.9-281.5c2.565 2.59 4.647 7.653 4.647 11.3s-2.082 8.709-4.647 11.3l-51 50.9 50.9 50.9c2.565 2.591 4.648 7.654 4.648 11.3s-2.083 8.71-4.649 11.3l-11.3 11.3c-2.59 2.565-7.653 4.648-11.3 4.648s-8.708-2.083-11.299-4.648L256 241.9l-50.9 50.9c-2.592 2.565-7.654 4.648-11.3 4.648s-8.71-2.083-11.3-4.648l-11.3-11.3c-2.566-2.59-4.649-7.653-4.649-11.3s2.083-8.709 4.649-11.3l50.9-50.9-50.9-50.9c-2.566-2.591-4.649-7.654-4.649-11.3s2.083-8.71 4.649-11.3l11.3-11.3c2.59-2.565 7.653-4.648 11.3-4.648s8.708 2.083 11.3 4.648l50.9 50.9 51-50.9c2.59-2.565 7.653-4.648 11.3-4.648s8.708 2.083 11.3 4.648z"/><glyph glyph-name="comments-alt-secondary" unicode="􏒶" horiz-adv-x="576" d="M352 160.1H162.3L79.5 98c-1.425-1.062-4.022-1.924-5.8-1.924-5.354 0-9.7 4.345-9.7 9.7V160c-35.295.034-63.967 28.706-64 64v160c.033 35.295 28.705 63.967 64 64h288c35.295-.033 63.967-28.705 64-64V224c-.006-35.272-28.636-63.9-63.91-63.9H352z"/><glyph glyph-name="container-storage-secondary" unicode="􏒷" horiz-adv-x="640" d="M16 352h608V32H16v320zm96-288v256H80V64h32zm112 0v256h-32V64h32zm112 0v256h-32V64h32zm112 0v256h-32V64h32zm112 0v256h-32V64h32z"/><glyph glyph-name="couch-secondary" unicode="􏒸" horiz-adv-x="640" d="M96 288H64c0 52.992 43.008 96 96 96h320c52.992 0 96-43.008 96-96h-32c-35.295-.033-63.967-28.705-64-64v-64H160v64c-.033 35.295-28.705 63.967-64 64z"/><glyph glyph-name="donate-secondary" unicode="􏒹" d="M256 32C141.1 32 48 125.1 48 240s93.1 208 208 208 208-93.1 208-208S370.9 32 256 32zm-22.2 318.6c-32.7-.9-59-28.4-59.1-62.4 0-27.7 18-52.4 43.7-60.1l62.3-18.7c7.1-2.1 12.1-9.4 12.1-17.6 0-10.1-7.3-18.3-16.3-18.3h-39.1c-5.266 0-13.15 2.285-17.599 5.1-4.5 2.8-10.2 2.7-14-1l-16.3-15.5c-1.878-1.822-3.402-5.427-3.402-8.044 0-3.144 2.061-7.202 4.602-9.056 10.582-7.841 29.846-14.74 43-15.4v-17.04c0-9.14 7.42-16.56 16.56-16.56h11.179c9.141 0 16.56 7.42 16.56 16.56v16.84c32.7.9 59.1 28.4 59.1 62.4 0 27.7-18 52.4-43.7 60.1l-62.3 18.7c-7.1 2.1-12.1 9.4-12.1 17.6 0 10.1 7.3 18.3 16.3 18.3h38.9l.202.001c5.265 0 13.15-2.285 17.598-5.1 4.5-2.801 10.2-2.7 14 1l16.3 15.5c1.879 1.822 3.403 5.427 3.403 8.044 0 3.144-2.062 7.202-4.603 9.055-10.581 7.842-29.846 14.742-43 15.4v17.04c0 9.141-7.418 16.56-16.56 16.56h-11.18c-9.141 0-16.56-7.419-16.56-16.56V350.6z"/><glyph glyph-name="dove-secondary" unicode="􏒺" d="M233.92 434.15c5.937-38.438 30.164-94.528 54.08-125.2v-28.1c-42.952 8.794-101.55 42.439-130.8 75.1 9.02 26.404 30.928 65.156 48.9 86.5 8.82 10.5 25.72 5.2 27.82-8.3z"/><glyph glyph-name="fragile-secondary" unicode="􏒻" horiz-adv-x="288" d="M192.21 448l30.6-63.7-85.5-56 49.4-104.3-121.5 119.7 85.5 56-32.8 48.3h74.3z"/><glyph glyph-name="hand-heart-secondary" unicode="􏒼" horiz-adv-x="448" d="M416 336c17.614-.05 31.95-14.386 32-32V127.9c-.165-11.825-2.45-30.775-5.1-42.3L416.4-27.1c-4.784-20.425-25.69-37-46.668-37H172.1c-13.486.024-30.868 8.894-38.8 19.8L7.7 128.4C3.468 134.21.034 144.761.034 151.95c0 22.088 17.926 40.013 40.014 40.013 11.241 0 25.734-7.375 32.35-16.463L96 143v241c0 17.664 14.336 32 32 32s32-14.336 32-32V232c0-4.416 3.584-8 8-8h16c4.416 0 8 3.584 8 8v184c0 17.664 14.336 32 32 32s32-14.336 32-32V232c0-4.416 3.584-8 8-8h16c4.416 0 8 3.584 8 8v152c0 17.664 14.336 32 32 32s32-14.336 32-32V232c0-4.416 3.584-8 8-8h16c4.416 0 8 3.584 8 8v72c.05 17.614 14.386 31.95 32 32zM353.1 74.8c8.228 8.061 14.876 23.953 14.876 35.472 0 13.148-8.322 30.498-18.575 38.728-20.6 16.7-51.2 13.7-70-4.8l-7.4-7.3-7.401 7.3c-18.9 18.5-49.5 21.5-70 4.8-10.282-8.219-18.627-25.572-18.627-38.736 0-11.523 6.688-27.41 14.928-35.464l72.6-71.4c1.96-1.904 5.767-3.449 8.5-3.449s6.54 1.545 8.5 3.45z"/><glyph glyph-name="hand-holding-secondary" unicode="􏒽" horiz-adv-x="576" d="M564 71L412.8-50c-9.68-7.728-27.59-14-39.977-14H16C7.168-64 0-56.832 0-48v96c0 8.832 7.168 16 16 16h55.4l46.5 37.7c17.88 14.507 51.076 26.29 74.1 26.3h160.059c17.664 0 32-14.336 32-32 0-1.501-.205-3.92-.46-5.4C381 74.9 366.2 64 350.3 64H272c-8.832 0-16-7.168-16-16s7.168-16 16-16h118.466c12.353 0 30.198 6.271 39.834 14l92.4 73.9c12.4 10 30.8 10.7 42.6 0 5.919-5.27 10.724-15.977 10.724-23.902 0-8.495-5.387-19.694-12.024-24.998z"/><glyph glyph-name="hand-holding-heart-secondary" unicode="􏒾" horiz-adv-x="576" d="M564 71L412.8-50c-9.68-7.728-27.59-14-39.977-14H16C7.168-64 0-56.832 0-48v96c0 8.832 7.168 16 16 16h55.4l46.5 37.7c17.88 14.507 51.076 26.29 74.1 26.3h160.059c17.664 0 32-14.336 32-32 0-1.501-.205-3.92-.46-5.4C381 74.9 366.2 64 350.3 64H272c-8.832 0-16-7.168-16-16s7.168-16 16-16h118.466c12.353 0 30.198 6.271 39.834 14l92.4 73.9c12.4 10 30.8 10.7 42.6 0 5.919-5.27 10.724-15.977 10.724-23.902 0-8.495-5.387-19.694-12.024-24.998z"/><glyph glyph-name="hand-holding-seedling-secondary" unicode="􏒿" horiz-adv-x="576" d="M564 71L412.8-50c-9.68-7.728-27.59-14-39.977-14H16C7.168-64 0-56.832 0-48v96c0 8.832 7.168 16 16 16h55.4l46.5 37.7c17.88 14.507 51.076 26.29 74.1 26.3h160.059c17.664 0 32-14.336 32-32 0-1.501-.205-3.92-.46-5.4C381 74.9 366.2 64 350.3 64H272c-8.832 0-16-7.168-16-16s7.168-16 16-16h118.466c12.353 0 30.198 6.271 39.834 14l92.4 73.9c12.4 10 30.8 10.7 42.6 0 5.919-5.27 10.724-15.977 10.724-23.902 0-8.495-5.387-19.694-12.024-24.998z"/><glyph glyph-name="hand-holding-usd-secondary" unicode="􏓀" horiz-adv-x="576" d="M564 71L412.8-50c-9.68-7.728-27.59-14-39.977-14H16C7.195-63.973.027-56.805 0-48v96c0 8.832 7.168 16 16 16h55.4l46.5 37.71c17.88 14.504 51.077 26.282 74.1 26.29h160.059c17.664 0 32-14.336 32-32 0-1.501-.205-3.92-.46-5.4C381 74.9 366.2 64 350.3 64H272c-8.832 0-16-7.168-16-16s7.168-16 16-16h118.466c12.353 0 30.198 6.271 39.834 14l92.4 73.9c12.4 10 30.8 10.7 42.6 0 5.919-5.27 10.724-15.977 10.724-23.902 0-8.495-5.387-19.694-12.024-24.998z"/><glyph glyph-name="hand-holding-water-secondary" unicode="􏓁" horiz-adv-x="576" d="M564 71L412.8-50c-9.68-7.728-27.59-14-39.977-14H16C7.195-63.973.027-56.805 0-48v96c0 8.832 7.168 16 16 16h55.4l46.5 37.71c17.88 14.504 51.077 26.282 74.1 26.29h160.059c17.664 0 32-14.336 32-32 0-1.501-.205-3.92-.46-5.4C381 74.9 366.2 64 350.3 64H272c-8.832 0-16-7.168-16-16s7.168-16 16-16h118.466c12.353 0 30.198 6.271 39.834 14l92.4 73.9c12.4 10 30.8 10.7 42.6 0 5.919-5.27 10.724-15.977 10.724-23.902 0-8.495-5.387-19.694-12.024-24.998z"/><glyph glyph-name="hands-secondary" unicode="􏓂" horiz-adv-x="640" d="M204.8 217.6l57.6-76.8c14.12-18.846 25.589-53.252 25.6-76.8V-48c0-8.832-7.168-16-16-16H140.133c-6.632 0-13.41 5.197-15.133 11.6-1.637 6.58-6.296 16.302-10.4 21.7L10.5 103.6C4.704 110.86 0 124.292 0 133.58V352c0 17.664 14.336 32 32 32s32-14.336 32-32V203.6l89.8-107.8c2.634-3.212 8.142-5.818 12.296-5.818 3.663 0 8.727 2.113 11.304 4.719l12.8 12.8c2.588 2.586 4.689 7.656 4.689 11.315 0 2.938-1.429 7.232-3.189 9.585l-38.1 50.8c-3.533 4.71-6.4 13.311-6.4 19.2 0 17.664 14.336 32 32 32 8.832 0 20.301-5.735 25.6-12.801zM608 384c17.664 0 32-14.336 32-32V133.58c0-9.289-4.704-22.72-10.5-29.98L525.4-30.7c-4.104-5.398-8.763-15.12-10.4-21.7-1.752-6.404-8.563-11.6-15.202-11.6H368c-8.832 0-16 7.168-16 16V64c.012 23.548 11.481 57.954 25.6 76.8l57.6 76.8c5.299 7.066 16.768 12.8 25.6 12.8 17.664 0 32-14.335 32-32 0-5.888-2.868-14.49-6.4-19.2l-38.1-50.8c-1.76-2.352-3.189-6.646-3.189-9.584 0-3.66 2.1-8.729 4.689-11.316l12.8-12.8c2.59-2.562 7.65-4.641 11.293-4.641 4.136 0 9.65 2.572 12.307 5.741L576 203.6V352c0 17.664 14.336 32 32 32z"/><glyph glyph-name="hands-heart-secondary" unicode="􏓃" horiz-adv-x="640" d="M608 384c17.664 0 32-14.336 32-32V133.58c0-9.289-4.704-22.72-10.5-29.98L525.4-30.7c-4.104-5.398-8.763-15.12-10.4-21.7-1.752-6.404-8.563-11.6-15.202-11.6H368c-8.832 0-16 7.168-16 16V64c.012 23.548 11.481 57.954 25.6 76.8l57.6 76.8c5.299 7.066 16.768 12.8 25.6 12.8 17.664 0 32-14.335 32-32 0-5.888-2.868-14.49-6.4-19.2l-38.1-50.8c-1.76-2.352-3.189-6.646-3.189-9.584 0-3.66 2.1-8.729 4.689-11.316l12.8-12.8c2.59-2.562 7.65-4.641 11.293-4.641 4.136 0 9.65 2.572 12.307 5.741L576 203.6V352c0 17.664 14.336 32 32 32zM204.8 217.58l57.6-76.78c14.12-18.846 25.589-53.252 25.6-76.8V-48c0-8.832-7.168-16-16-16H140.3l-.167-.001c-6.632 0-13.41 5.197-15.133 11.6-1.637 6.58-6.296 16.302-10.4 21.7L10.5 103.6C4.704 110.86 0 124.292 0 133.58V352c0 17.664 14.336 32 32 32s32-14.336 32-32V203.58l89.8-107.8c2.634-3.212 8.142-5.82 12.296-5.82 3.663 0 8.727 2.115 11.304 4.72l12.8 12.8c2.588 2.587 4.689 7.656 4.689 11.315 0 2.938-1.429 7.232-3.189 9.584l-38.1 50.8c-3.533 4.711-6.4 13.313-6.4 19.2 0 17.664 14.336 32 32 32 8.832 0 20.301-5.734 25.6-12.8z"/><glyph glyph-name="hands-helping-secondary" unicode="􏓄" horiz-adv-x="640" d="M224 200v126.43c0 9.75 6.72 21.842 15 26.99l33.5 20.9c8.597 5.33 23.784 9.667 33.9 9.68h102.21L512 443.72c4.1 2.367 11.269 4.289 16.002 4.289 10.203 0 22.62-7.172 27.718-16.01l80-138.6c2.365-4.098 4.285-11.264 4.285-15.995 0-10.193-7.16-22.604-15.985-27.704l-80-46.2V232c0 30.911-25.088 56-56 56H304v-88c0-22.08-17.92-40-40-40s-40 17.92-40 40z"/><glyph glyph-name="hands-usd-secondary" unicode="􏓅" horiz-adv-x="640" d="M608 384c17.664 0 32-14.336 32-32V133.58c0-9.289-4.704-22.72-10.5-29.98L525.4-30.7c-4.104-5.398-8.763-15.12-10.4-21.7-1.752-6.404-8.563-11.6-15.202-11.6H368c-8.832 0-16 7.168-16 16V64c.012 23.548 11.481 57.954 25.6 76.8l57.6 76.8c5.299 7.066 16.768 12.8 25.6 12.8 17.664 0 32-14.335 32-32 0-5.888-2.868-14.49-6.4-19.2l-38.1-50.8c-1.76-2.352-3.189-6.646-3.189-9.584 0-3.66 2.1-8.729 4.689-11.316l12.8-12.8c2.59-2.562 7.65-4.641 11.293-4.641 4.136 0 9.65 2.572 12.307 5.741L576 203.6V352c0 17.664 14.336 32 32 32zM204.8 217.6l57.6-76.8c14.12-18.846 25.589-53.252 25.6-76.8V-48c0-8.832-7.168-16-16-16H140.133c-6.632 0-13.41 5.197-15.133 11.6-1.637 6.58-6.296 16.302-10.4 21.7L10.5 103.6C4.704 110.86 0 124.292 0 133.58V352c0 17.664 14.336 32 32 32s32-14.336 32-32V203.6l89.8-107.8c2.634-3.212 8.142-5.818 12.296-5.818 3.663 0 8.727 2.113 11.304 4.719l12.8 12.8c2.588 2.586 4.689 7.656 4.689 11.315 0 2.938-1.429 7.232-3.189 9.585l-38.1 50.8c-3.533 4.71-6.4 13.311-6.4 19.2 0 17.664 14.336 32 32 32 8.832 0 20.301-5.735 25.6-12.801z"/><glyph glyph-name="handshake-alt-secondary" unicode="􏓆" horiz-adv-x="640" d="M640 304.1V112.3c0-8.832-7.168-16-16-16h-97.6c-2.262 12.725-12.208 29.704-22.2 37.9L358.6 252.4l26.1 23.9c2.73 2.61 4.944 7.79 4.944 11.566 0 8.832-7.168 16-16 16-3.322 0-8.046-1.777-10.545-3.966l-27-24.7-53-48.5c-.1-.1-.3-.1-.4-.2-21.1-18.9-46.5-7.8-56.1 2.7-5.823 6.297-10.549 18.37-10.549 26.946 0 9.54 5.667 22.555 12.65 29.054.1.1.2.3.3.4l98.3 90c5.061 4.634 14.738 8.398 21.6 8.4h85.9c7.314-.007 17.438-4.218 22.6-9.4L512 320h112c8.777 0 15.945-7.123 16-15.9z"/><glyph glyph-name="heart-circle-secondary" unicode="􏓇" d="M256 440c137 0 248-111 248-248S393-56 256-56 8 55 8 192s111 248 248 248zm123.5-272.3c32.2 33.2 30.3 88.2-5.5 118.8-31.3 26.7-77.9 21.9-106.6-7.7l-11.3-11.6-11.3 11.6c-28.7 29.6-75.3 34.4-106.6 7.7-35.901-30.6-37.8-85.6-5.7-118.8L243 53.5c2.916-3.064 8.718-5.552 12.95-5.552 4.23 0 10.032 2.488 12.95 5.552z"/><glyph glyph-name="heart-square-secondary" unicode="􏓈" horiz-adv-x="448" d="M400 416c26.496 0 48-21.504 48-48V16c0-26.496-21.504-48-48-48H48C21.504-32 0-10.496 0 16v352c0 26.496 21.504 48 48 48h352zm-52.5-248.3c32.2 33.2 30.3 88.2-5.5 118.8-31.3 26.7-77.9 21.9-106.6-7.7l-11.3-11.6-11.3 11.6c-28.7 29.6-75.3 34.4-106.6 7.7-35.901-30.6-37.8-85.6-5.7-118.8L211 53.5c2.916-3.064 8.718-5.552 12.95-5.552 4.23 0 10.032 2.488 12.95 5.552z"/><glyph glyph-name="leaf-heart-secondary" unicode="􏓋" horiz-adv-x="576" d="M546.2 438.28c19-42.4 29.8-94.39 29.8-144.59 0-172.381-110.51-313.171-267.55-324.57-5.63-.6-14.79-1.102-20.45-1.12v.54h-.3c-60.758 0-134.92 42.592-165.54 95.07C71.44 8.06 47.35-48.37 47.11-48.94c-3.447-8.314-13.549-15.061-22.549-15.061-2.749 0-7.032.874-9.561 1.95C6.722-58.505.005-48.32.005-39.316c0 2.747.862 7.033 1.924 9.567C3-27.15 29.17 34.58 85.78 96.68a448.684 448.684 0 0 0 16 16.73C98.59 126.12 96 147.07 96 160.174v.106C96 266.17 181.86 352 287.75 352H368c63.38 0 118.89 33.58 149.89 87.48 6.7 11.8 22.71 11.3 28.31-1.2zm-115.65-284.7c9.606 9.76 17.403 28.798 17.403 42.493 0 15.71-9.812 36.598-21.903 46.627-23.9 20-59.6 16.4-81.6-5.8l-8.6-8.7-8.6 8.7c-22 22.2-57.6 25.8-81.6 5.8-12.005-10.037-21.75-30.883-21.75-46.531 0-13.724 7.818-32.794 17.45-42.57L326.05 68c2.258-2.277 6.693-4.126 9.9-4.126s7.642 1.849 9.9 4.126z"/><glyph glyph-name="loveseat-secondary" unicode="􏓌" d="M160 160v64c-.033 35.295-28.705 63.967-64 64H64c0 52.992 43.008 96 96 96h192c52.992 0 96-43.008 96-96h-32c-35.295-.033-63.967-28.705-64-64v-64H160z"/><glyph glyph-name="parachute-box-secondary" unicode="􏓍" d="M487.1 256L350.3 104.1c.7-2.7 1.6-5.2 1.6-8.1V-32c0-17.664-14.335-32-32-32h-128c-17.664 0-32 14.336-32 32V96c0 2.9.9 5.5 1.6 8.1L24.8 256h43.1l116.6-129.5c2.5.6 4.8 1.5 7.5 1.5h48v128h32V128h48c2.701 0 5-.9 7.5-1.5L444.1 256h43z"/><glyph glyph-name="people-carry-secondary" unicode="􏓎" horiz-adv-x="640" d="M512 448c26.496 0 48-21.504 48-48s-21.504-48-48-48-48 21.504-48 48 21.504 48 48 48zm-384 0c26.496 0 48-21.504 48-48s-21.504-48-48-48-48 21.504-48 48 21.504 48 48 48zm272-128c8.668 0 15.838-7.033 16-15.7V132.39c-4.65-2.47-11.33-3.93-16-4.3H240c-4.67.37-11.37 1.83-16 4.32V304c0 8.832 7.168 16 16 16h160z"/><glyph glyph-name="person-carry-secondary" unicode="􏓏" horiz-adv-x="384" d="M80 448c26.496 0 48-21.504 48-48s-21.504-48-48-48-48 21.504-48 48 21.504 48 48 48zm288-96c8.832 0 16-7.168 16-16V176c0-8.832-7.168-16-16-16H192v176c0 8.832 7.168 16 16 16h160z"/><glyph glyph-name="person-dolly-secondary" unicode="􏓐" d="M511.74 43.19a9.6 9.6 0 0 0 .26-2.024c0-3.42-2.688-6.89-6-7.746L351.89-7.86c-3.79-30.973-32.193-56.11-63.397-56.11-35.257 0-63.87 28.612-63.87 63.868 0 18.367 12.216 41.816 27.267 52.342l-58.9 220a9.615 9.615 0 0 0-.262 2.031c0 3.409 2.675 6.875 5.972 7.739l30.9 8.3a9.568 9.568 0 0 0 2.031.262c3.408 0 6.875-2.676 7.74-5.973L298.77 63c14.026-2.192 32.35-13.168 40.9-24.5l154.1 41.3a9.633 9.633 0 0 0 2.032.263c3.408 0 6.874-2.676 7.739-5.973zM288.73-16c8.831 0 16 7.168 16 16s-7.169 16-16 16c-8.832 0-16-7.168-16-16s7.168-16 16-16zM80 448c26.496-.027 48-21.554 48-48.05 0-26.523-21.526-48.05-48.05-48.05S31.9 373.427 31.9 399.95c0 26.496 21.504 48.023 48 48.05h.1z"/><glyph glyph-name="person-dolly-empty-secondary" unicode="􏓑" d="M80 448c26.496-.027 48-21.554 48-48.05 0-26.523-21.526-48.05-48.05-48.05S31.9 373.427 31.9 399.95c0 26.496 21.504 48.023 48 48.05h.1zM511.74 43.18c.142-.547.258-1.45.258-2.015 0-3.419-2.688-6.89-5.998-7.745L351.89-7.89C348.1-38.863 319.697-64 288.493-64c-35.257 0-63.87 28.613-63.87 63.87 0 18.366 12.216 41.816 27.267 52.34l-58.9 220a9.624 9.624 0 0 0-.262 2.032c0 3.408 2.675 6.875 5.972 7.74l30.9 8.3a9.659 9.659 0 0 0 2.034.262c3.403 0 6.869-2.672 7.736-5.963l59.4-221.6c14.024-2.196 32.347-13.172 40.9-24.5l154.1 41.3a9.659 9.659 0 0 0 2.034.263c3.404 0 6.87-2.672 7.737-5.963zM288.73-16c8.831 0 16 7.168 16 16s-7.169 16-16 16c-8.832 0-16-7.168-16-16s7.168-16 16-16z"/><glyph glyph-name="phone-plus-secondary" unicode="􏓒" d="M144 432v-64h64c8.832 0 16-7.168 16-16v-32c0-8.832-7.168-16-16-16h-64v-64c0-8.832-7.168-16-16-16H96c-8.832 0-16 7.168-16 16v64H16c-8.832 0-16 7.168-16 16v32c0 8.832 7.168 16 16 16h64v64c0 8.832 7.168 16 16 16h32c8.832 0 16-7.168 16-16z"/><glyph glyph-name="piggy-bank-secondary" unicode="􏓓" horiz-adv-x="576" d="M208.58 345.8c-.1 2.1-.6 4.1-.6 6.2 0 52.992 43.008 96 96 96s96-43.008 96-96c0-.3-.1-.5-.1-.8-5.2.4-10.5.8-15.9.8H256c-13.304-.052-34.548-2.829-47.42-6.2zM56 192h43.37c-1.849-8.735-3.358-23.071-3.37-32H56c-30.916.04-56.007 25.164-56.007 56.08 0 2.024.214 5.294.477 7.3C4.1 251.6 29.5 272 58 272c3.312 0 6-2.688 6-6v-20c0-3.312-2.688-6-6-6h-1c-11.66 0-22.32-7.82-24.54-19.22-.266-1.306-.48-3.447-.48-4.78 0-13.248 10.752-24 24-24H56z"/><glyph glyph-name="ramp-loading-secondary" unicode="􏓔" horiz-adv-x="384" d="M355.4 64.7L321 133.5a15.576 15.576 0 0 1-1 1.5v249H64V135c-.3-.5-.7-.9-1-1.5L28.6 64.7C12.6 66.5 0 79.5 0 96v320c0 17.664 14.335 32 32 32h320c17.664 0 32-14.336 32-32V96c0-16.4-12.6-29.5-28.6-31.3z"/><glyph glyph-name="ribbon-secondary" unicode="􏓖" horiz-adv-x="448" d="M6 3.71l117.2 130 79.2-87.9-91.8-101.9c-3.966-4.354-11.965-7.888-17.855-7.888-4.054 0-10.077 1.83-13.445 4.089L10.54-32C4.707-28.078-.027-19.19-.027-12.16-.027-7.15 2.673-.039 6 3.71z"/><glyph glyph-name="seedling-secondary" unicode="􏓘" d="M512 416c0-115.9-88-211.1-200.7-222.8-8.964 33.71-35.395 81.916-59 107.6C290.6 369.5 363.8 416 448 416h64z"/><glyph glyph-name="sign-secondary" unicode="􏓙" d="M0 368c0 8.832 7.168 16 16 16h48v48c0 8.832 7.168 16 16 16h32c8.832 0 16-7.168 16-16v-48h368c8.832 0 16-7.168 16-16v-32c0-8.832-7.168-16-16-16H128V-48c0-8.832-7.168-16-16-16H80c-8.832 0-16 7.168-16 16v368H16c-8.832 0-16 7.168-16 16v32z"/><glyph glyph-name="tape-secondary" unicode="􏓛" horiz-adv-x="640" d="M624 32c8.832 0 16-7.168 16-16v-32c0-8.832-7.168-16-16-16H224C100.3-32 0 68.3 0 192s100.3 224 224 224 224-100.3 224-224v-.06c0-51.982-30.195-123.636-67.4-159.94H624zM224 96c52.992 0 96 43.008 96 96s-43.008 96-96 96-96-43.008-96-96 43.008-96 96-96z"/><glyph glyph-name="truck-container-secondary" unicode="􏓜" horiz-adv-x="640" d="M40.58 64h110.84c4.736-8.2 8.58-22.54 8.58-32.01 0-35.328-28.672-64-64-64s-64 28.672-64 64c0 9.47 3.844 23.81 8.58 32.01zm144 0h110.84c4.736-8.2 8.58-22.54 8.58-32.01 0-35.328-28.672-64-64-64s-64 28.672-64 64c0 9.47 3.844 23.81 8.58 32.01zM528 80c30.912 0 56-25.088 56-56s-25.088-56-56-56-56 25.088-56 56 25.088 56 56 56zM304 192v176h32V192h-32zm-48 176V192h-32v176h32zm-80 0V192h-32v176h32zm-80 0V192H64v176h32z"/><glyph glyph-name="truck-couch-secondary" unicode="􏓝" horiz-adv-x="640" d="M21.4 212.9c-2.143-.65-5.547-1.904-7.6-2.8-9.7 36.5 12.3 70.3 45.1 79.1l154.6 41.4c32.8 8.8 68.8-9.4 78.7-46.3-2.7-.4-5.4-.4-8-1.1-35.7-9.5-57.6-44.5-52.2-80.2l-125.1-33.5c-11.8 30-45.9 54-85.5 43.4zm271 39.5c2.608.642 6.907 1.162 9.594 1.162 5.248 0 13.314-1.91 18.006-4.263v-122L24.1 48 1.4 133c-.752 2.808-1.362 7.445-1.362 10.35 0 22.087 17.926 40.012 40.012 40.012 16.95 0 34.265-13.288 38.65-29.661l6.2-23.2 185.4 49.7-6.2 23.2c-.745 2.796-1.35 7.414-1.35 10.309 0 16.949 13.284 34.283 29.65 38.691zM544 128c52.992 0 96-43.008 96-96s-43.008-96-96-96-96 43.008-96 96 43.008 96 96 96z"/><glyph glyph-name="truck-loading-secondary" unicode="􏓞" horiz-adv-x="640" d="M247.8 324.2l49.7-185.5c.302-1.125.547-2.983.547-4.148 0-6.772-5.308-13.695-11.847-15.453l-216.4-58c-1.125-.301-2.983-.546-4.148-.546-6.772 0-13.693 5.307-15.451 11.847L.6 257.9c-.303 1.125-.548 2.984-.548 4.149 0 6.771 5.308 13.693 11.848 15.45L89.2 298.2l24.8-92.7 61.8 16.5-24.8 92.7 77.2 20.8c1.125.302 2.983.547 4.148.547 6.772 0 13.694-5.308 15.451-11.847zM544 128c52.992 0 96-43.008 96-96s-43.008-96-96-96-96 43.008-96 96 43.008 96 96 96z"/><glyph glyph-name="truck-moving-secondary" unicode="􏓟" horiz-adv-x="640" d="M224 96c35.328 0 64-28.672 64-64s-28.672-64-64-64-64 28.672-64 64 28.672 64 64 64zM64 96c35.328 0 64-28.672 64-64S99.328-32 64-32 0-3.328 0 32s28.672 64 64 64zm464 0c35.328 0 64-28.672 64-64s-28.672-64-64-64-64 28.672-64 64 28.672 64 64 64z"/><glyph glyph-name="truck-ramp-secondary" unicode="􏓠" horiz-adv-x="640" d="M544 128c52.992 0 96-43.008 96-96s-43.008-96-96-96-96 43.008-96 96 43.008 96 96 96z"/><glyph glyph-name="video-plus-secondary" unicode="􏓡" horiz-adv-x="576" d="M525.6 346.2c21.3 14.7 50.4-.3 50.4-25.7V63.6c0-25.5-29.1-40.4-50.4-25.8L416 113.3v157.4zM288 216c8.832 0 16-7.168 16-16v-16c0-8.832-7.168-16-16-16h-72V96c0-8.832-7.168-16-16-16h-16c-8.832 0-16 7.168-16 16v72H96c-8.832 0-16 7.168-16 16v16c0 8.832 7.168 16 16 16h72v72c0 8.832 7.168 16 16 16h16c8.832 0 16-7.168 16-16v-72h72z"/><glyph glyph-name="video-slash-secondary" unicode="􏓢" horiz-adv-x="640" d="M448 133.51V270.7l109.6 75.6c21.3 14.6 50.4-.4 50.4-25.8V63.6c0-17.39-13.59-29.84-29-31.38zm-32 24.74L123.91 384H368.2c26.386 0 47.8-21.414 47.8-47.8V158.25zM32 47.83v245.5L397.77 10.5C390.618 4.736 377.357.033 368.17 0H79.77C53.402.017 32 21.43 32 47.8v.03z"/></font>
</defs>
</svg>
