<svg xmlns="http://www.w3.org/2000/svg"><defs><font id="FontAwesome5Duotone-Solid" horiz-adv-x="640"><font-face font-family="Font Awesome 5 Duotone Solid" font-weight="900" units-per-em="512" panose-1="2 0 5 3 0 0 0 0 0 0" ascent="448" descent="-64" bbox="-0.998047 -64.3203 640.077 448.228" underline-thickness="25" underline-position="-51" unicode-range="U+0020-10F89B"/><glyph glyph-name="times-primary" unicode="" horiz-adv-x="384" d="M358.79 91.93c5.083-5.086 9.209-15.05 9.209-22.24 0-7.191-4.126-17.154-9.209-22.24l-22.24-22.24c-5.086-5.083-15.049-9.209-22.24-9.209-7.19 0-17.154 4.126-22.24 9.209L25.21 292.07c-5.083 5.086-9.209 15.049-9.209 22.24 0 7.19 4.126 17.154 9.21 22.24l22.24 22.24c5.085 5.083 15.048 9.209 22.24 9.209 7.19 0 17.153-4.126 22.239-9.21z"/><glyph glyph-name="search-minus-primary" unicode="" horiz-adv-x="512" d="M292 268c6.624 0 12-5.376 12-12v-32c0-6.624-5.376-12-12-12H124c-6.624 0-12 5.376-12 12v32c0 6.624 5.376 12 12 12h168zM505 5.3c3.844-3.889 6.964-11.482 6.964-16.95 0-5.513-3.165-13.152-7.064-17.05L476.6-57c-3.869-3.892-11.462-7.05-16.95-7.05-5.488 0-13.082 3.158-16.95 7.05L343 42.7c-3.864 3.877-7 11.467-7 16.942V76l36 36h16.358c5.475 0 13.065-3.136 16.942-7z"/><glyph glyph-name="plus-primary" unicode="" horiz-adv-x="448" d="M448 208v-32c0-17.664-14.336-32-32-32H32c-17.664 0-32 14.336-32 32v32c0 17.664 14.336 32 32 32h384c17.664 0 32-14.336 32-32z"/><glyph glyph-name="plane-primary" unicode="" horiz-adv-x="576" d="M480 128H112L68.8 70.4C66.15 66.867 60.416 64 56 64H16C7.175 64.007.013 71.175.013 80c0 1.087.214 2.825.477 3.88L32 192 .49 300.12c-.263 1.055-.477 2.793-.477 3.88 0 8.825 7.162 15.993 15.987 16h40c4.416 0 10.15-2.867 12.8-6.4L112 256h368c35.35 0 96-28.65 96-64s-60.65-64-96-64z"/><glyph glyph-name="wrench-primary" unicode="" horiz-adv-x="512" d="M469.69 201.8c-40-40-97.48-51-147.721-34.27l-.26-.26c-37.365 12.76-77.869 53.5-90.41 90.94l.13.13c-16.54 50.17-5.6 107.71 34.13 147.4 23.342 23.331 69.07 42.267 102.07 42.267 9.76 0 25.368-1.912 34.84-4.267 5.088-1.213 9.217-6.442 9.217-11.673 0-2.759-1.59-6.574-3.547-8.517l-74.53-74.48 11.33-68L413 269.72l74.53 74.52c1.945 1.965 5.766 3.56 8.53 3.56 5.169 0 10.382-4.068 11.64-9.08 2.377-9.502 4.307-25.162 4.307-34.957 0-32.989-18.958-78.669-42.317-101.964z"/><glyph glyph-name="money-bill-primary" unicode="" d="M616 384c13.248 0 24-10.752 24-24V24c0-13.248-10.752-24-24-24H24C10.752 0 0 10.752 0 24v336c0 13.248 10.752 24 24 24h592zm-24-282.78v181.561c-19.902 9.475-43.745 33.317-53.22 53.22H101.22c-9.475-19.903-33.318-43.745-53.22-53.22V101.22C67.902 91.745 91.745 67.903 101.22 48h437.56c9.475 19.903 33.318 43.745 53.22 53.22z"/><glyph glyph-name="sitemap-primary" unicode="" d="M128 96c17.664 0 32-14.336 32-32v-96c0-17.664-14.336-32-32-32H32C14.336-64 0-49.664 0-32v96c0 17.664 14.336 32 32 32h96zm256 352c17.664 0 32-14.336 32-32v-96c0-17.664-14.336-32-32-32H256c-17.664 0-32 14.336-32 32v96c0 17.664 14.336 32 32 32h128zM608 96c17.664 0 32-14.336 32-32v-96c0-17.664-14.336-32-32-32h-96c-17.664 0-32 14.336-32 32v96c0 17.664 14.336 32 32 32h96zm-240 0c17.664 0 32-14.336 32-32v-96c0-17.664-14.336-32-32-32h-96c-17.664 0-32 14.336-32 32v96c0 17.664 14.336 32 32 32h96z"/><glyph glyph-name="microphone-primary" unicode="" horiz-adv-x="352" d="M352 192c0-88.9-66.29-162.47-152-174.23V-16h56c8.832 0 16-7.167 16-16v-16c0-8.832-7.168-16-16-16H96c-8.832 0-16 7.168-16 16v16c0 8.833 7.168 16 16 16h56v34.15C64 30.29 0 110.2 0 199.84V240c0 8.832 7.168 16 16 16h16c8.832 0 16-7.168 16-16v-42.3c0-66.81 48.71-126.59 115.21-133.08 3.48-.344 9.143-.625 12.64-.625 70.659 0 128.07 57.346 128.15 128.005v48c0 8.832 7.168 16 16 16h16c8.832 0 16-7.168 16-16v-48z"/><glyph glyph-name="microphone-slash-primary" unicode="" d="M2.37 416.55L22 441.82c2.652 3.416 8.313 6.188 12.638 6.188 3.034 0 7.438-1.514 9.832-3.378L632.82-10.099c3.414-2.652 6.184-8.312 6.184-12.636 0-3.027-1.507-7.423-3.364-9.814L616-57.82c-2.652-3.413-8.311-6.183-12.633-6.183-3.032 0-7.434 1.512-9.826 3.373L5.18 394.1c-3.41 2.652-6.178 8.31-6.178 12.63 0 3.03 1.509 7.428 3.368 9.82z"/><glyph glyph-name="balance-scale-primary" unicode="" d="M256 112c0-44.18-57.31-80-128-80S0 67.82 0 112c0 15.67-2.06 7.25 85.13 181.51 17.68 35.36 68.22 35.29 85.87 0 86.34-172.779 85-165.33 85-181.51zM128 272L56 128h144zm512-160c0-44.18-57.31-80-128-80s-128 35.82-128 80c0 15.67-2.06 7.25 85.08 181.51 17.68 35.36 68.22 35.29 85.87 0C641.34 120.731 640 128.18 640 112zm-200 16h144l-72 144z"/><glyph glyph-name="microphone-alt-primary" unicode="" horiz-adv-x="352" d="M186.67 320c-5.89 0-10.67 3.58-10.67 8v16c0 4.42 4.78 8 10.67 8H272v-32h-85.33zm0-64c-5.89 0-10.67 3.58-10.67 8v16c0 4.42 4.78 8 10.67 8H272v-32h-85.33zM336 256c8.832 0 16-7.168 16-16v-48c0-88.9-66.29-162.47-152-174.23V-16h56c8.832 0 16-7.167 16-16v-16c0-8.832-7.168-16-16-16H96c-8.832 0-16 7.168-16 16v16c0 8.833 7.168 16 16 16h56v34.15C64 30.29 0 110.2 0 199.84V240c0 8.832 7.168 16 16 16h16c8.832 0 16-7.168 16-16v-42.3c0-66.81 48.71-126.59 115.21-133.08 3.48-.344 9.143-.625 12.64-.625 70.659 0 128.07 57.346 128.15 128.005v48c0 8.832 7.168 16 16 16h16zm-149.33-64c-5.89 0-10.67 3.58-10.67 8v16c0 4.42 4.78 8 10.67 8H272v-32h-85.33z"/><glyph glyph-name="money-bill-alt-primary" unicode="" d="M616 384c13.248 0 24-10.752 24-24V24c0-13.248-10.752-24-24-24H24C10.752 0 0 10.752 0 24v336c0 13.248 10.752 24 24 24h592zm-24-282.78v181.561c-19.902 9.475-43.745 33.317-53.22 53.22H101.22c-9.475-19.903-33.318-43.745-53.22-53.22V101.22C67.902 91.745 91.745 67.903 101.22 48h437.56c9.475 19.903 33.318 43.745 53.22 53.22zM352 160c4.416 0 8-3.584 8-8v-16c0-4.416-3.584-8-8-8h-64c-4.416 0-8 3.584-8 8v16c0 4.416 3.584 8 8 8h15.99v55.48l-.47-.31c-1.11-.738-3.094-1.337-4.427-1.337-2.362 0-5.342 1.594-6.653 3.557l-8.88 13.31c-.738 1.11-1.336 3.094-1.336 4.427 0 2.361 1.592 5.342 3.556 6.653L301.11 252c3.328 2.208 9.272 4 13.267 4H328c4.416 0 8-3.584 8-8v-88h16z"/><glyph glyph-name="balance-scale-left-primary" unicode="" d="M640 144c0-44.18-57.31-80-128-80s-128 35.82-128 80c0 15.67-2.06 7.25 85.08 181.51 17.68 35.36 68.22 35.29 85.87 0C641.34 152.731 640 160.18 640 144zm-200 16h144l-72 144zm-269.07 37.51C257.32 24.731 256 32.18 256 16c0-44.18-57.31-80-128-80S0-28.18 0 16c0 15.67-2.06 7.25 85.06 181.51 17.68 35.36 68.22 35.29 85.87 0zM56 32h144l-72 144z"/><glyph glyph-name="balance-scale-right-primary" unicode="" d="M0 144c0 16.18-1.32 8.73 85.13 181.51 17.65 35.29 68.19 35.36 85.87 0 87.08-174.26 85-165.84 85-181.51 0-44.18-57.31-80-128-80S0 99.82 0 144zm56 16h144l-72 144zM384 16c0 16.18-1.32 8.73 85.08 181.51 17.65 35.29 68.19 35.36 85.87 0C642.08 23.25 640 31.67 640 16c0-44.18-57.31-80-128-80S384-28.18 384 16zm56 16h144l-72 144z"/><glyph glyph-name="blender-primary" unicode="" horiz-adv-x="512" d="M416 64c35.328 0 64-28.672 64-64v-32c0-17.664-14.336-32-32-32H128c-17.664 0-32 14.336-32 32V0c0 35.328 28.672 64 64 64h256zM288-32c17.664 0 32 14.336 32 32s-14.336 32-32 32-32-14.336-32-32 14.336-32 32-32zm40 288c-4.416 0-8 3.584-8 8v16c0 4.416 3.584 8 8 8h140.36l-8.72-32H328zm0-96c-4.416 0-8 3.584-8 8v16c0 4.416 3.584 8 8 8h114.18l-8.72-32H328zm0 224h166.54l-8.73-32H328c-4.416 0-8 3.584-8 8v16c0 4.416 3.584 8 8 8z"/><glyph glyph-name="broadcast-tower-primary" unicode="" d="M503.26-29.53c.677-1.628 1.227-4.38 1.227-6.143 0-5.896-4.42-12.516-9.867-14.777l-29.51-12.31c-1.628-.678-4.381-1.227-6.144-1.227-5.885 0-12.499 4.407-14.766 9.837L395 64H245L195.77-54.15c-2.266-5.43-8.881-9.837-14.765-9.837-1.764 0-4.516.55-6.144 1.227L145.35-50.45c-5.432 2.265-9.84 8.882-9.84 14.766 0 1.767.55 4.524 1.23 6.154l130.5 313.41c-6.205 9.036-11.24 25.265-11.24 36.226 0 35.328 28.672 64 64 64s64-28.672 64-64c0-10.96-5.035-27.19-11.24-36.226zM271.62 128h96.76L320 244.19z"/><glyph glyph-name="broom-primary" unicode="" d="M93.17 190.29c59.97 47.71 163.3 40.94 163.3 40.94L343.2 122S326.6 19.71 266.63-28.07C206.66-75.849 0-62.19 0-62.19S3.8-39.05 11-6.759l94.65 112.17c.779.925 1.41 2.656 1.41 3.865 0 3.312-2.687 6-6 6-.586 0-1.51-.164-2.06-.365l-60.43-22.09c14.43 41.66 32.72 80.04 54.6 97.47zm342.42-16.48c1.316-1.657 2.384-4.72 2.384-6.838 0-4.922-3.908-9.743-8.724-10.762l-58.8-12.45-86.73 109.181 25.33 54.55c1.632 3.515 6.102 6.367 9.977 6.367 2.931 0 6.79-1.862 8.613-4.157z"/><glyph glyph-name="chalkboard-primary" unicode="" d="M544 384V0h-64v64H288V0H96v384h448z"/><glyph glyph-name="chalkboard-teacher-primary" unicode="" d="M208 96c61.824 0 112.002-50.176 112.002-112l-.002-.62C319.86-42.88 298.27-64 272-64H48C21.73-64 .14-42.88 0-16.62l-.002.62c0 61.824 50.176 112 112 112h.083c1.97 0 5.093-.488 6.969-1.09 10.999-3.708 29.344-6.804 40.95-6.91 11.604.106 29.944 3.202 40.94 6.91 1.88.602 5.005 1.09 6.978 1.09H208zm-48 32c-52.992 0-96 43.008-96 96s43.008 96 96 96 96-43.008 96-96-43.008-96-96-96zm64 256h352V96h-64v64H384V96h-85.49c-14.24 11.532-40.287 24.242-58.14 28.37 2.929 2.378 7.472 6.473 10.14 9.14 20.69 20.694 37.48 61.238 37.48 90.5s-16.79 69.806-37.48 90.5c-6.58 6.587-18.457 15.726-26.51 20.4V384z"/><glyph glyph-name="church-primary" unicode="" d="M480 173.88V-64h-96v96c0 35.328-28.672 64-64 64s-64-28.672-64-64v-96h-96v237.88c.001 10.002 6.963 22.295 15.54 27.44L288 268.8V320h-48c-8.832 0-16 7.168-16 16v32c0 8.832 7.168 16 16 16h48v48c0 8.832 7.168 16 16 16h32c8.832 0 16-7.168 16-16v-48h48c8.832 0 16-7.168 16-16v-32c0-8.832-7.168-16-16-16h-48v-51.2l112.46-67.48c8.577-5.145 15.54-17.438 15.54-27.44z"/><glyph glyph-name="coins-primary" unicode="" horiz-adv-x="512" d="M192 128C86 128 0 163.8 0 208s86 80 192 80 192-35.8 192-80-86-80-192-80zM0 42.7C41.3 13.6 116.8 0 192 0s150.7 13.6 192 42.7V0c0-35.3-86-64-192-64S0-35.3 0 0v42.7zm0 104.9C41.3 113.6 116.9 96 192 96s150.7 17.6 192 51.6V96c0-35.3-86-64-192-64S0 60.7 0 96v51.6z"/><glyph glyph-name="compact-disc-primary" unicode="" horiz-adv-x="512" d="M256 440c137 0 248-111 248-248S393-56 256-56 8 55 8 192s111 248 248 248zM96 192c0 88.2 71.8 160 160 160v32c-105.9 0-192-86.1-192-192h32zm160-96c52.992 0 96 43.008 96 96s-43.008 96-96 96-96-43.008-96-96 43.008-96 96-96z"/><glyph glyph-name="crow-primary" unicode="" d="M464 448c44.16 0 80-35.84 80-80V256c0-106-86-192-192-192H165.27L43.731 3.23C40.218 1.48 34.182.06 30.258.06 13.577.06.038 13.6.038 30.28c0 8.326 5.4 19.145 12.052 24.15L384 347v21c0 44.16 35.84 80 80 80zm0-104c13.248 0 24 10.752 24 24s-10.752 24-24 24-24-10.752-24-24 10.752-24 24-24z"/><glyph glyph-name="crown-primary" unicode="" d="M640 272c0-26.496-21.504-48-48-48-2.143.053-5.593.411-7.7.8L512 32H128L55.7 224.8c-2.107-.389-5.557-.747-7.7-.8l-.258-.001c-26.694 0-48.36 21.666-48.36 48.36s21.666 48.36 48.36 48.36 48.36-21.665 48.36-48.36c0-5.829-1.972-14.86-4.402-20.159l72.3-43.4c4.185-2.5 11.538-4.53 16.413-4.53 10.253 0 22.702 7.226 27.787 16.13L289.7 363c-9.77 7.953-17.7 24.63-17.7 37.228 0 26.496 21.504 48 48 48s48-21.504 48-48c0-12.598-7.93-29.275-17.7-37.228l81.5-142.6c5.085-8.904 17.534-16.13 27.787-16.13 4.875 0 12.228 2.03 16.413 4.53l72.4 43.4c-2.422 5.197-4.393 14.067-4.4 19.8 0 26.496 21.504 48 48 48s48-21.504 48-48z"/><glyph glyph-name="dice-primary" unicode="" d="M592 256c26.496 0 48-21.504 48-48V-16c0-26.496-21.504-48-48-48H368c-26.496 0-48 21.504-48 48v46.42l136.26 136.26c13.044 13.097 23.63 38.726 23.63 57.21 0 9.24-2.97 23.626-6.63 32.11H592zM480 72c13.248 0 24 10.752 24 24s-10.752 24-24 24-24-10.752-24-24 10.752-24 24-24zM96 248c13.248 0 24-10.752 24-24s-10.752-24-24-24-24 10.752-24 24 10.752 24 24 24zm256-48c-13.248 0-24 10.752-24 24s10.752 24 24 24 24-10.752 24-24-10.752-24-24-24zm-128-80c13.248 0 24-10.752 24-24s-10.752-24-24-24-24 10.752-24 24 10.752 24 24 24zm0 256c13.248 0 24-10.752 24-24s-10.752-24-24-24-24 10.752-24 24 10.752 24 24 24zm0-128c13.248 0 24-10.752 24-24s-10.752-24-24-24-24 10.752-24 24 10.752 24 24 24z"/><glyph glyph-name="dice-five-primary" unicode="" horiz-adv-x="448" d="M320 256c-17.664 0-32 14.336-32 32s14.336 32 32 32 32-14.336 32-32-14.336-32-32-32zm0-128c17.664 0 32-14.336 32-32s-14.336-32-32-32-32 14.336-32 32 14.336 32 32 32zm-96 96c17.664 0 32-14.336 32-32s-14.336-32-32-32-32 14.336-32 32 14.336 32 32 32zm-96 96c17.664 0 32-14.336 32-32s-14.336-32-32-32-32 14.336-32 32 14.336 32 32 32zm0-192c17.664 0 32-14.336 32-32s-14.336-32-32-32-32 14.336-32 32 14.336 32 32 32z"/><glyph glyph-name="dice-four-primary" unicode="" horiz-adv-x="448" d="M128 128c17.664 0 32-14.336 32-32s-14.336-32-32-32-32 14.336-32 32 14.336 32 32 32zm0 192c17.664 0 32-14.336 32-32s-14.336-32-32-32-32 14.336-32 32 14.336 32 32 32zm192-192c17.664 0 32-14.336 32-32s-14.336-32-32-32-32 14.336-32 32 14.336 32 32 32zm0 128c-17.664 0-32 14.336-32 32s14.336 32 32 32 32-14.336 32-32-14.336-32-32-32z"/><glyph glyph-name="dice-one-primary" unicode="" horiz-adv-x="448" d="M256 192c0-17.664-14.336-32-32-32s-32 14.336-32 32 14.336 32 32 32 32-14.336 32-32z"/><glyph glyph-name="dice-six-primary" unicode="" horiz-adv-x="448" d="M320 256c-17.664 0-32 14.336-32 32s14.336 32 32 32 32-14.336 32-32-14.336-32-32-32zm0-32c17.664 0 32-14.336 32-32s-14.336-32-32-32-32 14.336-32 32 14.336 32 32 32zm0-96c17.664 0 32-14.336 32-32s-14.336-32-32-32-32 14.336-32 32 14.336 32 32 32zM128 320c17.664 0 32-14.336 32-32s-14.336-32-32-32-32 14.336-32 32 14.336 32 32 32zm0-96c17.664 0 32-14.336 32-32s-14.336-32-32-32-32 14.336-32 32 14.336 32 32 32zm0-96c17.664 0 32-14.336 32-32s-14.336-32-32-32-32 14.336-32 32 14.336 32 32 32z"/><glyph glyph-name="dice-three-primary" unicode="" horiz-adv-x="448" d="M320 128c17.664 0 32-14.336 32-32s-14.336-32-32-32-32 14.336-32 32 14.336 32 32 32zm-96 96c17.664 0 32-14.336 32-32s-14.336-32-32-32-32 14.336-32 32 14.336 32 32 32zm-96 96c17.664 0 32-14.336 32-32s-14.336-32-32-32-32 14.336-32 32 14.336 32 32 32z"/><glyph glyph-name="dice-two-primary" unicode="" horiz-adv-x="448" d="M128 320c17.664 0 32-14.336 32-32s-14.336-32-32-32-32 14.336-32 32 14.336 32 32 32zm192-192c17.664 0 32-14.336 32-32s-14.336-32-32-32-32 14.336-32 32 14.336 32 32 32z"/><glyph glyph-name="divide-primary" unicode="" horiz-adv-x="448" d="M0 208c0 17.664 14.336 32 32 32h384c17.664 0 32-14.336 32-32v-32c0-17.664-14.336-32-32-32H32c-17.664 0-32 14.336-32 32v32z"/><glyph glyph-name="door-closed-primary" unicode="" d="M464 448c26.47 0 48-22.78 48-50.8V0H128v397.2c0 28.02 21.53 50.8 48 50.8h288zm-48-288c17.664 0 32 14.336 32 32s-14.336 32-32 32-32-14.336-32-32 14.336-32 32-32z"/><glyph glyph-name="door-open-primary" unicode="" d="M312.24 447c20.2 5.23 39.76-10.6 39.76-32.18V0H96v365.08c0 15.22 10 28.48 24.24 32.18zM264 160c13.25 0 24 14.33 24 32s-10.75 32-24 32-24-14.33-24-32 10.75-32 24-32z"/><glyph glyph-name="equals-primary" unicode="" horiz-adv-x="448" d="M448 304v-32c0-17.664-14.336-32-32-32H32c-17.664 0-32 14.336-32 32v32c0 17.664 14.336 32 32 32h384c17.664 0 32-14.336 32-32z"/><glyph glyph-name="frog-primary" unicode="" horiz-adv-x="576" d="M368 416c44.16 0 80-35.84 80-80s-35.84-80-80-80-80 35.84-80 80 35.84 80 80 80zm0-48c-17.664 0-32-14.336-32-32h64c0 17.664-14.336 32-32 32z"/><glyph glyph-name="gas-pump-primary" unicode="" horiz-adv-x="512" d="M256 448c35.295-.033 63.967-28.705 64-64V32H32v352c.033 35.295 28.705 63.967 64 64h160zm0-192v128H96V256h160z"/><glyph glyph-name="glasses-primary" unicode="" horiz-adv-x="576" d="M574.1 167.62c1.049-4.214 1.9-11.158 1.9-15.5V81.87C576 19 524.42-32 460.8-32h-37.12c-60.279 0-110.37 45.93-114.87 105.37L305.88 112h-35.75l-2.93-38.63C262.692 13.94 212.6-32 152.32-32H115.2C51.58-32 0 19 0 81.88v70.25c.002 4.34.852 11.28 1.901 15.49l45.34 181.73c9.18 36.795 47.41 66.657 85.334 66.657 7.89 0 20.37-2.028 27.856-4.527l15.25-5.08c6.037-2.015 10.935-8.814 10.935-15.178 0-1.427-.365-3.687-.815-5.043L180.74 371c-2.009-6.047-8.812-10.955-15.185-10.955-1.428 0-3.689.365-5.045.816l-13.17 4.39c-10.87 3.62-22.99 3.57-33.15-1.73-8.878-4.556-18.008-16.12-20.38-25.81l-38.46-153.8c21.898 6.802 58.28 12.384 81.21 12.46 34.78 0 73.99-7.01 114.86-26.75h73.18c40.85 19.74 80.08 26.74 114.851 26.74 22.927-.076 59.305-5.659 81.2-12.46l-38.46 153.819c-2.372 9.691-11.497 21.258-20.37 25.82-10.16 5.3-22.29 5.35-33.16 1.73l-13.18-4.39c-1.358-.451-3.62-.819-5.052-.819-6.365 0-13.165 4.9-15.178 10.939l-5.06 15.15c-.454 1.36-.822 3.627-.822 5.06 0 6.367 4.902 13.167 10.941 15.18l15.25 5.08c7.487 2.5 19.97 4.53 27.862 4.53 37.927 0 76.155-29.868 85.329-66.67zM203.38 78.2l3.13 41.22c-18.644 7.123-49.972 12.911-69.93 12.92-20.646-.114-53.162-5.903-72.58-12.92V81.88C64 54.37 87 32 115.2 31.99h37.12c26.66 0 49.06 20.3 51.06 46.21zM460.8 32C489 32 512 54.36 512 81.87v37.54c-19.41 7.022-51.918 12.819-72.56 12.94-19.963-.008-51.301-5.796-69.95-12.92l3.13-41.22C374.58 52.3 397.01 32 423.68 32h37.12z"/><glyph glyph-name="greater-than-primary" unicode="" horiz-adv-x="384"/><glyph glyph-name="greater-than-equal-primary" unicode="" horiz-adv-x="448" d="M55.34 204.17l175.44 68.05-175.561 68.09c-18.29 6-27.74 24.26-21.1 40.79L46.15 411c6.64 16.55 26.85 25.08 45.15 19.08L393 310.1c13.77-4.52 23-16.61 23-30.17v-16c0-13.56-9.21-25.65-23-30.17L91.609 113.941c-18.39-6-38.7 2.54-45.38 19.15l-12.09 30.08c-6.68 16.61 2.86 34.97 21.2 41z"/><glyph glyph-name="helicopter-primary" unicode="" d="M384 320c123.71 0 224-100.29 224-224 0-17.664-14.336-32-32-32H304c-8.832 0-20.3 5.734-25.6 12.8L192 192 32 256 .49 364.12c-.263 1.054-.477 2.793-.477 3.88 0 8.825 7.162 15.993 15.987 16h40c4.416 0 10.15-2.868 12.8-6.4L112 320h272zm32-192h124.79C528 190.56 478.55 239.7 416 252.49V128z"/><glyph glyph-name="kiwi-bird-primary" unicode="" horiz-adv-x="576" d="M464 336c61.824 0 112.001-50.176 112.001-112s-50.176-112-112-112h-16c-54.42-.1-106-19.33-151.67-49.06-2.72-1.77-5.5-3.44-8.33-5.05v-.2C263.492 43.51 220.62 32 192.305 32H192C86 32 0 118 0 224s86 192 192 192h.304c28.315 0 71.187-11.509 95.696-25.69v-.13a181.677 181.677 0 0 0 12.519-7.94c36.8-25.466 102.988-46.181 147.74-46.24H464zm.001-136c13.248 0 24 10.752 24 24s-10.752 24-24 24-24-10.752-24-24 10.752-24 24-24z"/><glyph glyph-name="less-than-primary" unicode="" horiz-adv-x="384"/><glyph glyph-name="less-than-equal-primary" unicode="" horiz-adv-x="448" d="M392.77 340.31l-175.56-68.09 175.44-68.05c18.39-6 27.89-24.39 21.21-41l-12.09-30.08c-6.67-16.61-27-25.18-45.38-19.15L55 233.81c-13.79 4.52-23 16.61-23 30.19v16c0 13.57 9.21 25.66 23 30.18l301.71 120c18.29 6 38.51-2.53 45.15-19.06l12-29.92c6.65-16.62-2.801-34.89-21.091-40.89z"/><glyph glyph-name="memory-primary" unicode="" d="M224 320V192h-64v128h64zm128 0V192h-64v128h64zm128 0V192h-64v128h64zM0 96h640V0h-64v26.67c0 8.832-7.168 16-16 16s-16-7.168-16-16V0H416v26.67c0 8.832-7.168 16-16 16s-16-7.168-16-16V0H256v26.67c0 8.832-7.168 16-16 16s-16-7.168-16-16V0H96v26.67c0 8.832-7.168 16-16 16s-16-7.168-16-16V0H0v96z"/><glyph glyph-name="microphone-alt-slash-primary" unicode="" d="M3.37 416.55L23 441.82c2.652 3.416 8.313 6.188 12.638 6.188 3.034 0 7.438-1.514 9.832-3.378L633.82-10.099c3.414-2.652 6.184-8.312 6.184-12.636 0-3.027-1.507-7.423-3.364-9.814L617-57.82c-2.652-3.413-8.311-6.183-12.633-6.183-3.032 0-7.434 1.512-9.826 3.373L6.18 394.1c-3.41 2.652-6.178 8.31-6.178 12.63 0 3.03 1.509 7.428 3.368 9.82z"/><glyph glyph-name="money-bill-wave-primary" unicode="" d="M621.16 393.54c11.61-4.87 18.84-16.83 18.84-29.47V46.82C640 28.33 625 15 607.76 15c-2.926.007-7.563.737-10.35 1.63-30.89 9.8-61.76 13.72-92.65 13.72C381.59 30.35 258.42-32 135.25-32c-38.8 0-77.62 6.19-116.41 22.47C7.23-4.67 0 7.3 0 19.93v317.26C0 355.68 15 369 32.25 369c2.926-.004 7.562-.73 10.35-1.62 30.89-9.8 61.76-13.72 92.65-13.72 123.16 0 246.31 62.34 369.5 62.34 38.8 0 77.62-6.19 116.41-22.46zM308.23 45.71c63.4 16.05 128.96 32.64 196.52 32.62h.47c11.168 0 29.244-.95 40.35-2.12 9.572 14.988 30.372 33.356 46.43 41v197.58c-19.245 9.154-42.622 32.042-52.18 51.09-9.515 1.17-25.02 2.12-34.607 2.12h-.493c-55.6 0-112.61-14.43-172.96-29.69-63.39-16.05-128.95-32.64-196.51-32.64h-.473c-11.169 0-29.249.95-40.357 2.12-9.57-14.987-30.365-33.355-46.42-41V69.21c19.234-9.16 42.598-32.048 52.15-51.09 9.516-1.17 25.02-2.12 34.607-2.12h.493c55.6 0 112.62 14.43 172.98 29.71z"/><glyph glyph-name="money-bill-wave-alt-primary" unicode="" d="M621.16 393.54c11.61-4.87 18.84-16.83 18.84-29.47V46.82C640 28.33 625 15 607.76 15c-2.926.009-7.563.74-10.35 1.63-30.89 9.8-61.76 13.72-92.65 13.72C381.59 30.35 258.42-32 135.25-32c-38.8 0-77.62 6.19-116.41 22.47C7.23-4.67 0 7.3 0 19.93v317.26C0 355.68 15 369 32.25 369c2.927-.002 7.563-.727 10.35-1.62 30.89-9.8 61.76-13.72 92.65-13.72 123.16 0 246.31 62.34 369.5 62.34 38.8 0 77.62-6.19 116.41-22.46zM320 96c44.17 0 80 43 80 96s-35.82 96-80 96-80-43-80-96 35.81-96 80-96z"/><glyph glyph-name="money-check-primary" unicode="" d="M568 96c4.416 0 8-3.584 8-8V72c0-4.416-3.584-8-8-8H456c-4.416 0-8 3.584-8 8v16c0 4.416 3.584 8 8 8h112zm-192 96c4.416 0 8-3.584 8-8v-16c0-4.416-3.584-8-8-8H72c-4.416 0-8 3.584-8 8v16c0 4.416 3.584 8 8 8h304zM248 96c4.416 0 8-3.584 8-8V72c0-4.416-3.584-8-8-8H72c-4.416 0-8 3.584-8 8v16c0 4.416 3.584 8 8 8h176zm376 320c8.832 0 16-7.168 16-16v-48H0v48c0 8.832 7.168 16 16 16h608z"/><glyph glyph-name="money-check-alt-primary" unicode="" d="M144 279.88V296c0 4.416 3.584 8 8 8h16c4.416 0 8-3.584 8-8v-16.29c9.613-.492 23.667-5.577 31.37-11.35 1.704-1.326 3.087-4.155 3.087-6.314 0-1.908-1.127-4.519-2.517-5.826L196.18 245c-1.297-1.181-3.774-2.14-5.529-2.14-1.39 0-3.45.631-4.601 1.41-3.24 2.054-8.984 3.725-12.82 3.73h-28.11c-6.5 0-11.8-5.92-11.8-13.19 0-5.95 3.61-11.19 8.77-12.73l45-13.5c18.59-5.58 31.58-23.42 31.58-43.39 0-24.53-19-44.44-42.67-45.07V104c0-4.416-3.584-8-8-8h-16c-4.416 0-8 3.584-8 8v16.29c-9.612.496-23.666 5.581-31.37 11.35-1.704 1.326-3.087 4.155-3.087 6.314 0 1.909 1.127 4.519 2.517 5.827L123.81 155c1.298 1.18 3.774 2.14 5.529 2.14 1.389 0 3.45-.632 4.602-1.41 3.24-2.051 8.984-3.722 12.819-3.73h28.11c6.5 0 11.8 5.92 11.8 13.19 0 5.949-3.61 11.19-8.77 12.73l-45 13.5c-18.59 5.58-31.58 23.419-31.58 43.389 0 24.52 19.05 44.44 42.68 45.07z"/><glyph glyph-name="not-equal-primary" unicode="" horiz-adv-x="448" d="M416 144c17.664 0 32-14.336 32-32V80c0-17.664-14.336-32-32-32H32C14.336 48 0 62.336 0 80v32c0 17.664 14.336 32 32 32h384zm0 192c17.664 0 32-14.336 32-32v-32c0-17.664-14.336-32-32-32H32c-17.664 0-32 14.336-32 32v32c0 17.664 14.336 32 32 32h384z"/><glyph glyph-name="palette-primary" unicode="" horiz-adv-x="512" d="M96 192c17.664 0 32-14.336 32-32s-14.336-32-32-32-32 14.336-32 32 14.336 32 32 32zm32 128c17.664 0 32-14.336 32-32s-14.336-32-32-32-32 14.336-32 32 14.336 32 32 32zm128 64c17.664 0 32-14.336 32-32s-14.336-32-32-32-32 14.336-32 32 14.336 32 32 32zm128-64c17.664 0 32-14.336 32-32s-14.336-32-32-32-32 14.336-32 32 14.336 32 32 32z"/><glyph glyph-name="parking-primary" unicode="" horiz-adv-x="448" d="M240 320c52.992 0 96-43.008 96-96s-43.008-96-96-96h-48V80c0-8.832-7.168-16-16-16h-32c-8.832 0-16 7.168-16 16v224c0 8.832 7.168 16 16 16h96zm0-128c17.664 0 32 14.336 32 32s-14.336 32-32 32h-48v-64h48z"/><glyph glyph-name="percentage-primary" unicode="" horiz-adv-x="384" d="M363.31 295.44L88.56 20.69c-5.173-5.173-15.309-9.37-22.625-9.37-7.315 0-17.451 4.197-22.625 9.37L20.69 43.31c-5.172 5.173-9.37 15.309-9.37 22.624 0 7.317 4.198 17.452 9.37 22.625l274.75 274.75c5.174 5.173 15.31 9.37 22.626 9.37 7.315 0 17.451-4.197 22.625-9.37l22.619-22.619c5.173-5.174 9.37-15.31 9.37-22.625 0-7.316-4.197-17.452-9.37-22.625z"/><glyph glyph-name="project-diagram-primary" unicode="" d="M384 128c17.664 0 32-14.336 32-32V-32c0-17.664-14.336-32-32-32H256c-17.664 0-32 14.336-32 32V96c0 17.664 14.336 32 32 32h128zM160 448c17.664 0 32-14.336 32-32V288c0-17.664-14.336-32-32-32H32c-17.664 0-32 14.336-32 32v128c0 17.664 14.336 32 32 32h128zm448 0c17.664 0 32-14.336 32-32V288c0-17.664-14.336-32-32-32H480c-17.664 0-32 14.336-32 32v128c0 17.664 14.336 32 32 32h128z"/><glyph glyph-name="receipt-primary" unicode="" horiz-adv-x="384" d="M312 304c4.416 0 8-3.584 8-8v-16c0-4.416-3.584-8-8-8H72c-4.416 0-8 3.584-8 8v16c0 4.416 3.584 8 8 8h240zm0-96c4.416 0 8-3.584 8-8v-16c0-4.416-3.584-8-8-8H72c-4.416 0-8 3.584-8 8v16c0 4.416 3.584 8 8 8h240zm0-96c4.416 0 8-3.584 8-8V88c0-4.416-3.584-8-8-8H72c-4.416 0-8 3.584-8 8v16c0 4.416 3.584 8 8 8h240z"/><glyph glyph-name="robot-primary" unicode="" d="M464 352c44.16 0 80-35.84 80-80V0c-.033-35.295-28.705-63.967-64-64H160c-35.295.033-63.967 28.705-64 64v272c0 44.16 35.84 80 80 80h112v64c0 17.664 14.336 32 32 32s32-14.336 32-32v-64h112zM256 32v32h-64V32h64zm-32 120c22.08 0 40 17.92 40 40s-17.92 40-40 40-40-17.92-40-40 17.92-40 40-40zM352 32v32h-64V32h64zm96 0v32h-64V32h64zm-32 120c22.08 0 40 17.92 40 40s-17.92 40-40 40-40-17.92-40-40 17.92-40 40-40z"/><glyph glyph-name="ruler-primary" unicode="" d="M112.66 200.85L172.3 99.33c.586-1.003 1.061-2.76 1.061-3.922 0-2.51-1.775-5.546-3.96-6.778l-13.802-7.8c-1.022-.589-2.81-1.066-3.99-1.066-2.536 0-5.63 1.776-6.909 3.966L85 185.13zm165.4 93.88l59.8-101.7c.586-1.004 1.061-2.76 1.061-3.922 0-2.51-1.774-5.547-3.96-6.778l-13.8-7.8c-1.024-.589-2.812-1.067-3.992-1.067-2.535 0-5.63 1.777-6.909 3.966l-59.7 101.69zm-82.69-46.93l27.89-47.37c.59-1.004 1.068-2.765 1.068-3.929 0-2.51-1.777-5.544-3.968-6.77l-13.8-7.801c-1.023-.589-2.811-1.067-3.99-1.067-2.537 0-5.632 1.778-6.91 3.967l-27.81 47.34zm308 39.23c.59-1.004 1.059-2.795 1.059-3.96 0-2.51-1.779-5.544-3.97-6.77l-13.799-7.8c-1.023-.59-2.811-1.067-3.991-1.067-2.535 0-5.631 1.777-6.91 3.967L416.06 373l27.61 15.73zm-142.5 54.7l27.89-47.43c.59-1.005 1.068-2.765 1.068-3.93 0-2.51-1.777-5.543-3.968-6.77l-13.8-7.8c-1.023-.59-2.811-1.067-3.99-1.067-2.537 0-5.632 1.777-6.91 3.967l-27.9 47.3z"/><glyph glyph-name="ruler-combined-primary" unicode="" horiz-adv-x="512" d="M96 184c0 4.416 3.584 8 8 8h56v-32h-56c-4.416 0-8 3.584-8 8v16zm0 192c0 4.416 3.584 8 8 8h56v-32h-56c-4.416 0-8 3.584-8 8v16zm0-96c0 4.416 3.584 8 8 8h56v-32h-56c-4.416 0-8 3.584-8 8v16zM416 96h32V40c0-4.416-3.584-8-8-8h-16c-4.416 0-8 3.584-8 8v56zM224 40v56h32V40c0-4.416-3.584-8-8-8h-16c-4.416 0-8 3.584-8 8zm96 0v56h32V40c0-4.416-3.584-8-8-8h-16c-4.416 0-8 3.584-8 8z"/><glyph glyph-name="ruler-horizontal-primary" unicode="" horiz-adv-x="576" d="M176 232v88h32v-88c0-4.416-3.584-8-8-8h-16c-4.416 0-8 3.584-8 8zm-96 0v88h32v-88c0-4.416-3.584-8-8-8H88c-4.416 0-8 3.584-8 8zm192 0v88h32v-88c0-4.416-3.584-8-8-8h-16c-4.416 0-8 3.584-8 8zm192 88h32v-88c0-4.416-3.584-8-8-8h-16c-4.416 0-8 3.584-8 8v88zm-96-88v88h32v-88c0-4.416-3.584-8-8-8h-16c-4.416 0-8 3.584-8 8z"/><glyph glyph-name="ruler-vertical-primary" unicode="" horiz-adv-x="256" d="M160 152c0 4.416 3.584 8 8 8h88v-32h-88c-4.416 0-8 3.584-8 8v16zm0-96c0 4.416 3.584 8 8 8h88V32h-88c-4.416 0-8 3.584-8 8v16zm0 192c0 4.416 3.584 8 8 8h88v-32h-88c-4.416 0-8 3.584-8 8v16zm8 104h88v-32h-88c-4.416 0-8 3.584-8 8v16c0 4.416 3.584 8 8 8z"/><glyph glyph-name="school-primary" unicode="" d="M497.75 336c7.866-5.244 14.25-17.172 14.25-26.626V-64H384V80c0 8.832-7.168 16-16 16h-96c-8.832 0-16-7.168-16-16V-64H128v373.374c0 9.454 6.384 21.382 14.25 26.626l160 106.63c4.45 2.967 12.402 5.374 17.75 5.374s13.3-2.407 17.75-5.374zM320 192c44.16 0 80 35.84 80 80s-35.84 80-80 80-80-35.84-80-80 35.84-80 80-80z"/><glyph glyph-name="screwdriver-primary" unicode="" horiz-adv-x="512" d="M63.61-53.08L10.91-.38C4.886 5.646-.003 17.454-.003 25.975S4.886 46.304 10.91 52.33L128 169.41c11.977 11.643 35.254 21.092 51.957 21.092 41.146 0 74.54-33.394 74.54-74.54 0-16.706-9.451-39.985-21.096-51.962L116.32-53.08C110.295-59.108 98.489-64 89.965-64c-8.522 0-20.33 4.892-26.354 10.92z"/><glyph glyph-name="shoe-prints-primary" unicode="" d="M128 352c0 35.328 28.672 64 64 64h32V288h-32c-35.328 0-64 28.672-64 64zm363.42 88.81C600.9 417.3 640 365.22 640 320c0-64-84.18-96-174.54-96-34.91 0-76.16 13.12-104.729 32-24.79 16.38-44.53 32-104.73 32v128l57.53 16.01c26.21 7.23 53.01 13.07 80.31 15 32.69 2.32 65.58.67 97.58-6.2z"/><glyph glyph-name="skull-primary" unicode="" horiz-adv-x="512" d="M160 256c35.295-.033 63.967-28.705 64-64 0-35.328-28.672-64-64-64s-64 28.672-64 64 28.672 64 64 64zm192 0c35.295-.033 63.967-28.705 64-64 0-35.328-28.672-64-64-64s-64 28.672-64 64 28.672 64 64 64z"/><glyph glyph-name="smoking-ban-primary" unicode="" horiz-adv-x="512" d="M256 448c141.4 0 256-114.6 256-256S397.4-64 256-64 0 50.6 0 192s114.6 256 256 256zm0-448c33.825 0 83.607 15.993 111.1 35.7L99.701 303.1c-19.707-27.493-35.7-77.258-35.7-111.083V192C64 86.1 150.1 0 256 0zm156.3 80.9c19.707 27.493 35.7 77.257 35.7 111.082V192c0 105.9-86.1 192-192 192h-.017c-33.826 0-83.59-15.993-111.082-35.7z"/><glyph glyph-name="store-primary" unicode="" horiz-adv-x="624" d="M605.94 329.4c33.6-53.6 3.8-128-59-136.4-3.73-.497-9.812-.9-13.575-.9h-.125c-24.454.027-57.517 14.856-73.8 33.1-16.271-18.272-49.334-33.101-73.8-33.101-24.467 0-57.53 14.829-73.8 33.101-16.271-18.272-49.334-33.101-73.8-33.101s-57.53 14.829-73.8 33.101c-16.26-18.271-49.306-33.1-73.764-33.1h-.089c-3.783 0-9.897.403-13.647.9-62.6 8.5-92.3 82.9-58.8 136.4L82.84 433c5.19 8.276 17.33 14.997 27.1 15h404c9.755-.016 21.877-6.735 27.06-15z"/><glyph glyph-name="store-alt-primary" unicode="" d="M634.55 305.8c14.1-21.3-1.1-49.8-26.6-49.8H32.05c-25.6 0-40.8 28.5-26.6 49.8l85.3 128c5.222 7.839 17.105 14.2 26.524 14.2h405.288c9.451 0 21.408-6.361 26.688-14.2z"/><glyph glyph-name="stream-primary" unicode="" horiz-adv-x="512" d="M432 416c8.832 0 16-7.168 16-16v-64c0-8.832-7.168-16-16-16H16c-8.832 0-16 7.168-16 16v64c0 8.832 7.168 16 16 16h416zm0-352c8.832 0 16-7.168 16-16v-64c0-8.832-7.168-16-16-16H16C7.168-32 0-24.832 0-16v64c0 8.832 7.168 16 16 16h416z"/><glyph glyph-name="stroopwafel-primary" unicode="" horiz-adv-x="512" d="M442.68 163.72c1.29-1.293 2.337-3.824 2.337-5.65 0-1.812-1.033-4.33-2.307-5.62l-11.31-11.31c-1.293-1.292-3.826-2.34-5.655-2.34s-4.362 1.048-5.655 2.34l-28.29 28.29-45.25-45.25 33.94-33.94 17 17c1.294 1.292 3.827 2.341 5.655 2.341 1.829 0 4.362-1.049 5.655-2.34l11.31-11.311c1.293-1.293 2.341-3.826 2.341-5.654 0-1.83-1.048-4.363-2.34-5.656l-17-17 17-17c1.292-1.293 2.34-3.827 2.34-5.655s-1.048-4.361-2.34-5.655L408.8 28c-1.294-1.292-3.827-2.34-5.656-2.34-1.828 0-4.361 1.048-5.654 2.34l-17 17-17-17c-1.294-1.292-3.828-2.34-5.656-2.34s-4.361 1.048-5.655 2.34l-11.34 11.26c-1.292 1.294-2.34 3.827-2.34 5.655s1.048 4.362 2.34 5.656l17 17-33.94 33.94-45.26-45.26 28.29-28.29c1.293-1.294 2.342-3.827 2.342-5.656 0-1.828-1.049-4.361-2.342-5.654L295.62 5.34c-1.293-1.293-3.827-2.342-5.655-2.342s-4.361 1.05-5.655 2.341L256 33.61 227.74 5.39c-1.293-1.292-3.827-2.34-5.655-2.34s-4.361 1.048-5.655 2.34L205.12 16.7c-1.293 1.293-2.341 3.827-2.341 5.656 0 1.828 1.048 4.361 2.341 5.654l28.29 28.29-45.25 45.26-33.94-33.94 17-17c1.293-1.293 2.342-3.827 2.342-5.655s-1.05-4.361-2.342-5.655L159.91 28c-1.293-1.292-3.827-2.34-5.655-2.34s-4.361 1.048-5.655 2.34l-17 17-17-17c-1.293-1.292-3.826-2.34-5.655-2.34-1.829 0-4.362 1.048-5.655 2.34L92 39.21c-1.292 1.293-2.34 3.827-2.34 5.656s1.048 4.36 2.34 5.654l17 17-17 17c-1.292 1.294-2.34 3.827-2.34 5.655s1.048 4.362 2.34 5.655l11.26 11.34c1.294 1.292 3.827 2.342 5.655 2.342s4.362-1.05 5.656-2.342l17-17 33.939 33.94-45.25 45.25-28.29-28.29c-1.293-1.292-3.826-2.341-5.654-2.341-1.83 0-4.363 1.049-5.656 2.342L69.32 152.4c-1.292 1.293-2.341 3.826-2.341 5.654 0 1.83 1.049 4.362 2.342 5.655L97.61 192l-28.29 28.29c-1.293 1.293-2.342 3.826-2.342 5.656 0 1.828 1.049 4.36 2.342 5.654l11.31 11.31c1.292 1.292 3.826 2.341 5.655 2.341s4.36-1.049 5.655-2.34l28.369-28.321 45.25 45.26-33.94 33.94-17-17c-1.293-1.292-3.827-2.342-5.655-2.342s-4.361 1.05-5.655 2.342L92 288.1c-1.292 1.294-2.34 3.827-2.34 5.655s1.048 4.362 2.34 5.655l17 17-17 17c-1.292 1.293-2.34 3.827-2.34 5.656 0 1.828 1.048 4.36 2.34 5.654L103.2 356c1.293 1.292 3.827 2.341 5.656 2.341 1.828 0 4.361-1.049 5.654-2.34l17-17 17 17c1.294 1.291 3.827 2.34 5.655 2.34s4.362-1.049 5.656-2.34l11.34-11.25c1.291-1.294 2.34-3.828 2.34-5.656s-1.049-4.361-2.34-5.654l-17-17L188.1 282.5l45.26 45.25-28.29 28.29c-1.292 1.292-2.341 3.825-2.341 5.655 0 1.828 1.049 4.36 2.342 5.654l11.31 11.31c1.292 1.292 3.826 2.341 5.654 2.341s4.362-1.049 5.656-2.34L256 350.39l28.29 28.29c1.292 1.293 3.825 2.342 5.655 2.342 1.828 0 4.36-1.05 5.654-2.342l11.28-11.39c1.293-1.293 2.342-3.827 2.342-5.655s-1.049-4.361-2.342-5.654l-28.29-28.29 45.26-45.25 33.94 33.94-17 17c-1.292 1.292-2.341 3.826-2.341 5.654s1.05 4.362 2.341 5.656L352.1 356c1.294 1.291 3.827 2.34 5.655 2.34s4.363-1.049 5.656-2.34l17-17 17 17c1.293 1.291 3.826 2.34 5.655 2.34 1.828 0 4.361-1.049 5.654-2.34L420 344.8c1.292-1.294 2.341-3.827 2.341-5.656 0-1.828-1.049-4.362-2.34-5.654l-17-17 17-17c1.291-1.294 2.34-3.828 2.34-5.656s-1.049-4.361-2.34-5.655l-11.25-11.34c-1.294-1.292-3.828-2.34-5.656-2.34s-4.361 1.048-5.654 2.34l-17 17-33.94-33.94 45.25-45.26 28.29 28.29c1.292 1.293 3.826 2.342 5.655 2.342 1.828 0 4.361-1.05 5.654-2.342l11.31-11.31c1.292-1.293 2.341-3.827 2.341-5.655s-1.049-4.361-2.34-5.655L414.39 192zM256 305.14l-45.25-45.25L256 214.63l45.25 45.25zm-67.89-158.39L233.37 192l-45.25 45.26L142.86 192zM256 78.86l45.26 45.26L256 169.37l-45.25-45.25zm67.89 67.89L369.14 192l-45.25 45.26L278.63 192z"/><glyph glyph-name="toolbox-primary" unicode="" horiz-adv-x="512" d="M336 416c26.496 0 48-21.504 48-48v-80h-64v64H192v-64h-64v80c0 26.496 21.504 48 48 48h160zM176 160c8.832 0 16-7.168 16-16V80c0-8.832-7.168-16-16-16h-32c-8.832 0-16 7.168-16 16v64c0 8.832 7.168 16 16 16h32zm192 0c8.832 0 16-7.168 16-16V80c0-8.832-7.168-16-16-16h-32c-8.832 0-16 7.168-16 16v64c0 8.832 7.168 16 16 16h32z"/><glyph glyph-name="tshirt-primary" unicode=""/><glyph glyph-name="walking-primary" unicode="" horiz-adv-x="320" d="M73.58 62.2l20.71 51.5c8.71-11.9-7.89 6.6 47.4-53.7l-13.5-33.8c-2.713-6.728-9.07-16.36-14.19-21.5L54.58-54.7c-5.138-4.98-15.115-9.02-22.27-9.02-17.663 0-32 14.335-32 32 0 7.177 4.063 17.177 9.07 22.32l50 50.1c5.179 5.102 11.54 14.735 14.2 21.5zm228.9 140.7c9.71-4.983 17.59-17.886 17.59-28.8 0-4.129-1.469-10.49-3.28-14.2-4.783-9.748-17.476-17.658-28.333-17.658-4.13 0-10.477 1.504-14.167 3.357L251 157.4c-12.97 6.598-27.176 23.173-31.71 37l-5.5 16.5-17.19-68.7 45.5-49.7c6.048-6.604 12.723-19.014 14.9-27.7l22.19-89c.578-2.205 1.047-5.842 1.047-8.12 0-17.665-14.336-32-32-32-13.967 0-27.916 11.03-31.138 24.62l-18.31 73.3c-2.188 8.678-8.859 21.087-14.89 27.7L124 126.7c-9.272 10.153-16.797 29.554-16.797 43.305 0 4.34.85 11.282 1.897 15.495l15.19 60.7-26.79-10.8c-6.17-2.52-13.562-9.418-16.5-15.4l-6.73-13.6c-4.782-9.748-17.476-17.658-28.333-17.658-4.13 0-10.477 1.504-14.167 3.357-9.685 4.927-17.545 17.745-17.545 28.612 0 4.16 1.503 10.562 3.356 14.289l6.689 13.6c8.868 17.972 31.139 38.67 49.71 46.2 37.4 15.1 57.29 25.3 93.29 25.2 46.5-.1 87.5-31.3 102.211-75.9l9.69-29.4z"/><glyph glyph-name="wallet-primary" unicode="" horiz-adv-x="512" d="M461.2 320c28.02 0 50.8-21.53 50.8-48V16c0-26.47-22.8-48-50.8-48H64C28.672-32 0-3.328 0 32v320c0-17.664 14.336-32 32-32h429.2zM416 112c17.664 0 32 14.336 32 32s-14.336 32-32 32-32-14.336-32-32 14.336-32 32-32z"/><glyph glyph-name="times-secondary" unicode="􏀍" horiz-adv-x="384" d="M25.21 91.93L125.28 192 192 125.28 91.93 25.21c-5.086-5.083-15.05-9.209-22.24-9.209-7.191 0-17.154 4.126-22.24 9.209L25.21 47.45c-5.083 5.086-9.209 15.049-9.209 22.24 0 7.19 4.126 17.154 9.209 22.24zm333.58 244.62c5.083-5.086 9.209-15.049 9.209-22.24 0-7.19-4.126-17.154-9.209-22.24L258.72 192 192 258.72l100.07 100.07c5.086 5.083 15.05 9.21 22.24 9.21 7.191 0 17.154-4.127 22.24-9.21z"/><glyph glyph-name="search-minus-secondary" unicode="􏀐" horiz-adv-x="512" d="M208 368l-.353.001c-29.186 0-69.577-16.796-90.157-37.491C96.795 309.815 80 269.267 80 240c0-70.656 57.344-128 128-128 70.655 0 128 57.344 128 128 0 70.655-57.345 128-128 128zm0 80c114.88 0 208-93.12 208-208S322.88 32 208 32 0 125.12 0 240s93.12 208 208 208z"/><glyph glyph-name="plus-secondary" unicode="􏁧" horiz-adv-x="448" d="M176 0v144h96V0c0-17.664-14.336-32-32-32h-32c-17.664 0-32 14.336-32 32zm64 416c17.664 0 32-14.336 32-32V240h-96v144c0 17.664 14.336 32 32 32h32z"/><glyph glyph-name="plane-secondary" unicode="􏁲" horiz-adv-x="576" d="M214.86 256l-49.03 171.61c-.34 1.188-.615 3.154-.615 4.39 0 8.829 7.165 15.997 15.995 16h65.508c5.125 0 11.348-3.612 13.892-8.06L365.71 256H214.86zm-49-299.6l49 171.6h150.85L260.6-55.94c-2.543-4.448-8.766-8.06-13.89-8.06h-65.5c-8.813.02-15.966 7.187-15.966 16 0 1.24.276 3.21.617 4.401z"/><glyph glyph-name="wrench-secondary" unicode="􏂭" horiz-adv-x="512" d="M322 167.53L108.59-45.91c-10.281-9.984-30.257-18.089-44.589-18.089-35.327 0-64 28.673-64 64 0 14.332 8.105 34.308 18.089 44.589l213.351 213.32c12.584-37.31 53.038-77.916 90.3-90.64zM63.35-24.65c13.248 0 24 10.752 24 24s-10.752 24-24 24-24-10.752-24-24 10.752-24 24-24z"/><glyph glyph-name="money-bill-secondary" unicode="􏃖" d="M101.22 336h437.561c9.475-19.902 33.317-43.745 53.22-53.22V101.22c-19.903-9.475-43.745-33.318-53.22-53.22H101.22C91.745 67.902 67.903 91.745 48 101.22v181.56c19.903 9.475 43.745 33.318 53.22 53.22zM320 96c44.17 0 80 43 80 96s-35.82 96-80 96-80-43-80-96 35.81-96 80-96z"/><glyph glyph-name="sitemap-secondary" unicode="􏃨" d="M104 128H56v57.59c.022 21.18 17.23 38.387 38.41 38.41H296v64h48v-64h201.59c21.175-.027 38.383-17.235 38.41-38.41V128h-48v48H344v-48h-48v48H104v-48z"/><glyph glyph-name="microphone-secondary" unicode="􏄰" horiz-adv-x="352" d="M80 192v160c0 52.992 43.008 96 96 96s96-43.008 96-96V192c0-52.992-43.008-96-96-96s-96 43.008-96 96z"/><glyph glyph-name="microphone-slash-secondary" unicode="􏄱" d="M436.61 141.55c5.735 13.309 10.39 35.87 10.39 50.362V240c0 8.832 7.168 16 16 16h16c8.832 0 16-7.168 16-16v-48.215c0-23.464-8.754-59.418-19.54-80.255zM399-16c8.832 0 16-7.168 16-16v-16c0-8.832-7.168-16-16-16H239c-8.832 0-16 7.168-16 16v16c0 8.832 7.168 16 16 16h56.07v34.19c-88 12.14-152 92.05-152 181.69v6.85l52-40.22c12.44-53.22 55.33-96.4 111.18-101.85 6.94-.67 13.64-.2 20.35.2l50.4-39c-9.16-3.168-24.393-6.789-34-8.08V-16h56zm11.2 178L223 306.65V352c0 52.992 43.008 96 96 96s96-43.008 96-96V191.966c0-8.483-2.15-21.908-4.8-29.966z"/><glyph glyph-name="balance-scale-secondary" unicode="􏉎" d="M544-16v-32c0-8.832-7.168-16-16-16H112c-8.832 0-16 7.168-16 16v32c0 8.832 7.168 16 16 16h176v294.75c-20.994 9.164-41.776 34.813-46.39 57.25H112c-8.832 0-16 7.168-16 16v32c0 8.832 7.168 16 16 16h144.36c13.123 17.665 41.634 32.001 63.64 32.001s50.517-14.336 63.64-32.001H528c8.832 0 16-7.168 16-16v-32c0-8.832-7.168-16-16-16H398.39c-4.614-22.438-25.396-48.086-46.39-57.25V0h176c8.832 0 16-7.168 16-16z"/><glyph glyph-name="microphone-alt-secondary" unicode="􏏉" horiz-adv-x="352" d="M80 192v160c0 52.992 43.008 96 96 96s96-43.008 96-96h-85.33c-5.89 0-10.67-3.58-10.67-8v-16c0-4.42 4.78-8 10.67-8H272v-32h-85.33c-5.89 0-10.67-3.58-10.67-8v-16c0-4.42 4.78-8 10.67-8H272v-32h-85.33c-5.89 0-10.67-3.58-10.67-8v-16c0-4.42 4.78-8 10.67-8H272c0-52.992-43.008-96-96-96s-96 43.008-96 96z"/><glyph glyph-name="money-bill-alt-secondary" unicode="􏏑" d="M101.22 336h437.561c9.475-19.902 33.317-43.745 53.22-53.22V101.22c-19.903-9.475-43.745-33.318-53.22-53.22H101.22C91.745 67.902 67.903 91.745 48 101.22v181.56c19.903 9.475 43.745 33.318 53.22 53.22zM320 80c53 0 96 50.14 96 112s-43 112-96 112-96-50.16-96-112 43-112 96-112z"/><glyph glyph-name="balance-scale-left-secondary" unicode="􏔕" d="M544-16v-32c0-8.832-7.168-16-16-16H304c-8.832 0-16 7.168-16 16v342.75c-3.77 1.634-9.594 4.823-13 7.12l-142-47.63c-1.367-.459-3.648-.832-5.09-.832-6.353 0-13.15 4.889-15.17 10.912l-10.17 30.34c-.459 1.367-.832 3.649-.832 5.09 0 6.353 4.889 13.15 10.912 15.17L241 358c-.452 2.742-.899 7.223-1 10 0 44.16 35.84 80 80 80 29.69 0 55.3-16.36 69.11-40.37L507 447.16c1.368.46 3.65.831 5.092.831 6.352 0 13.148-4.888 15.169-10.91l10.17-30.34c.458-1.369.831-3.65.831-5.092 0-6.353-4.888-13.149-10.912-15.168l-132-44.261c-6.21-18.356-25.631-39.622-43.35-47.47V0h176c8.833 0 16-7.168 16-16z"/><glyph glyph-name="balance-scale-right-secondary" unicode="􏔖" d="M112 0h176v294.76c-17.731 7.84-37.165 29.106-43.38 47.47l-132 44.26c-6.023 2.021-10.911 8.817-10.911 15.17 0 1.442.372 3.723.831 5.09l10.16 30.34c2.018 6.03 8.815 10.924 15.173 10.924 1.453 0 3.75-.378 5.127-.844l117.89-39.54C264.7 431.64 290.31 448 320 448c44.16 0 80-35.84 80-80-.1-2.777-.547-7.258-1-10l128.4-43.05c6.023-2.02 10.912-8.816 10.912-15.17 0-1.442-.372-3.722-.831-5.09L527.3 264.32c-2.018-6.03-8.815-10.923-15.173-10.923-1.453 0-3.75.378-5.127.843l-142 47.63c-3.406-2.296-9.23-5.486-13-7.12V-48c0-8.832-7.168-16-16-16H112c-8.832 0-16 7.168-16 16v32c0 8.832 7.168 16 16 16z"/><glyph glyph-name="blender-secondary" unicode="􏔗" horiz-adv-x="512" d="M328 160h105.45L416 96H160l-8.73 96H48c-26.497 0-48 21.504-48 48v160c0 26.496 21.503 48 48 48h464l-17.45-64H328c-4.417 0-8-3.584-8-8v-16c0-4.416 3.583-8 8-8h157.82l-17.46-64H328c-4.417 0-8-3.584-8-8v-16c0-4.416 3.583-8 8-8h131.64l-17.46-64H328c-4.417 0-8-3.584-8-8v-16c0-4.416 3.583-8 8-8zM64 256h81.46l-11.64 128H64V256z"/><glyph glyph-name="broadcast-tower-secondary" unicode="􏔙" d="M184.67 384h.076c8.694 0 15.75-7.056 15.75-15.75 0-1.546-.432-3.979-.966-5.43-4.168-11.45-7.55-30.634-7.55-42.82s3.382-31.37 7.55-42.82c.53-1.449.961-3.877.961-5.42 0-8.7-7.06-15.76-15.76-15.76H150.94l-.134-.001c-6.5 0-13.343 5.036-15.276 11.241-4.159 14.266-7.535 37.905-7.535 52.765s3.376 38.499 7.535 52.764c1.936 6.2 8.778 11.232 15.273 11.232l.137-.001h33.73zm-94.75 40.66c-16.54-31.14-49.61-115.97.22-209.29 1.051-1.945 1.904-5.32 1.904-7.53 0-8.744-7.096-15.84-15.84-15.84H41.208c-5.596 0-12.1 4.095-14.518 9.14C3.12 251.67 0 295.25 0 320c.018 34.313 11.616 87.486 25.89 118.69 2.41 5.138 8.973 9.31 14.65 9.31H76c8.73-.01 15.814-7.101 15.814-15.83 0-2.206-.848-5.57-1.894-7.51zm524.14 14l-.06.05c14.325-31.198 25.95-84.38 25.95-118.71S628.326 232.488 614 201.29c-2.41-5.128-8.966-9.29-14.633-9.29H564.08c-8.751.008-15.855 7.118-15.855 15.87 0 2.25.88 5.678 1.966 7.65 48.14 89.81 17.99 174.94-.28 209.23-1.028 1.924-1.86 5.257-1.86 7.44 0 8.726 7.082 15.81 15.81 15.81h35.543c5.687 0 12.254-4.185 14.656-9.34zm-125-54.66l.179.001c6.494 0 13.317-5.036 15.231-11.241 4.16-14.265 7.535-37.902 7.535-52.76s-3.376-38.495-7.535-52.76c-1.933-6.205-8.776-11.241-15.275-11.241l-.135.001h-33.806c-8.693 0-15.75 7.056-15.75 15.75 0 1.546.433 3.978.966 5.43 4.168 11.45 7.55 30.634 7.55 42.82s-3.382 31.369-7.55 42.82c-.53 1.448-.96 3.877-.96 5.42 0 8.7 7.06 15.76 15.759 15.76h33.791z"/><glyph glyph-name="broom-secondary" unicode="􏔚" d="M636.53 417c1.923-2.415 3.484-6.88 3.484-9.969 0-4.249-2.694-9.85-6.014-12.5l-232.5-177.8-39.72 50 232.479 177.8c2.408 1.92 6.861 3.479 9.941 3.479 4.242 0 9.828-2.693 12.47-6.01z"/><glyph glyph-name="chalkboard-secondary" unicode="􏔛" d="M624 0c8.832 0 16-7.168 16-16v-32c0-8.832-7.168-16-16-16H16C7.168-64 0-56.832 0-48v32C0-7.168 7.168 0 16 0h16v408c0 22.08 17.92 40 40 40h496c22.08 0 40-17.92 40-40V0h16zM96 0h448v384H96V0z"/><glyph glyph-name="chalkboard-teacher-secondary" unicode="􏔜" d="M640 398.41V81.59C640 54.25 618.47 32 592 32H343.79c-.9 2.53-1.86 5.05-2.9 7.54-7.772 18.53-26.758 43.823-42.38 56.46H576v288H224v-49.1c-15.234 8.812-41.871 16.427-59.46 17h-.33c-1.4 0-2.8.08-4.21.08v46.43c0 27.34 21.53 49.59 48 49.59h384c26.47 0 48-22.25 48-49.59z"/><glyph glyph-name="church-secondary" unicode="􏔝" d="M620.61 81.46C631.313 76.871 640 63.695 640 52.049V-48c0-8.832-7.168-16-16-16H512v192zM0 52c0 11.646 8.687 24.871 19.39 29.46L128 128V-64H16C7.168-64 0-56.832 0-48V52z"/><glyph glyph-name="coins-secondary" unicode="􏔞" horiz-adv-x="512" d="M416 136.6v63.6c38.7 6.9 72.8 18.1 96 34.5V192c0-23.7-38.7-44.3-96-55.4zm-4.7 95.1c-8.8 23.7-30.5 42.9-60 57.2 64.2 3.2 125.2 16.7 160.7 41.8V288c0-24.3-40.7-45.5-100.7-56.3zM512 384c0-35.3-86-64-192-64s-192 28.7-192 64 86 64 192 64 192-28.7 192-64z"/><glyph glyph-name="compact-disc-secondary" unicode="􏔟" horiz-adv-x="512" d="M256 320c70.656 0 128-57.344 128-128S326.656 64 256 64s-128 57.344-128 128 57.344 128 128 128zm0-160c17.664 0 32 14.336 32 32s-14.336 32-32 32-32-14.336-32-32 14.336-32 32-32z"/><glyph glyph-name="crow-secondary" unicode="􏔠" d="M447.27-39.67c.4-1.098.725-2.936.725-4.104 0-4.638-3.538-9.689-7.895-11.276l-22.55-8.21c-1.097-.4-2.936-.723-4.104-.723-4.637 0-9.689 3.536-11.276 7.893L357.52 64.08c13.726.383 35.557 3.832 48.73 7.7zM312.87 64l38.45-103.68c.4-1.098.724-2.937.724-4.104 0-4.638-3.536-9.69-7.894-11.276l-22.55-8.21c-1.098-.4-2.936-.724-4.105-.724-4.637 0-9.688 3.537-11.275 7.894L261 64h51.87zM640 352l-96-16v32.11c0 14.693-7.168 36.148-16 47.89h16c53 0 96-28.65 96-64z"/><glyph glyph-name="crown-secondary" unicode="􏔡" d="M544-16v-32c0-8.832-7.168-16-16-16H112c-8.832 0-16 7.168-16 16v32c0 8.832 7.168 16 16 16h416c8.832 0 16-7.168 16-16z"/><glyph glyph-name="dice-secondary" unicode="􏔢" d="M433.63 258.7c7.933-7.935 14.37-23.48 14.37-34.7s-6.437-26.766-14.37-34.7L258.691 14.37C250.757 6.438 235.214 0 223.996 0S197.234 6.437 189.3 14.37L14.37 189.309C6.44 197.242 0 212.785 0 224.004s6.439 26.762 14.37 34.695l174.94 174.93c7.933 7.932 23.476 14.37 34.695 14.37s26.761-6.438 34.695-14.37zM96 200c13.248 0 24 10.752 24 24s-10.752 24-24 24-24-10.752-24-24 10.752-24 24-24zM224 72c13.248 0 24 10.752 24 24s-10.752 24-24 24-24-10.752-24-24 10.752-24 24-24zm0 128c13.248 0 24 10.752 24 24s-10.752 24-24 24-24-10.752-24-24 10.752-24 24-24zm0 128c13.248 0 24 10.752 24 24s-10.752 24-24 24-24-10.752-24-24 10.752-24 24-24zm128-128c13.248 0 24 10.752 24 24s-10.752 24-24 24-24-10.752-24-24 10.752-24 24-24z"/><glyph glyph-name="dice-five-secondary" unicode="􏔣" horiz-adv-x="448" d="M384 416c35.328 0 64-28.672 64-64V32c0-35.328-28.672-64-64-64H64C28.672-32 0-3.328 0 32v320c0 35.328 28.672 64 64 64h320zM128 64c17.664 0 32 14.336 32 32s-14.336 32-32 32-32-14.336-32-32 14.336-32 32-32zm0 192c17.664 0 32 14.336 32 32s-14.336 32-32 32-32-14.336-32-32 14.336-32 32-32zm96-96c17.664 0 32 14.336 32 32s-14.336 32-32 32-32-14.336-32-32 14.336-32 32-32zm96-96c17.664 0 32 14.336 32 32s-14.336 32-32 32-32-14.336-32-32 14.336-32 32-32zm0 192c17.664 0 32 14.336 32 32s-14.336 32-32 32-32-14.336-32-32 14.336-32 32-32z"/><glyph glyph-name="dice-four-secondary" unicode="􏔤" horiz-adv-x="448" d="M384 416c35.328 0 64-28.672 64-64V32c0-35.328-28.672-64-64-64H64C28.672-32 0-3.328 0 32v320c0 35.328 28.672 64 64 64h320zM128 64c17.664 0 32 14.336 32 32s-14.336 32-32 32-32-14.336-32-32 14.336-32 32-32zm0 192c17.664 0 32 14.336 32 32s-14.336 32-32 32-32-14.336-32-32 14.336-32 32-32zM320 64c17.664 0 32 14.336 32 32s-14.336 32-32 32-32-14.336-32-32 14.336-32 32-32zm0 192c17.664 0 32 14.336 32 32s-14.336 32-32 32-32-14.336-32-32 14.336-32 32-32z"/><glyph glyph-name="dice-one-secondary" unicode="􏔥" horiz-adv-x="448" d="M384 416c35.328 0 64-28.672 64-64V32c0-35.328-28.672-64-64-64H64C28.672-32 0-3.328 0 32v320c0 35.328 28.672 64 64 64h320zM224 160c17.664 0 32 14.336 32 32s-14.336 32-32 32-32-14.336-32-32 14.336-32 32-32z"/><glyph glyph-name="dice-six-secondary" unicode="􏔦" horiz-adv-x="448" d="M384 416c35.328 0 64-28.672 64-64V32c0-35.328-28.672-64-64-64H64C28.672-32 0-3.328 0 32v320c0 35.328 28.672 64 64 64h320zM128 64c17.664 0 32 14.336 32 32s-14.336 32-32 32-32-14.336-32-32 14.336-32 32-32zm0 96c17.664 0 32 14.336 32 32s-14.336 32-32 32-32-14.336-32-32 14.336-32 32-32zm0 96c17.664 0 32 14.336 32 32s-14.336 32-32 32-32-14.336-32-32 14.336-32 32-32zM320 64c17.664 0 32 14.336 32 32s-14.336 32-32 32-32-14.336-32-32 14.336-32 32-32zm0 96c17.664 0 32 14.336 32 32s-14.336 32-32 32-32-14.336-32-32 14.336-32 32-32zm0 96c17.664 0 32 14.336 32 32s-14.336 32-32 32-32-14.336-32-32 14.336-32 32-32z"/><glyph glyph-name="dice-three-secondary" unicode="􏔧" horiz-adv-x="448" d="M384 416c35.328 0 64-28.672 64-64V32c0-35.328-28.672-64-64-64H64C28.672-32 0-3.328 0 32v320c0 35.328 28.672 64 64 64h320zM128 256c17.664 0 32 14.336 32 32s-14.336 32-32 32-32-14.336-32-32 14.336-32 32-32zm96-96c17.664 0 32 14.336 32 32s-14.336 32-32 32-32-14.336-32-32 14.336-32 32-32zm96-96c17.664 0 32 14.336 32 32s-14.336 32-32 32-32-14.336-32-32 14.336-32 32-32z"/><glyph glyph-name="dice-two-secondary" unicode="􏔨" horiz-adv-x="448" d="M384 416c35.328 0 64-28.672 64-64V32c0-35.328-28.672-64-64-64H64C28.672-32 0-3.328 0 32v320c0 35.328 28.672 64 64 64h320zM128 256c17.664 0 32 14.336 32 32s-14.336 32-32 32-32-14.336-32-32 14.336-32 32-32zM320 64c17.664 0 32 14.336 32 32s-14.336 32-32 32-32-14.336-32-32 14.336-32 32-32z"/><glyph glyph-name="divide-secondary" unicode="􏔩" horiz-adv-x="448" d="M224 288c-35.328 0-64 28.672-64 64s28.672 64 64 64 64-28.672 64-64-28.672-64-64-64zm0-192c35.328 0 64-28.672 64-64s-28.672-64-64-64-64 28.672-64 64 28.672 64 64 64z"/><glyph glyph-name="door-closed-secondary" unicode="􏔪" d="M640-16v-32c0-8.832-7.168-16-16-16H16C7.168-64 0-56.832 0-48v32C0-7.168 7.168 0 16 0h608c8.832 0 16-7.168 16-16z"/><glyph glyph-name="door-open-secondary" unicode="􏔫" d="M0-16C0-7.168 7.168 0 16 0h336v-64H16C7.168-64 0-56.832 0-48v32zM624 0c8.832 0 16-7.168 16-16v-32c0-8.832-7.168-16-16-16H480v384h-96v64h112c26.47 0 48-22.19 48-49.45V0h80z"/><glyph glyph-name="equals-secondary" unicode="􏔬" horiz-adv-x="448" d="M448 112V80c0-17.664-14.336-32-32-32H32C14.336 48 0 62.336 0 80v32c0 17.664 14.336 32 32 32h384c17.664 0 32-14.336 32-32z"/><glyph glyph-name="frog-secondary" unicode="􏔮" horiz-adv-x="576" d="M576-16c0-8.832-7.168-16-16-16h-90.38L351.09 93.91c5.07 54.15-29.93 85.06-40.8 93.21-15.372 11.442-43.401 20.73-62.565 20.73-19.163 0-47.193-9.288-62.565-20.73L150.38 161c-3.53-2.65-6.395-8.385-6.395-12.8 0-8.836 7.17-16.006 16.005-16.006 2.948 0 7.253 1.436 9.61 3.206l32.76 24.6c20.69 15.53 48.35 20.81 72.24 10.88 44.06-18.32 57.85-70.37 33.71-106.6L272.51 16H352c17.664 0 32-14.336 32-32 0-8.833-7.168-16-16-16H64C29.08-32 .11-4 0 31c-.5 166.8 126.69 303.9 289.33 319.45-.21-1.15-.4-2.32-.56-3.49-.416-3.022-.762-7.95-.77-11 0-47.54 39.29-80 80-80 46 0 80 37.61 80 80-.009 4.043-.61 10.552-1.34 14.53 3-1 59.41-19.62 98.86-41.231 16.851-9.112 30.527-32.055 30.527-51.212 0-18.829-13.331-41.582-29.757-50.788l-154.44-86.61L490.37 16H544c17.665 0 32-14.335 32-32z"/><glyph glyph-name="gas-pump-secondary" unicode="􏔯" horiz-adv-x="512" d="M336 0c8.832 0 16-7.168 16-16v-32c0-8.832-7.168-16-16-16H16C7.168-64 0-56.832 0-48v32C0-7.168 7.168 0 16 0h320zm157.2 340.7c10.364-10.355 18.786-30.65 18.8-45.3V72c-.071-39.782-32.417-72.07-72.2-72.07-2.02 0-5.29.166-7.3.37C395 4.2 368 38.5 368 76.2V104c0 22.08-17.92 40-40 40h-8v48h8c48.576 0 88-39.424 88-88V72c0-13.248 10.752-24 24-24s24 10.752 24 24v160.8c-26.426 3.777-47.93 28.506-48 55.2v62.1l-37.7 37.7c-2.566 2.592-4.648 7.654-4.648 11.3s2.082 8.709 4.648 11.3l11.3 11.3c2.591 2.566 7.654 4.648 11.3 4.648s8.708-2.082 11.3-4.647z"/><glyph glyph-name="glasses-secondary" unicode="􏔰" horiz-adv-x="576" d="M64 119.42c19.417 7.02 51.933 12.813 72.58 12.93 19.958-.01 51.286-5.797 69.93-12.92l-3.13-41.22C201.41 52.3 178.98 32 152.32 32H115.2C87 32 64 54.37 64 81.88v37.54zm448-37.55c0-27.51-23-49.87-51.2-49.88h-37.11c-26.67 0-49.06 20.3-51.06 46.21l-3.13 41.22c18.65 7.123 49.986 12.911 69.95 12.92 20.639-.12 53.14-5.912 72.55-12.93V81.87z"/><glyph glyph-name="greater-than-secondary" unicode="􏔱" horiz-adv-x="384" d="M18.49 90L237 191.9 18.53 293.75C8.3 298.519-.003 311.549-.003 322.836c0 3.925 1.346 9.997 3.003 13.554l13.58 29.08c4.769 10.23 17.799 18.533 29.086 18.533 3.924 0 9.997-1.346 13.554-3.003l306.3-142.84c10.204-4.752 18.487-17.744 18.49-29v-34.23c-.001-11.253-8.28-24.246-18.48-29L59.06 3c-3.55-1.656-9.61-3-13.527-3C34.278 0 21.285 8.28 16.53 18.48L3 47.48C1.347 51.027.006 57.08.006 60.994.006 72.25 8.286 85.244 18.49 90z"/><glyph glyph-name="greater-than-equal-secondary" unicode="􏔲" horiz-adv-x="448" d="M24 48h400c13.248 0 24-10.752 24-24v-48c0-13.248-10.752-24-24-24H24C10.752-48 0-37.248 0-24v48c0 13.248 10.752 24 24 24z"/><glyph glyph-name="helicopter-secondary" unicode="􏔳" d="M635.37-10.81c2.557-2.619 4.63-7.713 4.63-11.373 0-4.1-2.513-9.61-5.61-12.298C601.24-63.53 580.82-64 565.94-64H240c-8.832 0-16 7.168-16 16v32.14c0 8.832 7.168 16 16 16h325.94c10.8 0 17.55 4.48 24.64 11.25 2.6 2.561 7.67 4.64 11.32 4.64 3.649 0 8.72-2.079 11.32-4.64zM320 320v64H144c-8.832 0-16 7.168-16 16v32c0 8.832 7.168 16 16 16h416c8.832 0 16-7.168 16-16v-32c0-8.832-7.168-16-16-16H384v-64h-64z"/><glyph glyph-name="kiwi-bird-secondary" unicode="􏔵" horiz-adv-x="576" d="M144 38v-54c0-8.832-7.168-16-16-16h-16c-8.832 0-16 7.168-16 16v73.69c12.503-7.252 34.007-16.073 48-19.69zm432 186V-16c-.002-6.862-5.4-13.806-12.05-15.5-1.073-.273-2.843-.497-3.95-.5h-.033c-5.243 0-11.536 3.736-14.047 8.34l-72.54 136.05C530.026 117.15 576 167.15 576 223.996V224zM208 32.68c13.615 1.118 35.12 5.718 48 10.27V-16c0-8.832-7.168-16-16-16h-16c-8.832 0-16 7.168-16 16v48.68z"/><glyph glyph-name="less-than-secondary" unicode="􏔶" horiz-adv-x="384" d="M381 47.61l-13.56-29.08C362.672 8.298 349.64-.007 338.353-.007 334.425-.007 328.35 1.34 324.79 3L18.48 145.84C8.28 150.595 0 163.587 0 174.84v34.24c0 11.253 8.28 24.245 18.48 29L324.94 381c3.55 1.656 9.61 3 13.526 3 11.255 0 24.248-8.28 29.003-18.48l13.52-29c1.654-3.548 2.996-9.604 2.996-13.518 0-11.253-8.276-24.246-18.476-29.002L147 192.1 365.46 90.25c10.237-4.764 18.545-17.794 18.545-29.085 0-3.925-1.346-9.998-3.005-13.555z"/><glyph glyph-name="less-than-equal-secondary" unicode="􏔷" horiz-adv-x="448" d="M24 48h400c13.248 0 24-10.752 24-24v-48c0-13.248-10.752-24-24-24H24C10.752-48 0-37.248 0-24v48c0 13.248 10.752 24 24 24z"/><glyph glyph-name="memory-secondary" unicode="􏔸" d="M640 317.06c-17.658-6.168-31.99-26.355-31.99-45.06s14.332-38.891 31.99-45.06V128H0v98.94c17.627 6.191 31.963 26.378 32 45.06-.037 18.683-14.373 38.87-32 45.06V352c0 17.665 14.336 32 32 32h576c17.664 0 32-14.335 32-32v-34.94zM224 192v128h-64V192h64zm128 0v128h-64V192h64zm128 0v128h-64V192h64z"/><glyph glyph-name="microphone-alt-slash-secondary" unicode="􏔹" d="M437.52 141.34c5.785 13.354 10.48 36.003 10.48 50.556V240c0 8.832 7.168 16 16 16h16c8.833 0 16-7.168 16-16v-48.2c0-23.562-8.82-59.653-19.69-80.559zm-26.38 20.46L372.21 192H416v-.077c0-8.53-2.177-22.025-4.86-30.123zM400-16c8.832 0 16-7.168 16-16v-16c0-8.832-7.168-16-16-16H240c-8.832 0-16 7.168-16 16v16c0 8.832 7.168 16 16 16h56.07v34.19c-88 12.14-152 92.05-152 181.69v6.85l52-40.22c12.44-53.22 55.33-96.4 111.18-101.85 6.94-.67 13.64-.2 20.35.2l50.4-39c-9.16-3.168-24.393-6.789-34-8.08V-16h56zm-69 240l-107 83v45c0 52.992 43.008 96 96 96s96-43.008 96-96h-85.33c-5.89 0-10.67-3.58-10.67-8v-16c0-4.42 4.78-8 10.67-8H416v-32h-85.33c-5.89 0-10.67-3.58-10.67-8v-16c0-4.42 4.78-8 10.67-8H416v-32h-85z"/><glyph glyph-name="money-bill-wave-secondary" unicode="􏔺" d="M545.58 76.23c-11.105 1.17-29.183 2.12-40.35 2.12h-.46c-67.53 0-133.13-16.59-196.53-32.64C247.86 30.43 190.84 16 135.24 16h-.493c-9.587 0-25.092.95-34.607 2.12-9.552 19.042-32.915 41.93-52.15 51.09v197.57c16.055 7.644 36.851 26.013 46.42 41 11.108-1.17 29.188-2.12 40.358-2.12h.472c67.56 0 133.12 16.64 196.51 32.64 60.39 15.27 117.4 29.7 173 29.7h.494c9.587 0 25.09-.95 34.606-2.12 9.555-19.045 32.922-41.933 52.16-51.09V117.23c-16.057-7.644-36.858-26.012-46.43-41zM320 96c44.17 0 80 43 80 96s-35.82 96-80 96-80-43-80-96 35.81-96 80-96z"/><glyph glyph-name="money-bill-wave-alt-secondary" unicode="􏔻" d="M320 96c-44.19 0-80 43-80 96s35.82 96 80 96 80-43 80-96-35.83-96-80-96z"/><glyph glyph-name="money-check-secondary" unicode="􏔼" d="M0 0v320h640V0c0-17.664-14.336-32-32-32H32C14.336-32 0-17.664 0 0zm448 208v-32c0-8.832 7.168-16 16-16h96c8.832 0 16 7.168 16 16v32c0 8.832-7.168 16-16 16h-96c-8.832 0-16-7.168-16-16zm0-120V72c0-4.416 3.584-8 8-8h112c4.416 0 8 3.584 8 8v16c0 4.416-3.584 8-8 8H456c-4.416 0-8-3.584-8-8zM64 184v-16c0-4.416 3.584-8 8-8h304c4.416 0 8 3.584 8 8v16c0 4.416-3.584 8-8 8H72c-4.416 0-8-3.584-8-8zm0-96V72c0-4.416 3.584-8 8-8h176c4.416 0 8 3.584 8 8v16c0 4.416-3.584 8-8 8H72c-4.416 0-8-3.584-8-8z"/><glyph glyph-name="money-check-alt-secondary" unicode="􏔽" d="M608 416c17.664 0 32-14.336 32-32V0c0-17.664-14.336-32-32-32H32C14.336-32 0-17.664 0 0v384c0 17.664 14.336 32 32 32h576zM176 120.12c23.62.63 42.67 20.54 42.67 45.07 0 19.97-12.99 37.81-31.58 43.39l-45 13.5c-5.16 1.54-8.77 6.78-8.77 12.73 0 7.27 5.3 13.19 11.8 13.19h28.11c3.836-.005 9.58-1.676 12.82-3.73 1.15-.779 3.212-1.41 4.601-1.41 1.755 0 4.232.958 5.529 2.14l11.75 11.22c1.39 1.307 2.517 3.917 2.517 5.826 0 2.159-1.383 4.988-3.087 6.314-7.703 5.773-21.756 10.858-31.37 11.35V296c0 4.416-3.584 8-8 8h-16c-4.416 0-8-3.584-8-8v-16.12c-23.62-.63-42.67-20.55-42.67-45.07 0-19.97 12.99-37.81 31.58-43.39l45-13.5c5.16-1.54 8.77-6.78 8.77-12.73 0-7.27-5.3-13.19-11.8-13.19h-28.11c-3.835.009-9.578 1.68-12.82 3.73-1.15.779-3.212 1.41-4.601 1.41-1.755 0-4.232-.959-5.53-2.14l-11.75-11.22c-1.39-1.307-2.516-3.918-2.516-5.826 0-2.16 1.383-4.988 3.087-6.314 7.704-5.769 21.758-10.854 31.37-11.35V104c0-4.416 3.584-8 8-8h16c4.416 0 8 3.584 8 8v16.12zM416 136v16c0 4.416-3.584 8-8 8H296c-4.416 0-8-3.584-8-8v-16c0-4.416 3.584-8 8-8h112c4.416 0 8 3.584 8 8zm160 0v16c0 4.416-3.584 8-8 8h-80c-4.416 0-8-3.584-8-8v-16c0-4.416 3.584-8 8-8h80c4.416 0 8 3.584 8 8zm0 96v16c0 4.416-3.584 8-8 8H296c-4.416 0-8-3.584-8-8v-16c0-4.416 3.584-8 8-8h272c4.416 0 8 3.584 8 8z"/><glyph glyph-name="not-equal-secondary" unicode="􏔾" horiz-adv-x="448" d="M35.59-18.83L87.52 48h81L86.43-57.75c-2.65-3.47-8.347-6.287-12.715-6.287-2.988 0-7.34 1.473-9.715 3.287l-25.41 19.5c-3.468 2.651-6.282 8.346-6.282 12.71 0 2.987 1.47 7.337 3.282 9.71zM162 144l74.51 96h81L243 144h-81zm279 281.22c3.47-2.651 6.287-8.347 6.287-12.715 0-2.988-1.473-7.34-3.287-9.715L392.11 336h-81l82.07 105.71c2.651 3.471 8.347 6.287 12.715 6.287 2.988 0 7.34-1.472 9.715-3.287z"/><glyph glyph-name="palette-secondary" unicode="􏔿" horiz-adv-x="512" d="M204.29 443c163.8 31.87 307.2-92.13 307.7-249.69-.1-35.71-29.1-65.31-64.9-65.31h-79.7c-51 0-84-53-60.9-98.4 18.9-37.1-1.3-85.29-42.5-91.69C136.889-81.79-31.81 57.6 5.19 244.6c19.6 99.11 99.7 179 199.1 198.4zM96 128c17.664 0 32 14.336 32 32s-14.336 32-32 32-32-14.336-32-32 14.336-32 32-32zm32 128c17.664 0 32 14.336 32 32s-14.336 32-32 32-32-14.336-32-32 14.336-32 32-32zm128 64c17.664 0 32 14.336 32 32s-14.336 32-32 32-32-14.336-32-32 14.336-32 32-32zm128-64c17.664 0 32 14.336 32 32s-14.336 32-32 32-32-14.336-32-32 14.336-32 32-32z"/><glyph glyph-name="parking-secondary" unicode="􏕀" horiz-adv-x="448" d="M272 224c-.05-17.614-14.386-31.95-32-32h-48v64h48c17.614-.05 31.95-14.386 32-32zm176 144V16c0-26.496-21.504-48-48-48H48C21.504-32 0-10.496 0 16v352c0 26.496 21.504 48 48 48h352c26.496 0 48-21.504 48-48zM336 224c-.082 52.91-43.09 95.918-96 96h-96c-8.832 0-16-7.168-16-16V80c0-8.832 7.168-16 16-16h32c8.832 0 16 7.168 16 16v48h48c52.91.082 95.918 43.09 96 96z"/><glyph glyph-name="percentage-secondary" unicode="􏕁" horiz-adv-x="384" d="M365.25 109.26c10.348-10.347 18.745-30.621 18.745-45.255 0-14.633-8.397-34.907-18.745-45.255S334.629.005 319.995.005c-35.328 0-64 28.672-64 64s28.672 64 64 64c14.634 0 34.907-8.397 45.255-18.745zm-346.51 256c10.347 10.348 30.621 18.745 45.255 18.745 14.633 0 34.907-8.397 45.255-18.745 10.348-10.347 18.745-30.621 18.745-45.255 0-35.327-28.672-64-64-64s-64 28.673-64 64c0 14.634 8.398 34.908 18.745 45.255z"/><glyph glyph-name="project-diagram-secondary" unicode="􏕂" d="M416 320H164.65l91.63-160H256c-20.307-.059-45-14.395-55.12-32L54.78 384H416v-64z"/><glyph glyph-name="receipt-secondary" unicode="􏕃" horiz-adv-x="384" d="M358.4 444.77c2.354 1.767 6.655 3.2 9.6 3.2 8.815 0 15.983-7.154 16-15.97V-48c0-8.832-7.168-16-16-16-2.945 0-7.246 1.434-9.6 3.2L320-16l-54.4-44.8c-2.351-1.78-6.652-3.225-9.6-3.225s-7.25 1.445-9.6 3.226L192-16l-54.4-44.8c-2.351-1.78-6.652-3.226-9.6-3.226s-7.25 1.445-9.6 3.226L64-16 25.6-60.8C23.244-62.566 18.943-64 16-64 7.168-64 0-56.833 0-48v480c.016 8.815 7.184 15.97 16 15.97 2.944 0 7.245-1.434 9.6-3.201L64 400l54.4 44.77c2.35 1.781 6.651 3.226 9.6 3.226s7.249-1.445 9.6-3.226L192 400l54.4 44.77c2.35 1.781 6.651 3.226 9.6 3.226s7.249-1.445 9.6-3.226L320 400zM320 88v16c0 4.416-3.584 8-8 8H72c-4.416 0-8-3.584-8-8V88c0-4.416 3.584-8 8-8h240c4.416 0 8 3.584 8 8zm0 96v16c0 4.416-3.584 8-8 8H72c-4.416 0-8-3.584-8-8v-16c0-4.416 3.584-8 8-8h240c4.416 0 8 3.584 8 8zm0 96v16c0 4.416-3.584 8-8 8H72c-4.416 0-8-3.584-8-8v-16c0-4.416 3.584-8 8-8h240c4.416 0 8 3.584 8 8z"/><glyph glyph-name="robot-secondary" unicode="􏕄" d="M0 192c0 17.664 14.336 32 32 32h32V32H32C14.336 32 0 46.336 0 64v128zm608 32c17.664 0 32-14.336 32-32V64c0-17.664-14.336-32-32-32h-32v192h32zM192 32v32h64V32h-64zm192 0v32h64V32h-64zm-96 0v32h64V32h-64z"/><glyph glyph-name="ruler-secondary" unicode="􏕅" d="M624.16 238L127.36-43.9c-4.075-2.31-11.185-4.185-15.87-4.185-10.083 0-22.462 7.028-27.63 15.685L4.26 103.231C1.94 107.227.055 114.222.055 118.844c0 10.078 7.143 22.244 15.944 27.157l69 39.1 59.7-101.4c1.278-2.19 4.373-3.967 6.908-3.967 1.18 0 2.969.478 3.991 1.067l13.801 7.8c2.186 1.232 3.961 4.268 3.961 6.778 0 1.162-.476 2.919-1.061 3.922l-59.6 101.52 55.19 31.32 27.81-47.34c1.278-2.19 4.373-3.967 6.908-3.967 1.18 0 2.969.479 3.991 1.068l13.801 7.8c2.19 1.226 3.968 4.26 3.968 6.77 0 1.165-.479 2.925-1.068 3.93l-27.93 47.4 55.19 31.31 59.7-101.681c1.278-2.19 4.374-3.967 6.909-3.967 1.18 0 2.967.478 3.99 1.067l13.8 7.8c2.187 1.232 3.962 4.269 3.962 6.778 0 1.162-.476 2.918-1.06 3.922l-59.802 101.68 55.2 31.29 27.9-47.3c1.28-2.189 4.374-3.966 6.91-3.966 1.18 0 2.968.477 3.99 1.066l13.801 7.8c2.19 1.227 3.968 4.26 3.968 6.771 0 1.164-.479 2.925-1.068 3.93l-27.89 47.379 55.19 31.32 59.7-101.59c1.278-2.19 4.374-3.966 6.909-3.966 1.18 0 2.968.477 3.991 1.066l13.8 7.8c2.19 1.227 3.969 4.26 3.969 6.771 0 1.164-.479 2.925-1.069 3.929l-59.68 101.68 69 39.14c4.075 2.31 11.184 4.185 15.869 4.185 10.084 0 22.463-7.026 27.63-15.685l79.601-135.5c2.372-4.022 4.297-11.077 4.297-15.747 0-10.056-7.13-22.19-15.917-27.083z"/><glyph glyph-name="ruler-combined-secondary" unicode="􏕆" horiz-adv-x="512" d="M512 64v-96c0-17.664-14.336-32-32-32H32c-2.76 0-5.24.91-7.8 1.57L182.63 96H224V40c0-4.416 3.584-8 8-8h16c4.416 0 8 3.584 8 8v56h64V40c0-4.416 3.584-8 8-8h16c4.416 0 8 3.584 8 8v56h64V40c0-4.416 3.584-8 8-8h16c4.416 0 8 3.584 8 8v56h32c17.664 0 32-14.336 32-32zm-352 96v-41.38L1.57-39.8C.91-37.24 0-34.77 0-32v448c0 17.664 14.336 32 32 32h96c17.664 0 32-14.336 32-32v-32h-56c-4.416 0-8-3.584-8-8v-16c0-4.416 3.584-8 8-8h56v-64h-56c-4.416 0-8-3.584-8-8v-16c0-4.416 3.584-8 8-8h56v-64h-56c-4.416 0-8-3.584-8-8v-16c0-4.416 3.584-8 8-8h56z"/><glyph glyph-name="ruler-horizontal-secondary" unicode="􏕇" horiz-adv-x="576" d="M576 288V96c0-17.664-14.336-32-32-32H32C14.336 64 0 78.336 0 96v192c0 17.664 14.336 32 32 32h48v-88c0-4.416 3.584-8 8-8h16c4.416 0 8 3.584 8 8v88h64v-88c0-4.416 3.584-8 8-8h16c4.416 0 8 3.584 8 8v88h64v-88c0-4.416 3.584-8 8-8h16c4.416 0 8 3.584 8 8v88h64v-88c0-4.416 3.584-8 8-8h16c4.416 0 8 3.584 8 8v88h64v-88c0-4.416 3.584-8 8-8h16c4.416 0 8 3.584 8 8v88h48c17.664 0 32-14.336 32-32z"/><glyph glyph-name="ruler-vertical-secondary" unicode="􏕈" horiz-adv-x="256" d="M160 344v-16c0-4.416 3.584-8 8-8h88v-64h-88c-4.416 0-8-3.584-8-8v-16c0-4.416 3.584-8 8-8h88v-64h-88c-4.416 0-8-3.584-8-8v-16c0-4.416 3.584-8 8-8h88V64h-88c-4.416 0-8-3.584-8-8V40c0-4.416 3.584-8 8-8h88v-64c0-17.664-14.336-32-32-32H32C14.336-64 0-49.664 0-32v448c0 17.664 14.336 32 32 32h192c17.664 0 32-14.336 32-32v-64h-88c-4.416 0-8-3.584-8-8z"/><glyph glyph-name="school-secondary" unicode="􏕉" d="M360 272c4.416 0 8-3.584 8-8v-16c0-4.416-3.584-8-8-8h-48c-4.416 0-8 3.584-8 8v64c0 4.416 3.584 8 8 8h16c4.416 0 8-3.584 8-8v-40h24zM0 224c0 17.664 14.336 32 32 32h64V-64H16C7.168-64 0-56.832 0-48v272zm608 32c17.664 0 32-14.336 32-32V-48c0-8.832-7.168-16-16-16h-80v320h64z"/><glyph glyph-name="screwdriver-secondary" unicode="􏕊" horiz-adv-x="512" d="M448 448l64-64-96-128h-62.07l-83-83c-7.014 11.712-22.214 26.903-33.93 33.91l83 83V352z"/><glyph glyph-name="shoe-prints-secondary" unicode="􏕋" d="M0 32c0 35.328 28.672 64 64 64h32V-32H64C28.672-32 0-3.328 0 32zm337.46 128C427.82 160 512 128 512 64c0-45.22-39.1-97.3-148.58-120.8-31.98-6.87-64.89-8.51-97.58-6.2-27.31 1.88-54.1 7.72-80.31 15L128-32V96c60.21 0 79.94 15.62 104.73 32 28.57 18.88 69.82 32 104.729 32z"/><glyph glyph-name="skull-secondary" unicode="􏕌" horiz-adv-x="512" d="M256 448c141.4 0 256-100.3 256-224 0-70.1-36.9-132.6-94.5-173.7-9.7-6.9-15.2-18.2-13.5-29.9l9.4-66.2c.095-.64.172-1.683.172-2.33 0-8.76-7.11-15.87-15.87-15.87H320v56c0 4.416-3.584 8-8 8h-16c-4.416 0-8-3.584-8-8v-56h-64v56c0 4.416-3.584 8-8 8h-16c-4.416 0-8-3.584-8-8v-56h-77.702c-8.76 0-15.87 7.11-15.87 15.87 0 .647.077 1.69.172 2.33l9.4 66.2c1.7 11.8-3.9 23-13.5 29.9C36.9 91.4 0 153.901 0 224c0 123.7 114.6 224 256 224zm-96-320c35.295.033 63.967 28.705 64 64 0 35.328-28.672 64-64 64s-64-28.672-64-64 28.672-64 64-64zm192 0c35.295.033 63.967 28.705 64 64 0 35.328-28.672 64-64 64s-64-28.672-64-64 28.672-64 64-64z"/><glyph glyph-name="smoking-ban-secondary" unicode="􏕍" horiz-adv-x="512" d="M96 208c0 8.832 7.168 16 16 16h21.5l96-96H112c-8.832 0-16 7.168-16 16v64zm224.6 80c-30.441.031-58.8 24.492-63.3 54.6a9.99 9.99 0 0 0-.093 1.23c0 4.468 3.626 8.128 8.093 8.17h16.2l.136.001c3.445 0 6.835-2.733 7.565-6.1 2.774-14.292 16.841-25.895 31.399-25.901 30.442-.031 58.8-24.492 63.3-54.6.052-.338.094-.89.094-1.23 0-4.468-3.626-8.128-8.093-8.17h-16.2l-.136-.001c-3.446 0-6.835 2.733-7.565 6.1-2.775 14.292-16.841 25.895-31.4 25.901zm95.4-80v-64c0-8.832-7.168-16-16-16h-34.8l-32 32H384v32h-82.8l-32 32H400c8.832 0 16-7.168 16-16z"/><glyph glyph-name="store-secondary" unicode="􏕎" horiz-adv-x="624" d="M551.64 161.2c4.608.62 11.956 2.232 16.4 3.6V-32c0-17.664-14.335-32-32-32H88c-17.664 0-32 14.336-32 32v196.8c4.46-1.296 11.807-2.91 16.4-3.6 4.934-.663 12.978-1.2 17.956-1.2h.045c8.26.129 21.476 1.83 29.5 3.8V64h384v99.8c8.017-2.01 21.233-3.712 29.5-3.8h.01c5.052 0 13.22.538 18.23 1.2z"/><glyph glyph-name="store-alt-secondary" unicode="􏕏" d="M320 64v160h64V-32c0-17.664-14.336-32-32-32H96c-17.664 0-32 14.336-32 32v256h64V64h192zm192 160h64V-48c0-8.832-7.168-16-16-16h-32c-8.832 0-16 7.168-16 16v272z"/><glyph glyph-name="stream-secondary" unicode="􏕐" horiz-adv-x="512" d="M512 224v-64c0-8.832-7.168-16-16-16H80c-8.832 0-16 7.168-16 16v64c0 8.832 7.168 16 16 16h416c8.832 0 16-7.168 16-16z"/><glyph glyph-name="stroopwafel-secondary" unicode="􏕑" horiz-adv-x="512" d="M188.12 237.26L233.37 192l-45.26-45.25L142.86 192zm22.63-113.14L256 169.37l45.26-45.25L256 78.86zm90.5 135.76L256 214.63l-45.25 45.26L256 305.14zM256 448c141.38 0 256-114.62 256-256S397.38-64 256-64 0 50.62 0 192s114.62 256 256 256zm186.68-295.6c1.296 1.293 2.347 3.83 2.347 5.66s-1.051 4.366-2.347 5.66L414.39 192l28.23 28.31c1.292 1.293 2.341 3.826 2.341 5.655s-1.049 4.362-2.34 5.655l-11.311 11.31c-1.293 1.292-3.826 2.341-5.654 2.341s-4.363-1.049-5.656-2.342l-28.25-28.29L346.5 259.9l33.88 33.91 17-17c1.293-1.293 3.827-2.342 5.656-2.342s4.36 1.05 5.655 2.341L420 288.12c1.291 1.294 2.34 3.827 2.34 5.656 0 1.828-1.049 4.361-2.34 5.654l-17 17 17 17c1.291 1.294 2.34 3.827 2.34 5.656s-1.049 4.36-2.34 5.655L408.78 356c-1.294 1.292-3.827 2.34-5.655 2.34s-4.362-1.048-5.656-2.34l-17-17-17 17c-1.293 1.292-3.826 2.34-5.654 2.34-1.83 0-4.362-1.048-5.655-2.34l-11.34-11.23c-1.293-1.294-2.342-3.827-2.342-5.655s1.049-4.362 2.342-5.655l17-17-33.94-33.94-45.26 45.25 28.29 28.29c1.292 1.293 2.34 3.826 2.34 5.654s-1.048 4.363-2.34 5.656l-11.31 11.31c-1.294 1.292-3.827 2.341-5.655 2.341-1.83 0-4.362-1.049-5.655-2.342L256 350.39l-28.31 28.23c-1.294 1.293-3.827 2.342-5.655 2.342s-4.363-1.05-5.656-2.341l-11.31-11.31c-1.292-1.294-2.34-3.827-2.34-5.655s1.048-4.362 2.34-5.655l28.29-28.25-45.26-45.25-33.909 33.88 17 17c1.292 1.293 2.34 3.827 2.34 5.655s-1.048 4.361-2.34 5.655L159.881 356c-1.294 1.292-3.827 2.34-5.656 2.34-1.828 0-4.361-1.048-5.654-2.34l-17-17-17 17c-1.294 1.292-3.827 2.34-5.655 2.34s-4.362-1.048-5.656-2.34L92 344.78c-1.291-1.294-2.34-3.827-2.34-5.655s1.049-4.361 2.34-5.655l17-17-17-17c-1.291-1.293-2.34-3.827-2.34-5.655 0-1.829 1.049-4.362 2.34-5.655l11.231-11.34c1.293-1.293 3.826-2.342 5.654-2.342s4.363 1.05 5.656 2.342l17 17 33.94-33.94-45.25-45.26-28.29 28.29c-1.294 1.292-3.827 2.34-5.655 2.34s-4.363-1.048-5.656-2.34L69.32 231.6c-1.292-1.293-2.34-3.827-2.34-5.655 0-1.829 1.048-4.362 2.34-5.655L97.61 192l-28.29-28.29c-1.292-1.293-2.34-3.826-2.34-5.655 0-1.828 1.048-4.362 2.34-5.655l11.371-11.33c1.293-1.293 3.826-2.342 5.654-2.342s4.363 1.05 5.656 2.342l28.31 28.32 45.25-45.25-33.94-33.94-17 17c-1.293 1.292-3.828 2.34-5.656 2.34s-4.361-1.048-5.655-2.34L92 95.89c-1.291-1.293-2.34-3.827-2.34-5.655 0-1.829 1.049-4.362 2.34-5.655l17-17-17-17c-1.291-1.293-2.34-3.827-2.34-5.655s1.049-4.362 2.34-5.656L103.232 28c1.293-1.292 3.826-2.34 5.654-2.34s4.363 1.048 5.656 2.34l17 17 17-17c1.293-1.292 3.826-2.34 5.655-2.34 1.828 0 4.361 1.048 5.654 2.34l11.34 11.24c1.293 1.293 2.342 3.826 2.342 5.654 0 1.83-1.05 4.363-2.341 5.656l-17 17 33.94 33.94 45.25-45.26-28.29-28.29c-1.293-1.294-2.341-3.827-2.341-5.655s1.048-4.362 2.34-5.655L216.4 5.32c1.294-1.293 3.827-2.342 5.655-2.342 1.83 0 4.363 1.05 5.656 2.342L256 33.61l28.31-28.23c1.293-1.292 3.826-2.341 5.654-2.341s4.363 1.049 5.656 2.34l11.31 11.311c1.292 1.293 2.341 3.826 2.341 5.654s-1.049 4.363-2.342 5.656l-28.29 28.25 45.261 45.26 33.91-33.89-17-17c-1.293-1.293-2.342-3.827-2.342-5.655s1.05-4.362 2.341-5.656L352.12 28c1.294-1.291 3.827-2.34 5.656-2.34 1.828 0 4.361 1.049 5.654 2.34l17 17 17-17c1.294-1.291 3.827-2.34 5.655-2.34s4.362 1.049 5.656 2.34l11.34 11.26c1.292 1.295 2.34 3.828 2.34 5.656s-1.048 4.361-2.34 5.655l-17 17 17 17c1.292 1.293 2.34 3.826 2.34 5.654 0 1.83-1.048 4.363-2.34 5.656l-11.31 11.31c-1.294 1.292-3.827 2.341-5.655 2.341s-4.363-1.049-5.656-2.34l-17-17-33.94 33.939 45.25 45.25 28.29-28.29c1.294-1.292 3.827-2.341 5.655-2.341s4.363 1.049 5.656 2.34zm-164 39.6l45.21 45.26L369.14 192l-45.2-45.25z"/><glyph glyph-name="toolbox-secondary" unicode="􏕒" horiz-adv-x="512" d="M384 80v16h128V0c0-17.664-14.336-32-32-32H32C14.336-32 0-17.664 0 0v96h128V80c0-8.832 7.168-16 16-16h32c8.832 0 16 7.168 16 16v16h128V80c0-8.832 7.168-16 16-16h32c8.832 0 16 7.168 16 16zm118.63 153.37c5.17-5.173 9.37-15.307 9.37-22.62V128H384v16c0 8.832-7.168 16-16 16h-32c-8.832 0-16-7.168-16-16v-16H192v16c0 8.832-7.168 16-16 16h-32c-8.832 0-16-7.168-16-16v-16H0v82.745c0 7.315 4.198 17.451 9.37 22.625l45.25 45.26c5.173 5.172 15.31 9.37 22.625 9.37H434.75c7.318-.001 17.457-4.203 22.63-9.38z"/><glyph glyph-name="tshirt-secondary" unicode="􏕓" d="M638.36 330l-57.3-114.4c-2.434-4.91-8.856-8.894-14.336-8.894-2.088 0-5.298.76-7.165 1.695L503 236.1c-1.829.89-4.965 1.613-7 1.613-8.831 0-16-7.168-16-16V-31.999c0-17.665-14.335-32-32-32H192c-17.664 0-32 14.335-32 32v253.612c0 8.832-7.167 16-16 16-2.034 0-5.17-.722-7-1.612l-56.599-27.7c-1.856-.912-5.043-1.654-7.111-1.654-5.475 0-11.921 3.967-14.39 8.854l-57.24 114.5c-.912 1.856-1.653 5.042-1.653 7.111 0 5.475 3.966 11.921 8.854 14.389l194.699 96.5c20.1-27.8 64.6-47.2 116.5-47.2 51.9 0 96.4 19.4 116.5 47.2l194.7-96.5c4.865-2.445 8.814-8.85 8.814-14.296 0-2.1-.768-5.328-1.713-7.204z"/><glyph glyph-name="walking-secondary" unicode="􏕔" horiz-adv-x="320" d="M208 448c26.496 0 48-21.504 48-48s-21.504-48-48-48-48 21.504-48 48 21.504 48 48 48z"/><glyph glyph-name="wallet-secondary" unicode="􏕕" horiz-adv-x="512" d="M416 176c17.664 0 32-14.336 32-32s-14.336-32-32-32-32 14.336-32 32 14.336 32 32 32zm16 240c26.496 0 48-21.504 48-48 0-8.832-7.168-16-16-16H80c-8.832 0-16-7.168-16-16s7.168-16 16-16H32c-17.664 0-32 14.336-32 32 0 35.328 28.672 64 64 64h368z"/></font>
</defs>
</svg>
