<svg xmlns="http://www.w3.org/2000/svg"><defs><font id="FontAwesome5Duotone-Solid" horiz-adv-x="640"><font-face font-family="Font Awesome 5 Duotone Solid" font-weight="900" units-per-em="512" panose-1="2 0 5 3 0 0 0 0 0 0" ascent="448" descent="-64" bbox="-1 -64.0361 640.06 449" underline-thickness="25" underline-position="-51" unicode-range="U+0020-10F89B"/><glyph glyph-name="truck-primary" unicode="" d="M624 96c8.832 0 16-7.168 16-16V48c0-8.832-7.168-16-16-16h-50.16C566 86.07 520.28 128 464 128S361.47 86.14 353.62 32h-67.24c-7.84 54.14-54.16 96-110.38 96S74 86.07 66.16 32H48C21.502 32 0 53.504 0 80v320c0 26.496 21.503 48 48 48h320c26.495 0 48-21.504 48-48v-48h44.099c10.968-.019 26.155-6.336 33.9-14.1l99.9-99.9c7.764-7.745 14.082-22.933 14.1-33.9V96h16zm-64 96v12.1L460.1 304H416V192h144z"/><glyph glyph-name="stethoscope-primary" unicode="" horiz-adv-x="512" d="M448 336c35.328 0 64-28.672 64-64s-28.672-64-64-64-64 28.672-64 64 28.672 64 64 64zm0-80c8.832 0 16 7.168 16 16s-7.168 16-16 16-16-7.168-16-16 7.168-16 16-16zM300.7 434.93c10.638-2.124 19.284-12.652 19.3-23.5V256c0-88.22-71.78-160-160-160S0 167.78 0 256v155.43c.017 10.854 8.664 21.412 19.3 23.57l62.8 12.43c1.29.26 3.404.47 4.72.47 10.845 0 21.364-8.633 23.48-19.27l3.1-15.7c.259-1.289.47-3.404.47-4.72 0-10.845-8.633-21.364-19.27-23.48l-30.7-6.1V328l.1-72c0-52.992 43.008-96 96-96s96 43.008 96 96l-.1 122.7-30.7 6.1c-10.637 2.116-19.27 12.635-19.27 23.48 0 1.316.21 3.43.47 4.72l3.2 15.73c2.116 10.637 12.634 19.27 23.48 19.27 1.315 0 3.43-.21 4.72-.47z"/><glyph glyph-name="ambulance-primary" unicode="" d="M624 96c8.832 0 16-7.168 16-16V48c0-8.832-7.168-16-16-16h-50.16C566 86.07 520.28 128 464 128S361.47 86.14 353.62 32h-67.24c-7.84 54.14-54.16 96-110.38 96S74 86.07 66.16 32H48C21.502 32 0 53.504 0 80v320c0 26.496 21.503 48 48 48h320c26.495 0 48-21.504 48-48v-48h44.099c10.968-.019 26.155-6.336 33.9-14.1l99.9-99.9c7.764-7.745 14.082-22.933 14.1-33.9V96h16zM304 264v48c0 4.416-3.584 8-8 8h-56v56c0 4.416-3.584 8-8 8h-48c-4.416 0-8-3.584-8-8v-56h-56c-4.416 0-8-3.584-8-8v-48c0-4.416 3.584-8 8-8h56v-56c0-4.416 3.584-8 8-8h48c4.416 0 8 3.584 8 8v56h56c4.416 0 8 3.584 8 8zm256-72v12.1L460.1 304H416V192h144z"/><glyph glyph-name="heartbeat-primary" unicode="" horiz-adv-x="512" d="M451 160l-.1-.05H342.31l-22.1 44.2-49.7-99.4c-2.442-4.879-8.852-8.838-14.308-8.838-5.712 0-12.249 4.229-14.592 9.438l-56.9 126.3-30-71.7H61v.05l-29.95 31.95h102.37l35.89 86.2c2.256 5.458 8.88 9.886 14.785 9.886 5.734 0 12.28-4.25 14.615-9.486l58.21-129.3 49 97.9c2.446 4.865 8.85 8.813 14.294 8.813s11.85-3.948 14.295-8.813l27.601-55.2H481z"/><glyph glyph-name="whistle-primary" unicode="" d="M634 121.67c3.302-2.651 5.981-8.24 5.981-12.475 0-2.934-1.425-7.224-3.181-9.575L558.6-4.7c-2.635-3.54-8.357-6.415-12.77-6.415-2.346 0-5.897.948-7.93 2.115L387.5 77C312.1-36.41 150.8-44.81 61 45c-65.5 65.47-78.1 163.78-38 242-12.696 10.477-23 32.34-23 48.8v.2c.034 35.295 28.706 63.967 64 64 19.2 0 36.9-8.9 49-23.5 65.3 33.6 144.4 30.8 207-9.3l86.6-63.62c3.3-2.65 5.979-8.239 5.979-12.472 0-1.484-.394-3.825-.878-5.228l-10.2-29.51c-.245-.703-.442-1.877-.442-2.622 0-2.14 1.362-4.952 3.041-6.278l25.2-20.2c1.207-.961 3.44-1.74 4.983-1.74 1.223 0 3.068.51 4.118 1.14l27.4 16.2c2.099 1.243 5.783 2.25 8.223 2.25 3.083 0 7.553-1.545 9.976-3.45zM40.4 314.79c15.2 20.6 27.3 31.9 45.1 44.91-5.036 4.595-14.656 8.323-21.473 8.323-17.587 0-31.86-14.273-31.86-31.86 0-6.774 3.688-16.35 8.233-21.373zM208 96c52.992 0 96 43.008 96 96s-43.008 96-96 96-96-43.008-96-96 43.008-96 96-96z"/><glyph glyph-name="allergies-primary" unicode="" horiz-adv-x="448" d="M176 160c8.832 0 16-7.168 16-16s-7.168-16-16-16-16 7.168-16 16 7.168 16 16 16zm64-128c8.832 0 16-7.168 16-16s-7.168-16-16-16-16 7.168-16 16 7.168 16 16 16zm64 64c8.832 0 16-7.168 16-16s-7.168-16-16-16-16 7.168-16 16 7.168 16 16 16zm64 64c8.832 0 16-7.168 16-16s-7.168-16-16-16-16 7.168-16 16 7.168 16 16 16z"/><glyph glyph-name="band-aid-primary" unicode="" d="M0 288c.033 35.295 28.705 63.967 64 64h96V32H64C28.705 32.033.033 60.705 0 96v192zm576 64c35.295-.033 63.967-28.705 64-64V96c-.033-35.295-28.705-63.967-64-64h-96v320h96zm-208-88h.06c13.215 0 23.94-10.725 23.94-23.94V240c0-13.248-10.752-24-24-24s-24 10.752-24 24 10.752 24 24 24zm0-96h.06c13.215 0 23.94-10.725 23.94-23.94V144c0-13.248-10.752-24-24-24s-24 10.752-24 24 10.752 24 24 24zm-96 96h.06c13.215 0 23.94-10.725 23.94-23.94V240c0-13.248-10.752-24-24-24s-24 10.752-24 24 10.752 24 24 24zm0-96h.06c13.215 0 23.94-10.725 23.94-23.94V144c0-13.248-10.752-24-24-24s-24 10.752-24 24 10.752 24 24 24z"/><glyph glyph-name="barcode-alt-primary" unicode="" d="M152 352c4.416 0 8-3.584 8-8V40c0-4.416-3.584-8-8-8h-48c-4.416 0-8 3.584-8 8v304c0 4.416 3.584 8 8 8h48zm64 0c4.416 0 8-3.584 8-8V40c0-4.416-3.584-8-8-8h-16c-4.416 0-8 3.584-8 8v304c0 4.416 3.584 8 8 8h16zm64 0c4.416 0 8-3.584 8-8V40c0-4.416-3.584-8-8-8h-16c-4.416 0-8 3.584-8 8v304c0 4.416 3.584 8 8 8h16zm128 0c4.416 0 8-3.584 8-8V40c0-4.416-3.584-8-8-8h-48c-4.416 0-8 3.584-8 8v304c0 4.416 3.584 8 8 8h48zm128 0c4.416 0 8-3.584 8-8V40c0-4.416-3.584-8-8-8h-48c-4.416 0-8 3.584-8 8v304c0 4.416 3.584 8 8 8h48z"/><glyph glyph-name="barcode-read-primary" unicode="" d="M184 320c4.416 0 8-3.584 8-8V72c0-4.416-3.584-8-8-8h-48c-4.416 0-8 3.584-8 8v240c0 4.416 3.584 8 8 8h48zm64 0c4.416 0 8-3.584 8-8V72c0-4.416-3.584-8-8-8h-16c-4.416 0-8 3.584-8 8v240c0 4.416 3.584 8 8 8h16zm160 0c4.416 0 8-3.584 8-8V72c0-4.416-3.584-8-8-8h-48c-4.416 0-8 3.584-8 8v240c0 4.416 3.584 8 8 8h48zm-96 0c4.416 0 8-3.584 8-8V72c0-4.416-3.584-8-8-8h-16c-4.416 0-8 3.584-8 8v240c0 4.416 3.584 8 8 8h16zm192 0c4.416 0 8-3.584 8-8V72c0-4.416-3.584-8-8-8h-48c-4.416 0-8 3.584-8 8v240c0 4.416 3.584 8 8 8h48z"/><glyph glyph-name="barcode-scan-primary" unicode="" d="M640 216v-48c0-4.416-3.584-8-8-8H8c-4.416 0-8 3.584-8 8v48c0 4.416 3.584 8 8 8h624c4.416 0 8-3.584 8-8z"/><glyph glyph-name="box-primary" unicode="" horiz-adv-x="512" d="M53.1 415.2c6.005 18.105 26.36 32.8 45.436 32.8H240V256H1.3c.4 2.5.4 5 1.2 7.4zm456.4-151.8c.8-2.4.8-4.9 1.2-7.4H272v192h141.464c19.075 0 39.43-14.695 45.436-32.8z"/><glyph glyph-name="box-check-primary" unicode="" d="M240 448V256H1.3c.4 2.5.4 5 1.2 7.4l50.6 151.8c6.006 18.106 26.36 32.8 45.436 32.8H240zm208-80c-69.6 0-132.1-29.9-176-77.4V448h141.46c19.116 0 39.472-14.74 45.44-32.9l16.3-48.8c-7.479.931-19.664 1.692-27.2 1.7zM208 128c0-78.6 38.1-148.2 96.6-192H48C21.503-64 0-42.496 0-16v240h228.2c-11.143-25.324-20.193-68.332-20.2-96zm354.2 59.7c1.735-1.77 3.144-5.22 3.144-7.7 0-2.526-1.454-6.02-3.245-7.8l-131-130c-1.775-1.764-5.247-3.194-7.75-3.194-2.547 0-6.064 1.475-7.85 3.294l-75.7 76.3c-1.762 1.776-3.193 5.247-3.193 7.75 0 2.548 1.476 6.065 3.294 7.85l26 25.8c1.776 1.763 5.247 3.194 7.75 3.194 2.548 0 6.065-1.475 7.85-3.294l42.1-42.5 97.2 96.4c1.776 1.763 5.248 3.194 7.75 3.194 2.548 0 6.065-1.476 7.85-3.294z"/><glyph glyph-name="boxes-primary" unicode="" horiz-adv-x="576" d="M560 160c8.832 0 16-7.168 16-16V-48c0-8.832-7.168-16-16-16H336c-8.832 0-16 7.168-16 16v192c0 8.832 7.168 16 16 16h80V64l32 21.3L480 64v96h80zm-384 64c-8.832 0-16 7.168-16 16v192c0 8.832 7.168 16 16 16h80v-96l32 21.3 32-21.3v96h80c8.832 0 16-7.168 16-16V240c0-8.832-7.168-16-16-16H176zm64-64c8.832 0 16-7.168 16-16V-48c0-8.832-7.168-16-16-16H16C7.168-64 0-56.832 0-48v192c0 8.832 7.168 16 16 16h80V64l32 21.3L160 64v96h80z"/><glyph glyph-name="briefcase-medical-primary" unicode="" horiz-adv-x="512" d="M464 320c26.496 0 48-21.504 48-48V-16c0-26.496-21.504-48-48-48H48C21.504-64 0-42.496 0-16v288c0 26.496 21.504 48 48 48h416zM352 104v48c0 4.416-3.584 8-8 8h-56v56c0 4.416-3.584 8-8 8h-48c-4.416 0-8-3.584-8-8v-56h-56c-4.416 0-8-3.584-8-8v-48c0-4.416 3.584-8 8-8h56V40c0-4.416 3.584-8 8-8h48c4.416 0 8 3.584 8 8v56h56c4.416 0 8 3.584 8 8z"/><glyph glyph-name="burn-primary" unicode="" horiz-adv-x="384" d="M276 114.95C276 66.12 241.44 32 192 32s-84 34.12-84 82.95c0 11.81 4 53.81 84 141 80-87.19 84-129.19 84-141z"/><glyph glyph-name="capsules-primary" unicode="" horiz-adv-x="576" d="M0 80v112h224V80c0-61.824-50.176-112-112-112S0 18.176 0 80zm555.3 67.9c11.405-16.295 20.662-45.661 20.662-65.55 0-63.1-51.212-114.313-114.312-114.313-32.855 0-74.81 21.846-93.65 48.762l-65 92.79 187.38 131.06z"/><glyph glyph-name="clipboard-check-primary" unicode="" horiz-adv-x="384" d="M285.1 221.6l28.2-28.4c1.921-1.936 3.48-5.722 3.48-8.45 0-2.773-1.604-6.603-3.58-8.55l-143-141.8c-1.936-1.92-5.722-3.48-8.45-3.48-2.773 0-6.603 1.605-8.55 3.58l-82.6 83.3c-1.92 1.937-3.48 5.723-3.48 8.45 0 2.774 1.604 6.604 3.58 8.55L99.1 163c1.937 1.921 5.723 3.48 8.45 3.48 2.774 0 6.605-1.604 8.55-3.58l46-46.4 106 105.2c1.937 1.921 5.723 3.48 8.45 3.48 2.774 0 6.605-1.604 8.55-3.58zM256 384c35.328 0 64-28.672 64-64H64c0 35.328 28.672 64 64 64 0 35.328 28.672 64 64 64s64-28.672 64-64zm-64-24h.06c13.215 0 23.94 10.725 23.94 23.94v.06c0 13.248-10.752 24-24 24s-24-10.752-24-24 10.752-24 24-24z"/><glyph glyph-name="clipboard-list-primary" unicode="" horiz-adv-x="384" d="M96 72h.06C109.276 72 120 61.275 120 48.06V48c0-13.248-10.752-24-24-24S72 34.752 72 48s10.752 24 24 24zm0 96h.06c13.215 0 23.94-10.725 23.94-23.94V144c0-13.248-10.752-24-24-24s-24 10.752-24 24 10.752 24 24 24zm0 96h.06c13.215 0 23.94-10.725 23.94-23.94V240c0-13.248-10.752-24-24-24s-24 10.752-24 24 10.752 24 24 24zm160 120c35.328 0 64-28.672 64-64H64c0 35.328 28.672 64 64 64 0 35.328 28.672 64 64 64s64-28.672 64-64zm-64-24h.06c13.215 0 23.94 10.725 23.94 23.94v.06c0 13.248-10.752 24-24 24s-24-10.752-24-24 10.752-24 24-24z"/><glyph glyph-name="conveyor-belt-primary" unicode="" d="M544 128c52.992 0 96-43.008 96-96s-43.008-96-96-96H96C43.008-64 0-20.992 0 32s43.008 96 96 96h448zM128 0c17.664 0 32 14.336 32 32s-14.336 32-32 32-32-14.336-32-32 14.336-32 32-32zm192 0c17.664 0 32 14.336 32 32s-14.336 32-32 32-32-14.336-32-32 14.336-32 32-32zm192 0c17.664 0 32 14.336 32 32s-14.336 32-32 32-32-14.336-32-32 14.336-32 32-32zM384 320l-64 32-64-32v128h128V320z"/><glyph glyph-name="conveyor-belt-alt-primary" unicode="" d="M544 128c52.992 0 96-43.008 96-96s-43.008-96-96-96H96C43.008-64 0-20.992 0 32s43.008 96 96 96h448zM128 0c17.664 0 32 14.336 32 32s-14.336 32-32 32-32-14.336-32-32 14.336-32 32-32zm192 0c17.664 0 32 14.336 32 32s-14.336 32-32 32-32-14.336-32-32 14.336-32 32-32zm192 0c17.664 0 32 14.336 32 32s-14.336 32-32 32-32-14.336-32-32 14.336-32 32-32z"/><glyph glyph-name="dolly-primary" unicode="" horiz-adv-x="576" d="M575.2 121.6c.442-1.345.802-3.585.802-5 0-6.394-4.929-13.202-11.002-15.2L383.69 40.85c-1.23 18.227-10.31 45.447-20.27 60.76L544.8 162.1c1.352.448 3.606.812 5.03.812 6.353 0 13.149-4.888 15.17-10.912zM128 448c12.74 0 26.379-9.812 30.4-21.9l88.8-266.41c-18.24-1.223-45.482-10.3-60.81-20.26L104.9 384H16c-8.832 0-16 7.168-16 16v32c0 8.832 7.168 16 16 16h112zm245.6-57.5l33.1-99.4L346 271l-33.1 99.4z"/><glyph glyph-name="dolly-empty-primary" unicode="" horiz-adv-x="576" d="M128 448c12.74 0 26.379-9.812 30.4-21.9l88.8-266.41c-18.24-1.223-45.482-10.3-60.81-20.26L104.9 384H16c-8.832 0-16 7.168-16 16v32c0 8.832 7.168 16 16 16h112zm447.2-326.4c.442-1.345.802-3.585.802-5 0-6.394-4.929-13.202-11.002-15.2L383.69 40.85c-1.23 18.227-10.31 45.447-20.27 60.76L544.8 162.1c1.352.448 3.606.812 5.03.812 6.353 0 13.149-4.888 15.17-10.912z"/><glyph glyph-name="dolly-flatbed-primary" unicode="" d="M448 288l-48 32-48-32v128h96V288zM624 64c8.832 0 16-7.168 16-16V16c0-8.832-7.168-16-16-16H80c-8.832 0-16 7.168-16 16v368H16c-8.832 0-16 7.168-16 16v32c0 8.832 7.168 16 16 16h96c8.832 0 16-7.168 16-16V64h496z"/><glyph glyph-name="dolly-flatbed-alt-primary" unicode="" d="M640 48V16c0-8.832-7.168-16-16-16H80c-8.832 0-16 7.168-16 16v368H16c-8.832 0-16 7.168-16 16v32c0 8.832 7.168 16 16 16h96c8.832 0 16-7.168 16-16V64h496c8.832 0 16-7.168 16-16z"/><glyph glyph-name="dolly-flatbed-empty-primary" unicode="" d="M162.74 0h90.52c1.512-4.282 2.74-11.443 2.74-15.985 0-26.496-21.504-48-48-48s-48 21.504-48 48c0 4.542 1.227 11.703 2.74 15.985zm378.52 0c1.513-4.282 2.74-11.443 2.74-15.985 0-26.496-21.504-48-48-48s-48 21.504-48 48c0 4.542 1.228 11.703 2.74 15.985h90.52z"/><glyph glyph-name="file-medical-primary" unicode="" horiz-adv-x="384" d="M96 152c0 4.416 3.584 8 8 8h56v56c0 4.416 3.584 8 8 8h48c4.416 0 8-3.584 8-8v-56h56c4.416 0 8-3.584 8-8v-48c0-4.416-3.584-8-8-8h-56V40c0-4.416-3.584-8-8-8h-48c-4.416 0-8 3.584-8 8v56h-56c-4.416 0-8 3.584-8 8v48z"/><glyph glyph-name="file-medical-alt-primary" unicode="" horiz-adv-x="448" d="M351.58 128H262.1L240 172.2 183.2 58.5c-1.223-2.435-4.426-4.41-7.15-4.41s-5.928 1.975-7.15 4.41L134.1 128H8c-4.417 0-8 3.584-8 8v16c0 4.416 3.583 8 8 8h140.9c2.721-.012 5.947-1.983 7.199-4.4l19.9-39.8 56.8 113.7c1.223 2.436 4.426 4.411 7.15 4.411s5.928-1.975 7.15-4.411l34.7-69.5h70.206c8.832 0 16-7.168 16-16 0-.554-.057-1.45-.126-2-1.093-7.729-8.314-14.001-16.12-14.001l-.18.001z"/><glyph glyph-name="first-aid-primary" unicode="" horiz-adv-x="576" d="M128-32v448h320V-32H128zm64 248v-48c0-4.416 3.584-8 8-8h56v-56c0-4.416 3.584-8 8-8h48c4.416 0 8 3.584 8 8v56h56c4.416 0 8 3.584 8 8v48c0 4.416-3.584 8-8 8h-56v56c0 4.416-3.584 8-8 8h-48c-4.416 0-8-3.584-8-8v-56h-56c-4.416 0-8-3.584-8-8zM0 368c0 26.496 21.504 48 48 48h16V-32H48C21.504-32 0-10.496 0 16v352zm528 48c26.496 0 48-21.504 48-48V16c0-26.496-21.504-48-48-48h-16v448h16z"/><glyph glyph-name="forklift-primary" unicode="" d="M410.8 236.1c2.853-6.65 5.183-17.923 5.2-25.16v-103c-15.927 11.094-44.604 20.096-64.013 20.096-53.56 0-103.224-43.024-110.857-96.036h-34.26c-2.892 20.374-17.08 48.688-31.67 63.2-18.108 18.111-53.589 32.808-79.2 32.808s-61.09-14.697-79.2-32.807C11.45 89.846 3.923 80.245 0 73.77V240c0 26.496 21.505 48 48 48h48v112c0 26.496 21.505 48 48 48h144.38c17.474 0 37.24-13.037 44.122-29.1zM352 192v18.9L277.8 384H160v-96l96-96h96z"/><glyph glyph-name="hospital-alt-primary" unicode="" horiz-adv-x="576" d="M344 357.33c4.416 0 8-3.584 8-8v-26.66c0-4.416-3.584-8-8-8h-34.67V280c0-4.416-3.584-8-8-8h-26.66c-4.416 0-8 3.584-8 8v34.67H232c-4.416 0-8 3.584-8 8v26.66c0 4.416 3.584 8 8 8h34.67V392c0 4.416 3.584 8 8 8h26.66c4.416 0 8-3.584 8-8v-34.67H344zM148 64c6.624 0 12-5.376 12-12V12c0-6.624-5.376-12-12-12h-40c-6.624 0-12 5.376-12 12v40c0 6.624 5.376 12 12 12h40zm0 128c6.624 0 12-5.376 12-12v-40c0-6.624-5.376-12-12-12h-40c-6.624 0-12 5.376-12 12v40c0 6.624 5.376 12 12 12h40zM308 64c6.624 0 12-5.376 12-12V12c0-6.624-5.376-12-12-12h-40c-6.624 0-12 5.376-12 12v40c0 6.624 5.376 12 12 12h40zm0 128c6.624 0 12-5.376 12-12v-40c0-6.624-5.376-12-12-12h-40c-6.624 0-12 5.376-12 12v40c0 6.624 5.376 12 12 12h40zM468 64c6.624 0 12-5.376 12-12V12c0-6.624-5.376-12-12-12h-40c-6.624 0-12 5.376-12 12v40c0 6.624 5.376 12 12 12h40zm0 128c6.624 0 12-5.376 12-12v-40c0-6.624-5.376-12-12-12h-40c-6.624 0-12 5.376-12 12v40c0 6.624 5.376 12 12 12h40z"/><glyph glyph-name="hospital-symbol-primary" unicode="" horiz-adv-x="512" d="M368 72c0-4.416-3.584-8-8-8h-48c-4.416 0-8 3.584-8 8v88h-96V72c0-4.416-3.584-8-8-8h-48c-4.416 0-8 3.584-8 8v240c0 4.416 3.584 8 8 8h48c4.416 0 8-3.584 8-8v-88h96v88c0 4.416 3.584 8 8 8h48c4.416 0 8-3.584 8-8V72z"/><glyph glyph-name="id-card-alt-primary" unicode="" horiz-adv-x="576" d="M288 96c-35.295.033-63.967 28.705-64 64 0 35.328 28.672 64 64 64s64-28.672 64-64-28.672-64-64-64zm108.9-76.2C400.1 10 391.7 0 381.3 0H194.7c-10.401 0-18.8 10-15.601 19.8 7.938 24.398 35.203 44.2 60.86 44.2h8.241c10.541-4.416 28.372-8 39.8-8s29.259 3.584 39.8 8h8.2c25.656-.01 52.939-19.811 60.9-44.2zM352 416v-96H224v96c0 17.664 14.336 32 32 32h64c17.664 0 32-14.336 32-32z"/><glyph glyph-name="inventory-primary" unicode="" d="M624 448c8.832 0 16-7.168 16-16V-64h-64v32H64v-32H0v496c0 8.832 7.168 16 16 16h32c8.832 0 16-7.168 16-16V288h512v144c0 8.832 7.168 16 16 16h32zM576 32v192H64V32h512z"/><glyph glyph-name="notes-medical-primary" unicode="" horiz-adv-x="384" d="M255 385c35.328 0 64-28.672 64-64H63c0 35.328 28.672 64 64 64 0 35.328 28.672 64 64 64s64-28.672 64-64zm-64-24h.06c13.215 0 23.94 10.725 23.94 23.94v.06c0 13.248-10.752 24-24 24s-24-10.752-24-24 10.752-24 24-24zm89-201c4.416 0 8-3.584 8-8v-48c0-4.416-3.584-8-8-8h-56V40c0-4.416-3.584-8-8-8h-48c-4.416 0-8 3.584-8 8v56h-56c-4.416 0-8 3.584-8 8v48c0 4.416 3.584 8 8 8h56v56c0 4.416 3.584 8 8 8h48c4.416 0 8-3.584 8-8v-56h56z"/><glyph glyph-name="pallet-primary" unicode="" d="M624 64h-48V0h48c8.832 0 16-7.168 16-16v-32c0-8.832-7.168-16-16-16H16C7.168-64 0-56.832 0-48v32C0-7.168 7.168 0 16 0h48v64H16C7.168 64 0 71.168 0 80v32c0 8.832 7.168 16 16 16h608c8.832 0 16-7.168 16-16V80c0-8.832-7.168-16-16-16zM288 0v64H128V0h160zm224 0v64H352V0h160zM384 320l-64 32-64-32v128h128V320z"/><glyph glyph-name="pallet-alt-primary" unicode="" d="M624 64h-48V0h48c8.832 0 16-7.168 16-16v-32c0-8.832-7.168-16-16-16H16C7.168-64 0-56.832 0-48v32C0-7.168 7.168 0 16 0h48v64H16C7.168 64 0 71.168 0 80v32c0 8.832 7.168 16 16 16h608c8.832 0 16-7.168 16-16V80c0-8.832-7.168-16-16-16zM288 0v64H128V0h160zm224 0v64H352V0h160z"/><glyph glyph-name="pills-primary" unicode="" horiz-adv-x="576" d="M224 192V80c0-61.824-50.176-112-112-112S0 18.176 0 80v112h224z"/><glyph glyph-name="prescription-bottle-primary" unicode="" horiz-adv-x="384" d="M360 448c13.21-.038 23.962-10.79 24-24v-48c-.038-13.21-10.79-23.962-24-24H24c-13.21.038-23.962 10.79-24 24v48c.038 13.21 10.79 23.962 24 24h336zM152 64c4.416 0 8-3.584 8-8V40c0-4.416-3.584-8-8-8H32v32h120zm0 192c4.416 0 8-3.584 8-8v-16c0-4.416-3.584-8-8-8H32v32h120zm0-96c4.416 0 8-3.584 8-8v-16c0-4.416-3.584-8-8-8H32v32h120z"/><glyph glyph-name="prescription-bottle-alt-primary" unicode="" horiz-adv-x="384" d="M280 160c4.416 0 8-3.584 8-8v-48c0-4.416-3.584-8-8-8h-56V40c0-4.416-3.584-8-8-8h-48c-4.416 0-8 3.584-8 8v56h-56c-4.416 0-8 3.584-8 8v48c0 4.416 3.584 8 8 8h56v56c0 4.416 3.584 8 8 8h48c4.416 0 8-3.584 8-8v-56h56zm80 288c13.21-.038 23.962-10.79 24-24v-48c-.038-13.21-10.79-23.962-24-24H24c-13.21.038-23.962 10.79-24 24v48c.038 13.21 10.79 23.962 24 24h336z"/><glyph glyph-name="procedures-primary" unicode="" d="M136 352c-4.416 0-8 3.584-8 8v15.97c0 4.416 3.584 8 8 8h140.956c2.72 0 5.92-1.971 7.143-4.4l19.9-39.8 49.7 99.4c2.445 4.87 8.851 8.823 14.3 8.823s11.856-3.953 14.3-8.823L409.9 384H512c8.832 0 16-7.168 16-16s-7.168-16-16-16H390.1L368 396.17l-49.7-99.37c-2.444-4.87-8.85-8.823-14.3-8.823s-11.855 3.953-14.3 8.823L262.1 352H136zM256 64h384V-48c0-8.832-7.168-16-16-16h-32c-8.832 0-16 7.168-16 16V0H64v-48c0-8.832-7.168-16-16-16H16C7.168-64 0-56.832 0-48v352c0 8.832 7.168 16 16 16h32c8.832 0 16-7.168 16-16V64h192z"/><glyph glyph-name="scanner-primary" unicode="" d="M256.06 0h-51l83 143.7V32c0-17.664-14.336-32-32-32zm112 384c8.832 0 16.04-7.168 16.04-16V208c0-8.832-7.168-16-16-16H279L145.06-40c-7.644-13.269-26.276-24.036-41.59-24.036-7.102 0-17.859 2.883-24.01 6.436l-55.4 32C10.793-17.955.024.678.024 15.99c0 7.103 2.884 17.86 6.437 24.01l87.9 152.2C42.491 193.25.394 236.21.394 288.09c0 52.808 42.859 95.776 95.666 95.91h272z"/><glyph glyph-name="scanner-keyboard-primary" unicode="" horiz-adv-x="576" d="M568 448c4.416 0 8-3.584 8-8V168c0-4.416-3.584-8-8-8h-48c-4.416 0-8 3.584-8 8v272c0 4.416 3.584 8 8 8h48zm-248-8v-56h-32v56c0 4.416 3.584 8 8 8h16c4.416 0 8-3.584 8-8zm-64 0v-56h-64v56c0 4.416 3.584 8 8 8h48c4.416 0 8-3.584 8-8zm152 8c4.416 0 8-3.584 8-8v-56h-64v56c0 4.416 3.584 8 8 8h48zm64 0c4.416 0 8-3.584 8-8V168c0-4.416-3.584-8-8-8h-16c-4.416 0-8 3.584-8 8v272c0 4.416 3.584 8 8 8h16zM344 288c4.416 0 8-3.584 8-8v-48c0-4.416-3.584-8-8-8H72c-4.416 0-8 3.584-8 8v48c0 4.416 3.584 8 8 8h272z"/><glyph glyph-name="scanner-touchscreen-primary" unicode="" horiz-adv-x="576" d="M400 352c8.832 0 16-7.168 16-16V198.6c-.006-3.655-2.112-8.718-4.7-11.3L384 160V-16c0-26.496-21.504-48-48-48H80c-26.496 0-48 21.504-48 48v176L4.7 187.3c-2.588 2.582-4.694 7.645-4.7 11.3V336c0 8.832 7.168 16 16 16h384zM320 16v256c0 8.832-7.168 16-16 16H112c-8.832 0-16-7.168-16-16V16c0-8.832 7.168-16 16-16h192c8.832 0 16 7.168 16 16z"/><glyph glyph-name="shipping-fast-primary" unicode="" d="M624 96c8.832 0 16-7.168 16-16V48c0-8.832-7.168-16-16-16h-49.14c-7.624 53.025-57.29 96.06-110.86 96.06S360.764 85.025 353.14 32h-66.279c-7.635 53.012-57.298 96.035-110.856 96.035-43.002 0-90.044-32.72-105.004-73.035-3.864 6.325-7 17.475-7 24.887V192h152c4.416 0 8 3.584 8 8v16c0 4.416-3.584 8-8 8h-152v32h184c4.416 0 8 3.584 8 8v16c0 4.416-3.584 8-8 8h-184v32h216c4.416 0 8 3.584 8 8v16c0 4.416-3.584 8-8 8h-216v48c0 26.496 21.504 48 48 48h256c26.496 0 48-21.504 48-48v-48h44.1c10.967-.019 26.155-6.336 33.9-14.1l99.9-99.9c7.764-7.745 14.082-22.933 14.1-33.9V96h16zm-64 96v12.1L460.1 304H416V192h144z"/><glyph glyph-name="shipping-timed-primary" unicode="" d="M624 96c8.832 0 16-7.168 16-16V48c0-8.832-7.168-16-16-16h-50.16C566 86.07 520.28 128 464 128S361.47 86.14 353.62 32h-67.24c-7.84 54.14-54.16 96-110.38 96S74 86.07 66.16 32H48C21.502 32 0 53.504 0 80v320c0 26.496 21.503 48 48 48h320c26.495 0 48-21.504 48-48v-48h44.099c10.968-.019 26.155-6.336 33.9-14.1l99.9-99.9c7.764-7.745 14.082-22.933 14.1-33.9V96h16zm-416 80h.06C269.85 176 320 226.15 320 287.94v.06c0 61.824-50.176 112-112 112S96 349.824 96 288s50.175-112 112-112zm352 16v12.1L460.1 304H416V192h144z"/><glyph glyph-name="smoking-primary" unicode="" d="M536 96c4.416 0 8-3.584 8-8V-56c0-4.416-3.584-8-8-8h-48c-4.416 0-8 3.584-8 8V88c0 4.416 3.584 8 8 8h48zm96 0c4.416 0 8-3.584 8-8V-56c0-4.416-3.584-8-8-8h-48c-4.416 0-8 3.584-8 8V88c0 4.416 3.584 8 8 8h48zm-200 0c8.832 0 16-7.168 16-16V-48c0-8.832-7.168-16-16-16H48C21.504-64 0-42.496 0-16v64c0 26.496 21.504 48 48 48h384z"/><glyph glyph-name="syringe-primary" unicode="" horiz-adv-x="512" d="M166.82 126.88L111 182.77l22.6 22.5 55.81-55.79c1.278-1.298 2.316-3.833 2.316-5.655 0-1.823-1.038-4.356-2.316-5.655l-11.31-11.29c-1.292-1.284-3.82-2.326-5.64-2.326s-4.349 1.042-5.64 2.326zm79.11 67.89c-1.293-1.292-3.826-2.34-5.654-2.34-1.83 0-4.363 1.048-5.656 2.34l-55.69 55.81 22.59 22.59 55.71-55.79c1.29-1.293 2.337-3.824 2.337-5.65 0-1.825-1.047-4.357-2.336-5.65zm263.79 160.31l-11.3-11.31c-1.293-1.29-3.824-2.336-5.65-2.336-1.825 0-4.357 1.046-5.65 2.335l-28.3 28.311-45.3-45.31 73.5-73.5c1.276-1.29 2.311-3.81 2.311-5.625 0-1.824-1.044-4.353-2.33-5.645L453.1 208c-1.292-1.29-3.823-2.336-5.65-2.336s-4.357 1.046-5.65 2.336l-17 17-135.68 135.88-17 17c-1.287 1.292-2.331 3.821-2.331 5.645 0 1.824 1.044 4.353 2.331 5.645L306 423.08c1.293 1.29 3.824 2.336 5.65 2.336 1.826 0 4.357-1.046 5.65-2.336l17-17 56.61-56.6 45.3 45.29-28.3 28.31c-1.29 1.293-2.337 3.824-2.337 5.65 0 1.826 1.047 4.357 2.337 5.65l11.3 11.29c1.292 1.287 3.821 2.331 5.645 2.331 1.824 0 4.353-1.044 5.645-2.331l79.21-79.19c1.286-1.312 2.33-3.868 2.33-5.706 0-1.832-1.039-4.383-2.32-5.694z"/><glyph glyph-name="tablet-rugged-primary" unicode="" horiz-adv-x="448" d="M352 16c0-8.832-7.168-16-16-16H112c-8.832 0-16 7.168-16 16v352c0 8.832 7.168 16 16 16h224c8.832 0 16-7.168 16-16V16z"/><glyph glyph-name="tablets-primary" unicode="" d="M311.6 80c5 0 9.1-4.51 8.3-9.3C307.5-5.5 241.1-64 160-64S12.5-5.51.1 70.7C-.698 75.5 3.403 80 8.403 80H311.6zM8.4 112c-5 0-9.1 4.49-8.3 9.29C12.5 197.49 78.9 256 160 256s147.5-58.51 160-134.7c.8-4.8-3.3-9.3-8.3-9.3H8.4z"/><glyph glyph-name="thermometer-primary" unicode="" horiz-adv-x="512" d="M214.05 185c1.29-1.293 2.337-3.824 2.337-5.65 0-1.826-1.047-4.357-2.337-5.65l-11.3-11.3c-1.293-1.29-3.824-2.337-5.65-2.337-1.825 0-4.357 1.047-5.65 2.337l-50.06 50.14 22.53 22.67zm62.7 163.77l22.5 22.64 50.5-50.51c1.29-1.292 2.336-3.823 2.336-5.65s-1.046-4.357-2.336-5.65l-11.3-11.3c-1.293-1.289-3.824-2.336-5.65-2.336s-4.358 1.047-5.65 2.336zm-6.1-118.37c-1.291-1.276-3.81-2.312-5.625-2.312s-4.335 1.036-5.625 2.312l-50.3 50.23 22.6 22.74L282 253c1.29-1.293 2.336-3.825 2.336-5.65 0-1.826-1.046-4.357-2.336-5.65z"/><glyph glyph-name="vial-primary" unicode="" horiz-adv-x="480" d="M477.65 261.88c1.3-1.283 2.354-3.808 2.354-5.635 0-1.803-1.033-4.305-2.304-5.585l-34-33.89c-1.293-1.29-3.824-2.336-5.65-2.336s-4.358 1.047-5.65 2.336l-11.2 11.1L174.9-17.84c-16.613-16.61-49.16-30.09-72.652-30.09h-.761c-26.065 0-60.957 16.083-77.888 35.9-35.7 41.5-29.4 104.81 9.4 143.5l242.35 241.91-11.199 11.1c-1.287 1.292-2.332 3.82-2.332 5.645s1.045 4.353 2.332 5.645l34 33.9c1.292 1.29 3.823 2.336 5.65 2.336s4.357-1.046 5.65-2.336zM141 16.16l246.25 245.7-78 77.54L66.85 97.5c-9.213-9.272-17.55-27.372-18.61-40.4C47.15 42.77 51.33 29.32 60 19.24 68.944 8.707 87.415.158 101.234.158l.457.002h.672c12.493 0 29.802 7.167 38.637 16z"/><glyph glyph-name="vials-primary" unicode="" d="M360 384c-4.416 0-8 3.584-8 8v48c0 4.416 3.584 8 8 8h208c4.416 0 8-3.584 8-8v-48c0-4.416-3.584-8-8-8h-24V144c0-44.16-35.84-80-80-80s-80 35.84-80 80v240h-24zm72 0V144c0-17.664 14.336-32 32-32s32 14.336 32 32v240h-64zM624 0c8.832 0 16-7.168 16-16v-32c0-8.832-7.168-16-16-16H16C7.168-64 0-56.832 0-48v32C0-7.168 7.168 0 16 0h608zM72 384c-4.416 0-8 3.584-8 8v48c0 4.416 3.584 8 8 8h208c4.416 0 8-3.584 8-8v-48c0-4.416-3.584-8-8-8h-24V144c0-44.16-35.84-80-80-80s-80 35.84-80 80v240H72zm72 0V144c0-17.664 14.336-32 32-32s32 14.336 32 32v240h-64z"/><glyph glyph-name="warehouse-primary" unicode="" d="M640 286.72V-56c0-4.416-3.584-8-8-8h-80c-4.416 0-8 3.584-8 8v248c0 17.6-14.6 32-32.6 32H128.6c-18 0-32.6-14.4-32.6-32V-56c0-4.416-3.584-8-8-8H8c-4.416 0-8 3.584-8 8v342.72c.03 17.625 13.247 37.463 29.5 44.28l272 113.3c4.89 2.034 13.155 3.683 18.45 3.683s13.56-1.65 18.45-3.683L610.5 331c16.253-6.817 29.469-26.655 29.5-44.28z"/><glyph glyph-name="warehouse-alt-primary" unicode="" d="M640 286.72V-56c0-4.416-3.584-8-8-8h-48c-4.416 0-8 3.584-8 8v296c0 8.832-7.168 16-16 16H80c-8.832 0-16-7.168-16-16V-56c0-4.416-3.584-8-8-8H8c-4.416 0-8 3.584-8 8v342.72c.031 17.625 13.247 37.463 29.5 44.28l272 113.3c4.89 2.034 13.155 3.683 18.45 3.683s13.56-1.65 18.45-3.683L610.5 331c16.253-6.817 29.47-26.655 29.5-44.28z"/><glyph glyph-name="weight-primary" unicode="" horiz-adv-x="512" d="M512 320V0c-.038-35.29-28.71-63.962-64-64H64C28.71-63.962.038-35.29 0 0v320c.038 35.29 28.71 63.962 64 64h26c-14.337-24.557-25.985-67.564-26-96 0-105.87 86.13-192 192-192s192 86.13 192 192c-.015 28.436-11.663 71.443-26 96h26c35.29-.038 63.962-28.71 64-64zM256 200h-.14c-22.08 0-40 17.92-40 40 0 22.003 17.857 39.923 39.86 40l33.56 78.3c2.293 5.362 8.888 9.715 14.72 9.715 8.837 0 16.01-7.173 16.01-16.01 0-1.81-.578-4.631-1.29-6.295l-33.58-78.33c5.983-6.372 10.84-18.639 10.84-27.38 0-22.068-17.912-39.988-39.98-40z"/><glyph glyph-name="x-ray-primary" unicode="" d="M240 64c8.832 0 16-7.168 16-16s-7.168-16-16-16-16 7.168-16 16 7.168 16 16 16zm160-32c-8.832 0-16 7.168-16 16s7.168 16 16 16 16-7.168 16-16-7.168-16-16-16zM624 0c8.832 0 16-7.168 16-16v-32c0-8.832-7.168-16-16-16H16C7.168-64 0-56.832 0-48v32C0-7.168 7.168 0 16 0h48v352h512V0h48zM480 200v16c0 4.416-3.584 8-8 8H336v32h104c4.416 0 8 3.584 8 8v16c0 4.416-3.584 8-8 8H336v24c0 4.416-3.584 8-8 8h-16c-4.416 0-8-3.584-8-8v-24H200c-4.416 0-8-3.584-8-8v-16c0-4.416 3.584-8 8-8h104v-32H168c-4.416 0-8-3.584-8-8v-16c0-4.416 3.584-8 8-8h136v-32H200c-4.416 0-8-3.584-8-8v-16c0-4.416 3.584-8 8-8h104V96h-64c-26.496 0-48-21.504-48-48s21.504-48 48-48 48 21.504 48 48v16h64V48c0-26.496 21.504-48 48-48s48 21.504 48 48-21.504 48-48 48h-64v32h104c4.416 0 8 3.584 8 8v16c0 4.416-3.584 8-8 8H336v32h136c4.416 0 8 3.584 8 8zm144 248c8.832 0 16-7.168 16-16v-32c0-8.832-7.168-16-16-16H16c-8.832 0-16 7.168-16 16v32c0 8.832 7.168 16 16 16h608z"/><glyph glyph-name="truck-secondary" unicode="􏃑" d="M176 96c44.16 0 80-35.84 80-80s-35.84-80-80-80-80 35.84-80 80 35.84 80 80 80zm288 0c44.16 0 80-35.84 80-80s-35.84-80-80-80-80 35.84-80 80 35.84 80 80 80z"/><glyph glyph-name="stethoscope-secondary" unicode="􏃱" horiz-adv-x="512" d="M480 216.58V104c0-92.6-79-168-176-168-95.39 0-173.28 72.78-175.9 163.17h64.1c2.7-55.1 51.9-99.2 111.9-99.2 61.8 0 112 46.7 112 104v112.56c-.1-.53 63.9-.53 63.9.05z"/><glyph glyph-name="ambulance-secondary" unicode="􏃹" d="M464 96c44.16 0 80-35.84 80-80s-35.84-80-80-80-80 35.84-80 80 35.84 80 80 80zm-288 0c44.16 0 80-35.84 80-80s-35.84-80-80-80-80 35.84-80 80 35.84 80 80 80zm120 224c4.416 0 8-3.584 8-8v-48c0-4.416-3.584-8-8-8h-56v-56c0-4.416-3.584-8-8-8h-48c-4.416 0-8 3.584-8 8v56h-56c-4.416 0-8 3.584-8 8v48c0 4.416 3.584 8 8 8h56v56c0 4.416 3.584 8 8 8h48c4.416 0 8-3.584 8-8v-56h56z"/><glyph glyph-name="heartbeat-secondary" unicode="􏈞" horiz-adv-x="512" d="M320.21 204.15l22.1-44.2h109.11L268.81-26.55c-2.903-3.022-8.66-5.474-12.85-5.474s-9.947 2.452-12.85 5.474l-182.5 186.5h94.1l30 71.7 56.9-126.301c2.343-5.209 8.88-9.438 14.592-9.438 5.456 0 11.866 3.96 14.308 8.838zM473.71 374c48.71-49.75 50.8-129.05 7.29-182.1H362.11l-27.6 55.2c-2.446 4.864-8.85 8.813-14.295 8.813s-11.85-3.949-14.295-8.814l-49-97.9-58.21 129.3c-2.334 5.237-8.881 9.487-14.615 9.487-5.905 0-12.529-4.429-14.786-9.887L133.42 191.9H31.01c-43.5 53-41.399 132.3 7.3 182.1l2.391 2.45c21.26 21.818 63.237 39.524 93.7 39.524 30.462 0 72.44-17.706 93.7-39.524l27.9-28.5 27.92 28.55c21.276 21.774 63.252 39.446 93.695 39.446s72.418-17.672 93.694-39.446z"/><glyph glyph-name="whistle-secondary" unicode="􏑠" d="M208 288c52.992 0 96-43.008 96-96s-43.008-96-96-96-96 43.008-96 96 43.008 96 96 96zm0-144c26.496 0 48 21.504 48 48s-21.504 48-48 48-48-21.504-48-48 21.504-48 48-48z"/><glyph glyph-name="allergies-secondary" unicode="􏑡" horiz-adv-x="448" d="M416 336c17.614-.05 31.95-14.386 32-32V128c-.164-11.83-2.448-30.79-5.1-42.32L416.4-27c-4.784-20.424-25.69-37-46.668-37H172.08c-13.485.023-30.868 8.893-38.8 19.8L7.67 128.46C3.453 134.263.03 144.8.03 151.974c0 22.083 17.923 40.006 40.006 40.006 11.252 0 25.75-7.388 32.365-16.49L96 143v241c0 17.664 14.335 32 32 32s32-14.336 32-32V232c0-4.416 3.583-8 8-8h16c4.415 0 8 3.584 8 8v184c0 17.664 14.335 32 32 32s32-14.336 32-32V232c0-4.416 3.583-8 8-8h16c4.415 0 8 3.584 8 8v152c0 17.664 14.335 32 32 32s32-14.336 32-32V232c0-4.416 3.583-8 8-8h16c4.415 0 8 3.584 8 8v72c.05 17.614 14.385 31.95 32 32zM176 160c-8.832 0-16-7.168-16-16s7.168-16 16-16 16 7.168 16 16-7.168 16-16 16zm0-127.92c8.832 0 16 7.168 16 16s-7.168 16-16 16-16-7.168-16-16 7.168-16 16-16zM240 0c8.832 0 16 7.168 16 16s-7.168 16-16 16-16-7.168-16-16 7.168-16 16-16zm0 96.07c8.832 0 16 7.168 16 16s-7.168 16-16 16-16-7.168-16-16 7.168-16 16-16zM304 64c8.832 0 16 7.168 16 16s-7.168 16-16 16-16-7.168-16-16 7.168-16 16-16zM336 .09c8.832 0 16 7.168 16 16s-7.168 16-16 16-16-7.168-16-16 7.168-16 16-16zM368 128c8.832 0 16 7.168 16 16s-7.168 16-16 16-16-7.168-16-16 7.168-16 16-16z"/><glyph glyph-name="band-aid-secondary" unicode="􏑢" d="M192 32v320h256V32H192zm176 232h-.06c-13.215 0-23.94-10.725-23.94-23.94V240c0-13.248 10.752-24 24-24s24 10.752 24 24-10.752 24-24 24zm0-96h-.06c-13.215 0-23.94-10.725-23.94-23.94V144c0-13.248 10.752-24 24-24s24 10.752 24 24-10.752 24-24 24zm-96 96h-.06c-13.215 0-23.94-10.725-23.94-23.94V240c0-13.248 10.752-24 24-24s24 10.752 24 24-10.752 24-24 24zm0-96h-.06c-13.215 0-23.94-10.725-23.94-23.94V144c0-13.248 10.752-24 24-24s24 10.752 24 24-10.752 24-24 24z"/><glyph glyph-name="barcode-alt-secondary" unicode="􏑣" d="M592 448c26.496 0 48-21.504 48-48V-16c0-26.496-21.504-48-48-48H48C21.504-64 0-42.496 0-16v416c0 26.496 21.504 48 48 48h544zM160 40v304c0 4.416-3.584 8-8 8h-48c-4.416 0-8-3.584-8-8V40c0-4.416 3.584-8 8-8h48c4.416 0 8 3.584 8 8zm64 0v304c0 4.416-3.584 8-8 8h-16c-4.416 0-8-3.584-8-8V40c0-4.416 3.584-8 8-8h16c4.416 0 8 3.584 8 8zm64 0v304c0 4.416-3.584 8-8 8h-16c-4.416 0-8-3.584-8-8V40c0-4.416 3.584-8 8-8h16c4.416 0 8 3.584 8 8zm128 0v304c0 4.416-3.584 8-8 8h-48c-4.416 0-8-3.584-8-8V40c0-4.416 3.584-8 8-8h48c4.416 0 8 3.584 8 8zm128 0v304c0 4.416-3.584 8-8 8h-48c-4.416 0-8-3.584-8-8V40c0-4.416 3.584-8 8-8h48c4.416 0 8 3.584 8 8z"/><glyph glyph-name="barcode-read-secondary" unicode="􏑤" d="M144 0c8.832 0 16-7.168 16-16v-32c0-8.832-7.168-16-16-16H16C7.168-64 0-56.832 0-48V80c0 8.832 7.168 16 16 16h32c8.832 0 16-7.168 16-16V0h80zm0 448c8.832 0 16-7.168 16-16v-32c0-8.832-7.168-16-16-16H64v-80c0-8.832-7.168-16-16-16H16c-8.832 0-16 7.168-16 16v128c0 8.832 7.168 16 16 16h128zm480 0c8.832 0 16-7.168 16-16V304c0-8.832-7.168-16-16-16h-32c-8.832 0-16 7.168-16 16v80h-80c-8.832 0-16 7.168-16 16v32c0 8.832 7.168 16 16 16h128zm0-352c8.832 0 16-7.168 16-16V-48c0-8.832-7.168-16-16-16H496c-8.832 0-16 7.168-16 16v32c0 8.832 7.168 16 16 16h80v80c0 8.832 7.168 16 16 16h32z"/><glyph glyph-name="barcode-scan-secondary" unicode="􏑥" d="M280 448c4.416 0 8-3.584 8-8V288h-64v152c0 4.416 3.584 8 8 8h48zm-128 0c4.416 0 8-3.584 8-8V288H64v152c0 4.416 3.584 8 8 8h80zM64-56V96h96V-56c0-4.416-3.584-8-8-8H72c-4.416 0-8 3.584-8 8zm408 504c4.416 0 8-3.584 8-8V288h-64v152c0 4.416 3.584 8 8 8h48zm96 0c4.416 0 8-3.584 8-8V288h-64v152c0 4.416 3.584 8 8 8h48zm-192 0c4.416 0 8-3.584 8-8V288h-32v152c0 4.416 3.584 8 8 8h16zM512-56V96h64V-56c0-4.416-3.584-8-8-8h-48c-4.416 0-8 3.584-8 8zm-288 0V96h64V-56c0-4.416-3.584-8-8-8h-48c-4.416 0-8 3.584-8 8zm192 0V96h64V-56c0-4.416-3.584-8-8-8h-48c-4.416 0-8 3.584-8 8zm-64 0V96h32V-56c0-4.416-3.584-8-8-8h-16c-4.416 0-8 3.584-8 8z"/><glyph glyph-name="box-secondary" unicode="􏑦" horiz-adv-x="512" d="M512 224V-16c0-26.496-21.504-48-48-48H48C21.504-64 0-42.496 0-16v240h512z"/><glyph glyph-name="box-check-secondary" unicode="􏑧" d="M448 320c106 0 192-86 192-192S554-64 448-64 256 22 256 128s86 192 192 192zm114.1-147.8c1.791 1.78 3.244 5.274 3.244 7.8 0 2.48-1.408 5.93-3.143 7.7l-25.8 26c-1.785 1.818-5.302 3.294-7.85 3.294-2.503 0-5.974-1.43-7.75-3.194L423.6 117.4l-42.1 42.5c-1.785 1.819-5.301 3.294-7.85 3.294-2.502 0-5.974-1.431-7.75-3.194l-26-25.8c-1.818-1.785-3.293-5.302-3.293-7.85 0-2.503 1.43-5.974 3.193-7.75l75.7-76.3c1.786-1.819 5.302-3.294 7.85-3.294 2.503 0 5.975 1.43 7.75 3.194z"/><glyph glyph-name="boxes-secondary" unicode="􏑨" horiz-adv-x="576" d="M480 160V64l-32 21.3L416 64v96h64zM320 448v-96l-32 21.3-32-21.3v96h64zM160 160V64l-32 21.3L96 64v96h64z"/><glyph glyph-name="briefcase-medical-secondary" unicode="􏑩" horiz-adv-x="512" d="M192 320h-64v48c0 26.496 21.504 48 48 48h160c26.496 0 48-21.504 48-48v-48h-64v32H192v-32z"/><glyph glyph-name="burn-secondary" unicode="􏑪" horiz-adv-x="384" d="M192 448c111.8-100.9 192-220.6 192-300.5C384 23 305-64 192-64S0 23 0 147.5C0 227.1 79.7 346.7 192 448zm83-415.6c21.29 20.99 33 50.31 33 82.55 0 16.3-5.1 35.18-15.17 56.11-14.97 31.13-40.96 66.99-77.24 106.56L192 303.35l-23.59-25.73c-36.24-39.56-62.24-75.43-77.24-106.56C81.1 150.13 76 131.25 76 114.95c0-32.24 11.87-61.65 33-82.55C130.13 11.5 159.64 0 192 0s61.85 11.5 83 32.4z"/><glyph glyph-name="capsules-secondary" unicode="􏑫" horiz-adv-x="576" d="M112 416c61.824 0 112-50.176 112-112V192H0v112c0 61.824 50.176 112 112 112zm312.2-80.8l66.18-94.55L303 109.59l-47 67.1v179.67c2.83 2.43 5.78 4.76 8.9 6.94 16.306 11.427 45.7 20.7 65.612 20.7 32.874 0 74.846-21.862 93.688-48.8z"/><glyph glyph-name="clipboard-check-secondary" unicode="􏑬" horiz-adv-x="384" d="M336 384c26.496 0 48-21.504 48-48V-16c0-26.496-21.504-48-48-48H48C21.504-64 0-42.496 0-16v352c0 26.496 21.504 48 48 48h80c-35.328 0-64-28.672-64-64h256c0 35.328-28.672 64-64 64h80zm-22.8-207.8c1.976 1.946 3.58 5.776 3.58 8.55 0 2.727-1.56 6.513-3.48 8.45l-28.2 28.4c-1.946 1.976-5.777 3.58-8.55 3.58-2.728 0-6.513-1.56-8.45-3.48l-106-105.2-46 46.4c-1.946 1.976-5.777 3.58-8.55 3.58-2.728 0-6.513-1.56-8.45-3.48l-28.4-28.2c-1.977-1.946-3.58-5.777-3.58-8.55 0-2.728 1.559-6.514 3.48-8.45l82.6-83.3c1.946-1.976 5.776-3.58 8.55-3.58 2.727 0 6.513 1.56 8.45 3.48z"/><glyph glyph-name="clipboard-list-secondary" unicode="􏑭" horiz-adv-x="384" d="M336 384c26.496 0 48-21.504 48-48V-16c0-26.496-21.504-48-48-48H48C21.504-64 0-42.496 0-16v352c0 26.496 21.504 48 48 48h80c-35.328 0-64-28.672-64-64h256c0 35.328-28.672 64-64 64h80zM96 24h.06C109.276 24 120 34.725 120 47.94V48c0 13.248-10.752 24-24 24S72 61.248 72 48s10.752-24 24-24zm0 96h.06c13.215 0 23.94 10.725 23.94 23.94v.06c0 13.248-10.752 24-24 24s-24-10.752-24-24 10.752-24 24-24zm0 96h.06c13.215 0 23.94 10.725 23.94 23.94v.06c0 13.248-10.752 24-24 24s-24-10.752-24-24 10.752-24 24-24zM320 40v16c0 4.416-3.584 8-8 8H168c-4.416 0-8-3.584-8-8V40c0-4.416 3.584-8 8-8h144c4.416 0 8 3.584 8 8zm0 96v16c0 4.416-3.584 8-8 8H168c-4.416 0-8-3.584-8-8v-16c0-4.416 3.584-8 8-8h144c4.416 0 8 3.584 8 8zm0 96v16c0 4.416-3.584 8-8 8H168c-4.416 0-8-3.584-8-8v-16c0-4.416 3.584-8 8-8h144c4.416 0 8 3.584 8 8z"/><glyph glyph-name="conveyor-belt-secondary" unicode="􏑮" d="M128 208v224c0 8.832 7.168 16 16 16h352c8.832 0 16-7.168 16-16V208c0-8.832-7.168-16-16-16H144c-8.832 0-16 7.168-16 16z"/><glyph glyph-name="conveyor-belt-alt-secondary" unicode="􏑯" d="M304 448c8.832 0 16-7.168 16-16V208c0-8.832-7.168-16-16-16H80c-8.832 0-16 7.168-16 16v224c0 8.832 7.168 16 16 16h224zm256-64c8.832 0 16-7.168 16-16V208c0-8.832-7.168-16-16-16H400c-8.832 0-16 7.168-16 16v160c0 8.832 7.168 16 16 16h160z"/><glyph glyph-name="dolly-secondary" unicode="􏑲" horiz-adv-x="576" d="M515.3 219.6c.448-1.352.812-3.605.812-5.03 0-6.354-4.89-13.149-10.912-15.17l-161.5-53.8c-12.343 9.459-34.52 20.524-49.5 24.7l-53 159.4c-.448 1.353-.811 3.606-.811 5.03 0 6.354 4.889 13.15 10.911 15.17l183.4 61c1.353.448 3.605.812 5.03.812 6.354 0 13.15-4.889 15.17-10.912zM256 128c52.992 0 96-43.008 96-96s-43.008-96-96-96-96 43.008-96 96 43.008 96 96 96zm0-128c17.664 0 32 14.336 32 32s-14.336 32-32 32-32-14.336-32-32 14.336-32 32-32z"/><glyph glyph-name="dolly-empty-secondary" unicode="􏑳" horiz-adv-x="576" d="M256 128c52.992 0 96-43.008 96-96s-43.008-96-96-96-96 43.008-96 96 43.008 96 96 96zm0-128c17.664 0 32 14.336 32 32s-14.336 32-32 32-32-14.336-32-32 14.336-32 32-32z"/><glyph glyph-name="dolly-flatbed-secondary" unicode="􏑴" d="M450.74 0h90.52c1.512-4.282 2.74-11.443 2.74-15.985 0-26.496-21.504-48-48-48s-48 21.504-48 48c0 4.542 1.227 11.703 2.74 15.985zm-288 0h90.52c1.512-4.282 2.74-11.443 2.74-15.985 0-26.496-21.504-48-48-48s-48 21.504-48 48c0 4.542 1.227 11.703 2.74 15.985zM592 416c8.832 0 16-7.168 16-16V144c0-8.832-7.168-16-16-16H208c-8.832 0-16 7.168-16 16v256c0 8.832 7.168 16 16 16h144V288l48 32 48-32v128h144z"/><glyph glyph-name="dolly-flatbed-alt-secondary" unicode="􏑵" d="M432 288c-8.832 0-16 7.168-16 16v96c0 8.832 7.168 16 16 16h96c8.832 0 16-7.168 16-16v-96c0-8.832-7.168-16-16-16h-96zm-64 128c8.832 0 16-7.168 16-16V144c0-8.832-7.168-16-16-16H208c-8.832 0-16 7.168-16 16v256c0 8.832 7.168 16 16 16h160zm224-160c8.832 0 16-7.168 16-16v-96c0-8.832-7.168-16-16-16H432c-8.832 0-16 7.168-16 16v96c0 8.832 7.168 16 16 16h160zM450.74 0h90.52c1.512-4.282 2.74-11.443 2.74-15.985 0-26.496-21.504-48-48-48s-48 21.504-48 48c0 4.542 1.227 11.703 2.74 15.985zm-288 0h90.52c1.512-4.282 2.74-11.443 2.74-15.985 0-26.496-21.504-48-48-48s-48 21.504-48 48c0 4.542 1.227 11.703 2.74 15.985z"/><glyph glyph-name="dolly-flatbed-empty-secondary" unicode="􏑶" d="M640 48V16c0-8.832-7.168-16-16-16H80c-8.832 0-16 7.168-16 16v368H16c-8.832 0-16 7.168-16 16v32c0 8.832 7.168 16 16 16h96c8.832 0 16-7.168 16-16V64h496c8.832 0 16-7.168 16-16z"/><glyph glyph-name="file-medical-secondary" unicode="􏑷" horiz-adv-x="384" d="M224 312c.038-13.21 10.79-23.962 24-24h136V-40.06C384-53.276 373.275-64 360.06-64H23.94C10.724-64 0-53.275 0-40.06v464.12C0 437.276 10.725 448 23.94 448H224V312zm153 31c3.862-3.865 6.998-11.437 7-16.9V320H256v128h6.16c5.473 0 13.063-3.136 16.94-7z"/><glyph glyph-name="file-medical-alt-secondary" unicode="􏑸" horiz-adv-x="448" d="M312 288h136V-40.06C448-53.276 437.275-64 424.06-64H87.94C74.724-64 64-53.275 64-40.06V128h70.1l34.8-69.5c1.222-2.436 4.425-4.411 7.15-4.411s5.927 1.975 7.15 4.411L240 172.2l22.1-44.2h89.48l.18-.001c7.805 0 15.027 6.272 16.12 14 .07.55.126 1.447.126 2 0 8.833-7.168 16-16 16H281.8l-34.7 69.5c-1.222 2.436-4.425 4.412-7.15 4.412s-5.928-1.976-7.15-4.411L176 115.8l-19.9 39.8c-1.252 2.417-4.478 4.388-7.2 4.4H64v264.06C64 437.276 74.724 448 87.94 448H288V312c.038-13.21 10.79-23.962 24-24zm129 55c3.862-3.865 6.998-11.437 7-16.9V320H320v128h6.16c5.473 0 13.063-3.136 16.94-7z"/><glyph glyph-name="first-aid-secondary" unicode="􏑹" horiz-adv-x="576" d="M64-32v448h64V-32H64zm384 448h64V-32h-64v448z"/><glyph glyph-name="forklift-secondary" unicode="􏑺" d="M96 96c44.16 0 80-35.84 80-80s-35.84-80-80-80-80 35.84-80 80 35.84 80 80 80zm528-32c8.832 0 16-7.168 16-16V16c0-8.832-7.168-16-16-16H496c-8.832 0-16 7.168-16 16v416c0 8.832 7.168 16 16 16h32c8.832 0 16-7.168 16-16V64h80zM352 96c44.16 0 80-35.84 80-80s-35.84-80-80-80-80 35.84-80 80 35.84 80 80 80z"/><glyph glyph-name="hospital-alt-secondary" unicode="􏑽" horiz-adv-x="576" d="M544 352c17.664 0 32-14.336 32-32V-48c0-8.832-7.168-16-16-16H16C7.168-64 0-56.832 0-48v368c0 17.664 14.336 32 32 32h128v64c0 17.664 14.336 32 32 32h192c17.664 0 32-14.336 32-32v-64h128zM160 12v40c0 6.624-5.376 12-12 12h-40c-6.624 0-12-5.376-12-12V12c0-6.624 5.376-12 12-12h40c6.624 0 12 5.376 12 12zm0 128v40c0 6.624-5.376 12-12 12h-40c-6.624 0-12-5.376-12-12v-40c0-6.624 5.376-12 12-12h40c6.624 0 12 5.376 12 12zM320 12v40c0 6.624-5.376 12-12 12h-40c-6.624 0-12-5.376-12-12V12c0-6.624 5.376-12 12-12h40c6.624 0 12 5.376 12 12zm0 128v40c0 6.624-5.376 12-12 12h-40c-6.624 0-12-5.376-12-12v-40c0-6.624 5.376-12 12-12h40c6.624 0 12 5.376 12 12zm32 182.67v26.66c0 4.416-3.584 8-8 8h-34.67V392c0 4.416-3.584 8-8 8h-26.66c-4.416 0-8-3.584-8-8v-34.67H232c-4.416 0-8-3.584-8-8v-26.66c0-4.416 3.584-8 8-8h34.67V280c0-4.416 3.584-8 8-8h26.66c4.416 0 8 3.584 8 8v34.67H344c4.416 0 8 3.584 8 8zM480 12v40c0 6.624-5.376 12-12 12h-40c-6.624 0-12-5.376-12-12V12c0-6.624 5.376-12 12-12h40c6.624 0 12 5.376 12 12zm0 128v40c0 6.624-5.376 12-12 12h-40c-6.624 0-12-5.376-12-12v-40c0-6.624 5.376-12 12-12h40c6.624 0 12 5.376 12 12z"/><glyph glyph-name="hospital-symbol-secondary" unicode="􏑾" horiz-adv-x="512" d="M256 448c141.4 0 256-114.6 256-256S397.4-64 256-64 0 50.6 0 192s114.6 256 256 256zM368 72v240c0 4.416-3.584 8-8 8h-48c-4.416 0-8-3.584-8-8v-88h-96v88c0 4.416-3.584 8-8 8h-48c-4.416 0-8-3.584-8-8V72c0-4.416 3.584-8 8-8h48c4.416 0 8 3.584 8 8v88h96V72c0-4.416 3.584-8 8-8h48c4.416 0 8 3.584 8 8z"/><glyph glyph-name="id-card-alt-secondary" unicode="􏑿" horiz-adv-x="576" d="M528 384c26.496 0 48-21.504 48-48V-16c0-26.496-21.504-48-48-48H48C21.504-64 0-42.496 0-16v352c0 26.496 21.504 48 48 48h144v-96h192v96h144zM288 224c-35.295-.033-63.967-28.705-64-64 0-35.328 28.672-64 64-64s64 28.672 64 64-28.672 64-64 64zM381.3 0c10.4 0 18.8 10 15.6 19.8-7.96 24.389-35.243 44.19-60.9 44.2h-8.2c-10.541-4.416-28.371-8-39.8-8s-29.259 3.584-39.8 8h-8.24c-25.657 0-52.922-19.802-60.86-44.2C175.9 10 184.3 0 194.7 0h186.6z"/><glyph glyph-name="inventory-secondary" unicode="􏒀" d="M208 192c8.832 0 16-7.168 16-16V80c0-8.832-7.168-16-16-16h-96c-8.832 0-16 7.168-16 16v96c0 8.832 7.168 16 16 16h96zm256 256c8.832 0 16-7.168 16-16v-96c0-8.832-7.168-16-16-16h-96c-8.832 0-16 7.168-16 16v96c0 8.832 7.168 16 16 16h96zm-96-256c8.832 0 16-7.168 16-16V80c0-8.832-7.168-16-16-16h-96c-8.832 0-16 7.168-16 16v96c0 8.832 7.168 16 16 16h96z"/><glyph glyph-name="notes-medical-secondary" unicode="􏒁" horiz-adv-x="384" d="M335 385c26.496 0 48-21.504 48-48V-15c0-26.496-21.504-48-48-48H47C20.504-63-1-41.496-1-15v352c0 26.496 21.504 48 48 48h80c-35.328 0-64-28.672-64-64h256c0 35.328-28.672 64-64 64h80zm-47-281v48c0 4.416-3.584 8-8 8h-56v56c0 4.416-3.584 8-8 8h-48c-4.416 0-8-3.584-8-8v-56h-56c-4.416 0-8-3.584-8-8v-48c0-4.416 3.584-8 8-8h56V40c0-4.416 3.584-8 8-8h48c4.416 0 8 3.584 8 8v56h56c4.416 0 8 3.584 8 8z"/><glyph glyph-name="pallet-secondary" unicode="􏒂" d="M256 448V320l64 32 64-32v128h112c8.832 0 16-7.168 16-16V208c0-8.832-7.168-16-16-16H144c-8.832 0-16 7.168-16 16v224c0 8.832 7.168 16 16 16h112z"/><glyph glyph-name="pallet-alt-secondary" unicode="􏒃" d="M560 384c8.832 0 16-7.168 16-16V208c0-8.832-7.168-16-16-16H400c-8.832 0-16 7.168-16 16v160c0 8.832 7.168 16 16 16h160zm-256 64c8.832 0 16-7.168 16-16V208c0-8.832-7.168-16-16-16H80c-8.832 0-16 7.168-16 16v224c0 8.832 7.168 16 16 16h224z"/><glyph glyph-name="pills-secondary" unicode="􏒄" horiz-adv-x="576" d="M299.7 221.7L510.5 10.9c1.344-1.321 2.434-3.922 2.434-5.806 0-2.236-1.449-5.146-3.234-6.495-62.5-45.3-150.1-40.4-206.4 15.9s-61.2 143.9-15.9 206.4c1.361 1.765 4.274 3.198 6.503 3.198 1.873 0 4.47-1.074 5.798-2.398zm229.8 19c56.4-56.3 61.2-143.8 15.9-206.4-1.36-1.765-4.274-3.197-6.502-3.197-1.874 0-4.471 1.074-5.798 2.397L322.3 244.3c-1.343 1.32-2.434 3.921-2.434 5.805 0 2.237 1.45 5.147 3.233 6.495 62.5 45.3 150.101 40.4 206.4-15.9zM112 416h.06C173.85 416 224 365.85 224 304.06V192H0v112.06C0 365.851 50.149 416 111.94 416h.06z"/><glyph glyph-name="prescription-bottle-secondary" unicode="􏒅" horiz-adv-x="384" d="M32 320h320V-32c-.05-17.614-14.386-31.95-32-32H64c-17.614.05-31.95 14.386-32 32v64h120c4.416 0 8 3.584 8 8v16c0 4.416-3.584 8-8 8H32v64h120c4.416 0 8 3.584 8 8v16c0 4.416-3.584 8-8 8H32v64h120c4.416 0 8 3.584 8 8v16c0 4.416-3.584 8-8 8H32v64z"/><glyph glyph-name="prescription-bottle-alt-secondary" unicode="􏒆" horiz-adv-x="384" d="M32-32v352h320V-32c-.05-17.614-14.386-31.95-32-32H64c-17.614.05-31.95 14.386-32 32zm64 184v-48c0-4.416 3.584-8 8-8h56V40c0-4.416 3.584-8 8-8h48c4.416 0 8 3.584 8 8v56h56c4.416 0 8 3.584 8 8v48c0 4.416-3.584 8-8 8h-56v56c0 4.416-3.584 8-8 8h-48c-4.416 0-8-3.584-8-8v-56h-56c-4.416 0-8-3.584-8-8z"/><glyph glyph-name="procedures-secondary" unicode="􏒇" d="M160 224c35.328 0 64-28.672 64-64s-28.672-64-64-64-64 28.672-64 64 28.672 64 64 64zm368 0h.07c61.775 0 111.92-50.136 111.93-111.91V64H256v144c0 8.832 7.168 16 16 16h256z"/><glyph glyph-name="scanner-secondary" unicode="􏒈" d="M632.06 0c4.416 0 8-3.584 8-8v-48c0-4.416-3.584-8-8-8h-176c-4.416 0-8 3.584-8 8v48c0 4.416 3.584 8 8 8h176zm0 96c4.416 0 8-3.584 8-8V72c0-4.416-3.584-8-8-8h-176c-4.416 0-8 3.584-8 8v16c0 4.416 3.584 8 8 8h176zm0 64c4.416 0 8-3.584 8-8v-16c0-4.416-3.584-8-8-8h-176c-4.416 0-8 3.584-8 8v16c0 4.416 3.584 8 8 8h176zm0 224c4.416 0 8-3.584 8-8v-48c0-4.416-3.584-8-8-8h-176c-4.416 0-8 3.584-8 8v48c0 4.416 3.584 8 8 8h176zm0-96c4.416 0 8-3.584 8-8v-48c0-4.416-3.584-8-8-8h-176c-4.416 0-8 3.584-8 8v48c0 4.416 3.584 8 8 8h176zm0 160c4.416 0 8-3.584 8-8v-16c0-4.416-3.584-8-8-8h-176c-4.416 0-8 3.584-8 8v16c0 4.416 3.584 8 8 8h176z"/><glyph glyph-name="scanner-keyboard-secondary" unicode="􏒉" horiz-adv-x="576" d="M400 352c8.832 0 16-7.168 16-16V198.6c-.006-3.655-2.112-8.718-4.7-11.3L384 160V-16c0-26.496-21.504-48-48-48H80c-26.496 0-48 21.504-48 48v176L4.7 187.3c-2.588 2.582-4.694 7.645-4.7 11.3V336c0 8.832 7.168 16 16 16h384zM192 8v48c0 4.416-3.584 8-8 8h-80c-4.416 0-8-3.584-8-8V8c0-4.416 3.584-8 8-8h80c4.416 0 8 3.584 8 8zm0 96v48c0 4.416-3.584 8-8 8h-80c-4.416 0-8-3.584-8-8v-48c0-4.416 3.584-8 8-8h80c4.416 0 8 3.584 8 8zM320 8v48c0 4.416-3.584 8-8 8h-80c-4.416 0-8-3.584-8-8V8c0-4.416 3.584-8 8-8h80c4.416 0 8 3.584 8 8zm0 96v48c0 4.416-3.584 8-8 8h-80c-4.416 0-8-3.584-8-8v-48c0-4.416 3.584-8 8-8h80c4.416 0 8 3.584 8 8zm32 128v48c0 4.416-3.584 8-8 8H72c-4.416 0-8-3.584-8-8v-48c0-4.416 3.584-8 8-8h272c4.416 0 8 3.584 8 8z"/><glyph glyph-name="scanner-touchscreen-secondary" unicode="􏒊" horiz-adv-x="576" d="M312 448c4.416 0 8-3.584 8-8v-56h-32v56c0 4.416 3.584 8 8 8h16zm-56-8v-56h-64v56c0 4.416 3.584 8 8 8h48c4.416 0 8-3.584 8-8zm152 8c4.416 0 8-3.584 8-8v-56h-64v56c0 4.416 3.584 8 8 8h48zm160 0c4.416 0 8-3.584 8-8V168c0-4.416-3.584-8-8-8h-48c-4.416 0-8 3.584-8 8v272c0 4.416 3.584 8 8 8h48zm-96 0c4.416 0 8-3.584 8-8V168c0-4.416-3.584-8-8-8h-16c-4.416 0-8 3.584-8 8v272c0 4.416 3.584 8 8 8h16zM304 288c8.832 0 16-7.168 16-16V16c0-8.832-7.168-16-16-16H112c-8.832 0-16 7.168-16 16v256c0 8.832 7.168 16 16 16h192z"/><glyph glyph-name="shipping-fast-secondary" unicode="􏒋" d="M248 288c4.416 0 8-3.584 8-8v-16c0-4.416-3.584-8-8-8H40c-4.416 0-8 3.584-8 8v16c0 4.416 3.584 8 8 8h208zm-24-88c0-4.416-3.584-8-8-8H8c-4.416 0-8 3.584-8 8v16c0 4.416 3.584 8 8 8h208c4.416 0 8-3.584 8-8v-16zM176 96c44.16 0 80-35.84 80-80s-35.84-80-80-80-80 35.84-80 80 35.84 80 80 80zm288 0c44.16 0 80-35.84 80-80s-35.84-80-80-80-80 35.84-80 80 35.84 80 80 80zM280 352c4.416 0 8-3.584 8-8v-16c0-4.416-3.584-8-8-8H8c-4.416 0-8 3.584-8 8v16c0 4.416 3.584 8 8 8h272z"/><glyph glyph-name="shipping-timed-secondary" unicode="􏒌" d="M464 96c44.16 0 80-35.84 80-80s-35.84-80-80-80-80 35.84-80 80 35.84 80 80 80zm-288 0c44.16 0 80-35.84 80-80s-35.84-80-80-80-80 35.84-80 80 35.84 80 80 80zm72 208c4.416 0 8-3.584 8-8v-16c0-4.416-3.584-8-8-8h-48c-4.416 0-8 3.584-8 8v80c0 4.416 3.584 8 8 8h16c4.416 0 8-3.584 8-8v-56h24z"/><glyph glyph-name="smoking-secondary" unicode="􏒍" d="M553.3 360.9c47.858-32.016 86.7-104.731 86.7-162.311v-30.59c0-4.416-3.584-8-8-8h-48c-4.416 0-8 3.584-8 8v30.559c0 44.285-30.195 99.721-67.4 123.74-18.4 12-28.6 33.401-28.6 55.401V440c0 4.416 3.584 8 8 8h48c4.416 0 8-3.584 8-8v-62.3c.076-6.015 4.242-13.542 9.3-16.8zm-65.6-54.5c31.077-21.68 56.3-70.03 56.3-107.923v-30.478c0-4.416-3.584-8-8-8h-48c-4.416 0-8 3.584-8 8v30.374c0 24.045-15.993 54.746-35.7 68.527-35.7 25.1-60.3 63-60.3 106.699v66.4c0 4.416 3.584 8 8 8h48c4.416 0 8-3.584 8-8v-62.3c0-29 15.8-54.7 39.7-71.3z"/><glyph glyph-name="syringe-secondary" unicode="􏒎" horiz-adv-x="512" d="M266.43 338.17l135.69-135.689-181.89-181.91c-12.898-12.972-38.212-23.5-56.504-23.5-2.466 0-6.456.224-8.906.5l-63.59 7.11-66.3-66.3c-1.294-1.292-3.827-2.341-5.655-2.341-1.83 0-4.362 1.049-5.655 2.34l-11.3 11.3c-1.29 1.293-2.337 3.825-2.337 5.65s1.047 4.358 2.337 5.651l66.41 66.4L61.62 91c-.27 2.424-.488 6.373-.488 8.812 0 18.31 10.523 43.66 23.488 56.588L111 182.76l55.81-55.88c1.292-1.29 3.823-2.336 5.65-2.336s4.357 1.047 5.65 2.336l11.31 11.29c1.279 1.298 2.316 3.832 2.316 5.655 0 1.822-1.037 4.356-2.316 5.655l-55.86 55.85 45.29 45.28 55.76-55.84c1.293-1.293 3.826-2.342 5.654-2.342 1.83 0 4.363 1.05 5.655 2.341l11.3 11.31c1.29 1.294 2.337 3.825 2.337 5.651 0 1.825-1.047 4.357-2.337 5.65l-55.77 55.83z"/><glyph glyph-name="tablet-rugged-secondary" unicode="􏒏" horiz-adv-x="448" d="M439.2 283.6L416 272v-16l23.2-11.6c4.857-2.429 8.8-8.808 8.8-14.239V153.84c0-5.431-3.943-11.81-8.8-14.24L416 128v-16l23.2-11.6c4.857-2.429 8.8-8.808 8.8-14.239V9.84c0-5.431-3.943-11.81-8.8-14.24L416-16c0-26.496-21.504-48-48-48H80c-26.496 0-48 21.504-48 48L8.8-4.4C3.942-1.97 0 4.408 0 9.84v76.32c0 5.431 3.942 11.81 8.8 14.24L32 112v16L8.8 139.6c-4.858 2.43-8.8 8.809-8.8 14.24v76.32c0 5.431 3.942 11.81 8.8 14.24L32 256v16L8.8 283.6c-4.858 2.43-8.8 8.809-8.8 14.24v76.322c0 5.43 3.942 11.81 8.8 14.239L32 400c0 26.496 21.504 48 48 48h288c26.496 0 48-21.504 48-48l23.2-11.6c4.857-2.43 8.8-8.809 8.8-14.24v-76.32c0-5.431-3.943-11.81-8.8-14.24zM352 16v352c0 8.832-7.168 16-16 16H112c-8.832 0-16-7.168-16-16V16c0-8.832 7.168-16 16-16h224c8.832 0 16 7.168 16 16z"/><glyph glyph-name="tablets-secondary" unicode="􏒐" d="M363 382.29l211.3-211.3c1.34-1.321 2.429-3.922 2.429-5.804 0-2.236-1.447-5.146-3.229-6.496-62.7-45.5-150.5-40.6-206.9 15.9-56.4 56.5-61.3 144.2-15.9 206.9 2.8 4 8.8 4.3 12.3.8zm230.4 19.1c56.5-56.5 61.4-144.199 15.9-206.899-2.8-4-8.8-4.3-12.3-.8l-211.3 211.4c-1.341 1.32-2.43 3.921-2.43 5.803 0 2.236 1.447 5.146 3.23 6.496 62.7 45.4 150.4 40.5 206.9-16z"/><glyph glyph-name="thermometer-secondary" unicode="􏒑" horiz-adv-x="512" d="M484.05 285.4L229.85 32.099H130l-89-89c-3.826-3.603-11.197-6.526-16.452-6.526-13.248 0-24 10.752-24 24 0 5.244 2.913 12.603 6.502 16.426l89 89v100.9l45.34 45.64 50.06-50.14c1.294-1.29 3.825-2.336 5.65-2.336 1.826 0 4.357 1.046 5.65 2.336l11.3 11.3c1.29 1.293 2.337 3.824 2.337 5.65 0 1.826-1.047 4.357-2.337 5.65l-50.13 50.21 45.13 45.42 50.3-50.23c1.293-1.29 3.824-2.336 5.65-2.336s4.358 1.046 5.65 2.336L282 241.7c1.29 1.293 2.336 3.824 2.336 5.65 0 1.826-1.046 4.357-2.336 5.65l-50.3 50.37 45.1 45.4 50.4-50.47c1.294-1.29 3.825-2.336 5.65-2.336 1.826 0 4.357 1.047 5.65 2.336l11.3 11.3c1.29 1.293 2.337 3.824 2.337 5.65s-1.047 4.357-2.337 5.65l-50.5 50.51 45.7 46c36.4 36.5 94.4 40.9 131.9 10.2 49.35-40.71 42.1-107.31 7.15-142.21z"/><glyph glyph-name="vial-secondary" unicode="􏒒" horiz-adv-x="480" d="M318 192L138.61 12.56c-8.968-8.97-26.541-16.252-39.226-16.252-12.657 0-30.203 7.254-39.165 16.192-8.993 8.972-16.293 26.562-16.293 39.265 0 12.662 7.26 30.213 16.204 39.176L161 192h157z"/><glyph glyph-name="vials-secondary" unicode="􏒓" d="M128 144v144h96V144c0-26.496-21.504-48-48-48s-48 21.504-48 48zm288 144h96V144c0-26.496-21.504-48-48-48s-48 21.504-48 48v144z"/><glyph glyph-name="warehouse-secondary" unicode="􏒔" d="M504 0c4.416 0 8-3.584 8-8v-48c0-4.416-3.584-8-8-8H136c-4.416 0-8 3.584-8 8l.1 48c0 4.416 3.584 8 8 8H504zm0 192c4.416 0 8-3.584 8-8v-48c0-4.416-3.584-8-8-8H136.5c-4.416 0-8 3.584-8 8l.1 48c0 4.416 3.584 8 8 8H504zm0-96c4.416 0 8-3.584 8-8V40c0-4.416-3.584-8-8-8H136.3c-4.416 0-8 3.584-8 8l.1 48c0 4.416 3.585 8 8 8H504z"/><glyph glyph-name="warehouse-alt-secondary" unicode="􏒕" d="M304 32c8.832 0 16-7.168 16-16v-64c0-8.832-7.168-16-16-16H144c-8.832 0-16 7.168-16 16v64c0 8.832 7.168 16 16 16h160zm0 128c8.832 0 16-7.168 16-16V80c0-8.832-7.168-16-16-16H144c-8.832 0-16 7.168-16 16v64c0 8.832 7.168 16 16 16h160zM496 32c8.832 0 16-7.168 16-16v-64c0-8.832-7.168-16-16-16H368c-8.832 0-16 7.168-16 16v64c0 8.832 7.168 16 16 16h128z"/><glyph glyph-name="weight-secondary" unicode="􏒖" horiz-adv-x="512" d="M256 128c-88.32 0-160 71.68-160 160s71.68 160 160 160 160-71.68 160-160-71.68-160-160-160zm-.28 152c-21.936-.142-39.741-18.061-39.741-39.999 0-22.08 17.92-40 40-40s40 17.92 40 40c0 8.741-4.856 21.007-10.84 27.379l33.581 78.33c.712 1.664 1.29 4.484 1.29 6.295 0 8.837-7.173 16.01-16.01 16.01-5.832 0-12.427-4.353-14.72-9.715z"/><glyph glyph-name="x-ray-secondary" unicode="􏒗" d="M472 224c4.416 0 8-3.584 8-8v-16c0-4.416-3.584-8-8-8H336v-32h104c4.416 0 8-3.584 8-8v-16c0-4.416-3.584-8-8-8H336V96h64c26.496 0 48-21.504 48-48S426.496 0 400 0s-48 21.504-48 48v16h-64V48c0-26.496-21.504-48-48-48s-48 21.504-48 48 21.504 48 48 48h64v32H200c-4.416 0-8 3.584-8 8v16c0 4.416 3.584 8 8 8h104v32H168c-4.416 0-8 3.584-8 8v16c0 4.416 3.584 8 8 8h136v32H200c-4.416 0-8 3.584-8 8v16c0 4.416 3.584 8 8 8h104v24c0 4.416 3.584 8 8 8h16c4.416 0 8-3.584 8-8v-24h104c4.416 0 8-3.584 8-8v-16c0-4.416-3.584-8-8-8H336v-32h136zM240 32c8.832 0 16 7.168 16 16s-7.168 16-16 16-16-7.168-16-16 7.168-16 16-16zm160 32c-8.832 0-16-7.168-16-16s7.168-16 16-16 16 7.168 16 16-7.168 16-16 16z"/></font>
</defs>
</svg>
