<svg xmlns="http://www.w3.org/2000/svg"><defs><font id="FontAwesome5Pro-Light" horiz-adv-x="512"><font-face font-family="Font Awesome 5 Pro Light" font-weight="300" units-per-em="512" panose-1="2 0 3 3 0 0 0 0 0 0" ascent="448" descent="-64" bbox="-0.0875453 -64.1171 640.075 448.1" underline-thickness="25" underline-position="-51" unicode-range="U+0020-F89D"/><glyph glyph-name="search" unicode="" d="M508.5-33.6c4.7-4.7 4.7-12.3 0-17l-9.9-9.9c-4.7-4.7-12.3-4.7-17 0l-129 129c-2.2 2.3-3.5 5.3-3.5 8.5v10.2C312 53 262.5 32 208 32 93.1 32 0 125.1 0 240s93.1 208 208 208 208-93.1 208-208c0-54.5-21-104-55.3-141.1H371c3.2 0 6.2-1.2 8.5-3.5zM208 64c97.3 0 176 78.7 176 176s-78.7 176-176 176S32 337.3 32 240 110.7 64 208 64z"/><glyph glyph-name="star" unicode="" horiz-adv-x="576" d="M528.1 276.5c26.2-3.8 36.7-36.1 17.7-54.6l-105.7-103 25-145.5c4.5-26.3-23.199-45.9-46.4-33.7L288 8.4 157.3-60.3c-23.2-12.3-50.899 7.4-46.399 33.7l25 145.5-105.7 103c-19 18.5-8.5 50.8 17.7 54.6l146.1 21.3 65.3 132.4c11.8 23.9 45.7 23.6 57.4 0l65.3-132.4zM405.8 130.1l117.7 114.801-162.7 23.6L288 416l-72.8-147.5-162.7-23.6L170.3 130 142.5-32 288 44.5l145.6-76.4z"/><glyph glyph-name="film" unicode="" d="M488 384c13.3 0 24-10.7 24-24V24c0-13.3-10.7-24-24-24h-8v20c0 6.6-5.4 12-12 12h-40c-6.6 0-12-5.4-12-12V0H96v20c0 6.6-5.4 12-12 12H44c-6.6 0-12-5.4-12-12V0h-8C10.7 0 0 10.7 0 24v336c0 13.3 10.7 24 24 24h8v-20c0-6.6 5.4-12 12-12h40c6.6 0 12 5.4 12 12v20h320v-20c0-6.6 5.4-12 12-12h40c6.6 0 12 5.4 12 12v20h8zM96 76v40c0 6.6-5.4 12-12 12H44c-6.6 0-12-5.4-12-12V76c0-6.6 5.4-12 12-12h40c6.6 0 12 5.4 12 12zm0 96v40c0 6.6-5.4 12-12 12H44c-6.6 0-12-5.4-12-12v-40c0-6.6 5.4-12 12-12h40c6.6 0 12 5.4 12 12zm0 96v40c0 6.6-5.4 12-12 12H44c-6.6 0-12-5.4-12-12v-40c0-6.6 5.4-12 12-12h40c6.6 0 12 5.4 12 12zM384 44v120c0 6.6-5.4 12-12 12H140c-6.6 0-12-5.4-12-12V44c0-6.6 5.4-12 12-12h232c6.6 0 12 5.4 12 12zm0 176v120c0 6.6-5.4 12-12 12H140c-6.6 0-12-5.4-12-12V220c0-6.6 5.4-12 12-12h232c6.6 0 12 5.4 12 12zm96-144v40c0 6.6-5.4 12-12 12h-40c-6.6 0-12-5.4-12-12V76c0-6.6 5.4-12 12-12h40c6.6 0 12 5.4 12 12zm0 96v40c0 6.6-5.4 12-12 12h-40c-6.6 0-12-5.4-12-12v-40c0-6.6 5.4-12 12-12h40c6.6 0 12 5.4 12 12zm0 96v40c0 6.6-5.4 12-12 12h-40c-6.6 0-12-5.4-12-12v-40c0-6.6 5.4-12 12-12h40c6.6 0 12 5.4 12 12z"/><glyph glyph-name="th-large" unicode="" d="M0 368c0 26.51 21.49 48 48 48h416c26.51 0 48-21.49 48-48V16c0-26.51-21.49-48-48-48H48C21.49-32 0-10.51 0 16v352zm240 16H48c-8.837 0-16-7.163-16-16V208h208v176zM32 16c0-8.837 7.163-16 16-16h192v176H32V16zM272 0h192c8.837 0 16 7.163 16 16v160H272V0zm208 208v160c0 8.837-7.163 16-16 16H272V208h208z"/><glyph glyph-name="th-list" unicode="" d="M0 368c0 26.51 21.49 48 48 48h416c26.51 0 48-21.49 48-48V16c0-26.51-21.49-48-48-48H48C21.49-32 0-10.51 0 16v352zm480 0c0 8.837-7.163 16-16 16H192V277.333h288V368zm0-229.333v106.666H192V138.667h288zM32 245.333V138.666h128v106.667H32zM160 384H48c-8.837 0-16-7.163-16-16v-90.667h128V384zM32 16c0-8.837 7.163-16 16-16h112v106.667H32V16zM192 0h272c8.837 0 16 7.163 16 16v90.667H192V0z"/><glyph glyph-name="check" unicode="" horiz-adv-x="448" d="M413.505 356.049c4.687 4.687 12.284 4.687 16.97 0l11.314-11.313c4.686-4.688 4.686-12.286 0-16.972L141.976 27.952c-4.686-4.687-12.284-4.687-16.97 0L6.212 146.746c-4.686 4.686-4.686 12.285 0 16.97l11.313 11.314c4.687 4.686 12.284 4.686 16.97 0l98.996-98.995z"/><glyph glyph-name="search-plus" unicode="" d="M319.8 244v-8c0-6.6-5.4-12-12-12h-84v-84c0-6.6-5.4-12-12-12h-8c-6.6 0-12 5.4-12 12v84h-84c-6.6 0-12 5.4-12 12v8c0 6.6 5.4 12 12 12h84v84c0 6.6 5.4 12 12 12h8c6.6 0 12-5.4 12-12v-84h84c6.6 0 12-5.4 12-12zM508.3-49L497-60.3c-4.7-4.7-12.3-4.7-17 0l-129 129c-2.3 2.3-3.5 5.3-3.5 8.5v8.5C310.6 52.3 261.7 32 208 32 93.8 32 1.5 123.1 0 237.3c-1.5 117 93.7 212.2 210.7 210.7C324.9 446.5 416 354.2 416 240c0-53.7-20.3-102.6-53.7-139.5h8.5c3.2 0 6.2-1.3 8.5-3.5l129-129c4.7-4.7 4.7-12.3 0-17zM384 240c0 97.3-78.7 176-176 176S32 337.3 32 240 110.7 64 208 64s176 78.7 176 176z"/><glyph glyph-name="power-off" unicode="" d="M388.5 401.7C457.9 357.7 504 280.2 504 192 504 55.2 393.2-55.7 256.5-56 120-56.3 8.2 55 8 191.6 7.9 280 54 357.701 123.5 401.701c5.8 3.7 13.5 1.8 16.9-4.2l3.9-7c3.1-5.6 1.3-12.6-4.1-16C79.9 336 40 268.4 40 192 40 72.1 137.3-24 256-24c119.9 0 216 97.3 216 216 0 77-40.1 144.2-100.3 182.4-5.4 3.4-7.2 10.5-4.1 16l3.9 7c3.4 6.1 11.2 7.9 17 4.3zM272 172c0-6.6-5.4-12-12-12h-8c-6.6 0-12 5.4-12 12v264c0 6.6 5.4 12 12 12h8c6.6 0 12-5.4 12-12V172z"/><glyph glyph-name="cog" unicode="" d="M482.696 148.724c9.576-5.528 14.194-16.901 11.046-27.501-11.214-37.748-31.175-71.728-57.535-99.595-7.634-8.071-19.818-9.837-29.438-4.283l-32.561 18.798c-10.828-8.24-29.796-19.206-42.34-24.479V-25.95c0-11.13-7.653-20.804-18.484-23.367-37.651-8.91-77.125-8.908-114.77 0-10.832 2.563-18.484 12.237-18.484 23.367v37.614c-12.544 5.273-31.512 16.239-42.339 24.479L105.23 17.345c-9.62-5.553-21.804-3.787-29.438 4.283-26.36 27.867-46.321 61.847-57.535 99.595-3.149 10.6 1.47 21.974 11.046 27.501l32.61 18.827c-.848 6.722-1.537 17.675-1.537 24.45 0 6.775.689 17.728 1.537 24.45l-32.61 18.827c-9.576 5.528-14.194 16.901-11.046 27.5 11.214 37.749 31.175 71.728 57.535 99.595 7.633 8.07 19.817 9.836 29.438 4.283l32.561-18.798c10.827 8.24 29.795 19.207 42.339 24.48v37.613c0 11.131 7.653 20.804 18.484 23.368 37.652 8.909 77.126 8.908 114.77 0 10.832-2.564 18.485-12.238 18.485-23.368v-37.614c12.543-5.272 31.51-16.24 42.339-24.48l32.561 18.799c9.62 5.553 21.804 3.788 29.438-4.283 26.36-27.867 46.321-61.845 57.535-99.594 3.148-10.6-1.47-21.974-11.046-27.501l-32.61-18.828c.848-6.721 1.537-17.674 1.537-24.449 0-6.775-.689-17.728-1.537-24.45zM417.217 48.263c19.71 22.089 34.69 47.989 43.93 75.957l-46.33 26.74c6.539 35.434 6.536 46.653 0 82.079l46.33 26.74c-9.24 27.97-24.221 53.87-43.93 75.969l-46.309-26.76c-27.374 23.432-37.061 29.064-71.039 41.069v53.48c-11.981 2.475-31.635 4.483-43.869 4.483s-31.888-2.008-43.869-4.484v-53.478c-33.976-12.004-43.662-17.635-71.039-41.069l-46.309 26.76c-19.709-22.1-34.69-48-43.93-75.969l46.33-26.74c-6.538-35.435-6.534-46.662 0-82.08l-46.33-26.74c9.24-27.968 24.22-53.867 43.93-75.957l46.309 26.74c27.685-23.664 37.418-29.18 71.04-41.059v-53.48c11.98-2.47 31.634-4.477 43.868-4.477s31.888 2.006 43.87 4.478v53.48c34.479 12.182 44.05 17.987 71.038 41.058zM256 288c52.935 0 96-43.065 96-96s-43.065-96-96-96-96 43.065-96 96 43.065 96 96 96zm0-160c35.29 0 64 28.71 64 64s-28.71 64-64 64-64-28.71-64-64 28.71-64 64-64z"/><glyph glyph-name="clock" unicode="" d="M256 440c137 0 248-111 248-248S393-56 256-56 8 55 8 192s111 248 248 248zm216-248c0 119.9-97.3 216-216 216-119.9 0-216-97.3-216-216C40 72.1 137.3-24 256-24c119.9 0 216 97.3 216 216zm-148.9-88.3l-81.2 59c-3.1 2.3-4.9 5.9-4.9 9.7V332c0 6.6 5.4 12 12 12h14c6.6 0 12-5.4 12-12V185.7l70.5-51.3c5.4-3.9 6.5-11.4 2.6-16.8l-8.2-11.3c-3.9-5.3-11.4-6.5-16.8-2.6z"/><glyph glyph-name="download" unicode="" d="M452 16c0-11-9-20-20-20s-20 9-20 20 9 20 20 20 20-9 20-20zm-84 20c11 0 20-9 20-20s-9-20-20-20-20 9-20 20 9 20 20 20zm144 48V-20c0-24.3-19.7-44-44-44H44C19.7-64 0-44.3 0-20V84c0 24.3 19.7 44 44 44h99.4L87 184.4c-25.2 25.2-7.3 68.3 28.3 68.3H168V408c0 22.1 17.9 40 40 40h96c22.1 0 40-17.9 40-40V252.7h52.7c35.6 0 53.4-43.1 28.3-68.3L368.6 128H468c24.3 0 44-19.7 44-44zM250.3 66.3c3.1-3.1 8.2-3.1 11.3 0L402.3 207c5 5 1.5 13.7-5.7 13.7H312V408c0 4.4-3.6 8-8 8h-96c-4.4 0-8-3.6-8-8V220.7h-84.7c-7.1 0-10.7-8.6-5.7-13.7zM480 84c0 6.6-5.4 12-12 12H336.6l-52.3-52.3c-15.6-15.6-41-15.6-56.6 0L175.4 96H44c-6.599 0-12-5.4-12-12V-20c0-6.6 5.401-12 12-12h424c6.6 0 12 5.4 12 12V84z"/><glyph glyph-name="inbox" unicode="" horiz-adv-x="576" d="M566.819 220.623c5.067-6.968 9.18-19.615 9.18-28.231V48c0-26.51-21.49-48-48-48H48C21.49 0 0 21.49 0 48v144.392c0 8.616 4.114 21.263 9.181 28.231l104.443 143.609C121.56 375.143 138.95 384 152.442 384h271.114c13.493 0 30.884-8.857 38.82-19.768zM139.503 345.411L51.204 224h136.573l32-64h136.445l32 64h136.573l-88.298 121.411a16.048 16.048 0 0 1-12.94 6.589H152.443c-4.494-.007-10.291-2.96-12.94-6.589zM544 176c0 8.837-7.163 16-16 16H408l-32-64H200l-32 64H48c-8.837 0-16-7.163-16-16V48c0-8.823 7.178-16 16-16h480c8.822 0 16 7.177 16 16v128z"/><glyph glyph-name="list-alt" unicode="" d="M464 384H48c-8.823 0-16-7.178-16-16V16c0-8.822 7.177-16 16-16h416c8.823 0 16 7.178 16 16v352c0 8.822-7.177 16-16 16zm0 32c26.51 0 48-21.49 48-48V16c0-26.51-21.49-48-48-48H48C21.49-32 0-10.51 0 16v352c0 26.51 21.49 48 48 48h416zm-336-96c17.673 0 32-14.327 32-32s-14.327-32-32-32-32 14.327-32 32 14.327 32 32 32zm0-96c17.673 0 32-14.327 32-32s-14.327-32-32-32-32 14.327-32 32 14.327 32 32 32zm0-96c17.673 0 32-14.327 32-32s-14.327-32-32-32-32 14.327-32 32 14.327 32 32 32zm288 148c0-3.312-2.688-6-6-6H198c-3.312 0-6 2.688-6 6v24c0 3.312 2.688 6 6 6h212c3.312 0 6-2.688 6-6v-24zm0-96c0-3.312-2.688-6-6-6H198c-3.312 0-6 2.688-6 6v24c0 3.312 2.688 6 6 6h212c3.312 0 6-2.688 6-6v-24zm0-96c0-3.312-2.688-6-6-6H198c-3.312 0-6 2.688-6 6v24c0 3.312 2.688 6 6 6h212c3.312 0 6-2.688 6-6V84z"/><glyph glyph-name="lock" unicode="" horiz-adv-x="448" d="M400 224c26.5 0 48-21.5 48-48V-16c0-26.5-21.5-48-48-48H48C21.5-64 0-42.5 0-16v192c0 26.5 21.5 48 48 48h16v64c0 88.4 72 160.3 160.5 160 88.4-.3 159.5-73.1 159.5-161.5V224h16zM96 288v-64h256v64c0 70.6-57.4 128-128 128S96 358.6 96 288zM400-32c8.8 0 16 7.2 16 16v192c0 8.8-7.2 16-16 16H48c-8.8 0-16-7.2-16-16V-16c0-8.8 7.2-16 16-16h352z"/><glyph glyph-name="flag" unicode="" d="M344.348 373.333c47.268 0 96.75 19.822 133.53 36.906 15.916 7.392 34.122-4.21 34.122-21.76V126.812c0-7.95-3.925-15.41-10.514-19.86C463.411 81.237 422.788 64 371.477 64c-69.923 0-115.22 34.667-171.825 34.667-63.585 0-104.229-14.525-135.652-29.064V-52c0-6.627-5.373-12-12-12h-8c-6.627 0-12 5.373-12 12v406.742C12.553 361.617-1.146 380.66.077 402.728 1.433 427.249 21.533 447 46.072 447.96c29.736 1.165 53.481-24.675 49.485-54.41 23.29 9.126 48.479 14.448 76.966 14.448 69.924 0 115.22-34.667 171.825-34.667zM48 420c-11.028 0-20-8.972-20-20s8.972-20 20-20 20 8.972 20 20-8.972 20-20 20zm432-289.333V376c-33.435-15.854-89.732-34.667-135.652-34.667-63.58 0-108.211 34.667-171.825 34.667-43.975 0-85.405-17.97-108.522-34.667V104.667c33.373 15.814 89.636 26 135.652 26 63.58 0 108.211-34.667 171.825-34.667 43.975 0 85.405 17.97 108.522 34.667z"/><glyph glyph-name="headphones" unicode="" d="M256 416c141.503 0 256-114.518 256-256v-51.428c0-5.19-3.68-11.452-8.213-13.978l-23.804-13.262c.005-.444.017-.887.017-1.332 0-61.856-50.144-112-112-112h-24c-13.255 0-24 10.745-24 24v176c0 13.255 10.745 24 24 24h24c49.676 0 91.79-32.343 106.453-77.117l5.547 3.09V160c0 123.816-100.204 224-224 224-123.816 0-224-100.205-224-224v-42.027l5.547-3.091C52.21 159.657 94.325 192 144 192h24c13.255 0 24-10.745 24-24V-8c0-13.255-10.745-24-24-24h-24C82.143-32 32 18.144 32 80c0 .445.011.888.016 1.331L8.213 94.593C3.679 97.119 0 103.382 0 108.57V160c0 141.503 114.517 256 256 256zM144 160c-44.112 0-80-35.888-80-80S99.888 0 144 0h16v160h-16zM368 0c44.112 0 80 35.888 80 80s-35.888 80-80 80h-16V0h16z"/><glyph glyph-name="qrcode" unicode="" horiz-adv-x="448" d="M0 224v192h192V224H0zm32 160V256h128v128H32zm224 32h192V224H256v192zm160-160v128H288V256h128zM0-32v192h192V-32H0zm32 160V0h128v128H32zm32 224h64v-64H64v64zm320-64h-64v64h64v-64zM64 96h64V32H64v64zm352 64h32V32H320v32h-32v-96h-32v192h96v-32h64v32zm0-160h32v-32h-32V0zm-64 0h32v-32h-32V0z"/><glyph glyph-name="barcode" unicode="" d="M0 0v384h18V0H0zm26.857.273V384H36V.273h-9.143zM54 .273V384h8.857V.273H54zm44.857 0V384h8.857V.273h-8.857zm36 0V384h17.714V.273h-17.714zm44.857 0V384h8.857V.273h-8.857zm18 0V384h8.857V.273h-8.857zm18 0V384h8.857V.273h-8.857zm35.715 0V384h18V.273h-18zm44.857 0V384h18V.273h-18zm35.999 0V384h18.001V.273h-18.001zm36.001 0V384h18.001V.273h-18.001zm26.857 0V384h18V.273h-18zm45.143 0V384h26.856V.273h-26.856zm35.714 0V384h9.143V.273H476zM494 0v384h18V0h-18z"/><glyph glyph-name="tag" unicode="" d="M497.941 222.059c18.744-18.744 18.744-49.137 0-67.882L293.823-49.94c-18.745-18.745-49.138-18.744-67.882 0L14.058 161.942C6.298 169.702 0 184.908 0 195.882v204.119c0 26.51 21.49 48 48 48h204.118c10.974 0 26.18-6.3 33.94-14.059zm-22.627-45.255c6.237 6.238 6.237 16.39 0 22.628L263.431 411.315A15.896 15.896 0 0 1 252.118 416H48c-8.823 0-16-7.177-16-16V195.84c0-3.649 2.1-8.698 4.685-11.27L248.57-27.314c6.252-6.253 16.384-6.242 22.627 0zM144 324c-11.028 0-20-8.972-20-20s8.972-20 20-20 20 8.972 20 20-8.972 20-20 20zm0 28c26.51 0 48-21.49 48-48s-21.49-48-48-48-48 21.49-48 48 21.49 48 48 48z"/><glyph glyph-name="tags" unicode="" horiz-adv-x="640" d="M625.941 154.177L421.823-49.941c-18.746-18.745-49.139-18.744-67.882 0l-1.775 1.775 22.627 22.627 1.775-1.775c6.253-6.253 16.384-6.242 22.627 0l204.118 204.118c6.238 6.24 6.238 16.39 0 22.627L391.43 411.315c-2.572 2.586-7.62 4.686-11.27 4.686h-19.592l-32 32h51.549c10.974 0 26.18-6.3 33.94-14.06L625.94 222.06c18.745-18.744 18.745-49.137.001-67.882zM252.118 416H48c-8.822 0-16-7.178-16-16V195.882c0-4.273 1.664-8.292 4.686-11.313L248.569-27.315c6.252-6.253 16.383-6.243 22.627 0l204.118 204.117c6.237 6.24 6.237 16.39 0 22.627L263.43 411.314c-2.573 2.586-7.622 4.686-11.27 4.686h-.043zm0 32c10.975 0 26.18-6.299 33.94-14.059l211.883-211.883c18.745-18.744 18.745-49.136 0-67.881L293.823-49.941c-18.746-18.746-49.138-18.745-67.881 0L14.059 161.942C6.299 169.702 0 184.907 0 195.882V400c0 26.51 21.49 48 48 48h204.118zM144 324c-11.028 0-20-8.972-20-20s8.972-20 20-20 20 8.972 20 20-8.972 20-20 20zm0 28c26.51 0 48-21.49 48-48s-21.49-48-48-48-48 21.49-48 48 21.49 48 48 48z"/><glyph glyph-name="book" unicode="" horiz-adv-x="448" d="M356 288H188c-6.6 0-12 5.4-12 12v8c0 6.6 5.4 12 12 12h168c6.6 0 12-5.4 12-12v-8c0-6.6-5.4-12-12-12zm12-52c0-6.6-5.4-12-12-12H188c-6.6 0-12 5.4-12 12v8c0 6.6 5.4 12 12 12h168c6.6 0 12-5.4 12-12v-8zm64.7-268h3.3c6.6 0 12-5.4 12-12v-8c0-6.6-5.4-12-12-12H80C35.8-64 0-28.2 0 16v352c0 44.2 35.8 80 80 80h344c13.3 0 24-10.7 24-24V56c0-10-6.2-18.6-14.9-22.2-3.6-16.1-4.4-45.6-.4-65.8zM128 64h288v352H128V64zM32 48c13.4 10 30 16 48 16h16v352H80c-26.5 0-48-21.5-48-48V48zm372.3-80c-3.1 20.4-2.9 45.2 0 64H80c-64 0-64-64 0-64h324.3z"/><glyph glyph-name="bookmark" unicode="" horiz-adv-x="384" d="M336 448c26.51 0 48-21.49 48-48V-64L192 48 0-64v464c0 26.51 21.49 48 48 48h288zM352-8.287V400c0 8.822-7.178 16-16 16H48c-8.822 0-16-7.178-16-16V-8.287l160 93.333z"/><glyph glyph-name="camera" unicode="" d="M324.3 384h-131c-6.7 0-12.7-4.2-15-10.4L158.2 320H48c-8.8 0-16-7.2-16-16V16c0-8.8 7.2-16 16-16h416c8.8 0 16 7.2 16 16v288c0 8.8-7.2 16-16 16H353.9l-22.1 58.8c-1.2 3.1-4.2 5.2-7.5 5.2zm0 32c16.7 0 31.6-10.3 37.4-26l14.3-38h88c26.5 0 48-21.5 48-48V16c0-26.5-21.5-48-48-48H48C21.5-32 0-10.5 0 16v288c0 26.5 21.5 48 48 48h88l12.4 32.9c7 18.7 24.9 31.1 44.9 31.1h131zM256 40c-66.2 0-120 53.8-120 120s53.8 120 120 120 120-53.8 120-120S322.2 40 256 40zm0 208c-48.5 0-88-39.5-88-88s39.5-88 88-88 88 39.5 88 88-39.5 88-88 88z"/><glyph glyph-name="image" unicode="" d="M464 384c26.51 0 48-21.49 48-48V48c0-26.51-21.49-48-48-48H48C21.49 0 0 21.49 0 48v288c0 26.51 21.49 48 48 48h416zm16-336v288c0 8.822-7.178 16-16 16H48c-8.822 0-16-7.178-16-16V48c0-8.822 7.178-16 16-16h416c8.822 0 16 7.178 16 16zM112 216c-30.928 0-56 25.072-56 56s25.072 56 56 56 56-25.072 56-56-25.072-56-56-56zm0 80c-13.234 0-24-10.766-24-24s10.766-24 24-24 24 10.766 24 24-10.766 24-24 24zm207.029-23.029c9.373 9.372 24.568 9.372 33.941 0l88-88a24.004 24.004 0 0 0 7.03-16.97V76c0-6.628-5.373-12-12-12H76c-6.627 0-12 5.372-12 12v28c0 5.487 3.15 13.09 7.03 16.969l88 88c9.372 9.373 24.567 9.373 33.94 0L224 177.942zM416 96v68.686l-80 80-112-112-48 48-80-80V96h320z"/><glyph glyph-name="pencil" unicode="" d="M493.255 391.764c24.993-24.992 24.993-65.516.001-90.51L140.839-51.163 26.655-63.849C11.371-65.55-1.547-52.631.151-37.345L12.838 76.839l352.417 352.416c24.995 24.994 65.517 24.993 90.51 0zm-95.196-140.45l-82.744 82.744L91.255 110H126V62h48V27.254zM126.147-20.598L145.999-.745V34H98v48H63.254L43.402 62.147 36.846 3.152l30.306-30.305zm344.48 344.48c12.507 12.508 12.506 32.749 0 45.255l-37.49 37.49c-12.507 12.507-32.75 12.505-45.255 0l-49.94-49.941 82.744-82.744z"/><glyph glyph-name="map-marker" unicode="" horiz-adv-x="384" d="M192 448c106.039 0 192-85.96 192-192 0-77.413-26.97-99.031-172.267-309.67-9.536-13.774-29.932-13.773-39.466 0C26.97 156.969 0 178.587 0 256c0 106.039 85.96 192 192 192zm0-473.93C331.308 175.53 352 191.51 352 256c0 42.739-16.643 82.917-46.863 113.137-30.22 30.221-70.399 46.864-113.137 46.864s-82.917-16.643-113.137-46.864C48.642 338.917 31.999 298.74 31.999 256c0-64.494 20.706-80.488 160-281.93z"/><glyph glyph-name="adjust" unicode="" d="M256 408c-118.663 0-216-96.055-216-216C40 73.337 136.055-24 256-24c118.663 0 216 96.055 216 216 0 118.663-96.055 216-216 216zm0 32c136.967 0 248-111.033 248-248S392.967-56 256-56 8 55.033 8 192s111.033 248 248 248zm-32-124.01c-53.855-13.8-96-63-96-123.99 0-60.99 42.145-110.19 96-123.99v247.98zM256 352V32c-88.366 0-160 71.634-160 160s71.634 160 160 160z"/><glyph glyph-name="edit" unicode="" horiz-adv-x="576" d="M417.8 132.5l20 20c3.8 3.8 10.2 1.1 10.2-4.2V-16c0-26.5-21.5-48-48-48H48C21.5-64 0-42.5 0-16v352c0 26.5 21.5 48 48 48h292.3c5.3 0 8-6.5 4.2-10.2l-20-20c-1.1-1.1-2.7-1.8-4.2-1.8H48c-8.8 0-16-7.2-16-16V-16c0-8.8 7.2-16 16-16h352c8.8 0 16 7.2 16 16v144.3c0 1.6.6 3.1 1.8 4.2zm145.9 191.2L251.2 11.2 151.3.1c-13.4-1.5-24.7 9.8-23.2 23.2l11.1 99.9 312.5 312.5c16.4 16.4 43 16.4 59.4 0l52.6-52.6c16.4-16.4 16.4-43 0-59.4zm-93.6-48.4L403.4 342 169.8 108.5l-8.3-75.1 75.1 8.3zm71 85.2l-52.6 52.6c-3.8 3.8-10.2 4-14.1 0L426 364.7l66.7-66.7 48.4 48.4c3.9 3.8 3.9 10.2 0 14.1z"/><glyph glyph-name="arrows" unicode="" d="M337.782 13.296l-73.297-73.782c-4.686-4.686-12.284-4.686-16.972 0l-73.296 73.782c-4.685 4.686-4.685 12.284 0 16.97l7.07 7.07c4.686 4.686 12.285 4.686 16.972 0l40.74-41.223h1V176H60.114v-1l41.223-40.741c4.687-4.686 4.687-12.284 0-16.97l-7.071-7.071c-4.686-4.686-12.283-4.686-16.97 0l-73.78 73.297c-4.686 4.686-4.686 12.284 0 16.972l73.781 73.297c4.687 4.685 12.285 4.685 16.971 0l7.071-7.072c4.687-4.685 4.687-12.284 0-16.97L60.113 209v-1H240v179.887h-1l-40.741-41.223c-4.686-4.687-12.285-4.687-16.971 0l-7.07 7.071c-4.686 4.686-4.687 12.283 0 16.97l73.296 73.782c4.687 4.685 12.285 4.685 16.972 0l73.297-73.782c4.686-4.687 4.686-12.284 0-16.971l-7.071-7.071c-4.686-4.687-12.284-4.687-16.971 0L273 387.887h-1V208h179.887v1l-41.224 40.742c-4.686 4.685-4.686 12.284 0 16.97l7.071 7.07c4.686 4.686 12.284 4.686 16.97 0l73.782-73.296c4.687-4.687 4.686-12.285 0-16.972l-73.782-73.297c-4.686-4.686-12.284-4.686-16.97 0l-7.07 7.07c-4.687 4.686-4.687 12.285 0 16.971L451.886 175v1H272V-3.887h1l40.741 41.224c4.686 4.686 12.284 4.686 16.97 0l7.071-7.071c4.686-4.685 4.686-12.283 0-16.97z"/><glyph glyph-name="step-backward" unicode="" horiz-adv-x="448" d="M76-31c-6.6 0-12 5.4-12 12v424c0 6.6 5.4 12 12 12h8c6.6 0 12-5.4 12-12V213.6c1.1 1.2 2.2 2.3 3.5 3.4l232 192.6c20.6 17.2 52.5 2.801 52.5-24.6V1.1c0-27.399-31.9-41.799-52.5-24.599l-232 191.4c-1.3 1-2.4 2.2-3.5 3.4V-19c0-6.6-5.4-12-12-12h-8zm40.5 223.4L351.7 1.2l.2-.1.1-.1v384l-.1-.1-.1-.1z"/><glyph glyph-name="fast-backward" unicode="" d="M12 1C5.4 1 0 6.4 0 13v360c0 6.6 5.4 12 12 12h8c6.6 0 12-5.4 12-12V214.1c.9 1 1.9 2 3 2.9l200.5 160.5c20.6 17.2 52.5 2.8 52.5-24.6V234.1l171.5 143.5c20.6 17.2 52.5 2.8 52.5-24.6V33c0-27.4-31.9-41.8-52.5-24.6L288 150.8V33c0-27.4-31.9-41.8-52.5-24.6L35 167.799c-1.1.9-2.1 1.9-3 2.9V13c0-6.6-5.4-12-12-12h-8zm280.5 191.4l.1-.1.1-.1L480 33v320L292.9 192.6l-.2-.1zm-231.5.4v-.8L255.8 33.2l.1-.1.1-.1v320l-.1-.1-.1-.1z"/><glyph glyph-name="backward" unicode="" d="M267.5 166.9c-15.3 12.7-15.3 36.3 0 49.1l192 160.6c20.6 17.2 52.5 2.8 52.5-24.6V32.1c0-27.4-31.9-41.8-52.5-24.6zm20.5 24.5L480 32v320zM11.5 166.9c-15.3 12.7-15.3 36.3 0 49.1l192 160.6c20.6 17.2 52.5 2.8 52.5-24.6V32.1c0-27.4-31.9-41.8-52.5-24.6zM32 191.4L224 32v320z"/><glyph glyph-name="play" unicode="" horiz-adv-x="448" d="M424.4 233.3c31.5-18.5 31.4-64.1 0-82.6l-352-208C40.7-76.1 0-53.5 0-16v416.1c0 41.801 43.8 58.2 72.4 41.301zm-16.2-55.1c10.4 6.2 10.4 21.4-.1 27.6l-352 208.1c-7.7 4.6-24.1 2.5-24.1-13.8V-16c0-12.6 13.6-19.9 24.2-13.8z"/><glyph glyph-name="pause" unicode="" horiz-adv-x="448" d="M48-31C21.5-31 0-9.5 0 17v352c0 26.5 21.5 48 48 48h96c26.5 0 48-21.5 48-48V17c0-26.5-21.5-48-48-48H48zM32 369V17c0-8.8 7.2-16 16-16h96c8.8 0 16 7.2 16 16v352c0 8.8-7.2 16-16 16H48c-8.8 0-16-7.2-16-16zM304-31c-26.5 0-48 21.5-48 48v352c0 26.5 21.5 48 48 48h96c26.5 0 48-21.5 48-48V17c0-26.5-21.5-48-48-48h-96zm-16 400V17c0-8.8 7.2-16 16-16h96c8.8 0 16 7.2 16 16v352c0 8.8-7.2 16-16 16h-96c-8.8 0-16-7.2-16-16z"/><glyph glyph-name="stop" unicode="" horiz-adv-x="448" d="M400 416c26.5 0 48-21.5 48-48V16c0-26.5-21.5-48-48-48H48C21.5-32 0-10.5 0 16v352c0 26.5 21.5 48 48 48h352zm16-400v352c0 8.8-7.2 16-16 16H48c-8.8 0-16-7.2-16-16V16c0-8.8 7.2-16 16-16h352c8.8 0 16 7.2 16 16z"/><glyph glyph-name="forward" unicode="" d="M244.5 217.1c15.3-12.7 15.3-36.3 0-49.2L52.5 7.4C31.9-9.8 0 4.6 0 32v320c0 27.4 31.9 41.7 52.5 24.6zM224 192.6L32 352V32zm276.5 24.5c15.3-12.7 15.3-36.3 0-49.2L308.5 7.4C287.9-9.8 256 4.6 256 32v320c0 27.4 31.9 41.7 52.5 24.5zM480 192.6L288 352V32z"/><glyph glyph-name="fast-forward" unicode="" d="M500 385c6.6 0 12-5.4 12-12V13c0-6.6-5.4-12-12-12h-8c-6.6 0-12 5.4-12 12v158.9c-.9-1-1.9-2-3-2.9L276.5 8.4C255.9-8.8 224 5.599 224 33v118.8L52.5 8.4C31.9-8.8 0 5.6 0 33v320c0 27.4 31.9 41.7 52.5 24.6L224 235.2V353c0 27.4 31.9 41.7 52.5 24.6L477 218.201c1.1-.9 2.1-1.9 3-2.9V373c0 6.6 5.4 12 12 12h8zM219.5 193.6l-.1.1-.1.1L32 353V33l187.1 160.4.2.1zm231.5-.5v.9L256.2 352.8l-.1.101-.1.1V33h.1l.1.1z"/><glyph glyph-name="step-forward" unicode="" horiz-adv-x="448" d="M372 417c6.6 0 12-5.4 12-12V-19c0-6.6-5.4-12-12-12h-8c-6.6 0-12 5.4-12 12v191.4c-1.1-1.2-2.2-2.3-3.5-3.4l-232-192.6C95.9-40.8 64-26.401 64 1v384c0 27.4 31.9 41.7 52.5 24.5l232-191.4c1.3-1 2.4-2.2 3.5-3.4V405c0 6.6 5.4 12 12 12h8zm-40.5-223.4L96.3 384.8l-.2.1-.1.1V1l.1.1.1.1z"/><glyph glyph-name="eject" unicode="" horiz-adv-x="448" d="M435.322 208.435C463.519 177.675 441.59 128 399.939 128H48.052c-41.728 0-63.527 49.733-35.383 80.435l175.946 192.008c19.016 20.744 51.753 20.742 70.767 0zM399.939 160c13.87 0 21.164 16.589 11.794 26.811L235.79 378.825c-6.337 6.914-17.262 6.892-23.585-.004L36.262 186.817C26.884 176.585 34.187 160 48.052 160H399.94zM448 48V16c0-26.51-21.49-48-48-48H48C21.49-32 0-10.51 0 16v32c0 26.51 21.49 48 48 48h352c26.51 0 48-21.49 48-48zm-48 16H48c-8.822 0-16-7.178-16-16V16c0-8.823 7.178-16 16-16h352c8.822 0 16 7.177 16 16v32c0 8.822-7.178 16-16 16z"/><glyph glyph-name="chevron-left" unicode="" horiz-adv-x="256" d="M238.475-27.535c-4.686-4.687-12.283-4.687-16.97-.001l-211.05 211.05c-4.687 4.687-4.687 12.285 0 16.972l211.05 211.05c4.687 4.685 12.285 4.685 16.97 0l7.071-7.07c4.687-4.687 4.687-12.286 0-16.971L50.053 192 245.546-3.493c4.687-4.687 4.687-12.286 0-16.971z"/><glyph glyph-name="chevron-right" unicode="" horiz-adv-x="256" d="M17.525 411.535c4.686 4.687 12.284 4.687 16.97 0l211.051-211.049c4.687-4.687 4.687-12.285 0-16.972L34.496-27.536c-4.687-4.685-12.285-4.685-16.97 0l-7.072 7.07c-4.686 4.687-4.686 12.286 0 16.971L205.947 192 10.454 387.493c-4.686 4.687-4.686 12.286 0 16.971z"/><glyph glyph-name="plus-circle" unicode="" d="M384 198v-12c0-6.6-5.4-12-12-12h-98V76c0-6.6-5.4-12-12-12h-12c-6.6 0-12 5.4-12 12v98h-98c-6.6 0-12 5.4-12 12v12c0 6.6 5.4 12 12 12h98v98c0 6.6 5.4 12 12 12h12c6.6 0 12-5.4 12-12v-98h98c6.6 0 12-5.4 12-12zm120-6C504 55 393-56 256-56S8 55 8 192s111 248 248 248 248-111 248-248zm-32 0c0 119.9-97.3 216-216 216-119.9 0-216-97.3-216-216C40 72.1 137.3-24 256-24c119.9 0 216 97.3 216 216z"/><glyph glyph-name="minus-circle" unicode="" d="M140 174c-6.6 0-12 5.4-12 12v12c0 6.6 5.4 12 12 12h232c6.6 0 12-5.4 12-12v-12c0-6.6-5.4-12-12-12H140zm364 18C504 55 393-56 256-56S8 55 8 192s111 248 248 248 248-111 248-248zm-32 0c0 119.9-97.3 216-216 216-119.9 0-216-97.3-216-216C40 72.1 137.3-24 256-24c119.9 0 216 97.3 216 216z"/><glyph glyph-name="times-circle" unicode="" d="M256 440c137 0 248-111 248-248S393-56 256-56 8 55 8 192s111 248 248 248zm0-464c119.9 0 216 97.3 216 216 0 119.9-97.3 216-216 216-119.9 0-216-97.3-216-216C40 72.1 137.3-24 256-24zm94.8 285.3L281.5 192l69.3-69.3c4.7-4.7 4.7-12.3 0-17l-8.5-8.5c-4.7-4.7-12.3-4.7-17 0L256 166.5l-69.3-69.3c-4.7-4.7-12.3-4.7-17 0l-8.5 8.5c-4.7 4.7-4.7 12.3 0 17l69.3 69.3-69.3 69.3c-4.7 4.7-4.7 12.3 0 17l8.5 8.5c4.7 4.7 12.3 4.7 17 0l69.3-69.3 69.3 69.3c4.7 4.7 12.3 4.7 17 0l8.5-8.5c4.6-4.7 4.6-12.3 0-17z"/><glyph glyph-name="check-circle" unicode="" d="M256 440c136.967 0 248-111.033 248-248S392.967-56 256-56 8 55.033 8 192s111.033 248 248 248zm0-464c119.945 0 216 97.337 216 216 0 119.945-97.336 216-216 216-119.945 0-216-97.337-216-216C40 72.055 137.336-24 256-24zm141.63 274.961L217.151 71.929c-4.705-4.667-12.304-4.637-16.97.068l-85.879 86.573c-4.667 4.705-4.636 12.302.069 16.97l8.52 8.45c4.704 4.668 12.303 4.637 16.97-.068l68.976-69.533 163.44 162.13c4.706 4.667 12.303 4.638 16.97-.067l8.451-8.52c4.668-4.706 4.637-12.304-.068-16.97z"/><glyph glyph-name="question-circle" unicode="" d="M256 108c15.464 0 28-12.536 28-28s-12.536-28-28-28-28 12.536-28 28 12.536 28 28 28zm7.67 24h-16c-6.627 0-12 5.373-12 12v.38c0 70.344 77.44 63.62 77.44 107.409 0 20.015-17.761 40.21-57.44 40.21-29.144 0-44.265-9.649-59.21-28.692-3.91-4.98-11.055-5.994-16.249-2.376l-13.134 9.15c-5.625 3.92-6.86 11.771-2.645 17.178 21.226 27.227 46.41 44.74 91.238 44.74 52.32 0 97.44-29.75 97.44-80.21 0-67.414-77.44-63.849-77.44-107.408V144c0-6.627-5.373-12-12-12zM256 408c-119.398 0-216-96.797-216-216C40 72.562 136.756-24 256-24c119.39 0 216 96.709 216 216 0 119.925-97.379 216-216 216zm0 32c136.957 0 248-111.083 248-248C504 55.003 392.957-56 256-56S8 55.003 8 192c0 136.917 111.043 248 248 248z"/><glyph glyph-name="info-circle" unicode="" d="M256 408c-119.398 0-216-96.797-216-216C40 72.562 136.756-24 256-24c119.39 0 216 96.709 216 216 0 119.925-97.379 216-216 216zm0 32c136.957 0 248-111.083 248-248C504 55.003 392.957-56 256-56S8 55.003 8 192c0 136.917 111.043 248 248 248zM220 96h12v120h-12c-6.627 0-12 5.373-12 12v8c0 6.627 5.373 12 12 12h48c6.627 0 12-5.373 12-12V96h12c6.627 0 12-5.373 12-12v-8c0-6.627-5.373-12-12-12h-72c-6.627 0-12 5.373-12 12v8c0 6.627 5.373 12 12 12zm36 240c17.673 0 32-14.327 32-32s-14.327-32-32-32-32 14.327-32 32 14.327 32 32 32z"/><glyph glyph-name="crosshairs" unicode="" d="M506 208c3.312 0 6-2.688 6-6v-20c0-3.312-2.688-6-6-6h-34.59C463.607 69.462 378.537-15.608 272-23.409v-34.59c0-3.312-2.688-6-6-6h-20c-3.311 0-6 2.688-6 6v34.59C133.462-15.609 48.392 69.462 40.591 176H6.001c-3.312 0-6 2.688-6 6v20c0 3.312 2.688 6 6 6h34.59c7.801 106.538 92.871 191.608 199.41 199.409v34.59c0 3.312 2.688 6 6 6h20c3.31 0 6-2.688 6-6v-34.59c106.537-7.8 191.607-92.871 199.408-199.409H506zM272 8.695C361.031 16.316 431.711 87.282 439.305 176H374c-3.311 0-6 2.689-6 6v20c0 3.312 2.689 6 6 6h65.305c-7.62 89.032-78.587 159.711-167.305 167.305v-65.304c0-3.312-2.688-6-6-6h-20c-3.312 0-6 2.688-6 6v65.304C150.969 367.685 80.289 296.718 72.695 208H138c3.311 0 6-2.688 6-6v-20c0-3.311-2.689-6-6-6H72.695C80.315 86.97 151.282 16.29 240 8.695V74c0 3.312 2.688 6 6 6h20c3.312 0 6-2.688 6-6V8.695zM280 192c0-13.255-10.745-24-24-24s-24 10.745-24 24 10.745 24 24 24 24-10.745 24-24z"/><glyph glyph-name="ban" unicode="" d="M256 440c136.967 0 248-111.033 248-248S392.967-56 256-56 8 55.033 8 192s111.033 248 248 248zM103.265 39.265c80.606-80.606 208.94-84.165 293.744-10.9L92.365 333.008c-73.249-84.786-69.723-213.12 10.9-293.743zm316.37 11.727c73.249 84.786 69.723 213.122-10.9 293.743-80.606 80.605-208.938 84.163-293.742 10.9z"/><glyph glyph-name="arrow-left" unicode="" horiz-adv-x="448" d="M231.536-27.535c-4.687-4.687-12.284-4.687-16.97-.001L3.514 183.514c-4.685 4.687-4.685 12.285 0 16.972l211.052 211.05c4.686 4.685 12.284 4.685 16.97 0l7.071-7.07c4.686-4.687 4.686-12.286 0-16.971L60.113 209H436c6.627 0 12-5.374 12-12v-10c0-6.627-5.373-12-12-12H60.113L238.607-3.493c4.686-4.687 4.686-12.286 0-16.971z"/><glyph glyph-name="arrow-right" unicode="" horiz-adv-x="448" d="M216.464 411.535c4.687 4.687 12.284 4.687 16.97 0l211.052-211.049c4.685-4.687 4.685-12.285 0-16.972L233.434-27.536c-4.686-4.685-12.284-4.685-16.97 0l-7.071 7.07c-4.686 4.687-4.686 12.286 0 16.971L387.887 175H12c-6.627 0-12 5.373-12 12v10c0 6.627 5.373 12 12 12h375.887L209.393 387.493c-4.686 4.687-4.686 12.286 0 16.971z"/><glyph glyph-name="arrow-up" unicode="" horiz-adv-x="448" d="M4.465 184.464c-4.687 4.687-4.687 12.284 0 16.97l211.049 211.052c4.687 4.685 12.285 4.685 16.972 0l211.05-211.051c4.685-4.686 4.685-12.284 0-16.97l-7.07-7.071c-4.687-4.686-12.286-4.686-16.971 0L241 355.887V-20c0-6.627-5.374-12-12-12h-10c-6.627 0-12 5.373-12 12v375.887L28.507 177.393c-4.687-4.686-12.286-4.686-16.971 0z"/><glyph glyph-name="arrow-down" unicode="" horiz-adv-x="448" d="M443.5 199.5c4.7-4.7 4.7-12.2-.1-17l-211-211.1c-4.7-4.7-12.3-4.7-17 0L4.4 182.5c-4.7 4.7-4.7 12.3 0 17l7.1 7.1c4.7 4.7 12.3 4.7 17 0L207 28.1V404c0 6.6 5.4 12 12 12h10c6.6 0 12-5.4 12-12V28.1l178.4 178.5c4.7 4.7 12.3 4.7 17 0z"/><glyph glyph-name="share" unicode="" horiz-adv-x="576" d="M564.907 251.65c14.791-15.47 14.791-39.83.001-55.3l-175.998-184C364.19-13.496 320 3.76 320 40v87.84c-154.425-1.812-219.063-16.727-181.19-151.092 8.342-29.517-25.447-52.232-49.68-34.51C55.84-33.421 0 21.83 0 116.809 0 287.898 154.548 317.845 320 319.83v88.154c0 36.27 44.216 53.466 68.91 27.65zm-23.127-33.18c1.23 1.28 2.228 3.756 2.228 5.53s-.999 4.251-2.228 5.53l-176 184c-4.93 5.16-13.78 1.732-13.78-5.53V288c-157.114 0-320-11.18-320-171.19C32 42.41 72-5.36 108.02-31.7 56.685 150.293 180.602 160 352 160V40c0-7.26 8.846-10.69 13.78-5.53z"/><glyph glyph-name="expand" unicode="" horiz-adv-x="448" d="M0 268v124c0 13.3 10.7 24 24 24h124c6.6 0 12-5.4 12-12v-8c0-6.6-5.4-12-12-12H32V268c0-6.6-5.4-12-12-12h-8c-6.6 0-12 5.4-12 12zm300 148h124c13.3 0 24-10.7 24-24V268c0-6.6-5.4-12-12-12h-8c-6.6 0-12 5.4-12 12v116H300c-6.6 0-12 5.4-12 12v8c0 6.6 5.4 12 12 12zm148-300V-8c0-13.3-10.7-24-24-24H300c-6.6 0-12 5.4-12 12v8c0 6.6 5.4 12 12 12h116v116c0 6.6 5.4 12 12 12h8c6.6 0 12-5.4 12-12zM148-32H24C10.7-32 0-21.3 0-8v124c0 6.6 5.4 12 12 12h8c6.6 0 12-5.4 12-12V0h116c6.6 0 12-5.4 12-12v-8c0-6.6-5.4-12-12-12z"/><glyph glyph-name="compress" unicode="" horiz-adv-x="448" d="M436 256H312c-13.3 0-24 10.7-24 24v124c0 6.6 5.4 12 12 12h8c6.6 0 12-5.4 12-12V288h116c6.6 0 12-5.4 12-12v-8c0-6.6-5.4-12-12-12zm-276 24c0-13.3-10.7-24-24-24H12c-6.6 0-12 5.4-12 12v8c0 6.6 5.4 12 12 12h116v116c0 6.6 5.4 12 12 12h8c6.6 0 12-5.4 12-12V280zm0-300c0-6.6-5.4-12-12-12h-8c-6.6 0-12 5.4-12 12V96H12c-6.6 0-12 5.4-12 12v8c0 6.6 5.4 12 12 12h124c13.3 0 24-10.7 24-24V-20zm160 0c0-6.6-5.4-12-12-12h-8c-6.6 0-12 5.4-12 12v124c0 13.3 10.7 24 24 24h124c6.6 0 12-5.4 12-12v-8c0-6.6-5.4-12-12-12H320V-20z"/><glyph glyph-name="minus" unicode="" horiz-adv-x="384" d="M376 216c4.42 0 8-3.58 8-8v-32c0-4.42-3.58-8-8-8H8c-4.42 0-8 3.58-8 8v32c0 4.42 3.58 8 8 8h368z"/><glyph glyph-name="asterisk" unicode="" d="M475.31 83.856c5.74-3.313 7.706-10.652 4.393-16.392l-4-6.928c-3.314-5.74-10.653-7.706-16.393-4.393L272 164.287V-52c0-6.626-5.373-12-12-12h-8c-6.627 0-12 5.374-12 12v216.287L52.69 56.143c-5.74-3.313-13.078-1.347-16.393 4.393l-4 6.928c-3.313 5.74-1.347 13.078 4.393 16.392L224 192 36.69 300.144c-5.74 3.314-7.706 10.653-4.393 16.393l4 6.928c3.314 5.739 10.653 7.706 16.393 4.392L240 219.713V436c0 6.627 5.373 12 12 12h8c6.627 0 12-5.373 12-12V219.713l187.31 108.144c5.74 3.314 13.078 1.348 16.393-4.392l4-6.928c3.313-5.74 1.347-13.078-4.393-16.393L288 192z"/><glyph glyph-name="exclamation-circle" unicode="" d="M256 408c-119.398 0-216-96.797-216-216C40 72.562 136.756-24 256-24c119.39 0 216 96.709 216 216 0 119.925-97.379 216-216 216zm0 32c136.957 0 248-111.083 248-248C504 55.003 392.957-56 256-56S8 55.003 8 192c0 136.917 111.043 248 248 248zm-11.49-120h22.98c6.822 0 12.273-5.682 11.989-12.5l-7-168c-.268-6.428-5.556-11.5-11.99-11.5h-8.979c-6.433 0-11.722 5.073-11.99 11.5l-7 168c-.282 6.818 5.167 12.5 11.99 12.5zM256 108c15.464 0 28-12.536 28-28s-12.536-28-28-28-28 12.536-28 28 12.536 28 28 28z"/><glyph glyph-name="random" unicode="" d="M0 320v8c0 6.6 5.4 12 12 12h105.8c3.3 0 6.5-1.4 8.8-3.9l89.7-97-21.8-23.6L109 308H12c-6.6 0-12 5.4-12 12zM502.6 41.4l-64-64C418.5-42.7 384-28.4 384 0v44h-25.7c-3.3 0-6.5 1.4-8.8 3.9l-89.7 97 21.8 23.6L367 76h17v52c0 28.5 34.5 42.7 54.6 22.6l64-64c12.5-12.5 12.5-32.7 0-45.2zm-19.8 25.4l-64 64c-2.5 2.5-6.8.7-6.8-2.8V0c0-3.6 4.3-5.4 6.8-2.8l64 64c1.6 1.5 1.6 4.1 0 5.6zm19.8 230.6l-64-64c-20.1-20.1-54.6-5.8-54.6 22.6v52h-17L126.6 47.9c-2.3-2.5-5.5-3.9-8.8-3.9H12C5.402 44 0 49.4 0 56v8c0 6.599 5.401 12 12 12h97l240.4 260.1c2.3 2.5 5.5 3.9 8.8 3.9H384v44c0 28.5 34.5 42.7 54.6 22.6l64-64c12.5-12.5 12.5-32.7 0-45.2zm-19.8 25.4l-64 64c-2.5 2.5-6.8.7-6.8-2.8V256c0-3.6 4.3-5.4 6.8-2.8l64 64c1.6 1.5 1.6 4.1 0 5.6z"/><glyph glyph-name="chevron-up" unicode="" horiz-adv-x="448" d="M4.465 81.525c-4.687 4.686-4.687 12.284 0 16.97l211.049 211.051c4.687 4.687 12.285 4.687 16.972 0l211.05-211.05c4.685-4.687 4.685-12.285 0-16.97l-7.07-7.072c-4.687-4.686-12.286-4.686-16.971 0L224 269.947 28.507 74.454c-4.687-4.686-12.286-4.686-16.971 0z"/><glyph glyph-name="chevron-down" unicode="" horiz-adv-x="448" d="M443.5 285.4c4.7-4.7 4.7-12.3-.1-17l-211-211.101c-4.7-4.7-12.3-4.7-17 0L4.4 268.4c-4.7 4.7-4.7 12.3 0 17l7.1 7.1c4.7 4.7 12.3 4.7 17 0L224 97l195.4 195.5c4.7 4.7 12.3 4.7 17 0z"/><glyph glyph-name="retweet" unicode="" horiz-adv-x="640" d="M634.828 84.201l-98.343-98.343c-4.686-4.686-12.284-4.686-16.972 0l-98.342 98.343c-4.686 4.686-4.686 12.284 0 16.97l5.656 5.657c4.686 4.686 12.284 4.686 16.97 0L512 38.628V320H260.022c-2.743 0-6.544 1.575-8.484 3.515l-8 8c-7.56 7.56-2.206 20.485 8.486 20.485H520c13.255 0 24-10.745 24-24V38.628l68.2 68.201c4.686 4.686 12.285 4.686 16.972 0l5.656-5.656c4.685-4.687 4.685-12.285 0-16.972zM388.461 60.485l8-8c7.56-7.56 2.206-20.485-8.485-20.485H120c-13.255 0-24 10.745-24 24v289.372l-68.202-68.201c-4.685-4.686-12.284-4.686-16.97 0l-5.656 5.657c-4.686 4.686-4.686 12.285 0 16.97l98.341 98.345c4.688 4.686 12.286 4.686 16.972 0l98.343-98.343c4.686-4.687 4.685-12.285 0-16.971l-5.657-5.657c-4.686-4.686-12.285-4.686-16.97 0L128 345.372V64h251.976c2.744 0 6.545-1.575 8.485-3.515z"/><glyph glyph-name="shopping-cart" unicode="" horiz-adv-x="576" d="M551.991 384c15.224 0 26.6-13.991 23.497-28.895l-43.331-208c-2.32-11.13-12.128-19.105-23.496-19.105H177.28l12-64h296.048c11.432 0 20.694-7.89 23.285-18.132C520.566 34.24 528.001 17.993 528.001 0c0-35.346-28.654-64-64-64s-64 28.654-64 64v.07c0 9.45 3.845 23.754 8.583 31.93H263.417C268.155 23.824 272 9.52 272 .07V0c0-35.346-28.654-64-64-64s-64 28.654-64 64c0 16.58 6.305 31.686 16.647 43.054L90.72 416H12c-6.627 0-12 5.373-12 12v8c0 6.627 5.373 12 12 12h85.362c11.549 0 21.46-8.226 23.59-19.577L129.28 384h422.711zM240 0c0 17.645-14.355 32-32 32s-32-14.355-32-32 14.355-32 32-32 32 14.355 32 32zm224-32c17.645 0 32 14.355 32 32s-14.355 32-32 32-32-14.355-32-32 14.355-32 32-32zm38.156 192l40 192H135.28l36-192h330.876z"/><glyph glyph-name="folder-open" unicode="" horiz-adv-x="576" d="M527.95 224c37.335 0 60.29-40.812 41.16-72.696L501.655 38.84C487.192 14.733 461.125 0 433.056 0H48C21.49 0 0 21.49 0 48v288c0 26.51 21.49 48 48 48h160l64-64h160c26.51 0 48-21.49 48-48v-48h47.95zM48 352c-8.837 0-16-7.163-16-16V67.53l70.578 117.63C117.042 209.266 143.11 224 171.177 224H448v48c0 8.837-7.163 16-16 16H258.745l-64 64H48zm493.695-184.232c6.398 10.664-1.283 24.232-13.72 24.232H167.998c-15.002 0-33.441-10.44-41.16-23.303L44.823 32h388.234c15.001 0 33.44 10.44 41.158 23.303z"/><glyph glyph-name="arrows-v" unicode="" horiz-adv-x="192" d="M181.415 48.041l7.071-7.07c4.686-4.686 4.686-12.285 0-16.97l-84-84.485c-4.687-4.687-12.285-4.687-16.971 0L3.515 24c-4.686 4.686-4.686 12.284 0 16.97l7.07 7.071c4.687 4.686 12.285 4.686 16.97 0L79-3.886v391.772L27.556 335.96c-4.687-4.686-12.285-4.686-16.971 0l-7.07 7.07c-4.686 4.686-4.686 12.285 0 16.97l83.999 84.486c4.687 4.686 12.285 4.686 16.971 0l84-84.485c4.686-4.686 4.686-12.285 0-16.97l-7.07-7.071c-4.688-4.686-12.285-4.686-16.97 0L113 387.886V-3.887l51.444 51.928c4.687 4.686 12.284 4.686 16.971 0z"/><glyph glyph-name="arrows-h" unicode="" d="M399.959 277.415l7.07 7.071c4.686 4.686 12.285 4.686 16.97 0l84.485-84c4.687-4.687 4.687-12.285 0-16.971l-84.485-84c-4.686-4.686-12.284-4.686-16.97 0l-7.071 7.07c-4.686 4.687-4.686 12.285 0 16.97L451.886 175H60.114l51.927-51.445c4.686-4.687 4.686-12.286 0-16.971l-7.07-7.07c-4.686-4.686-12.285-4.686-16.97 0l-84.486 84c-4.686 4.687-4.686 12.285 0 16.971l84.485 84c4.686 4.686 12.285 4.686 16.97 0l7.071-7.07c4.686-4.688 4.686-12.285 0-16.97L60.114 209h391.773l-51.928 51.444c-4.686 4.687-4.686 12.284 0 16.971z"/><glyph glyph-name="camera-retro" unicode="" d="M32 390v20c0 3.3 2.7 6 6 6h116c3.3 0 6-2.7 6-6v-20c0-3.3-2.7-6-6-6H38c-3.3 0-6 2.7-6 6zm344-230c0-66.2-53.8-120-120-120S136 93.8 136 160s53.8 120 120 120 120-53.8 120-120zm-32 0c0 48.5-39.5 88-88 88s-88-39.5-88-88 39.5-88 88-88 88 39.5 88 88zm-120 0c0-8.8-7.2-16-16-16s-16 7.2-16 16c0 35.3 28.7 64 64 64 8.8 0 16-7.2 16-16s-7.2-16-16-16c-17.6 0-32-14.4-32-32zm288 208V16c0-26.5-21.5-48-48-48H48C21.5-32 0-10.5 0 16v288c0 26.5 21.5 48 48 48h136l33.6 44.8c9.1 12.1 23.3 19.2 38.4 19.2h208c26.5 0 48-21.5 48-48zm-288-16h240c5.6 0 11-1 16-2.7V368c0 8.8-7.2 16-16 16H256c-5 0-9.8-2.4-12.8-6.4zm256-48c0 8.8-7.2 16-16 16H48c-8.8 0-16-7.2-16-16V16c0-8.8 7.2-16 16-16h416c8.8 0 16 7.2 16 16v288z"/><glyph glyph-name="key" unicode="" d="M336 416c-79.53 0-144-64.47-144-144 0-18.968 3.675-37.076 10.339-53.661L31.999 47.999v-80h96v64h64v64h48l42.34 42.34c16.585-6.664 34.693-10.34 53.66-10.34 79.53 0 144 64.472 144 144s-64.47 144-144 144zm0 32c97.231 0 176-78.816 176-176 0-97.231-78.816-176-176-176-15.307 0-30.352 1.945-44.946 5.798l-30.769-30.769a24.006 24.006 0 0 0-16.97-7.03H224V24c0-13.254-10.745-24-24-24h-40v-40c0-13.254-10.745-24-24-24H24C10.745-64 0-53.254 0-40v91.315c0 5.487 3.15 13.09 7.03 16.97l158.768 158.77C161.946 241.648 160 256.693 160 272c0 97.232 78.817 176 176 176zm48-108c-11.028 0-20-8.972-20-20s8.972-20 20-20 20 8.972 20 20-8.972 20-20 20zm0 28c26.51 0 48-21.49 48-48s-21.49-48-48-48-48 21.49-48 48 21.49 48 48 48z"/><glyph glyph-name="cogs" unicode="" horiz-adv-x="640" d="M538.6 251.6l-2.5 3.9c-4.1-.3-8.1-.3-12.2 0l-2.5-4c-5.8-9.2-17.1-13.4-27.5-10.1-13.8 4.3-23 8.8-34.3 18.1-9 7.4-11.2 20.3-5.4 30.4l2.5 4.3c-2.3 3.4-4.3 6.9-6.1 10.6h-9.1c-11.6 0-21.4 8.2-23.6 19.6-2.6 13.7-2.7 24.2.1 38.5 2.1 11.3 12.1 19.5 23.6 19.5h9c1.8 3.7 3.8 7.2 6.1 10.6l-2.6 4.5c-5.8 10-3.6 22.7 5.2 30.3 10.6 9.1 19.7 14.3 33.5 19 10.8 3.7 22.7-.7 28.5-10.6l2.6-4.4c4.1.3 8.1.3 12.2 0l2.6 4.4c5.8 9.9 17.7 14.3 28.6 10.5 13.3-4.5 22.3-9.6 33.5-19.1 8.8-7.5 10.9-20.2 5.1-30.2l-2.6-4.4c2.3-3.4 4.3-6.9 6.1-10.6h5.1c11.6 0 21.4-8.2 23.6-19.6 2.6-13.7 2.7-24.2-.1-38.5-2.1-11.3-12.1-19.5-23.6-19.5h-5c-1.8-3.7-3.8-7.2-6.1-10.6l2.5-4.3c5.9-10.2 3.5-23.1-5.5-30.5-10.7-8.8-19.9-13.4-34-17.9-10.5-3.3-21.9.8-27.7 10.1zm12.2 34.5l10.6-18.3c6.7 2.8 12.9 6.4 18.7 10.8l-10.6 18.3 6.4 7.5c4.8 5.7 8.6 12.1 11 19.1l3.3 9.3h21.1c.9 7.1.9 14.4 0 21.5h-21.1l-3.3 9.3c-2.5 7-6.2 13.4-11 19.1l-6.4 7.5 10.5 18.4c-5.7 4.4-12 8-18.7 10.8l-10.6-18.3-9.7 1.8c-7.3 1.4-14.8 1.4-22.1 0l-9.7-1.8-10.6 18.3c-6.6-2.7-12.9-6.4-18.6-10.8l10.6-18.3-6.4-7.5c-4.8-5.7-8.6-12.1-11-19.1l-3.3-9.3h-21.1c-.9-7.1-.9-14.4 0-21.5h21.1l3.3-9.3c2.5-7 6.2-13.4 11-19.1l6.4-7.5-10.6-18.4c5.7-4.4 12-8 18.7-10.8l10.6 18.3 9.7-1.8c7.3-1.4 14.8-1.4 22.1 0zM145.3-6.4v31.6c-12.9 5.5-25.1 12.6-36.4 21.1L81.4 30.4c-9.8-5.6-22.1-3.7-29.7 4.6-24.2 26.3-38.5 49.5-50.6 88.1-3.4 10.7 1.1 22.3 10.8 28L39.2 167c-1.7 14-1.7 28.1 0 42.1l-27.3 15.8c-9.7 5.6-14.2 17.3-10.8 28 12.1 38.4 26.2 61.6 50.6 88.1 7.6 8.3 20 10.2 29.7 4.6l27.4-15.9c11.3 8.5 23.5 15.5 36.4 21.1v31.6c0 11.3 7.8 21 18.8 23.4 34.7 7.8 62 8.7 101.7 0 11-2.4 18.9-12.2 18.9-23.4v-31.6c12.9-5.5 25.1-12.6 36.4-21l27.4 15.8c9.8 5.6 22.2 3.7 29.8-4.6 26.9-29.6 41.5-55.9 52.1-88.5 3.4-10.5-.8-21.9-10.2-27.7l-25-15.8c1.7-14 1.7-28.1 0-42.1l28.1-17.5c8.6-5.4 13-15.6 10.8-25.5-6.9-31.3-33-64.6-55.9-89.2-7.6-8.2-19.9-10-29.6-4.4L321 46.2c-11.3-8.5-23.5-15.5-36.4-21.1V-6.5c0-11.2-7.8-21-18.8-23.4-37.5-8.3-64.9-8.2-101.9 0-10.8 2.5-18.6 12.3-18.6 23.5zm32 6.2c24.8-5 50.5-5 75.3 0v47.7l10.7 3.8c16.8 5.9 32.3 14.9 45.9 26.5l8.6 7.4 41.4-23.9c16.8 19.1 34 41.3 42.1 65.2l-41.4 23.9 2.1 11.1c3.2 17.6 3.2 35.5 0 53.1l-2.1 11.1 41.4 23.9c-8.1 23.9-25.3 46.2-42.1 65.2l-41.4-23.9-8.6 7.4c-13.6 11.7-29 20.6-45.9 26.5l-10.7 3.8v47.6c-24.8 5-50.5 5-75.3 0v-47.7l-10.7-3.8c-16.8-5.9-32.3-14.9-45.9-26.5l-8.6-7.4-41.4 23.9c-14-15.916-30.89-45.126-37.7-65.2l41.4-23.9-2.1-11.1c-3.2-17.6-3.2-35.5 0-53.1l2.1-11.1L33 126.4c8.1-23.9 20.9-46.2 37.7-65.2l41.4 23.9 8.6-7.4c13.6-11.7 29-20.6 45.9-26.5l10.7-3.8V-.2zm38.4 105.3c-45.7 0-82.9 37.2-82.9 82.9s37.2 82.9 82.9 82.9 82.9-37.2 82.9-82.9-37.2-82.9-82.9-82.9zm0 133.8c-28 0-50.9-22.8-50.9-50.9s22.8-50.9 50.9-50.9c28 0 50.9 22.8 50.9 50.9s-22.8 50.9-50.9 50.9zM538.6-52.8l-2.5 3.9c-4.1-.3-8.1-.3-12.2 0l-2.5-4c-5.8-9.2-17.1-13.4-27.5-10.1-13.8 4.3-23 8.8-34.3 18.1-9 7.4-11.2 20.3-5.4 30.4l2.5 4.3c-2.3 3.4-4.3 6.9-6.1 10.6h-9.1c-11.6 0-21.4 8.2-23.6 19.6-2.6 13.7-2.7 24.2.1 38.5 2.1 11.3 12.1 19.5 23.6 19.5h9c1.8 3.7 3.8 7.2 6.1 10.6l-2.6 4.5c-5.8 10-3.6 22.7 5.2 30.3 10.6 9.1 19.7 14.3 33.5 19 10.8 3.7 22.7-.7 28.5-10.6l2.6-4.4c4.1.3 8.1.3 12.2 0l2.6 4.4c5.8 9.9 17.7 14.3 28.6 10.5 13.3-4.5 22.3-9.6 33.5-19.1 8.8-7.5 10.9-20.2 5.1-30.2l-2.6-4.4c2.3-3.4 4.3-6.9 6.1-10.6h5.1c11.6 0 21.4-8.2 23.6-19.6 2.6-13.7 2.7-24.2-.1-38.5C635.9 8.6 625.9.4 614.4.4h-5c-1.8-3.7-3.8-7.2-6.1-10.6l2.5-4.3c5.9-10.2 3.5-23.1-5.5-30.5-10.7-8.8-19.9-13.4-34-17.9-10.5-3.2-21.9.9-27.7 10.1zm12.2 34.6l10.6-18.3c6.7 2.8 12.9 6.4 18.7 10.8L569.5-7.4l6.4 7.5c4.8 5.7 8.6 12.1 11 19.1l3.3 9.3h21.1c.9 7.1.9 14.4 0 21.5h-21.1l-3.3 9.3c-2.5 7-6.2 13.4-11 19.1l-6.4 7.5 10.6 18.3c-5.7 4.4-12 8-18.7 10.8l-10.6-18.3-9.7 1.8c-7.3 1.4-14.8 1.4-22.1 0l-9.7-1.8-10.6 18.3c-6.7-2.8-12.9-6.4-18.7-10.8l10.6-18.3-6.4-7.5c-4.8-5.7-8.6-12.1-11-19.1l-3.3-9.3h-21.1c-.9-7.1-.9-14.4 0-21.5h21.1l3.3-9.3c2.5-7 6.2-13.4 11-19.1l6.4-7.5L480-25.7c5.7-4.4 12-8 18.7-10.8l10.6 18.3L519-20c7.3-1.4 14.8-1.4 22.1 0zM560 40c0-17.7-14.3-32-32-32s-32 14.3-32 32 14.3 32 32 32 32-14.3 32-32zm0 304.3c0-17.6-14.3-32-32-32s-32 14.3-32 32 14.3 32 32 32 32-14.3 32-32z"/><glyph glyph-name="star-half" unicode="" horiz-adv-x="576" d="M288 44.6V8.4L157.3-60.2c-23.4-12.3-50.9 7.6-46.4 33.7l25 145.5L30.2 222c-19 18.5-8.5 50.8 17.7 54.6L194 297.8l65.3 132.4c5.901 11.9 17.3 17.8 28.7 17.8v-32l-72.799-147.5-162.7-23.6 117.8-114.801-27.8-162z"/><glyph glyph-name="sign-out" unicode="" d="M48 384h132c6.6 0 12-5.4 12-12v-8c0-6.6-5.4-12-12-12H48c-8.8 0-16-7.2-16-16V48c0-8.8 7.2-16 16-16h132c6.6 0 12-5.4 12-12v-8c0-6.6-5.4-12-12-12H48C21.5 0 0 21.5 0 48v288c0 26.5 21.5 48 48 48zm279-19.5c4.7 4.7 12.3 4.7 17 0l164.6-164c4.7-4.7 4.7-12.3 0-17l-164.5-164c-4.7-4.7-12.3-4.7-17 0l-7.1 7.1c-4.7 4.7-4.7 12.3 0 17L451.9 175H172c-6.6 0-12 5.4-12 12v10c0 6.6 5.4 12 12 12h279.9l-132 131.4a12.01 12.01 0 0 0 0 17z"/><glyph glyph-name="thumbtack" unicode="" horiz-adv-x="384" d="M300.8 244.1c48.3-27.6 83.2-74.5 83.1-131.3 0-8.8-7.2-16-16-16h-160V-24c0-.6 0-1.3-.2-1.9l-8-32c-2-8.1-13.5-8-15.5 0l-8 32c-.1.6-.2 1.2-.2 1.9V96.8H16c-8.8 0-16 7.2-16 16 0 56.8 34.9 103.7 83.2 131.3L93.3 320H56c-13.2 0-24 10.8-24 24v80c0 13.2 10.8 24 24 24h272c13.2 0 24-10.8 24-24v-80c0-13.2-10.8-24-24-24h-37.3zM33.3 128.8v-.1h317.5c-6.8 42.7-39.5 76.3-79.5 94.5L256 352h64v64H64v-64h64l-15.2-128.7c-39.9-18.1-72.7-51.6-79.5-94.5z"/><glyph glyph-name="external-link" unicode="" horiz-adv-x="576" d="M195.515 73.172c-4.686 4.686-4.686 12.284 0 16.97l323.15 323.15-.707.708-89.958-.342c-6.627 0-12 5.373-12 12v9.999c0 6.628 5.372 12 12 12L564 448c6.627 0 12-5.372 12-12l-.343-136c0-6.627-5.373-12-12-12h-9.999c-6.627 0-12 5.373-12 12l.342 89.958-.707.707-323.15-323.15c-4.686-4.686-12.283-4.686-16.97 0zm232 155.633c7.56 7.56 20.485 2.205 20.485-8.485V-16c0-26.51-21.49-48-48-48H48C21.49-64 0-42.51 0-16v352c0 26.51 21.49 48 48 48h347.976c10.692 0 16.046-12.924 8.486-20.485l-8-8a11.995 11.995 0 0 0-8.486-3.514H48c-8.836 0-16-7.163-16-16V-16c0-8.837 7.164-16 16-16h352c8.836 0 16 7.163 16 16v228.32c0 2.743 1.576 6.545 3.515 8.484z"/><glyph glyph-name="sign-in" unicode="" d="M184 364.5l164.5-164c4.7-4.7 4.7-12.3 0-17L184 19.5c-4.7-4.7-12.3-4.7-17 0l-7.1 7.1c-4.7 4.7-4.7 12.3 0 17l132 131.4H12c-6.6 0-12 5.4-12 12v10c0 6.6 5.4 12 12 12h279.9L160 340.4a12.01 12.01 0 0 0 0 17l7.1 7.1c4.6 4.7 12.2 4.7 16.9 0zM512 48c0-26.5-21.5-48-48-48H332c-6.6 0-12 5.4-12 12v8c0 6.6 5.4 12 12 12h132c8.8 0 16 7.2 16 16v288c0 8.8-7.2 16-16 16H332c-6.6 0-12 5.4-12 12v8c0 6.6 5.4 12 12 12h132c26.5 0 48-21.5 48-48V48z"/><glyph glyph-name="trophy" unicode="" horiz-adv-x="576" d="M448 384h116c6.6 0 12-5.4 12-12v-61.6c0-62-68-134.4-160.7-148.1C385.9 101.6 341.7 72 304 65.4V-32h86c14.4 0 26-11.7 26-26.1 0-3.3-2.7-5.9-6-5.9H166c-3.3 0-6 2.6-6 5.9 0 14.4 11.6 26.1 26 26.1h86v97.4c-37.6 6.6-81.9 36.2-111.3 96.9C68.1 176 0 248.3 0 310.4V372c0 6.6 5.4 12 12 12h116v52c0 6.6 5.4 12 12 12h296c6.6 0 12-5.4 12-12v-52zM32 310.4c0-40.4 45.9-94.9 114.5-112.601-11.5 35.3-18.5 78.4-18.5 130.2v24H32v-41.6zM288 96c72 0 128 104 128 232v88H160v-88c0-128 56-232 128-232zm256 214.4V352h-96v-24c0-51.8-7-94.9-18.5-130.2C498 215.5 544 270 544 310.4z"/><glyph glyph-name="upload" unicode="" d="M452 16c0-11-9-20-20-20s-20 9-20 20 9 20 20 20 20-9 20-20zm-84 20c11 0 20-9 20-20s-9-20-20-20-20 9-20 20 9 20 20 20zm144 48V-20c0-24.3-19.7-44-44-44H44C19.7-64 0-44.3 0-20V84c0 24.3 19.7 44 44 44h124v99.3h-52.7c-35.6 0-53.4 43.1-28.3 68.3l140.7 140.7c15.6 15.6 40.9 15.6 56.6 0L425 295.6c25.2-25.2 7.3-68.3-28.3-68.3H344V128h124c24.3 0 44-19.7 44-44zM200 259.3V72c0-4.4 3.6-8 8-8h96c4.4 0 8 3.6 8 8v187.3h84.7c7.1 0 10.7 8.6 5.7 13.7L261.7 413.7c-3.1 3.1-8.2 3.1-11.3 0L109.7 273c-5-5-1.5-13.7 5.7-13.7H200zM480 84c0 6.6-5.4 12-12 12H344V72c0-22.1-17.9-40-40-40h-96c-22.1 0-40 17.9-40 40v24H44c-6.6 0-12-5.4-12-12V-20c0-6.6 5.4-12 12-12h424c6.6 0 12 5.4 12 12V84z"/><glyph glyph-name="lemon" unicode="" d="M489.038 425.037c23.094-23.094 28.892-54.39 16.833-75.093-34.312-58.904 53.078-181.248-86.746-321.07C279.302-110.952 156.959-23.56 98.057-57.87 77.34-69.936 46.042-64.118 22.962-41.038-.13-17.944-5.929 13.352 6.13 34.055c34.313 58.904-53.077 181.248 86.745 321.07 139.828 139.829 262.161 52.43 321.073 86.746 7.027 4.094 15.273 6.129 24.007 6.129 16.994 0 35.83-7.71 51.084-22.963zM478.22 366.05c12.273 21.068-28.189 59.808-48.167 48.17-76.53-44.58-183.11 49.72-314.551-81.723C-15.886 201.11 78.328 94.422 33.782 17.947 21.823-2.58 61.423-42.176 81.951-30.22 158.47 14.352 265.065-79.934 396.5 51.5c131.387 131.387 37.175 238.075 81.72 314.55zm-218.749-29.669c-31.89-7.086-64.973-26.51-93.156-54.694-28.185-28.185-47.609-61.268-54.695-93.157-1.657-7.457-8.271-12.533-15.604-12.533a16.05 16.05 0 0 0-3.484.385c-8.626 1.917-14.066 10.464-12.149 19.09 8.392 37.756 30.872 76.41 63.307 108.844 32.432 32.433 71.087 54.915 108.843 63.306 8.628 1.919 17.173-3.523 19.09-12.149s-3.526-17.175-12.152-19.092z"/><glyph glyph-name="phone" unicode="" d="M487.8 423.9c14.2-3.2 24.2-15.8 24.2-30.4C512 140.2 306.7-64 54.5-64 39.9-64 27.3-54 24-39.7L.8 61C-2.6 75.7 5 90.7 18.9 96.7l108.4 46.5c12.7 5.5 27.7 1.8 36.5-8.9l44.1-53.9c69.3 34 125.6 90.4 159.6 159.6l-53.9 44.1c-10.7 8.8-14.4 23.8-8.9 36.5l46.5 108.5c6 13.9 21.1 21.5 35.8 18.1zM55.1-32c234.5.3 424.6 190.3 424.8 424.8l-99.6 23-46-107.399 72.8-59.5C358.7 145.701 302.6 89.401 199 40.8l-59.5 72.8-107.4-46z"/><glyph glyph-name="phone-square" unicode="" horiz-adv-x="448" d="M400 416c26.51 0 48-21.49 48-48V16c0-26.51-21.49-48-48-48H48C21.49-32 0-10.51 0 16v352c0 26.51 21.49 48 48 48h352zm16-400v352c0 8.822-7.178 16-16 16H48c-8.822 0-16-7.178-16-16V16c0-8.822 7.178-16 16-16h352c8.822 0 16 7.178 16 16zm-54.867 321.745C374.597 334.639 384 322.818 384 309c0-153.181-123.967-277-277-277-13.816 0-25.636 9.403-28.743 22.867l-13.494 58.501c-3.215 13.924 3.987 28.118 17.125 33.748l62.992 26.998c12.013 5.147 26.18 1.68 34.453-8.435l19.74-24.127c26.815 14.793 60.583 48.56 75.376 75.375l-24.129 19.742c-10.113 8.272-13.58 22.44-8.435 34.45l27 62.996c4.224 9.871 16.363 17.883 27.1 17.883 1.859 0 4.837-.341 6.649-.76zM108.987 64.008c133.948 1.058 241.949 109.303 243.007 243.007l-54.519 12.579-25.435-59.348 42.29-34.602c-29.788-63.487-62.08-94.936-123.973-123.971l-34.602 42.288-59.347-25.435z"/><glyph glyph-name="unlock" unicode="" horiz-adv-x="384" d="M336 192c26.5 0 48-21.5 48-48V-16c0-26.5-21.5-48-48-48H48C21.5-64 0-42.5 0-16v160c0 26.5 21.5 48 48 48h16v96c0 88.4 40 160.3 128.5 160 88.4-.3 127.5-73.1 127.5-161.5V268c0-6.6-5.4-12-12-12h-8c-6.6 0-12 5.4-12 12v20c0 70.6-25.4 128-96 128s-96-57.4-96-128v-96h240zm16-208v160c0 8.8-7.2 16-16 16H48c-8.8 0-16-7.2-16-16V-16c0-8.8 7.2-16 16-16h288c8.8 0 16 7.2 16 16z"/><glyph glyph-name="credit-card" unicode="" horiz-adv-x="576" d="M528 416c26.5 0 48-21.5 48-48V16c0-26.5-21.5-48-48-48H48C21.5-32 0-10.5 0 16v352c0 26.5 21.5 48 48 48h480zM48 384c-8.8 0-16-7.2-16-16v-48h512v48c0 8.8-7.2 16-16 16H48zM528 0c8.8 0 16 7.2 16 16v208H32V16c0-8.8 7.2-16 16-16h480zM192 84v-8c0-6.6-5.4-12-12-12h-72c-6.6 0-12 5.4-12 12v8c0 6.6 5.4 12 12 12h72c6.6 0 12-5.4 12-12zm192 0v-8c0-6.6-5.4-12-12-12H236c-6.6 0-12 5.4-12 12v8c0 6.6 5.4 12 12 12h136c6.6 0 12-5.4 12-12z"/><glyph glyph-name="rss" unicode="" horiz-adv-x="448" d="M80 96c-26.467 0-48-21.533-48-48S53.533 0 80 0s48 21.533 48 48-21.533 48-48 48zm0 32c44.183 0 80-35.817 80-80s-35.817-80-80-80S0 3.817 0 48s35.817 80 80 80zM447.996-19.615C448.179-26.391 442.772-32 435.994-32h-8.007c-6.482 0-11.816 5.146-11.994 11.626-6.048 220.454-183.558 398.317-404.367 404.367C5.146 384.171 0 389.505 0 395.987v8.006c0 6.778 5.61 12.185 12.386 12.002 237.55-6.446 429.162-197.762 435.61-435.61zm-144.245.05c.273-6.792-5.2-12.435-11.998-12.435h-8.005c-6.458 0-11.72 5.114-11.99 11.567-5.89 141.112-119.057 254.301-260.19 260.191-6.453.27-11.568 5.53-11.568 11.99v8.005c0 6.796 5.643 12.271 12.435 11.998 158.109-6.346 284.97-133.184 291.316-291.316z"/><glyph glyph-name="hdd" unicode="" horiz-adv-x="576" d="M566.819 220.623c5.067-6.968 9.18-19.615 9.18-28.231V48c0-26.51-21.49-48-48-48H48C21.49 0 0 21.49 0 48v144.392c0 8.616 4.114 21.263 9.181 28.231l104.443 143.609C121.56 375.143 138.95 384 152.442 384h271.114c13.493 0 30.884-8.857 38.82-19.768zM139.503 345.411L51.204 224h473.592l-88.298 121.411a16.048 16.048 0 0 1-12.94 6.589H152.444c-4.494-.007-10.291-2.96-12.94-6.589zM544 176c0 8.837-7.163 16-16 16H48c-8.837 0-16-7.163-16-16V48c0-8.823 7.178-16 16-16h480c8.822 0 16 7.177 16 16v128zm-56-64c0-13.255-10.745-24-24-24s-24 10.745-24 24 10.745 24 24 24 24-10.745 24-24zm-64 0c0-13.255-10.745-24-24-24s-24 10.745-24 24 10.745 24 24 24 24-10.745 24-24z"/><glyph glyph-name="certificate" unicode="" d="M495.768 175.708c30.04-28.786 16.251-79.538-23.831-89.367l-22.767-5.81 6.464-22.699c11.15-39.941-25.976-76.536-65.449-65.45l-22.672 6.46-5.807-22.766c-9.898-40.426-61.195-53.646-89.452-23.746L256-31.05l-16.338-16.708C211.16-77.53 160.225-64.5 150.295-23.922L144.49-1.155l-22.672-6.461c-39.195-10.979-76.67 25.247-65.45 65.45l6.464 22.698-22.767 5.81c-40.081 9.829-53.87 60.58-23.83 89.366l16.719 16.362-16.72 16.363c-30.04 28.786-16.25 79.538 23.831 89.365l22.767 5.811-6.464 22.698c-11.229 40.226 26.308 76.442 65.449 65.45l22.672-6.461 5.806 22.768c9.87 40.307 61.082 53.44 89.406 23.793l16.3-16.79 16.3 16.791c28.59 29.928 79.626 16.09 89.404-23.783l5.808-22.778 22.672 6.46c39.334 11.018 76.682-25.453 65.45-65.45l-6.465-22.698 22.768-5.811c40.081-9.828 53.87-60.58 23.83-89.365l-16.719-16.362zm-31.567-58.313c15.738 3.765 21.32 23.946 9.331 35.298l-40.237 39.379 40.237 39.379c11.995 11.353 6.401 31.534-9.331 35.296l-54.82 13.99L424.836 335c4.367 15.609-10.35 30.33-25.953 25.962l-54.245-15.458-13.986 54.837c-3.702 15.487-24.106 21.15-35.285 9.334L256 369.127l-39.366 40.548c-11.052 11.683-31.542 6.33-35.286-9.334l-13.985-54.837-54.245 15.458c-15.608 4.37-30.32-10.356-25.953-25.961l15.453-54.264-54.82-13.991c-15.738-3.764-21.32-23.947-9.33-35.296l40.237-39.38-40.237-39.378c-11.996-11.356-6.402-31.535 9.33-35.298l54.82-13.99L87.165 49.14c-4.367-15.607 10.35-30.33 25.953-25.962l54.245 15.458L181.348-16.2c3.886-16.253 24.235-21.014 35.286-9.334L256 14.716l39.365-40.25c10.938-11.801 31.488-6.55 35.285 9.334l13.987 54.837 54.245-15.458c15.607-4.37 30.319 10.358 25.953 25.962l-15.453 54.264z"/><glyph glyph-name="hand-point-right" unicode="" d="M441.6 300.8c37.63 0 70.4-32.24 70.4-70.4 0-38.484-32.063-70.4-70.4-70.4h-56.815c-.01-.35-.02-.703-.034-1.054-.537-14.187-4.656-27.726-11.884-39.582 4.643-23.338-2.335-48.386-16.635-65.494C357.857 4.084 327.206-32 267.6-32h-23.235c-54.11 0-90.454 34.281-125.103 42.038C113.428 3.862 105.167 0 96 0H32C14.327 0 0 14.327 0 32v224c0 17.673 14.327 32 32 32h64c11.62 0 21.792-6.194 27.398-15.459 18.05 10.075 49.857 49.383 60.92 67.144C198.2 362.148 207.453 416 256 416c41.314 0 73.6-29.922 73.6-70.4 0-17.79-4.354-32.61-9.792-44.8H441.6zM32 256V32h64v224H32zm409.6-64c20.7 0 38.4 17.7 38.4 38.4 0 20.4-18.3 38.4-38.4 38.4H268.8c0 18.9 28.8 38.4 28.8 76.8C297.6 368 280 384 256 384s-28.704-35.685-44.502-61.2c-14.595-23.444-53.665-72.556-83.5-83.262V40.861C167.678 31.266 200.025 0 244.362 0h23.236c44.208 0 62.317 24.215 55.2 66.9 15.942 8.729 26.349 37.069 14.101 58.5 21.126 19.882 19.404 50.597 5.4 66.6h99.3zM84 64c0-11.046-8.954-20-20-20s-20 8.954-20 20 8.954 20 20 20 20-8.954 20-20z"/><glyph glyph-name="hand-point-left" unicode="" d="M0 230.4c0 38.16 32.77 70.4 70.4 70.4h121.791c-5.437 12.189-9.79 27.01-9.79 44.8 0 40.478 32.285 70.4 73.599 70.4 48.546 0 57.8-53.853 71.684-76.316 11.061-17.76 42.868-57.068 60.918-67.143C394.208 281.805 404.38 288 416 288h64c17.673 0 32-14.328 32-32V32c0-17.673-14.327-32-32-32h-64c-9.167 0-17.428 3.86-23.26 10.038C358.088 2.28 321.746-32 267.635-32H244.4c-59.606 0-90.257 36.084-88.632 85.87-14.3 17.107-21.278 42.155-16.635 65.494-7.23 11.854-11.348 25.394-11.885 39.582-.012.35-.024.703-.033 1.054H70.4C32.063 160 0 191.916 0 230.4zM480 32v224h-64V32h64zM32 230.4c0-20.7 17.7-38.4 38.4-38.4h99.3c-14.005-16.003-15.726-46.718 5.399-66.6-12.247-21.433-1.84-49.772 14.1-58.5C182.083 24.215 200.192 0 244.4 0h23.236C311.974 0 344.32 31.266 384 40.86v198.678c-29.835 10.706-68.905 59.82-83.5 83.262C284.704 348.314 280 384 256 384s-41.6-16-41.6-38.4c0-38.4 28.8-57.9 28.8-76.8H70.4c-20.1 0-38.4-18-38.4-38.4zM448 84c11.046 0 20-8.954 20-20s-8.954-20-20-20-20 8.954-20 20 8.954 20 20 20z"/><glyph glyph-name="hand-point-up" unicode="" horiz-adv-x="448" d="M115.2 377.6c0 37.63 32.24 70.4 70.4 70.4 38.484 0 70.4-32.063 70.4-70.4v-56.815c.29-.008.762-.023 1.054-.034 14.187-.537 27.726-4.656 39.582-11.884 23.338 4.643 48.386-2.335 65.494-16.635C411.916 293.857 448 263.206 448 203.6v-23.235c0-54.11-34.281-90.454-42.038-125.103C412.138 49.428 416 41.167 416 32v-64c0-17.673-14.327-32-32-32H160c-17.673 0-32 14.327-32 32v64c0 11.62 6.194 21.792 15.459 27.398-10.075 18.05-49.383 49.857-67.144 60.92C53.852 134.2 0 143.453 0 192c0 41.313 29.922 73.6 70.4 73.598 17.79 0 32.61-4.353 44.8-9.79v121.791zM160-32h224v64H160v-64zm64 409.6c0 20.7-17.7 38.4-38.4 38.4-20.4 0-38.4-18.3-38.4-38.4V204.8c-18.9 0-38.4 28.8-76.8 28.8C48 233.6 32 216 32 192s35.685-28.704 61.2-44.502c23.444-14.595 72.556-53.665 83.262-83.5h198.677C384.734 103.678 416 136.026 416 180.362v23.236c0 44.208-24.215 62.317-66.9 55.2-8.729 15.942-37.069 26.349-58.5 14.101-19.882 21.126-50.597 19.404-66.6 5.4v99.3zM352 20c11.046 0 20-8.954 20-20s-8.954-20-20-20-20 8.954-20 20 8.954 20 20 20z"/><glyph glyph-name="hand-point-down" unicode="" horiz-adv-x="448" d="M185.6-64c-38.16 0-70.4 32.77-70.4 70.4v121.791c-12.189-5.437-27.01-9.79-44.8-9.79C29.923 118.4 0 150.685 0 192c0 48.546 53.853 57.8 76.316 71.684 17.76 11.061 57.068 42.869 67.143 60.918C134.195 330.208 128 340.38 128 352v64c0 17.673 14.328 32 32 32h224c17.673 0 32-14.327 32-32v-64c0-9.167-3.86-17.428-10.038-23.26C413.72 294.088 448 257.746 448 203.635V180.4c0-59.606-36.084-90.257-85.87-88.632-17.107-14.3-42.155-21.278-65.494-16.635-11.854-7.23-25.394-11.348-39.582-11.885-.35-.012-.703-.024-1.054-.033V6.4c0-38.337-31.916-70.4-70.4-70.4zM384 416H160v-64h224v64zM185.6-32C206.3-32 224-14.3 224 6.4v99.3c16.003-14.005 46.718-15.726 66.6 5.399 21.433-12.247 49.772-1.84 58.5 14.1 42.685-7.116 66.9 10.993 66.9 55.201v23.236c0 44.338-31.266 76.684-40.86 116.364H176.461c-10.706-29.835-59.82-68.905-83.262-83.5C67.686 220.704 32 216 32 192s16-41.6 38.4-41.6c38.4 0 57.9 28.8 76.8 28.8V6.4c0-20.1 18-38.4 38.4-38.4zM332 384c0 11.046 8.954 20 20 20s20-8.954 20-20-8.954-20-20-20-20 8.954-20 20z"/><glyph glyph-name="arrow-circle-left" unicode="" d="M504 192C504 55 393-56 256-56S8 55 8 192s111 248 248 248 248-111 248-248zM256-24c119.9 0 216 97.3 216 216 0 119.9-97.3 216-216 216-119.9 0-216-97.3-216-216C40 72.1 137.3-24 256-24zm-12.5 92.5l-115.1 115c-4.7 4.7-4.7 12.3 0 17l115.1 115c4.7 4.7 12.3 4.7 17 0l6.9-6.9c4.7-4.7 4.7-12.5-.2-17.1L181.7 209H372c6.6 0 12-5.4 12-12v-10c0-6.6-5.4-12-12-12H181.7l85.6-82.5c4.8-4.7 4.9-12.4.2-17.1l-6.9-6.9c-4.8-4.7-12.4-4.7-17.1 0z"/><glyph glyph-name="arrow-circle-right" unicode="" d="M8 192c0 137 111 248 248 248s248-111 248-248S393-56 256-56 8 55 8 192zm248 216c-119.9 0-216-97.3-216-216C40 72.1 137.3-24 256-24c119.9 0 216 97.3 216 216 0 119.9-97.3 216-216 216zm12.5-92.5l115.1-115c4.7-4.7 4.7-12.3 0-17l-115.1-115c-4.7-4.7-12.3-4.7-17 0l-6.9 6.9c-4.7 4.7-4.7 12.5.2 17.1l85.6 82.5H140c-6.6 0-12 5.4-12 12v10c0 6.6 5.4 12 12 12h190.3l-85.6 82.5c-4.799 4.7-4.9 12.4-.2 17.1l6.901 6.9c4.8 4.7 12.4 4.7 17.1 0z"/><glyph glyph-name="arrow-circle-up" unicode="" d="M256-56C119-56 8 55 8 192s111 248 248 248 248-111 248-248S393-56 256-56zM40 192C40 72.1 137.3-24 256-24c119.9 0 216 97.3 216 216 0 119.9-97.3 216-216 216-119.9 0-216-97.3-216-216zm92.5 12.5l115 115.1c4.7 4.7 12.3 4.7 17 0l115-115.1c4.7-4.7 4.7-12.3 0-17l-6.9-6.9c-4.7-4.7-12.5-4.7-17.1.2L273 266.3V76c0-6.6-5.4-12-12-12h-10c-6.6 0-12 5.4-12 12v190.3l-82.5-85.6c-4.7-4.8-12.4-4.9-17.1-.2l-6.9 6.9c-4.7 4.8-4.7 12.4 0 17.1z"/><glyph glyph-name="arrow-circle-down" unicode="" d="M256 440c137 0 248-111 248-248S393-56 256-56 8 55 8 192s111 248 248 248zm216-248c0 119.9-97.3 216-216 216-119.9 0-216-97.3-216-216C40 72.1 137.3-24 256-24c119.9 0 216 97.3 216 216zm-92.5 4.5c4.7-4.7 4.7-12.3 0-16.9l-115-115.1c-4.7-4.7-12.3-4.7-17 0l-115 115.1c-4.7 4.7-4.7 12.3 0 17l6.9 6.9c4.7 4.7 12.4 4.6 17.1-.2l82.5-85.6V308c0 6.6 5.4 12 12 12h10c6.6 0 12-5.4 12-12V117.7l82.5 85.5c4.6 4.9 12.4 4.9 17.1.2z"/><glyph glyph-name="filter" unicode="" d="M479.968 448c28.482 0 42.727-34.528 22.627-54.627L320 210.745V-31.984c0-27.762-32.634-41.965-53.072-24.082l-64 55.983C196.895 5.195 192 15.983 192 23.998v186.746L9.41 393.372C-10.729 413.512 3.613 448 32.038 448h447.93zM288 224l192 192H32l192-192V24l64-56v256z"/><glyph glyph-name="arrows-alt" unicode="" d="M502.3 215.3c12.9-12.9 12.9-33.7.1-46.6l-66.5-66.5c-20.8-20.8-56.3-6-56.3 23.3V176H272V68.4h50.5c29.3 0 44-35.6 23.3-56.3l-66.5-66.5c-12.8-12.9-33.7-12.9-46.6 0l-66.5 66.5c-20.8 20.8-6 56.3 23.3 56.3H240V176H132.5v-50.5c0-29.3-35.6-44-56.3-23.3L9.7 168.7c-12.9 12.8-12.9 33.7 0 46.6l66.4 66.5c20.8 20.8 56.3 6 56.3-23.3V208H240v107.5h-50.5c-29.3 0-44 35.6-23.3 56.3l66.5 66.5c12.8 12.9 33.7 12.9 46.6 0l66.5-66.4c20.8-20.8 6-56.3-23.3-56.3H272V208h107.5v50.5c0 29.3 35.6 44 56.3 23.3zm-398.7-89.8v133c0 3.6-4.4 5.5-7 2.9l-66.5-66.5c-1.6-1.6-1.6-4.2 0-5.8l66.5-66.5c2.6-2.6 7-.8 7 2.9zm218.9-85.9h-133c-3.6 0-5.5-4.4-2.9-7l66.5-66.5c1.6-1.6 4.2-1.6 5.8 0l66.5 66.5c2.6 2.6.8 7-2.9 7zm-133 304.8h133c3.6 0 5.5 4.4 2.9 7l-66.5 66.5c-1.6 1.6-4.2 1.6-5.8 0l-66.5-66.5c-2.6-2.6-.8-7 2.9-7zm292.4-155.3c1.7 1.6 1.7 4.2 0 5.7l-66.5 66.5c-2.6 2.6-7 .8-7-2.9V125.5c0-3.599 4.4-5.5 7-2.9z"/><glyph glyph-name="link" unicode="" d="M301.148 53.298l-79.2-79.19c-50.778-50.8-133.037-50.824-183.84 0-50.8 50.778-50.824 133.036 0 183.84l79.19 79.2c.957.958 2.54 2.482 3.532 3.403 7.55 7.005 19.794 2.004 20.208-8.286.193-4.807.597-9.607 1.215-14.384.482-3.717-.746-7.447-3.396-10.096-16.48-16.468-75.143-75.128-75.3-75.286-36.738-36.759-36.731-96.188 0-132.94 36.759-36.737 96.188-36.73 132.94 0l79.2 79.2.359.36c36.301 36.673 36.14 96.071-.37 132.58a93.41 93.41 0 0 1-27.585 19.11c-4.566 2.066-7.426 6.666-7.134 11.67.25 4.309 1.516 11.146 2.826 15.259 2.103 6.6 9.531 9.96 15.919 7.28 15.073-6.324 29.187-15.62 41.435-27.868 50.688-50.69 50.679-133.171 0-183.852zm-90.296 93.554c-50.688 50.688-50.679 133.17 0 183.852l79.2 79.19c50.778 50.8 133.038 50.824 183.84 0 50.8-50.778 50.824-133.036 0-183.84l-79.19-79.2c-.956-.958-2.54-2.482-3.532-3.403-7.548-7.005-19.794-2.005-20.208 8.286-.16 3.984-.704 10.429-1.215 14.384-.482 3.717.746 7.446 3.396 10.096 16.482 16.468 75.144 75.128 75.3 75.286 36.738 36.758 36.731 96.188 0 132.94-36.759 36.737-96.188 36.73-132.94 0l-79.2-79.2-.359-.36c-36.301-36.673-36.14-96.071.37-132.58 8.214-8.216 17.577-14.582 27.585-19.11 4.565-2.066 7.426-6.666 7.134-11.67-.25-4.309-1.516-11.146-2.826-15.259-2.103-6.6-9.531-9.96-15.919-7.28-15.073 6.324-29.187 15.62-41.435 27.868z"/><glyph glyph-name="flask" unicode="" horiz-adv-x="448" d="M434.9 37.3C466.6-4.2 437.1-64 384.9-64H63.099c-52.1 0-81.7 59.8-50 101.3l146.9 192.1V416h-26c-3.3 0-6 2.701-6 6v20c0 3.3 2.7 6 6 6h180c3.3 0 6-2.7 6-6v-20c0-3.299-2.7-6-6-6h-26V229.4zm-50-69.3c25.8 0 40.2 29.4 24.6 49.8L259.3 214.3c-2.1 2.8-3.3 6.2-3.3 9.7v192h-64V224c0-3.5-1.2-6.9-3.3-9.7L38.5 17.8C22.8-2.6 37.4-32 63.1-32h321.8z"/><glyph glyph-name="copy" unicode="" horiz-adv-x="448" d="M433.941 382.059c7.76-7.76 14.059-22.966 14.059-33.94V80c0-26.51-21.49-48-48-48h-80v-48c0-26.51-21.49-48-48-48H48C21.49-64 0-42.51 0-16v320c0 26.51 21.49 48 48 48h80v48c0 26.51 21.49 48 48 48h172.118c10.974 0 26.18-6.3 33.94-14.059zM352 415.509V352h63.508c-.586 2.374-2.465 5.703-4.195 7.43l-51.882 51.885c-1.728 1.73-5.057 3.608-7.431 4.194zM288-16v48H176c-26.51 0-48 21.49-48 48v240H48c-8.822 0-16-7.178-16-16V-16c0-8.822 7.178-16 16-16h224c8.822 0 16 7.178 16 16zm128 96v240h-72c-13.2 0-24 10.8-24 24v72H176c-8.822 0-16-7.178-16-16V80c0-8.822 7.178-16 16-16h224c8.822 0 16 7.178 16 16z"/><glyph glyph-name="paperclip" unicode="" d="M149.106-64c-33.076 0-66.153 12.59-91.333 37.772-50.364 50.36-50.364 132.305-.002 182.663l262.07 262.066c39.331 39.332 103.328 39.332 142.66 0 39.331-39.332 39.331-103.327 0-142.657L239.871 53.218c-28.297-28.3-74.347-28.302-102.65 0-28.3 28.301-28.3 74.35 0 102.65l170.302 170.297c4.686 4.686 12.283 4.686 16.97 0l5.66-5.66c4.686-4.686 4.686-12.285 0-16.971l-170.3-170.297c-15.82-15.822-15.82-41.564.002-57.386 15.82-15.82 41.563-15.82 57.385 0l222.63 222.626c26.85 26.852 26.85 70.541 0 97.394-26.856 26.851-70.544 26.85-97.396 0L80.404 133.803c-37.882-37.881-37.882-99.518 0-137.4 37.884-37.88 99.523-37.881 137.403 0L435.55 214.14c4.687 4.687 12.284 4.687 16.97 0l5.661-5.66c4.687-4.686 4.687-12.284 0-16.971L240.44-26.228C215.26-51.41 182.182-64 149.106-64z"/><glyph glyph-name="save" unicode="" horiz-adv-x="448" d="M433.941 318.059c7.76-7.76 14.059-22.966 14.059-33.94V16c0-26.51-21.49-48-48-48H48C21.49-32 0-10.51 0 16v352c0 26.51 21.49 48 48 48h268.118c10.974 0 26.18-6.3 33.94-14.059zM288 384H96v-96h192v96zM416 16v268.162c0 3.648-2.1 8.697-4.686 11.27l-83.882 83.882c-1.729 1.73-5.058 3.609-7.432 4.195v-103.51c0-13.254-10.745-24-24-24H88c-13.255 0-24 10.746-24 24v104H48c-8.822 0-16-7.177-16-16V16c0-8.822 7.178-16 16-16h352c8.822 0 16 7.178 16 16zM224 216c48.523 0 88-39.477 88-88s-39.477-88-88-88-88 39.477-88 88 39.477 88 88 88zm0-144c30.879 0 56 25.121 56 56s-25.121 56-56 56-56-25.121-56-56 25.121-56 56-56z"/><glyph glyph-name="square" unicode="" horiz-adv-x="448" d="M400 416c26.5 0 48-21.5 48-48V16c0-26.5-21.5-48-48-48H48C21.5-32 0-10.5 0 16v352c0 26.5 21.5 48 48 48h352zm16-400v352c0 8.8-7.2 16-16 16H48c-8.8 0-16-7.2-16-16V16c0-8.8 7.2-16 16-16h352c8.8 0 16 7.2 16 16z"/><glyph glyph-name="bars" unicode="" horiz-adv-x="448" d="M442 334H6c-3.312 0-6 2.688-6 6v24c0 3.312 2.688 6 6 6h436c3.312 0 6-2.688 6-6v-24c0-3.312-2.688-6-6-6zm0-160H6c-3.312 0-6 2.688-6 6v24c0 3.312 2.688 6 6 6h436c3.312 0 6-2.688 6-6v-24c0-3.312-2.688-6-6-6zm0-160H6c-3.312 0-6 2.688-6 6v24c0 3.312 2.688 6 6 6h436c3.312 0 6-2.688 6-6V20c0-3.312-2.688-6-6-6z"/><glyph glyph-name="table" unicode="" d="M464 416c26.51 0 48-21.49 48-48V16c0-26.51-21.49-48-48-48H48C21.49-32 0-10.51 0 16v352c0 26.51 21.49 48 48 48h416zM160 0v96H32V16c0-8.837 7.163-16 16-16h112zm0 128v96H32v-96h128zm0 128v96H32v-96h128zM320 0v96H192V0h128zm0 128v96H192v-96h128zm0 128v96H192v-96h128zM480 96H352V0h112c8.837 0 16 7.163 16 16v80zm0 32v96H352v-96h128zm0 128v96H352v-96h128z"/><glyph glyph-name="caret-down" unicode="" horiz-adv-x="320" d="M287.968 288c28.482 0 42.727-34.528 22.628-54.627l-127.968-128c-12.497-12.497-32.759-12.496-45.255 0l-127.962 128C-10.729 253.512 3.613 288 32.038 288h255.93zM160 128l128 128H32z"/><glyph glyph-name="caret-up" unicode="" horiz-adv-x="320" d="M32.032 96C3.55 96-10.695 130.528 9.404 150.627l127.968 128c12.497 12.497 32.76 12.496 45.255 0l127.962-128C330.73 130.488 316.387 96 287.962 96H32.032zM160 256L32 128h256z"/><glyph glyph-name="caret-left" unicode="" horiz-adv-x="192" d="M192 64.032c0-28.482-34.528-42.727-54.627-22.628l-128 127.968c-12.497 12.497-12.496 32.76 0 45.255l128 127.962C157.512 362.73 192 348.387 192 319.962V64.032zM32 192L160 64v256z"/><glyph glyph-name="caret-right" unicode="" horiz-adv-x="192" d="M0 319.968c0 28.482 34.528 42.727 54.627 22.628l128-127.968c12.497-12.497 12.496-32.759 0-45.255l-128-127.962C34.488 21.271 0 35.613 0 64.038v255.93zM160 192L32 320V64z"/><glyph glyph-name="columns" unicode="" d="M464 416c26.51 0 48-21.49 48-48V16c0-26.51-21.49-48-48-48H48C21.49-32 0-10.51 0 16v352c0 26.51 21.49 48 48 48h416zM240 0v352H32V16c0-8.837 7.163-16 16-16h192zm240 16v336H272V0h192c8.837 0 16 7.163 16 16z"/><glyph glyph-name="sort" unicode="" horiz-adv-x="320" d="M288 160c28.4 0 42.7-34.5 22.7-54.6l-128-128c-12.5-12.5-32.8-12.5-45.3 0l-128 128C-10.8 125.5 3.6 160 32 160h256zM160 0l128 128H32zM32 224c-28.4 0-42.7 34.5-22.7 54.6l128 128c12.5 12.5 32.8 12.5 45.3 0l128-128c20.2-20.1 5.8-54.6-22.6-54.6H32zm128 160L32 256h256z"/><glyph glyph-name="sort-down" unicode="" horiz-adv-x="320" d="M287.968 160c28.482 0 42.727-34.528 22.628-54.627l-127.968-128c-12.497-12.497-32.759-12.496-45.255 0l-127.962 128C-10.729 125.512 3.613 160 32.038 160h255.93zM160 0l128 128H32z"/><glyph glyph-name="sort-up" unicode="" horiz-adv-x="320" d="M32.032 224c-28.482 0-42.727 34.528-22.628 54.627l127.968 128c12.497 12.497 32.76 12.496 45.255 0l127.962-128C330.73 258.488 316.387 224 287.962 224H32.032zM160 384L32 256h256z"/><glyph glyph-name="envelope" unicode="" d="M464 384c26.5 0 48-21.5 48-48V48c0-26.5-21.5-48-48-48H48C21.5 0 0 21.5 0 48v288c0 26.5 21.5 48 48 48h416zM48 352c-8.8 0-16-7.2-16-16v-41.4c21.9-18.5 53.2-44 150.6-121.3 16.8-13.4 50.2-45.7 73.4-45.3 23.2-.4 56.5 31.9 73.4 45.3 97.4 77.3 128.7 102.8 150.6 121.3V336c0 8.8-7.2 16-16 16H48zM464 32c8.8 0 16 7.2 16 16v205c-22.8-18.7-58.8-47.6-130.7-104.7-21-16.8-56.9-52.6-93.3-52.3-36.6-.2-72.8 35.9-93.3 52.3C90.8 205.4 54.8 234.3 32 253V48c0-8.8 7.2-16 16-16h416z"/><glyph glyph-name="undo" unicode="" d="M20 440h10c6.627 0 12-5.373 12-12V317.375c43.196 73.578 123.239 122.91 214.793 122.624C393.18 439.572 504.213 327.991 504 191.603 503.786 54.819 392.834-56.001 256-56.001c-63.926 0-122.202 24.187-166.178 63.908-5.113 4.618-5.354 12.56-.482 17.433l7.069 7.07c4.503 4.502 11.749 4.713 16.481.453C150.782-1.239 200.934-22 256-22c117.743 0 214 95.331 214 214 0 117.744-95.332 214-214 214-82.863 0-154.738-47.077-190.29-116H180c6.626 0 12-5.373 12-12v-10c0-6.627-5.374-12-12-12H20c-6.628 0-12 5.373-12 12v160c0 6.627 5.372 12 12 12z"/><glyph glyph-name="gavel" unicode="" d="M500.892 261.439c14.813-14.812 14.81-38.783.001-53.593L387.369 94.314c-14.776-14.776-38.815-14.776-53.59 0l-20.644 20.643c-12.659 12.658-14.471 32.118-5.44 46.724l-29.692 29.693L219.2 132.57l8.081-8.08c16.932-16.935 16.932-44.485 0-61.418L112.927-51.301c-16.935-16.934-44.485-16.933-61.417 0L12.7-12.49c-16.932 16.934-16.932 44.485 0 61.418L127.074 163.28c16.933 16.931 44.484 16.933 61.417 0l8.083-8.082L255.376 214l-29.692 29.693c-14.607-9.035-34.066-7.22-46.725 5.438l-20.642 20.645c-14.775 14.775-14.775 38.815 0 53.59L271.849 436.89c14.811 14.814 38.784 14.809 53.592 0l20.642-20.634c12.913-12.912 14.336-32.416 5.448-46.73l81.997-81.997c14.316 8.889 33.82 7.464 46.732-5.448zM204.653 85.7c4.455 4.456 4.455 11.707-.001 16.163l-38.79 38.79c-4.456 4.457-11.706 4.456-16.162 0L35.346 26.298c-4.456-4.456-4.456-11.707 0-16.163l38.79-38.79v.001c4.456-4.457 11.707-4.458 16.163 0zm273.62 144.776c.953.953 1.727 2.82 1.727 4.168s-.773 3.214-1.725 4.166v.001l-20.644 20.644c-.953.953-2.819 1.726-4.167 1.726s-3.214-.773-4.168-1.726l-16.476-16.473-125.837 125.837 16.471 16.474c.954.954 1.728 2.82 1.728 4.17 0 1.347-.773 3.213-1.727 4.166l-20.642 20.645c-.954.952-2.821 1.725-4.17 1.725s-3.215-.773-4.168-1.725L180.942 300.74c-.952-.954-1.724-2.821-1.724-4.169 0-1.347.772-3.215 1.724-4.168l20.643-20.644c.954-.95 2.82-1.722 4.168-1.722 1.346 0 3.213.772 4.168 1.723l16.473 16.476 125.843-125.842-16.478-16.474c-.952-.953-1.723-2.82-1.723-4.167s.772-3.214 1.724-4.169l20.643-20.642c.953-.953 2.82-1.727 4.168-1.727s3.216.774 4.17 1.727z"/><glyph glyph-name="umbrella" unicode="" horiz-adv-x="576" d="M575.2 194.2c5.9-23.9-22.9-43.8-43.8-24.9-48.8 45.3-89.2 28.2-125.4-27.7-11.3-17.7-34.8-17-45.6 0-11.6 17.9-26.1 42.9-56.2 51.2V-.1c0-35.3-28.7-64-64-64-27.1 0-51.4 17.2-60.4 42.7-3 8.3 1.4 17.5 9.7 20.4s17.4-1.5 20.4-9.8c4.5-12.7 16.6-21.3 30.2-21.3 17.7 0 32 14.3 32 32V193c-25-6.5-41-28-56.2-51.5-10.8-16.9-34.2-17.8-45.6 0-35.5 55.401-75.9 73.8-125.399 27.7-21.3-19-50.1 1.201-44.1 25.1C30.9 318.1 146 393.6 272 399.6V432c0 8.8 7.2 16 16 16s16-7.2 16-16v-32.4c126.5-6.1 241.9-82.399 271.2-205.399zm-191.9-28.7c41.8 60.7 97.6 82.7 155.9 38.8C505 308.7 397.3 368 288 368c-109.2 0-215.9-58.7-250.8-163.2 48.6 38.2 114.5 28.5 156.1-39.3C216.4 200 243.5 227 288 227c37.4 0 71-21.8 95.3-61.5z"/><glyph glyph-name="paste" unicode="" horiz-adv-x="448" d="M433.941 254.059c7.76-7.76 14.059-22.966 14.059-33.94V-16c0-26.51-21.49-48-48-48H176c-26.51 0-48 21.49-48 48v48H48C21.49 32 0 53.49 0 80v288c0 26.51 21.49 48 48 48h66.752c6.605 18.623 24.39 32 45.248 32s38.642-13.377 45.248-32H272c26.51 0 48-21.49 48-48v-48h28.118c10.974 0 26.18-6.3 33.94-14.059zm-22.627-22.627l-51.884 51.883c-1.727 1.73-5.056 3.608-7.43 4.194V224h63.508c-.586 2.374-2.464 5.703-4.194 7.432zM160 418c-9.941 0-18-8.059-18-18s8.059-18 18-18 18 8.059 18 18-8.059 18-18 18zM48 64h80v208c0 26.51 21.49 48 48 48h112v48c0 8.822-7.178 16-16 16h-66.752c-6.605-18.623-24.389-32-45.248-32s-38.643 13.377-45.248 32H48c-8.822 0-16-7.178-16-16V80c0-8.822 7.178-16 16-16zm352-96c8.822 0 16 7.178 16 16v208h-72c-13.2 0-24 10.8-24 24v72H176c-8.822 0-16-7.178-16-16V-16c0-8.822 7.178-16 16-16h224z"/><glyph glyph-name="exchange" unicode="" d="M508.485 263.515l-92.485-92c-4.687-4.686-12.285-4.686-16.97 0l-7.071 7.07c-4.687 4.687-4.687 12.285 0 16.971L452.892 256H12c-6.627 0-12 5.373-12 12v8c0 6.627 5.373 12 12 12h440.905l-60.946 60.445c-4.687 4.685-4.687 12.283 0 16.97l7.07 7.07c4.687 4.686 12.284 4.686 16.97 0l92.486-92c4.687-4.686 4.686-12.284 0-16.97zm-504.97-160c-4.687 4.687-4.686 12.284 0 16.97l92.485 92c4.686 4.687 12.284 4.686 16.97 0l7.071-7.07c4.687-4.687 4.687-12.285 0-16.97L59.107 128H500c6.627 0 12-5.373 12-12v-8c0-6.627-5.373-12-12-12H59.095l60.947-60.444c4.686-4.686 4.686-12.284 0-16.97l-7.07-7.07c-4.687-4.686-12.285-4.686-16.971 0z"/><glyph glyph-name="coffee" unicode="" horiz-adv-x="576" d="M517.9 0H26.099c-24.5 0-33.1 32-20 32H537.9c13.1 0 4.5-32-20-32zM576 288.9c.5-53.4-42.7-96.9-96-96.9h-32v-32c0-53-43-96-96-96H160c-53 0-96 43-96 96v212c0 6.6 5.4 12 12 12h402.8c52.8 0 96.7-42.2 97.2-95.1zM416 352H96V160c0-35.3 28.7-64 64-64h192c35.3 0 64 28.7 64 64v192zm128-64c0 35.3-28.7 64-64 64h-32V224h32c35.3 0 64 28.7 64 64z"/><glyph glyph-name="hospital" unicode="" horiz-adv-x="448" d="M180 96h-40c-6.627 0-12 5.373-12 12v40c0 6.627 5.373 12 12 12h40c6.627 0 12-5.373 12-12v-40c0-6.627-5.373-12-12-12zm88 0c-6.627 0-12 5.373-12 12v40c0 6.627 5.373 12 12 12h40c6.627 0 12-5.373 12-12v-40c0-6.627-5.373-12-12-12h-40zm-128 96c-6.627 0-12 5.373-12 12v40c0 6.627 5.373 12 12 12h40c6.627 0 12-5.373 12-12v-40c0-6.627-5.373-12-12-12h-40zm128 0c-6.627 0-12 5.373-12 12v40c0 6.627 5.373 12 12 12h40c6.627 0 12-5.373 12-12v-40c0-6.627-5.373-12-12-12h-40zM448-64H0v20c0 6.627 5.373 12 12 12h20v395c0 11.598 10.745 21 24 21h88v40c0 13.255 10.745 24 24 24h112c13.255 0 24-10.745 24-24v-40h88c13.255 0 24-9.402 24-21V-32h20c6.627 0 12-5.373 12-12v-20zM64-32h128v84c0 6.627 5.373 12 12 12h40c6.627 0 12-5.373 12-12v-84h128v384h-80v-40c0-13.255-10.745-24-24-24H168c-13.255 0-24 10.745-24 24v40H64V-32zm202 416h-26v26c0 3.312-2.688 6-6 6h-20c-3.312 0-6-2.688-6-6v-26h-26c-3.312 0-6-2.688-6-6v-20c0-3.312 2.688-6 6-6h26v-26c0-3.312 2.688-6 6-6h20c3.312 0 6 2.688 6 6v26h26c3.312 0 6 2.688 6 6v20c0 3.312-2.688 6-6 6z"/><glyph glyph-name="medkit" unicode="" d="M464 352c26.51 0 48-21.49 48-48V16c0-26.51-21.49-48-48-48H48C21.49-32 0-10.51 0 16v288c0 26.51 21.49 48 48 48h112v40c0 13.255 10.745 24 24 24h144c13.255 0 24-10.745 24-24v-40h112zm-272 32v-32h128v32H192zm192-64H128V0h256v320zM32 16c0-8.822 7.178-16 16-16h48v320H48c-8.822 0-16-7.178-16-16V16zm448 0v288c0 8.822-7.178 16-16 16h-48V0h48c8.822 0 16 7.178 16 16zM352 176v-32c0-6.627-5.373-12-12-12h-56V76c0-6.627-5.373-12-12-12h-32c-6.627 0-12 5.373-12 12v56h-56c-6.627 0-12 5.373-12 12v32c0 6.627 5.373 12 12 12h56v56c0 6.627 5.373 12 12 12h32c6.627 0 12-5.373 12-12v-56h56c6.627 0 12-5.373 12-12z"/><glyph glyph-name="fighter-jet" unicode="" horiz-adv-x="640" d="M526.785 252.068C598.137 236.407 640 229.458 640 192c0-37.16-41.016-44.222-113.214-60.069l-102.96-11.266L382.163 104h-14.854L283.182-.391C304.102-1.973 320-8.242 320-16.001c0-9-21.383-16-47.19-16H144V0h16v120h-1.63l-64-72H36.46L8 76.11v67.646l-8 .988v94.511l8 .988v67.647L36.462 336H94.37l64-72H160v120h-16v32h128.81c25.807 0 47.19-7 47.19-16 0-7.759-15.899-14.027-36.818-15.61L367.31 280h14.854l41.662-16.665zm-5.185-88.512C608 182.519 608 187.185 608 192s0 9.482-86.4 28.445L416 232l-40 16h-24L242.4 384H192V232h-48l-64 72H49.6l-9.6-9.48V240h8v-16h41.6v-5.926l-57.6-7.11v-37.927l57.6-7.111V160H48v-16h-8V89.482L49.6 80H80l64 72h48V0h50.4L352 136h24l40 16z"/><glyph glyph-name="beer" unicode="" horiz-adv-x="448" d="M384 352c35.29 0 64-28.71 64-64V125.666c0-24.398-13.557-46.332-35.379-57.243L352 38.113V16c0-26.51-21.49-48-48-48H48C21.49-32 0-10.51 0 16v352c0 26.51 21.49 48 48 48h256c26.51 0 48-21.49 48-48v-16h32zM320 16v352c0 8.822-7.178 16-16 16H48c-8.822 0-16-7.178-16-16V16c0-8.822 7.178-16 16-16h256c8.822 0 16 7.178 16 16zm96 109.666V288c0 17.645-14.355 32-32 32h-32V73.888l46.31 23.156C409.222 102.5 416 113.467 416 125.666zM192 304V80c0-8.837-7.164-16-16-16s-16 7.163-16 16v224c0 8.837 7.164 16 16 16s16-7.163 16-16zm-64 0V80c0-8.837-7.164-16-16-16s-16 7.163-16 16v224c0 8.837 7.164 16 16 16s16-7.163 16-16zm128 0V80c0-8.837-7.163-16-16-16s-16 7.163-16 16v224c0 8.837 7.163 16 16 16s16-7.163 16-16z"/><glyph glyph-name="h-square" unicode="" horiz-adv-x="448" d="M400 416c26.51 0 48-21.49 48-48V16c0-26.51-21.49-48-48-48H48C21.49-32 0-10.51 0 16v352c0 26.51 21.49 48 48 48h352zm16-400v352c0 8.822-7.178 16-16 16H48c-8.822 0-16-7.178-16-16V16c0-8.822 7.178-16 16-16h352c8.822 0 16 7.178 16 16zm-80 292V76c0-6.627-5.373-12-12-12h-8c-6.627 0-12 5.373-12 12v100H144V76c0-6.627-5.373-12-12-12h-8c-6.627 0-12 5.373-12 12v232c0 6.627 5.373 12 12 12h8c6.627 0 12-5.373 12-12V208h160v100c0 6.627 5.373 12 12 12h8c6.627 0 12-5.373 12-12z"/><glyph glyph-name="plus-square" unicode="" horiz-adv-x="448" d="M400 384H48c-8.8 0-16-7.2-16-16V16c0-8.8 7.2-16 16-16h352c8.8 0 16 7.2 16 16v352c0 8.8-7.2 16-16 16zm0 32c26.5 0 48-21.5 48-48V16c0-26.5-21.5-48-48-48H48C21.5-32 0-10.5 0 16v352c0 26.5 21.5 48 48 48h352zm-60-206c6.6 0 12-5.4 12-12v-12c0-6.6-5.4-12-12-12h-98V76c0-6.6-5.4-12-12-12h-12c-6.6 0-12 5.4-12 12v98h-98c-6.6 0-12 5.4-12 12v12c0 6.6 5.4 12 12 12h98v98c0 6.6 5.4 12 12 12h12c6.6 0 12-5.4 12-12v-98h98z"/><glyph glyph-name="angle-double-left" unicode="" horiz-adv-x="320" d="M153.1 200.5l117.801 116c4.7 4.7 12.3 4.7 17 0l7.1-7.1c4.7-4.7 4.7-12.3 0-17L192.7 192 294.9 91.6a12.013 12.013 0 0 0 0-17l-7.101-7.1c-4.7-4.7-12.3-4.7-17 0L153 183.5c-4.6 4.701-4.6 12.3.1 17zm-128-17c-4.7 4.7-4.7 12.3-.1 17l117.8 116c4.7 4.7 12.3 4.7 17 0l7.1-7.1c4.7-4.7 4.7-12.3 0-17L64.7 192 167 91.6a12.01 12.01 0 0 0 0-17l-7.099-7.1c-4.7-4.7-12.3-4.7-17 0z"/><glyph glyph-name="angle-double-right" unicode="" horiz-adv-x="320" d="M166.9 183.5L49.099 67.5c-4.7-4.7-12.3-4.7-17 0l-7.1 7.1c-4.7 4.7-4.7 12.3 0 17L127.3 192 25.1 292.4a12.013 12.013 0 0 0 0 17l7.101 7.1c4.7 4.7 12.3 4.7 17 0l117.8-116c4.6-4.701 4.6-12.3-.1-17zm128 17c4.7-4.7 4.7-12.3.1-17l-117.8-116c-4.7-4.7-12.3-4.7-17 0l-7.101 7.1c-4.7 4.7-4.7 12.3 0 17l102.2 100.4-102.3 100.4a12.01 12.01 0 0 0 0 17l7.1 7.1c4.7 4.7 12.3 4.7 17 0z"/><glyph glyph-name="angle-double-up" unicode="" horiz-adv-x="256" d="M136.5 198.9l116-117.801c4.7-4.7 4.7-12.3 0-17l-7.1-7.1c-4.7-4.7-12.3-4.7-17 0L128 159.3 27.6 57.1a12.013 12.013 0 0 0-17 0l-7.1 7.1c-4.7 4.7-4.7 12.3 0 17l116 117.8c4.701 4.6 12.3 4.6 17-.1zm-17 128c4.7 4.7 12.3 4.7 17 .1l116-117.8c4.7-4.7 4.7-12.3 0-17l-7.1-7.101c-4.7-4.7-12.3-4.7-17 0L128 287.299l-100.4-102.3a12.01 12.01 0 0 0-17 0l-7.1 7.1c-4.7 4.7-4.7 12.3 0 17z"/><glyph glyph-name="angle-double-down" unicode="" horiz-adv-x="256" d="M119.5 185.1L3.5 302.901c-4.7 4.7-4.7 12.3 0 17l7.1 7.1c4.7 4.7 12.3 4.7 17 0L128 224.7l100.4 102.2a12.013 12.013 0 0 0 17 0l7.1-7.101c4.7-4.7 4.7-12.3 0-17L136.5 185c-4.701-4.6-12.3-4.6-17 .1zm17-128c-4.7-4.7-12.3-4.7-17-.1L3.5 174.8c-4.7 4.7-4.7 12.3 0 17l7.1 7.1c4.7 4.7 12.3 4.7 17 0L128 96.7 228.4 199a12.01 12.01 0 0 0 17 0l7.1-7.099c4.7-4.7 4.7-12.3 0-17z"/><glyph glyph-name="angle-left" unicode="" horiz-adv-x="192" d="M25.1 200.5l117.8 116c4.7 4.7 12.3 4.7 17 0l7.1-7.1c4.7-4.7 4.7-12.3 0-17L64.7 192 166.9 91.6a12.01 12.01 0 0 0 0-17l-7.1-7.1c-4.7-4.7-12.3-4.7-17 0L25 183.5c-4.6 4.701-4.6 12.3.1 17z"/><glyph glyph-name="angle-right" unicode="" horiz-adv-x="192" d="M166.9 183.5L49.099 67.5c-4.7-4.7-12.3-4.7-17 0l-7.1 7.1c-4.7 4.7-4.7 12.3 0 17L127.3 192 25.1 292.4a12.013 12.013 0 0 0 0 17l7.101 7.1c4.7 4.7 12.3 4.7 17 0l117.8-116c4.6-4.701 4.6-12.3-.1-17z"/><glyph glyph-name="angle-up" unicode="" horiz-adv-x="256" d="M136.5 262.9l116-117.801c4.7-4.7 4.7-12.3 0-17l-7.1-7.1c-4.7-4.7-12.3-4.7-17 0L128 223.3 27.6 121.1a12.013 12.013 0 0 0-17 0l-7.1 7.1c-4.7 4.7-4.7 12.3 0 17l116 117.8c4.701 4.6 12.3 4.6 17-.1z"/><glyph glyph-name="angle-down" unicode="" horiz-adv-x="256" d="M119.5 121.1L3.5 238.901c-4.7 4.7-4.7 12.3 0 17l7.1 7.1c4.7 4.7 12.3 4.7 17 0L128 160.7l100.4 102.2a12.013 12.013 0 0 0 17 0l7.1-7.101c4.7-4.7 4.7-12.3 0-17L136.5 121c-4.701-4.6-12.3-4.6-17 .1z"/><glyph glyph-name="desktop" unicode="" horiz-adv-x="576" d="M528 448c26.5 0 48-21.5 48-48V112c0-26.5-21.5-48-48-48H336l24-96h72c8.8 0 16-7.2 16-16s-7.2-16-16-16H144c-8.8 0-16 7.2-16 16s7.2 16 16 16h72l24 96H48C21.5 64 0 85.5 0 112v288c0 26.5 21.5 48 48 48h480zM249-32h78l-16 64h-46zm295 144v288c0 8.8-7.2 16-16 16H48c-8.8 0-16-7.2-16-16V112c0-8.8 7.2-16 16-16h480c8.8 0 16 7.2 16 16z"/><glyph glyph-name="tablet" unicode="" horiz-adv-x="448" d="M256 32c0-17.7-14.3-32-32-32s-32 14.3-32 32c0 21.3 14.3 32 32 32s32-14.3 32-32zm192 368V-16c0-26.5-21.5-48-48-48H48C21.5-64 0-42.5 0-16v416c0 26.5 21.5 48 48 48h352c26.5 0 48-21.5 48-48zm-32 0c0 8.8-7.2 16-16 16H48c-8.8 0-16-7.2-16-16V-16c0-8.8 7.2-16 16-16h352c8.8 0 16 7.2 16 16v416z"/><glyph glyph-name="mobile" unicode="" horiz-adv-x="320" d="M192 32c0-17.7-14.3-32-32-32s-32 14.3-32 32 14.3 32 32 32 32-14.3 32-32zm128 368V-16c0-26.5-21.5-48-48-48H48C21.5-64 0-42.5 0-16v416c0 26.5 21.5 48 48 48h224c26.5 0 48-21.5 48-48zm-32 0c0 8.8-7.2 16-16 16H48c-8.8 0-16-7.2-16-16V-16c0-8.8 7.2-16 16-16h224c8.8 0 16 7.2 16 16v416z"/><glyph glyph-name="spinner" unicode="" d="M288 416c0-17.673-14.327-32-32-32s-32 14.327-32 32 14.327 32 32 32 32-14.327 32-32zM256 0c17.673 0 32-14.327 32-32s-14.327-32-32-32-32 14.327-32 32 14.327 32 32 32zm256 192c0-17.673-14.327-32-32-32s-32 14.327-32 32 14.327 32 32 32 32-14.327 32-32zm-448 0c0-17.673-14.327-32-32-32S0 174.327 0 192s14.327 32 32 32 32-14.327 32-32zM97.608 65.608c17.673 0 32-14.327 32-32 0-17.673-14.327-32-32-32-17.673 0-32 14.327-32 32 0 17.673 14.327 32 32 32zm316.784 0c17.674 0 32-14.327 32-32 0-17.673-14.326-32-32-32-17.673 0-32 14.327-32 32 0 17.673 14.327 32 32 32zM97.608 382.392c17.673 0 32-14.326 32-32 0-17.673-14.327-32-32-32-17.673 0-32 14.327-32 32 0 17.674 14.327 32 32 32z"/><glyph glyph-name="circle" unicode="" d="M256 440c137 0 248-111 248-248S393-56 256-56 8 55 8 192s111 248 248 248zm216-248c0 119.9-97.3 216-216 216-119.9 0-216-97.3-216-216C40 72.1 137.3-24 256-24c119.9 0 216 97.3 216 216z"/><glyph glyph-name="gamepad" unicode="" horiz-adv-x="640" d="M472 328H168c-75.2 0-136-60.8-136-136S92.8 56 168 56c53.9 0 80 24 97 40h110c17-16 54.9-40 97-40 75.2 0 136 60.8 136 136s-60.8 136-136 136zm0 32c92.8 0 168-75.2 168-168S564.8 24 472 24c-41.5 0-79.5 15.1-108.8 40h-86.4C247.5 39.1 209.5 24 168 24 75.2 24 0 99.2 0 192s75.2 168 168 168h304zm40-100c19.9 0 36-16.1 36-36s-16.1-36-36-36-36 16.1-36 36 16.1 36 36 36zm-64-64c19.9 0 36-16.1 36-36s-16.1-36-36-36-36 16.1-36 36 16.1 36 36 36zm-268 16h46c3.3 0 6-2.7 6-6v-28c0-3.3-2.7-6-6-6h-46v-46c0-3.3-2.7-6-6-6h-28c-3.3 0-6 2.7-6 6v46H94c-3.3 0-6 2.7-6 6v28c0 3.3 2.7 6 6 6h46v46c0 3.3 2.7 6 6 6h28c3.3 0 6-2.7 6-6v-46z"/><glyph glyph-name="keyboard" unicode="" horiz-adv-x="576" d="M528 384c26.51 0 48-21.49 48-48V48c0-26.51-21.49-48-48-48H48C21.49 0 0 21.49 0 48v288c0 26.51 21.49 48 48 48h480zm16-336v288c0 8.823-7.177 16-16 16H48c-8.823 0-16-7.177-16-16V48c0-8.823 7.177-16 16-16h480c8.823 0 16 7.177 16 16zM168 180c0-6.627-5.373-12-12-12h-24c-6.627 0-12 5.373-12 12v24c0 6.627 5.373 12 12 12h24c6.627 0 12-5.373 12-12v-24zm96 0c0-6.627-5.373-12-12-12h-24c-6.627 0-12 5.373-12 12v24c0 6.627 5.373 12 12 12h24c6.627 0 12-5.373 12-12v-24zm96 0c0-6.627-5.373-12-12-12h-24c-6.627 0-12 5.373-12 12v24c0 6.627 5.373 12 12 12h24c6.627 0 12-5.373 12-12v-24zm96 0c0-6.627-5.373-12-12-12h-24c-6.627 0-12 5.373-12 12v24c0 6.627 5.373 12 12 12h24c6.627 0 12-5.373 12-12v-24zm-336-80c0-6.627-5.373-12-12-12H84c-6.627 0-12 5.373-12 12v24c0 6.627 5.373 12 12 12h24c6.627 0 12-5.373 12-12v-24zm384 0c0-6.627-5.373-12-12-12h-24c-6.627 0-12 5.373-12 12v24c0 6.627 5.373 12 12 12h24c6.627 0 12-5.373 12-12v-24zM120 260c0-6.627-5.373-12-12-12H84c-6.627 0-12 5.373-12 12v24c0 6.627 5.373 12 12 12h24c6.627 0 12-5.373 12-12v-24zm96 0c0-6.627-5.373-12-12-12h-24c-6.627 0-12 5.373-12 12v24c0 6.627 5.373 12 12 12h24c6.627 0 12-5.373 12-12v-24zm96 0c0-6.627-5.373-12-12-12h-24c-6.627 0-12 5.373-12 12v24c0 6.627 5.373 12 12 12h24c6.627 0 12-5.373 12-12v-24zm96 0c0-6.627-5.373-12-12-12h-24c-6.627 0-12 5.373-12 12v24c0 6.627 5.373 12 12 12h24c6.627 0 12-5.373 12-12v-24zm96 0c0-6.627-5.373-12-12-12h-24c-6.627 0-12 5.373-12 12v24c0 6.627 5.373 12 12 12h24c6.627 0 12-5.373 12-12v-24zm-96-152c0-6.627-5.373-12-12-12H180c-6.627 0-12 5.373-12 12v8c0 6.627 5.373 12 12 12h216c6.627 0 12-5.373 12-12v-8z"/><glyph glyph-name="terminal" unicode="" horiz-adv-x="640" d="M34.495 411.535l211.051-211.05c4.687-4.687 4.687-12.284 0-16.972L34.496-27.536c-4.687-4.685-12.285-4.685-16.97 0l-7.072 7.07c-4.686 4.686-4.686 12.285 0 16.971L205.947 192 10.454 387.493c-4.686 4.686-4.686 12.285 0 16.971l7.071 7.07c4.686 4.687 12.284 4.687 16.97 0zM640-20c0-6.627-5.373-12-12-12H300c-6.627 0-12 5.373-12 12v10c0 6.627 5.373 12 12 12h328c6.627 0 12-5.373 12-12v-10z"/><glyph glyph-name="code" unicode="" horiz-adv-x="576" d="M228.5-63.8l-25 7.1c-3.2.9-5 4.2-4.1 7.4l140.7 492.9c.9 3.2 4.2 5 7.4 4.1l25-7.1c3.2-.9 5-4.2 4.1-7.4L235.9-59.6c-.9-3.2-4.3-5.1-7.4-4.2zM152.9 61.5c-1.8-2.1-5-2.3-7.1-.5L1.7 188.2c-2.3 2-2.3 5.5 0 7.5l144.1 127.2c2.1 1.9 5.3 1.7 7.1-.4l18.5-20.9c1.9-2.1 1.6-5.3-.5-7.1L49.9 192l121-102.5c2.1-1.8 2.4-5 .5-7.1zm277.3-.4c-2.1-1.9-5.3-1.7-7.1.4l-18.5 20.9c-1.9 2.1-1.6 5.3.5 7.1l121 102.5-121 102.5c-2.1 1.8-2.4 5-.5 7.1l18.5 20.9c1.9 2 5 2.2 7.1.4l144.1-127.1c2.3-2 2.3-5.5 0-7.5z"/><glyph glyph-name="reply-all" unicode="" horiz-adv-x="576" d="M105.368 201.369c-12.491 12.5-12.491 32.76 0 45.26l160.002 159.97c20.04 20.04 54.63 5.96 54.63-22.63v-72.69c115.5-3.84 256-28.17 256-181.07 0-64.98-33.54-118.26-85.11-155.97-24.19-17.7-58.04 4.92-49.69 34.51 27.7 98.19.38 122.06-121.2 126.42V64.02c0-28.61-34.61-42.64-54.63-22.63zM128 223.999l160-160v103.9c145.671-1.326 224.979-22.634 184-167.9 31.51 23.05 72 65.11 72 130.21 0 131.425-125.835 148.345-256 149.69v104.1zM9.372 246.627l160 159.974c13.467 13.468 33.495 11.507 45.189.105L32 224 214.564 41.287c-11.7-11.403-31.739-13.346-45.192.106l-160 159.979c-12.497 12.498-12.497 32.759 0 45.256z"/><glyph glyph-name="location-arrow" unicode="" d="M461.9 448c32.24 0 60.16-34.89 46.59-67.48L316.59-35.26C307.33-55.1 289.88-64 272.58-64c-24.53 0-48.74 17.92-48.74 47.93v175.91H47.93c-51.17 0-67.16 70.36-19.19 92.75l415.77 191.891c5.8 2.42 11.66 3.52 17.39 3.52zm17.55-54.08c1.89 4.6-.24 9.72-2.43 13.01-3.62 5.43-9.69 9.08-15.11 9.08-1.72 0-3.38-.34-5.09-1.05L42.14 223.55c-10.97-5.12-10.8-14.17-9.7-19.1.85-3.8 4.04-12.63 15.49-12.63h207.88v-207.9c0-12.61 10.96-15.939 16.76-15.939 6.79 0 11.85 3.46 15.03 10.28z"/><glyph glyph-name="code-branch" unicode="" horiz-adv-x="384" d="M384 304c0-38.1-26.7-70-62.5-77.9-.8-25.2-7.4-45.2-19.8-60.7-26-32.4-70.1-36.5-112.7-40.5-26.4-2.5-51.4-4.9-68.9-13.7-6.7-3.4-14-8.4-19-18 34-9.3 58.9-40.3 58.9-77.2 0-44.2-35.8-80-80-80S0-28.2 0 16c0 38.7 27.5 71 64 78.4v195.2C27.5 297 0 329.3 0 368c0 44.2 35.8 80 80 80s80-35.8 80-80c0-38.7-27.5-71-64-78.4V134c3 2.099 6.3 4 9.7 5.7 23 11.5 52.2 14.3 80.4 16.899 37.6 3.5 73.2 6.9 90.7 28.7 7.7 9.6 11.9 22.8 12.7 40-37.3 6.9-65.5 39.5-65.5 78.7 0 44.2 35.8 80 80 80s80-35.8 80-80zM32 368c0-26.5 21.5-48 48-48s48 21.5 48 48-21.5 48-48 48-48-21.5-48-48zm96-352c0 26.3-21.3 47.8-47.6 48h-.6C53.4 63.9 32 42.4 32 16c0-26.5 21.5-48 48-48s48 21.5 48 48zm187.8 241.5c20.8 5.3 36.2 24.1 36.2 46.5 0 26.5-21.5 48-48 48s-48-21.5-48-48 21.5-48 48-48z"/><glyph glyph-name="unlink" unicode="" d="M207.889 310.765c-4.686 4.687-4.686 12.284 0 16.972l82.16 82.158c50.81 50.813 133.045 50.804 183.848 0 50.812-50.81 50.802-133.048-.002-183.847l-82.158-82.16c-4.686-4.685-12.284-4.685-16.972 0l-8.484 8.486c-4.687 4.686-4.687 12.284 0 16.97l82.16 82.16c36.737 36.741 36.734 96.2 0 132.937-36.742 36.74-96.2 36.735-132.939 0l-82.159-82.158c-4.686-4.687-12.284-4.687-16.97 0zM196.498-.529l82.189 82.191c4.687 4.686 12.285 4.686 16.971 0l8.484-8.484c4.686-4.687 4.686-12.285 0-16.971l-82.19-82.19c-50.685-50.687-133.16-50.688-183.847 0-50.813 50.81-50.803 133.049 0 183.849l82.19 82.188c4.687 4.687 12.285 4.687 16.97 0l8.486-8.484c4.685-4.688 4.685-12.285 0-16.972l-82.19-82.19c-36.739-36.742-36.736-96.2 0-132.936 36.65-36.652 96.286-36.65 132.937-.001zM11.999 444.485c4.687 4.687 12.285 4.687 16.97 0L508.488-35.03c4.685-4.687 4.685-12.285 0-16.97L500-60.487c-4.686-4.686-12.285-4.686-16.97 0L3.514 419.029c-4.686 4.686-4.686 12.285 0 16.97z"/><glyph glyph-name="question" unicode="" horiz-adv-x="384" d="M200.343 448c88.008 0 178.089-68.793 178.089-159.872 0-94.919-78.9-120.433-104.285-139.423V144c0-16.007-7.884-30.198-19.964-38.924C274.862 87.453 288.001 61.234 288.001 32c0-52.935-43.066-96-96-96S96-20.935 96 32c0 29.234 13.138 55.453 33.817 73.076-12.08 8.725-19.964 22.917-19.964 38.924v13.749c0 101.507 109.301 96.52 109.301 122.25 0 11.244-15.071 18.243-25.29 18.243-17.76 0-24.658-4.78-46.13-31.96-16.334-20.675-45.972-24.213-66.68-8.51L39.02 289.643c-20.282 15.381-25.037 43.956-10.824 65.055C69.761 416.401 124.033 448 200.343 448zM192-32c35.29 0 64 28.71 64 64s-28.71 64-64 64-64-28.71-64-64 28.71-64 64-64zm50.146 186.406c0 35.68 104.285 37.167 104.285 133.722 0 72.714-75.426 127.872-146.089 127.872-67.984 0-111.467-28.499-145.608-79.18-4.737-7.033-3.138-16.553 3.62-21.677l42.033-31.871c6.952-5.272 16.832-3.993 22.236 2.847 22.075 27.943 37.459 44.123 71.242 44.123 25.61 0 57.289-18.242 57.289-50.242 0-64.925-109.301-35.469-109.301-122.251V144c0-8.837 7.164-16 16-16h68.293c8.837 0 16 7.163 16 16v10.406z"/><glyph glyph-name="info" unicode="" horiz-adv-x="256" d="M208 79.333c22.673-3.82 40-23.59 40-47.333v-48c0-26.467-21.533-48-48-48H56C29.533-64 8-42.467 8-16v48c0 23.742 17.327 43.514 40 47.334v65.333C25.327 148.487 8 168.257 8 192v48c0 26.467 21.533 48 48 48h.504C41.274 304.996 32 327.435 32 352c0 52.935 43.065 96 96 96s96-43.065 96-96c0-29.701-13.558-56.296-34.81-73.919C200.62 269.3 208 255.495 208 240V79.333zM128 416c-35.346 0-64-28.654-64-64s28.654-64 64-64 64 28.654 64 64-28.654 64-64 64zm88-432v48c0 8.837-7.163 16-16 16h-24v192c0 8.837-7.163 16-16 16H56c-8.837 0-16-7.163-16-16v-48c0-8.837 7.163-16 16-16h24V48H56c-8.837 0-16-7.163-16-16v-48c0-8.837 7.163-16 16-16h144c8.837 0 16 7.163 16 16z"/><glyph glyph-name="exclamation" unicode="" horiz-adv-x="192" d="M139.315 416h-86.63c-6.89 0-12.364-5.787-11.982-12.666l14.667-264A11.999 11.999 0 0 1 67.35 128h57.297c6.368 0 11.629 4.975 11.981 11.334l14.667 264c.382 6.879-5.092 12.666-11.981 12.666zM96 96c-35.29 0-64-28.71-64-64s28.71-64 64-64 64 28.71 64 64-28.71 64-64 64zm43.315 352c25.232 0 45.332-21.251 43.932-46.441l-14.667-264c-.652-11.728-5.864-22.178-13.855-29.665C177.386 90.318 192 62.832 192 32c0-52.935-43.066-96-96-96S0-20.935 0 32c0 30.832 14.613 58.318 37.274 75.894-7.99 7.487-13.202 17.937-13.855 29.665l-14.667 264C7.352 426.754 27.457 448 52.684 448h86.63z"/><glyph glyph-name="puzzle-piece" unicode="" horiz-adv-x="576" d="M506.584 192c43.19 0 69.416-37.165 69.416-80 0-41.616-25.773-81.893-67.871-81.892-43.943 0-75.805 51.13-92.52 29.106-19.105-25.183 6.744-108.48 7.702-111.907-80.368-.033-151.932-24.783-187.085 6.285-9.485 8.383-14.498 20.08-14.498 33.828C221.728 27.653 256 35.217 256 64c0 11.886-10.325 32-49.022 32C182.534 96 160 88.437 160 64c0-33.043 32-44.53 32-73.875C192-52.16 148.443-64 106.163-64 70.681-64.003 33.315-57.366 0-49.353v345.312c35.346-8.484 125.985-27.805 154.401-5.389 21.547 17.001-24.351 35.586-24.351 88.606 0 43.214 41.233 68.824 84.792 68.824 41.605 0 75.43-26.026 75.431-67.299 0-42.947-47.932-72.633-31.313-86.443 26.592-22.096 129.607-4.193 163.836 2.177-5.503-24.709-23.6-106.859-3.475-131.94C434.572 145.487 454.277 192 506.584 192zm1.544-129.893C523.024 62.107 544 77.587 544 112c0 24.7-12.457 48-37.416 48-33.824 0-48.355-32-77.498-32-55.127 0-54.944 74.706-46.866 128.999C324.845 249.161 224 242.264 224 300.092c0 39.858 34.272 51.184 34.272 80.61 0 26.054-23.395 35.298-43.43 35.298-24.577 0-52.792-12.146-52.792-36.824 0-33.66 29.95-48.075 29.95-76.642 0-64.641-96.745-58.162-160-46.505V-23.8c33.995-6.704 128-19.765 128 13.925 0 3.6-4.463 9.545-9.19 15.838C104.093 68.171 131.997 128 206.977 128 254.683 128 288 101.683 288 64c0-44.28-50.707-68.644-30.583-86.43 17.901-15.82 88.53-2.81 124.926.614C371.775 31.022 373.049 96 426.615 96c40.149 0 51.511-33.893 81.513-33.893z"/><glyph glyph-name="shield" unicode="" d="M466.5 364.3c17.8-7.4 29.5-24.9 29.5-44.3C496 98.7 360.1-24.6 274.4-60.3a48.15 48.15 0 0 0-36.9 0C130.5-15.7 16 121.5 16 320c0 19.4 11.7 36.9 29.6 44.3l192 80c4.89 2.03 13.155 3.675 18.45 3.675 5.294 0 13.559-1.646 18.45-3.675zM262.2-30.8C360 8 464 144 463.9 320c0 6.5-3.8 12.3-9.8 14.8l-192 80c-4 1.7-8.5 1.6-12.3 0l-192-80c-5.9-2.5-9.8-8.3-9.8-14.8C48 144 152 8 249.9-30.8c4-1.6 8.399-1.6 12.3 0z"/><glyph glyph-name="calendar" unicode="" horiz-adv-x="448" d="M400 384c26.51 0 48-21.49 48-48V-16c0-26.51-21.49-48-48-48H48C21.49-64 0-42.51 0-16v352c0 26.51 21.49 48 48 48h48v52c0 6.627 5.373 12 12 12h8c6.627 0 12-5.373 12-12v-52h192v52c0 6.627 5.373 12 12 12h8c6.627 0 12-5.373 12-12v-52h48zM48 352c-8.822 0-16-7.178-16-16v-48h384v48c0 8.822-7.178 16-16 16H48zM400-32c8.822 0 16 7.178 16 16v272H32V-16c0-8.822 7.178-16 16-16h352z"/><glyph glyph-name="fire-extinguisher" unicode="" horiz-adv-x="448" d="M429.627 415.823C439.305 417.268 448 409.775 448 400v-96c0-9.803-8.725-17.264-18.373-15.823l-160 24C253.819 314.547 256 331.107 256 336h-48v-33.335c45.401-7.62 80-47.099 80-94.665V-40c0-13.255-10.745-24-24-24H120c-13.255 0-24 10.745-24 24v246.794c0 47.73 34.426 88.09 80 95.853V336c-55.566 0-113.418 9.363-145.141-69.944-3.28-8.199-12.588-12.194-20.799-8.913-8.204 3.282-12.194 12.594-8.912 20.8 18.996 47.488 51.186 76.919 94.076 86.553C74.371 401.397 100.87 448 144 448c41.315 0 68.106-43.162 50.603-80H256c0 5.586-1.823 21.506 13.627 23.823zM256 208c0 35.29-28.71 64-64 64l-.499-.002c-35.01-.259-63.501-29.509-63.501-65.203V-32h128v240zM144 416c-13.234 0-24-10.766-24-24s10.766-24 24-24 24 10.766 24 24-10.766 24-24 24zm272-93.421v58.842l-128-19.2v-20.442z"/><glyph glyph-name="chevron-circle-left" unicode="" d="M504 192C504 55 393-56 256-56S8 55 8 192s111 248 248 248 248-111 248-248zM256-24c119.9 0 216 97.3 216 216 0 119.9-97.3 216-216 216-119.9 0-216-97.3-216-216C40 72.1 137.3-24 256-24zm-86.6 224.5l115.1 115c4.7 4.7 12.3 4.7 17 0l7.1-7.1c4.7-4.7 4.7-12.3 0-17L209 192l99.5-99.5c4.7-4.7 4.7-12.3 0-17l-7.1-7.1c-4.7-4.7-12.3-4.7-17 0l-115.1 115c-4.6 4.8-4.6 12.4.1 17.1z"/><glyph glyph-name="chevron-circle-right" unicode="" d="M8 192c0 137 111 248 248 248s248-111 248-248S393-56 256-56 8 55 8 192zm248 216c-119.9 0-216-97.3-216-216C40 72.1 137.3-24 256-24c119.9 0 216 97.3 216 216 0 119.9-97.3 216-216 216zm86.6-224.5l-115.1-115c-4.7-4.7-12.3-4.7-17 0l-7.1 7.1c-4.7 4.7-4.7 12.3 0 17L303 192l-99.5 99.5c-4.7 4.7-4.7 12.3 0 17l7.1 7.1c4.7 4.7 12.3 4.7 17 0l115.1-115c4.6-4.8 4.6-12.4-.1-17.1z"/><glyph glyph-name="chevron-circle-up" unicode="" d="M256-56C119-56 8 55 8 192s111 248 248 248 248-111 248-248S393-56 256-56zM40 192C40 72.1 137.3-24 256-24c119.9 0 216 97.3 216 216 0 119.9-97.3 216-216 216-119.9 0-216-97.3-216-216zm224.5 86.6l115-115.1c4.7-4.7 4.7-12.3 0-17l-7.1-7.1c-4.7-4.7-12.3-4.7-17 0L256 239l-99.5-99.5c-4.7-4.7-12.3-4.7-17 0l-7.1 7.1c-4.7 4.7-4.7 12.3 0 17l115 115.1c4.8 4.6 12.4 4.6 17.1-.1z"/><glyph glyph-name="chevron-circle-down" unicode="" d="M256 440c137 0 248-111 248-248S393-56 256-56 8 55 8 192s111 248 248 248zm216-248c0 119.9-97.3 216-216 216-119.9 0-216-97.3-216-216C40 72.1 137.3-24 256-24c119.9 0 216 97.3 216 216zm-207.5-86.6c-4.7-4.7-12.3-4.7-17.1-.1l-115 115.1c-4.7 4.7-4.7 12.3 0 17l7.1 7.1c4.7 4.7 12.3 4.7 17 0L256 145l99.4 99.6c4.7 4.7 12.3 4.7 17 0l7.1-7.1c4.7-4.7 4.7-12.3 0-17z"/><glyph glyph-name="anchor" unicode="" horiz-adv-x="576" d="M504.485 183.515l67.028-67.03C579.073 108.927 573.72 96 563.03 96h-52.137C492.938 4.213 398.902-64 288-64 182.862-64 83.962-.39 65.106 96H12.97c-10.69 0-16.045 12.926-8.485 20.486l67.028 67.029c4.688 4.687 12.286 4.687 16.972 0l67.028-67.03C163.074 108.927 157.72 96 147.03 96H97.9C114.886 27.251 185.497-25.6 272-31.452V256h-52c-6.628 0-12 5.373-12 12v8c0 6.627 5.372 12 12 12h52v34.016c-27.604 7.105-48 32.163-48 61.984 0 36.348 30.301 65.62 67.022 63.93 32.81-1.509 59.43-28.155 60.91-60.967 1.403-31.114-19.42-57.607-47.933-64.947V288h52c6.627 0 12-5.373 12-12v-8c0-6.627-5.373-12-12-12h-52V-31.452C390.5-25.599 461.11 27.251 478.1 96.001h-49.13c-10.69 0-16.045 12.925-8.484 20.486l67.028 67.028c4.688 4.687 12.285 4.687 16.972 0zM256 384c0-17.645 14.355-32 32-32s32 14.355 32 32-14.355 32-32 32-32-14.355-32-32zM61.255 128h37.49L80 146.745zm416 0h37.49L496 146.745z"/><glyph glyph-name="unlock-alt" unicode="" horiz-adv-x="384" d="M336 192c26.5 0 48-21.5 48-48V-16c0-26.5-21.5-48-48-48H48C21.5-64 0-42.5 0-16v160c0 26.5 21.5 48 48 48h16v96c0 88.4 40 160.3 128.5 160 88.4-.3 127.5-73.1 127.5-161.5V268c0-6.6-5.4-12-12-12h-8c-6.6 0-12 5.4-12 12v20c0 70.6-25.4 128-96 128s-96-57.4-96-128v-96h240zm16-208v160c0 8.8-7.2 16-16 16H48c-8.8 0-16-7.2-16-16V-16c0-8.8 7.2-16 16-16h288c8.8 0 16 7.2 16 16zM192 16c-8.8 0-16 7.2-16 16v64c0 8.8 7.2 16 16 16s16-7.2 16-16V32c0-8.8-7.2-16-16-16z"/><glyph glyph-name="ellipsis-h" unicode="" horiz-adv-x="320" d="M192 192c0-17.7-14.3-32-32-32s-32 14.3-32 32 14.3 32 32 32 32-14.3 32-32zm88 32c17.7 0 32-14.3 32-32s-14.3-32-32-32-32 14.3-32 32 14.3 32 32 32zm-240 0c17.7 0 32-14.3 32-32s-14.3-32-32-32-32 14.3-32 32 14.3 32 32 32z"/><glyph glyph-name="ellipsis-v" unicode="" horiz-adv-x="64" d="M32 224c17.7 0 32-14.3 32-32s-14.3-32-32-32-32 14.3-32 32 14.3 32 32 32zM0 312c0 17.7 14.3 32 32 32s32-14.3 32-32-14.3-32-32-32-32 14.3-32 32zM0 72c0 17.7 14.3 32 32 32s32-14.3 32-32-14.3-32-32-32S0 54.3 0 72z"/><glyph glyph-name="rss-square" unicode="" horiz-adv-x="448" d="M400 416c26.51 0 48-21.49 48-48V16c0-26.51-21.49-48-48-48H48C21.49-32 0-10.51 0 16v352c0 26.51 21.49 48 48 48h352zm16-400v352c0 8.822-7.178 16-16 16H48c-8.822 0-16-7.178-16-16V16c0-8.822 7.178-16 16-16h352c8.822 0 16 7.178 16 16zM144 128c-8.822 0-16-7.177-16-16s7.178-16 16-16 16 7.177 16 16-7.178 16-16 16zm0 32c26.51 0 48-21.49 48-48s-21.49-48-48-48-48 21.49-48 48 21.49 48 48 48zm195.981-96h-8.02c-6.369 0-11.677 4.969-11.993 11.33-5.676 114.835-97.727 206.96-212.639 212.64-6.362.314-11.33 5.622-11.33 11.992v8.02c0 6.825 5.683 12.33 12.502 12.006 131.615-6.28 237.203-111.812 243.485-243.485.324-6.82-5.18-12.502-12.006-12.502zm-72.006 0h-8.045c-6.298 0-11.53 4.86-11.985 11.14-5.463 75.234-65.751 135.364-140.824 140.806C100.846 216.4 96 221.64 96 227.93v8.045c0 7.003 5.957 12.482 12.943 11.995 91.396-6.367 164.659-79.629 171.026-171.026.487-6.986-4.992-12.943-11.995-12.943z"/><glyph glyph-name="play-circle" unicode="" d="M256-56C119-56 8 55 8 192s111 248 248 248 248-111 248-248S393-56 256-56zM40 192C40 72.1 137.3-24 256-24c119.9 0 216 97.3 216 216 0 119.9-97.3 216-216 216-119.9 0-216-97.3-216-216zm331.7 18c16.4-9.2 16.4-32.9 0-42l-176-101c-15.9-8.8-35.7 2.6-35.7 21v208c0 18.5 19.9 29.8 35.7 21zM192 112.2c0-4.6 5-7.5 9-5.2l134.5 77.2c3.9 2.2 4 7.9.1 10.3l-134.5 81.7c-4 2.5-9.1-.4-9.1-5.1V112.2z"/><glyph glyph-name="ticket" unicode="" horiz-adv-x="576" d="M544 224c-17.673 0-32-14.327-32-32s14.327-32 32-32h32V48c0-26.51-21.49-48-48-48H48C21.49 0 0 21.49 0 48v112h32c17.673 0 32 14.327 32 32s-14.327 32-32 32H0v112c0 26.51 21.49 48 48 48h480c26.51 0 48-21.49 48-48V224h-32zm0-96c-35.29 0-64 28.71-64 64s28.71 64 64 64v80c0 8.823-7.177 16-16 16H48c-8.823 0-16-7.177-16-16v-80c35.29 0 64-28.71 64-64s-28.71-64-64-64V48c0-8.823 7.177-16 16-16h480c8.823 0 16 7.177 16 16v80z"/><glyph glyph-name="minus-square" unicode="" horiz-adv-x="448" d="M400 384H48c-8.8 0-16-7.2-16-16V16c0-8.8 7.2-16 16-16h352c8.8 0 16 7.2 16 16v352c0 8.8-7.2 16-16 16zm0 32c26.5 0 48-21.5 48-48V16c0-26.5-21.5-48-48-48H48C21.5-32 0-10.5 0 16v352c0 26.5 21.5 48 48 48h352zm-60-242H108c-6.6 0-12 5.4-12 12v12c0 6.6 5.4 12 12 12h232c6.6 0 12-5.4 12-12v-12c0-6.6-5.4-12-12-12z"/><glyph glyph-name="level-up" unicode="" horiz-adv-x="256" d="M252.478 344.503c4.696-4.697 4.696-12.31-.001-17.007l-8.503-8.503c-4.695-4.697-12.31-4.697-17.007 0L162 383.96V-40c0-13.255-10.745-24-24-24H12.024C1.334-64-4.02-51.074 3.54-43.515l12 12C17.48-29.575 21.28-28 24.023-28H126v411.96l-64.967-64.968c-4.697-4.697-12.31-4.697-17.007 0l-8.503 8.503c-4.696 4.698-4.696 12.31 0 17.008l99.974 99.975c4.697 4.697 12.31 4.697 17.007 0z"/><glyph glyph-name="level-down" unicode="" horiz-adv-x="256" d="M252.478 39.497l-99.974-99.974c-4.697-4.698-12.31-4.698-17.007 0L35.523 39.497c-4.696 4.697-4.696 12.31 0 17.008l8.503 8.503c4.696 4.697 12.31 4.697 17.007 0L126 .04V412H24.023c-2.744 0-6.544 1.575-8.484 3.515l-12 12C-4.02 435.075 1.333 448 12.025 448H138c13.254 0 24-10.745 24-24V.041l64.966 64.966c4.698 4.697 12.312 4.697 17.007 0l8.503-8.503c4.697-4.696 4.697-12.31.001-17.007z"/></font>
</defs>
</svg>
