<svg xmlns="http://www.w3.org/2000/svg"><defs><font id="FontAwesome5Pro-Light" horiz-adv-x="448"><font-face font-family="Font Awesome 5 Pro Light" font-weight="300" units-per-em="512" panose-1="2 0 3 3 0 0 0 0 0 0" ascent="448" descent="-64" bbox="-7.14551 -71.1455 640.144 449" underline-thickness="25" underline-position="-51" unicode-range="U+0020-F89D"/><glyph glyph-name="font" unicode="" d="M424 0c4.416 0 8-3.584 8-8v-16c0-4.416-3.584-8-8-8H312c-4.416 0-8 3.584-8 8v16c0 4.416 3.584 8 8 8h41.53l-44.31 128H138.78L94.482 0h41.52c4.416 0 8-3.584 8-8v-16c0-4.416-3.584-8-8-8H24c-4.417 0-8 3.584-8 8v16c0 4.416 3.583 8 8 8h36.6l140.28 405.23c2.056 5.944 8.83 10.77 15.12 10.77h16.008c6.291 0 13.065-4.826 15.121-10.77L387.401 0h36.6zM149.86 160h148.279l-74.14 214.2z"/><glyph glyph-name="bold" unicode="" horiz-adv-x="384" d="M306 213.88c43.121-18.247 78.117-71.058 78.117-117.88 0-70.656-57.344-128-128-128H40c-4.416 0-8 3.584-8 8v16c0 4.416 3.584 8 8 8h24v384H40c-4.416 0-8 3.584-8 8v16c0 4.416 3.584 8 8 8h200c61.824 0 112-50.176 112-112 0-37.11-18.26-69.74-46-90.12zM96 384V224h144c44.16 0 80 35.84 80 80s-35.84 80-80 80H96zM256 0c52.992 0 96 43.008 96 96s-43.008 96-96 96H96V0h160z"/><glyph glyph-name="italic" unicode="" horiz-adv-x="320" d="M320 408v-16c0-4.416-3.584-8-8-8h-87.5l-96-384H216c4.416 0 8-3.584 8-8v-16c0-4.416-3.584-8-8-8H8c-4.416 0-8 3.584-8 8v16c0 4.416 3.584 8 8 8h87.5l96 384H104c-4.416 0-8 3.584-8 8v16c0 4.416 3.584 8 8 8h208c4.416 0 8-3.584 8-8z"/><glyph glyph-name="text-height" unicode="" horiz-adv-x="576" d="M560 80c15.64 0 20.64-18 11.32-27.32l-80-80c-2.587-2.587-7.656-4.688-11.315-4.688s-8.728 2.1-11.315 4.688l-80 80c-10.02 10-3 27.32 11.31 27.32h64v224h-64c-15.64 0-20.64 18-11.32 27.31l80 80c2.587 2.587 7.656 4.688 11.315 4.688s8.728-2.1 11.315-4.688l80-80c10.02-10 3-27.31-11.31-27.31h-64V80h64zM438.63 336h82.73L480 377.38zM480 6.64L521.38 48h-82.74zM304 416c8.832 0 16-7.168 16-16v-72c0-4.416-3.584-8-8-8h-16c-4.416 0-8 3.584-8 8v56H176V0h72c4.416 0 8-3.584 8-8v-16c0-4.416-3.584-8-8-8H72c-4.416 0-8 3.584-8 8v16c0 4.416 3.584 8 8 8h72v384H32v-56c0-4.416-3.584-8-8-8H8c-4.416 0-8 3.584-8 8v72c0 8.832 7.168 16 16 16h288z"/><glyph glyph-name="text-width" unicode="" d="M362.31 155.31l80-79.98c2.588-2.586 4.688-7.656 4.688-11.315 0-3.658-2.1-8.727-4.688-11.314l-80-80c-2.54-2.595-7.546-4.7-11.177-4.7h-.003l-.13-.002c-8.832 0-16 7.168-16 16V48H111v-64c0-10.31-7.83-16-15.83-16h-.126c-3.662 0-8.748 2.088-11.353 4.66l-80 80C1.103 55.248-.998 60.318-.998 63.976c0 3.66 2.1 8.729 4.689 11.315l80 80c2.538 2.6 7.548 4.71 11.182 4.71H95c8.832 0 16-7.168 16-16V80h224v64c0 10.31 7.83 16 15.83 16h.113c3.672 0 8.764-2.1 11.367-4.69zM79 80v25.36L37.63 64 79 22.63V80zm288-57.36L408.37 64 367 105.37V22.64zM431 416c8.832 0 16-7.168 16-16v-72c0-4.416-3.584-8-8-8h-16c-4.416 0-8 3.584-8 8v56H239V192h40c4.416 0 8-3.584 8-8v-16c0-4.416-3.584-8-8-8H167c-4.416 0-8 3.584-8 8v16c0 4.416 3.584 8 8 8h40v192H31v-56c0-4.416-3.584-8-8-8H7c-4.416 0-8 3.584-8 8v72c0 8.832 7.168 16 16 16h416z"/><glyph glyph-name="align-left" unicode="" d="M280 400c4.416 0 8-3.584 8-8v-16c0-4.416-3.584-8-8-8H8c-4.416 0-8 3.584-8 8v16c0 4.416 3.584 8 8 8h272zM440 16c4.416 0 8-3.584 8-8V-8c0-4.416-3.584-8-8-8H8c-4.416 0-8 3.584-8 8V8c0 4.416 3.584 8 8 8h432zM280 144c4.416 0 8-3.584 8-8v-16c0-4.416-3.584-8-8-8H8c-4.416 0-8 3.584-8 8v16c0 4.416 3.584 8 8 8h272zm160 128c4.416 0 8-3.584 8-8v-16c0-4.416-3.584-8-8-8H8c-4.416 0-8 3.584-8 8v16c0 4.416 3.584 8 8 8h432z"/><glyph glyph-name="align-center" unicode="" d="M344 400c4.416 0 8-3.584 8-8v-16c0-4.416-3.584-8-8-8H104c-4.416 0-8 3.584-8 8v16c0 4.416 3.584 8 8 8h240zm96-384c4.416 0 8-3.584 8-8V-8c0-4.416-3.584-8-8-8H8c-4.416 0-8 3.584-8 8V8c0 4.416 3.584 8 8 8h432zm-96 128c4.416 0 8-3.584 8-8v-16c0-4.416-3.584-8-8-8H104c-4.416 0-8 3.584-8 8v16c0 4.416 3.584 8 8 8h240zm96 128c4.416 0 8-3.584 8-8v-16c0-4.416-3.584-8-8-8H8c-4.416 0-8 3.584-8 8v16c0 4.416 3.584 8 8 8h432z"/><glyph glyph-name="align-right" unicode="" d="M440 400c4.416 0 8-3.584 8-8v-16c0-4.416-3.584-8-8-8H168c-4.416 0-8 3.584-8 8v16c0 4.416 3.584 8 8 8h272zm0-384c4.416 0 8-3.584 8-8V-8c0-4.416-3.584-8-8-8H8c-4.416 0-8 3.584-8 8V8c0 4.416 3.584 8 8 8h432zm0 128c4.416 0 8-3.584 8-8v-16c0-4.416-3.584-8-8-8H168c-4.416 0-8 3.584-8 8v16c0 4.416 3.584 8 8 8h272zm0 128c4.416 0 8-3.584 8-8v-16c0-4.416-3.584-8-8-8H8c-4.416 0-8 3.584-8 8v16c0 4.416 3.584 8 8 8h432z"/><glyph glyph-name="align-justify" unicode="" d="M439 400c4.416 0 8-3.584 8-8v-16c0-4.416-3.584-8-8-8H7c-4.416 0-8 3.584-8 8v16c0 4.416 3.584 8 8 8h432zm0-384c4.416 0 8-3.584 8-8V-8c0-4.416-3.584-8-8-8H7c-4.416 0-8 3.584-8 8V8c0 4.416 3.584 8 8 8h432zm0 128c4.416 0 8-3.584 8-8v-16c0-4.416-3.584-8-8-8H7c-4.416 0-8 3.584-8 8v16c0 4.416 3.584 8 8 8h432zm0 128c4.416 0 8-3.584 8-8v-16c0-4.416-3.584-8-8-8H7c-4.416 0-8 3.584-8 8v16c0 4.416 3.584 8 8 8h432z"/><glyph glyph-name="list" unicode="" horiz-adv-x="512" d="M88 392c8.832 0 16-7.168 16-16v-48c0-8.832-7.168-16-16-16H40c-8.832 0-16 7.168-16 16v48c0 8.832 7.168 16 16 16h48zm0-160c8.832 0 16-7.168 16-16v-48c0-8.832-7.168-16-16-16H40c-8.832 0-16 7.168-16 16v48c0 8.832 7.168 16 16 16h48zm0-160c8.832 0 16-7.168 16-16V8c0-8.832-7.168-16-16-16H40C31.168-8 24-.832 24 8v48c0 8.832 7.168 16 16 16h48zm416-24c4.416 0 8-3.584 8-8V24c0-4.416-3.584-8-8-8H168c-4.416 0-8 3.584-8 8v16c0 4.416 3.584 8 8 8h336zm0 320c4.416 0 8-3.584 8-8v-16c0-4.416-3.584-8-8-8H168c-4.416 0-8 3.584-8 8v16c0 4.416 3.584 8 8 8h336zm0-160c4.416 0 8-3.584 8-8v-16c0-4.416-3.584-8-8-8H168c-4.416 0-8 3.584-8 8v16c0 4.416 3.584 8 8 8h336z"/><glyph glyph-name="outdent" unicode="" d="M100.69 84.71l-96 95.97c-2.585 2.587-4.683 7.653-4.683 11.31 0 3.656 2.098 8.724 4.683 11.31l96 96c2.54 2.594 7.549 4.699 11.18 4.7l.13.001c8.832 0 16-7.168 16-16V96c-.005-8.827-7.173-15.99-16-15.99h-.14c-3.629 0-8.633 2.106-11.17 4.7zM96 249.36L38.63 192 96 134.64v114.72zM440 400c4.416 0 8-3.584 8-8v-16c0-4.416-3.584-8-8-8H8c-4.416 0-8 3.584-8 8v16c0 4.416 3.584 8 8 8h432zm0-384c4.416 0 8-3.584 8-8V-8c0-4.416-3.584-8-8-8H8c-4.416 0-8 3.584-8 8V8c0 4.416 3.584 8 8 8h432zm0 128c4.416 0 8-3.584 8-8v-16c0-4.416-3.584-8-8-8H200c-4.416 0-8 3.584-8 8v16c0 4.416 3.584 8 8 8h240zm0 128c4.416 0 8-3.584 8-8v-16c0-4.416-3.584-8-8-8H200c-4.416 0-8 3.584-8 8v16c0 4.416 3.584 8 8 8h240z"/><glyph glyph-name="indent" unicode="" d="M27.31 299.3l96-95.98c2.585-2.586 4.682-7.653 4.682-11.31 0-3.656-2.097-8.724-4.682-11.31l-96-96c-2.53-2.594-7.527-4.7-11.152-4.7H16C7.168 80 0 87.166 0 96v192.001c0 8.832 7.168 16 16 16h.14c3.629-.002 8.632-2.107 11.17-4.701zM32 134.64L89.37 192 32 249.36V134.64zM440 400c4.416 0 8-3.584 8-8v-16c0-4.416-3.584-8-8-8H8c-4.416 0-8 3.584-8 8v16c0 4.416 3.584 8 8 8h432zm0-384c4.416 0 8-3.584 8-8V-8c0-4.416-3.584-8-8-8H8c-4.416 0-8 3.584-8 8V8c0 4.416 3.584 8 8 8h432zm0 128c4.416 0 8-3.584 8-8v-16c0-4.416-3.584-8-8-8H200c-4.416 0-8 3.584-8 8v16c0 4.416 3.584 8 8 8h240zm0 128c4.416 0 8-3.584 8-8v-16c0-4.416-3.584-8-8-8H200c-4.416 0-8 3.584-8 8v16c0 4.416 3.584 8 8 8h240z"/><glyph glyph-name="tasks" unicode="" horiz-adv-x="512" d="M145.35 241l11.31-11.34c1.295-1.294 2.346-3.829 2.346-5.66s-1.05-4.366-2.346-5.66l-88-88c-1.292-1.292-3.827-2.34-5.655-2.34s-4.361 1.048-5.655 2.34l-56 56C.055 187.634-.996 190.169-.996 192s1.051 4.366 2.346 5.66L12.69 209c1.294 1.292 3.827 2.34 5.655 2.34S22.707 210.293 24 209l39-39 71 71c1.295 1.304 3.838 2.361 5.675 2.361 1.838 0 4.38-1.057 5.675-2.361zM62.93 64c17.664 0 32-14.336 32-32s-14.336-32-32-32c-17.67 0-32.4 14.33-32.4 32s14.73 32 32.4 32zm82.42 337l11.31-11.34c1.295-1.294 2.346-3.829 2.346-5.66s-1.05-4.366-2.346-5.66l-88-88c-1.292-1.292-3.827-2.34-5.655-2.34s-4.361 1.048-5.655 2.34l-56 56C.055 347.634-.996 350.169-.996 352s1.051 4.366 2.346 5.66L12.69 369c1.294 1.292 3.827 2.34 5.655 2.34S22.707 370.293 24 369l39-39 71 71c1.295 1.304 3.838 2.361 5.675 2.361 1.838 0 4.38-1.057 5.675-2.361zM503 48c4.416 0 8-3.584 8-8V24c0-4.416-3.584-8-8-8H199c-4.416 0-8 3.584-8 8v16c0 4.416 3.584 8 8 8h304zm0 320c4.416 0 8-3.584 8-8v-16c0-4.416-3.584-8-8-8H199c-4.416 0-8 3.584-8 8v16c0 4.416 3.584 8 8 8h304zm0-160c4.416 0 8-3.584 8-8v-16c0-4.416-3.584-8-8-8H199c-4.416 0-8 3.584-8 8v16c0 4.416 3.584 8 8 8h304z"/><glyph glyph-name="list-ul" unicode="" horiz-adv-x="512" d="M32.39 224c17.664 0 32-14.336 32-32s-14.336-32-32-32C14.73 160 0 174.33 0 192s14.73 32 32.39 32zm0 160c17.664 0 32-14.336 32-32s-14.336-32-32-32C14.73 320 0 334.33 0 352s14.73 32 32.39 32zm0-320c17.664 0 32-14.336 32-32s-14.336-32-32-32C14.73 0 0 14.33 0 32s14.73 32 32.39 32zM504 368c4.416 0 8-3.584 8-8v-16c0-4.416-3.584-8-8-8H136c-4.416 0-8 3.584-8 8v16c0 4.416 3.584 8 8 8h368zm0-160c4.416 0 8-3.584 8-8v-16c0-4.416-3.584-8-8-8H136c-4.416 0-8 3.584-8 8v16c0 4.416 3.584 8 8 8h368zm0-160c4.416 0 8-3.584 8-8V24c0-4.416-3.584-8-8-8H136c-4.416 0-8 3.584-8 8v16c0 4.416 3.584 8 8 8h368z"/><glyph glyph-name="list-ol" unicode="" horiz-adv-x="512" d="M61.77 47c19.61-5.12 28.7-20.5 28.73-34.88C90.5-9.25 76.16-32 42-32c-16.61 0-29.29 4.75-37 9.44-5.82 4.22-6.35 9.81-2.62 15.94l5.59 9.31c3.86 6.62 9.11 7 15.6 3.12 4.103-1.687 11.034-3.085 15.47-3.12 10.16 0 14.36 3.5 14.36 8.22 0 6.65-5.61 9.09-15.94 9.09h-4.73c-5.95 0-9.25 2.12-12.25 7.88l-1.05 1.93c-2.45 4.75-1.2 9.81 2.8 14.88l5.61 7c2.854 3.56 7.783 9.075 11 12.31H16c-4.416 0-8 3.584-8 8v16c0 4.416 3.584 8 8 8h57c7.5 0 11.34-4 11.34-11.35v-3.31c.01-.245.02-.645.02-.89 0-4.209-2.28-10.167-5.09-13.3zM12.1 128C5.08 128 0 132 0 139.41v4c0 47.28 51 56.4 50.97 69.12 0 7.19-5.95 8.75-9.28 8.75h-.06c-3.026 0-7.232-1.72-9.39-3.84-5.13-4.91-10.52-7-16.13-2.44l-8.58 6.88c-5.79 4.53-7.17 9.78-2.79 15.37C11.39 246 23.83 256 45.19 256c19.47 0 44.47-10.5 44.47-39.56 0-37.76-45.05-46.15-48.33-56.44H80c4.416 0 8-3.584 8-8v-16c0-4.416-3.584-8-8-8H12.1zM16 288c-4.416 0-8 3.584-8 8v16c0 4.416 3.584 8 8 8h16v64h-8c-4.408.008-7.985 3.592-7.985 8 0 1.043.379 2.647.845 3.58l8 16c1.218 2.435 4.417 4.415 7.14 4.42h24c4.416 0 8-3.584 8-8v-88h16c4.416 0 8-3.584 8-8v-16c0-4.416-3.584-8-8-8H16zm488 80c4.416 0 8-3.584 8-8v-16c0-4.416-3.584-8-8-8H168c-4.416 0-8 3.584-8 8v16c0 4.416 3.584 8 8 8h336zm0-320c4.416 0 8-3.584 8-8V24c0-4.416-3.584-8-8-8H168c-4.416 0-8 3.584-8 8v16c0 4.416 3.584 8 8 8h336zm0 160c4.416 0 8-3.584 8-8v-16c0-4.416-3.584-8-8-8H168c-4.416 0-8 3.584-8 8v16c0 4.416 3.584 8 8 8h336z"/><glyph glyph-name="strikethrough" unicode="" horiz-adv-x="512" d="M361.36 128h40.43c7.874-13.482 14.263-37.096 14.263-52.709 0-3.865-.418-10.11-.933-13.941-4.84-36.26-29.46-67.84-63-82.44C338.36-27.089 315.01-31.977 300-32h-66l-.393-.001c-44.764 0-91.925 34.68-105.268 77.411a9.629 9.629 0 0 0-.303 2.182c0 3.56 2.824 7.063 6.303 7.818l15.65 3.65a9.75 9.75 0 0 0 1.704.182c3.31 0 6.771-2.572 7.726-5.742C169.302 23.968 202.597 0 233.74 0h66.2c11.334.016 28.963 3.708 39.35 8.24 21.52 9.39 38.21 28.52 43.07 51.52.934 4.246 1.692 11.22 1.692 15.567 0 17.235-10.166 40.833-22.691 52.673zm-192.11 96c-23.405 16.87-42.4 53.977-42.4 82.827v.233c0 41.39 22.18 77.35 57.9 95.21 15.163 7.555 41.219 13.706 58.16 13.73h47.86c46.772-.048 102.485-33.639 124.36-74.98.478-.946.866-2.575.866-3.635 0-2.89-2.145-6.19-4.786-7.365l-14.6-6.62c-.847-.37-2.282-.67-3.206-.67-2.703 0-5.894 1.953-7.124 4.36-17.028 31.37-59.817 56.865-95.51 56.91h-47.86c-12.762-.017-32.389-4.65-43.81-10.34-21.736-10.728-39.76-39.105-40.23-63.34-.71-29.25 14.51-54.38 39.29-66.71L237.53 224h-68.28zM504 192c4.416 0 8-3.584 8-8v-16c0-4.416-3.584-8-8-8H8c-4.416 0-8 3.584-8 8v16c0 4.416 3.584 8 8 8h496z"/><glyph glyph-name="underline" unicode="" d="M440 448c4.416 0 8-3.584 8-8v-16c0-4.416-3.584-8-8-8h-56V192c0-88.22-71.78-160-160-160S64 103.78 64 192v224H8c-4.416 0-8 3.584-8 8v16c0 4.416 3.584 8 8 8h144c4.416 0 8-3.584 8-8v-16c0-4.416-3.584-8-8-8H96V192c0-70.656 57.344-128 128-128s128 57.344 128 128v224h-56c-4.416 0-8 3.584-8 8v16c0 4.416 3.584 8 8 8h144zm0-480c4.416 0 8-3.584 8-8v-16c0-4.416-3.584-8-8-8H8c-4.416 0-8 3.584-8 8v16c0 4.416 3.584 8 8 8h432z"/><glyph glyph-name="superscript" unicode="" horiz-adv-x="512" d="M344 384c4.416 0 8-3.584 8-8v-16c0-4.416-3.584-8-8-8h-47.22L195 192 296.78 32H344c4.416 0 8-3.584 8-8V8c0-4.416-3.584-8-8-8h-56c-4.845.003-10.889 3.322-13.49 7.41L176 162.2 77.5 7.41C74.897 3.32 68.85 0 64.001 0H8C3.584 0 0 3.584 0 8v16c0 4.416 3.584 8 8 8h47.22L157 192 55.22 352H8c-4.416 0-8 3.584-8 8v16c0 4.416 3.584 8 8 8h56.001c4.849 0 10.896-3.32 13.499-7.41L176 221.8l98.51 154.79c2.601 4.088 8.645 7.407 13.49 7.41h56zm160-128c4.416 0 8-3.584 8-8v-16c0-4.416-3.584-8-8-8H392c-4.416 0-8 3.584-8 8v16c0 4.416 3.584 8 8 8h40v128h-16c-8.824.008-15.986 7.176-15.986 16 0 2.09.76 5.302 1.696 7.17l16 32c2.441 4.87 8.843 8.825 14.29 8.83h16c8.832 0 16-7.168 16-16V256h40z"/><glyph glyph-name="subscript" unicode="" horiz-adv-x="512" d="M344 384c4.416 0 8-3.584 8-8v-16c0-4.416-3.584-8-8-8h-47.22L195 192 296.78 32H344c4.416 0 8-3.584 8-8V8c0-4.416-3.584-8-8-8h-56c-4.845.003-10.889 3.322-13.49 7.41L176 162.2 77.5 7.41C74.897 3.32 68.85 0 64.001 0H8C3.584 0 0 3.584 0 8v16c0 4.416 3.584 8 8 8h47.22L157 192 55.22 352H8c-4.416 0-8 3.584-8 8v16c0 4.416 3.584 8 8 8h56.001c4.849 0 10.896-3.32 13.499-7.41L176 221.8l98.51 154.79c2.601 4.088 8.645 7.407 13.49 7.41h56zM504-32c4.416 0 8-3.584 8-8v-16c0-4.416-3.584-8-8-8H392c-4.416 0-8 3.584-8 8v16c0 4.416 3.584 8 8 8h40V96h-16c-8.824.008-15.986 7.176-15.986 16 0 2.09.76 5.302 1.696 7.17l16 32c2.441 4.87 8.843 8.825 14.29 8.83h16c8.832 0 16-7.168 16-16V-32h40z"/><glyph glyph-name="sort-alpha-down" unicode="" d="M432 160c4.416 0 8-3.584 8-8v-10.93c-.001-2.798-1.309-6.924-2.92-9.21L344.19 0H432c4.416 0 8-3.584 8-8v-16c0-4.416-3.584-8-8-8H304c-4.416 0-8 3.584-8 8v10.93c.001 2.798 1.309 6.924 2.92 9.21l92.76 131.79L304 128c-4.416 0-8 3.584-8 8v16c0 4.416 3.584 8 8 8h128zm15.29 80.06c.39-1.086.708-2.905.708-4.06 0-6.557-5.321-11.933-11.878-12H424.7c-4.66.011-9.678 3.595-11.2 8l-15.34 44.36h-60.85l-15.1-44.27c-1.492-4.452-6.515-8.076-11.21-8.09h-11.12c-6.557.067-11.878 5.443-11.878 12 0 1.155.317 2.974.708 4.06l59.76 168c1.532 4.367 6.532 7.925 11.16 7.94h16.74c4.628-.015 9.628-3.573 11.16-7.94zm-99.9 67.36h40.74s-19.37 56.86-20.24 60c-.88-3.13-20.5-60-20.5-60zm-148.46-231l5.59-5.63c1.924-1.937 3.485-5.726 3.485-8.455 0-2.772-1.601-6.6-3.575-8.545l-84-82.32c-1.93-1.926-5.708-3.49-8.435-3.49s-6.505 1.564-8.435 3.49L19.5 53.77c-1.948 1.942-3.529 5.75-3.529 8.5s1.581 6.558 3.53 8.5l5.639 5.66c1.938 1.926 5.728 3.49 8.46 3.49 2.732 0 6.522-1.564 8.46-3.49L96 24.08V408c0 4.416 3.584 8 8 8h16.02c4.416 0 8-3.584 8-8V23.84l54 52.67c1.927 1.915 5.694 3.469 8.41 3.469 2.758 0 6.565-1.594 8.5-3.559z"/><glyph glyph-name="sort-alpha-up" unicode="" d="M120.44 412.49l84.06-82.26c1.948-1.942 3.529-5.75 3.529-8.5s-1.581-6.558-3.53-8.5l-5.64-5.66c-1.938-1.927-5.728-3.49-8.459-3.49-2.732 0-6.522 1.563-8.46 3.49L128 359.92V-24c0-4.416-3.584-8-8-8h-16c-4.416 0-8 3.584-8 8v384.14L42 307.4c-1.927-1.915-5.695-3.468-8.41-3.468-2.757 0-6.566 1.593-8.5 3.558l-5.61 5.68c-1.924 1.937-3.485 5.725-3.485 8.455 0 2.771 1.601 6.6 3.575 8.545l84 82.32c1.93 1.926 5.708 3.49 8.435 3.49s6.505-1.564 8.435-3.49zm326.85-172.43c.39-1.086.708-2.905.708-4.06 0-6.557-5.321-11.933-11.878-12H424.7c-4.66.011-9.678 3.595-11.2 8l-15.34 44.36h-60.85l-15.1-44.27c-1.492-4.452-6.515-8.076-11.21-8.09h-11.12c-6.557.067-11.878 5.443-11.878 12 0 1.155.317 2.974.708 4.06l59.76 168c1.532 4.367 6.532 7.925 11.16 7.94h16.74c4.628-.015 9.628-3.573 11.16-7.94zm-99.9 67.36h40.74s-19.37 56.86-20.24 60c-.88-3.13-20.5-60-20.5-60zM432 160c4.416 0 8-3.584 8-8v-10.93c-.001-2.798-1.309-6.924-2.92-9.21L344.19 0H432c4.416 0 8-3.584 8-8v-16c0-4.416-3.584-8-8-8H304c-4.416 0-8 3.584-8 8v10.93c.001 2.798 1.309 6.924 2.92 9.21l92.76 131.79L304 128c-4.416 0-8 3.584-8 8v16c0 4.416 3.584 8 8 8h128z"/><glyph glyph-name="sort-amount-down" unicode="" horiz-adv-x="512" d="M376 160c4.416 0 8-3.584 8-8v-16c0-4.416-3.584-8-8-8H264c-4.416 0-8 3.584-8 8v16c0 4.416 3.584 8 8 8h112zm-64-96c4.416 0 8-3.584 8-8V40c0-4.416-3.584-8-8-8h-48c-4.416 0-8 3.584-8 8v16c0 4.416 3.584 8 8 8h48zm192 288c4.416 0 8-3.584 8-8v-16c0-4.416-3.584-8-8-8H264c-4.416 0-8 3.584-8 8v16c0 4.416 3.584 8 8 8h240zm-64-96c4.416 0 8-3.584 8-8v-16c0-4.416-3.584-8-8-8H264c-4.416 0-8 3.584-8 8v16c0 4.416 3.584 8 8 8h176zM198.93 76.44l5.59-5.65c1.924-1.937 3.485-5.726 3.485-8.455 0-2.772-1.601-6.6-3.575-8.545l-84-82.32c-1.93-1.926-5.708-3.49-8.435-3.49s-6.505 1.564-8.435 3.49L19.5 53.77c-1.948 1.942-3.529 5.75-3.529 8.5s1.581 6.558 3.53 8.5l5.639 5.66c1.938 1.926 5.728 3.49 8.46 3.49 2.732 0 6.522-1.564 8.46-3.49L96 24.08V408c0 4.416 3.584 8 8 8h16.02c4.416 0 8-3.584 8-8V23.86l54 52.67c1.927 1.914 5.694 3.469 8.41 3.469 2.758 0 6.565-1.595 8.5-3.559z"/><glyph glyph-name="sort-amount-up" unicode="" horiz-adv-x="512" d="M312 64c4.416 0 8-3.584 8-8V40c0-4.416-3.584-8-8-8h-48c-4.416 0-8 3.584-8 8v16c0 4.416 3.584 8 8 8h48zm64 96c4.416 0 8-3.584 8-8v-16c0-4.416-3.584-8-8-8H264c-4.416 0-8 3.584-8 8v16c0 4.416 3.584 8 8 8h112zm128 192c4.416 0 8-3.584 8-8v-16c0-4.416-3.584-8-8-8H264c-4.416 0-8 3.584-8 8v16c0 4.416 3.584 8 8 8h240zm-64-96c4.416 0 8-3.584 8-8v-16c0-4.416-3.584-8-8-8H264c-4.416 0-8 3.584-8 8v16c0 4.416 3.584 8 8 8h176zM120.44 412.49l84.06-82.26c1.948-1.942 3.529-5.75 3.529-8.5s-1.581-6.558-3.53-8.5l-5.64-5.66c-1.938-1.927-5.728-3.49-8.459-3.49-2.732 0-6.522 1.563-8.46 3.49L128 359.92V-24c0-4.416-3.584-8-8-8h-16c-4.416 0-8 3.584-8 8v384.14L42 307.4c-1.927-1.915-5.695-3.468-8.41-3.468-2.757 0-6.566 1.593-8.5 3.558l-5.61 5.68c-1.924 1.937-3.485 5.725-3.485 8.455 0 2.771 1.601 6.6 3.575 8.545l84 82.32c1.93 1.926 5.708 3.49 8.435 3.49s6.505-1.564 8.435-3.49z"/><glyph glyph-name="sort-numeric-down" unicode="" d="M344.49 190.52c4.195.916 11.086 1.66 15.38 1.66 39.766 0 72.08-32.274 72.13-72.04v-40c-.084-57.28-46.506-107.303-103.62-111.659a8.003 8.003 0 0 0-8.38 7.99v16.13c.068 4.116 3.46 7.665 7.57 7.92 33.16 3.14 60.24 26.78 69.08 58-9.51-5.78-26.26-10.469-37.388-10.469-39.744 0-72 32.256-72 72 0 32.277 25.638 63.846 57.228 70.468zM360 80.14c22.08 0 40 17.92 40 40s-17.92 40-40 40-40-17.92-40-40 17.92-40 40-40zM424 256c4.416 0 8-3.584 8-8v-16c0-4.416-3.584-8-8-8H312c-4.416 0-8 3.584-8 8v16c0 4.416 3.584 8 8 8h40v96h-16.002c-8.832 0-16 7.168-16 16 0 2.533 1.09 6.332 2.432 8.48l20 32c2.594 4.15 8.673 7.52 13.568 7.52H368c8.832 0 16-7.168 16-16V256h40zM198.93 76.44l5.59-5.65c1.924-1.937 3.485-5.726 3.485-8.455 0-2.772-1.601-6.6-3.575-8.545l-84-82.32c-1.93-1.926-5.708-3.49-8.435-3.49s-6.505 1.564-8.435 3.49L19.5 53.77c-1.948 1.942-3.529 5.75-3.529 8.5s1.581 6.558 3.53 8.5l5.639 5.66c1.938 1.926 5.728 3.49 8.46 3.49 2.732 0 6.522-1.564 8.46-3.49L96 24.08V408c0 4.416 3.584 8 8 8h16.02c4.416 0 8-3.584 8-8V23.86l54 52.67c1.927 1.914 5.694 3.469 8.41 3.469 2.758 0 6.565-1.595 8.5-3.559z"/><glyph glyph-name="sort-numeric-up" unicode="" d="M424 256c4.416 0 8-3.584 8-8v-16c0-4.416-3.584-8-8-8H312c-4.416 0-8 3.584-8 8v16c0 4.416 3.584 8 8 8h40v96h-16.002c-8.832 0-16 7.168-16 16 0 2.533 1.09 6.332 2.432 8.48l20 32c2.594 4.15 8.673 7.52 13.568 7.52H368c8.832 0 16-7.168 16-16V256h40zm-79.51-65.48c4.195.916 11.086 1.66 15.38 1.66 39.766 0 72.08-32.274 72.13-72.04v-40c-.084-57.28-46.506-107.303-103.62-111.659a8.003 8.003 0 0 0-8.38 7.99v16.13c.068 4.116 3.46 7.665 7.57 7.92 33.16 3.14 60.24 26.78 69.08 58-9.51-5.78-26.26-10.469-37.388-10.469-39.744 0-72 32.256-72 72 0 32.277 25.638 63.846 57.228 70.468zM360 80.14c22.08 0 40 17.92 40 40s-17.92 40-40 40-40-17.92-40-40 17.92-40 40-40zM120.44 412.49l84.06-82.26c1.948-1.942 3.529-5.75 3.529-8.5s-1.581-6.558-3.53-8.5l-5.64-5.66c-1.938-1.927-5.728-3.49-8.459-3.49-2.732 0-6.522 1.563-8.46 3.49L128 359.92V-24c0-4.416-3.584-8-8-8h-16c-4.416 0-8 3.584-8 8v384.14L42 307.4c-1.927-1.915-5.695-3.468-8.41-3.468-2.757 0-6.566 1.593-8.5 3.558l-5.61 5.68c-1.924 1.937-3.485 5.725-3.485 8.455 0 2.771 1.601 6.6 3.575 8.545l84 82.32c1.93 1.926 5.708 3.49 8.435 3.49s6.505-1.564 8.435-3.49z"/><glyph glyph-name="heading" unicode="" horiz-adv-x="512" d="M416 384V0h56c4.416 0 8-3.584 8-8v-16c0-4.416-3.584-8-8-8H328c-4.416 0-8 3.584-8 8v16c0 4.416 3.584 8 8 8h56v176H128V0h56c4.416 0 8-3.584 8-8v-16c0-4.416-3.584-8-8-8H40c-4.416 0-8 3.584-8 8v16c0 4.416 3.584 8 8 8h56v384H40c-4.416 0-8 3.584-8 8v16c0 4.416 3.584 8 8 8h144c4.416 0 8-3.584 8-8v-16c0-4.416-3.584-8-8-8h-56V208h256v176h-56c-4.416 0-8 3.584-8 8v16c0 4.416 3.584 8 8 8h144c4.416 0 8-3.584 8-8v-16c0-4.416-3.584-8-8-8h-56z"/><glyph glyph-name="paragraph" unicode="" d="M440 416c4.416 0 8-3.584 8-8v-16c0-4.416-3.584-8-8-8h-56V-24c0-4.416-3.584-8-8-8h-16c-4.416 0-8 3.584-8 8v408h-64V-24c0-4.416-3.584-8-8-8h-16c-4.416 0-8 3.584-8 8V96h-26.52c-85.22 0-159.63 64.35-165.13 149.35a193.754 193.754 0 0 0-.355 10.65c0 88.32 71.68 160 160 160H440zM256 128v256h-32c-70.656 0-128-57.344-128-128s57.344-128 128-128h32z"/><glyph glyph-name="h1" unicode="" horiz-adv-x="576" d="M312 352c4.416 0 8-3.584 8-8v-16c0-4.416-3.584-8-8-8h-40V64h40c4.416 0 8-3.584 8-8V40c0-4.416-3.584-8-8-8H200c-4.416 0-8 3.584-8 8v16c0 4.416 3.584 8 8 8h40v112H80V64h40c4.416 0 8-3.584 8-8V40c0-4.416-3.584-8-8-8H8c-4.416 0-8 3.584-8 8v16c0 4.416 3.584 8 8 8h40v256H8c-4.416 0-8 3.584-8 8v16c0 4.416 3.584 8 8 8h112c4.416 0 8-3.584 8-8v-16c0-4.416-3.584-8-8-8H80V208h160v112h-40c-4.416 0-8 3.584-8 8v16c0 4.416 3.584 8 8 8h112zM568 64c4.416 0 8-3.584 8-8V40c0-4.416-3.584-8-8-8H392c-4.416 0-8 3.584-8 8v16c0 4.416 3.584 8 8 8h73.63v249.38l-31-31c-1.294-1.295-3.83-2.346-5.66-2.346s-4.366 1.051-5.66 2.346L412 293.69c-1.292 1.293-2.34 3.827-2.34 5.655s1.048 4.362 2.34 5.655l42.35 42.31c2.586 2.588 7.652 4.688 11.31 4.69h16c8.832 0 16-7.168 16-16V64H568z"/><glyph glyph-name="h2" unicode="" horiz-adv-x="576" d="M312 352c4.416 0 8-3.584 8-8v-16c0-4.416-3.584-8-8-8h-40V64h40c4.416 0 8-3.584 8-8V40c0-4.416-3.584-8-8-8H200c-4.416 0-8 3.584-8 8v16c0 4.416 3.584 8 8 8h40v112H80V64h40c4.416 0 8-3.584 8-8V40c0-4.416-3.584-8-8-8H8c-4.416 0-8 3.584-8 8v16c0 4.416 3.584 8 8 8h40v256H8c-4.416 0-8 3.584-8 8v16c0 4.416 3.584 8 8 8h112c4.416 0 8-3.584 8-8v-16c0-4.416-3.584-8-8-8H80V208h160v112h-40c-4.416 0-8 3.584-8 8v16c0 4.416 3.584 8 8 8h112zM552 64c4.416 0 8-3.584 8-8V39.97c0-4.416-3.584-8-8-8H380.458c-5.937 0-11.28 4.789-11.928 10.69-.31 3.37-.5 6.96-.5 11.18 0 110.31 161.12 124.97 161.12 207.31 0 33.98-26.06 57.7-63.37 57.7-25.56 0-48.78-14.76-63.28-33.76-2.004-2.673-6.342-4.843-9.683-4.843-2.006 0-4.993.898-6.667 2.003L379 287c-2.931 1.937-5.31 6.359-5.31 9.87 0 2.017.923 5.005 2.06 6.67 18.81 27.69 53.31 48.46 91.81 48.46 60.82 0 97.75-39.06 97.75-89.06 0-104.31-155.4-120.18-159.24-198.94H552z"/><glyph glyph-name="h3" unicode="" horiz-adv-x="576" d="M476.8 224.36c53.3-4.45 98.3-35.77 98.2-93.07 0-55.71-47.26-99.29-107.53-99.28-37.44 0-73.8 16.46-96.44 36.46-2.201 1.908-3.989 5.822-3.989 8.736 0 2.295 1.187 5.594 2.65 7.364l6.44 7.9c2.072 2.485 6.38 4.501 9.615 4.501 2.555 0 6.204-1.35 8.144-3.011 32.16-28.02 87.22-43.29 124.16-9.63 11.219 10.218 20.421 30.826 20.54 46-.02 41.38-36.34 64.29-78.78 64.29H444.7l-.117-.001c-4.408 0-9.428 3.275-11.203 7.31l-2.75 6.42c-.506 1.201-.917 3.235-.917 4.538 0 2.436 1.307 5.896 2.917 7.723l76.32 86.44c4.77 5.39 9.15 9.82 12.42 12.95H391c-4.416 0-8 3.584-8 8v16c0 4.416 3.584 8 8 8h167.443c6.549 0 11.969-5.313 12.098-11.86v-6.71c-.002-2.473-1.346-5.972-3-7.81zM311 352c4.416 0 8-3.584 8-8v-16c0-4.416-3.584-8-8-8h-40V64h40c4.416 0 8-3.584 8-8V40c0-4.416-3.584-8-8-8H199c-4.416 0-8 3.584-8 8v16c0 4.416 3.584 8 8 8h40v112H79V64h40c4.416 0 8-3.584 8-8V40c0-4.416-3.584-8-8-8H7c-4.416 0-8 3.584-8 8v16c0 4.416 3.584 8 8 8h40v256H7c-4.416 0-8 3.584-8 8v16c0 4.416 3.584 8 8 8h112c4.416 0 8-3.584 8-8v-16c0-4.416-3.584-8-8-8H79V208h160v112h-40c-4.416 0-8 3.584-8 8v16c0 4.416 3.584 8 8 8h112z"/><glyph glyph-name="alarm-clock" unicode="" horiz-adv-x="512" d="M32 336c.084-10.785 4.295-27.249 9.4-36.75-5.42-8.393-13.215-22.567-17.4-31.64C9.17 286.59 0 310.14 0 336c.077 61.747 50.253 111.923 112 112 33.86 0 63.89-15.42 84.44-39.2-9.718-2.302-25.148-7.14-34.44-10.8-12.031 9.88-34.432 17.944-50 18-44.11-.05-79.95-35.89-80-80zm368 112c61.747-.077 111.923-50.253 112-112 0-25.86-9.21-49.39-24-68.39-4.176 9.057-11.953 23.21-17.36 31.59 5.093 9.504 9.287 25.968 9.36 36.75-.05 44.11-35.89 79.95-80 80-15.568-.055-37.969-8.12-50-18-9.292 3.66-24.722 8.498-34.44 10.8C336.11 432.58 366.14 448 400 448zm-144-64c123.71 0 224-100.29 224-224v-.084c0-46.096-24.582-111.708-54.87-146.456l52.5-52.49c1.295-1.293 2.347-3.83 2.347-5.66s-1.052-4.367-2.347-5.66l-11.31-11.31c-1.294-1.295-3.83-2.346-5.66-2.346s-4.366 1.051-5.66 2.346L402.54-9.13C367.759-39.4 302.109-63.969 256-63.969S144.241-39.4 109.46-9.129l-52.49-52.5c-1.293-1.296-3.83-2.347-5.66-2.347s-4.367 1.051-5.66 2.346L34.34-50.32c-1.295 1.294-2.346 3.83-2.346 5.66 0 1.831 1.051 4.366 2.346 5.66l52.5 52.46C56.568 48.203 32 113.8 32 159.881v.12c0 123.71 100.29 224 224 224zm0-416c105.87 0 192 86.13 192 192s-86.13 192-192 192S64 265.87 64 160 150.13-32 256-32zm14.38 183.69l67.75-54.17c1.66-1.326 3.006-4.126 3.006-6.25 0-1.55-.787-3.79-1.756-5l-10-12.5c-1.326-1.66-4.126-3.006-6.249-3.006-1.55 0-3.791.786-5.001 1.755l-73.75 59c-3.31 2.65-5.997 8.241-6 12.48v136c0 4.417 3.584 8 8 8h16c4.416 0 8-3.583 8-8V151.69z"/><glyph glyph-name="chess" unicode="" horiz-adv-x="512" d="M400 128V96h-32v32c0 8.832 7.168 16 16 16s16-7.168 16-16zM503.16 12.43C508.04 9.988 512 3.578 512-1.88V-48c0-8.832-7.168-16-16-16H272c-8.832 0-16 7.168-16 16 0-8.832-7.168-16-16-16H16.03c-8.832 0-16 7.168-16 16v46.11c0 1.31.7 2.4 1 3.64 1.11 4.49 3.56 8.55 7.81 10.68L32 24v24c0 8.832 7.168 16 16 16h6.4c6.04 30.16 9.6 60.76 9.6 91.47V192H40c-4.416 0-8 3.584-8 8v16c0 4.416 3.584 8 8 8h16.91l-31.82 84.75c-1.128 3.003-2.043 8.043-2.043 11.25 0 17.664 14.335 32 32 32H112v32H88c-4.416 0-8 3.584-8 8v16c0 4.416 3.584 8 8 8h24v24c0 4.416 3.584 8 8 8h16c4.416 0 8-3.584 8-8v-24h24c4.416 0 8-3.584 8-8v-16c0-4.416-3.584-8-8-8h-24v-32h56.94c17.664 0 32-14.336 32-32 0-3.198-.91-8.225-2.031-11.22L199.1 224H216c4.416 0 8-3.584 8-8v-16c0-4.416-3.584-8-8-8h-24v-36.53c0-30.72 3.6-61.31 9.6-91.47h6.4c8.832 0 16-7.168 16-16V24l23.16-11.57C252.04 9.988 256 3.578 256-1.88c0 5.458 3.966 11.87 8.85 14.309L288 24v24c0 8.832 7.168 16 16 16h1.1l2.82 82.24L283.35 167c-6.253 5.282-11.338 16.214-11.35 24.4V272c0 8.832 7.168 16 16 16h192c8.832 0 16-7.168 16-16v-80.57c0-8.193-5.076-19.137-11.33-24.429l-24.6-20.79L462.9 64h1.1c8.832 0 16-7.168 16-16V24zM55.09 320l36-96h73.85l36 96H55.09zM168.88 64c-4.785 25.02-8.763 65.998-8.88 91.47V192H96v-36.53c-.117-25.472-4.095-66.45-8.88-91.47h81.76zM224-32v20.22l-32 16V32H64V4.22l-32-16V-32h192zm80 223.4l24.58-20.78 11.86-10-.53-15.52-2.79-81.1h93.76l-2.79 81.14-.53 15.5 11.84 10 24.6 20.82V256h-32v-32h-32v32h-32v-32h-32v32h-32v-64.6zM480-32v20.22l-32 16V32H320V4.22l-32-16V-32h192z"/><glyph glyph-name="chess-bishop" unicode="" horiz-adv-x="320" d="M64 48C30.14 58.76 0 92.36 0 144c0 72.64 66.43 194.57 119 240h82c52.57-45.43 119-167.36 119-240 0-51.64-30.14-85.24-64-96V0h-32v71.41l22.31 7.09C266.46 84.9 288 105.48 288 144c0 25.65-10.91 60.23-26.54 94.81l-76.43-76.44c-1.294-1.295-3.83-2.347-5.66-2.347s-4.366 1.052-5.66 2.347l-11.31 11.31c-1.296 1.294-2.346 3.83-2.346 5.66s1.05 4.366 2.346 5.66l84 84c-17.81 33-38.71 63.52-58 83h-56.8C86.72 306.67 32 202.29 32 144c0-38.52 21.54-59.1 41.69-65.5L96 71.41V0H64v48zm248-80c4.416 0 8-3.584 8-8v-16c0-4.416-3.584-8-8-8H8c-4.416 0-8 3.584-8 8v16c0 4.416 3.584 8 8 8h304zM112 416c-8.832 0-16 7.168-16 16s7.168 16 16 16h96c8.832 0 16-7.168 16-16s-7.168-16-16-16h-96z"/><glyph glyph-name="chess-bishop-alt" unicode="" horiz-adv-x="256" d="M247.16 12.42C252.04 9.978 256 3.568 256-1.89V-48c0-8.832-7.168-16-16-16H16C7.168-64 0-56.832 0-48v46.11C0 3.57 3.966 9.98 8.85 12.42L32 24v16c0 13.248 10.752 24 24 24h-1.41c5.042 26.256 9.213 69.265 9.31 96H40c-4.416 0-8 3.584-8 8v16c0 4.416 3.584 8 8 8h9.45c-19.65 21.43-17.1 51.82-17.1 52.52 0 49.14 36.44 117.48 70.74 139.48h1.07c-8.832 0-16 7.167-16 16s7.168 16 16 16h48c8.832 0 16-7.168 16-16s-7.168-16-16-16h1.1c34.15-21.91 70.59-89.99 70.59-139.39 0-.86 2.57-31.25-17.06-52.61H216c4.416 0 8-3.585 8-8v-16c0-4.417-3.584-8-8-8h-23.9c.097-26.736 4.268-69.745 9.31-96H200c13.248 0 24-10.753 24-24V24zm-119 346.69c-20 0-63.69-68.87-63.69-114.561 0-34.55 19.28-36.92 31.69-40.55v-12.03h64v12c12.59 3.73 31.69 6.13 31.69 40.55 0 12.96-4 29.65-10.69 46.57l-37.5-38.89c-.963-.993-2.867-1.798-4.25-1.798s-3.287.805-4.25 1.798l-14.09 14.61c-.96 1.028-1.74 3.004-1.74 4.41 0 1.407.78 3.383 1.74 4.41l44.68 46.34c-15.9 26.06-31 37.14-37.59 37.14zM168.84 64c-4.734 26.284-8.654 69.293-8.75 96H95.91c-.095-26.707-4.015-69.716-8.75-96h81.68zM224-32v20.22l-32 16V32H64V4.22l-32-16V-32h192z"/><glyph glyph-name="chess-board" unicode="" horiz-adv-x="512" d="M320.07 0v64h64V0h-64zM192.12 0v64h64V0h-64zM64.18 191.9h64v-64h-64v64zm127.94 191.93v-64h-64v64h64zM448 191.9h-64v64h64v-64zm0 191.93v-64h-64v64h64zm0-319.88h-64v64h64v-64zM320 383.83v-64h-64v64h64zm-255.89-64h64v-64h-64v64zm255.89-128h-64v64h64v-64zm-64 64h-64v64h64v-64zm-64 0v-64h-64v64h64zM128 63.9v-64H64v64h64zm64 64v-64h-64v64h64zm192.05 127.98h-64v64h64v-64zm-127.95-64v-64h-64v64h64zm0-64h64v-64h-64v64zm64 0v64h64v-64h-64zM480 448c17.664 0 32-14.336 32-32V-32c0-17.664-14.336-32-32-32H32C14.336-64 0-49.664 0-32v448c0 17.664 14.336 32 32 32h448zm0-480v448H32V-32h448z"/><glyph glyph-name="chess-clock" unicode="" horiz-adv-x="640" d="M464 32c-61.824 0-112 50.176-112 112s50.176 112 112 112 112-50.176 112-112S525.824 32 464 32zm0 192h-.063c-44.122 0-79.93-35.809-79.93-79.93 0-44.122 35.808-79.93 79.93-79.93s79.93 35.808 79.93 79.93c0 13.284-5.953 33.054-13.287 44.13l-56.6-56.6c-1.942-1.949-5.75-3.53-8.5-3.53s-6.558 1.581-8.5 3.53l-5.65 5.65c-1.948 1.941-3.53 5.749-3.53 8.5s1.582 6.559 3.53 8.5l56.52 56.53C496.846 218.073 477.2 223.996 464 224zM176 32C114.176 32 64 82.176 64 144s50.176 112 112 112 112-50.176 112-112S237.824 32 176 32zm-16 190.37c-35.328-7.21-64-42.327-64-78.384 0-44.16 35.84-80 80-80s80 35.84 80 80c0 36.057-28.672 71.173-64 78.384V140c0-6.624-5.376-12-12-12h-8c-6.624 0-12 5.376-12 12v82.37zM608 320c17.664 0 32-14.336 32-32V0c0-17.664-14.336-32-32-32H32C14.336-32 0-17.664 0 0v288c0 17.664 14.336 32 32 32h128v64h-56c-4.416 0-8 3.584-8 8v16c0 4.416 3.584 8 8 8h144c4.416 0 8-3.584 8-8v-16c0-4.416-3.584-8-8-8h-56v-64h200c-4.416 0-8 3.584-8 8v16c0 4.416 3.584 8 8 8h144c4.416 0 8-3.584 8-8v-16c0-4.416-3.584-8-8-8h72zm0-320v288H32V0h576z"/><glyph glyph-name="chess-clock-alt" unicode="" horiz-adv-x="640" d="M464 32c-61.824 0-112 50.176-112 112s50.176 112 112 112 112-50.176 112-112S525.824 32 464 32zm-16 190.37c-35.328-7.21-64-42.327-64-78.384 0-44.16 35.84-80 80-80s80 35.84 80 80c0 36.057-28.672 71.173-64 78.384V140c0-6.624-5.376-12-12-12h-8c-6.624 0-12 5.376-12 12v82.37zM608 320c17.664 0 32-14.336 32-32V0c0-17.664-14.336-32-32-32H32C14.336-32 0-17.664 0 0v288c0 17.664 14.336 32 32 32h72c-4.416 0-8 3.584-8 8v16c0 4.416 3.584 8 8 8h144c4.416 0 8-3.584 8-8v-16c0-4.416-3.584-8-8-8h200v64h-56c-4.416 0-8 3.584-8 8v16c0 4.416 3.584 8 8 8h144c4.416 0 8-3.584 8-8v-16c0-4.416-3.584-8-8-8h-56v-64h128zm0-320v288H32V0h576zM176 32C114.176 32 64 82.176 64 144s50.176 112 112 112 112-50.176 112-112S237.824 32 176 32zm0 192h-.063c-44.122 0-79.93-35.809-79.93-79.93 0-44.122 35.808-79.93 79.93-79.93s79.93 35.808 79.93 79.93c0 13.284-5.953 33.054-13.287 44.13l-56.6-56.6c-1.942-1.949-5.75-3.53-8.5-3.53s-6.558 1.581-8.5 3.53l-5.65 5.65c-1.948 1.941-3.53 5.749-3.53 8.5s1.582 6.559 3.53 8.5l56.52 56.53C208.846 218.073 189.2 223.996 176 224z"/><glyph glyph-name="chess-king" unicode="" d="M408-32c4.416 0 8-3.584 8-8v-16c0-4.416-3.584-8-8-8H40c-4.416 0-8 3.584-8 8v16c0 4.416 3.584 8 8 8h368zm31.34 301.88c4.816-6.467 8.707-18.26 8.707-26.325 0-3.751-.917-9.698-2.047-13.275L369 0h-33.8l80.31 240.12c1.67 5.5-1.43 15.88-12 15.88H44.434c-6.856 0-12.42-5.564-12.42-12.42 0-1.056.257-2.732.576-3.74L112.75 0H79L2.12 230C.954 233.647.008 239.712.008 243.54c0 24.537 19.915 44.455 44.452 44.46H208v64h-56c-4.416 0-8 3.584-8 8v16c0 4.416 3.584 8 8 8h56v56c0 4.416 3.584 8 8 8h16c4.416 0 8-3.584 8-8v-56h56c4.416 0 8-3.584 8-8v-16c0-4.416-3.584-8-8-8h-56v-64h163.51l.246.001c12.368 0 28.31-8.118 35.584-18.121z"/><glyph glyph-name="chess-king-alt" unicode="" horiz-adv-x="320" d="M295.16 12.42C300.04 9.978 304 3.568 304-1.89V-48c0-8.832-7.168-16-16-16H32c-8.832 0-16 7.168-16 16v46.11c0 5.46 3.966 11.87 8.85 14.31L48 24v16c0 13.248 10.752 24 24 24h13.09c5.956 27.13 10.842 71.693 10.91 99.47V192H72c-4.416 0-8 3.584-8 8v16c0 4.416 3.584 8 8 8h16.91l-31.82 84.75c-1.128 3.003-2.043 8.043-2.043 11.25 0 17.664 14.336 32 32 32H144v32h-24c-4.416 0-8 3.584-8 8v16c0 4.416 3.584 8 8 8h24v24c0 4.416 3.584 8 8 8h16c4.416 0 8-3.584 8-8v-24h24c4.416 0 8-3.584 8-8v-16c0-4.416-3.584-8-8-8h-24v-32h56.94c17.664 0 32-14.336 32-32 0-3.198-.91-8.225-2.03-11.22L231.1 224H248c4.416 0 8-3.584 8-8v-16c0-4.416-3.584-8-8-8h-24v-28.53c.067-27.777 4.954-72.34 10.91-99.47H248c13.248 0 24-10.752 24-24V24zM87.09 320l36-96h73.85l36 96H87.09zM128 163.47c-.033-27.733-4.559-72.296-10.1-99.47h84.2c-5.541 27.174-10.067 71.737-10.1 99.47V192h-64v-28.53zM272-32v20.22l-32 16V32H80V4.22l-32-16V-32h224z"/><glyph glyph-name="chess-knight" unicode="" horiz-adv-x="384" d="M35.48 146.36C15.924 155.065.03 179.504 0 200.91v119.126c0 8.117 3.418 20.335 7.63 27.273l-2.69 5.39C2.22 358.148.007 367.51 0 373.6c.027 23.378 19.023 42.373 42.4 42.4H128c123.51 0 224-100.49 224-224V0h-32v192c0 106-86 192-192 192H42.4c-7.22 0-13.52-7.67-8.85-17l12.31-24.559C38.44 335.01 32 330.35 32 319.95v-119c0-9.953 7.384-21.31 16.48-25.35l35.2-15.62c2.968-1.323 8.015-2.396 11.264-2.396 2.947 0 7.56.89 10.296 1.986l11.08 4.43c6.847 2.734 14.136 10.682 16.27 17.74l8 26.57c1.279 5.121 6.15 11.196 10.87 13.56l16.16 9.59v-62.25c-.005-14.192-10.309-30.862-23-37.21l-42.31-24.82C81.168 96.596 64.005 68.821 64 45.18V0H32v45.18l-.001.357c0 29.336 19.654 66.585 43.871 83.142-3.6 1.21-2.39.78-40.39 17.68zM64 284c0 11.04 8.96 20 20 20s20-8.96 20-20-8.96-20-20-20-20 8.96-20 20zM376-32c4.416 0 8-3.584 8-8v-16c0-4.416-3.584-8-8-8H8c-4.416 0-8 3.584-8 8v16c0 4.416 3.584 8 8 8h368z"/><glyph glyph-name="chess-knight-alt" unicode="" horiz-adv-x="320" d="M91.73 277.33c0-8.208-6.662-14.908-14.87-14.93-8.209 0-14.87 6.661-14.87 14.87 0 8.208 6.662 14.87 14.87 14.87 8.175 0 14.837-6.635 14.87-14.81zM311.16 12.42C316.04 9.978 320 3.568 320-1.89V-48c0-8.832-7.168-16-16-16H16C7.168-64 0-56.832 0-48v46.11C0 3.57 3.966 9.98 8.85 12.42L32 24v16c.02 5.701 3.424 13.479 7.6 17.36-16.98 46.86-1.87 79.32 18.69 101.42l-26.68 11.91C14.175 178.487.013 200.313 0 219.41v83.44c0 6.14 2.195 15.597 4.9 21.11l-.36.74C2.042 329.734.008 338.38 0 344c0 22.08 17.92 40 40 40h86.12C215.38 384 288 311.38 288 222.12V109.086c0-14.596-8.4-34.795-18.75-45.086l-.88-.88C279.46 61 288 51.71 288 40V24zM44.65 199.91l26.9-12c2.27-1.016 6.129-1.84 8.615-1.84 2.258 0 5.79.686 7.885 1.53l8.48 3.4c5.261 2.105 10.847 8.22 12.47 13.65l6.09 20.35c.96 3.952 4.687 8.642 8.32 10.47l21.26 5.06V197.8c0-38.33-108.94-47.17-73.62-133.8H224l22.63 22.63c5.172 5.173 9.37 15.31 9.37 22.624V222.12C256 293.55 197.55 352 126.16 352H40c-4.416 0-8-3.584-8-8 .005-1.457.539-3.696 1.19-5l9.47-18.93-6-6c-2.572-2.584-4.66-7.64-4.66-11.287V219.41c0-7.647 5.668-16.382 12.65-19.5zM288-32v20.22l-14.31 7.16L256 4.22V32H64V4.22L46.31-4.62 32-11.78V-32h256z"/><glyph glyph-name="chess-pawn" unicode="" horiz-adv-x="320" d="M312-32c4.416 0 8-3.584 8-8v-16c0-4.416-3.584-8-8-8H8c-4.416 0-8 3.584-8 8v16c0 4.416 3.584 8 8 8h304zM56 192c-4.416 0-8 3.584-8 8v16c0 4.416 3.584 8 8 8h25.78C63.134 242.195 48 278.107 48 304.16c0 61.824 50.176 112 112 112s112-50.176 112-112c0-26.052-15.134-61.965-33.78-80.16H264c4.416 0 8-3.584 8-8v-16c0-4.416-3.584-8-8-8h-40v-32c0-73.62 11.4-128.34 33-160h-36.8C201.54 37.54 192 91 192 160v32h-64v-32c0-69-9.54-122.46-28.2-160H63c21.64 31.66 33 86.38 33 160v32H56zm24 112c.05-44.11 35.89-79.95 80-80 44.16 0 80 35.84 80 80s-35.84 80-80 80-80-35.84-80-80z"/><glyph glyph-name="chess-pawn-alt" unicode="" horiz-adv-x="256" d="M247.16 12.42C252.04 9.978 256 3.568 256-1.89V-48c0-8.832-7.168-16-16-16H16C7.168-64 0-56.832 0-48v46.11C0 3.57 3.966 9.98 8.85 12.42L32 24v16c0 13.248 10.752 24 24 24h-1.41c5.042 26.256 9.213 69.265 9.31 96H40c-4.416 0-8 3.584-8 8v16c0 4.416 3.584 8 8 8h16.91C43.212 207.009 32.052 235.68 32 256v.151c0 52.915 42.945 95.86 95.86 95.86 52.914 0 95.86-42.945 95.86-95.86 0-20.315-11.035-49.055-24.63-64.151H216c4.416 0 8-3.584 8-8v-16c0-4.416-3.584-8-8-8h-23.9c.097-26.735 4.268-69.744 9.31-96H200c13.248 0 24-10.752 24-24V24zM160.09 160H95.91c-.095-26.707-4.015-69.716-8.75-96h81.68c-4.734 26.284-8.654 69.293-8.75 96zM128 320c-35.29-.038-63.962-28.71-64-64 0-35.328 28.672-64 64-64s64 28.672 64 64-28.672 64-64 64zm96-352v20.22l-32 16V32H64V4.22l-32-16V-32h192z"/><glyph glyph-name="chess-queen" unicode="" horiz-adv-x="512" d="M256 336c-30.912 0-56 25.088-56 56s25.088 56 56 56 56-25.088 56-56-25.088-56-56-56zm0 80c-13.248 0-24-10.752-24-24s10.752-24 24-24 24 10.752 24 24-10.752 24-24 24zM440-32c4.416 0 8-3.584 8-8v-16c0-4.416-3.584-8-8-8H72c-4.416 0-8 3.584-8 8v16c0 4.416 3.584 8 8 8h368zm64.87 295.84c3.935-2.621 7.129-8.587 7.129-13.315 0-2.085-.757-5.29-1.69-7.155L394.55 0h-35.44l115.96 243.82-4.07 2.27c-12.641-12.194-37.154-22.091-54.717-22.091L416 224c-4.175.005-10.896.628-15 1.39-31.68 5.87-56.05 30.95-63 62.61h-8.68c-11.565-26.494-44.412-47.997-73.32-47.997S194.244 261.506 182.68 288h-8.73c-7.78-34.71-36.83-61.4-72.46-63.81-1.84-.13-3.68-.19-5.49-.19l-.287-.001c-17.563 0-42.075 9.898-54.713 22.09l-4.12-2.269L152.88 0h-35.43L1.69 243.33C.757 245.195 0 248.4 0 250.485c0 4.728 3.195 10.694 7.13 13.315l28.57 16c2.12 1.43 5.917 2.59 8.474 2.59h.005c4.741-.088 10.839-3.282 13.61-7.13C65.645 264.63 82.75 256 95.97 256H96c1.1 0 2.21.04 3.33.11C125 257.85 144 280.91 144 306.6c0 7.397 6.003 13.4 13.4 13.4h38.77c6.04 0 11.61-3.99 12.86-9.91 4.43-21.036 25.472-38.11 46.97-38.11s42.54 17.074 46.97 38.11c1.25 5.91 6.86 9.91 12.86 9.91h38.77c7.397 0 13.4-6.003 13.4-13.4 0-23.53 15.7-45.46 38.84-49.75 2.507-.464 6.61-.845 9.16-.85h.02c13.142 0 30.19 8.548 38.05 19.08 2.825 3.902 9.025 7.159 13.84 7.27 2.551 0 6.337-1.16 8.45-2.59z"/><glyph glyph-name="chess-queen-alt" unicode="" horiz-adv-x="256" d="M128 400c-13.248 0-24 10.752-24 24s10.752 24 24 24 24-10.752 24-24-10.752-24-24-24zM247.16 12.42C252.04 9.978 256 3.568 256-1.89V-48c0-8.832-7.168-16-16-16H16C7.168-64 0-56.832 0-48v46.11C0 3.57 3.966 9.98 8.85 12.42L32 24v16c.09 11.578 9.498 22.053 21 23.38 6.017 27.297 10.945 72.138 11 100.09V192H40c-4.416 0-8 3.584-8 8v16c0 4.416 3.584 8 8 8h22.39L11.47 348.23c-.437.871-.791 2.368-.791 3.343 0 2.204 1.488 4.984 3.32 6.207l11.151 7.47c.995.668 2.776 1.21 3.974 1.21h.026c2.213-.04 5.058-1.533 6.35-3.33 3.669-4.968 11.658-9 17.834-9h.006c.55 0 1.03.05 1.55.05 11.96.81 20.85 11.56 20.85 23.56A6.262 6.262 0 0 0 82 384h18.07l.16.002c2.621 0 5.238-2.07 5.84-4.622 2.067-9.824 11.89-17.797 21.93-17.797s19.863 7.973 21.93 17.797c.602 2.551 3.218 4.622 5.84 4.622l.16-.002h18.08a6.262 6.262 0 0 0 6.26-6.26c0-10.98 7.33-21.21 18.13-23.21 1.168-.22 3.081-.398 4.27-.4h.01c6.134 0 14.095 3.987 17.77 8.9 1.313 1.824 4.202 3.348 6.45 3.4 1.19-.003 2.954-.545 3.94-1.21l11.16-7.44c1.838-1.223 3.329-4.005 3.329-6.212 0-.973-.353-2.469-.789-3.338L193.61 224H216c4.416 0 8-3.584 8-8v-16c0-4.416-3.584-8-8-8h-24v-28.53c.068-27.954 5.018-72.794 11.05-100.09C214.527 62.03 223.913 51.557 224 40V24zM56.7 322.23L97 224h62l40.3 98.16c-1.863.116-4.864.488-6.7.83-10.375 1.94-24.3 10.08-31.08 18.17-8.14-6.42-23.16-11.63-33.526-11.63-10.401 0-25.46 5.242-33.614 11.7-8.086-9.614-24.819-18.126-37.35-19h-.33zM170.1 64c-5.541 27.174-10.066 71.736-10.1 99.47V192H96v-28.53c-.033-27.734-4.558-72.296-10.1-99.47h84.2zM224-32v20.22l-32 16V32H64V4.22l-32-16V-32h192z"/><glyph glyph-name="chess-rook" unicode="" horiz-adv-x="384" d="M376-32c4.416 0 8-3.584 8-8v-16c0-4.416-3.584-8-8-8H8c-4.416 0-8 3.584-8 8v16c0 4.416 3.584 8 8 8h368zm-24 448c17.664 0 32-14.336 32-32V216.66l-56-48c0-42.71-1.57-93.43 10.65-168.66h-32.47C294.59 74.34 296 120.71 296 183.34l56 48V384h-80v-64h-32v64h-95.91v-64h-32l-.09 64H32V231.34l56-48C88 121.41 89.44 74.52 77.82 0H45.35C57.57 75.27 56 126 56 168.66l-56 48V384c0 17.664 14.336 32 32 32h320zM192 256c26.469-.027 47.973-21.531 48-48v-80h-96v80c.027 26.469 21.531 47.973 48 48zm16-96v48c0 8.832-7.168 16-16 16s-16-7.168-16-16v-48h32z"/><glyph glyph-name="chess-rook-alt" unicode="" horiz-adv-x="320" d="M311.16 20.42c4.88-2.442 8.84-8.852 8.84-14.309V-48c0-8.832-7.168-16-16-16H16C7.168-64 0-56.832 0-48V6.11c0 5.46 3.966 11.87 8.85 14.31L32 32v16c0 8.832 7.168 16 16 16h.39l7.27 145.32L25.27 240c-5.107 5.153-9.26 15.224-9.27 22.48V360c.038 13.21 10.79 23.962 24 24h240c13.21-.038 23.962-10.79 24-24v-97.42c-.001-7.255-4.14-17.33-9.24-22.49l-30.42-30.78L271.61 64h.39c8.832 0 16-7.169 16-16V32zM48 262.5l40.34-40.72L80.41 64h159.18l-7.93 157.81L272 262.56V352h-48v-48h-32v48h-64v-48H96v48H48v-89.5zM288-32v28.22l-14.31 7.16L256 12.22V32H64V12.22L46.31 3.38 32-3.78V-32h256zM183.59 216.41v-47.18h-47.18v47.18c0 13.021 10.569 23.59 23.59 23.59s23.59-10.569 23.59-23.59z"/><glyph glyph-name="user-lock" unicode="" horiz-adv-x="640" d="M48-32h273.6c2.046-9.775 8.676-24.111 14.8-32H48C21.506-64 0-42.496 0-16v41.6C0 99.8 60.202 160 134.3 160c28.8 0 42.5-16 89.601-16 47.1 0 60.9 16 89.6 16 5.87-.112 15.323-1.053 21.1-2.1-5.436-7.696-11.305-21.45-13.1-30.7-2.6.2-5.2.8-7.9.8-19.6 0-39.1-16-89.6-16s-70 16-89.6 16c-56.486-.038-102.362-45.915-102.4-102.4V-16c0-8.832 7.168-16 16-16zm176 224c-70.656 0-128 57.344-128 128s57.344 128 128 128 128-57.344 128-128-57.344-128-128-128zm0 224c-52.91-.082-95.918-43.09-96-96 0-52.992 43.008-96 96-96s96 43.008 96 96-43.008 96-96 96zM496 80c17.664 0 32-14.336 32-32s-14.336-32-32-32-32 14.336-32 32 14.336 32 32 32zm96 80c26.496 0 48-21.504 48-48V-16c0-26.496-21.504-48-48-48H400c-26.496 0-48 21.504-48 48v128c0 26.496 21.504 48 48 48h16v48c0 44.16 35.84 80 80 80s80-35.84 80-80v-48h16zm-144 48v-48h96v48c0 26.496-21.504 48-48 48s-48-21.504-48-48zM608-16v128c0 8.832-7.168 16-16 16H400c-8.832 0-16-7.168-16-16V-16c0-8.832 7.168-16 16-16h192c8.832 0 16 7.168 16 16z"/><glyph glyph-name="brain" unicode="" horiz-adv-x="544" d="M509.6 217.7c21.5-17.1 34.4-43.1 34.5-70.7 0-32.7-17.4-62.3-45.3-78.5 2.3-48.1-36.7-88.6-84.9-87.4-14.2-27.4-42.5-45-74-45-27.9 0-52.6 13.8-67.8 34.8-15.3-21-39.9-34.8-67.8-34.8-31.5 0-59.9 17.6-74.1 45C82-20.2 43 20.3 45.3 68.5 17.4 84.6 0 114.3 0 147c0 27.6 12.9 53.6 34.3 70.7-17.5 54.4 20.1 93.1 41.1 105.3-2.6 37.7 25.9 74.3 66.7 79.4 12 27.4 39.1 45.6 69.7 45.6 24.6 0 46.2-11.9 60.2-29.9 14 18 35.6 29.9 60.2 29.9 30.6 0 57.8-18.2 69.6-45.6 40.8-5.1 69.4-41.7 66.7-79.4 21-12.1 58.6-50.8 41.1-105.3zM255.9 19.5h.1V372c0 24.3-19.9 44-44.2 44-30.8 0-39.9-22.6-45.8-45.5l-12.7.3h-.4c-25.9 0-45.5-19.7-45.5-43.8 0-6.2 1.7-11.9 4.2-22.8-27.5-11.2-49.4-25.8-49.4-59.7 0-10 .2-13.5 12.8-39.2-19.9-11.4-42.9-24.4-42.9-58.3 0-35.3 23.4-49 48.8-59.5-2.8-13.9-3.7-16.8-3.7-23 0-28.4 23.2-51.5 51.7-51.5 3.9 0 5.9.5 22.2 3.2C160-10.2 172.3-32 204.2-32c28.5 0 51.7 23.1 51.7 51.5zm207.1 68c25.5 10.5 48.9 24.2 48.9 59.5 0 33.8-23 46.9-42.9 58.3 12.6 25.8 12.8 29.2 12.8 39.2 0 33.9-21.9 48.5-49.4 59.7 2.5 10.9 4.2 16.6 4.2 22.8 0 24.1-19.6 43.8-45.5 43.8h-.4l-12.7-.3c-5.9 23-15.1 45.5-45.8 45.5-24.4 0-44.2-19.7-44.2-44V19.5C288-8.9 311.2-32 339.7-32c31.9 0 44.2 21.8 53.1 48.2 16.3-2.7 18.3-3.2 22.2-3.2 28.5 0 51.7 23.1 51.7 51.5 0 6.2-.9 9.2-3.7 23z"/><glyph glyph-name="mind-share" unicode="" horiz-adv-x="640" d="M288.1 175.4c-12.1-9.1-23.1-19.7-32.1-31.8V372c0 24.299-19.9 44-44.2 44-30.8 0-39.9-22.6-45.8-45.5l-12.7.299h-.4c-25.9 0-45.5-19.7-45.5-43.8 0-6.2 1.7-11.9 4.2-22.8-27.5-11.2-49.4-25.8-49.4-59.7 0-10 .2-13.5 12.8-39.2-19.9-11.4-42.9-24.4-42.9-58.3 0-35.3 23.4-49 49-59.4-2.8-13.9-3.7-16.8-3.7-23 0-28.4 23.2-51.5 51.7-51.5 3.9 0 5.9.5 22.2 3.2 8.9-26.4 21.2-48.2 53.1-48.2 13.2 0 25.2 5.1 34.3 13.3 4.4-9.7 9.9-18.9 16.2-27.6-14.1-10.9-31.5-17.7-50.6-17.7-31.5 0-59.9 17.6-74.1 45-48.2-1.3-87.2 39.2-84.9 87.4C17.4 84.6 0 114.3 0 147c0 27.6 12.9 53.6 34.3 70.7-17.5 54.4 20.1 93.1 41.1 105.3-2.6 37.7 25.9 74.3 66.7 79.4 12 27.4 39.1 45.6 69.7 45.6 24.6 0 46.2-11.9 60.2-29.9 14 18 35.6 29.9 60.2 29.9 30.6 0 57.8-18.2 69.8-45.6 40.8-5.1 69.4-41.7 66.7-79.4 13.3-7.6 33-25.9 41.5-52-3.8-.1-7.6-.5-11.3-1.3-3.8-.8-7.5-1.9-11.1-3.4-3.1-1.3-5.5-3.3-8.3-5-6.2 22.2-24.6 33.8-47 42.9 2.5 10.9 4.2 16.6 4.2 22.8 0 24.1-19.6 43.8-45.5 43.8h-.4l-12.7-.3c-5.9 23-15.1 45.5-45.8 45.5-24.4 0-44.2-19.7-44.2-44V175.4zm342.2-40.6c6.3-6.3 9.7-14.8 9.7-23.7 0-8.9-3.5-17.3-9.7-23.5l-96-95.2c-9.2-9.2-22.4-11.8-34.3-6.8-12.1 5.1-19.9 17-19.9 30.4v31.2h-80c-17.3 0-29.6-5.5-37.7-16.7-12.3-17.3-11.7-44.1-7.4-56.9 6.3-18.7-7.6-37.6-26.3-37.6-5.4 0-10.8 1.6-15.6 4.8-42 27.9-63.6 78.5-55.2 128.8.1.2.2.5.2.7 9.2 53.3 52.9 96 106.7 103.9 6.1 1 12 1.1 18.1 1h97.2v31.2c0 13.4 7.8 25.3 19.9 30.4 11.9 4.9 25.1 2.4 34.3-6.8zM512 16l95.8 96-96 95.2.3-64.1h-128c-6 0-10.3.1-14.7-.6-40.4-5.9-73.3-38-80-78.2-5.7-34.1 6.9-68.3 32.4-90.1-3.8 20.6-2.5 51.3 14.5 75 9.9 13.7 28.9 30 63.7 30h112V16z"/><glyph glyph-name="torah" unicode="" horiz-adv-x="640" d="M210.64 193l-33.57 56.08c-1.9 3.127-3.445 8.636-3.445 12.296 0 3.497 1.418 8.795 3.165 11.824 3.86 6.768 13.317 12.26 21.108 12.26h68.022l33.31 55.68c3.862 6.547 13.166 11.86 20.766 11.86h.117c7.486 0 16.642-5.237 20.437-11.69L374 285.44h68.07c13.324-.013 24.137-10.836 24.137-24.16 0-3.69-1.54-9.254-3.437-12.42L429.35 193l33.57-56.06c1.906-3.13 3.453-8.646 3.453-12.311 0-3.502-1.42-8.806-3.173-11.839-3.863-6.762-13.32-12.25-21.107-12.25h-68.022l-33.31-55.68C336.897 38.318 327.596 33.006 320 33h-.118c-7.487 0-16.645 5.237-20.442 11.69L266 100.56h-68.06c-13.319.018-24.127 10.842-24.127 24.16 0 3.69 1.539 9.255 3.436 12.42zm-4.14-63.46h42.1l-21.1 35.24zm113.56-62.87l20.26 33.89h-40.55zm113.49 62.87l-21.09 35.22-21.06-35.22h42.15zm-.06 126.92h-42.11l21.11-35.24zM320 319.31l-20.32-33.87h40.54zm-37.65-62.83L244.42 193l38-63.46h75.23L395.57 193l-38 63.48h-75.22zm-33.76 0h-42.1l21.1-35.22zM576 449c35.88 0 64-21.08 64-48V-15c0-26.92-28.12-48-64-48-28.32 0-51.57 13.22-60.2 32H124.2C115.57-49.78 92.32-63 64-63 28.12-63 0-41.92 0-15v416c0 26.92 28.12 48 64 48 28.32 0 51.57-13.22 60.2-32h391.6c8.63 18.78 31.88 32 60.2 32zM96 385v16c0 6.37-12.75 16-32 16s-32-9.63-32-16V-15c0-6.38 12.75-16 32-16s32 9.62 32 16v400zM512 1v384H128V1h384zm96-16v416c0 6.37-12.75 16-32 16s-32-9.63-32-16V-15c0-6.38 12.75-16 32-16s32 9.62 32 16z"/><glyph glyph-name="alarm-exclamation" unicode="" horiz-adv-x="512" d="M256 96c13.248 0 24-10.752 24-24s-10.752-24-24-24-24 10.752-24 24 10.752 24 24 24zm-8.5 24c-4.148 0-7.741 3.36-8 7.5l-7 136a8.003 8.003 0 0 0 7.984 8.5h31.032a8.003 8.003 0 0 0 7.984-8.5l-7-136c-.321-4.082-3.905-7.442-8-7.5h-17zM32 336c.084-10.785 4.295-27.249 9.4-36.75-5.42-8.393-13.215-22.567-17.4-31.64C9.17 286.59 0 310.14 0 336c.077 61.747 50.253 111.923 112 112 33.86 0 63.89-15.42 84.44-39.2-9.718-2.302-25.148-7.14-34.44-10.8-12.031 9.88-34.432 17.944-50 18-44.11-.05-79.95-35.89-80-80zm368 112c61.747-.077 111.923-50.253 112-112 0-25.86-9.21-49.39-24-68.39-4.176 9.057-11.953 23.21-17.36 31.59 5.093 9.504 9.287 25.968 9.36 36.75-.05 44.11-35.89 79.95-80 80-15.568-.055-37.969-8.12-50-18-9.292 3.66-24.722 8.498-34.44 10.8C336.11 432.58 366.14 448 400 448zm-144-64c123.71 0 224-100.29 224-224v-.084c0-46.096-24.582-111.708-54.87-146.456l52.5-52.49c1.295-1.293 2.347-3.83 2.347-5.66s-1.052-4.367-2.347-5.66l-11.31-11.31c-1.294-1.295-3.83-2.346-5.66-2.346s-4.366 1.051-5.66 2.346L402.54-9.13C367.759-39.4 302.109-63.969 256-63.969S144.241-39.4 109.46-9.129l-52.49-52.5c-1.293-1.296-3.83-2.347-5.66-2.347s-4.367 1.051-5.66 2.346L34.34-50.32c-1.295 1.294-2.346 3.83-2.346 5.66 0 1.831 1.051 4.366 2.346 5.66l52.5 52.46C56.568 48.203 32 113.8 32 159.881v.12c0 123.71 100.29 224 224 224zm0-416c105.87 0 192 86.13 192 192s-86.13 192-192 192S64 265.87 64 160 150.13-32 256-32z"/><glyph glyph-name="alarm-plus" unicode="" horiz-adv-x="512" d="M344 176c4.416 0 8-3.584 8-8v-16c0-4.416-3.584-8-8-8h-72V72c0-4.416-3.584-8-8-8h-16c-4.416 0-8 3.584-8 8v72h-72c-4.416 0-8 3.584-8 8v16c0 4.416 3.584 8 8 8h72v72c0 4.416 3.584 8 8 8h16c4.416 0 8-3.584 8-8v-72h72zM32 336c.084-10.785 4.295-27.249 9.4-36.75-5.42-8.393-13.215-22.567-17.4-31.64C9.17 286.59 0 310.14 0 336c.077 61.747 50.253 111.923 112 112 33.86 0 63.89-15.42 84.44-39.2-9.718-2.302-25.148-7.14-34.44-10.8-12.031 9.88-34.432 17.944-50 18-44.11-.05-79.95-35.89-80-80zm368 112c61.747-.077 111.923-50.253 112-112 0-25.86-9.21-49.39-24-68.39-4.176 9.057-11.953 23.21-17.36 31.59 5.093 9.504 9.287 25.968 9.36 36.75-.05 44.11-35.89 79.95-80 80-15.568-.055-37.969-8.12-50-18-9.292 3.66-24.722 8.498-34.44 10.8C336.11 432.58 366.14 448 400 448zm-144-64c123.71 0 224-100.29 224-224v-.084c0-46.096-24.582-111.708-54.87-146.456l52.5-52.49c1.295-1.293 2.347-3.83 2.347-5.66s-1.052-4.367-2.347-5.66l-11.31-11.31c-1.294-1.295-3.83-2.346-5.66-2.346s-4.366 1.051-5.66 2.346L402.54-9.13C367.759-39.4 302.109-63.969 256-63.969S144.241-39.4 109.46-9.129l-52.49-52.5c-1.293-1.296-3.83-2.347-5.66-2.347s-4.367 1.051-5.66 2.346L34.34-50.32c-1.295 1.294-2.346 3.83-2.346 5.66 0 1.831 1.051 4.366 2.346 5.66l52.5 52.46C56.568 48.203 32 113.8 32 159.881v.12c0 123.71 100.29 224 224 224zm0-416c105.87 0 192 86.13 192 192s-86.13 192-192 192S64 265.87 64 160 150.13-32 256-32z"/><glyph glyph-name="alarm-snooze" unicode="" horiz-adv-x="512" d="M328 96c4.416 0 8-3.584 8-8V72c0-4.416-3.584-8-8-8H191.99c-8.832 0-16 7.168-16 16 0 3.1 1.573 7.58 3.51 10l107.22 134H184c-4.416 0-8 3.584-8 8v16c0 4.416 3.584 8 8 8h136.01c8.832 0 16-7.168 16-16 0-3.1-1.573-7.58-3.51-10L225.28 96H328zM32 336c.084-10.785 4.295-27.249 9.4-36.75-5.42-8.393-13.215-22.567-17.4-31.64C9.17 286.59 0 310.14 0 336c.077 61.747 50.253 111.923 112 112 33.86 0 63.89-15.42 84.44-39.2-9.718-2.302-25.148-7.14-34.44-10.8-12.031 9.88-34.432 17.944-50 18-44.11-.05-79.95-35.89-80-80zm368 112c61.747-.077 111.923-50.253 112-112 0-25.86-9.21-49.39-24-68.39-4.176 9.057-11.953 23.21-17.36 31.59 5.093 9.504 9.287 25.968 9.36 36.75-.05 44.11-35.89 79.95-80 80-15.568-.055-37.969-8.12-50-18-9.292 3.66-24.722 8.498-34.44 10.8C336.11 432.58 366.14 448 400 448zm-144-64c123.71 0 224-100.29 224-224v-.084c0-46.096-24.582-111.708-54.87-146.456l52.5-52.49c1.295-1.293 2.347-3.83 2.347-5.66s-1.052-4.367-2.347-5.66l-11.31-11.31c-1.294-1.295-3.83-2.346-5.66-2.346s-4.366 1.051-5.66 2.346L402.54-9.13C367.759-39.4 302.109-63.969 256-63.969S144.241-39.4 109.46-9.129l-52.49-52.5c-1.293-1.296-3.83-2.347-5.66-2.347s-4.367 1.051-5.66 2.346L34.34-50.32c-1.295 1.294-2.346 3.83-2.346 5.66 0 1.831 1.051 4.366 2.346 5.66l52.5 52.46C56.568 48.203 32 113.8 32 159.881v.12c0 123.71 100.29 224 224 224zm0-416c105.87 0 192 86.13 192 192s-86.13 192-192 192S64 265.87 64 160 150.13-32 256-32z"/><glyph glyph-name="align-slash" unicode="" horiz-adv-x="640" d="M536 144c4.416 0 8-3.584 8-8v-16c0-4.416-3.584-8-8-8h-36.93l-40.64 32H536zm8 120v-16c0-4.416-3.584-8-8-8H336.52l-40.63 32H536c4.416 0 8-3.584 8-8zm-8 104H174l-40.66 32H536c4.416 0 8-3.584 8-8v-16c0-4.416-3.584-8-8-8zM96 120v16c0 4.416 3.584 8 8 8h199.36L344 112H104c-4.416 0-8 3.584-8 8zM637-37.32c1.655-1.298 2.999-4.059 2.999-6.162 0-1.567-.814-3.815-1.82-5.018l-10-12.5c-1.31-1.653-4.087-2.996-6.198-2.996-1.547 0-3.779.79-4.981 1.766L3 421.29c-1.653 1.313-2.994 4.091-2.994 6.203 0 1.557.799 3.8 1.784 5.008l10 12.5c1.303 1.663 4.075 3.013 6.188 3.013 1.567 0 3.817-.812 5.022-1.813zM104 16h361.91l40.64-32H104c-4.416 0-8 3.584-8 8V8c0 4.416 3.584 8 8 8zm0 224c-4.416 0-8 3.584-8 8v16c0 4.416 3.584 8 8 8h36.81l40.64-32H104z"/><glyph glyph-name="bags-shopping" unicode="" horiz-adv-x="576" d="M544 192c17.664 0 32-14.336 32-32V-32c0-17.664-14.336-32-32-32H224c-17.664 0-32 14.336-32 32v192c0 17.664 14.336 32 32 32h320zm0-224v192H224V-32h320zM371.37.81C323 7 288 50.55 288 99.34V120c0 4.416 3.584 8 8 8h16c4.416 0 8-3.584 8-8V98.84c0-33.41 24.37-63.3 57.62-66.53a77.35 77.35 0 0 1 6.31-.312c35.329 0 64.032 28.673 64.07 64.002v24c0 4.416 3.584 8 8 8h16c4.416 0 8-3.584 8-8V96c-.062-52.996-43.124-96.008-96.12-96.008-3.468 0-9.072.366-12.51.818zM32 256V0h128v-32H32C14.336-32 0-17.664 0 0v256c0 17.664 14.336 32 32 32h96v64c0 52.992 43.008 96 96 96s96-43.008 96-96v-64h96c17.664 0 32-14.336 32-32v-32h-32v32H32zm128 96v-64h128v64c0 35.328-28.672 64-64 64s-64-28.672-64-64z"/><glyph glyph-name="bell-exclamation" unicode="" d="M433.37 113.19c8.066-7.596 14.613-22.753 14.613-33.833 0-4.97-1.507-12.746-3.363-17.357-6.61-16.56-26.444-30.001-44.274-30.001H47.642c-17.811 0-37.64 13.418-44.262 29.95C1.518 66.567.008 74.353.008 79.33c0 11.094 6.56 26.263 14.642 33.861C42.59 139.81 64 167.69 64 262.09c0 79.6 63.35 144.5 144.03 152.35V432c0 8.832 7.168 16 16 16s16-7.168 16-16v-17.55c80.63-7.86 144-72.76 144-152.36 0-94.42 21.34-122.28 49.34-148.9zM400 64c14.16 0 21.37 16.44 11.28 26.02C376.22 123.41 352 160.75 352 262.09 352 329.48 294.78 384 224 384S96 329.47 96 262.09C96 160.34 71.54 123.2 36.68 90 26.65 80.47 33.78 64 48 64h352zM224-32c17.664 0 32 14.336 32 32h32c0-35.328-28.672-64-64-64s-64 28.672-64 64h32c0-17.664 14.336-32 32-32zm-8.5 224c-4.148 0-7.741 3.36-8 7.5l-7 112a8.003 8.003 0 0 0 7.984 8.5h31.032a8.003 8.003 0 0 0 7.984-8.5l-7-112c-.317-4.087-3.901-7.446-8-7.5h-17zm8.5-24c13.248 0 24-10.752 24-24s-10.752-24-24-24-24 10.752-24 24 10.752 24 24 24z"/><glyph glyph-name="bell-plus" unicode="" d="M224-32c17.664 0 32 14.336 32 32h32c0-35.328-28.672-64-64-64s-64 28.672-64 64h32c0-17.664 14.336-32 32-32zm209.37 145.19c8.066-7.596 14.613-22.753 14.613-33.833 0-4.97-1.507-12.746-3.363-17.357-6.61-16.56-26.444-30.001-44.274-30.001H47.642c-17.811 0-37.64 13.418-44.262 29.95C1.518 66.567.008 74.353.008 79.33c0 11.094 6.56 26.263 14.642 33.861C42.59 139.81 64 167.69 64 262.09c0 79.6 63.35 144.5 144.03 152.35V432c0 8.832 7.168 16 16 16s16-7.168 16-16v-17.55c80.63-7.86 144-72.76 144-152.36 0-94.42 21.34-122.28 49.34-148.9zM400 64c14.16 0 21.37 16.44 11.28 26.02C376.22 123.41 352 160.75 352 262.09 352 329.48 294.78 384 224 384S96 329.47 96 262.09C96 160.34 71.54 123.2 36.68 90 26.65 80.47 33.78 64 48 64h352zM296 224c4.416 0 8-3.584 8-8v-16c0-4.416-3.584-8-8-8h-56v-56c0-4.416-3.584-8-8-8h-16c-4.416 0-8 3.584-8 8v56h-56c-4.416 0-8 3.584-8 8v16c0 4.416 3.584 8 8 8h56v56c0 4.416 3.584 8 8 8h16c4.416 0 8-3.584 8-8v-56h56z"/><glyph glyph-name="biking" unicode="" horiz-adv-x="640" d="M120 176c66.24 0 120-53.76 120-120S186.24-64 120-64 0-10.24 0 56s53.76 120 120 120zm0-208c48.52.055 87.945 39.48 88 88 0 48.576-39.424 88-88 88s-88-39.424-88-88 39.424-88 88-88zm400 208c66.24 0 120-53.76 120-120S586.24-64 520-64 400-10.24 400 56s53.76 120 120 120zm0-208c48.52.055 87.945 39.48 88 88 0 48.576-39.424 88-88 88s-88-39.424-88-88 39.424-88 88-88zM374.31 202.21l-24.47 19.42-16.5-12.72 13.33-9c11.775-7.851 21.33-25.709 21.33-39.86V48c0-26.496-21.503-48-48-48s-48 21.504-48 48v86.31l-74.67 49.83c-11.013 7.304-20.529 23.943-21.24 37.14-.88 15.13 5.22 29.43 17.57 39.94l99.25 79c7.29 6.391 21.074 11.579 30.768 11.579 5.144 0 13.173-1.604 17.922-3.58-3.09 7.377-5.597 19.854-5.597 27.851 0 39.783 32.287 72.07 72.069 72.07 39.783 0 72.07-32.287 72.07-72.07 0-39.783-32.287-72.07-72.07-72.07H408c-2.296.094-6.001.466-8.27.83l21.32-17.05H464c26.496 0 48-21.504 48-48s-21.504-48-48-48h-59.8c-9.251.01-22.642 4.683-29.89 10.43zM408 416c-22.08 0-40-17.92-40-40s17.92-40 40-40 40 17.92 40 40-17.92 40-40 40zm-79.12-242.69l-50.2 33.86 71.43 55.11 44.09-35c2.418-1.932 6.893-3.5 9.988-3.5H464c8.832 0 16 7.169 16 16s-7.168 16-16 16h-54.18l-75.62 60.5c-2.418 1.932-6.892 3.5-9.988 3.5-3.27 0-7.94-1.729-10.422-3.86l-100.2-79.78c-3.082-2.643-5.583-8.084-5.583-12.144 0-4.722 3.187-10.683 7.113-13.305l88.88-59.25V48.001c0-8.832 7.168-16 16-16s16 7.168 16 16v112c0 4.725-3.19 10.687-7.12 13.31z"/><glyph glyph-name="biking-mountain" unicode="" horiz-adv-x="640" d="M153.18 269.55l-34.68 45.02c-10.06 13-8.03 31.87 4.5 42l53.41 41.64c12.258 9.83 34.959 17.806 50.67 17.806 2.67 0 6.99-.258 9.64-.575 20.067-2.409 46.258-17.439 58.46-33.551l-25.31-19.56c-7.68 10.202-24.197 19.759-36.87 21.33-1.662.208-4.37.376-6.046.376-9.533 0-23.279-4.872-30.684-10.876l-53.4-41.66 35.62-42.39zm221.15-67.34l-24.49 19.42-16.5-12.72 13.33-9c11.774-7.851 21.33-25.709 21.33-39.86V48c0-26.496-21.504-48-48-48s-48 21.504-48 48v86.31l-74.66 49.83c-11.014 7.304-20.53 23.943-21.24 37.14-.88 15.13 5.22 29.43 17.57 39.94l99.25 79c7.287 6.391 21.068 11.579 30.76 11.579 5.144 0 13.171-1.604 17.92-3.58-3.09 7.377-5.598 19.854-5.598 27.851 0 39.783 32.287 72.07 72.07 72.07 39.782 0 72.07-32.287 72.07-72.07 0-39.783-32.288-72.07-72.07-72.07H408c-2.293.095-5.994.467-8.26.83l21.32-17.05H464c26.496 0 48-21.504 48-48s-21.504-48-48-48h-59.79c-9.248.01-22.635 4.683-29.88 10.43zM408 416c-22.08 0-40-17.92-40-40s17.92-40 40-40 40 17.92 40 40-17.92 40-40 40zm-79.11-242.69l-50.19 33.83 71.41 55.14 44.09-35c2.418-1.932 6.893-3.5 9.988-3.5H464c8.832 0 16 7.169 16 16s-7.168 16-16 16h-54.18l-75.63 60.5c-2.417 1.93-6.889 3.497-9.983 3.497-3.268 0-7.935-1.728-10.417-3.857l-100.2-79.78c-3.079-2.643-5.579-8.082-5.579-12.14 0-4.725 3.19-10.687 7.12-13.31L304 151.44V48c0-8.831 7.167-16 16-16s16 7.169 16 16v112.008c0 4.72-3.186 10.68-7.11 13.302zM128 120c30.879-.033 55.967-25.121 56-56 0-30.912-25.088-56-56-56S72 33.088 72 64s25.088 56 56 56zm0-80c13.248 0 24 10.752 24 24s-10.752 24-24 24-24-10.752-24-24 10.752-24 24-24zm489 67.17c12.695-3.046 22.999-16.114 23-29.17V50c-.034-13.013-10.325-26.067-22.97-29.14a4.419 4.419 0 0 0-.25-.58c2.423-3.978 4.39-10.987 4.39-15.644 0-6.855-3.924-16.358-8.76-21.216l-19.78-19.8c-4.863-4.84-14.38-8.77-21.241-8.77-4.656 0-11.661 1.963-15.639 4.38l-.59-.23c-3.045-12.69-16.11-22.995-29.16-23h-28c-13.027.015-26.077 10.306-29.13 22.97l-.59.23c-3.976-2.413-10.978-4.37-15.63-4.37-6.86 0-16.375 3.924-21.24 8.76l-19.79 19.8c-4.843 4.861-8.773 14.376-8.773 21.237 0 4.65 1.959 11.65 4.373 15.623-.06.19-.16.39-.22.58-12.668 3.068-22.972 16.136-23 29.17v28c.041 13.01 10.336 26.056 22.98 29.12a5.6 5.6 0 0 0 .25.58c-2.422 3.978-4.387 10.986-4.387 15.643 0 6.853 3.923 16.36 8.757 21.217l19.79 19.8c4.865 4.836 14.381 8.761 21.24 8.761 4.652 0 11.653-1.958 15.63-4.37l.59.25c3.044 12.686 16.103 22.99 29.15 23h28c13.027-.016 26.077-10.307 29.13-22.97l.56-.231c3.975 2.345 10.946 4.247 15.56 4.247 6.85 0 16.401-3.87 21.32-8.637l19.81-19.8c4.847-4.85 8.782-14.351 8.782-21.208 0-4.667-1.977-11.682-4.412-15.662.1-.19.16-.38.25-.57zM593.6 52H610l-1.84 24H593.5l-3.41 11.44c-1.305 4.38-4.119 11.202-6.28 15.23l-5.69 10.52 11.68 11.64-19.84 16.95-.31-3.17-8.41-8.48-10.53 5.65c-4.048 2.179-10.908 5.024-15.31 6.35l-11.4 3.42V162l-26-2 2.03-2.55v-11.92l-11.44-3.4c-4.384-1.303-11.202-4.135-15.22-6.32l-10.5-5.7-11.65 11.67-17-19.79 3.19-.36 8.5-8.44-5.72-10.53c-2.173-4.039-5.018-10.88-6.35-15.27L430.41 76H414l2-26 2.54 2h11.88l3.48-11.37c1.315-4.384 4.146-11.212 6.32-15.24L446 14.84 434.2 3.17 454-13.78l.41 3.22 8.43 8.44 10.47-5.68c4.04-2.175 10.885-5.006 15.28-6.32L500-17.55V-34l26 2-2 2.55v11.9l11.37 3.43c4.391 1.302 11.223 4.129 15.25 6.31l10.5 5.7 11.66-11.67 17 19.8-3.18.36-8.5 8.43 5.72 10.53c2.168 4.041 5.009 10.882 6.34 15.27zm-360.55 55.16c12.592-3.097 22.874-16.134 22.95-29.1V50c-.031-13.016-10.321-26.07-22.97-29.14a6.918 6.918 0 0 0-.25-.58c2.422-3.978 4.388-10.986 4.388-15.643 0-6.854-3.924-16.359-8.758-21.217l-19.82-19.8c-9.65-9.65-25.59-11.29-36.84-4.39l-.59-.23c-3.044-12.69-16.109-22.995-29.16-23h-28c-13.027.014-26.077 10.306-29.13 22.97-.167.06-.431.171-.59.25-3.98-2.43-10.996-4.4-15.659-4.4-6.857 0-16.364 3.929-21.22 8.77l-19.81 19.8c-4.843 4.858-8.772 14.368-8.772 21.227 0 4.664 1.971 11.682 4.401 15.663a3.15 3.15 0 0 0-.22.55C10.323 23.89.018 36.958 0 50v28c.015 13.046 10.323 26.1 23.01 29.14.06.19.16.38.22.55-2.43 3.982-4.404 11-4.404 15.664 0 6.86 3.931 16.368 8.774 21.226l19.81 19.8c4.864 4.84 14.38 8.77 21.242 8.77 4.655 0 11.66-1.963 15.638-4.38l.56.23c3.045 12.686 16.103 22.99 29.15 23h28c13.036-.007 26.096-10.297 29.15-22.97l.59-.23c11.31 6.92 27.25 5.26 36.87-4.39l19.79-19.8c4.838-4.866 8.763-14.383 8.763-21.243 0-4.648-1.955-11.644-4.363-15.617.06-.167.172-.431.25-.59zM209.52 52H226l-1.82 24h-14.6l-3.42 11.39c-1.33 4.391-4.16 11.24-6.32 15.29l-5.649 10.47 11.56 11.63-19.75 17-.41-3.22-8.43-8.43-10.47 5.67c-4.032 2.173-10.864 5.009-15.25 6.33l-11.44 3.4V162l-26-2 1.99-2.54v-11.9l-11.4-3.42c-4.398-1.312-11.244-4.148-15.28-6.33l-10.53-5.69-11.63 11.72L50.22 122l3.18-.37 8.44-8.41-5.62-10.5c-2.179-4.055-5.023-10.923-6.35-15.33L46.44 76H30l2-26 2.56 2h11.88l3.43-11.37c1.329-4.393 4.156-11.247 6.31-15.3l5.69-10.52L50.19 3.17 70-13.78l.31 3.17 8.41 8.49 10.53-5.66c4.047-2.178 10.907-5.018 15.31-6.34L116-17.53V-34l26 2-2 2.55v11.9l11.4 3.43c4.39 1.304 11.222 4.13 15.25 6.31l10.5 5.7 11.65-11.67 17 19.8-3.18.36-8.5 8.43 5.71 10.53c2.166 4.02 4.98 10.833 6.28 15.21zM512 120c30.879-.033 55.967-25.121 56-56 0-30.912-25.088-56-56-56s-56 25.088-56 56 25.088 56 56 56zm0-80c13.248 0 24 10.752 24 24s-10.752 24-24 24-24-10.752-24-24 10.752-24 24-24z"/><glyph glyph-name="border-all" unicode="" d="M432 416c8.832 0 16-7.168 16-16V-16c0-8.832-7.168-16-16-16H16C7.168-32 0-24.832 0-16v416c0 8.832 7.168 16 16 16h416zM32 384V208h176v176H32zM32 0h176v176H32V0zm384 0v176H240V0h176zm0 208v176H240V208h176z"/><glyph glyph-name="border-bottom" unicode="" d="M440 0c4.416 0 8-3.584 8-8v-16c0-4.416-3.584-8-8-8H8c-4.416 0-8 3.584-8 8v16c0 4.416 3.584 8 8 8h432zM216 168c-8.832 0-16 7.168-16 16v16c0 8.832 7.168 16 16 16h16c8.832 0 16-7.168 16-16v-16c0-8.832-7.168-16-16-16h-16zm0-96c-8.832 0-16 7.168-16 16v16c0 8.832 7.168 16 16 16h16c8.832 0 16-7.168 16-16V88c0-8.832-7.168-16-16-16h-16zm-96 96c-8.832 0-16 7.168-16 16v16c0 8.832 7.168 16 16 16h16c8.832 0 16-7.168 16-16v-16c0-8.832-7.168-16-16-16h-16zm0 200c-8.832 0-16 7.168-16 16v16c0 8.832 7.168 16 16 16h16c8.832 0 16-7.168 16-16v-16c0-8.832-7.168-16-16-16h-16zm192-200c-8.832 0-16 7.168-16 16v16c0 8.832 7.168 16 16 16h16c8.832 0 16-7.168 16-16v-16c0-8.832-7.168-16-16-16h-16zm0 200c-8.832 0-16 7.168-16 16v16c0 8.832 7.168 16 16 16h16c8.832 0 16-7.168 16-16v-16c0-8.832-7.168-16-16-16h-16zm-96-104c-8.832 0-16 7.168-16 16v16c0 8.832 7.168 16 16 16h16c8.832 0 16-7.168 16-16v-16c0-8.832-7.168-16-16-16h-16zm0 104c-8.832 0-16 7.168-16 16v16c0 8.832 7.168 16 16 16h16c8.832 0 16-7.168 16-16v-16c0-8.832-7.168-16-16-16h-16zm-200 0c-8.832 0-16 7.168-16 16v16c0 8.832 7.168 16 16 16h16c8.832 0 16-7.168 16-16v-16c0-8.832-7.168-16-16-16H16zm416-56c8.832 0 16-7.168 16-16v-16c0-8.832-7.168-16-16-16h-16c-8.832 0-16 7.168-16 16v16c0 8.832 7.168 16 16 16h16zm0 104c8.832 0 16-7.168 16-16v-16c0-8.832-7.168-16-16-16h-16c-8.832 0-16 7.168-16 16v16c0 8.832 7.168 16 16 16h16zm0-200c8.832 0 16-7.168 16-16v-16c0-8.832-7.168-16-16-16h-16c-8.832 0-16 7.168-16 16v16c0 8.832 7.168 16 16 16h16zm0-96c8.832 0 16-7.168 16-16V88c0-8.832-7.168-16-16-16h-16c-8.832 0-16 7.168-16 16v16c0 8.832 7.168 16 16 16h16zM16 264c-8.832 0-16 7.168-16 16v16c0 8.832 7.168 16 16 16h16c8.832 0 16-7.168 16-16v-16c0-8.832-7.168-16-16-16H16zm0-96c-8.832 0-16 7.168-16 16v16c0 8.832 7.168 16 16 16h16c8.832 0 16-7.168 16-16v-16c0-8.832-7.168-16-16-16H16zm0-96C7.168 72 0 79.168 0 88v16c0 8.832 7.168 16 16 16h16c8.832 0 16-7.168 16-16V88c0-8.832-7.168-16-16-16H16z"/><glyph glyph-name="border-inner" unicode="" d="M439 208c4.416 0 8-3.584 8-8v-16c0-4.416-3.584-8-8-8H239V-24c0-4.416-3.584-8-8-8h-16c-4.416 0-8 3.584-8 8v200H7c-4.416 0-8 3.584-8 8v16c0 4.416 3.584 8 8 8h200v200c0 4.416 3.584 8 8 8h16c4.416 0 8-3.584 8-8V208h200zM15 264c-8.832 0-16 7.168-16 16v16c0 8.832 7.168 16 16 16h16c8.832 0 16-7.168 16-16v-16c0-8.832-7.168-16-16-16H15zM31 16c8.832 0 16-7.168 16-16v-16c0-8.832-7.168-16-16-16H15C6.168-32-1-24.832-1-16V0c0 8.832 7.168 16 16 16h16zM15 368c-8.832 0-16 7.168-16 16v16c0 8.832 7.168 16 16 16h16c8.832 0 16-7.168 16-16v-16c0-8.832-7.168-16-16-16H15zm16-248c8.832 0 16-7.168 16-16V88c0-8.832-7.168-16-16-16H15C6.168 72-1 79.168-1 88v16c0 8.832 7.168 16 16 16h16zm280 248c-8.832 0-16 7.168-16 16v16c0 8.832 7.168 16 16 16h16c8.832 0 16-7.168 16-16v-16c0-8.832-7.168-16-16-16h-16zm-192 0c-8.832 0-16 7.168-16 16v16c0 8.832 7.168 16 16 16h16c8.832 0 16-7.168 16-16v-16c0-8.832-7.168-16-16-16h-16zm312-56c8.832 0 16-7.168 16-16v-16c0-8.832-7.168-16-16-16h-16c-8.832 0-16 7.168-16 16v16c0 8.832 7.168 16 16 16h16zM135 16c8.832 0 16-7.168 16-16v-16c0-8.832-7.168-16-16-16h-16c-8.832 0-16 7.168-16 16V0c0 8.832 7.168 16 16 16h16zm296 400c8.832 0 16-7.168 16-16v-16c0-8.832-7.168-16-16-16h-16c-8.832 0-16 7.168-16 16v16c0 8.832 7.168 16 16 16h16zm0-296c8.832 0 16-7.168 16-16V88c0-8.832-7.168-16-16-16h-16c-8.832 0-16 7.168-16 16v16c0 8.832 7.168 16 16 16h16zM327 16c8.832 0 16-7.168 16-16v-16c0-8.832-7.168-16-16-16h-16c-8.832 0-16 7.168-16 16V0c0 8.832 7.168 16 16 16h16zm104 0c8.832 0 16-7.168 16-16v-16c0-8.832-7.168-16-16-16h-16c-8.832 0-16 7.168-16 16V0c0 8.832 7.168 16 16 16h16z"/><glyph glyph-name="border-left" unicode="" d="M24 416c4.416 0 8-3.584 8-8V-24c0-4.416-3.584-8-8-8H8c-4.416 0-8 3.584-8 8v432c0 4.416 3.584 8 8 8h16zm208 0c8.832 0 16-7.168 16-16v-16c0-8.832-7.168-16-16-16h-16c-8.832 0-16 7.168-16 16v16c0 8.832 7.168 16 16 16h16zm0-296c8.832 0 16-7.168 16-16V88c0-8.832-7.168-16-16-16h-16c-8.832 0-16 7.168-16 16v16c0 8.832 7.168 16 16 16h16zm0 192c8.832 0 16-7.168 16-16v-16c0-8.832-7.168-16-16-16h-16c-8.832 0-16 7.168-16 16v16c0 8.832 7.168 16 16 16h16zm0-96c8.832 0 16-7.168 16-16v-16c0-8.832-7.168-16-16-16h-16c-8.832 0-16 7.168-16 16v16c0 8.832 7.168 16 16 16h16zm-96 200c8.832 0 16-7.168 16-16v-16c0-8.832-7.168-16-16-16h-16c-8.832 0-16 7.168-16 16v16c0 8.832 7.168 16 16 16h16zm0-400c8.832 0 16-7.168 16-16v-16c0-8.832-7.168-16-16-16h-16c-8.832 0-16 7.168-16 16V0c0 8.832 7.168 16 16 16h16zm0 200c8.832 0 16-7.168 16-16v-16c0-8.832-7.168-16-16-16h-16c-8.832 0-16 7.168-16 16v16c0 8.832 7.168 16 16 16h16zm96-200c8.832 0 16-7.168 16-16v-16c0-8.832-7.168-16-16-16h-16c-8.832 0-16 7.168-16 16V0c0 8.832 7.168 16 16 16h16zm200 200c8.832 0 16-7.168 16-16v-16c0-8.832-7.168-16-16-16h-16c-8.832 0-16 7.168-16 16v16c0 8.832 7.168 16 16 16h16zm0 96c8.832 0 16-7.168 16-16v-16c0-8.832-7.168-16-16-16h-16c-8.832 0-16 7.168-16 16v16c0 8.832 7.168 16 16 16h16zm0 104c8.832 0 16-7.168 16-16v-16c0-8.832-7.168-16-16-16h-16c-8.832 0-16 7.168-16 16v16c0 8.832 7.168 16 16 16h16zM328 16c8.832 0 16-7.168 16-16v-16c0-8.832-7.168-16-16-16h-16c-8.832 0-16 7.168-16 16V0c0 8.832 7.168 16 16 16h16zm104 104c8.832 0 16-7.168 16-16V88c0-8.832-7.168-16-16-16h-16c-8.832 0-16 7.168-16 16v16c0 8.832 7.168 16 16 16h16zm0-104c8.832 0 16-7.168 16-16v-16c0-8.832-7.168-16-16-16h-16c-8.832 0-16 7.168-16 16V0c0 8.832 7.168 16 16 16h16zM328 216c8.832 0 16-7.168 16-16v-16c0-8.832-7.168-16-16-16h-16c-8.832 0-16 7.168-16 16v16c0 8.832 7.168 16 16 16h16zm0 200c8.832 0 16-7.168 16-16v-16c0-8.832-7.168-16-16-16h-16c-8.832 0-16 7.168-16 16v16c0 8.832 7.168 16 16 16h16z"/><glyph glyph-name="border-none" unicode="" d="M432 416c8.832 0 16-7.168 16-16v-16c0-8.832-7.168-16-16-16h-16c-8.832 0-16 7.168-16 16v16c0 8.832 7.168 16 16 16h16zm-400 0c8.832 0 16-7.168 16-16v-16c0-8.832-7.168-16-16-16H16c-8.832 0-16 7.168-16 16v16c0 8.832 7.168 16 16 16h16zM432 16c8.832 0 16-7.168 16-16v-16c0-8.832-7.168-16-16-16h-16c-8.832 0-16 7.168-16 16V0c0 8.832 7.168 16 16 16h16zm0 296c8.832 0 16-7.168 16-16v-16c0-8.832-7.168-16-16-16h-16c-8.832 0-16 7.168-16 16v16c0 8.832 7.168 16 16 16h16zm0-192c8.832 0 16-7.168 16-16V88c0-8.832-7.168-16-16-16h-16c-8.832 0-16 7.168-16 16v16c0 8.832 7.168 16 16 16h16zm0 96c8.832 0 16-7.168 16-16v-16c0-8.832-7.168-16-16-16h-16c-8.832 0-16 7.168-16 16v16c0 8.832 7.168 16 16 16h16zm-104 0c8.832 0 16-7.168 16-16v-16c0-8.832-7.168-16-16-16h-16c-8.832 0-16 7.168-16 16v16c0 8.832 7.168 16 16 16h16zM32 312c8.832 0 16-7.168 16-16v-16c0-8.832-7.168-16-16-16H16c-8.832 0-16 7.168-16 16v16c0 8.832 7.168 16 16 16h16zm200 0c8.832 0 16-7.168 16-16v-16c0-8.832-7.168-16-16-16h-16c-8.832 0-16 7.168-16 16v16c0 8.832 7.168 16 16 16h16zm0-192c8.832 0 16-7.168 16-16V88c0-8.832-7.168-16-16-16h-16c-8.832 0-16 7.168-16 16v16c0 8.832 7.168 16 16 16h16zm0 96c8.832 0 16-7.168 16-16v-16c0-8.832-7.168-16-16-16h-16c-8.832 0-16 7.168-16 16v16c0 8.832 7.168 16 16 16h16zM32 120c8.832 0 16-7.168 16-16V88c0-8.832-7.168-16-16-16H16C7.168 72 0 79.168 0 88v16c0 8.832 7.168 16 16 16h16zm0 96c8.832 0 16-7.168 16-16v-16c0-8.832-7.168-16-16-16H16c-8.832 0-16 7.168-16 16v16c0 8.832 7.168 16 16 16h16zm104 0c8.832 0 16-7.168 16-16v-16c0-8.832-7.168-16-16-16h-16c-8.832 0-16 7.168-16 16v16c0 8.832 7.168 16 16 16h16zM32 16c8.832 0 16-7.168 16-16v-16c0-8.832-7.168-16-16-16H16C7.168-32 0-24.832 0-16V0c0 8.832 7.168 16 16 16h16zm104 0c8.832 0 16-7.168 16-16v-16c0-8.832-7.168-16-16-16h-16c-8.832 0-16 7.168-16 16V0c0 8.832 7.168 16 16 16h16zm192 0c8.832 0 16-7.168 16-16v-16c0-8.832-7.168-16-16-16h-16c-8.832 0-16 7.168-16 16V0c0 8.832 7.168 16 16 16h16zm-96 0c8.832 0 16-7.168 16-16v-16c0-8.832-7.168-16-16-16h-16c-8.832 0-16 7.168-16 16V0c0 8.832 7.168 16 16 16h16zm-96 400c8.832 0 16-7.168 16-16v-16c0-8.832-7.168-16-16-16h-16c-8.832 0-16 7.168-16 16v16c0 8.832 7.168 16 16 16h16zm192 0c8.832 0 16-7.168 16-16v-16c0-8.832-7.168-16-16-16h-16c-8.832 0-16 7.168-16 16v16c0 8.832 7.168 16 16 16h16zm-96 0c8.832 0 16-7.168 16-16v-16c0-8.832-7.168-16-16-16h-16c-8.832 0-16 7.168-16 16v16c0 8.832 7.168 16 16 16h16z"/><glyph glyph-name="border-outer" unicode="" d="M216 263c-8.832 0-16 7.168-16 16v16c0 8.832 7.168 16 16 16h16c8.832 0 16-7.168 16-16v-16c0-8.832-7.168-16-16-16h-16zm96-96c-8.832 0-16 7.168-16 16v16c0 8.832 7.168 16 16 16h16c8.832 0 16-7.168 16-16v-16c0-8.832-7.168-16-16-16h-16zm-96 0c-8.832 0-16 7.168-16 16v16c0 8.832 7.168 16 16 16h16c8.832 0 16-7.168 16-16v-16c0-8.832-7.168-16-16-16h-16zm-96 0c-8.832 0-16 7.168-16 16v16c0 8.832 7.168 16 16 16h16c8.832 0 16-7.168 16-16v-16c0-8.832-7.168-16-16-16h-16zm96-96c-8.832 0-16 7.168-16 16v16c0 8.832 7.168 16 16 16h16c8.832 0 16-7.168 16-16V87c0-8.832-7.168-16-16-16h-16zm216 344c8.832 0 16-7.168 16-16V-17c0-8.832-7.168-16-16-16H16C7.168-33 0-25.832 0-17v416c0 8.832 7.168 16 16 16h416zM416-1v384H32V-1h384z"/><glyph glyph-name="border-right" unicode="" d="M440 416c4.416 0 8-3.584 8-8V-24c0-4.416-3.584-8-8-8h-16c-4.416 0-8 3.584-8 8v432c0 4.416 3.584 8 8 8h16zM136 16c8.832 0 16-7.168 16-16v-16c0-8.832-7.168-16-16-16h-16c-8.832 0-16 7.168-16 16V0c0 8.832 7.168 16 16 16h16zM32 416c8.832 0 16-7.168 16-16v-16c0-8.832-7.168-16-16-16H16c-8.832 0-16 7.168-16 16v16c0 8.832 7.168 16 16 16h16zm104 0c8.832 0 16-7.168 16-16v-16c0-8.832-7.168-16-16-16h-16c-8.832 0-16 7.168-16 16v16c0 8.832 7.168 16 16 16h16zm0-200c8.832 0 16-7.168 16-16v-16c0-8.832-7.168-16-16-16h-16c-8.832 0-16 7.168-16 16v16c0 8.832 7.168 16 16 16h16zM32 120c8.832 0 16-7.168 16-16V88c0-8.832-7.168-16-16-16H16C7.168 72 0 79.168 0 88v16c0 8.832 7.168 16 16 16h16zm0-104c8.832 0 16-7.168 16-16v-16c0-8.832-7.168-16-16-16H16C7.168-32 0-24.832 0-16V0c0 8.832 7.168 16 16 16h16zm0 200c8.832 0 16-7.168 16-16v-16c0-8.832-7.168-16-16-16H16c-8.832 0-16 7.168-16 16v16c0 8.832 7.168 16 16 16h16zm0 96c8.832 0 16-7.168 16-16v-16c0-8.832-7.168-16-16-16H16c-8.832 0-16 7.168-16 16v16c0 8.832 7.168 16 16 16h16zm200 0c8.832 0 16-7.168 16-16v-16c0-8.832-7.168-16-16-16h-16c-8.832 0-16 7.168-16 16v16c0 8.832 7.168 16 16 16h16zm96-96c8.832 0 16-7.168 16-16v-16c0-8.832-7.168-16-16-16h-16c-8.832 0-16 7.168-16 16v16c0 8.832 7.168 16 16 16h16zm0 200c8.832 0 16-7.168 16-16v-16c0-8.832-7.168-16-16-16h-16c-8.832 0-16 7.168-16 16v16c0 8.832 7.168 16 16 16h16zm0-400c8.832 0 16-7.168 16-16v-16c0-8.832-7.168-16-16-16h-16c-8.832 0-16 7.168-16 16V0c0 8.832 7.168 16 16 16h16zm-96 400c8.832 0 16-7.168 16-16v-16c0-8.832-7.168-16-16-16h-16c-8.832 0-16 7.168-16 16v16c0 8.832 7.168 16 16 16h16zm0-400c8.832 0 16-7.168 16-16v-16c0-8.832-7.168-16-16-16h-16c-8.832 0-16 7.168-16 16V0c0 8.832 7.168 16 16 16h16zm0 104c8.832 0 16-7.168 16-16V88c0-8.832-7.168-16-16-16h-16c-8.832 0-16 7.168-16 16v16c0 8.832 7.168 16 16 16h16zm0 96c8.832 0 16-7.168 16-16v-16c0-8.832-7.168-16-16-16h-16c-8.832 0-16 7.168-16 16v16c0 8.832 7.168 16 16 16h16z"/><glyph glyph-name="border-style" unicode="" d="M440 416c4.416 0 8-3.584 8-8v-16c0-4.416-3.584-8-8-8H32V-24c0-4.416-3.584-8-8-8H8c-4.416 0-8 3.584-8 8v424c0 8.832 7.168 16 16 16h424zM232 16c8.832 0 16-7.168 16-16v-16c0-8.832-7.168-16-16-16h-16c-8.832 0-16 7.168-16 16V0c0 8.832 7.168 16 16 16h16zm96 0c8.832 0 16-7.168 16-16v-16c0-8.832-7.168-16-16-16h-16c-8.832 0-16 7.168-16 16V0c0 8.832 7.168 16 16 16h16zm-192 0c8.832 0 16-7.168 16-16v-16c0-8.832-7.168-16-16-16h-16c-8.832 0-16 7.168-16 16V0c0 8.832 7.168 16 16 16h16zm296 200c8.832 0 16-7.168 16-16v-16c0-8.832-7.168-16-16-16h-16c-8.832 0-16 7.168-16 16v16c0 8.832 7.168 16 16 16h16zm0 96c8.832 0 16-7.168 16-16v-16c0-8.832-7.168-16-16-16h-16c-8.832 0-16 7.168-16 16v16c0 8.832 7.168 16 16 16h16zm0-296c8.832 0 16-7.168 16-16v-16c0-8.832-7.168-16-16-16h-16c-8.832 0-16 7.168-16 16V0c0 8.832 7.168 16 16 16h16zm0 104c8.832 0 16-7.168 16-16V88c0-8.832-7.168-16-16-16h-16c-8.832 0-16 7.168-16 16v16c0 8.832 7.168 16 16 16h16z"/><glyph glyph-name="border-style-alt" unicode="" d="M439 416c4.416 0 8-3.584 8-8V-16c0-8.832-7.168-16-16-16H7c-4.416 0-8 3.584-8 8v16c0 4.416 3.584 8 8 8h408v408c0 4.416 3.584 8 8 8h16zM15 368c-8.832 0-16 7.168-16 16v16c0 8.832 7.168 16 16 16h16c8.832 0 16-7.168 16-16v-16c0-8.832-7.168-16-16-16H15zm200 0c-8.832 0-16 7.168-16 16v16c0 8.832 7.168 16 16 16h16c8.832 0 16-7.168 16-16v-16c0-8.832-7.168-16-16-16h-16zm96 0c-8.832 0-16 7.168-16 16v16c0 8.832 7.168 16 16 16h16c8.832 0 16-7.168 16-16v-16c0-8.832-7.168-16-16-16h-16zm-192 0c-8.832 0-16 7.168-16 16v16c0 8.832 7.168 16 16 16h16c8.832 0 16-7.168 16-16v-16c0-8.832-7.168-16-16-16h-16zM15 72C6.168 72-1 79.168-1 88v16c0 8.832 7.168 16 16 16h16c8.832 0 16-7.168 16-16V88c0-8.832-7.168-16-16-16H15zm0 96c-8.832 0-16 7.168-16 16v16c0 8.832 7.168 16 16 16h16c8.832 0 16-7.168 16-16v-16c0-8.832-7.168-16-16-16H15zm0 96c-8.832 0-16 7.168-16 16v16c0 8.832 7.168 16 16 16h16c8.832 0 16-7.168 16-16v-16c0-8.832-7.168-16-16-16H15z"/><glyph glyph-name="border-top" unicode="" d="M440 416c4.416 0 8-3.584 8-8v-16c0-4.416-3.584-8-8-8H8c-4.416 0-8 3.584-8 8v16c0 4.416 3.584 8 8 8h432zM32 312c8.832 0 16-7.168 16-16v-16c0-8.832-7.168-16-16-16H16c-8.832 0-16 7.168-16 16v16c0 8.832 7.168 16 16 16h16zm200-192c8.832 0 16-7.168 16-16V88c0-8.832-7.168-16-16-16h-16c-8.832 0-16 7.168-16 16v16c0 8.832 7.168 16 16 16h16zm0-104c8.832 0 16-7.168 16-16v-16c0-8.832-7.168-16-16-16h-16c-8.832 0-16 7.168-16 16V0c0 8.832 7.168 16 16 16h16zm-96 200c8.832 0 16-7.168 16-16v-16c0-8.832-7.168-16-16-16h-16c-8.832 0-16 7.168-16 16v16c0 8.832 7.168 16 16 16h16zm-104 0c8.832 0 16-7.168 16-16v-16c0-8.832-7.168-16-16-16H16c-8.832 0-16 7.168-16 16v16c0 8.832 7.168 16 16 16h16zm0-200c8.832 0 16-7.168 16-16v-16c0-8.832-7.168-16-16-16H16C7.168-32 0-24.832 0-16V0c0 8.832 7.168 16 16 16h16zm0 104c8.832 0 16-7.168 16-16V88c0-8.832-7.168-16-16-16H16C7.168 72 0 79.168 0 88v16c0 8.832 7.168 16 16 16h16zM136 16c8.832 0 16-7.168 16-16v-16c0-8.832-7.168-16-16-16h-16c-8.832 0-16 7.168-16 16V0c0 8.832 7.168 16 16 16h16zm296 0c8.832 0 16-7.168 16-16v-16c0-8.832-7.168-16-16-16h-16c-8.832 0-16 7.168-16 16V0c0 8.832 7.168 16 16 16h16zm0 200c8.832 0 16-7.168 16-16v-16c0-8.832-7.168-16-16-16h-16c-8.832 0-16 7.168-16 16v16c0 8.832 7.168 16 16 16h16zm0-96c8.832 0 16-7.168 16-16V88c0-8.832-7.168-16-16-16h-16c-8.832 0-16 7.168-16 16v16c0 8.832 7.168 16 16 16h16zm0 192c8.832 0 16-7.168 16-16v-16c0-8.832-7.168-16-16-16h-16c-8.832 0-16 7.168-16 16v16c0 8.832 7.168 16 16 16h16zm-104-96c8.832 0 16-7.168 16-16v-16c0-8.832-7.168-16-16-16h-16c-8.832 0-16 7.168-16 16v16c0 8.832 7.168 16 16 16h16zm-96 0c8.832 0 16-7.168 16-16v-16c0-8.832-7.168-16-16-16h-16c-8.832 0-16 7.168-16 16v16c0 8.832 7.168 16 16 16h16zm0 96c8.832 0 16-7.168 16-16v-16c0-8.832-7.168-16-16-16h-16c-8.832 0-16 7.168-16 16v16c0 8.832 7.168 16 16 16h16zm96-296c8.832 0 16-7.168 16-16v-16c0-8.832-7.168-16-16-16h-16c-8.832 0-16 7.168-16 16V0c0 8.832 7.168 16 16 16h16z"/><glyph glyph-name="bring-forward" unicode="" horiz-adv-x="512" d="M352 144c0-26.496-21.504-48-48-48H48c-26.496 0-48 21.504-48 48v256c0 26.496 21.504 48 48 48h256c26.496 0 48-21.504 48-48V144zm-320 0c0-8.832 7.168-16 16-16h256c8.832 0 16 7.168 16 16v256c0 8.832-7.168 16-16 16H48c-8.832 0-16-7.168-16-16V144zm432 144c26.496 0 48-21.504 48-48V-16c0-26.496-21.504-48-48-48H208c-26.496 0-48 21.504-48 48v80h32v-80c0-8.832 7.168-16 16-16h256c8.832 0 16 7.168 16 16v256c0 8.832-7.168 16-16 16h-80v32h80zM416 32v160h-32v32h48c8.832 0 16-7.168 16-16V16c0-8.832-7.168-16-16-16H240c-8.832 0-16 7.168-16 16v48h32V32h160z"/><glyph glyph-name="bring-front" unicode="" horiz-adv-x="640" d="M32 240c0-8.832 7.168-16 16-16h80v-32H48c-26.496 0-48 21.504-48 48v160c0 26.496 21.504 48 48 48h160c26.496 0 48-21.504 48-48v-16h-32v16c0 8.832-7.168 16-16 16H48c-8.832 0-16-7.168-16-16V240zM480 80c0-26.496-21.504-48-48-48H208c-26.496 0-48 21.504-48 48v224c0 26.496 21.504 48 48 48h224c26.496 0 48-21.504 48-48V80zm-288 0c0-8.832 7.168-16 16-16h224c8.832 0 16 7.168 16 16v224c0 8.832-7.168 16-16 16H208c-8.832 0-16-7.168-16-16V80zm400 112c26.496 0 48-21.504 48-48V-16c0-26.496-21.504-48-48-48H432c-26.496 0-48 21.504-48 48V0h32v-16c0-8.832 7.168-16 16-16h160c8.832 0 16 7.168 16 16v160c0 8.832-7.168 16-16 16h-80v32h80zM464 0c-3.009.057-7.337 1.656-9.66 3.57C468.32 7.65 486.8 20.388 495.59 32H544v64h-32v32h48c8.832 0 16-7.168 16-16V16c0-8.832-7.168-16-16-16h-96zM176 384c3.009-.057 7.337-1.656 9.66-3.57-13.98-4.08-32.46-16.818-41.25-28.43H96v-64h32v-32H80c-8.832 0-16 7.168-16 16v96c0 8.832 7.168 16 16 16h96z"/><glyph glyph-name="burger-soda" unicode="" horiz-adv-x="640" d="M640 72c-.046-11.415-6.175-27.66-13.68-36.26C633.858 28.602 639.987 14.382 640 4c-.044-37.492-30.508-67.956-68-68H324c-37.492.044-67.956 30.508-68 68 .018 10.385 6.155 24.605 13.7 31.74-7.55 8.612-13.678 24.898-13.678 36.35 0 13.647 8.269 32.092 18.459 41.17-10.27 9.619-18.602 28.844-18.602 42.913 0 10.552 5.036 26.042 11.241 34.577C302 240 373 271.94 448 272c75-.06 146-32 180.91-81.25 6.201-8.534 11.234-24.022 11.234-34.57 0-14.072-8.334-33.3-18.604-42.92C631.696 104.137 639.966 85.652 640 72zM293.22 172.27C280 153.62 293.39 128 316.43 128h263.141c23.05 0 36.43 25.61 23.22 44.27C576 210.13 517 240.06 448 240s-128-29.87-154.78-67.73zM572-32c19.872 0 36 16.128 36 36 0 6.624-5.376 12-12 12H300c-6.624 0-12-5.376-12-12 0-19.872 16.128-36 36-36h248zm12 80c13.248 0 24 10.752 24 24s-10.752 24-24 24H312c-13.248 0-24-10.752-24-24s10.752-24 24-24h272zM448 176c-8.832 0-16 7.168-16 16s7.168 16 16 16 16-7.168 16-16-7.168-16-16-16zm80-16c-8.832 0-16 7.168-16 16s7.168 16 16 16 16-7.168 16-16-7.168-16-16-16zm-160 0c-8.832 0-16 7.168-16 16s7.168 16 16 16 16-7.168 16-16-7.168-16-16-16zM95.89-31.11l135.04-.75c3.851-9.95 12.892-24.348 20.18-32.14H96l-.194-.001c-16.438 0-30.688 13.31-31.806 29.71L32 286.32V288H8c-4.416 0-8 3.585-8 8v16c0 4.417 3.584 8 8 8h171.5l25.94 103.75c3.341 13.386 17.25 24.25 31.048 24.25H280c4.416 0 8-3.583 8-8v-16c0-4.415-3.584-8-8-8h-43.5l-24-96H344c4.416 0 8-3.583 8-8v-16c0-4.415-3.584-8-8-8H63.89z"/><glyph glyph-name="car-building" unicode="" horiz-adv-x="640" d="M595.4 153.56c24.57-10.816 44.55-41.384 44.6-68.23V30.22c-.069-18.485-14.405-38.085-32-43.75V-48c0-8.832-7.168-16-16-16h-16c-8.832 0-16 7.168-16 16v32H304v-32c0-8.832-7.168-16-16-16h-16c-8.832 0-16 7.168-16 16v34.47c-17.596 5.665-31.932 25.265-32 43.75v55.11c0 29.18 17 54.23 41.43 66.51l16.28 70.55c6.21 27.386 34.042 49.61 62.122 49.61H517.39c28.08 0 55.915-22.224 62.13-49.61zM312.89 215.2L300.15 160h260.92l-12.73 55.2c-3.16 13.69-17.13 24.8-31.18 24.8H344.07c-14.05 0-28.02-11.11-31.18-24.8zM608 30.22v55.11c-.027 23.526-19.144 42.643-42.67 42.67H298.67c-23.526-.027-42.643-19.144-42.67-42.67V30.22c.01-7.838 6.382-14.21 14.22-14.22h323.56c7.839.01 14.21 6.382 14.22 14.22zM320 400c0 8.832-7.168 16-16 16H48c-8.832 0-16-7.168-16-16V8c0-4.416-3.584-8-8-8H8C3.584 0 0 3.584 0 8v392c0 26.496 21.504 48 48 48h256c26.496 0 48-21.504 48-48v-96h-32v96zm-116-48h40c6.624 0 12-5.376 12-12v-40c0-6.624-5.376-12-12-12h-40c-6.624 0-12 5.376-12 12v40c0 6.624 5.376 12 12 12zm-56-96c6.624 0 12-5.376 12-12v-40c0-6.624-5.376-12-12-12h-40c-6.624 0-12 5.376-12 12v40c0 6.624 5.376 12 12 12h40zm0-96c6.624 0 12-5.376 12-12v-40c0-6.624-5.376-12-12-12h-40c-6.624 0-12 5.376-12 12v40c0 6.624 5.376 12 12 12h40zm160-64c11.04 0 20-8.96 20-20s-8.96-20-20-20-20 8.96-20 20 8.96 20 20 20zm248 0c11.04 0 20-8.96 20-20s-8.96-20-20-20-20 8.96-20 20 8.96 20 20 20zM148 352c6.624 0 12-5.376 12-12v-40c0-6.624-5.376-12-12-12h-40c-6.624 0-12 5.376-12 12v40c0 6.624 5.376 12 12 12h40zm102.53-122.42L241.85 192H204c-6.624 0-12 5.376-12 12v40c0 6.624 5.376 12 12 12h40c5.776-.043 11.012-4.733 11.69-10.47-1.807-4.278-4.119-11.424-5.16-15.95z"/><glyph glyph-name="car-bus" unicode="" horiz-adv-x="640" d="M64 148c0 11.04 8.96 20 20 20s20-8.96 20-20-8.96-20-20-20-20 8.96-20 20zM32 98.91A2.911 2.911 0 0 1 34.91 96h158.38c-.36-3.58-1.29-7.01-1.29-10.67V64H80V16c0-8.832-7.168-16-16-16H48c-8.832 0-16 7.168-16 16v48h2.91C15.64 64 0 79.64 0 98.91v278.86C0 417.09 85 448 192 448s192-30.91 192-70.23V304h-32v16H208v-96h41.24l-7.39-32H31.93zM176 224v96H32v-96h144zM31.8 376.45l.02-24.45H352v25.77c-4.41 9.94-58.84 38.23-160 38.23S36.41 387.71 31.8 376.45zm563.6-222.89c24.57-10.816 44.55-41.384 44.6-68.23V30.22c-.069-18.485-14.405-38.085-32-43.75V-48c0-8.832-7.168-16-16-16h-16c-8.832 0-16 7.168-16 16v32H304v-32c0-8.832-7.168-16-16-16h-16c-8.832 0-16 7.168-16 16v34.47c-17.596 5.665-31.932 25.265-32 43.75v55.11c0 29.18 17 54.23 41.43 66.51l16.28 70.55c6.21 27.386 34.042 49.61 62.122 49.61H517.39c28.08 0 55.915-22.224 62.13-49.61zm-282.51 61.63L300.15 160h260.92l-12.73 55.19c-3.157 13.694-17.126 24.809-31.18 24.81H344.07c-14.053-.001-28.022-11.116-31.18-24.81zM608 30.22v55.11c-.027 23.526-19.144 42.643-42.67 42.67H298.67c-23.526-.027-42.643-19.144-42.67-42.67V30.22c.01-7.838 6.382-14.21 14.22-14.22h323.56c7.839.01 14.21 6.382 14.22 14.22zM308 96c11.04 0 20-8.96 20-20s-8.96-20-20-20-20 8.96-20 20 8.96 20 20 20zm248 0c11.04 0 20-8.96 20-20s-8.96-20-20-20-20 8.96-20 20 8.96 20 20 20z"/><glyph glyph-name="cars" unicode="" horiz-adv-x="640" d="M241.85 192l-4.56-19.79c-5.07-3.56-9.33-7.92-13.64-12.21H80v-32c0-8.832-7.167-16-16-16H48c-8.831 0-16 7.168-16 16v34.47C14.406 168.135.07 187.734 0 206.22v55.11c0 29.18 17 54.23 41.43 66.51l16.28 70.55C63.923 425.775 91.754 448 119.834 448H293.39c28.08 0 55.916-22.225 62.13-49.61l15.88-68.83c10.452-4.706 24.254-16.157 30.81-25.56h-58.14c-.66 0-1.28-.16-1.93-.16-.28 0-.52.16-.81.16H74.671c-23.526-.027-42.642-19.144-42.67-42.67v-55.11c.011-7.838 6.382-14.21 14.22-14.22h195.63zM88.89 391.19L76.15 336h260.92l-12.73 55.19c-3.157 13.694-17.126 24.809-31.18 24.81H120.07c-14.054-.001-28.022-11.116-31.18-24.81zM64 252c0 11.04 8.96 20 20 20s20-8.96 20-20-8.96-20-20-20-20 8.96-20 20zM308 96c11.04 0 20-8.96 20-20s-8.96-20-20-20-20 8.96-20 20 8.96 20 20 20zm248 0c11.04 0 20-8.96 20-20s-8.96-20-20-20-20 8.96-20 20 8.96 20 20 20zm39.4 57.56c24.57-10.816 44.55-41.384 44.6-68.23V30.22c-.069-18.485-14.405-38.085-32-43.75V-48c0-8.832-7.168-16-16-16h-16c-8.832 0-16 7.168-16 16v32H304v-32c0-8.832-7.168-16-16-16h-16c-8.832 0-16 7.168-16 16v34.47c-17.596 5.665-31.932 25.265-32 43.75v55.11c0 29.18 17 54.23 41.43 66.51l16.28 70.55c6.21 27.386 34.042 49.61 62.122 49.61H517.39c28.08 0 55.915-22.224 62.13-49.61zm-282.51 61.63L300.15 160h260.92l-12.73 55.19c-3.157 13.694-17.126 24.809-31.18 24.81H344.07c-14.053-.001-28.022-11.116-31.18-24.81zM608 30.22v55.11c-.027 23.526-19.144 42.643-42.67 42.67H298.67c-23.526-.027-42.643-19.144-42.67-42.67V30.22c.01-7.838 6.382-14.21 14.22-14.22h323.56c7.839.01 14.21 6.382 14.22 14.22z"/><glyph glyph-name="coin" unicode="" horiz-adv-x="512" d="M256 384c141.33 0 256-64.44 256-144V128C512 57.28 397.33 0 256 0S0 57.28 0 128v112c0 79.56 114.67 144 256 144zM64 81.39V145c-9.614 6.006-23.95 17.358-32 25.34V128c0-15.68 11.69-32 32-46.61zm80-35.32v64.62c-13.614 3.659-35.118 11.275-48 17V63c12.858-5.777 34.362-13.362 48-16.93zm96-13.68v64.35c-17.796.514-46.468 3.439-64 6.53V39c17.533-3.09 46.205-6.052 64-6.61zM336 39v64.27c-17.532-3.091-46.204-6.016-64-6.53V32.36c17.795.567 46.468 3.541 64 6.64zm80 24v64.7c-12.882-5.725-34.386-13.342-48-17V46.1c13.637 3.56 35.14 11.131 48 16.9zm64 65v42.37c-8.049-7.99-22.385-19.356-32-25.37V81.39C468.31 96 480 112.32 480 128zm-224 0c132 0 224 59 224 112s-92 112-224 112S32 293 32 240s92-112 224-112z"/><glyph glyph-name="construction" unicode="" horiz-adv-x="640" d="M289.38 76c8.076-5.22 14.63-17.26 14.63-26.875V16.21c0-8.832-7.168-16-16-16s-16 7.168-16 16v32.85l-46.31 30L207.45 12C205.7 5.498 198.814.193 192.08.16h-.057c-1.17 0-3.035.251-4.163.56-6.516 1.77-11.804 8.688-11.804 15.44 0 1.194.257 3.099.574 4.25l29.75 109.4zM308 232.78c-15.456 0-28 12.544-28 28v.08c0 15.5 12.58 28.08 28.08 28.08s28.08-12.58 28.08-28.08c0-15.5-12.58-28.08-28.08-28.08H308zm168.87-117.17L535 24.88c1.424-2.194 2.579-6.096 2.579-8.71 0-8.832-7.168-16-16-16H336l14.79 42.41c2.543 6.923 10.592 12.54 17.967 12.54h21.563l-70.65 43.6a.715.715 0 0 0-.11.06l-103.94 64.14c-4.195 2.601-7.6 8.72-7.6 13.657 0 2.949 1.434 7.26 3.2 9.623l11.6 15.53c7.927 10.608 25.107 19.241 38.35 19.27 2.92-.001 7.602-.526 10.45-1.17l24.571-7.3c17.45-3.84 31.84-18.58 35.56-37.24l10.55-52.87 79.45-49 28.34 42.44c1.267 1.912 3.954 4.31 6 5.35 2.016.49 5.29 1.279 7.31 1.76h.07c1.434-.119 3.674-.67 5-1.23 3.234-.437 6.997-3.183 8.4-6.13zm-229.53 65.46l57.75-35.61-4.72 23.62c-1.14 5.92-5.79 11.04-11 12.19l-1.13.25-1.11.33-23.3 6.92c-.714.127-1.88.23-2.605.23h-.055c-4.405-.03-10.113-2.923-12.74-6.46zM432.79 32.25h59.46l-29.08 45.44-27-40.37zM632.3 9.51c4.249-6.423 7.698-17.887 7.698-25.59 0-6.585-2.58-16.611-5.758-22.38-7.714-14.099-27.02-25.541-43.09-25.541H48.834c-16.058 0-35.355 11.429-43.074 25.51-3.182 5.773-5.766 15.807-5.766 22.4 0 7.705 3.453 19.175 7.707 25.6l270.87 417.58c18.06 27.91 64.8 27.91 82.86 0zm-26.18-32.67c1.006 1.82 1.823 4.983 1.823 7.062 0 2.44-1.1 6.069-2.453 8.098L334.62 409.6c-2.927 4.23-9.476 7.662-14.62 7.662s-11.693-3.433-14.62-7.662L34.51-8c-1.354-2.03-2.453-5.657-2.453-8.098 0-2.079.817-5.243 1.823-7.062 2.68-4.838 9.342-8.764 14.872-8.764.105 0 .274.002.378.004h541.74c.105-.002.274-.004.378-.004 5.53 0 12.192 3.926 14.872 8.764z"/><glyph glyph-name="digging" unicode="" horiz-adv-x="576" d="M208-16v122.13l32-16.76V-16c0-26.496-21.504-48-48-48s-48 21.504-48 48V98.34l-.49.24-50.69-131.8C86.29-50.21 66.218-64 48.016-64H48c-4.915.007-12.621 1.463-17.2 3.25C13.807-54.22.015-34.147.015-15.943.015-11.035 1.442-3.332 3.2 1.25l67.92 176.59 28.54-14.95L33.07-10.25C32.48-11.782 32-14.357 32-16c0-6.062 4.593-12.751 10.25-14.93 1.533-.585 4.11-1.064 5.75-1.07h.065C54.133-32 60.823-27.403 63-21.74l65.25 169.63 47.75-25V-16c0-8.832 7.168-16 16-16s16 7.168 16 16zm103.06 48H352l13.74 23.46-296.88 153a57.187 57.187 0 0 0-5.236-.29c-9.465 0-23.054 4.91-30.334 10.96-9.54 7.945-17.283 24.47-17.283 36.885 0 9.59 4.983 23.356 11.123 30.725l40 48c7.944 9.528 24.46 17.26 36.865 17.26h72.735c5.611-.04 14.67-.738 20.22-1.56-2.666 6.803-4.865 18.253-4.91 25.56 0 39.744 32.256 72 72 72s72-32.256 72-72c0-33.13-22.55-60.73-53-69.13 21.6-23.69 33.92-57.88 56.65-122.69 7-20.029 15.31-43.699 25.47-71.84 1.411-4.085 2.556-10.909 2.556-15.23 0-1.787-.2-4.67-.446-6.44L382 83.072l36 61.4c5.145 8.58 17.44 15.545 27.445 15.545 10.92 0 23.744-7.927 28.625-17.695L576-63.999H256l24.71 74.12c4.026 12.074 17.623 21.877 30.35 21.88zM264 416c-22.08 0-40-17.92-40-40s17.92-40 40-40 40 17.92 40 40-17.92 40-40 40zm-58.81-241.77l44.23-22.81c-.11.31-.24.69-.35 1-7.14 20.35-12.67 35.91-17.23 48.18zM290.88 130l41.61-21.41c-8.98 24.94-16.63 46.72-23.05 65-33.38 95.31-39.97 114.04-83.32 135.24-15.72 7.69-33.16 11.17-50.65 11.17h-64.364c-8.333 0-19.397-5.22-24.696-11.65l-34.68-42.09c-2.096-2.472-3.796-7.108-3.796-10.348 0-8.832 7.168-16 16-16 4.176 0 9.717 2.62 12.366 5.847L111.5 288h55.95l-62.22-62.21 74.63-38.49 64.55 64.53c8.93-15.52 18.06-40.98 34.85-88.83 3.44-9.88 7.4-21.099 11.62-33zM370.33 0h-59.26l-10.66-32H524.5l-79.07 160h-.12L379.6 15.81z"/><glyph glyph-name="drone" unicode="" horiz-adv-x="512" d="M302.87 320h-13.26c-.765 4.384-1.486 11.552-1.61 16v.262c0 61.685 50.063 111.75 111.75 111.75 61.685 0 111.75-50.065 111.75-111.75s-50.065-111.75-111.75-111.75c-4.375 0-11.44.5-15.77 1.118v13.26c0 6.68 2.56 12.75 6.35 18.11 2.646-.44 6.97-.889 9.65-1 44.16 0 80 35.84 80 80s-35.84 80-80 80-80-35.84-80-80c.112-2.68.56-7.004 1-9.65-5.36-3.78-11.43-6.35-18.11-6.35zm67.88-35.88c-10.348-10.346-18.748-30.618-18.75-45.25v-93.74c.002-14.632 8.402-34.905 18.75-45.25l21.45-21.45c2.56.66 5.03 1.57 7.8 1.57 17.664 0 32-14.336 32-32s-14.336-32-32-32-32 14.336-32 32c0 2.8.91 5.24 1.57 7.8l-21.45 21.46C337.773 87.604 317.501 96 302.87 96h-93.74c-14.631 0-34.903-8.396-45.25-18.74L142.43 55.8c.66-2.56 1.57-5.03 1.57-7.8 0-17.664-14.336-32-32-32S80 30.336 80 48s14.336 32 32 32c2.8 0 5.24-.91 7.8-1.57l21.45 21.45c10.348 10.345 18.748 30.618 18.75 45.25v93.74c-.002 14.632-8.402 34.904-18.75 45.25l-21.45 21.45c-2.56-.66-5.03-1.57-7.8-1.57-17.664 0-32 14.336-32 32s14.336 32 32 32 32-14.336 32-32c0-2.8-.91-5.24-1.57-7.8l21.45-21.45c10.346-10.348 30.618-18.748 45.25-18.75h93.74c14.632.002 34.904 8.402 45.25 18.75l21.45 21.45c-.66 2.56-1.57 5.03-1.57 7.8 0 17.664 14.336 32 32 32s32-14.336 32-32-14.336-32-32-32c-2.8 0-5.24.91-7.8 1.57zM320 128v128H192V128h128zm-208 96C50.176 224 0 274.176 0 336s50.176 112 112 112 112-50.176 112-112c-.128-4.454-.858-11.63-1.63-16.02h-13.26c-6.68 0-12.75 2.57-18.11 6.35.44 2.647.888 6.97 1 9.65 0 44.16-35.84 80-80 80s-80-35.84-80-80 35.84-80 80-80c2.68.112 7.004.56 9.65 1 3.78-5.36 6.35-11.43 6.35-18.11v-13.26c-4.384-.765-11.552-1.486-16-1.61zm97.13-160h13.26c.919-5.355 1.665-14.112 1.665-19.546 0-63.81-51.79-115.6-115.601-115.6-63.81 0-115.6 51.79-115.6 115.6 0 63.812 51.789 115.601 115.6 115.601.98 0 2.567-.024 3.546-.055 4.454-.123 11.63-.843 16.02-1.61v-13.28c0-6.68-2.56-12.76-6.35-18.11-2.647.44-6.97.888-9.65 1-44.16 0-80-35.84-80-80s35.84-80 80-80 80 35.84 80 80c-.112 2.684-.56 7.011-1 9.66 5.36 3.78 11.43 6.34 18.11 6.34zM400 160h.242c61.686 0 111.75-50.063 111.75-111.75 0-61.685-50.064-111.75-111.75-111.75s-111.75 50.065-111.75 111.75c0 4.375.501 11.44 1.118 15.77h13.28c6.68 0 12.75-2.57 18.11-6.35-.44-2.647-.889-6.97-1-9.65 0-44.16 35.84-80 80-80s80 35.84 80 80-35.84 80-80 80c-2.68-.112-7.004-.56-9.65-1-3.78 5.36-6.35 11.43-6.35 18.11v13.26c4.384.765 11.552 1.486 16 1.61z"/><glyph glyph-name="drone-alt" unicode="" horiz-adv-x="640" d="M624.21 320.07c8.688 0 15.79-7.052 15.79-15.74 0-8.661-7.03-15.713-15.69-15.74L512 288.36V160c0-8.832-7.168-16-16-16h-53.58c23.239-23.861 46.643-69.875 52.24-102.71.05-.335.092-.882.092-1.22a8.073 8.073 0 0 0-8.07-8.07H470.28c-3.654.022-7.121 2.96-7.74 6.56-6.106 32.622-32.09 75.93-58 96.67l-28.29-25.7C367.952 102.06 352.156 96 340.992 96h-41.984c-11.177 0-26.992 6.07-35.298 13.55l-27.84 25.3c-25.666-20.725-51.412-63.863-57.47-96.29-.616-3.599-4.079-6.538-7.73-6.56h-16.391c-4.46 0-8.08 3.62-8.08 8.08 0 .336.04.878.09 1.21 5.594 32.832 28.988 78.847 52.22 102.71H144c-8.831 0-16 7.168-16 16v128.3l-112.2-.23a16.78 16.78 0 0 0-.443-.006c-8.694 0-15.75 7.057-15.75 15.75 0 8.694 7.056 15.75 15.75 15.75.095 0 .25-.001.344-.004l112.3.23V336c0 8.832 7.168 16 16 16s16-7.168 16-16v-16.15l112.34.22h.05c8.688 0 15.74-7.051 15.74-15.74 0-8.66-7.03-15.712-15.69-15.74L160 288.36v-67.45l95.09 25.93c17.595 4.79 46.675 8.678 64.91 8.678s47.316-3.888 64.91-8.678L480 220.91v67.39l-112.21-.23a16.486 16.486 0 0 0-.439-.006c-8.694 0-15.75 7.057-15.75 15.75 0 8.694 7.056 15.75 15.75 15.75.097 0 .253-.001.35-.004l112.3.23V336c0 8.833 7.168 16 16 16s16-7.167 16-16v-16.15zM480 176v11.73L376.47 216c-15.308 4.165-40.605 7.545-56.47 7.545s-41.162-3.38-56.47-7.545L160 187.73V176h72c3.41-.003 8.227-1.866 10.75-4.16l42.5-38.62c3.31-2.882 9.556-5.221 13.944-5.221l.187.001h41.24l.198-.001c4.374 0 10.602 2.33 13.901 5.201l42.53 38.64c2.524 2.294 7.34 4.157 10.75 4.16h72z"/><glyph glyph-name="dryer" unicode="" d="M384 449c35.328 0 64-28.672 64-64V-31c0-17.664-14.336-32-32-32H32C14.336-63 0-48.664 0-31v416c0 35.328 28.672 64 64 64h320zm32-480v416c0 17.664-14.336 32-32 32H64c-17.664 0-32-14.336-32-32V-31h384zM80 353c-8.832 0-16 7.168-16 16s7.168 16 16 16 16-7.168 16-16-7.168-16-16-16zm64 0c-8.832 0-16 7.168-16 16s7.168 16 16 16 16-7.168 16-16-7.168-16-16-16zm80-32c88.32 0 160-71.68 160-160S312.32 1 224 1 64 72.68 64 161s71.68 160 160 160zm0-288c70.58.077 127.923 57.42 128 128 0 70.656-57.344 128-128 128S96 231.656 96 161 153.344 33 224 33zm-7.11 156.42c0-20.13-10.63-30.75-18.39-38.55-6.97-6.97-10.05-10.43-10.05-18.4 0-7.97 3.05-11.36 10.05-18.36 6.59-6.58 15.25-15.24 17.71-30 .058-.335.104-.881.104-1.22 0-3.96-3.214-7.208-7.174-7.25h-14.5c-3.03.036-6.09 2.45-6.83 5.39-1.21 4.61-4.25 7.82-9.42 13-7.77 7.75-18.39 18.35-18.39 38.47s10.62 30.75 18.39 38.5c6.97 7 10.06 10.46 10.06 18.46s-3.06 11.4-10.06 18.4c-6.6 6.55-15.26 15.21-17.71 30a8.743 8.743 0 0 0-.103 1.22c0 3.955 3.21 7.203 7.164 7.25h14.51c3.035-.035 6.09-2.454 6.82-5.4 1.22-4.6 4.25-7.82 9.43-13 7.76-7.76 18.389-18.39 18.389-38.51zm71.11 0c0-20.13-10.62-30.75-18.39-38.58-6.97-6.97-10.06-10.43-10.06-18.4 0-7.97 3.06-11.36 10.06-18.36 6.59-6.58 15.25-15.24 17.71-30a8.81 8.81 0 0 0 .104-1.22c0-3.955-3.21-7.203-7.164-7.25h-14.51c-3.031.034-6.087 2.449-6.82 5.39-1.22 4.61-4.26 7.82-9.43 13-7.76 7.78-18.39 18.37-18.39 38.49s10.63 30.75 18.39 38.51c6.97 7 10.05 10.46 10.05 18.46s-3.05 11.4-10.05 18.4c-6.59 6.55-15.25 15.21-17.71 30a8.594 8.594 0 0 0-.103 1.22c0 3.955 3.209 7.203 7.163 7.25h14.51c3.035-.035 6.09-2.454 6.82-5.4 1.22-4.6 4.25-7.82 9.43-13 7.77-7.76 18.39-18.39 18.39-38.51z"/><glyph glyph-name="dryer-alt" unicode="" d="M384 449c35.328 0 64-28.672 64-64V-31c0-17.664-14.336-32-32-32H32C14.336-63 0-48.664 0-31v416c0 35.328 28.672 64 64 64h320zm32-480v416c0 17.664-14.336 32-32 32H64c-17.664 0-32-14.336-32-32V-31h384zM80 353c-8.832 0-16 7.168-16 16s7.168 16 16 16 16-7.168 16-16-7.168-16-16-16zm64 0c-8.832 0-16 7.168-16 16s7.168 16 16 16 16-7.168 16-16-7.168-16-16-16zm80-32c88.32 0 160-71.68 160-160S312.32 1 224 1 64 72.68 64 161s71.68 160 160 160zm0-288c70.58.077 127.923 57.42 128 128 0 70.656-57.344 128-128 128S96 231.656 96 161 153.344 33 224 33zm0 224c52.992 0 96-43.008 96-96s-43.008-96-96-96-96 43.008-96 96 43.008 96 96 96zm0-160h.108c35.273 0 63.9 28.627 63.9 63.9 0 35.273-28.627 63.9-63.9 63.9-27.264 0-54.968-21.414-61.839-47.8H200c4.416 0 8-3.584 8-8v-16c0-4.416-3.584-8-8-8h-37.73c6.815-26.395 34.47-47.898 61.73-48z"/><glyph glyph-name="fan" unicode="" horiz-adv-x="512" d="M346.54 328c83.71 0 154.74-63 165.19-146.49.139-1.1.252-2.892.252-4.001 0-6.62-3.549-16.028-7.923-20.999-5.094-5.783-15.482-10.491-23.19-10.51l-2.33.08-.8.08L386 155.4c3.313-14.476 6.001-38.277 6.001-53.126v-.804c0-83.72-63-154.75-146.5-165.22a38.415 38.415 0 0 0-3.978-.25c-7.764 0-18.302 4.664-23.523 10.41-4.414 4.876-7.996 14.172-7.996 20.75 0 .857.07 2.246.157 3.1L219.4 62c-14.475-3.313-38.274-6.001-53.123-6.001h-.818C81.75 56 10.72 119 .25 202.48a38.2 38.2 0 0 0-.253 4.01c0 6.62 3.55 16.023 7.923 20.99 5.093 5.787 15.482 10.5 23.19 10.52l2.35-.08.8-.08 91.74-9.25c-3.312 14.479-6 38.284-6 53.137v.804c0 83.72 63 154.75 146.51 165.22 1.097.137 2.884.25 3.989.25h.011c7.756-.003 18.28-4.666 23.49-10.41 4.414-4.878 7.996-14.175 7.996-20.753 0-.857-.07-2.245-.156-3.097L292.6 322c14.477 3.312 38.279 6 53.13 6h.81zm19-138.37L480.97 178c-9.43 67.06-66.82 118-134.43 118-24.03 0-46.54-3.73-66.79-11.1l-23.93-8.68 2.55 25.33 11.53 114.37C202.64 407.19 152 349.95 152 282.53c0-24.02 3.73-46.53 11.06-66.78l8.69-23.93-25.33 2.55L31 206c9.47-67.06 66.85-118 134.46-118 24.03 0 46.54 3.73 66.79 11.09l23.93 8.69-2.55-25.33L242-32.96c67.06 9.43 118 66.81 118 134.43 0 24.02-3.73 46.53-11.1 66.78l-8.69 23.93zM256 224c17.664 0 32-14.336 32-32s-14.336-32-32-32-32 14.336-32 32 14.336 32 32 32z"/><glyph glyph-name="farm" unicode="" horiz-adv-x="576" d="M154.71 256H32V-32h96v-32H16C7.168-64 0-56.832 0-48v384.002c0 61.824 50.176 112 112 112 1.663 0 4.36-.072 6.02-.162 51.44-2.69 91.68-42.45 102.68-91.45-10.333-4.87-23.19-16.943-28.7-26.95V336c-.05 44.16-35.93 79.998-80.09 79.998-2.289 0-5.994-.191-8.27-.428C62 411.28 32 373.12 32 331.28V288h138.71zM408 224c4.416 0 8-3.584 8-8v-80c0-4.416-3.584-8-8-8h-80c-4.416 0-8 3.584-8 8v80c0 4.416 3.584 8 8 8h80zm-24-64v32h-32v-32h32zm188.62 41.78c1.864-3.732 3.378-10.148 3.38-14.32V-48c0-8.832-7.168-16-16-16H432c-8.832 0-16 7.168-16 16v80h-96v-80c0-8.832-7.168-16-16-16H176c-8.832 0-16 7.168-16 16v235.46c.006 4.163 1.52 10.565 3.38 14.29l55.49 111c2.15 4.31 8.93 11.93 15.62 14.93L355 381.24c3.427 1.523 9.25 2.76 13 2.76s9.573-1.237 13-2.76l120.51-53.53c5.787-2.578 12.784-9.266 15.62-14.93zM544-32v219.44l-55.49 111L368 352l-120.51-53.54-55.49-111V-32h96v80c0 8.832 7.168 16 16 16h128c8.832 0 16-7.168 16-16v-80h96z"/><glyph glyph-name="file-search" unicode="" horiz-adv-x="640" d="M605.65-39.05c1.3-1.295 2.356-3.835 2.356-5.67 0-1.812-1.033-4.33-2.306-5.62l-11.31-11.31c-1.294-1.295-3.83-2.346-5.66-2.346s-4.367 1.05-5.66 2.346l-88.9 88.89C472.5 10.42 445.62 0 416.07 0c-70.656 0-128 57.344-128 128s57.344 128 128 128c70.655 0 128-57.344 128-128 0-29.59-10.45-56.49-27.31-78.17zM416.05 32c52.926.066 95.935 43.074 96 96 0 52.992-43.008 96-96 96s-96-43.008-96-96 43.008-96 96-96zM368-32c3.63.002 8.661 2.086 11.23 4.65 9.233-2.21 24.428-4.164 33.92-4.36C407.03-49.49 386.803-63.955 368-64H80c-26.496 0-48 21.504-48 48v415.91c.038 26.458 21.542 48.002 48 48.09h204.08c10.974-.015 26.17-6.331 33.92-14.1l83.9-83.9c7.765-7.777 14.082-23.01 14.1-34v-28l-136-.09h-.07c-13.21 0-23.93 10.72-23.93 23.93v104.07H80c-8.832 0-16-7.168-16-16V-16c0-8.832 7.168-16 16-16h288zm-80 447.41v-95.48h95.5c-.588 2.365-2.469 5.675-4.2 7.39l-83.9 83.89c-1.716 1.733-5.032 3.614-7.4 4.2z"/><glyph glyph-name="font-case" unicode="" horiz-adv-x="640" d="M632 288c4.416 0 8-3.584 8-8V8c0-4.416-3.584-8-8-8h-16c-4.416 0-8 3.584-8 8v36.14C584.54 17.3 550.45 0 512 0c-70.656 0-128 57.344-128 128v32c0 70.656 57.344 128 128 128 38.45 0 72.54-17.3 96-44.14V280c0 4.416 3.584 8 8 8h16zm-24-160v32c0 52.992-43.008 96-96 96s-96-43.008-96-96v-32c0-52.992 43.008-96 96-96s96 43.008 96 96zM200.57 374.14L351.44 11.071c.338-.813.612-2.19.612-3.07 0-4.416-3.584-8-8-8h-17.345c-2.947 0-6.256 2.209-7.387 4.93L268.19 128H83.82L32.68 4.93C31.548 2.21 28.238 0 25.292 0H7.957c-4.416 0-8 3.584-8 8 0 .88.274 2.257.613 3.07l150.87 363.07c2.26 5.441 8.878 9.858 14.77 9.86h19.585c5.894 0 12.513-4.417 14.775-9.86zM97.11 160h157.78L176 349.84z"/><glyph glyph-name="game-board" unicode="" horiz-adv-x="512" d="M256 288v-96h-96v96h96zm-32-64v32h-32v-32h32zm224-32h-96v96h96v-96zm-64 64v-32h32v32h-32zm-32 128v-96h-96v96h96zm-32-64v32h-32v-32h32zM160 192V96H64v96h96zm-32-64v32H96v-32h32zM160 0v96h96V0h-96zm32 64V32h32v32h-32zM448 0h-96v96h96V0zm-64 64V32h32v32h-32zM256 96v96h96V96h-96zm32 64v-32h32v32h-32zm192 288c17.664 0 32-14.336 32-32V-32c0-17.664-14.336-32-32-32H32C14.336-64 0-49.664 0-32v448c0 17.664 14.336 32 32 32h448zm0-480v448H32V-32h448zM64 384h96v-96H64v96zm64-64v32H96v-32h32z"/><glyph glyph-name="game-board-alt" unicode="" horiz-adv-x="512" d="M480 448c17.664 0 32-14.336 32-32V-32c0-17.664-14.336-32-32-32H32C14.336-64 0-49.664 0-32v448c0 17.664 14.336 32 32 32h448zm0-480v448H32V-32h448zM448 0H256v192h192V0zM288 160V32h128v128H288zm-32 224V192H64v192h192zm-32-160v128H96V224h128z"/><glyph glyph-name="glass-citrus" unicode="" horiz-adv-x="512" d="M368 448c79.488 0 144-64.512 144-144 0-78.32-62.61-141.73-140.47-143.64l3.22 32.32C433.4 196.24 480 244.46 480 304c0 61.824-50.176 112-112 112-44.6 0-82.81-26.27-100.81-64h-34.37c19.83 55.8 72.569 96 135.18 96zm-48-128c17.663-.001 31.998-14.337 31.998-32 0-.88-.07-2.305-.158-3.18l-32-320C318.25-51.088 303.987-63.999 288-64H64c-15.987.001-30.251 12.912-31.84 28.82l-32 320c-.088.875-.158 2.3-.158 3.18 0 17.663 14.335 31.999 31.998 32h288zM288-32l19.2 192H44.8L64-32h224zm22.4 224l9.6 96H32l9.6-96h268.8z"/></font>
</defs>
</svg>
