<svg xmlns="http://www.w3.org/2000/svg"><defs><font id="FontAwesome5Pro-Light" horiz-adv-x="512"><font-face font-family="Font Awesome 5 Pro Light" font-weight="300" units-per-em="512" panose-1="2 0 3 3 0 0 0 0 0 0" ascent="448" descent="-64" bbox="-0.0783468 -64.0098 640.01 448.01" underline-thickness="25" underline-position="-51" unicode-range="U+0020-F89D"/><glyph glyph-name="book-heart" unicode="" horiz-adv-x="448" d="M230.1 140.1l-84.5 85.6c-24.6 24.9-23.2 66.1 4.3 89.1 13.8 11.6 47.6 28.5 90.2-14.5 42.5 43 76.3 26.1 90.2 14.5 27.5-23 28.9-64.2 4.3-89.1l-84.7-85.6c-5.5-5.5-14.3-5.5-19.8 0zm-59.8 150.1c-14.4-12-12.4-31.6-2.1-42l71.8-72.6 72 72.6c10.2 10.4 12.3 30-2.1 42-13.8 11.5-31.3 3.5-38.4-3.7l-31.4-31.7-31.4 31.7c-7.2 7.1-24.7 15.2-38.4 3.7zM448 56c0-10-6.2-18.6-14.9-22.2-3.6-16.1-4.4-45.6-.4-65.8h3.3c6.6 0 12-5.4 12-12v-8c0-6.6-5.4-12-12-12H64C28.7-64 0-35.3 0 0v368c0 44.2 35.8 80 80 80h344c13.3 0 24-10.7 24-24V56zm-43.7-88c-3.1 20.4-2.9 45.2 0 64H64C46.3 32 32 17.7 32 0s14.3-32 32-32h340.3zM416 64v352H80c-26.5 0-48-21.5-48-48V55.1c9.5 5.5 20.3 8.9 32 8.9h352z"/><glyph glyph-name="menorah" unicode="" horiz-adv-x="640" d="M608 448s32-46.33 32-64-14.33-32-32-32-32 14.33-32 32 32 64 32 64zm-96-96c-17.67 0-32 14.33-32 32s32 64 32 64 32-46.33 32-64-14.33-32-32-32zm-96 0c-17.67 0-32 14.33-32 32s32 64 32 64 32-46.33 32-64-14.33-32-32-32zm-96 0c-17.67 0-32 14.33-32 32s32 64 32 64 32-46.33 32-64-14.33-32-32-32zm-96 0c-17.67 0-32 14.33-32 32s32 64 32 64 32-46.33 32-64-14.33-32-32-32zm-96 0c-17.67 0-32 14.33-32 32s32 64 32 64 32-46.33 32-64-14.33-32-32-32zm-64 32c0-17.67-14.33-32-32-32S0 366.33 0 384s32 64 32 64 32-46.33 32-64zm552-64c4.42 0 8-3.58 8-8V144c0-44.18-35.82-80-80-80H336v-96h200c4.42 0 8-3.58 8-8v-16c0-4.42-3.58-8-8-8H104c-4.42 0-8 3.58-8 8v16c0 4.42 3.58 8 8 8h200v96H96c-44.18 0-80 35.82-80 80v168c0 4.42 3.58 8 8 8h16c4.42 0 8-3.58 8-8V144c0-26.51 21.49-48 48-48h208v216c0 4.42 3.58 8 8 8h16c4.42 0 8-3.58 8-8V96h208c26.51 0 48 21.49 48 48v168c0 4.42 3.58 8 8 8h16zm-112 0h16c4.42 0 8-3.58 8-8V128h-32v184c0 4.42 3.58 8 8 8zm-384 0h16c4.42 0 8-3.58 8-8V128h-32v184c0 4.42 3.58 8 8 8zm288 0h16c4.42 0 8-3.58 8-8V128h-32v184c0 4.42 3.58 8 8 8zm-192 0h16c4.42 0 8-3.58 8-8V128h-32v184c0 4.42 3.58 8 8 8z"/><glyph glyph-name="acorn" unicode="" horiz-adv-x="448" d="M352 384c53.02 0 96-42.98 96-96v-32c0-17.67-14.33-32-32-32v-32c0-98.06-55.4-187.7-143.11-231.55L224-64l-48.89 24.45C87.4 4.3 32 93.94 32 192v32c-17.67 0-32 14.33-32 32v32c0 53.02 42.981 96 96 96h112.32c3.83 22.74 13.72 43.9 29.1 61.41 3 3.43 8.4 3.42 11.62.2l11.33-11.33c3.02-3.02 2.98-7.75.21-11-9.71-11.4-16.139-24.88-19.46-39.28H352zm32-192v32H64v-32c0-86.49 48.06-164.25 125.42-202.93L224-28.22l34.58 17.29C335.94 27.75 384 105.509 384 192zm32 64v32c0 35.29-28.71 64-64 64H96c-35.29 0-64-28.71-64-64v-32h384z"/><glyph glyph-name="alicorn" unicode="" horiz-adv-x="640" d="M631.98 384c7.92 0 11.03-10.27 4.45-14.67l-92.45-36.66.03-64.83c.01-20.55-13.05-38.81-32.49-45.44L486 213.69c-5.47-1.87-36.34-9.87-55.45 18.8L416 254.31v-50.52c0-29.84-11.5-58.09-32-79.59V-32c0-17.67-14.33-32-32-32h-64c-17.67 0-32 14.33-32 32v135.64l-51.84 11.52-19.29-53.73 21.68-85.57C211.65-44.25 196.48-64 175.53-64H118c-14.79 0-27.66 10.14-31.1 24.52L65.77 48.38c-2.58 10.71-2.32 21.97.8 32.74l21.97 74.27c-15.63 17.91-24.53 41.04-24.53 65.24 0 5.81.75 11.42 1.71 16.96C46.23 231.48 32 213.5 32 192v-56c0-4.42-3.58-8-8-8H8c-4.42 0-8 3.58-8 8v56c0 43.73 35.11 79.13 78.66 79.86 5.57 9.16 12.67 17.24 20.76 24.18 2.42-11.69 6.46-22.89 11.4-33.73-9.14-11.5-14.82-25.86-14.82-41.68 0-22.87 11.46-43 28.87-55.18L97.24 72.04c-.687-2.377-1.243-6.316-1.243-8.79 0-2.068.39-5.379.873-7.39L118-32h57.53l-24.08 95.05 32.12 89.47L288 129.31V-32h64v170.19c19.35 15.43 32 38.93 32 65.6V304l48-16 25.18-37.75c2.34-3.51 9.15-9.46 18.48-6.27l25.52 8.71c5.978 2.04 10.83 8.824 10.83 15.141v.008l-.05 93.88-20.39 24.78c11.53 4.84 19.63 16.21 19.63 29.5H400c-53.02 0-96-42.98-96-96l-.06-32c-59.84 0-106.56 29.77-135.88 86.29-5.34-15.19-8.06-31.07-8.06-47.38 0-60.51 45.69-115.38 107.44-130.57 4.17-1.03 6.9-4.979 6.1-9.2l-2.97-15.699c-.84-4.47-5.28-7.49-9.7-6.43C184.56 183.31 128 251.53 128 326.91c0 26.01 5.63 51.149 16.74 74.7 4.29 9.029 12.6 14.19 23.13 14.39 9.97-.151 19.03-6.151 23.03-15.31 18.4-41.9 45.82-67.4 81.51-76.61C274.62 392.74 330.82 448 400 448h111.2c17.67 0 32-14.33 32-32 0-11.38-2.99-22.25-8.38-31.7l.24-.3h96.92zm-167.97-32c0-8.84-7.17-16-16-16-8.84 0-16 7.16-16 16s7.16 16 16 16 16-7.16 16-16z"/><glyph glyph-name="apple-crate" unicode="" d="M402.22 397.53c-12.25-11.43-31.55-14.51-50.02-13.28-.55 3.86-3.31 33.62 13.22 50.22 14.35 13.4 37.14 14.14 50.02 13.28 1.21-18.19-1.93-38.03-13.22-50.22zM496 224c8.84 0 16-7.16 16-16V-48c0-8.84-7.16-16-16-16H16C7.16-64 0-56.84 0-48v256c0 8.84 7.16 16 16 16h25.18c-2.76 8.11-5.18 16.56-6.74 25.82-13.46 72.4 25 156.14 125.57 99.88 65.66 36.74 94.75 7.64 95.94 6.72 1.19.92 30.06 30.03 95.74-6.72 100.359 56.15 139.189-26.54 125.56-99.88-1.57-9.26-3.98-17.71-6.74-25.82H496zm-159.94 97.77c-9.66 5.41-45.67 20.78-60.48 10.17 12.5-25.65 14.24-59.22 9.98-82.12-1.56-9.26-3.98-17.71-6.74-25.82h157.2c4.16 9.39 7.69 19.44 9.67 31.15 3.88 20.89 1.41 51.95-10.63 69.37-.65.94-13.02 27.88-67.76-2.75l-15.62-8.74zm-259.31 2.8c-11.67-16.89-14.68-48.3-10.86-68.91 2.04-12.03 5.6-22.21 9.77-31.66h168.68c4.16 9.38 7.69 19.44 9.67 31.15 3.88 20.89 1.41 51.95-10.63 69.37-.65.94-13.02 27.88-67.76-2.75L160 313.03l-15.62 8.74c-54.76 30.64-66.98 3.74-67.63 2.8zM480-32v96H32v-96h448zm0 128v96H32V96h448zM80 128c-8.84 0-16 7.16-16 16s7.16 16 16 16 16-7.16 16-16-7.16-16-16-16zM80 0c-8.84 0-16 7.16-16 16s7.16 16 16 16 16-7.16 16-16S88.84 0 80 0zm352 128c-8.84 0-16 7.16-16 16s7.16 16 16 16 16-7.16 16-16-7.16-16-16-16zm0-128c-8.84 0-16 7.16-16 16s7.16 16 16 16 16-7.16 16-16-7.16-16-16-16zM210.53 397.53c-12.25-11.43-31.55-14.51-50.02-13.28-.55 3.86-3.31 33.62 13.22 50.22 14.35 13.4 37.14 14.14 50.02 13.28 1.21-18.19-1.93-38.03-13.22-50.22z"/><glyph glyph-name="axe" unicode="" horiz-adv-x="640" d="M525.74 288H640v-32c0-123.71-100.29-224-224-224h-32v114.26l-47.27 47.27L88.57-54.63C82.32-60.88 74.13-64 65.94-64s-16.38 3.12-22.63 9.37L9.37-20.69c-12.5 12.5-12.5 32.76 0 45.26l248.16 248.16-24.16 24.16c-12.5 12.49-12.5 32.75 0 45.25l96.49 96.49c6.25 6.25 14.44 9.37 22.63 9.37s16.38-3.12 22.63-9.37l24.15-24.16 24.16 24.16c6.25 6.25 14.44 9.37 22.63 9.37s16.38-3.12 22.63-9.37l33.94-33.94c12.5-12.5 12.5-32.76 0-45.26l-24.16-24.16zm-79.71 128l-24.14-24.14 33.95-33.96L480 382.06 446.06 416h-.03zM65.94-32L314.1 216.16l-33.94 33.94L32 1.94zM416 64c105.87 0 192 86.13 192 192h-95.51l-160 160h-.03L256 319.51l160-160V64z"/><glyph glyph-name="axe-battle" unicode="" d="M512 287.08L480 256l32-31.08c-6.77-61.77-35.12-116.63-74.2-156.22-3.18-3.22-7.02-4.7-10.81-4.7-7.07 0-13.95 5.14-15.99 13.66-13.33 55.54-55.26 97.43-107 104.78V-48c0-8.84-7.16-16-16-16h-64c-8.84 0-16 7.16-16 16v230.44c-51.74-7.341-93.67-49.24-107-104.78C98.96 69.14 92.08 64 85.01 64c-3.78 0-7.63 1.47-10.81 4.7C28.67 114.83 0 181.62 0 256s28.67 141.17 74.2 187.3c3.18 3.22 7.02 4.7 10.81 4.7 7.07 0 13.95-5.14 15.99-13.66 13.33-55.54 55.26-97.43 107-104.78V368c0 8.84 7.16 16 16 16h64c8.84 0 16-7.16 16-16v-38.44c51.74 7.34 93.67 49.24 107 104.78 2.04 8.52 8.92 13.66 15.99 13.66 3.78 0 7.63-1.48 10.81-4.7 39.08-39.59 67.43-94.45 74.2-156.22zM78.65 112.44c6.94 17.01 38.53 89.43 129.35 102.319v82.47c-90.82 12.9-122.42 85.32-129.35 102.33C48.76 359.829 32 308.919 32 255.999s16.76-103.83 46.65-143.56zM272-32v384h-32V-32h32zm185.04 265.71L435.41 256l21.63 22.28 19.29 19.87c-6.38 37.58-21.22 72.49-42.97 101.41-6.94-17.01-38.53-89.43-129.35-102.33v-82.47c90.82-12.9 122.41-85.32 129.35-102.33 21.75 28.92 36.59 63.84 42.97 101.41z"/><glyph glyph-name="badger-honey" unicode="" horiz-adv-x="640" d="M622.25 305.45c10.87-6.15 17.75-18.87 17.75-32.81 0-3.27-3.86-62.75-57.25-67.2L560 159.95l-18.89 37.76c-51.1-14.5-107.1-45.16-152.42-75.66l26.99-134.92c1.98-9.89-5.59-19.13-15.69-19.13h-79.36c-7.63 0-14.19 5.38-15.69 12.86L281.91 95.97h-73.69l-32.96-55.99 22.45-49.36C202.53-19.97 194.78-32 183.15-32h-76.745c-6.01 0-12.68 4.537-14.886 10.13l-25.3 57.94c-1.23 3.12-2.23 8.379-2.23 11.734 0 3.45 1.053 8.84 2.35 12.035L90.12 112.3c-44.27 33.07-51.47 68.41-54.09 79.65H16c-8.84 0-16 7.16-16 16v15.99C0 294.61 57.31 351.9 128 351.9h226.95c19.11 0 37.94 6.95 55.03 16.78 17.38 10 36.42 15.21 55.47 15.21.97 0 33.31 3.86 88.92-35.01 21.19-14.8 42.66-29.14 65.15-41.88zM128 319.91c-5.42 0-10.65-.73-15.83-1.6.94-37.34 34.69-78.38 79.83-78.38h45.5c10.41 0 20.59 1.76 30.25 5.23l100.78 45.82c31.16 11.26 60.59 20.93 91.47 20.93h91.64c-5.54 3.77-10.8 7.4-15.59 10.75-44.18 30.88-66.66 29.24-70.59 29.24-13.4 0-27.07-3.78-39.51-10.94-24.28-13.97-48.16-21.05-70.99-21.05H128zm225.13-183.22c233.46 157.09 249.61 62.5 254.88 136.279-.01 4.4-1.97 4.92-5.54 6.95h-90.88c2.6-3.38 4.41-7.41 4.41-12 0-11.04-8.95-19.99-20-19.99-11.04 0-20 8.95-20 19.99 0 4.59 1.81 8.62 4.41 12H460c-25.72 0-52.25-8.78-79.44-18.56l-100.78-45.82c-14.339-5.22-28.16-7.61-42.28-7.61H192c-55.37 0-103.87 45.2-110.64 99.36C52.07 290.84 32 259.84 32 223.93h29.43l5.77-24.72c7.16-30.72 21.9-46.21 42.07-61.28l19.8-14.78L96 47.8 117.31-.01h40.99l-19.05 41.89 50.68 86.08h118.22L333.75-.01h46.73z"/><glyph glyph-name="bat" unicode="" horiz-adv-x="640" d="M638.61 160.75c5.66-12.69-6.94-25.85-20.58-21.47l-16.48 5.27a69.136 69.136 0 0 1-21.07 3.29c-21.83 0-42.85-10.34-55.46-28.51L486.61 64l-12.3 11.82c-13.11 12.59-30.14 18.75-47.09 18.75-20.13 0-40.15-8.69-53.36-25.6L320 0l-53.85 68.97c-13.21 16.91-33.23 25.6-53.36 25.6-16.95 0-33.98-6.16-47.09-18.75L153.39 64l-38.41 55.32c-12.61 18.18-33.63 28.51-55.46 28.51-5.958 0-15.396-1.475-21.07-3.29l-16.48-5.27c-13.64-4.37-26.24 8.79-20.58 21.48l70.32 157.56c5.47 12.27 17.84 19.4 30.67 19.4 5.8 0 11.7-1.46 17.1-4.57l104.9-60.44L256 384l50.12-48h27.769l50.11 48 31.63-111.31 104.9 60.44c5.4 3.11 11.29 4.57 17.1 4.57 12.82 0 25.19-7.13 30.67-19.4zm-58.13 19.08c4.62 0 9.22-.3 13.77-.92l-56.58 126.78-143.47-82.66-26.05 100.06-20.99-19.1h-54.33l-20.99 19.1-26.05-100.06-143.47 82.66-56.58-126.78c4.559.61 9.149.92 13.769.92 33.51 0 64.6-15.99 83.19-42.76l17.32-24.95c15.69 9.41 33.82 14.44 52.76 14.44 31.8 0 60.96-14 80.02-38.4l27.2-34.83 27.2 34.83c19.05 24.4 48.22 38.4 80.01 38.4 18.94 0 37.07-5.03 52.76-14.44l17.32 24.95c18.59 26.78 49.69 42.76 83.19 42.76z"/><glyph glyph-name="blender-phone" unicode="" horiz-adv-x="576" d="M486.25 103.97C520.21 89.18 544 55.4 544 16v-48c0-17.67-14.33-32-32-32H192c-17.67 0-32 14.33-32 32v48c0 40.93 25.72 75.62 61.79 89.44L192 448h384zM534.58 416H226.9l26.44-304h201.93l29.22 112H360c-4.42 0-8 3.58-8 8v16c0 4.42 3.58 8 8 8h132.84l16.7 64H360c-4.42 0-8 3.58-8 8v16c0 4.42 3.58 8 8 8h157.88zM512-32v48c0 35.29-28.71 64-64 64H256c-35.29 0-64-28.71-64-64v-48h320zM352 48c13.26 0 24-10.74 24-24 0-13.25-10.74-24-24-24s-24 10.75-24 24c0 13.26 10.74 24 24 24zm-175.57 82.92c5.72-14.09.44-30.09-12.6-38.07l-36.09-22.16c-7.34-4.5-15.97-6.67-24.56-6.67-12.81 0-25.5 4.83-33.81 13.94-91.68 100.31-92.59 252.39-2.06 353.72 15.62 17.46 41.12 21.33 60.53 9.44l36.04-22.09c13-7.96 18.28-23.96 12.56-38.05l-23.66-58.02c-5.16-12.72-18.44-20.75-32.16-19.28l-28.56 2.8c-3.985-13.647-7.219-36.26-7.219-50.479 0-14.247 3.248-36.907 7.25-50.58l28.53 2.799c14.13 1.48 27.03-6.61 32.189-19.33zm-65.44-32.94l35.48 21.75-23.31 57.11-53-5.72-4.25 11.59c-17.41 47.24-17.41 99.25 0 146.47l4.25 11.59 53.59-5.25 23.06 57.52-35.72 20.8c-2.35 1.45-5 2.14-7.66 2.14-4.47 0-8.97-1.93-12.25-5.62C11.62 321.33 12.4 187.7 92.99 99.54c3.66-4.01 12.81-4.809 18-1.559z"/><glyph glyph-name="book-dead" unicode="" horiz-adv-x="448" d="M216 288c-8.8 0-16 7.2-16 16s7.2 16 16 16 16-7.2 16-16-7.2-16-16-16zm48 0c-8.8 0-16 7.2-16 16s7.2 16 16 16 16-7.2 16-16-7.2-16-16-16zm-88-43.4c-20.4 15.1-32 36.4-32 59.4 0 44.1 43.1 80 96 80s96-35.9 96-80c0-23-11.6-44.3-32-59.4V232c0-13.2-10.8-24-24-24h-80c-13.2 0-24 10.8-24 24v12.6zM240 352c-35.3 0-64-21.5-64-48 0-14.3 8.9-27.9 24.3-37.2l7.7-4.7V240h64v22.1l7.7 4.7c15.5 9.3 24.3 22.9 24.3 37.2 0 26.5-28.7 48-64 48zM448 56c0-10-6.2-18.6-14.9-22.2-3.6-16.1-4.4-45.6-.4-65.8h3.3c6.6 0 12-5.4 12-12v-8c0-6.6-5.4-12-12-12H64C28.7-64 0-35.3 0 0v368c0 44.2 35.8 80 80 80h344c13.3 0 24-10.7 24-24V56zm-43.7-88c-3.1 20.4-2.9 45.2 0 64H64C46.3 32 32 17.7 32 0s14.3-32 32-32h340.3zM416 64v352H80c-26.5 0-48-21.5-48-48V55.1c9.5 5.5 20.3 8.9 32 8.9h352zm-291.2 51.6c-1.7 4 .2 8.7 4.2 10.5l70.4 30-70.3 30.2c-4.1 1.7-5.9 6.4-4.2 10.5l6.3 14.7c1.7 4.1 6.4 5.9 10.5 4.2l98.3-42.1 98.3 42.3c4.1 1.7 8.8-.1 10.5-4.2l6.3-14.7c1.7-4.1-.1-8.8-4.2-10.5l-70.3-30.2 70.3-30.1c4.1-1.7 5.9-6.4 4.2-10.5l-6.3-14.7c-1.7-4.1-6.4-5.9-10.5-4.2l-98.4 42.1-98.3-42.2c-4.1-1.7-8.8.1-10.5 4.2z"/><glyph glyph-name="book-spells" unicode="" horiz-adv-x="448" d="M64 304c0 6.06 3.44 11.59 8.84 14.31l37.88 18.94 18.97 37.91c2.72 5.42 8.25 8.84 14.31 8.84s11.59-3.42 14.31-8.84l18.94-37.91 37.91-18.94c5.4-2.7 8.84-8.25 8.84-14.31s-3.43-11.61-8.84-14.31l-37.91-18.94-18.94-37.91c-2.72-5.42-8.25-8.84-14.31-8.84s-11.59 3.42-14.31 8.84l-18.97 37.91-37.88 18.94C67.44 292.41 64 297.94 64 304zm65.81 7.02L115.78 304l14.03-7.02c2.63-1.321 5.839-4.528 7.16-7.16l7.03-14.05 7 14.05c1.325 2.629 4.532 5.837 7.16 7.16l14.03 7.02-14.03 7.02c-3.1 1.55-5.6 4.07-7.16 7.16l-7 14.051-7.03-14.05c-1.323-2.629-4.531-5.837-7.16-7.161zM192 192c0 6.06 3.44 11.59 8.84 14.31l48.56 24.28 24.28 48.56c5.43 10.84 23.18 10.84 28.62 0l24.28-48.56 48.56-24.28c5.4-2.72 8.84-8.25 8.84-14.31s-3.43-11.59-8.84-14.31l-48.56-24.28-24.28-48.56a16.006 16.006 0 0 0-14.31-8.84c-6.06 0-11.59 3.42-14.31 8.84l-24.28 48.56-48.56 24.28c-5.4 2.72-8.84 8.25-8.84 14.31zm76.5 12.36L243.78 192l24.72-12.36c2.63-1.322 5.839-4.53 7.16-7.16l12.34-24.7 12.34 24.7c1.324 2.628 4.531 5.836 7.16 7.16L332.22 192l-24.72 12.36c-3.1 1.55-5.6 4.07-7.16 7.16L288 236.22l-12.34-24.7c-1.324-2.629-4.531-5.837-7.16-7.16zM448 56c0-10-6.2-18.6-14.9-22.2-3.6-16.1-4.4-45.6-.4-65.8h3.3c6.6 0 12-5.4 12-12v-8c0-6.6-5.4-12-12-12H64C28.65-64 0-35.35 0 0v368c0 44.2 35.8 80 80 80h344c13.3 0 24-10.7 24-24V56zm-43.7-88c-3.1 20.4-2.9 45.2 0 64H64C46.33 32 32 17.67 32 0s14.33-32 32-32h340.3zM416 64v352H80c-26.5 0-48-21.5-48-48V55.12C41.45 60.62 52.28 64 64 64h352z"/><glyph glyph-name="bow-arrow" unicode="" d="M403.77 271.89c62.75-92.14 58.65-216.13-12.21-304.17l6.76-6.76c1.297-1.292 2.348-3.825 2.348-5.655s-1.051-4.363-2.347-5.654l-11.31-11.31a8.001 8.001 0 0 0-11.31 0L222.95 91.07l22.63 22.63L368.68-9.402c58.45 75.07 62.08 178.83 11.62 257.82zM155.08 158.96L2.34 311.7c-1.296 1.292-2.348 3.825-2.348 5.655s1.052 4.363 2.348 5.655l11.32 11.33c3.12 3.12 8.18 3.12 11.31 0l6.77-6.77c88.03 70.86 212.02 74.96 304.16 12.21l-23.47-23.47c-78.99 50.46-182.75 46.82-257.82-11.62l123.1-123.1zM496.36 448c9.6 0 17.31-8.86 15.33-18.77l-25.71-128.59c-1.58-7.91-8.42-12.63-15.46-12.63-3.9 0-7.86 1.45-11.02 4.61l-40.13 40.12L167 80.37l23.96-53.62c.582-1.747 1.054-4.658 1.054-6.5 0-4.701-2.699-11.216-6.024-14.54l-63.67-63.67c-4.11-4.11-9.33-6.03-14.47-6.03-8.38 0-16.58 5.08-19.57 14.06L69.73 5.72 14.07 24.27C-.43 29.11-4.77 47.51 6.03 58.31l63.66 63.68c3.322 3.322 9.831 6.019 14.53 6.019 1.843 0 4.76-.475 6.51-1.059l53.63-23.96 252.37 252.37-40.12 40.12c-8.86 8.87-4.27 24.03 8.02 26.49l128.6 25.72c1.06.21 2.1.31 3.13.31zM112.77-22.25l44.92 44.94-21.93 49.09-49.09 21.93-44.93-44.93 38.09-12.7 15.18-5.06 5.06-15.18zm347.8 359.03l14.94 74.73-74.73-14.95z"/><glyph glyph-name="campfire" unicode="" d="M256 128c-79.53 0-144 64.47-144 144 0 44.78 44.83 119.02 108 176 24.61-22.21 46.34-46.01 63.86-69.48 10.69 12.73 22.77 25.42 36.14 37.48 46.58-42.04 80-110.71 80-144 0-79.53-64.47-144-144-144zm-35.9 275.58C172.05 353.63 144 299.75 144 272c0-61.76 50.24-112 112-112s112 50.24 112 112c0 16.79-18.04 61.47-48.64 98.42-3.76-4.06-7.43-8.23-10.99-12.47L282.39 327l-24.17 32.37c-11.08 14.84-24.01 29.83-38.12 44.21zM295.91 48l211.3-82.03c2.644-1.158 4.79-4.44 4.79-7.326 0-.923-.3-2.359-.67-3.204l-6.4-14.65c-1.77-4.05-6.49-5.89-10.54-4.12L256 30.54 17.62-63.32A7.994 7.994 0 0 0 7.08-59.2L.68-44.55c-.37.846-.672 2.282-.672 3.205 0 2.887 2.147 6.168 4.791 7.325L216.09 48 4.79 130.02C2.146 131.177 0 134.46 0 137.346c0 .922.3 2.357.67 3.203l6.4 14.65c1.158 2.65 4.444 4.799 7.335 4.799.924 0 2.36-.3 3.205-.67L256 65.46l238.39 93.87c.845.37 2.281.67 3.205.67 2.89 0 6.177-2.15 7.335-4.799l6.4-14.65c.371-.847.672-2.284.672-3.208 0-2.886-2.146-6.167-4.792-7.323z"/><glyph glyph-name="campground" unicode="" horiz-adv-x="640" d="M632-32c4.42 0 8-3.58 8-8v-16c0-4.42-3.58-8-8-8H8c-4.42 0-8 3.58-8 8v16c0 4.42 3.58 8 8 8h24l268.26 370.81-63 87.09c-2.6 3.57-1.8 8.57 1.77 11.17l12.93 9.4c1.161.846 3.27 1.531 4.706 1.531 2.251 0 5.152-1.478 6.474-3.3L320 366.1l56.86 78.6c2.6 3.58 7.61 4.37 11.18 1.77l12.93-9.4c3.57-2.6 4.37-7.6 1.77-11.17l-63-87.09L608-32h24zm-409.81 0h195.619l-97.81 136.94zm234.96 0h111.359l-248.51 343.52L71.489-32h111.359l124.131 173.77c6.38 8.93 19.66 8.93 26.04 0z"/><glyph glyph-name="candle-holder" unicode="" horiz-adv-x="448" d="M160 256c-45.93 0-78 32.61-78 79.29C82 365.16 114.38 410 160 448c45.41-37.82 78-82.72 78-112.71 0-46.68-32.07-79.29-78-79.29zm0 148.93c-31.56-30.97-46-58.26-46-69.63 0-29.17 17.63-47.29 46-47.29s46 18.12 46 47.29c0 11.37-14.44 38.66-46 69.63zM384 64c35.35 0 64-28.65 64-64s-28.65-64-64-64H8c-4.42 0-8 3.58-8 8v16c0 4.42 3.58 8 8 8h56v224c0 17.67 14.33 32 32 32h128c17.67 0 32-14.33 32-32V-32h72.88c-5.5 9.45-8.88 20.28-8.88 32 0 35.35 28.65 64 64 64zM224-32v224h-64v-48c0-8.84-7.16-16-16-16s-16 7.16-16 16v48H96V-32h128zm160 0c17.64 0 32 14.36 32 32s-14.36 32-32 32-32-14.36-32-32 14.36-32 32-32z"/><glyph glyph-name="candy-corn" unicode="" horiz-adv-x="640" d="M480 448c165.81-1.62 164.48-39.54 157.89-72.47C607.53 223.9 543.77 32.18 480 32h-.09c-63.73 0-127.46 191.98-157.8 343.53-6.59 32.93-7.92 70.85 157.89 72.47zm-.09-383.99c12.78.04 39.35 37.08 67.55 108.72-43.78 3.72-91.2 3.72-134.98-.01 28.17-71.65 54.68-108.68 67.43-108.71zm79.07 139.8c9.49 27.05 18.94 57.93 27.98 92.61-66.6 9.77-147.33 9.76-213.93 0 9.029-34.69 18.479-65.56 27.95-92.61 50.829 4.96 107.17 4.96 158 0zm47.65 178.03c1.98 9.89 1.55 12.44 1.27 13.09-.09.19-12.84 19.9-127.9 21.06-115.05-1.16-127.8-20.86-127.9-21.06-.279-.64-.71-3.19 1.271-13.08 3.8-19 7.82-36.89 11.93-54.23 71.31 10.82 158.08 10.82 229.39 0 4.11 17.34 8.14 35.22 11.94 54.22zM84.94 242.19c118.4 116.1 144.26 88.35 162.88 60.39C333.57 173.89 424.05-6.76 379.09-51.981l-.06-.06c-45.06-45.06-225.87 45.63-354.49 131.34-27.95 18.63-55.7 44.49 60.401 162.891zM356.4-29.4c9.01 9.07 1.61 54.05-29.1 124.64-33.59-28.33-67.12-61.85-95.44-95.45C302.43-30.96 347.37-38.4 356.4-29.4zm-42.94 154.77c-12.42 25.84-27.57 54.35-45.7 85.26-54-40.19-111.08-97.28-151.27-151.27 30.91-18.14 59.42-33.29 85.25-45.72 32.43 39.45 72.27 79.29 111.72 111.73zM88.96 75.96c42.78 58.07 104.13 119.43 162.21 162.22-9.36 15.16-19.16 30.66-29.9 46.78-5.6 8.39-7.71 9.9-8.35 10.15-.21.07-23.16 4.99-105.34-75.55-80.54-82.18-75.62-105.13-75.55-105.34.26-.65 1.76-2.76 10.15-8.35C58.3 95.12 73.79 85.32 88.96 75.96z"/><glyph glyph-name="cat" unicode="" horiz-adv-x="576" d="M432 320c8.84 0 16-7.16 16-16s-7.16-16-16-16-16 7.16-16 16 7.16 16 16 16zm48-16c0 8.84 7.16 16 16 16s16-7.16 16-16-7.16-16-16-16-16 7.16-16 16zm64.01 144c17.62 0 31.99-14.3 31.99-32V288c0-44.52-26.3-82.72-64-100.77V-32c0-17.64-14.34-32-32-32h-32c-17.66 0-32 14.36-32 32V71.37l-89.38-39.71C358.81 28.33 384 1.05 384-32c0-17.64-14.34-32-32-32H144c-44.12 0-80 35.89-80 80v256c0 26.47-21.53 48-48 48-8.84 0-16 7.16-16 16s7.16 16 16 16c44.12 0 80-35.89 80-80V143.73C141.82 229.47 232.18 288 336 288h16v128c0 17.7 14.37 32 31.99 32 8.274 0 19.29-5.156 24.59-11.51L452.32 384h23.36l43.74 52.48A32.003 32.003 0 0 0 544.01 448zM480-32v209.62c-5.27-.77-10.52-1.62-16-1.62-50.56 0-92.91 33.9-106.78 80H336C203.66 256 96 148.34 96 16c0-26.47 21.53-48 48-48h208c0 17.64-14.34 32-32 32h-48v46.099c0 26.283-20.003 55.022-44.65 64.15-3.98 1.481-6.42 5.451-5.39 9.571l3.88 15.55c1.11 4.43 5.77 7.24 10.1 5.77 37.22-12.66 63.27-45.89 67.25-84.89L448 120.62V-32h32zm64 320v128l-53.34-64h-53.33L384 416V288c0-44.18 35.82-80 80-80s80 35.82 80 80z"/><glyph glyph-name="cauldron" unicode="" horiz-adv-x="448" d="M272 320c-26.51 0-48 21.49-48 48s21.49 48 48 48 48-21.49 48-48-21.49-48-48-48zm0 64c-8.82 0-16-7.18-16-16s7.18-16 16-16 16 7.18 16 16-7.18 16-16 16zm176-120c0-4.42-3.58-8-8-8h-46.73C427.22 210.22 448 154.38 448 102.4c0-39.08-11.82-70.65-32-95.53V-48c0-8.84-7.16-16-16-16s-16 7.16-16 16v25.33C343.34-50.69 286.71-64 224-64c-62.72 0-119.34 13.31-160 41.34V-48c0-8.84-7.16-16-16-16s-16 7.16-16 16V6.87C11.82 31.75 0 63.32 0 102.4 0 154.38 20.78 210.219 54.73 256H8c-4.42 0-8 3.58-8 8v16c0 4.42 3.58 8 8 8h432c4.42 0 8-3.58 8-8v-16zm-32-161.6c0 52.25-24.14 110.02-63.65 153.6H95.64C56.14 212.42 32 154.65 32 102.4 32-18.901 166.27-32 224-32s192 13.1 192 134.4zM160 384c-17.67 0-32 14.33-32 32s14.33 32 32 32 32-14.33 32-32-14.33-32-32-32z"/><glyph glyph-name="chair" unicode="" horiz-adv-x="448" d="M446.2 106.5C453.4 85.7 438 64 416 64V-56c0-4.4-3.6-8-8-8h-16c-4.4 0-8 3.6-8 8V64H64V-56c0-4.4-3.6-8-8-8H40c-4.4 0-8 3.6-8 8V64C10 64-5.4 85.7 1.8 106.5l22.2 64c4.4 12.9 16.6 21.5 30.2 21.5H64v128c0 70.7 57.3 128 128 128h64c70.7 0 128-57.3 128-128V192h9.8c13.6 0 25.7-8.6 30.2-21.5zM288 410.1V192h64v128c0 41.7-26.8 76.9-64 90.1zm-96 5.9V192h64v224h-64zm-96-96V192h64v218.1c-37.2-13.3-64-48.4-64-90.1zM32 96h384l-22.2 64H54.2z"/><glyph glyph-name="chair-office" unicode="" horiz-adv-x="384" d="M32 208c0-8.84-7.16-16-16-16s-16 7.16-16 16v96c0 8.84 7.16 16 16 16s16-7.16 16-16v-96zm314.49-47.03l14.58-24.24C380.3 104.74 357.26 64 319.93 64H208V30.78c35.61-5.41 65-28.55 77.85-59.63 6.419-15.51-2.41-35.14-15.02-35.14H113.17c-12.61 0-21.43 19.63-15.02 35.14C111 2.24 140.39 25.37 176 30.78V64H64.07c-37.32 0-60.36 40.74-41.13 72.73l14.57 24.24C43.9 171.6 53.25 179.64 64 184.99V384c0 35.35 28.65 64 64 64h128c35.349 0 64-28.65 64-64V184.99c10.75-5.35 20.099-13.39 26.49-24.02zM96 384V192h192v192c0 17.64-14.36 32-32 32H128c-17.64 0-32-14.36-32-32zM251.6-32C239.42-12.53 216.64 0 192 0s-47.42-12.53-59.6-32h119.2zm82.25 136.12c1.38 2.44 4.13 8.91-.21 16.12l-14.57 24.24c-5.76 9.57-16.26 15.52-27.43 15.52H92.361c-11.17 0-21.67-5.95-27.44-15.52l-14.57-24.24c-4.34-7.22-1.59-13.68-.21-16.12 1.39-2.44 5.51-8.12 13.93-8.12h255.85c8.43 0 12.55 5.68 13.93 8.12zM368 320c8.84 0 16-7.16 16-16v-96c0-8.84-7.16-16-16-16s-16 7.16-16 16v96c0 8.84 7.16 16 16 16z"/><glyph glyph-name="claw-marks" unicode="" d="M509.64-29.53c5.06-10.78 1.78-23.08-7.99-29.93-4.31-3.05-9.22-4.53-14.06-4.53-6.19 0-12.31 2.42-17.03 7.19l-87.8 85.37c-2.75 2.75-6.37 4.25-10.06 4.25l-53.02-1.14 1.12 53.39c0 3.39-1.47 6.9-4.09 9.54l-75.08 77.51c-2.41 2.4-6 3.9-9.69 3.9h-55.89v51.89c.07 5.44.1 9.19-.34 10.25L7.27 406.51c-8.529 8.54-9.63 21.39-2.69 31.23 6.88 9.72 19.25 12.97 30 7.86C328.12 306.31 463.56 69.121 508.17-26.41zM405.22 51.34l55.09-53.6C406.66 98.49 287.06 275.07 64.26 394.77l134.31-134.32c9.75-9.74 9.59-21.92 9.5-29.97l-.03-22.45h23.9c12.28 0 23.8-4.78 32.49-13.47l75.08-77.51c8.5-8.5 13.28-20.05 13.28-32.33l-.44-20.33 20 .42h.03c12.44 0 24.28-4.91 32.84-13.47zM29.52 236c55.33-26.26 192.49-105.23 270.5-270.62 4.28-9.06 1.41-19.81-6.81-25.56a20.591 20.591 0 0 0-11.87-3.78c-5.31 0-10.59 2.06-14.59 6.06L147.9 43.05c-3.59 3.52-7.09 4.97-10.84 4.97H80.07v57c0 3.75-1.47 7.27-4.09 9.91L4.96 204.1c-5.9 5.77-6.87 16.94-1.06 25.17 3.386 4.817 10.912 8.726 16.8 8.726 2.549 0 6.486-.886 8.79-1.977zM169.58 66.56l72.48-61.58C187.57 92.46 116.78 148.16 64.6 180.38l35.21-44.18c7.47-7.33 12.25-18.87 12.25-31.17v-25h24.99c12.28 0 23.84-4.78 32.53-13.47zm144.19 274.15l-53.64 75.44c-5.13 4.8-6.03 15.53-.44 23.47 5.59 7.89 15.93 10.57 24.65 6.45 46.21-21.95 160.66-87.86 225.73-225.82 4.09-8.67 1.37-19.01-6.5-24.56-3.5-2.46-7.5-3.66-11.5-3.66-5.1 0-10.16 1.97-14 5.81l-104.04 82.75c-3 2.86-5.28 3.8-7.62 3.8l-44.8 5.23-5.09 42.9c-.13 4.24-1.06 6.52-2.75 8.19zm137.29-80.63c-41.99 63.57-94.04 105.65-134.409 131.43l21.53-30.25c5.97-5.69 10.22-15.95 10.22-26.84l1.97-16 17.96-2.14h.31c8.84 0 19.21-4.35 26.71-11.87z"/><glyph glyph-name="coffee-togo" unicode="" horiz-adv-x="448" d="M432 384c8.84 0 16-7.16 16-16v-64c0-8.84-7.16-16-16-16h-18.67L386.44-34.66C385.06-51.24 371.19-64 354.55-64H93.44c-16.64 0-30.5 12.76-31.88 29.34L34.67 288H16c-8.84 0-16 7.16-16 16v64c0 8.84 7.16 16 16 16h16l23.16 46.31C60.044 440.074 72.865 448 83.78 448h280.44c10.917-.001 23.738-7.926 28.62-17.69L416 384h16zM354.56-32l5.33 64H88.111l5.33-64h261.12zm8 96l10.67 128H74.78L85.442 64h277.12zm13.33 160l5.34 64H66.78l5.33-64h303.78zM416 320v32h-19.77l-32 64H83.78l-32-64H32v-32h384z"/><glyph glyph-name="coffin" unicode="" horiz-adv-x="384" d="M370.62 335.3c11.31-11.38 15.9-28.11 12.03-43.67L302.8-29.14C297.7-49.66 279.39-64 258.29-64H125.71c-21.1 0-39.41 14.34-44.51 34.86L1.35 291.66c-3.87 15.53.72 32.26 12.04 43.64l98.76 99.2c8.72 8.72 20.25 13.5 32.47 13.5h94.76c12.22 0 23.75-4.78 32.45-13.47zM271.73-21.42l79.85 320.8c1.18 4.78-.22 9.89-3.66 13.36l-98.76 99.2c-2.62 2.61-6.09 4.06-9.78 4.06h-94.76c-3.68 0-7.15-1.45-9.811-4.09l-98.73-99.17c-3.44-3.47-4.85-8.58-3.66-13.33l79.85-320.83c1.53-6.24 7.06-10.58 13.44-10.58h132.58c6.38 0 11.91 4.35 13.44 10.58zm.28 325.42c8.84 0 16-7.16 15.99-16v-64c0-8.84-7.16-16-16-16h-32v-96c0-8.84-7.16-16-16-16h-64c-8.84 0-16 7.16-16 16v96h-32c-8.84 0-16 7.16-16 16v64c0 8.84 7.16 16 16 16h32v32c0 8.84 7.16 16 16 16h64.01c8.84 0 16-7.16 16-16v-32h32zm-16-64v32H208v48h-32v-48h-48.01v-32H176V128h32v112h48.01z"/><glyph glyph-name="corn" unicode="" d="M446.02 448c58.63 0 82.24-65.2 54.23-105.98 1.055-4.294 1.912-11.37 1.912-15.791 0-5.274-1.21-13.66-2.702-18.719-2.64-8.524-9.862-20.607-16.12-26.97.7-10.47-1.16-21.12-5.63-31.05-4.34-9.65-10.91-17.94-19.019-24.35a63.774 63.774 0 0 0-8.84-28.94c-4.29-7.541-13.67-17.504-20.94-22.24-1.36-8.85-4.83-17.31-9.79-25.06 9.72-7.05 19.08-14.7 27.74-23.36L468 104.4c9.03-9.03 4.349-24.49-8.18-27l-118.8-23.76L259.7-27.7c-16.51-16.51-37.07-29.01-59.93-33.76-38.54-8.02-75.93 3.31-103.31 28.88l-.28-.28-62.21 62.23C9.56 53.78-2.63 87.15.47 122.06c2.51 28.29 16.51 54.36 36.59 74.45l80.55 80.56 23.76 118.81c2.5 12.531 17.96 17.21 27 8.17l21.13-21.139c8.51-8.5 16.03-17.7 22.99-27.24.09.07.15.17.24.23 8.49 6.06 18.14 9.94 28.32 11.43 5.49 8.34 12.86 15.36 21.61 20.32 7.582 4.494 20.879 8.52 29.68 8.99 6.52 8.07 15.02 14.69 25.04 19.2a65.73 65.73 0 0 0 30.47 5.1c6.515 6.315 18.884 13.46 27.61 15.95 6.74 1.99 19.54 4.57 34.89.49 10.4 6.82 22.72 10.62 35.67 10.62zM56.6 170.79C24.76 138.96 24.1 88.08 54.06 55.1l70.41 70.43c26.94 26.95 59.45 46.32 94.92 57.04 12.84 62.27-4.18 129.39-52.51 177.72l-19.79-98.99zm367.63-67.88c-38.27 38.27-88.42 57.41-138.58 57.41-50.15 0-100.301-19.14-138.57-57.41L76.38 32.2l39.59-39.6c16.4-16.4 37.9-24.6 59.39-24.6 21.5 0 42.99 8.2 59.39 24.6l90.5 90.51zm37.16 246.25c10.45 5.36 17.94 16.07 18.48 28.92 0 38.87-33.33 37.92-33.85 37.92-12.58 0-23.69-6.99-29.35-17.82-13.5 13.06-29.14 8.92-32.14 8.03-11.25-3.22-19.81-11.79-23.03-22.5-6.18 4-18.15 8.39-31.61 2.68-10.71-4.82-17.67-14.46-19.55-24.91-.41.2-15.51 8.06-31.33-1.33-9.91-5.62-15.8-15.81-16.61-26.25-4.91 1.85-19.01 5.66-32.49-5.56 17.22-32.47 26.38-68.84 26.38-106.63 0-10.79-1.07-21.39-2.6-31.87 10.52 1.47 21.16 2.48 31.98 2.48 37.76 0 74.11-9.16 106.55-26.36 5.9 9.13 6.87 20 3.29 29.45 10.71.81 20.89 6.7 26.52 16.61 5.88 9.91 6.161 21.69 1.33 31.33 10.71 1.88 20.34 8.58 25.17 19.29 4.82 10.71 3.47 22.5-2.41 31.61 10.44 3.21 19.28 11.51 22.77 22.76 3.48 11.79 0 23.84-7.5 32.15z"/><glyph glyph-name="cow" unicode="" horiz-adv-x="640" d="M634.06 168.33a32.004 32.004 0 0 0 5.94-18.56V62.08C640 27.79 612.21 0 577.92 0h-.114c-18.661 0-42.022 12.724-52.145 28.4L490.2 83.3a63.909 63.909 0 0 0-10.24 34.72V160L448 175.96l-.04-143.97c0-17.67-14.33-31.99-32-31.99H368c-17.67 0-32 14.33-32 32v51.58c-7.28-2.91-15.571-4.95-23.96-6.83V56c0-8.84-7.16-16-16-16s-16 7.16-16 16v16.72c-2.75-.11-5.231-.72-8.04-.72-2.781 0-5.231.59-7.96.71V56c0-8.84-7.16-16-16-16s-16 7.16-16 16v20.73c-8.42 1.88-16.731 3.93-24.04 6.85V32c0-17.67-14.33-32-32-32h-48c-17.67 0-32 14.33-32 32v288c0 11.41 3.23 21.96 8.46 31.24C81.59 347.59 64 327.89 64 304V192c0-35.35-28.651-64-64-64v32c0 23.63 12.95 44.04 32 55.12V304c0 44.11 35.88 80 80 80h318.951c27.05 0 61.885-17.777 77.758-39.68l56.6-79.46c9.36 4.71 14.53 7.65 23.61 7.65 19.34 0 35.08-15.74 35.08-35.09v-54.96zM212.73 352c-17.54 0-27.12-19.78-15.9-32.8 40.31-46.77 56.93-47.2 74.13-47.2h1.09c17.15 0 35.01.69 75.11 47.2 11.23 13.02 1.65 32.8-15.89 32.8H212.73zm-4.14-234.19c69.37-27.73 112.62-5.68 126.82 0C332.43 150.35 305.29 176 272 176s-60.43-25.65-63.41-58.19zM608 62.08l-.01 87.69-16 22.46v59.7c0 4.64-3.8 8.01-8 8.01-3.77 0-18.2-7.39-22.69-24.62l-78.66 110.42C470.78 342.11 451.41 352 430.95 352H379.7c7.72-18.18 4.71-38.6-8.3-53.7-42.25-49.01-67.51-58.3-100.44-58.3-31.2 0-56.12 9.29-98.37 58.3-13.01 15.1-16.01 35.52-8.3 53.7H160c-17.64 0-32-14.36-32-32V32h48v80c0 31.45 25.14 96 96 96 70.55 0 96-65.13 96-96V32h47.96l.04 143.97.01 51.74 95.95-47.92v-61.785c0-5.204 2.294-12.974 5.12-17.344l35.46-54.9C558.11 37.14 567.55 32 577.81 32 594.51 32 608 45.49 608 62.08zM568 144c8.84 0 16-7.16 16-16s-7.16-16-16-16-16 7.16-16 16 7.16 16 16 16z"/><glyph glyph-name="dagger" unicode="" horiz-adv-x="384" d="M335.21 320.04c26.32 0 48.34-20.86 48.78-47.17.45-26.88-21.21-48.81-47.99-48.81-26.51 0-48 21.49-48 47.99 0 5.64 1.15 10.97 2.94 16H256V19.13l-50.68-76c-6.34-9.5-20.3-9.5-26.63 0L128 19.14v268.92H93.06c1.79-5.03 2.94-10.36 2.94-16 0-26.51-21.49-47.99-48-47.99-26.78 0-48.44 21.93-47.99 48.79.44 26.32 22.46 47.17 48.78 47.17H144V432c0 8.84 7.16 16 16 16h64c8.84 0 16-7.17 16-16V320.04h95.21zM64 272.05c0 8.82-7.18 16-16 16s-16-7.18-16-16 7.18-16 16-16 16 7.18 16 16zm112 143.96v-95.97h32v95.97h-32zm48-387.19v259.23h-64V28.82l32-47.99zm112 227.24c8.82 0 16 7.18 16 16s-7.18 16-16 16-16-7.18-16-16 7.18-16 16-16z"/><glyph glyph-name="dice-d10" unicode="" d="M503.88 186.71c11.8-13.2 10.6-33.5-2.69-45.21L277.11-56.03C271.08-61.34 263.54-64 256-64s-15.08 2.65-21.11 7.97L10.81 141.491c-13.29 11.72-14.5 32.01-2.69 45.22L232.2 437.36c6.35 7.09 15.08 10.64 23.8 10.64s17.45-3.55 23.8-10.64zM256 150.05l75.86 50.57-75.86 177-75.86-177zm-107.28 58.24l72.25 168.59L47.691 183.03zm214.56 0l101.22-25.3-173.47 193.89zM31.91 165.38l-.02-.02zm17.03-15.03l191.1-168.319v140.22l-82.76 55.19zM271.96-17.9l190.96 168.28-108.2 27.06-82.76-55.19V-17.9z"/><glyph glyph-name="dice-d12" unicode="" d="M505.24 269.51a63.87 63.87 0 0 0 6.76-28.62v-97.78c-.003-8.34-3.031-21.16-6.76-28.62l-47.7-95.41c-5.265-10.533-18.087-23.355-28.62-28.62l-95.41-47.7A63.9 63.9 0 0 0 304.89-64h-97.78c-8.34.003-21.161 3.031-28.62 6.76L83.08-9.54C72.547-4.275 59.724 8.547 54.46 19.08l-47.7 95.41A63.9 63.9 0 0 0 0 143.11v97.801c0 8.335 3.028 21.147 6.76 28.599l47.7 95.41c5.264 10.533 18.087 23.356 28.62 28.62l95.41 47.7a63.9 63.9 0 0 0 28.62 6.76h97.794c8.336 0 21.151-3.028 28.606-6.76l95.41-47.7c10.533-5.264 23.355-18.087 28.62-28.62zm-29.55-12.44l-46.75 93.51L272 307.78V201.889l108.11-54.05zM308.8-32l55.29 152.06L256 174.11l-108.09-54.05L203.2-32h105.6zM199.55 416l-82.84-41.42L256 336.59l139.29 37.99L312.44 416H199.55zM83.06 350.58l-46.75-93.51 95.58-109.22L240 201.9v105.88zM32 135.55l55.85-111.7 74.56-37.28-48.42 133.16L32 213.43v-77.88zm392.15-111.7L480 135.55v77.88l-81.99-93.7-48.42-133.16z"/><glyph glyph-name="dice-d20" unicode="" horiz-adv-x="448" d="M431.88 331.87c9.97-5.81 16.12-16.62 16.12-28.33V80.45c0-11.7-6.15-22.51-16.12-28.32l-192-111.83C235.818-62.073 228.704-64 224-64s-11.818 1.927-15.88 4.3l-192 111.83C6.15 57.94 0 68.74 0 80.45v223.09c0 11.71 6.15 22.52 16.12 28.32l192 111.84c4.062 2.373 11.176 4.3 15.88 4.3s11.819-1.926 15.88-4.299zM224 390.38L129.3 272h189.4zM124.62 240L224 78.53 323.37 240H124.62zM192.9 68.01l-92.55 150.4L55.92 85.13zm154.75 150.41L255.1 68.01l136.98 17.13zm7.17 59.69l45.86 34.39-138.01 80.78zm-261.64 0l92.3 115.38-138.54-80.7zm-16.01-27.98l-44.96 33.72-.17-169.12zM208 33.88L85.4 49.2 208-22.55v56.43zm155.6 15.45L240 33.88v-56.72zm7.23 200.8l44.98-134.93.17 168.79zM224.14-32h.17l-.09-.05z"/><glyph glyph-name="dice-d4" unicode="" d="M504.9 158.97c11.31-13.99 8.84-34.57-5.47-45.49L275.38-57.46c-5.72-4.37-12.55-6.55-19.38-6.55s-13.66 2.18-19.38 6.55L12.57 113.48c-14.311 10.92-16.78 31.49-5.471 45.49l224.05 277.17c6.4 7.9 15.62 11.86 24.85 11.86s18.45-3.96 24.84-11.86zM31.99 138.86L240-19.79v416.04zM256.02-32l.02-.01zM272-19.82l208.02 158.74L272 396.18v-416z"/><glyph glyph-name="dice-d6" unicode="" horiz-adv-x="448" d="M431.88 331.87c9.97-5.81 16.12-16.62 16.12-28.33V80.45c0-11.7-6.15-22.51-16.12-28.32l-192-111.83C235.818-62.073 228.704-64 224-64s-11.818 1.927-15.88 4.3l-192 111.83C6.15 57.94 0 68.74 0 80.45v223.09c0 11.71 6.15 22.52 16.12 28.32l192 111.84c4.062 2.373 11.176 4.3 15.88 4.3s11.819-1.926 15.88-4.299zM224 415.92L47.83 313.3 224 210.52l175.75 102.54zM32.21 285.35L32 80.46 208-22.55v205.37zM240-22.84L415.77 79.79l.21 205.67L240 182.82V-22.84z"/><glyph glyph-name="dice-d8" unicode="" d="M502.1 215.9c13.2-13.2 13.2-34.6 0-47.7L279.901-54c-6.6-6.6-15.2-9.9-23.9-9.9s-17.3 3.3-23.9 9.9L9.9 168.2c-13.2 13.2-13.2 34.5 0 47.7l222.2 222.199c6.6 6.6 15.3 9.9 23.9 9.9s17.3-3.3 23.9-9.9zM240-16.7V85.5L61.2 162.1zm0 137v280.4L43.7 204.4zm32-137l178.8 178.8L272 85.5V-16.7zm0 137l196.3 84.1L272 400.7V120.3z"/><glyph glyph-name="dog" unicode="" d="M496 352c8.84 0 16-7.16 16-16v-64c0-35.35-28.65-64-64-64h-32V-32c0-17.67-14.33-32-32-32h-64c-17.67 0-32 14.33-32 32v96h-96v-96c0-17.67-14.33-32-32-32H96c-17.67 0-32 14.33-32 32v160c0 17.68 5.12 34.03 13.46 48.26C34.53 177.64 0 212.76 0 256c0 8.84 7.16 16 16 16s16-7.16 16-16c0-26.47 21.53-48 48-48h27.05c15.19 10.07 33.36 16 52.95 16h112v175.97c0 9.64 7.89 16.03 16.12 16.03 3.93 0 7.94-1.46 11.2-4.72L326.6 384h69.62c10.917 0 23.738-7.926 28.62-17.69L432 352h64zM384-32v197.52L278.06 192H160c-35.29 0-64-28.71-64-64V-32h64V96h160V-32h64zm96 304v48h-67.78l-16 32h-82.88l-9.34 9.34V218.48l80-20V240h64c17.64 0 32 14.36 32 32zm-112 48c8.84 0 16-7.16 16-16s-7.16-16-16-16-16 7.16-16 16 7.16 16 16 16z"/><glyph glyph-name="dog-leashed" unicode="" d="M496 352c8.84 0 16-7.16 16-16v-64c0-35.35-28.65-64-64-64h-32V-32c0-17.67-14.33-32-32-32h-64c-17.67 0-32 14.33-32 32v96h-96v-96c0-17.67-14.33-32-32-32H96c-17.67 0-32 14.33-32 32v160c0 17.68 5.12 34.03 13.46 48.26C34.53 177.64 0 212.76 0 256c0 8.84 7.16 16 16 16s16-7.16 16-16c0-26.47 21.53-48 48-48h27.05c15.19 10.07 33.36 16 52.95 16h79.94L2.88 421.55c-3.39 2.83-3.85 7.88-1.02 11.27l10.25 12.3c2.83 3.4 7.88 3.86 11.27 1.03L272 238.96v161.01c0 9.641 7.889 16.03 16.12 16.03 3.93 0 7.939-1.46 11.2-4.719l27.279-27.28h69.62c10.917-.001 23.738-7.926 28.62-17.69L432 352h64zM256 96v96h-96c-35.29 0-64-28.71-64-64V-32h64V96h96zM384-32v197.52l-96 24V96h32V-32h64zm96 304v48h-67.78l-16 32h-82.88l-9.34 9.34V218.48l80-20V240h64c17.64 0 32 14.36 32 32zm-112 48c8.84 0 16-7.16 16-16s-7.16-16-16-16-16 7.16-16 16 7.16 16 16 16z"/><glyph glyph-name="dragon" unicode="" horiz-adv-x="640" d="M481.01 328.05c-12.03.69-34.03 12.83-27.54 39.95l58.42-15.37c-3.53-14.69-15.96-25.44-30.88-24.58zm54.5-131.8c37.89-21.56 85.07-48.41 99.57-100.56 10.59-38.07 3.5-76-19.9-106.801-25.15-33.12-65.64-52.89-108.29-52.89l-474.01.05C14.76-63.95.01-49.31.01-31.31.01-16.1 10.86-2.7 25.82.57 137.56 25.1 259.4 53.15 389.95 61.9c-13 13.38-22.84 29.02-31.17 45.73L155.91 80.24c-6.28-.81-17.45.6-24.15 11.05-5.03 7.87-5.06 17.68-.03 25.59l12.07 17.3-115.02-21.8c-15.45-2.2-23.3 8.29-24.99 10.91-5.03 7.87-5.06 17.68-.03 25.59L94.65 279.1c11.31 16.25 31.81 23.94 50.99 19.08l190.3-47.88v50.891l-48.11 19.25c-20.27 9.83-17.32 34.7-1.13 42.64l32.55 13.42-37.49 30.25c-17.69 17.21-4.07 41.25 15.4 41.25h208.98c24.84 0 48.64-11.81 63.66-31.59l56.93-74.89c12.5-16.47 16.46-38.11 10.62-57.91l-7.4-25.16c-5.93-20.28-24.87-34.45-46.02-34.45h-29.18c-10.53 0-20.93 3.55-29.27 9.97L496.86 256H479.9v-8.37c0-19.74 25.77-34.4 55.61-51.38zM41.72 147.38L170 171.7l51.96 74.43-84.07 21.02c-6.41 1.5-13.25-.97-17-6.36zm127.18-33.1l177.619 23.98c-1.92 6.37-10.6 31.1-10.6 79l-80.79 20.5zM506.89-32c56.24 0 116.74 49.24 97.38 119.1-10.99 39.44-48.39 60.74-84.57 81.33-36.93 21-71.8 40.85-71.8 79.19V272c0 8.84 7.16 16 16 16h38.402c3.001 0 7.368-1.482 9.748-3.31l32.96-25.36c2.85-2.19 6.19-3.33 9.75-3.33h29.18c7.03 0 13.34 4.72 15.34 11.47l7.4 25.19c2.96 10.09.94 21.1-5.44 29.48l-56.92 74.91c-9 11.87-23.28 18.95-38.18 18.95H321.151l39.22-31.55c4.4-3.55 6.62-9.16 5.81-14.75-.81-5.59-4.53-10.34-9.75-12.5l-36.71-15.09 38.15-15.23a15.987 15.987 0 0 0 10.06-14.86V210.19c0-67.91 23.8-116.6 72.76-148.83 13-8.51 7.32-28.81-8.22-29.34C384.62 30.36 262.53 24.77 32-32h474.89z"/><glyph glyph-name="duck" unicode="" horiz-adv-x="576" d="M432 192h-15.99v-22.96c18.84-20.45 30.92-47.24 31.93-76.98C450.26 23.86 389.65-32 321.41-32h-99.94C110.13-32 17.76 49.23.401 155.66c-3.12 19.13 12.47 36.34 31.85 36.34h48.16c-.04 1.38-.41 2.66-.41 4.05 0 11.35 6.77 21.48 17.26 25.839 3.47 1.42 7.1 2.12 10.71 2.12 6.22 0 12.35-2.07 17.35-6.02 20.16-15.92 44.27-25.99 69.95-25.99H256v112c0 61.86 50.14 112 112 112 8.83 0 17.9-1.02 27.08-3.18 40.45-9.48 73.04-42.66 82.06-83.21.73-3.25.85-6.4 1.29-9.61H576c0-70.69-73.31-128-144-128zm46.73 96c-3.54-24.43-14.98-46.19-31.68-62.8 35.07 5.55 79.88 30.12 91.469 62.8h-59.79zm-86.27-140.64l-8.46 9.18v66.83c1.64.79.43.21 13.25 6.33C426.93 241.4 448 270.17 448 304c0 44.18-35.82 80-80 80s-80-35.82-80-80V160h-92.74c-33.79 0-61.62 8.94-82.88 26.59C117.2 127 167.24 80 228.04 80H248c4.42 0 8-3.58 8-8V56c0-4.42-3.58-8-8-8h-19.95c-69.14 0-126.88 47.83-143.09 112H32.14C47.42 69.31 126.5 0 221.47 0h99.94c26.07 0 51.6 10.94 70.04 30.019 16.55 17.13 25.25 38.78 24.5 60.96-.71 20.68-9.05 40.7-23.49 56.38zM368 320c8.84 0 16-7.16 16-16s-7.16-16-16-16-16 7.16-16 16 7.16 16 16 16z"/><glyph glyph-name="dungeon" unicode="" d="M240 270.38c5.23.89 10.52 1.62 16 1.62s10.77-.73 16-1.62V-24c0-4.42-3.58-8-8-8h-16c-4.42 0-8 3.58-8 8v294.38zm-64-41.51c8.16 12.3 19.22 22.32 32 29.77V-24c0-4.42-3.58-8-8-8h-16c-4.42 0-8 3.58-8 8v252.87zM512 152l.02-63.98c0-9-2.99-17.31-8.02-24 5.03-6.69 8.02-15 8.02-24v-64c0-22.05-17.94-40-40-40h-64c-22.06 0-40 17.95-40 40v64c0 9 2.99 17.31 8.02 24-5.03 6.69-8.02 15-8.02 24v64.05c0 7.28 3.53 17.93 7.88 23.77a39.98 39.98 0 0 0-8.04 21.96c-.71 12.53-3.74 25.11-9.02 37.39-2.66 6.19-3.68 12.68-3.2 18.97a40.2 40.2 0 0 0-15.79 11.05c-7.3 8.34-15.78 15.54-25.22 21.41a39.997 39.997 0 0 0-13.44 13.77c-3.15-.78-6.42-1.18-9.78-1.18-3.37 0-6.74.42-10.02 1.26-9.42 2.41-17.49 3.53-25.41 3.53-7.91 0-15.97-1.12-25.39-3.53a40.27 40.27 0 0 0-10.01-1.26c-3.35 0-6.63.41-9.77 1.18a39.938 39.938 0 0 0-13.44-13.78 112.424 112.424 0 0 1-25.21-21.41 40.191 40.191 0 0 0-15.78-11.05c.47-6.29-.54-12.78-3.2-18.97-5.28-12.28-8.31-24.86-9.02-37.4-.367-6.74-3.969-16.577-8.04-21.96 4.95-6.66 7.88-14.9 7.88-23.82V88c0-9-2.99-17.31-8.02-24 5.03-6.69 8.02-15 8.02-24v-64c0-22.05-17.94-40-40-40H40C17.94-64 0-46.05 0-24v64c0 9 2.99 17.31 8.02 24C2.99 70.69 0 79 0 88v64.055c0 7.422 3.655 18.235 8.16 24.135C2.7 183.5-.17 192.55.18 201.67c1.33 35.21 9.77 69.18 25.09 100.99 4.49 9.32 12.47 16.4 21.94 19.99-.86 10.14 2.16 20.27 8.5 28.25 21.34 26.86 47.37 48.84 77.37 65.34 5.86 3.22 12.5 4.92 19.19 4.92 3.45 0 6.83-.45 10.09-1.31 5.17 8.82 13.56 15.38 23.39 18.2 22.96 6.6 46.6 9.95 70.25 9.95s47.29-3.35 70.24-9.95c9.85-2.82 18.23-9.38 23.4-18.2 3.26.86 6.64 1.31 10.09 1.31 5.644-.007 14.241-2.216 19.19-4.93 29.99-16.5 56.02-38.48 77.36-65.33 6.35-7.98 9.37-18.12 8.51-28.26 9.46-3.58 17.45-10.67 21.94-19.99 15.33-31.8 23.77-65.78 25.09-100.971.35-9.13-2.52-18.18-7.98-25.49A39.796 39.796 0 0 0 512 152zM112-24v64c0 4.42-3.58 8-8 8H40c-4.42 0-8-3.58-8-8v-64c0-4.42 3.58-8 8-8h64c4.42 0 8 3.58 8 8zm0 112v64c0 4.42-3.58 8-8 8H40c-4.42 0-8-3.58-8-8V88c0-4.42 3.58-8 8-8h64c4.42 0 8 3.58 8 8zm11.78 159.82c1.55 3.6.37 7.72-2.95 9.8l-55.04 34.4a8.202 8.202 0 0 1-4.37 1.25c-3 0-5.93-1.61-7.32-4.49-12.97-26.92-20.75-56.77-21.94-88.3-.17-4.57 3.68-8.47 8.25-8.47h64.06c4.23 0 7.5 3.36 7.74 7.58.96 17.07 5.13 33.24 11.57 48.23zm56.7 65.97c3.27 2.03 4.71 5.98 3.31 9.58L160 383.94c-1.27 3.25-4.45 5.24-7.72 5.24-1.28 0-2.57-.3-3.77-.96-21.863-12.038-52.206-37.67-67.73-57.21-2.99-3.76-1.9-9.43 2.17-11.97l55-34.38c1.28-.8 2.69-1.18 4.08-1.18 2.24 0 4.46.98 6.05 2.8 7.806 8.93 22.32 21.255 32.4 27.51zm118.38 22.33l23.73 60.41c1.73 4.39-.64 9.47-5.17 10.77-19.53 5.61-40.11 8.7-61.42 8.7s-41.89-3.09-61.4-8.69c-4.53-1.3-6.89-6.38-5.17-10.77l23.73-60.41c1.21-3.09 4.23-4.92 7.44-4.92.69 0 1.39.08 2.09.26 11.76 3 22.51 4.52 33.3 4.52 10.73 0 21.5-1.5 33.33-4.52.69-.18 1.39-.26 2.09-.26 3.21 0 6.24 1.83 7.45 4.91zm75.19-51.47l55 34.37c4.07 2.54 5.16 8.21 2.17 11.97-15.524 19.54-45.867 45.17-67.73 57.21-1.2.65-2.49.96-3.77.96-3.26 0-6.45-2-7.72-5.24l-23.79-60.57c-1.4-3.58.04-7.53 3.31-9.57 10.075-6.26 24.59-18.584 32.4-27.51 1.59-1.82 3.8-2.8 6.05-2.8 1.4 0 2.8.38 4.08 1.18zm14.17-36.83c6.44-15 10.61-31.16 11.58-48.23.24-4.22 3.51-7.58 7.74-7.58h64.06c4.57 0 8.42 3.9 8.25 8.47-1.19 31.53-8.97 61.39-21.94 88.3-1.38 2.88-4.32 4.49-7.32 4.49h-.023c-1.3 0-3.246-.56-4.347-1.25l-55.04-34.4c-3.33-2.08-4.51-6.19-2.96-9.8zM480-24v64c0 4.42-3.58 8-8 8h-64c-4.42 0-8-3.58-8-8v-64c0-4.42 3.58-8 8-8h64c4.42 0 8 3.58 8 8zm0 112v64c0 4.42-3.58 8-8 8h-64c-4.42 0-8-3.58-8-8V88c0-4.42 3.58-8 8-8h64c4.42 0 8 3.58 8 8zM304 258.64c12.78-7.45 23.84-17.47 32-29.77V-24c0-4.42-3.58-8-8-8h-16c-4.42 0-8 3.58-8 8v282.64z"/><glyph glyph-name="elephant" unicode="" horiz-adv-x="640" d="M512 416.03c70.69 0 128-57.3 128-128v-208c0-46.87-40.51-84.46-88.36-79.58C510.02 4.69 480 42.91 480 84.75v11.27c0 17.67 14.33 32 32 32h32v32h-96V-32c0-17.67-14.33-32-32-32h-64c-17.67 0-32 14.33-32 32v80.009c-76.93-38.47-111.57-24.21-160 0v-80.01c0-17.67-14.33-32-32-32H64c-17.67 0-32 14.33-32 32V96.01H0v128.01c0 106.05 85.96 192.01 192 192.01h124.44c13.05 13.74 37.47 31.97 75.55 31.97 45.17 0 68.55-26.16 74.2-31.97H512zM416-32v195.77c-36.82 10.53-64 44.11-64 84.26-20.31 8.48-37.69 23.34-49.22 42.53-15.36 25.6-18.9 55.99-9.94 85.47.85 2.81 2.45 5.29 3.55 8H192c-88.22 0-160-71.78-160-160.01v-96.01h32V-32h64V99.79l46.31-23.16c54.91-27.46 76.56-27.41 131.38 0L352 99.79V-32h64zM608 80.01v208.01c0 52.94-43.06 96.01-96 96.01h-59.31c-13.98 14.36-27.84 31.97-60.7 31.97-33.58 0-59.95-21.02-68.53-49.28-13.03-42.88 12.12-77.16 40.87-89.17l19.67-8.21v-21.32c0-30.88 25.12-56 56-56h136V80.01c0-8.83-7.19-16-16-16s-16 7.17-16 16v16h-32v-16c0-26.47 21.53-48 48-48s48 21.53 48 48zm-80 240.02c8.84 0 16-7.16 16-16s-7.16-16-16-16-16 7.16-16 16 7.16 16 16 16z"/><glyph glyph-name="eye-evil" unicode="" horiz-adv-x="640" d="M627.03 208.92c17.29-4.69 17.29-29.15.01-33.84L514.88 144.7c-4.73-6.48-9.98-13.22-15.86-20.18 1.37-2.13 55.2-88.17 55.2-88.17 8.9-14.27-6.03-31.38-22.45-25.43L412.12 54.24c-9.74-4.86-20.04-9.01-30.85-12.44l-44.39-95.07C333.54-60.42 326.77-64 320-64s-13.54 3.58-16.87 10.73L258.74 41.8c-10.81 3.43-21.12 7.58-30.85 12.44L108.241 10.92C91.861 5 76.861 22.04 85.791 36.35c0 0 53.83 86.04 55.2 88.17-5.88 6.96-11.14 13.7-15.86 20.18L12.97 175.08c-17.29 4.69-17.29 29.16 0 33.84l112.15 30.38a358.96 358.96 0 0 0 15.92 20.25c-1.37 2.1-55.26 88.1-55.26 88.1-7.69 12.31 2.35 26.63 15.72 26.63 4.849 0-3.47 2.49 126.39-44.52 9.73 4.86 20.03 9.01 30.84 12.44l44.39 95.07C306.46 444.42 313.23 448 320 448s13.54-3.58 16.88-10.74l44.39-95.07c10.81-3.43 21.11-7.58 30.84-12.44l119.649 43.32c16.41 5.95 31.35-11.16 22.45-25.42 0 0-53.89-85.99-55.26-88.1 5.9-6.98 11.18-13.75 15.92-20.25zm-131.39-36.27L567.09 192l-71.46 19.34c-15.02 20.6-12.65 17.51-36.49 45.72l45.95 72.32-95-34.4c-24.8 12.39-24.06 12.12-51.88 20.96L320 397.78l-38.22-81.83c-27.88-8.86-27.19-8.63-51.88-20.96l-95 34.4 45.95-72.32c-23.94-28.33-21.56-25.24-36.49-45.72L72.91 192l71.45-19.35c14.98-20.56 12.62-17.48 36.32-45.52L134.9 54.62l95 34.39c24.81-12.39 24.13-12.14 51.89-20.951L320-13.781l38.21 81.84c27.78 8.82 27.12 8.57 51.89 20.95l95-34.39-45.78 72.51c23.67 28.01 21.34 24.97 36.32 45.52zM320 234.67c32.82 0 62.7 8.79 86.45 23.08C417.52 241.23 424 221.38 424 200c0-57.44-46.56-104-104-104s-104 46.56-104 104c0 21.38 6.48 41.23 17.55 57.76 23.75-14.3 53.63-23.09 86.45-23.09zM320 128c39.7 0 72 32.3 72 72 0 5.03-.52 10-1.54 14.85-12.42-4.53-25.52-7.49-38.91-9.5.07-.94.45-1.72.45-2.69 0-28.45-32-42.67-32-42.67s-32 14.22-32 42.67c0 .98.37 1.75.45 2.69-13.39 2.02-26.49 4.97-38.91 9.5A72.065 72.065 0 0 1 248 200c0-39.7 32.3-72 72-72z"/><glyph glyph-name="file-csv" unicode="" horiz-adv-x="384" d="M369.9 350.02c9-9 14.1-21.3 14.1-33.99V-16.01C384-42.5 362.5-64 336.01-64H47.99C21.5-64 0-42.5 0-16.01v415.92C0 426.4 21.5 447.9 47.99 448h204.14c12.69 0 24.889-5.1 33.889-14.1zm-113.87 65.39v-95.48h95.48c-.7 2.8-2.1 5.3-4.2 7.4l-83.88 83.88c-2.1 2.1-4.6 3.5-7.4 4.2zm95.98-431.42V288H248.031c-13.3 0-24 10.63-24 23.93V416H47.991c-8.8 0-16-7.29-16-16.09V-16.01c0-8.8 7.2-16 16-16h288.02c8.8 0 16 7.2 16 16zM120 192c4.42 0 8-3.58 8-8v-16c0-4.42-3.58-8-8-8h-8c-8.84 0-16-7.16-16-16v-32c0-8.84 7.16-16 16-16h8c4.42 0 8-3.58 8-8V72c0-4.42-3.58-8-8-8h-8c-26.51 0-48 21.49-48 48v32c0 26.51 21.49 48 48 48h8zm112 0h16c4.42 0 8-3.58 8-8v-20.8c0-20.27 5.7-40.18 16-56.88 10.3 16.71 16 36.61 16 56.88V184c0 4.42 3.58 8 8 8h16c4.42 0 8-3.58 8-8v-20.8c0-35.48-12.87-68.89-36.28-94.09C280.7 65.86 276.45 64 272 64s-8.7 1.86-11.72 5.11C236.88 94.31 224 127.72 224 163.2V184c0 4.42 3.58 8 8 8zm-52.55-42.47l21.9-18.77c8.47-7.22 13.33-17.48 13.33-28.14 0-21.29-19.02-38.62-42.41-38.62H160c-4.42 0-8 3.58-8 8v16c0 4.42 3.58 8 8 8h12.25c5.96 0 10.41 3.5 10.41 6.62 0 1.29-.74 2.65-2.12 3.84l-21.89 18.77c-8.47 7.22-13.33 17.48-13.33 28.14 0 21.29 19.02 38.62 42.41 38.62H200c4.42 0 8-3.58 8-8v-16c0-4.42-3.58-8-8-8h-12.26c-5.96 0-10.41-3.5-10.41-6.62 0-1.29.74-2.65 2.12-3.84z"/><glyph glyph-name="fist-raised" unicode="" horiz-adv-x="384" d="M350.82 280.06C370.99 262.46 384 236.87 384 208v-88.23c0-33.95-13.49-66.51-37.49-90.51L320 2.75V-56c0-4.42-3.58-8-8-8h-16c-4.42 0-8 3.58-8 8v72l35.94 35.94A95.783 95.783 0 0 1 352 119.68V208c0 35.35-28.65 64-64 64h-80.14c-8.78 0-15.9-7.12-15.9-15.9v-.74c0-26.15 21.2-47.36 47.36-47.36h40.67c4.42 0 8-3.58 8-8v-16.26c0-4.26-3.57-7.71-7.82-7.93-44.56-2.27-64.21-24.69-96.12-72.56l-6.31-9.47c-1.31-1.967-4.29-3.564-6.653-3.564-1.337 0-3.326.602-4.437 1.344l-13.31 8.88c-1.968 1.31-3.565 4.29-3.565 6.654 0 1.337.603 3.324 1.345 4.436 23.35 35.03 37.6 54.98 57.27 70.77-21.28 9.02-30.38 23.35-30.62 23.65C169.09 197.34 157.16 192 144 192h-16c-12.34 0-23.49 4.8-32 12.48C87.49 196.81 76.34 192 64 192H48c-5.64 0-10.97 1.16-16 2.95v-45.93c0-25.595 14.685-61.058 32.78-79.16L96 38.63V-56c0-4.42-3.58-8-8-8H72c-4.42 0-8 3.58-8 8v81.38L42.15 47.25A143.924 143.924 0 0 0 0 149.02V336c0 26.51 21.49 48 48 48h16c6.32 0 12.32-1.29 17.85-3.52C87.38 400.88 105.88 416 128 416h16c6.32 0 12.32-1.29 17.85-3.52C167.38 432.88 185.88 448 208 448h16c22.12 0 40.62-15.12 46.15-35.52 5.53 2.23 11.53 3.52 17.85 3.52h16c26.51 0 48-21.49 48-48v-80c0-2.76-.72-5.31-1.18-7.94zM80 240v96c0 8.84-7.16 16-16 16H48c-8.84 0-16-7.16-16-16v-96c0-8.84 7.16-16 16-16h16c8.84 0 16 7.16 16 16zm80 0v128c0 8.84-7.16 16-16 16h-16c-8.84 0-16-7.16-16-16V240c0-8.84 7.16-16 16-16h16c8.84 0 16 7.16 16 16zm80 64v96c0 8.84-7.16 16-16 16h-16c-8.84 0-16-7.16-16-16v-98.85c5.05 1.75 10.39 2.85 15.97 2.85H240zm80-5.88V368c0 8.84-7.16 16-16 16h-16c-8.84 0-16-7.16-16-16v-64h16c11.28 0 21.95-2.31 32-5.88z"/><glyph glyph-name="flame" unicode="" horiz-adv-x="384" d="M192 448c111.78-100.86 192-220.6 192-300.55C384 22.95 305.05-64 192-64S0 22.95 0 147.45C0 227.08 79.7 346.67 192 448zm0-480c95.7 0 160 72.12 160 179.45 0 63.07-63.42 164.069-160 256.83C95.42 311.53 32 210.53 32 147.45 32 40.12 96.3-32 192-32zm60.1 267.1c33.38-28.54 67.9-58.04 67.9-117.21C320 52.89 262.58 0 192 0S64 52.89 64 117.89c0 44.13 25.84 71.51 34.34 79.77A8 8 0 0 0 104 200c2.05 0 4.1-.78 5.66-2.34A7.983 7.983 0 0 0 112 192v-40c0-30.93 25.07-56 56-56s56 25.07 56 56c0 72-112.64 64.77-39.43 164.33 1.99 2.72 4.81 3.67 7.38 3.67 1.15 0 2.24-.19 3.2-.49 1.61-.53 5.38-2.24 5.38-6.78 0-33.55 25.05-54.97 51.57-77.63zM192 32c52.94 0 96 38.53 96 85.89 0 39.54-19.82 60.83-46.51 84.12C249.92 188.85 256 172.66 256 152c0-48.52-39.48-88-88-88-28.15 0-53.26 13.29-69.38 33.93C108.71 60.16 146.74 32 192 32z"/><glyph glyph-name="flask-poison" unicode="" horiz-adv-x="416" d="M288 288.01C363.15 256.65 416 182.52 416 96h-.3c.1-77.22-40.22-124.81-53.14-139.15C350.47-56.56 333.04-64 314.98-64H100.94c-17.79 0-35.05 7.13-47 20.3C20.43-6.79 0 42.21 0 96c0 86.52 52.85 160.65 128 192.01V416h-24c-4.42 0-8 3.58-8 8v16c0 4.42 3.58 8 8 8h208c4.42 0 8-3.58 8-8v-16c0-4.42-3.58-8-8-8h-24V288.01zm50.79-309.73c20.53 22.77 44.98 61.69 44.91 117.68l-.01 10.53c-3.94 66.97-45.45 125.89-108.01 151.99L256 266.69V416h-96V266.68l-19.68-8.21C74.52 231.02 32 167.25 32 96c0-43.8 16.21-85.769 45.64-118.2 5.65-6.229 14.15-9.8 23.3-9.8h214.04c9.25 0 17.92 3.75 23.81 10.281zM176 144c8.84 0 16-7.16 16-16s-7.16-16-16-16-16 7.16-16 16 7.16 16 16 16zm64 0c8.84 0 16-7.16 16-16s-7.16-16-16-16-16 7.16-16 16 7.16 16 16 16zm-32 80c70.69 0 128-42.98 128-96 0-30.18-18.89-56.77-48-74.3V16c0-8.84-7.16-16-16-16H144c-8.84 0-16 7.16-16 16v37.7C98.89 71.22 80 97.81 80 128c0 53.02 57.31 96 128 96zm63.49-142.89C292.15 93.55 304 110.64 304 128c0 34.69-43.96 64-96 64s-96-29.31-96-64c0-17.36 11.85-34.45 32.51-46.89L160 71.78V32h96v39.78z"/><glyph glyph-name="flask-potion" unicode="" horiz-adv-x="416" d="M416 96h-.3c.1-77.22-40.22-124.81-53.14-139.15C350.47-56.56 333.04-64 314.98-64H100.94c-17.79 0-35.05 7.13-47 20.3C20.43-6.79 0 42.21 0 96c0 86.52 52.85 160.65 128 192.01V416h-24c-4.42 0-8 3.58-8 8v16c0 4.42 3.58 8 8 8h208c4.42 0 8-3.58 8-8v-16c0-4.42-3.58-8-8-8h-24V288.01C363.15 256.65 416 182.52 416 96zM140.32 258.47c-56.8-23.69-96.1-74.51-105.83-133.79l16.6 9.29c61.82 34.56 135.63 34.56 197.44 0 25.68-14.38 54.43-21.97 83.09-21.97h51.349c-5.86 64.64-46.48 121.1-107.29 146.47l-19.68 8.21V416h-96V266.68zM338.79-21.72C364.26 6.54 379.16 42.35 382.61 80h-50.99c-34.12 0-68.24 9-98.71 26.03-51.97 29.08-114.1 29.11-166.19 0L32.83 87.07C34.9 46.56 50.24 7.99 77.64-22.2c5.65-6.23 14.15-9.8 23.3-9.8h214.04c9.25 0 17.92 3.75 23.81 10.28z"/><glyph glyph-name="ghost" unicode="" horiz-adv-x="384" d="M192 448c106.04 0 192-85.96 192-192V-15.97c0-9.64-7.9-16.03-16.12-16.03-3.93 0-7.94 1.46-11.2 4.72L331.76-8.75c-2.346 1.744-6.621 3.16-9.545 3.16-3.97 0-9.33-2.41-11.965-5.38L267.3-59.32c-3.12-3.13-7.22-4.69-11.31-4.69s-8.19 1.57-11.31 4.69l-40.72 45.85c-3.18 3.59-7.57 5.38-11.96 5.38s-8.78-1.8-11.96-5.38l-40.72-45.85c-3.12-3.13-7.22-4.69-11.31-4.69s-8.19 1.57-11.31 4.69L73.75-10.97a15.96 15.96 0 0 1-11.97 5.38c-3.33 0-6.68-1.04-9.54-3.16L27.32-27.28C24.06-30.54 20.05-32 16.12-32 7.89-32 0-25.61 0-15.97v263.92c0 105.13 81.01 196.81 186.09 199.96 1.98.06 3.95.09 5.91.09zM352 16.08V256c0 88.22-71.78 160-160 160l-4.95-.08C101.56 413.36 32 338 32 247.95V16.08l1.14.84c8.34 6.2 18.24 9.48 28.63 9.48 11.904 0 27.983-7.222 35.89-16.12L128-23.87l28.11 31.65c9.1 10.24 22.18 16.12 35.89 16.12s26.79-5.87 35.89-16.12L256-23.87l30.34 34.15a48.056 48.056 0 0 0 35.89 16.12c10.4 0 20.3-3.27 28.64-9.48zM128 288c17.67 0 32-14.33 32-32s-14.33-32-32-32-32 14.33-32 32 14.33 32 32 32zm128 0c17.67 0 32-14.33 32-32s-14.33-32-32-32-32 14.33-32 32 14.33 32 32 32z"/><glyph glyph-name="hammer" unicode="" horiz-adv-x="576" d="M573.65 247.08c1.296-1.294 2.347-3.83 2.347-5.66s-1.051-4.366-2.347-5.66L448.91 111.31c-3.13-3.12-8.21-3.12-11.34 0l-11.34 11.31c-1.296 1.292-2.347 3.825-2.347 5.655s1.051 4.364 2.347 5.655l17.01 16.97-52.98 52.86c-13.28-3.5-27.28-2.26-40.12 2.8L117.01-42.58C103.68-56.83 85.64-64 67.59-64c-17.27 0-34.57 6.56-47.79 19.75C-7.24-17.27-6.48 26.7 21.47 52.74l247.03 230.1c-9.28 15.1-11.82 33.09-7.4 49.8l-68.66 68.5C223.75 432.38 264.8 448 305.839 448s82.08-15.62 113.391-46.86l45.36-45.25c16.75-16.71 22.03-40.3 16.39-61.61l52.98-52.86 17.01 16.97c3.13 3.12 8.21 3.12 11.34 0zM93.57-20.74l230.01 245.79-33.85 33.77L43.36 29.35c-7.11-6.62-11.11-15.6-11.28-25.3s3.53-18.81 10.4-25.67C49.19-28.31 58.11-32 67.59-32c9.96 0 19.19 4 25.98 11.26zm372.35 194.28l45.37 45.25-52.98 52.86-13.04 13.01 4.71 17.79c2.98 11.27-.03 22.79-8.06 30.8l-45.36 45.26C372.32 402.68 340.11 416 305.84 416c-23.3 0-45.66-6.16-65.2-17.7l43.14-43.05 13.04-13.01-4.71-17.79c-2.98-11.27.03-22.79 8.06-30.8l51.03-50.91c8.03-8.01 19.57-11.02 30.87-8.04l17.83 4.7 13.04-13.01z"/><glyph glyph-name="hammer-war" unicode="" horiz-adv-x="384" d="M352.07 416c17.29 0 31.93-14.05 31.94-32.01V192.01c0-17.96-14.64-32.01-31.94-32.01-1.76 0-3.54.14-5.33.44L240 178.23V-48c0-8.839-7.16-16-16-16h-64c-8.84 0-16 7.161-16 16v226.23L37.27 160.44c-1.8-.3-3.58-.44-5.33-.44C14.64 160 0 174.05 0 192.01v191.98C0 401.95 14.64 416 31.93 416c1.75 0 3.54-.14 5.33-.44L144 397.77V432c0 8.84 7.16 16 16 16h64c8.84 0 16-7.16 16-16v-34.23l106.74 17.79c1.8.3 3.58.44 5.33.44zM176 416v-23.57l16-2.67 16 2.67V416h-32zm32-448v215.57l-16 2.67-16-2.67V-32h32zm144 224.01v191.98L197.26 358.2l-5.26-.88-5.26.88L32 383.99V192.01l154.74 25.79 5.26.88 5.26-.88z"/><glyph glyph-name="hand-holding-magic" unicode="" horiz-adv-x="576" d="M558.3 114.35c11.71-10.57 18.15-25.62 17.67-41.29-.48-15.67-7.77-30.27-20-40.03L455.14-47.64A74.62 74.62 0 0 0 408.51-64H8c-4.42 0-8 3.58-8 8v16c0 4.42 3.58 8 8 8h400.49c8.26 0 20.2 4.189 26.65 9.35l100.83 80.66c10.13 8.08 10.92 23.51.87 32.59-3.87 3.5-8.79 5.16-13.78 5.16-5.17 0-10.41-1.78-14.63-5.16l-61.56-49.25A42.658 42.658 0 0 0 420.22 32H240c-8.84 0-16 7.16-16 16s7.16 16 16 16h88c13.25 0 24 10.75 24 24 0 13.26-10.75 24-24 24H181.325c-11.775 0-28.977-5.734-38.397-12.8L95.999 64H8c-4.42 0-8 3.58-8 8v16c0 4.42 3.58 8 8 8h77.33l38.4 28.8a96.025 96.025 0 0 0 57.6 19.2h144.24c28.21 0 53.81-19.8 57.83-47.73 1.67-11.61-.25-22.69-4.81-32.27h41.63c2.064.002 5.048 1.051 6.66 2.34l61.57 49.25c9.81 7.85 22.11 12.17 34.62 12.17 13.14 0 25.65-4.76 35.23-13.41zM208 224c-42.62 0-80 37.39-80 80v64c0 44.11 35.87 80 80 80h160c44.12 0 80-35.89 80-80v-70.67c-.44-57.06-42.6-106.55-99.69-121.33l20.85 20.57c30.21 29.79 46.84 66.08 46.84 102.2V368c0 26.47-21.53 48-48 48H208c-26.47 0-48-21.53-48-48v-64c0-22.66 20.53-48 48-48h72c22.06 0 40 17.94 40 40s-17.94 40-40 40h-15.31c-30.81 0-54.97-6.75-72.69-14.61 12.81 27.83 41 46.61 72.69 46.61H280c39.69 0 72-32.3 72-72s-32.31-72-72-72h-72z"/><glyph glyph-name="hanukiah" unicode="" horiz-adv-x="624" d="M232 320c-13.25 0-24 11.95-24 26.67S232 400 232 400s24-38.6 24-53.33c0-14.73-10.75-26.67-24-26.67zm160 0c-13.25 0-24 11.95-24 26.67S392 400 392 400s24-38.6 24-53.33c0-14.73-10.75-26.67-24-26.67zm-8-32h16c4.42 0 8-3.58 8-8V144h-32v136c0 4.42 3.58 8 8 8zm64 0h16c4.42 0 8-3.58 8-8V144h-32v136c0 4.42 3.58 8 8 8zm8 32c-13.25 0-24 11.95-24 26.67S456 400 456 400s24-38.6 24-53.33c0-14.73-10.75-26.67-24-26.67zm64 0c-13.25 0-24 11.95-24 26.67S520 400 520 400s24-38.6 24-53.33c0-14.73-10.75-26.67-24-26.67zm-8-32h16c4.42 0 8-3.58 8-8V144h-32v136c0 4.42 3.58 8 8 8zm-200 80c-13.25 0-24 11.95-24 26.67S312 448 312 448s24-38.6 24-53.33c0-14.73-10.75-26.67-24-26.67zm-88-80h16c4.42 0 8-3.58 8-8V144h-32v136c0 4.42 3.58 8 8 8zm384 0c4.42 0 8-3.58 8-8V144c0-44.18-35.82-80-80-80H328v-96h200c4.42 0 8-3.58 8-8v-16c0-4.42-3.58-8-8-8H96c-4.42 0-8 3.58-8 8v16c0 4.42 3.58 8 8 8h200v96H88C43.82 64 8 99.82 8 144v136c0 4.42 3.58 8 8 8h16c4.42 0 8-3.58 8-8V144c0-26.51 21.49-48 48-48h208v232c0 4.42 3.58 8 8 8h16c4.42 0 8-3.58 8-8V96h208c26.51 0 48 21.49 48 48v136c0 4.42 3.58 8 8 8h16zM48 346.67C48 331.94 37.25 320 24 320S0 331.95 0 346.67 24 400 24 400s24-38.61 24-53.33zM600 400s24-38.6 24-53.33c0-14.73-10.75-26.67-24-26.67s-24 11.95-24 26.67S600 400 600 400zM96 288h16c4.42 0 8-3.58 8-8V144H88v136c0 4.42 3.58 8 8 8zm8 32c-13.25 0-24 11.95-24 26.67S104 400 104 400s24-38.6 24-53.33c0-14.73-10.75-26.67-24-26.67zm64 0c-13.25 0-24 11.95-24 26.67S168 400 168 400s24-38.6 24-53.33c0-14.73-10.75-26.67-24-26.67zm-8-32h16c4.42 0 8-3.58 8-8V144h-32v136c0 4.42 3.58 8 8 8z"/><glyph glyph-name="hat-witch" unicode="" horiz-adv-x="576" d="M573.99 8.11c2.96-3.4 2.62-8.68-.84-11.55C525.98-42.55 466.61-64 405.08-64H170.92C109.39-64 50.01-42.55 2.85-3.44-.61-.57-.95 4.72 2.01 8.11l10.48 12.04c2.83 3.25 7.65 3.54 10.97.8C38.89 8.2 56.14-1.61 74.07-9.89l132.89 291.56c9.408 21.162 33.362 47.662 53.47 59.15l166.34 102.96a31.934 31.934 0 0 0 15.87 4.22h.027c7.313 0 17.444-4.198 22.614-9.37l69.35-72.64a32.012 32.012 0 0 0 7.73-32.75L512.001 256l-14.04 42.12a32.005 32.005 0 0 1-30.36 21.88h-39.2c-13.78 0-26-8.809-30.35-21.87l-6.35-19.04c-1.812-5.438-3.284-14.505-3.284-20.239 0-7.25 2.318-18.546 5.174-25.21L502.11-9.81c17.86 8.27 35.05 18.05 50.42 30.75 3.32 2.75 8.14 2.45 10.97-.8zM236.21 268.67L130.03 35.7c13.19-2.26 26.54-3.71 40.1-3.71H224v4c0 15.44 12.56 28 28 28h72c15.44 0 28-12.56 28-28v-4h53.88c13.82 0 27.41 1.54 40.83 3.88l-82.35 184.729c-9.46 22.06-10.46 46.27-3.02 68.6l6.35 19.04c8.026 24.156 35.198 43.76 60.652 43.76h39.328c13.064 0 31.71-6.908 41.62-15.42l2.68 6.81-69.32 72.6-165.37-102.38c-18.84-10.79-32.71-26.13-41.07-44.94zM103.99-21.41C125.58-27.93 147.96-32 170.92-32H224V0h-53.88c-18.19 0-36.03 2.47-53.61 6.06zM256-32h64v64h-64v-64zm96 0h53.07c23.03 0 45.5 4.09 67.14 10.65L459.94 6.17C442.21 2.52 424.22 0 405.87 0H352v-32z"/><glyph glyph-name="hat-wizard" unicode="" d="M288 256l32-16-32-16-16-32-16 32-32 16 32 16 16 32zM504-32c4.42 0 8-3.58 8-8v-16c0-4.42-3.58-8-8-8H8c-4.42 0-8 3.58-8 8v16c0 4.42 3.58 8 8 8h24l129.46 288.07c12.91 28.74 34.76 52.65 62.37 68.25L442.67 448l-65.7-194.9c-2.114-6.27-3.831-16.73-3.831-23.349 0-8.375 2.707-21.408 6.04-29.09L480-32h24zM67.08-32H176l-21.34 42.67L98.8 38.6zM192 7.55l13.49 26.97L232.45 48l-26.97 13.49L192 88.45l-13.49-26.97L151.55 48l26.97-13.48zM208-32h237.12l-67.86 156.63L352 112l-16-32-16 32-32 16 32 16 16 32 16-32 21.53-10.76-23.7 54.7a104.936 104.936 0 0 0-3.17 75.38l39 115.7-146.08-82.55c-21.82-12.33-38.74-30.84-48.93-53.51L109.71 62.85l44.96 22.48L192 160l37.33-74.67L304 48l-74.67-37.33z"/><glyph glyph-name="head-side" unicode="" d="M509.21 173c9.4-21.16-6.09-45-29.25-45H448V64c0-35.35-28.65-64-64-64h-64v-56c0-4.42-3.58-8-8-8h-16c-4.42 0-8 3.58-8 8v88h96c17.64 0 32 14.36 32 32v96h63.97c-8.64 19.44-17.84 46.56-27.57 75.27-13.34 39.33-29.93 88.27-42.45 106.07C377.06 388.09 323.28 416 266.09 416h-66.08c-89.35 0-164.66-68.98-167.899-153.77-1.81-47.61 17.6-93.261 53.25-125.23l10.64-9.54V-56c0-4.42-3.58-8-8-8H72c-4.42 0-8 3.58-8 8v169.18C23.1 149.86-2.13 203.67.14 263.45 4.12 367.92 95.47 448 200.01 448h66.08c68.47 0 131.59-33.599 170.04-88.25 24.64-35.018 52.14-139.63 73.08-186.75zM352 256c0-17.67-14.33-32-32-32s-32 14.33-32 32 14.33 32 32 32 32-14.33 32-32z"/><glyph glyph-name="head-vr" unicode="" d="M480 384c17.67 0 32-14.33 32-32V224c0-17.67-14.33-32-32-32H293.43c-29.31 0-56.59 12.67-75.58 32.77-.67-.18-1.13-.77-1.85-.77H32c-17.67 0-32 14.33-32 32v64c0 15.84 11.71 28.39 26.82 30.96C61.92 409.3 127.59 448 200.01 448h34.08c57.51 0 110.95-23.98 149.42-64H480zM32 256h166.23c-3.21 8.47-5.6 17.34-6.1 26.84-.68 13.11 1.43 25.6 5.53 37.16H32v-64zm184.57 95.76C234.15 371.44 259.53 384 288 384h45.92c-29.03 20.21-63.53 32-99.82 32h-34.08c-53.89 0-102.11-25.42-132.94-64H216c.22 0 .35-.22.57-.24zM384 224v128h-96c-35.29 0-64-28.71-64-64s28.71-64 64-64h96zm96 0v128h-64V224h64zM46.19 192c9.03-20.59 21.91-39.51 39.18-55L96 127.46V-56c0-4.42-3.58-8-8-8H72c-4.42 0-8 3.58-8 8v169.18C40.33 134.41 22.12 161.46 11.26 192h34.93zM384 160h95.76c-.01-16.85-13.35-32-31.8-32H416V64c0-35.35-28.65-64-64-64h-32v-56c0-4.42-3.58-8-8-8h-16c-4.42 0-8 3.58-8 8v88h64c17.64 0 32 14.36 32 32v96z"/><glyph glyph-name="helmet-battle" unicode="" d="M510.28 224.63c3.86-15.05 1.16-30.91-7.41-43.51-8.99-13.23-23.53-21.12-38.89-21.12-3.3 0-6.49.42-9.59 1.11 7.39-45.62 19.22-81.5 24.72-104.64 3.43-14.43-3.59-29.37-16.32-35.24L271.98-64v256l80 16v16H159.99v-16l80-16V-64L49.19 21.23C36.46 27.1 29.44 42.04 32.87 56.47c5.5 23.14 17.33 59.02 24.72 104.64-3.09-.69-6.281-1.11-9.571-1.11-15.36 0-29.9 7.89-38.89 21.12-8.57 12.6-11.27 28.46-7.41 43.51l80.86 218.84c1.15 3.11 3.79 4.53 6.42 4.53 3.51 0 7.01-2.52 7.01-6.93V334.7C150.6 412.72 255.99 448 255.99 448s105.42-35.29 160-113.32v106.392c0 4.41 3.51 6.93 7.01 6.93 2.63 0 5.26-1.42 6.41-4.531zM64.01 211.11v89.78l-31.58-85.47c-1.14-5.76-.02-11.64 3.16-16.31 3.02-4.45 7.67-7.11 12.42-7.11 8.67 0 16 8.75 16 19.11zM303.99-14.66l143.87 64.25c-1.51 6.3-3.52 13.55-5.76 21.7-10.4 37.76-26.11 94.81-26.11 165.88 0 104.67-123.271 161.92-159.95 176.63C219.41 399 96 341.38 96 237.18c0-71.07-15.72-128.13-26.11-165.88-2.24-8.15-4.25-15.4-5.76-21.7L208-14.66v180.43l-80 16V256h255.99v-74.23l-80-16V-14.66zm172.42 213.77c3.17 4.67 4.3 10.54 3.16 16.3l-31.58 85.47v-89.77c0-10.36 7.33-19.11 16-19.11 4.75 0 9.4 2.66 12.42 7.11z"/><glyph glyph-name="hiking" unicode="" horiz-adv-x="384" d="M376 288c4.42 0 8-3.58 8-8V-56c0-4.42-3.58-8-8-8h-16c-4.42 0-8 3.58-8 8v218.95c-5.03-1.8-10.36-2.95-16-2.95h-53.58c-14.91 0-28.71 6.75-37.88 18.52l-1.52 1.95-5.02-20.06 48.53-31.8c20.96-15 33.47-39.33 33.47-65.08V-16c0-26.47-21.53-48-48-48s-48 21.53-48 48v71.03l-38.28 25.9-27.13-108.52a47.92 47.92 0 0 0-46.58-36.401c-3.9 0-7.81.48-11.61 1.43-25.66 6.39-41.35 32.47-34.97 58.2l36.78 147.08-80.26 22.95c-7.15 1.7-13.72 6.48-17.81 13.31-4 6.66-5.16 14.44-3.22 21.94l21.06 81.58c11.38 43.34 57.22 69.71 102 59.09l45.84-13.16c-11.78 13.24-18.24 29.5-18.24 47.57 0 19.58 7.28 37.2 21.04 50.96S204 448 223.58 448c19.57 0 37.19-7.28 50.95-21.04 13.76-13.76 21.04-31.39 21.04-50.96s-7.27-37.2-21.04-50.96c-4.39-4.38-9.28-7.86-14.39-10.9l1.4-1.4 1.22-1.56L305.84 256H336c5.64 0 10.97-1.16 16-2.95V280c0 4.42 3.58 8 8 8h16zM195.24 404.33c-7.77-7.77-11.66-17.23-11.66-28.33s3.9-20.56 11.67-28.33c7.77-7.78 17.22-11.67 28.33-11.67 11.1 0 20.56 3.9 28.33 11.67 7.78 7.77 11.67 17.23 11.67 28.33s-3.9 20.56-11.67 28.33c-7.77 7.78-17.22 11.67-28.33 11.67s-20.56-3.89-28.34-11.67zM31.92 192.91l.12.45.22-.53zm.75 2.98l75.82-21.67 26.28 105.101c1.696 6.823 6.203 17.132 10.06 23.01l-28.98 8.32c-27.46 6.58-55.96-9.59-62.9-36.2zm94.87-215.77l29.97 119.87-28.23 19.08-32.8-131.2c-2.12-8.56 3.07-17.25 11.66-19.39a16.2 16.2 0 0 1 3.87-.48c7.19 0 13.72 4.84 15.53 12.12zM336 192c8.84 0 16 7.16 16 16s-7.16 16-16 16h-45.77l-52.69 67.48c-8.1 8.08-18.81 12.52-30.22 12.52h-.073c-18.431 0-36.991-14.52-41.427-32.41l-26.94-107.72c-.263-1.053-.476-2.788-.476-3.873 0-4.543 3-10.375 6.696-13.017l104.18-70.42c4.22-3 6.72-7.87 6.72-13.03V-16c0-8.84 7.16-16 16-16s16 7.16 16 16v79.53c0 15.45-7.5 30.04-20.09 39.06l-67.04 43.88c.25.64.91.97 1.08 1.65l25.96 103.86 41.88-53.81c3.03-3.89 7.68-6.17 12.62-6.17H336z"/><glyph glyph-name="hippo" unicode="" horiz-adv-x="640" d="M584.11 351.71c32.13-1.69 55.89-31.12 55.89-63.29V192c0-17.67-14.33-32-32-32v-48c0-8.84-7.16-16-16-16h-64c-8.84 0-16 7.16-16 16v48h-96V0c0-17.67-14.33-32-32-32h-64c-17.67 0-32 14.33-32 32v59.42C263.34 52.24 236.44 48 208 48s-55.34 4.23-80 11.42V0c0-17.67-14.33-32-32-32H32C14.33-32 0-17.67 0 0v224c0 88.37 85.96 160 192 160 49.24 0 94.01-15.58 128-40.98V384c0 17.67 14.33 32 32 32h32c17.67 0 32-14.33 32-32 39.83 0 73.98-24.27 88.51-58.83 24.95 9.36 50.75 28.05 79.6 26.54zM384 0v161.62c-36.48 7.43-64 39.75-64 78.38v63.07l-19.16 14.31C270.98 339.71 232.32 352 192 352c-88.22 0-160-57.42-160-128V0h64v102.08c81.16-23.65 103.97-34.98 224 0V0h64zm192 128v32h-32v-32h32zm32 64v96.42c0 16.26-11.71 30.61-25.57 31.34-19.73.53-22.57-8-95.48-35.35l-11.93 28.36C465 336.6 441.83 352 416 352h-32v32h-32V240c0-26.47 21.53-48 48-48h208zm-176.19 96c8.84 0 16-7.16 16-16s-7.16-16-16-16-16 7.16-16 16 7.16 16 16 16z"/><glyph glyph-name="hockey-mask" unicode="" horiz-adv-x="448" d="M376.61 393.54C440.64 337.5 479.009 223.56 415.37 32 383.47-64 224-64 224-64S64.53-64 32.63 32C-31.01 223.56 7.36 337.5 71.39 393.54 112.87 429.85 168.43 448 224 448c55.56 0 111.13-18.15 152.61-54.46zM385 42.09c67.54 203.29 10.53 292.37-29.47 327.37C321.74 399.04 273.8 416 224 416s-97.75-16.96-131.53-46.54c-40-35-97.01-124.08-29.47-327.37C86.942-29.98 222.64-32 224-32c37.941.12 140.92 13.66 161 74.09zM272 336c-8.83 0-16 7.16-16 16s7.16 16 16 16 16-7.16 16-16-7.16-16-16-16zm-96 0c-8.84 0-16 7.16-16 16s7.16 16 16 16 16-7.16 16-16-7.16-16-16-16zm16-304c8.84 0 16-7.16 16-16s-7.16-16-16-16-16 7.16-16 16 7.16 16 16 16zm0 64c8.84 0 16-7.16 16-16s-7.16-16-16-16-16 7.16-16 16 7.16 16 16 16zm0 64c8.84 0 16-7.16 16-16s-7.16-16-16-16-16 7.16-16 16 7.16 16 16 16zm-20 112c19.88 0 36-14.33 36-32 0-35.35-32.24-64-72-64-39.77 0-72 28.65-72 64 0 17.67 16.12 32 36 32h72zm-36-64c33.1 0 47.72 32 36 32h-72c-12.06 0 2.41-32 36-32zm88 112c8.84 0 16-7.16 16-16s-7.16-16-16-16-16 7.16-16 16 7.16 16 16 16zm32-288c8.84 0 16-7.16 16-16s-7.16-16-16-16-16 7.16-16 16 7.16 16 16 16zm0 64c8.84 0 16-7.16 16-16s-7.16-16-16-16-16 7.16-16 16 7.16 16 16 16zm0 64c8.84 0 16-7.16 16-16s-7.16-16-16-16-16 7.16-16 16 7.16 16 16 16zm92 112c19.88 0 36-14.33 36-32 0-35.35-32.24-64-72-64s-72 28.65-72 64c0 17.67 16.12 32 36 32h72zm-36-64c33.09 0 47.72 32 36 32h-72c-12.06 0 2.4-32 36-32z"/><glyph glyph-name="hood-cloak" unicode="" horiz-adv-x="576" d="M569.65-12.85C585.42-33.9 569.98-64 543.67-64H32.32C6.018-64-9.42-33.9 6.348-12.85 64.019 64.13 64.019 128 64.019 128v64c0 146.55 127.96 256 223.55 256h149.09c17.51 0 26.281-21.17 13.9-33.55l-39.75-39.75C465.62 315.05 511.98 276.03 511.98 192v-64s0-63.87 57.67-140.85zM191.98-32h191.979v160c0 52.94-43.06 96-95.99 96-52.93 0-95.99-43.06-95.99-96V-32zm223.98-.01l127.72.02c-62.96 84.5-63.69 156.96-63.69 160v64c0 62.13-29.76 93.83-74.81 141.81-5.84 6.22-38.68 41.82-38.68 41.82L406.85 416H287.57c-77.129 0-191.55-94.06-191.55-224v-64c0-3.04-.73-75.5-64.06-160.03l128.021.011v160.02c0 70.69 57.3 128 127.99 128s127.99-57.31 127.99-128v-160.01z"/><glyph glyph-name="horse" unicode="" horiz-adv-x="576" d="M575.95 361.73l.06-93.88c.01-20.55-13.05-38.82-32.49-45.45L518 213.69c-5.47-1.87-36.34-9.87-55.45 18.8L448 254.309v-50.52c0-29.85-11.5-58.09-32-79.6V-32c0-17.669-14.33-32-32-32h-64c-17.67 0-32 14.331-32 32V96.53l-83.84 18.63-19.29-53.73 21.68-85.569C211.65-44.25 196.48-64 175.53-64H118c-14.8 0-27.66 10.14-31.11 24.51L65.76 48.37c-2.58 10.71-2.32 21.97.8 32.74l21.97 74.28C72.9 173.3 64 196.43 64 220.63c0 5.81.75 11.42 1.71 16.96C46.23 231.48 32 213.5 32 192v-56c0-4.42-3.58-8-8-8H8c-4.42 0-8 3.58-8 8v56c0 43.72 35.11 79.13 78.65 79.87C96.09 300.58 127.38 320 163.36 320H304c0 70.58 57.42 128 128 128h111.19c17.67 0 32-14.33 32-32 0-11.39-2.99-22.26-8.38-31.71 5.47-6.64 9.13-12.94 9.14-22.56zm-42.78-109.04c5.979 2.041 10.83 8.824 10.83 15.142v.007l-.05 93.88-20.39 24.78c11.52 4.83 19.63 16.21 19.63 29.5H432c-53.019 0-96-42.98-96-96v-32H163.37C126.16 288 96 257.84 96 220.63c0-22.87 11.45-43 28.87-55.18L97.24 72.04c-.686-2.377-1.242-6.316-1.242-8.79 0-2.068.39-5.378.873-7.39L118-32h57.53l-24.08 95.05 32.12 89.47L320 122.199V-32h64v170.19c19.36 15.43 32 38.93 32 65.6V304l48-16 25.17-37.75c2.34-3.51 9.15-9.46 18.48-6.27zM480 368c8.84 0 16-7.16 16-16s-7.16-16-16-16-16 7.16-16 16 7.16 16 16 16z"/><glyph glyph-name="house-damage" unicode="" horiz-adv-x="576" d="M573.51 228.06c2.81-2.36 3.37-6.64 1.01-9.56l-14.17-17.55c-2.36-2.92-6.63-3.37-9.56-1.01L512 231.22V-48c0-8.84-7.16-16-16-16H320.14l-20.55 32-19.37 30.15 104.11 71.99L236.28 224l60.16-134.1-104.11-71.99L215.02-32l14.55-32H80c-8.839 0-16 7.16-16 16v279.3l-38.75-31.25c-1.031-.837-2.946-1.517-4.275-1.517-1.792 0-4.16 1.132-5.284 2.526L1.521 218.61c-2.36 2.81-1.91 7.09 1.01 9.45l262.88 211.93c13.16 10.69 32.06 10.69 45.22 0L480 303.45V376c0 4.42 3.58 8 8 8h16c4.42 0 8-3.58 8-8v-98.35zM480-32v289.02L292.18 408.491c-1.015.836-2.905 1.515-4.22 1.515s-3.205-.68-4.22-1.515L96 257.1V-32h83.87L163.2 4.67c-6.41 14.09-1.8 30.75 10.93 39.56l82.22 56.85-49.27 109.82c-6.37 14.2-1.599 30.91 11.29 39.62 5.46 3.68 11.7 5.48 17.9 5.48 8.461 0 16.85-3.34 23.07-9.81L407.401 92.33c6.5-6.76 9.72-16.04 8.78-25.38-.81-8.126-6.922-18.488-13.64-23.13l-78.67-54.4L337.631-32H480z"/><glyph glyph-name="hryvnia" unicode="" horiz-adv-x="384" d="M376 224H247.11l-64.71-64H376c4.42 0 8-3.58 8-8v-16c0-4.42-3.58-8-8-8H150.04l-35.72-35.34c-10.19-10.08-16.03-24.47-16.03-39.47C98.29 23.86 120.09 0 146.87 0h84.42c14.39 0 28.12 5.02 38.7 14.11l33.52 28.81c1.242 1.066 3.578 1.93 5.215 1.93 2.03 0 4.751-1.25 6.075-2.79l10.42-12.14c1.063-1.241 1.925-3.575 1.925-5.209 0-2.028-1.248-4.748-2.785-6.071l-33.52-28.8C274.48-24.23 253.33-32 231.28-32h-84.42c-44.44 0-80.58 38.22-80.58 85.19 0 23.49 9.3 46.17 25.53 62.22L104.54 128H8c-4.42 0-8 3.58-8 8v16c0 4.42 3.58 8 8 8h128.89l64.71 64H8c-4.42 0-8 3.58-8 8v16c0 4.42 3.58 8 8 8h225.96l35.73 35.34c10.19 10.08 16.03 24.47 16.03 39.47 0 29.33-21.8 53.19-48.58 53.19h-84.42c-14.39 0-28.13-5.02-38.71-14.11l-33.52-28.81c-3.35-2.88-8.4-2.49-11.28.86l-10.42 12.14c-1.063 1.241-1.926 3.575-1.926 5.209 0 2.028 1.248 4.748 2.786 6.071l33.51 28.8c16.36 14.07 37.51 21.84 59.56 21.84h84.42c44.44 0 80.58-38.22 80.58-85.19 0-23.49-9.3-46.17-25.53-62.22L279.46 256H376c4.42 0 8-3.58 8-8v-16c0-4.42-3.58-8-8-8z"/><glyph glyph-name="key-skeleton" unicode="" d="M329.37 310.63c12.5 12.49 32.76 12.49 45.26 0 12.49-12.5 12.49-32.76 0-45.26-12.5-12.5-32.76-12.5-45.26 0-12.49 12.5-12.49 32.76 0 45.26zm64 64c12.5 12.49 32.76 12.49 45.26 0 12.5-12.5 12.5-32.76 0-45.26s-32.76-12.5-45.26 0c-12.49 12.5-12.49 32.76 0 45.26zM448 448c35.35 0 64-28.65 63.99-64V256.02c0-35.35-28.65-64-64-64h-128c-11.85 0-22.8 3.44-32.32 9.05l-50.72-50.72 46.4-46.4c6.19-6.2 6.19-16.24 0-22.43l-44.86-44.86c-6.23-6.22-16.27-6.16-22.43 0l-46.4 46.4-28.71-28.72 46.4-46.4c6.19-6.2 6.19-16.24 0-22.43l-44.86-44.86c-6.23-6.22-16.27-6.16-22.43 0l-46.4 46.4-48.7-48.7c-3.12-3.12-8.19-3.12-11.31 0L2.34-50.34c-3.12 3.12-3.12 8.19 0 11.31l262.71 262.71C259.44 233.2 256 244.15 256 256v128c0 35.35 28.65 64 64 64h128zM153.71-3.28L118.53 31.9 96.1 9.47l35.18-35.18zm96 96l-35.19 35.19-22.43-22.43 35.19-35.19zM480 256v128c0 17.64-14.36 32-32 32H320c-17.64 0-32-14.36-32-32V256c0-17.64 14.36-32 32-32h128c17.64 0 32 14.36 32 32z"/><glyph glyph-name="knife-kitchen" unicode="" horiz-adv-x="576" d="M566.64 382.06c12.48-12.5 12.48-32.76 0-45.26l-113.8-119.42-11.59-68.83c10.07-12.77 9.61-31.49-2.11-43.16L338.69 5.35C289.55-43.81 217.78-64 144.82-64 98.5-64 51.69-55.86 9.9-41.83-.6-38.3-3.36-24.1 4.58-16.14l461.25 454.77c6.23 6.25 14.4 9.37 22.58 9.37s16.35-3.12 22.59-9.37zM317.34 28.4l100.51 100.09-110.33 114.66L45.85-19.23C78.24-27.62 111.99-32 144.82-32c72.31 0 133.58 21.45 172.52 60.4zm104.7 202.14l122.729 128.78-56.36 56.68c-.19 0-109.86-104.89-158.23-151.16l81.361-84.55zM432 320c8.84 0 16-7.16 16-16s-7.16-16-16-16-16 7.16-16 16 7.16 16 16 16zm32 32c0 8.84 7.16 16 16 16s16-7.16 16-16-7.16-16-16-16-16 7.16-16 16z"/><glyph glyph-name="leaf-maple" unicode="" d="M496.06 284.53c20.81-12.49 21.43-42.66.76-55.83l-67.5-42.94c20.32-7.33 25.56-30.79 19.22-42.52l-7.41-13.8 40.09-35.38c15.73-12.95 16.31-37.62-.34-50.97L441.13 8l8.84-17.5c8.85-22.78-15.14-45.29-38.97-40L268.54-20.1l-10.25-23.98c-5.22-12.11-17.07-19.91-30.19-19.91-13.08 0-25 7.74-30.19 19.92L151.29 64.67 27.31-59.31C24.191-62.44 20.09-64 16-64s-8.19 1.56-11.309 4.69c-6.25 6.24-6.25 16.37 0 22.62l123.98 123.98-108.79 46.62c-26.451 11.34-26.451 49 0 60.34l24 10.3L14.47 347.24c-6.38 28.689 25.24 47.299 43.72 37.309l13.81-7.41 35.57 40.33c5.79 7.23 15.13 11.7 25.16 11.7 10.2 0 19.45-4.6 25.62-12.31l35.09-39.72 13.81 7.41c9.63 5.21 34.2 3.32 42.53-19.2l42.91 67.45c6.15 9.67 17.53 15.22 28.12 15.2 11.47-.16 21.81-6.11 27.72-15.93l16.41-27.34 75.97 8.45c22.64 2.14 38.39-16.77 36.25-36.27l-8.44-75.97zM342.94 168.72l136.689 86.96-44.97 28.38 10.69 96.37-97.28-9.78-26.97 44.94-88.37-136.66c-9.82-15.27-33.45-4.97-29 12.56l16.09 62.94-.16.47-33.41-17.95-52.41 59.33-54.66-59.33-32.31 17.36L80.5 185.42l-48-20.58 120.66-53.05L308.68 267.3c6.25 6.25 16.37 6.25 22.62 0 6.25-6.24 6.25-16.37 0-22.62L175.66 89.04 227.34-31.5l22.06 48.02L418.72-17.9l-17.78 33.12 60.43 53.49-60.43 53.51 17.34 32.3-62.78-14.8c-17.58-4.47-27.81 19.29-12.56 29z"/><glyph glyph-name="leaf-oak" unicode="" d="M511.52 240.83c5.05-46.25-30.95-64.93-67.46-85.62 22.58-27.95 18.95-51.07 17.53-58.26-14.56-73.7-117.72-55.51-129.09-54.28 9.76-34.93-11.67-74.01-65.41-74.01-38.62 0-72.88 28.68-92.19 21.39-36.77-13.24-70.14-11.6-94.38 3.85L27.31-59.31C24.19-62.44 20.09-64 16-64s-8.19 1.56-11.31 4.69c-6.25 6.24-6.25 16.37 0 22.62L57.9 16.52c-15.45 24.25-17.1 57.61-3.85 94.38 7.29 19.31-21.39 53.57-21.39 92.19 0 53.74 39.08 75.17 74.01 65.41-1.22 11.36-19.42 114.53 54.29 129.09 7.19 1.41 30.31 5.05 58.25-17.53 20.68 36.52 39.36 72.51 85.61 67.47 37.69-4.15 54.28-37.22 58.83-44.63 48.72 14.26 75.75-4.46 86.93-16.31 11.85-11.17 30.57-38.22 16.31-86.93 7.42-4.55 40.49-21.14 44.63-58.83zm-41.18-30.61c18.42 19.92 9 48.37-17.06 59.67-14.34 6.29-21.65 22.93-17.09 38.73 7.15 24.37 4.29 43.49-8.22 55.34-11.85 12.51-30.97 15.37-55.35 8.22-15.79-4.55-32.43 2.75-38.73 17.1-11.29 26.06-39.74 35.48-59.66 17.06-6.43-5.96-10.09-12.2-45.99-75.12-28.45 23.41-27.29 22.54-31.13 25.53-27.08 21.12-45.26 4.56-53.84-10.47-13.74-24.01-8.25-40.15 1.96-139.22 0 0-37.53 26.31-38.86 27.06-28.49 16.36-48.05-10.66-40.26-44.53 3.59-15.59 12.57-31.98 17.59-50 10.42-37.01-16.77-70.39-2.68-99.94L308.68 267.3c6.25 6.25 16.38 6.25 22.63 0 6.25-6.24 6.25-16.37 0-22.62L103.65 17.02c29.55-14.1 62.93 13.1 99.94 2.68 18.02-5.02 34.41-14.01 50-17.59 33.87-7.78 60.89 11.78 44.53 40.27-.75 1.33-27.06 38.86-27.06 38.86 99.07-10.21 115.22-15.7 139.22-1.97 15.02 8.58 31.59 26.76 10.47 53.84-3 3.83-2.13 2.67-25.54 31.12 62.93 35.9 69.17 39.56 75.13 45.99z"/><glyph glyph-name="mace" unicode="" d="M501.02 249.08c14.57-2.92 14.66-10.97.13-14.18l-71.26-15.77c-8.76-53.11-49.89-95.09-102.68-104.79l-14.29-71.36c-2.91-14.58-10.97-14.66-14.18-.14l-15.78 71.28c-9.95 1.66-19.34 4.78-28.38 8.58l-182-182.02c-6.25-6.25-16.38-6.25-22.63 0L4.69-14.06c-6.25 6.25-6.25 16.38 0 22.63l181.9 181.899c-3.54 8.36-6.52 17-8.22 26.17L107 230.929c-14.58 2.91-14.66 10.97-.14 14.18l71.26 15.77c8.74 53 49.72 94.94 102.36 104.75l14.289 71.39c2.91 14.58 10.97 14.66 14.18.14l15.77-71.25c53.13-8.7 95.16-49.78 104.931-102.54zM61.25-25.37l164.64 164.65c-8.47 6.55-16.16 14.06-22.74 22.51L38.62-2.74zM304 144c53.02 0 96 42.98 96 96s-42.98 96-96 96-96-42.98-96-96 42.98-96 96-96zm0 144c26.47 0 48-21.53 48-48s-21.53-48-48-48-48 21.53-48 48 21.53 48 48 48zm0-64c8.81 0 16 7.17 16 16s-7.19 16-16 16-16-7.17-16-16 7.19-16 16-16z"/><glyph glyph-name="mandolin" unicode="" d="M160 160c35.37 0 64-28.68 64-64 0-35.35-28.65-64-64-64-35.37 0-64 28.68-64 64 0 35.35 28.65 64 64 64zm0-96c17.64 0 32 14.35 32 32 0 17.66-14.37 32-32 32-17.64 0-32-14.36-32-32 0-17.66 14.37-32 32-32zm342.63 329.37c6.25-6.24 9.37-14.43 9.36-22.61 0-8.19-3.12-16.38-9.37-22.63l-67.88-67.88c-8.28-8.29-19.88-10.55-30.47-7.85l-54.7-54.7c1.41-11.55 2.43-23.05 2.43-34.37 0-56.46-16.29-109.63-47.63-152.79-14.352-19.786-40.027-49.874-57.31-67.16C195.23-88.45 124.15-61.17 63.48-.5 2.82 60.16-24.46 131.25 27.36 183.07c17.288 17.28 47.376 42.955 67.16 57.31 43.18 31.34 96.35 47.63 152.81 47.63 11.321 0 22.821-1.02 34.361-2.43l54.7 54.7c-2.69 10.58-.43 22.18 7.85 30.47l67.88 67.88c6.25 6.25 14.44 9.37 22.63 9.37s16.38-3.12 22.62-9.37zM278.47 49.31c41.25 56.85 42.51 120.97 41.2 138.46l-43.31-43.31c-6.25-6.25-16.38-6.25-22.63 0l-45.25 45.26c-6.25 6.25-6.25 16.38 0 22.63l43.31 43.31c-17.5 1.32-81.62.05-138.47-41.2-18.655-13.537-47.027-37.747-63.33-54.04C3.87 114.3 59.89 48.32 86.11 22.1s92.2-82.24 138.32-36.12c16.288 16.307 40.498 44.679 54.04 63.33zM480 370.72L434.75 416h-.03l-67.86-67.88 4.5-17.65-128.95-129.43 22.63-22.63 129.43 128.96 17.65-4.5z"/><glyph glyph-name="mask" unicode="" horiz-adv-x="640" d="M320.67 384C769.76 384 668.99 0 479.13 0c-39.9 0-77.47 20.69-101.42 55.86l-25.73 37.79c-7.82 11.5-19.57 17.25-31.31 17.25s-23.48-5.75-31.31-17.25l-25.73-37.79C239.68 20.69 202.11 0 162.21 0-36.9 0-121.93 384 320.67 384zM479.13 34.91c75.95 0 128.87 75.83 128.87 143.88 0 30.59-10.07 74.8-58.02 111.64-49.96 38.37-129.25 58.66-229.31 58.66-99.73 0-179.12-20.72-229.6-59.94C42.25 251.22 32 206.27 32 175.23c0-67.77 52.32-140.32 130.22-140.32 29.62 0 57.93 15.61 75.73 41.76l25.73 37.79c13.56 19.92 34.33 31.34 57 31.34 22.66 0 43.44-11.42 57-31.34l25.73-37.79c17.8-26.15 46.11-41.76 75.72-41.76zM192 261.82c46.93 0 77.44-29.93 91.52-47.89 5.97-7.61 5.97-18.77 0-26.39-14.08-17.96-44.59-47.89-91.52-47.89s-77.44 29.93-91.52 47.89c-5.97 7.61-5.97 18.77 0 26.39 14.08 17.96 44.59 47.89 91.52 47.89zm0-87.27c26.83 0 46.54 13.8 58.82 26.18-12.28 12.38-32 26.18-58.82 26.18s-46.54-13.8-58.82-26.18c12.28-12.38 31.99-26.18 58.82-26.18zm256 87.27c46.93 0 77.44-29.93 91.52-47.89 5.97-7.61 5.97-18.77 0-26.39-14.08-17.96-44.59-47.89-91.52-47.89s-77.44 29.93-91.52 47.89c-5.97 7.61-5.97 18.77 0 26.39 14.08 17.96 44.59 47.89 91.52 47.89zm0-87.27c26.83 0 46.54 13.8 58.82 26.18-12.28 12.38-31.99 26.18-58.82 26.18-26.82 0-46.54-13.8-58.82-26.18 12.28-12.38 31.99-26.18 58.82-26.18z"/><glyph glyph-name="monkey" unicode="" horiz-adv-x="640" d="M576 256l-5.88-.01c-6.21-17.49-17.25-32.5-31.65-43.65l65.42-192.21A79.883 79.883 0 0 0 608-5.2V-32c0-17.67-14.33-32-32-32h-32c-17.67 0-32 14.33-32 32v21.64l-30.73 92.15L408.79 27C431.81 17.3 448-5.5 448-32c0-17.67-14.33-32-32-32H176c-44.12 0-80 35.89-80 80v240c0 17.64-14.34 32-32 32s-32-14.36-32-32v-48c0-8.84-7.16-16-16-16s-16 7.16-16 16v48c0 35.3 28.72 64 64 64s64-28.7 64-64V16c0-26.47 21.53-48 48-48h24.9c-5.51 9.45-8.9 20.29-8.9 32v32c0 197.12 199.02 220.8 197.88 224H384c-35.35 0-64 28.65-64 64 0 42.07 35.78 64 64 64h5.88c13.22 37.2 48.38 64 90.12 64s76.9-26.8 90.12-64H576c28.63 0 64-22.15 64-64 0-35.35-28.65-64-64-64zm0 96v-64c17.64 0 32 14.36 32 32 0 20.95-17.78 32-32 32zm-192-64v64c-14.43 0-32-11.16-32-32 0-17.64 14.36-32 32-32zM573.53 10.02L509.82 197.2c-9.44-3.1-19.34-5.2-29.82-5.2-28.16 0-53.24 12.34-70.8 31.66C306.34 220.04 224 135.74 224 32V0c0-17.67 14.33-32 32-32h160c0 17.64-14.34 32-32 32h-64l177.54 134.2L544-5.17V-32h32v26.81c0 5.17-.84 10.31-2.47 15.21zM544 288v64c0 35.29-28.71 64-64 64s-64-28.71-64-64v-64c0-35.29 28.71-64 64-64s64 28.71 64 64zm-96 64c8.84 0 16-7.16 16-16s-7.16-16-16-16-16 7.16-16 16 7.16 16 16 16zm64 0c8.84 0 16-7.16 16-16s-7.16-16-16-16-16 7.16-16 16 7.16 16 16 16z"/><glyph glyph-name="mountain" unicode="" horiz-adv-x="640" d="M634.92-14.7c2.806-4.363 5.083-12.114 5.083-17.301 0-4.506-1.753-11.374-3.913-15.33A31.992 31.992 0 0 0 608-64H31.996C21.516-64 8.935-56.536 3.91-47.34 1.75-43.384-.003-36.514-.003-32.006c0 5.189 2.278 12.942 5.083 17.306l288 448c5.89 9.16 16.03 14.7 26.92 14.7s21.03-5.54 26.92-14.7zM320 416L209.86 244.67 256 198.62 313.38 256h109.48zM32-32h576L443.42 224h-116.8L256 153.38l-63.81 63.81z"/><glyph glyph-name="mountains" unicode="" horiz-adv-x="640" d="M635.73 41.09C647.46 23.09 633.64 0 611.14 0H30.92C6.808 0-7.992 25.19 4.58 44.82l207.9 324.66c6.199 9.68 16.859 14.52 27.519 14.52s21.32-4.84 27.52-14.52l70.79-110.55 52 79.76c5.79 8.87 15.74 13.31 25.69 13.31s19.9-4.44 25.69-13.31zM33.71 30.98L445.63 32 240.57 352.22 240 352c-.53 0-.89-.13-.97-.17zM479.65 32h123.8L416 319.49l-58.76-90.11L475.43 44.82c2.64-4.12 3.83-8.49 4.22-12.82z"/><glyph glyph-name="narwhal" unicode="" horiz-adv-x="640" d="M594.39 223.56c26.93-23.24 45.61-56.99 45.61-96.1V16.01c0-44.18-35.82-80-80-80H179.87C115.88-63.99 64-12.12 64 51.88V160l-47.38 24.9C6.24 190.83 0 200.82 0 211.52v92.45C0 313.39 9.01 320 18.72 320c3.47 0 7.03-.84 10.3-2.71L112 269.87l82.97 47.42c3.27 1.86 6.83 2.71 10.3 2.71 9.71 0 18.72-6.62 18.72-16.03v-92.45c0-10.69-6.23-20.69-16.62-26.62L160 160V51.88C160 40.92 168.91 32 179.87 32c43.24 0 116.77 208.28 311.29 222.62l99.19 179.69c3.34 6.14 8.97 10.64 15.75 12.62 6.81 2 14 1.15 20.19-2.22 10.41-5.75 15.72-17.75 13-29.25zm4.65 160.26l-71.48-129.471c13.26-1.84 26.14-5.84 38.37-11.9zM608 16v111.46c0 56.89-50.59 96.54-96 96.54-128.4 0-202.59-95.55-251.68-158.77C229.82 25.95 209.67 0 179.87 0 151.27 0 128 23.268 128 51.87v127.46l64 33.64v65.76l-80-45.711-80 45.71v-65.56l64-33.84V51.87C96 5.63 133.63-32 179.87-32H560c26.47 0 48 21.53 48 48zM432 96c8.84 0 16-7.16 16-16s-7.16-16-16-16-16 7.16-16 16 7.16 16 16 16z"/><glyph glyph-name="network-wired" unicode="" horiz-adv-x="640" d="M632 208c4.42 0 8-3.58 8-8v-16c0-4.42-3.58-8-8-8H512V96h64c17.67 0 32-14.33 32-32v-96c0-17.67-14.33-32-32-32H416c-17.67 0-32 14.33-32 32v96c0 17.67 14.33 32 32 32h64v80H160V96h64c17.67 0 32-14.33 32-32v-96c0-17.67-14.33-32-32-32H64c-17.67 0-32 14.33-32 32v96c0 17.67 14.33 32 32 32h64v80H8c-4.42 0-8 3.58-8 8v16c0 4.42 3.58 8 8 8h296v80h-80c-17.67 0-32 14.33-32 32v96c0 17.67 14.33 32 32 32h192c17.67 0 32-14.33 32-32v-96c0-17.67-14.33-32-32-32h-80v-80h296zM224 64H64v-96h160v96zm0 256h192v96H224v-96zM576 64H416v-96h160v96z"/><glyph glyph-name="otter" unicode="" horiz-adv-x="640" d="M512 392c8.84 0 16-7.16 16-16s-7.16-16-16-16c-8.83 0-16 7.16-16 16s7.16 16 16 16zm80 24c26.47 0 48-21.53 48-48v-16c0-52.94-43.07-96-96-96-14.96 0-31.01-3.71-44.22-10.74l-44.82-23.84L485.67 160H512c35.29 0 64-28.71 64-64 0-17.67-14.33-32-32-32h-97.9c-10.916.001-23.739 7.926-28.62 17.69l-47.32 94.64-48.61-25.85C339.81 139.2 352 119 352 96c0-17.67-14.33-32-32-32H112c-8.82 0-16-7.18-16-16s7.18-16 16-16h144c26.47 0 48-21.53 48-48s-21.53-48-48-48H112C50.24-64 0-13.76 0 48c0 56.33 41.79 103.07 96 110.86V160c0 105.87 86.13 192 192 192h22.86l153.25 87.57a64.044 64.044 0 0 0 31.75 8.43h20.49c17.09 0 33.17-6.66 45.25-18.74L574.86 416H592zm-48-128c20.12 0 37.86 9.48 49.59 24H535.5c-14.78 0-29-7-38.04-18.76l-16.9-21.96 4.19 2.23C502.64 283.03 523.74 288 544 288zm63.19 56c.34 2.65.81 24 .81 24 0 8.84-7.16 16-16 16h-30.4l-22.63 22.63c-6.04 6.04-14.07 9.37-22.62 9.37h-20.493c-4.69 0-11.804-1.886-15.878-4.21L319.36 320H288c-88.37 0-160-71.63-160-160v-32h-16c-44.12 0-80-35.89-80-80s35.88-80 80-80h144c8.84 0 16 7.16 16 16s-7.16 16-16 16H112C85.53 0 64 21.53 64 48s21.53 48 48 48h208c0 17.64-14.34 32-32 32h-76.87l172.98 91.99 62-123.99H544c0 17.64-14.34 32-32 32h-46.111l-53.51 107.03 59.71 77.74c15.07 19.56 38.75 31.23 63.41 31.23h71.69z"/><glyph glyph-name="paw-alt" unicode="" horiz-adv-x="448" d="M367.31 147.22c29.06-16.4 48.69-47.4 48.69-83.17 0-53.01-42.98-95.98-96-95.98-1.31-.05-2.6-.07-3.87-.07C267.25-32 247.21.06 224 .06S180.75-32 131.87-32c-1.27 0-2.56.03-3.87.07-53.02 0-96 42.97-96 95.98 0 35.77 19.63 66.77 48.68 83.17 27.05 15.27 46.88 60.87 67.17 97.83C163.59 273.69 193.79 288 224 288s60.41-14.31 76.14-42.95c20.03-36.42 40.88-82.99 67.17-97.83zM318.92.05c36.37.02 65.08 28.72 65.08 64 0 22.82-12.42 44.02-32.42 55.31-30 16.94-50.06 54.88-69.46 91.57-3.38 6.39-6.71 12.69-10.02 18.71C263.03 246.15 245.05 256 224 256s-39.03-9.85-48.09-26.36c-3.5-6.38-7-13.04-10.52-19.75-18.93-36.05-38.5-73.33-68.96-90.53-20-11.29-32.42-32.49-32.42-55.31 0-35.28 28.71-63.98 64-63.98l3.87-.07c20.12 0 33.05 7.72 46.74 15.89 12.7 7.58 27.1 16.17 45.39 16.17s32.68-8.59 45.39-16.17C283.09 7.72 296.01 0 316.13 0zM112 248c0-30.93-25.07-56-56-56S0 217.07 0 248s25.07 56 56 56 56-25.07 56-56zm-80 0c0-13.23 10.77-24 24-24s24 10.77 24 24-10.77 24-24 24-24-10.77-24-24zm360 56c30.93 0 56-25.07 56-56s-25.07-56-56-56-56 25.07-56 56 25.07 56 56 56zm0-80c13.23 0 24 10.77 24 24s-10.77 24-24 24-24-10.77-24-24 10.77-24 24-24zm-96 80c-30.93 0-56 25.07-56 56s25.07 56 56 56 56-25.07 56-56-25.07-56-56-56zm0 80c-13.23 0-24-10.77-24-24s10.77-24 24-24 24 10.77 24 24-10.77 24-24 24zm-144-80c-30.93 0-56 25.07-56 56s25.07 56 56 56 56-25.07 56-56-25.07-56-56-56zm0 80c-13.23 0-24-10.77-24-24s10.77-24 24-24 24 10.77 24 24-10.77 24-24 24z"/><glyph glyph-name="paw-claws" unicode="" d="M318.55 225.39c-30.93 8.14-46.41 49.94-34.57 93.36 6.53 23.92 20.08 43.03 36.02 54.29V448l64-79.99c15.02-17.7 20.45-47.81 12.01-78.75-7.91-29.01-37.3-74.43-77.46-63.87zm-3.7 84.93c-16.3-59.77 32.1-79.36 50.29-12.65 16.3 59.73-32.07 79.44-50.29 12.65zm178.65-52.69c13.67-18.74 24.07-48.73 15.22-78.24-9.91-33.02-41.09-57.42-71.55-50.13-29.12 6.96-44.29 40.69-33.89 75.34 7.21 24.03 24.89 41.91 44.72 48.46V320zm-15.43-69.03c12.76 42.53-31.46 49.07-44.15 6.81-12.74-42.46 31.43-49.16 44.15-6.81zM256 192c79.41 0 191.99-122.76 192.01-200.25 0-34.9-26.81-55.75-71.74-55.75-48.42 0-80.75 25.08-120.26 25.08-39.17 0-71.42-25.08-120.26-25.08-44.93 0-71.74 20.84-71.74 55.75C64.01 69.24 176.59 192 256 192zM376.26-32c39.73 0 39.73 17.88 39.73 23.75C415.99 54.65 315.81 160 256 160S96.01 54.65 96.01-8.26c0-5.87 0-23.75 39.74-23.75 20.62 0 38.231 5.81 56.87 11.96 19.54 6.45 39.741 13.12 63.39 13.12 23.891 0 44.23-6.7 63.91-13.19C338.45-26.23 355.96-32 376.26-32zM108.73 204.61c10.4-34.65-4.78-68.38-33.89-75.35-30.19-7.22-61.55 16.83-71.55 50.13-8.86 29.5 1.52 59.48 15.21 78.24L64.01 320v-66.93c19.83-6.55 37.51-24.43 44.72-48.46zM33.94 188.6c12.65-42.14 56.95-35.88 44.15 6.81-12.64 42.06-56.99 35.96-44.15-6.81zm159.51 36.79c-40.38-10.63-69.81 35.82-77.46 63.87-8.44 30.93-3.01 61.05 12.01 78.75L192.01 448v-74.96c15.95-11.25 29.49-30.37 36.02-54.29 11.84-43.42-3.64-85.22-34.58-93.36zm3.7 84.93c-18.3 67.1-66.49 46.74-50.3-12.65 18.3-67.09 66.5-46.74 50.3 12.65z"/><glyph glyph-name="pegasus" unicode="" horiz-adv-x="576" d="M575.95 361.73l.06-93.88c.01-20.55-13.05-38.82-32.49-45.45L518 213.69c-5.47-1.87-36.34-9.87-55.45 18.8L448 254.309v-50.52c0-29.85-11.5-58.09-32-79.6V-32c0-17.669-14.33-32-32-32h-64c-17.67 0-32 14.331-32 32V96.53l-83.84 18.63-19.29-53.73 21.68-85.569C211.65-44.25 196.48-64 175.53-64H118c-14.8 0-27.66 10.14-31.11 24.51L65.76 48.37c-2.58 10.71-2.32 21.97.8 32.74l21.97 74.28C72.9 173.3 64 196.43 64 220.63c0 5.81.75 11.42 1.71 16.96C46.23 231.48 32 213.5 32 192v-56c0-4.42-3.58-8-8-8H8c-4.42 0-8 3.58-8 8v56c0 43.72 35.11 79.13 78.66 79.86 9.957 16.379 32.612 35.114 50.57 41.82.96-10.91 2.99-21.56 6.18-31.92C112.21 271.12 96 247.83 96 220.63c0-22.87 11.45-43 28.87-55.18L97.24 72.04c-.686-2.378-1.243-6.317-1.243-8.791 0-2.068.39-5.378.873-7.389L118-32h57.53l-24.08 95.05 32.12 89.47L320 122.2V-32h64v170.19c19.36 15.43 32 38.93 32 65.6V304l48-16 25.17-37.75c2.33-3.5 9.13-9.46 18.48-6.27l25.52 8.71c5.979 2.04 10.83 8.824 10.83 15.141v.008l-.05 93.88-20.39 24.78c11.52 4.83 19.63 16.21 19.63 29.5H432c-53.019 0-96-42.98-96-96l-.059-32c-59.84 0-106.561 29.77-135.881 86.29-5.34-15.19-8.06-31.07-8.06-47.38 0-60.51 45.69-115.38 107.44-130.57 4.17-1.03 6.9-4.979 6.1-9.2l-2.97-15.699c-.84-4.47-5.28-7.49-9.7-6.43C216.56 183.31 160 251.53 160 326.91c0 26.01 5.63 51.149 16.75 74.689 4.29 9.03 12.6 14.19 23.13 14.39 9.97-.15 19.03-6.15 23.03-15.31 18.39-41.89 45.81-67.39 81.5-76.6C306.62 392.74 362.82 448 432 448h111.19c17.67 0 32-14.33 32-32 0-11.39-2.99-22.26-8.38-31.71 5.47-6.64 9.13-12.94 9.14-22.56zM496.01 352c0-8.84-7.16-16-16-16s-16 7.16-16 16 7.16 16 16 16 16-7.16 16-16z"/><glyph glyph-name="pig" unicode="" horiz-adv-x="576" d="M560 256c8.8 0 16-7.2 16-16V112c0-8.8-7.2-16-16-16h-48.72c-8.9-11.8-19.6-22.1-31.3-31.1V-16c0-8.8-7.2-16-16-16h-112c-8.8 0-16 7.2-16 16v48h-64v-48c0-8.8-7.2-16-16-16h-112c-8.8 0-16 7.2-16 16v80.7c-38.6 29.2-64 75.1-64 127.3h-8c-33.3 0-59.9 29.2-55.5 63.4 3.6 28.2 29 48.6 57.5 48.6 3.3 0 6-2.7 6-6v-20c0-3.3-2.7-6-6-6h-1c-11.6 0-22.3-7.8-24.5-19.2-3-15.3 8.7-28.8 23.5-28.8h11.2c6.51 31.93 22.64 60.21 45.07 82.08C141.42 334.67 182.67 352 223.99 352h150.62c6.24 4.78 42.71 32 89.39 32h16v-64.6c21.8-16.5 39.4-38.1 50.5-63.4H560zm-16-128v96h-34.39c-17.6 40.2-21.9 49.4-61.6 79.5v47.3c-29.1-4.3-45.4-17.3-62.3-30.8H224c-70.61 0-128.01-57.4-128.01-128 0-17.8-.9-62.3 64-111.3V0h80v64H368V0h80v80.7c30.3 23.2 30.3 24.9 47.3 47.3H544zm-112.01 96c8.81 0 16-7.2 16-16s-7.2-16-16-16-16 7.2-16 16 7.2 16 16 16z"/><glyph glyph-name="pumpkin" unicode="" horiz-adv-x="576" d="M494.75 337.48C547.16 288.08 576 222.23 576 152.059c0-70.17-28.84-136.02-81.25-185.42-21.62-20.4-49.66-30.63-77.78-30.63-22.84 0-45.72 6.77-65.22 20.36C325.2-63.17 294.57-64 288-64c-1.38 0-35.96-.08-63.75 20.37-43.47-30.32-103.81-26.7-143 10.28C28.84 16.05 0 81.89 0 152.05c0 70.17 28.84 136.03 81.25 185.44 39.22 37.02 99.59 40.55 143 10.26 4.34 3.19 8.96 5.94 13.74 8.38l28.7 71.75c3.34 8.31 10.03 14.87 18.34 18.03 8.28 3.18 17.69 2.7 25.66-1.27l39.62-19.82C361.22 419.37 368 408.4 368 396.2v-39.1c41.33 19.57 92.24 12.94 126.75-19.62zM288-31.9c124.21 0 121.22 367.9 0 367.9-124.26 0-121.09-367.9 0-367.9zm8.41 447.91l-19.58-48.91c20.22 1.98 40.96-1.23 59.17-10.01v39.11zM103.19-10.08c27.96-26.35 72.48-28.33 103.42-6.36-5.89 8.49-11.61 17.92-16.78 29.63-16.69 37.8-25.88 87.68-25.88 140.47 0 62.99 13.59 125.98 42.21 167.23-30.95 21.66-75.17 19.53-102.97-6.68C57.28 270.91 32 213.33 32 152.06c0-61.27 25.28-118.85 71.19-162.14zm369.62 0C518.72 33.21 544 90.79 544 152.06c0 61.27-25.28 118.85-71.19 162.14-27.96 26.371-72.41 28.35-103.329 6.44 28.86-41.88 42.56-106.08 42.56-170.31 0-62.9-13.46-125.96-41.97-167.27 30.92-21.45 74.99-19.29 102.739 6.86z"/><glyph glyph-name="rabbit" unicode="" d="M505.92-2.8c7.7-12.32 8.12-27.88 1.07-40.59S486.54-64 472-64h-37.72c-12.98 0-24.91 6.14-32.42 16.56l-65.11 80.17-15.81-9.88C339.54 11.64 352-8.75 352-32c0-17.67-14.32-32-32-32H159.98c-26.41 0-49.12 16.08-58.89 38.96-9.13-4.1-18.8-6.96-29.12-6.96-19.23 0-37.32 7.49-50.92 21.09-28.07 28.07-28.07 73.75 0 101.82C34.65 104.51 52.74 112 71.97 112c13.36 0 26.06-3.8 37.14-10.64 24.15 62.05 79.55 108.63 146.87 119.97V263c0 5.14.42 10.3 1.24 15.34 1.18 7.2 3.12 14.1 5.81 20.63a247.95 247.95 0 0 0-8.17 25.11c-13.91 51.93-13.96 111.38 27.64 122.52 3.46.93 7.05 1.4 10.65 1.4h.02c17.57-.01 31.71-10.35 42.83-24.48 11.12 14.13 25.269 24.48 42.84 24.48 3.61 0 7.19-.47 10.66-1.4 41.59-11.14 41.54-70.59 27.64-122.51-.26-.97-.53-1.94-.8-2.91l24.69-15.15c.64-.39 1.26-.81 1.87-1.24 23.24-16.61 37.119-43.58 37.119-72.14 0-48.88-39.77-88.65-88.66-88.65h-1.92L503.83.16a40.508 40.508 0 0 0 2.09-2.96zM95.97 32c0 12.56 1.37 24.79 3.69 36.68C91.92 76.14 81.97 80 71.97 80c-10.24 0-20.47-3.9-28.29-11.71-15.62-15.62-15.62-40.95 0-56.57C51.49 3.91 61.73 0 71.97 0c8.59 0 16.87 3.42 24 8.97V32zM472-32c6.28 0 10.11 6.91 6.78 12.24L352 139.66V176h39.34c31.29 0 56.66 25.36 56.66 56.65v.013c0 16.09-10.627 36.736-23.72 46.087l-46.48 28.51c3.11 7.77 6 16.11 8.41 25.11 11.32 42.24 9.08 79.55-5 83.32-.77.21-1.56.31-2.37.31-13.62 0-32.02-28.8-42.84-67.4-10.81 38.6-29.22 67.4-42.84 67.4-.81 0-1.6-.1-2.37-.31-14.08-3.77-16.32-41.07-5-83.32 3.48-12.97 7.87-24.68 12.64-34.87-4.68-6.81-8.08-14.95-9.61-24.3-.54-3.32-.82-6.72-.82-10.19V192c-88.38 0-160.02-71.63-160.02-160V0c0-17.67 14.32-32 32-32H320c0 17.64-14.34 32-32 32h-64.01l119.77 74.85 83.731-103.09a8.015 8.015 0 0 1 6.79-3.76h37.72zM368 256c0-8.84-7.16-16-16-16s-16 7.16-16 16 7.16 16 16 16 16-7.16 16-16z"/><glyph glyph-name="rabbit-fast" unicode="" horiz-adv-x="640" d="M511.99 224.01c8.84 0 16-7.17 16-16 0-8.84-7.16-16-16-16s-16 7.16-16 16 7.16 16 16 16zm90.89 32.78c23.24-16.6 37.12-43.57 37.13-72.13 0-48.88-39.77-88.65-88.65-88.65H454.4l-70.4-32h48c35.29 0 64-28.71 64-64 0-17.67-14.32-32-32-32H303.982c-7.732 0-18.265 4.61-23.512 10.29L254.98 5.91l-55.19-31.53c-7.47-4.27-15.65-6.39-23.81-6.39-8.29 0-16.57 2.19-24.1 6.55-14.97 8.68-23.91 24.21-23.91 41.51v23.768c0 14.175 9.578 32.051 21.38 39.902l25.01 13.52-54.04 58.54c-5.14 5.57-9.24 11.69-12.83 18.02-10.71-6.23-22.78-9.8-35.51-9.8-19.24 0-37.32 7.49-50.92 21.09-28.07 28.07-28.07 73.75 0 101.82C34.65 296.51 52.74 304 71.97 304c18.88 0 36.61-7.29 50.12-20.43C153.7 317.67 194.25 336 239.98 336c26.51 0 56.97-11.32 88.06-27.7-16.19 34.93-4.35 54.57 4.36 63.28 14.24 14.24 37.61 18.24 69.7 1.09.29 1.49 6.53 43.33 44.49 43.33h.01c45.85-.01 68.63-71.71 74.52-93.68 1.612-6.02 3.803-15.885 4.89-22.02 8.62-2.45 15.81-5.95 18.35-7.52 0 0 57.91-35.56 58.52-35.99zM96.26 201.07c-3.1 18.46-.57 37.52 7.24 54.95-1.04 1.44-1.94 2.96-3.25 4.27-15.62 15.63-40.96 15.61-56.57 0-15.62-15.62-15.62-40.95 0-56.57 5.7-5.69 28.05-21.81 52.58-2.65zm87.65-198.9l48.79 27.87L196.74 69l-30.93-16.66c-3.18-2.21-5.84-7.19-5.84-12.55V16.06c0-12.37 13.41-19.98 23.94-13.89zm367.44 125.84c31.28 0 56.65 25.36 56.64 56.65v.013c0 16.09-10.626 36.736-23.72 46.087l-56.65 34.75c-5.67 2.8-16.27 7.04-30.44 6.03-.62 12.63-2.88 27.21-6.98 42.49-10.69 39.92-29.67 69.97-43.61 69.97-15.8 0-19.35-37.68-7.72-82.19-2.93 3.27-5.93 6.56-9.18 9.81-29.52 29.53-63.92 48.07-74.66 37.33-10.31-10.3 6.4-43.73 37.33-74.65 21.42-21.42 43.86-35.75 59.17-39.28-4.07-12.24-3.54-11.85-3.54-43.01C392.72 228.78 297.31 304 239.98 304c-45.63 0-76.81-21.69-96.96-44.45-21.85-24.69-21.55-61.84.81-86.06L303.98.01H464c0 17.64-14.34 32-32 32h-80v71.59c0 35.53-23.85 67.15-58.04 76.9l-42.38 12.11c-20.28 5.81-11.65 36.58 8.81 30.78l42.38-12.11c47.81-13.65 81.22-57.93 81.22-107.68v-2.26l64 26.67h103.36z"/><glyph glyph-name="ram" unicode="" horiz-adv-x="640" d="M496 352c8.84 0 16-7.16 16-16s-7.16-16-16-16-16 7.16-16 16 7.16 16 16 16zm117.31-11.61c16.47-8.09 26.69-24.51 26.69-42.86 0-7.44-2.09-20.97-20.06-52.52-7.47-12.99-21.37-21.02-36.28-21.02h-92.63c3.16-7.54 4.97-15.77 4.97-24.31 0-17.88-7.62-34.6-20.5-46.05 2.94-17.09-1.31-35-12.12-48.95-4.37-5.53-9.69-9.88-15.38-13.51V-32c0-17.67-14.33-32-32-32h-64c-17.67 0-32 14.33-32 32v81.92c-3.52-.77-7.02-1.65-10.69-1.77-11.22-.54-22.68 2.71-31.84 8.02A58.669 58.669 0 0 0 247.56 48h-.065c-8.663 0-21.76 3.553-29.235 7.93l20.29-80.07c5.1-20.1-10.07-39.86-31.02-39.86H150c-14.79 0-27.66 10.14-31.12 24.52L97.76 48.38c-.93 3.88-1.12 7.85-1.26 11.81-8.42 5.5-15.58 12.88-20.41 21.98-17 .86-33 9.14-43.78 23.16-10.87 13.71-15.18 31.68-12.12 48.98C7.5 165.72 0 182.4 0 200.31c0 17.88 7.62 34.6 20.51 46.05-2.94 17.09 1.31 35 12.12 48.95 11.06 14.01 27.18 22.24 44.12 23.12 8.21 15.19 22.59 26.32 39.62 30.16 14.32 3.03 28.6.99 40.88-5.67 18.07 11.45 42.85 11.89 61.16 1 11.47 6.74 25.2 8.68 38.37 6.79 4 54.25 48.91 97.29 104.16 97.29 31.66 0 60.73-12.19 83.14-32H528c26.47 0 48-21.53 48-48v-9.27zM150-32h57.53L187.2 48.24c-10.85.15-21.61 3.13-30.64 8.92-8.23-4.38-17.24-6.53-26.38-6.72zm266 0V76.83c-8.49-12.64-21.25-22.01-36.38-25.42-9.4-2.04-18.77-1.61-27.62.68V-32h64zm176.16 292.92c12.5 21.91 15.84 33.33 15.84 36.61 0 6.05-3.37 11.47-8.81 14.14L544 338.83V368c0 8.83-7.19 16-16 16h-96.18c-17.59 19.66-43.04 32-70.88 32-40.22 0-72.94-32.72-72.95-72.95 0-30.41 24.75-55.16 55.16-55.16 22.57 0 40.91 18.36 40.91 40.92 0 14.26-10.15 26.19-23.59 28.95-.01.01 0 .05-.01.05-.04 0-.07-.01-.11 0-3.6.75-6.1 4.01-6.1 7.69v16.27c0 5.05 4.6 8.7 9.59 7.92 1.57-.24 4.14-.81 4.26-.84 27.2-6.14 47.56-30.37 47.9-59.32v-1.33c-.34-39.91-32.86-72.3-72.84-72.3-38.7 0-71.19 25.5-82.54 60.46-10.12 5.18-22.86 4.08-31.28-4.01l-11.25-10.77L207 312.55c-9.94 9.89-27.65 9.54-37.56-.69l-10.66-10.95-11.44 10.14c-16.09 14.23-39.3 5.35-44.84-13.67l-4.03-13.78-14.16 2.52c-21.4 3.74-39.15-18.79-30.59-40.3l5.16-13.02-12.22-6.84c-19.95-11.22-18.92-40.84-.31-51.28l12.22-6.84-5.16-13.02c-8.55-21.61 9.14-44.1 30.34-40.3L98 117.08l3.98-13.96c5.15-18.23 27.62-28.78 45.06-13.95l11.44 9.77 10.44-10.83c9.88-10.19 27.41-10.56 38-.47l11.22 10.77 11.06-10.92c9.91-9.75 26.85-9.76 37.16.16l11.03 10.58 11.06-10.53c12.48-11.85 29.44-8.49 38.12.45l10.66 10.95 11.44-10.14c16.25-14.37 39.36-5.16 44.84 13.67l4.03 13.78 14.16-2.52c21.54-3.74 39.1 18.92 30.59 40.3l-5.16 13.02 12.22 6.84c19.95 11.22 18.92 40.84.31 51.28l-12.22 6.84 5.16 13.02c1.43 3.63 1.89 7.25 1.95 10.81h139.11c3.56 0 6.75 1.84 8.5 4.92z"/><glyph glyph-name="ring" unicode="" d="M256 384c168.07 0 256-64.39 256-128V141.87C512 63.52 397.38 0 256 0S0 63.52 0 141.87V256c0 63.61 87.93 128 256 128zm224-242.13v50.12C440.67 155.37 365.45 128 256 128S71.33 155.37 32 191.99v-50.12C32 89.9 123.99 32 256 32s224 57.9 224 109.87zM89.32 192.03C130.33 172.41 189.71 160 256 160s125.67 12.41 166.68 32.03C381.7 211.63 322.26 224 256 224s-125.7-12.37-166.68-31.97zm364.88 19.31C470.61 224.68 480 239.86 480 256c0 53.02-100.29 96-224 96S32 309.02 32 256c0-16.14 9.39-31.32 25.8-44.66C100.7 237.8 166.94 256 256 256s155.3-18.2 198.2-44.66z"/><glyph glyph-name="running" unicode="" horiz-adv-x="448" d="M396 232c28.67 0 52-23.33 52-52s-23.33-52-52-52h-28.92c-6.57 0-13 .76-19.2 2.21 14.03-20.2 19.12-46.26 12.01-71.12l-24.4-85.4C329.13-48.5 308.58-64 285.51-64c-4.76 0-9.51.66-14.31 2-27.56 7.87-43.58 36.71-35.71 64.29l19.64 68.74-43.7 19.63-19.32-39.74A83.892 83.892 0 0 0 114.91 0H52C23.33 0 0 23.33 0 52s23.33 52 52 52h49.75l58.88 131.46-18.95-9.85a52.097 52.097 0 0 0-25.65-6.76c-18.15 0-35.24 9.65-44.63 25.27-14.7 24.58-6.7 56.57 17.84 71.31l46.19 24.07c17.84 10.47 38.09 16 58.64 16 8.76 0 17.51-1.24 26.13-3.22-2.64 7.44-4.2 15.38-4.2 23.72 0 39.7 32.3 72 72 72s72-32.3 72-72c0-24.73-13-45.91-32.07-58.84 20.32-14.04 36.39-33.73 44.5-58.04l9.04-27.12H396zM288 416c-22.09 0-40-17.91-40-40s17.91-40 40-40 40 17.91 40 40-17.91 40-40 40zM162.69 63.52l19.95 41.21c-12.91 7.86-23.08 18.71-29.98 31.43l-26.72-56.88c-1.91-4.42-6.23-7.28-11.03-7.28H52c-11.05 0-20-8.95-20-20s8.95-20 20-20h62.949c18.92 0 40.307 14.121 47.741 31.52zM396 160c11.05 0 20 8.95 20 20s-8.95 20-20 20h-28.93c-5.17 0-9.75 3.29-11.39 8.2L342.09 249c-9.14 27.4-31.31 47.94-59.31 54.92l-68.19 17.05a84.914 84.914 0 0 1-20.51 2.53c-15.04 0-29.86-4.06-43.1-11.99l-45.26-23.52c-9.47-5.68-12.53-17.97-6.86-27.45 3.75-6.24 10.36-9.7 17.16-9.7 3.055.003 7.666 1.275 10.29 2.84l45.25 23.52c6.91 4.17 14.62 6.31 22.5 6.31 3.6 0 20.5-3.77 20.5-3.77l-37.75-87.57c-6.91-21.4.71-44.79 18.51-57.88 2.89-2.12 88.71-41.16 88.71-41.16 5.4-2.44 8.26-8.56 6.62-14.25L266.26-6.5c-3.04-10.62 3.12-21.7 13.73-24.73 1.85-.52 3.69-.77 5.52-.77 8.7 0 16.7 5.72 19.22 14.5l24.39 85.38c7.05 24.64-5.26 51.18-28.67 61.73l-52.78 23.72 41.47 103.689c6.79-5.24 12.17-12.21 15-20.67l13.59-40.8c6.526-19.623 28.606-35.55 49.287-35.55H396z"/><glyph glyph-name="scarecrow" unicode="" horiz-adv-x="448" d="M256 328c-8.8 0-16 7.2-16 16s7.2 16 16 16 16-7.2 16-16-7.2-16-16-16zm-64 16c-8.8 0-16 7.2-16 16s7.2 16 16 16 16-7.2 16-16-7.2-16-16-16zm253.7-82.3c3.1-3.2 3.1-8.2-.1-11.4L419.3 224l18.4-18.3c5-5.1 1.4-13.7-5.7-13.7H325.9l25.699-141.3c2.1-12.6-11-22.9-22.9-16.9L296 58c-9 6.7-16.5 1.5-24.1-2.5V-48c0-8.8-7.2-16-16-16h-64c-8.8 0-16 7.2-16 16V55.5c-7.1 3.8-15 9.3-24.1 2.5l-32.7-24.2c-11.8-6-25 4.2-22.9 16.9l26 141.3H16.1c-7.2 0-10.7 8.7-5.7 13.7L28.7 224 2.3 250.4c-3.1 3.1-3.1 8.2 0 11.3L28.7 288l-18.4 18.3c-5 5.1-1.4 13.7 5.7 13.7h112v32c0 53 43 96 96 96s96-43 96-96v-32h111.9c7.2 0 10.7-8.7 5.7-13.7L419.3 288zM160 352v-32c0-17.6 14.4-32 32-32h64c17.6 0 32 14.4 32 32v32c0 35.3-28.7 64-64 64s-64-28.7-64-64zm80-384v70.4c-9.5-5-11.3-6.5-16-6.5-4.8 0-6.8 1.6-16 6.5V-32h32zm134.1 256l31.9 32-32 32h-63c-11.1-19-31.5-32-55.1-32h-64c-23.6 0-44 13-55.1 32H73.9l-32-32 32-32h86.6L135.1 85.3c7.8 5.1 16.9 7.8 26.3 7.8 7.9 0 15.6-1.9 22.6-5.6l40-21.3 40 21.3c6.9 3.6 14.7 5.6 22.6 5.6 9.4 0 18.5-2.7 26.3-7.8L287.5 224h86.6z"/><glyph glyph-name="scroll" unicode="" horiz-adv-x="640" d="M608 96c17.66 0 32-14.36 32-32V45.33C640-14.95 590.94-64 530.66-64h-312v.54C168.25-60.62 128-19.11 128 32v224H32c-17.66 0-32 14.36-32 32v80c0 44.11 35.88 80 80 80h352c61.75 0 112-50.25 112-112V96h64zM128 288v80c0 26.47-21.53 48-48 48s-48-21.53-48-48v-80h96zM288 32v32c0 17.64 14.34 32 32 32h192v240c0 44.11-35.88 80-80 80H143.97c10.06-13.38 16.03-30 16.03-48V32c0-35.3 28.72-64 64-64s64 28.7 64 64zm320 13.33V64H320V32c0-24.68-9.62-46.98-24.97-64h235.63C573.31-32 608 2.69 608 45.33z"/><glyph glyph-name="scroll-old" unicode="" horiz-adv-x="640" d="M616 96c13.22 0 24-10.77 24-24V45.33C640-14.95 590.94-64 530.66-64h-312v.26c-1.5.09-3 .08-4.5.23C165.84-58.66 128-14.71 128 36.57v132.81L150.62 192 128 214.62V256H24c-13.22 0-24 10.77-24 24v88c0 44.11 35.88 80 80 80h352c56.03 0 103.59-42.11 110.66-97.95l.97-7.77L521.38 320 544 297.37v-82.75L521.38 192 544 169.38V96h72zM128 288v80c0 26.47-21.53 48-48 48s-48-21.53-48-48v-80h96zm32-251.44c0-35.04 25.19-65.01 57.35-68.23 18.47-1.89 36 3.9 49.59 16.2C280.31-3.34 288 13.95 288 32v32c0 17.64 14.34 32 32 32h73.38L416 73.38 438.62 96H512v60.12L476.12 192 512 227.87v56.25L476.12 320l33.47 33.5C501.56 389.61 469.41 416 432 416H143.97c10.06-13.38 16.03-30 16.03-48V227.88L195.88 192 160 156.12V36.56zm448 8.77V64H451.88L416 28.12 380.12 64H320V32c0-23.82-9.35-46.45-25.17-64h235.83C573.31-32 608 2.69 608 45.33z"/></font>
</defs>
</svg>
