<svg xmlns="http://www.w3.org/2000/svg"><defs><font id="FontAwesome5Pro-Light" horiz-adv-x="640"><font-face font-family="Font Awesome 5 Pro Light" font-weight="300" units-per-em="512" panose-1="2 0 3 3 0 0 0 0 0 0" ascent="448" descent="-64" bbox="-0.00520537 -64.0098 640.027 448.035" underline-thickness="25" underline-position="-51" unicode-range="U+0020-F89D"/><glyph glyph-name="signal" unicode="" d="M208 160c4.42 0 8-3.58 8-8V-56c0-4.42-3.58-8-8-8h-32c-4.42 0-8 3.58-8 8v208c0 4.42 3.58 8 8 8h32zM80 64c4.42 0 8-3.58 8-8V-56c0-4.42-3.58-8-8-8H48c-4.42 0-8 3.58-8 8V56c0 4.42 3.58 8 8 8h32zm256 192c4.42 0 8-3.58 8-8V-56c0-4.42-3.58-8-8-8h-32c-4.42 0-8 3.58-8 8v304c0 4.42 3.58 8 8 8h32zm128 96c4.42 0 8-3.58 8-8V-56c0-4.42-3.58-8-8-8h-32c-4.42 0-8 3.58-8 8v400c0 4.42 3.58 8 8 8h32zm128 96c4.42 0 8-3.58 8-8V-56c0-4.42-3.58-8-8-8h-32c-4.42 0-8 3.58-8 8v496c0 4.42 3.58 8 8 8h32z"/><glyph glyph-name="volume-down" unicode="" horiz-adv-x="384" d="M342.91 253.43C368.25 241.29 384 217.36 384 191s-15.75-50.28-41.09-62.42c-7.8-3.79-17.48-.55-21.34 7.5-3.81 7.96-.44 17.53 7.53 21.34C343.22 164.2 352 177.06 352 191s-8.78 26.8-22.9 33.59c-7.97 3.81-11.34 13.37-7.53 21.34 3.84 7.98 13.53 11.3 21.34 7.5zM231.81 383c12.32 0 24.19-9.51 24.19-24.02V23.02C256 8.52 244.14-1 231.81-1c-5.9 0-11.91 2.18-16.78 7.05L126.06 95H24c-13.26 0-24 10.75-24 24v144c0 13.26 10.74 24 24 24h102.06l88.97 88.95c4.86 4.87 10.87 7.05 16.78 7.05zM224 42.33v297.34L139.31 255H32V127h107.31z"/><glyph glyph-name="volume-up" unicode="" horiz-adv-x="576" d="M342.91 254.43C368.25 242.29 384 218.36 384 192s-15.75-50.28-41.09-62.42c-7.8-3.79-17.48-.55-21.34 7.5-3.81 7.96-.44 17.53 7.53 21.34C343.22 165.2 352 178.06 352 192s-8.78 26.8-22.9 33.59c-7.97 3.81-11.34 13.37-7.53 21.34 3.84 7.98 13.53 11.3 21.34 7.5zM231.81 384c12.32 0 24.19-9.51 24.19-24.02V24.02C256 9.52 244.14 0 231.81 0c-5.9 0-11.91 2.18-16.78 7.05L126.06 96H24c-13.26 0-24 10.75-24 24v144c0 13.26 10.74 24 24 24h102.06l88.97 88.95c4.86 4.87 10.87 7.05 16.78 7.05zM224 43.33v297.34L139.31 256H32V128h107.31zm197.51 402.84C516.78 396.07 576 298.68 576 192.01c0-106.68-59.22-204.069-154.49-254.16-7.98-4.14-17.56-1.05-21.66 6.7-4.13 7.81-1.12 17.5 6.7 21.61 84.76 44.55 137.4 131.1 137.4 225.85s-52.64 181.3-137.4 225.852c-7.83 4.109-10.83 13.8-6.7 21.609 4.13 7.82 13.77 10.78 21.66 6.7zM480 192.01c0-66.13-34.02-126.63-88.81-157.87-7.98-4.55-17.74-1.49-22.04 5.89-4.44 7.66-1.76 17.44 5.96 21.86 44.77 25.54 72.61 75.4 72.61 130.12s-27.84 104.57-72.61 130.12c-7.73 4.42-10.41 14.2-5.96 21.86 4.45 7.67 14.35 10.27 22.04 5.89C445.98 318.63 480 258.13 480 192.01z"/><glyph glyph-name="print" unicode="" horiz-adv-x="512" d="M432 256c44.18 0 80-35.82 80-80V80c0-8.84-7.16-16-16-16h-80V-48c0-8.84-7.16-16-16-16H112c-8.84 0-16 7.16-16 16V64H16C7.16 64 0 71.16 0 80v96c0 44.18 35.82 80 80 80h16v160c0 17.67 13.64 32 30.48 32h180.26a32 32 0 0 0 22.63-9.37l77.26-77.25c6-6.01 9.37-14.14 9.37-22.63V256h16zM320 402.75V352h50.75zM128.12 416l-.1-160H384v64h-64c-17.67 0-32 14.33-32 32v64H128.12zM384-32v96H128v-96h256zm96 128v80c0 26.47-21.53 48-48 48H80c-26.47 0-48-21.53-48-48V96h448zm-80 88c13.25 0 24-10.74 24-24 0-13.25-10.75-24-24-24s-24 10.75-24 24c0 13.26 10.75 24 24 24z"/><glyph glyph-name="folder" unicode="" horiz-adv-x="512" d="M194.74 352H48c-8.84 0-16-7.16-16-16V48c0-8.84 7.16-16 16-16h416c8.84 0 16 7.16 16 16v224c0 8.84-7.16 16-16 16H272a32 32 0 0 0-22.63 9.37zM48 384h146.74a32 32 0 0 0 22.63-9.37L272 320h192c26.51 0 48-21.49 48-48V48c0-26.51-21.49-48-48-48H48C21.49 0 0 21.49 0 48v288c0 26.51 21.49 48 48 48z"/><glyph glyph-name="chart-bar" unicode="" horiz-adv-x="512" d="M424 96c-4.4 0-8 3.6-8 8v240c0 4.4 3.6 8 8 8h16c4.4 0 8-3.6 8-8V104c0-4.4-3.6-8-8-8h-16zm-96 0c-4.4 0-8 3.6-8 8v144c0 4.4 3.6 8 8 8h16c4.4 0 8-3.6 8-8V104c0-4.4-3.6-8-8-8h-16zm-192 0c-4.4 0-8 3.6-8 8v80c0 4.4 3.6 8 8 8h16c4.4 0 8-3.6 8-8v-80c0-4.4-3.6-8-8-8h-16zm96 0c-4.4 0-8 3.6-8 8v208c0 4.4 3.6 8 8 8h16c4.4 0 8-3.6 8-8V104c0-4.4-3.6-8-8-8h-16zm272-64c4.42 0 8-3.58 8-8V8c0-4.42-3.58-8-8-8H16C7.16 0 0 7.16 0 16v360c0 4.42 3.58 8 8 8h16c4.42 0 8-3.58 8-8V32h472z"/><glyph glyph-name="bullhorn" unicode="" horiz-adv-x="576" d="M544 263.12c19.05-11.09 32-31.49 31.99-55.12 0-23.63-12.95-44.03-32-55.12V0c0-9.22-7.08-32-32-32-6.193.006-15.144 3.15-19.98 7.02l-85.03 68.03C364.28 77.19 310.66 96 256 96h-28.08c-2.79-10.21-4.41-20.89-4.41-32 0-29.08 9.75-55.92 26.15-77.44 15.79-20.72.15-50.56-25.9-50.56H117.481c-11.88 0-23.21 6.37-28.4 17.06C72.78-13.35 63.52 24.23 63.52 64L64 96c-35.35 0-64 28.65-64 64v96c0 35.349 28.65 64 64 64h192c54.66 0 108.28 18.809 150.99 52.95l85.029 68.03A31.928 31.928 0 0 0 512 448h.01c25.01 0 31.99-23.26 31.99-32V263.12zM223.76-32c-20.94 27.22-32.24 60.71-32.24 96 0 10.57 1.5 21.3 3.81 32H96l-.01-.48-.48-32c.01-33.3 7.53-64.93 22.36-95.49zM64 128h192v160H64c-17.64 0-32-14.36-32-32v-96c0-17.64 14.36-32 32-32zM512.05 1.07L512 415.99c-.01-.12-.03-.17-.07-.17-.02 0-.05.02-.08.05l-84.87-67.9C386.99 316 338.54 296.14 288 290.13V125.87c50.54-6.01 98.99-25.87 138.97-57.83L511.8.17c.12.32.21.65.25.9z"/><glyph glyph-name="briefcase" unicode="" horiz-adv-x="512" d="M464 320c26.51 0 48-21.49 48-48V16c0-26.51-21.49-48-48-48H48C21.49-32 0-10.51 0 16v256c0 26.51 21.49 48 48 48h112v72c0 13.26 10.74 24 24 24h144c13.26 0 24-10.74 24-24v-72h112zm-272 64v-64h128v64H192zM480 16v144H320v-40c0-13.25-10.75-24-24-24h-80c-13.25 0-24 10.75-24 24v40H32V16c0-8.82 7.18-16 16-16h416c8.82 0 16 7.18 16 16zM224 128h64v32h-64v-32zm256 64v80c0 8.82-7.18 16-16 16H48c-8.82 0-16-7.18-16-16v-80h448z"/><glyph glyph-name="lightbulb" unicode="" horiz-adv-x="352" d="M176 448c97.2 0 176-78.8 176-176 0-44.37-16.45-84.85-43.56-115.78C282.99 127.19 258.26 79.72 256 64l-.07-75.18c-.01-3.14-.94-6.22-2.68-8.84l-24.51-36.84A15.982 15.982 0 0 0 215.42-64h-78.85c-5.35 0-10.35 2.68-13.32 7.14L98.74-20.02a15.973 15.973 0 0 0-2.68 8.84L96 64c-2.15 15.32-26.79 62.97-52.44 92.22C16.5 187.09.06 227.48 0 271.76-.12 364.46 73.05 448 176 448zM223.94-6.31V0h-95.9l.01-6.31L145.14-32h61.71zm.04 38.31l.04 32h-96.08l.07-32h95.97zm60.4 145.32A143.574 143.574 0 0 1 320 272c0 79.4-64.6 144-144 144-83.57 0-144.13-67.01-143.95-144 .08-34.85 12.45-68.3 35.58-94.68 13.99-15.96 36.32-48.09 50.58-81.31H233.8c14.25 33.21 36.59 65.35 50.58 81.31zM176 384c8.84 0 16-7.16 16-16s-7.16-16-16-16c-44.12 0-80-35.89-80-80 0-8.84-7.16-16-16-16s-16 7.16-16 16c0 61.75 50.25 112 112 112z"/><glyph glyph-name="bullseye" unicode="" horiz-adv-x="496" d="M248 356c90.64 0 164-73.35 164-164 0-90.64-73.35-164-164-164-90.64 0-164 73.35-164 164 0 90.64 73.35 164 164 164zm0-296c72.79 0 132 59.21 132 132s-59.21 132-132 132-132-59.21-132-132S175.21 60 248 60zm0 212c44.11 0 80-35.89 80-80s-35.89-80-80-80-80 35.89-80 80 35.89 80 80 80zm0-128c26.47 0 48 21.53 48 48s-21.53 48-48 48-48-21.53-48-48 21.53-48 48-48zm0 296c136.97 0 248-111.03 248-248S384.97-56 248-56 0 55.03 0 192s111.03 248 248 248zm0-464c119.1 0 216 96.9 216 216s-96.9 216-216 216S32 311.1 32 192 128.9-24 248-24z"/><glyph glyph-name="fax" unicode="" horiz-adv-x="512" d="M272 16c-8.84 0-16 7.16-16 16v32c0 8.84 7.16 16 16 16h32c8.84 0 16-7.16 16-16V32c0-8.84-7.16-16-16-16h-32zm0 96c-8.84 0-16 7.16-16 16v32c0 8.84 7.16 16 16 16h32c8.84 0 16-7.16 16-16v-32c0-8.84-7.16-16-16-16h-32zm96-96c-8.84 0-16 7.16-16 16v32c0 8.84 7.16 16 16 16h32c8.84 0 16-7.16 16-16V32c0-8.84-7.16-16-16-16h-32zm0 96c-8.84 0-16 7.16-16 16v32c0 8.84 7.16 16 16 16h32c8.84 0 16-7.16 16-16v-32c0-8.84-7.16-16-16-16h-32zM80 320c26.51 0 48-21.49 48-48V-16c0-26.51-21.49-48-48-48H48C21.49-64 0-42.51 0-16v288c0 26.51 21.49 48 48 48h32zM96-16v288c0 8.82-7.18 16-16 16H48c-8.82 0-16-7.18-16-16V-16c0-8.82 7.18-16 16-16h32c8.82 0 16 7.18 16 16zm384 301.06c18.6-6.61 32-24.19 32-45.06V-16c0-26.51-21.49-48-48-48H208c-26.51 0-48 21.49-48 48v416c0 26.51 21.49 48 48 48h162.74a32 32 0 0 0 22.63-9.37l77.26-77.26c6-6.01 9.37-14.14 9.37-22.63v-53.68zm-96 117.69V352h50.75zM192 400V256h256v64h-64c-17.66 0-32 14.36-32 32v64H208c-8.82 0-16-7.18-16-16zM480-16v240H192V-16c0-8.82 7.18-16 16-16h256c8.82 0 16 7.18 16 16z"/><glyph glyph-name="wifi" unicode="" d="M320 128c44.18 0 80-35.82 80-80 0-44.16-35.81-80-80-80-44.17 0-80 35.81-80 80 0 44.18 35.82 80 80 80zm0-128c26.47 0 48 21.53 48 48s-21.53 48-48 48-48-21.53-48-48 21.53-48 48-48zm316.21 290.05c4.94-4.69 5.08-12.51.27-17.32l-5.69-5.69c-4.61-4.6-12.07-4.73-16.8-.25-164.33 155.76-422.98 156.39-587.97 0-4.73-4.49-12.19-4.36-16.8.25l-5.69 5.69c-4.82 4.81-4.68 12.63.26 17.32 177.16 168.01 455.43 167.851 632.42 0zM526.02 177.69c5.05-4.5 5.32-12.31.67-17.2l-5.53-5.79c-4.47-4.68-11.83-4.96-16.66-.67-104.98 93.21-263.81 93.38-368.98 0-4.84-4.29-12.199-4-16.659.67l-5.53 5.79c-4.67 4.89-4.4 12.7.65 17.2 117.18 104.34 294.7 104.479 412.04 0z"/><glyph glyph-name="calculator" unicode="" horiz-adv-x="448" d="M80 0c-8.84 0-16 7.16-16 16v192c0 8.84 7.16 16 16 16h288c8.84 0 16-7.16 16-16V16c0-8.84-7.16-16-16-16H80zm208 96V32h64v160h-64V96zm-96 96v-64h64v64h-64zm0-96V32h64v64h-64zm-96 96v-64h64v64H96zm0-96V32h64v64H96zm304 352c25.6 0 48-22.4 48-48V-16c0-25.6-22.4-48-48-48H48C22.4-64 0-41.6 0-16v416c0 25.6 22.4 48 48 48h352zm16-464v272H32V-16c0-7.93 8.07-16 16-16h352c7.93 0 16 8.07 16 16zm0 304v112c0 7.93-8.07 16-16 16H48c-7.93 0-16-8.07-16-16V288h384z"/><glyph glyph-name="chart-pie" unicode="" horiz-adv-x="544" d="M527.79 160c9.55 0 17.4-8.39 16.06-17.85-7.81-55.25-34.43-104.4-73.13-140.86-2.95-2.78-6.75-4.13-10.57-4.13-3.754.007-8.96 2.162-11.62 4.81L290.5 160h237.29zM459.88 35.88C483.68 62 500.52 93.84 508.64 128H367.76zM224 160L379.87 4.13c6.85-6.85 6.33-18.48-1.57-24.08-38.29-27.16-84.86-43.4-135.26-44.03-.98-.01-1.93-.02-2.91-.02C113.18-64 4.47 40.47.14 167.63-4.1 292.401 86.99 396.51 206.15 413.35c.71.1 1.42.15 2.11.15 8.56 0 15.74-7.38 15.74-16.21V160zm18.63-191.98c35.62.44 70.02 9.9 100.58 27.52L201.37 137.38l-9.37 9.37v231.42C96.33 355.75 28.72 268.85 32.12 168.72 35.82 59.92 131.08-32 240.12-32zM511.96 224.8c.63-9.12-7.05-16.8-16.19-16.8H272v223.77c0 8.78 7.1 16.23 15.76 16.23.34 0 .69-.01 1.04-.04 119.46-8.24 214.92-103.7 223.16-223.16zM304 240h174.1c-13.82 89.25-84.85 160.29-174.1 174.1V240z"/><glyph glyph-name="chart-line" unicode="" horiz-adv-x="512" d="M504 32c4.42 0 8-3.58 8-8V8c0-4.42-3.58-8-8-8H16C7.16 0 0 7.16 0 16v360c0 4.42 3.58 8 8 8h16c4.42 0 8-3.58 8-8V32h472zM98.34 184.97l84.12 83.32c6.25 6.2 16.34 6.18 22.57-.05l84.63-84.63 82.22 82.22-44.71 44.71c-15.3 15.3-4.47 41.46 17.17 41.46h119.47c8.94 0 16.19-7.25 16.19-16.19V216.34c0-14.64-11.98-24.34-24.46-24.34-5.97 0-12.05 2.21-17 7.16L394.5 243.2l-93.53-93.53c-6.25-6.25-16.38-6.25-22.63 0l-84.69 84.69-72.69-72.01c-3.12-3.12-8.19-3.12-11.31 0l-11.31 11.31c-3.12 3.12-3.12 8.19 0 11.31zM362.96 320L448 234.96V320h-85.04z"/><glyph glyph-name="volume-slash" unicode="" d="M256 340.7L235.2 320l-25.3 19.9L247 377c4.9 4.8 10.9 7 16.8 7 12.3 0 24.2-9.5 24.2-24v-81.7l-32 25.2v37.2zm152-18.6c-7.6 4.4-10.3 14.2-5.8 21.9 4.4 7.7 14.2 10.3 21.8 5.9 54.3-31.3 88-91.8 88-157.9 0-27.2-6-53.4-16.6-77l-25.9 20.401c6.8 17.6 10.5 36.8 10.5 56.6 0 54.7-27.6 104.6-72 130.1zm30.8 95.7c-7.8 4.2-10.8 13.8-6.6 21.7 4.1 7.8 13.7 10.8 21.6 6.7C548.9 396.1 608 298.7 608 192c0-49.1-13-96-35.9-137.4l-25.5 20.101c18.7 35.6 29.4 75.5 29.4 117.3 0 94.8-52.6 181.3-137.2 225.8zm-77.7-192.2c-8 3.8-11.3 13.4-7.5 21.4 3.8 8 13.5 11.3 21.3 7.5 25.3-12.1 41.1-36 41.1-62.4 0-4.5-1-8.7-1.9-13l-33.1 26c-3.6 8.5-10.4 16-19.9 20.5zM637-37.2c3.5-2.8 4-7.8 1.2-11.3l-10-12.5c-2.7-3.4-7.8-4-11.2-1.2L3 421.3c-3.4 2.7-4 7.7-1.2 11.2l10 12.5c2.7 3.5 7.8 4 11.2 1.2zm-198.2 3.4c17.6 9.2 33.4 20.7 48.1 33.3l25.7-20.2c-17.6-15.9-37.1-30-58.8-41.4-2.4-1.2-5-1.8-7.5-1.8-6-.1-11.4 3.2-14.2 8.5-4.1 7.8-1.1 17.5 6.7 21.6zM256 43.3h.1v138l32-25.2V24c0-14.5-11.9-24-24.2-24-5.9 0-11.9 2.1-16.8 7l-89 89H56c-13.3 0-24 10.8-24 24v144c0 13.3 10.7 24 24 24h64.5l40.6-32H64V128h107.3z"/><glyph glyph-name="infinity" unicode="" d="M488.88 352C572.22 352 640 280.22 640 192S572.22 32 488.88 32C406.31 32 346.21 114.45 320 158.46 293.79 114.45 233.68 32 151.12 32 67.78 32 0 103.78 0 192s67.78 160 151.12 160c82.57 0 142.67-82.45 168.88-126.45 26.21 44 86.31 126.45 168.88 126.45zM151.12 64c78.04 0 136.47 100.61 150.939 128-14.47 27.39-72.91 128-150.939 128C85.44 320 32 262.58 32 192S85.44 64 151.12 64zm337.76 0C554.56 64 608 121.42 608 192s-53.44 128-119.12 128c-78.03 0-136.47-100.61-150.939-128 14.47-27.39 72.91-128 150.939-128z"/><glyph glyph-name="route-highway" unicode="" horiz-adv-x="448" d="M428.4 178.79c37.94-56.52 18.56-139.43-38.81-166.03L223.97-64 58.41 12.75C1.05 39.35-18.34 122.26 19.598 178.78c30.47 45.43 11.8 104.48-13 155.4-3.96 8.14-3.34 17.75 1.87 25.13l41.18 58.37c4.56 6.46 11.8 10.13 19.28 10.13h.001c2.344 0 6.022-.682 8.21-1.52 15.36-5.88 32.66-8.89 50.25-8.89 29.51 0 59.82 8.47 83.169 26.11 3.96 2.99 8.7 4.49 13.44 4.49s9.48-1.5 13.45-4.48c23.35-17.64 53.65-26.11 83.16-26.11 17.59 0 34.89 3.01 50.26 8.89a22.92 22.92 0 0 0 8.21 1.52c7.48 0 14.72-3.67 19.28-10.14l41.17-58.36c5.21-7.38 5.83-17 1.87-25.13-24.8-50.93-43.48-109.98-13-155.4zM72.17 394.09l-35-49.62c8.03-16.78 16-36.1 21.86-56.48h329.95c5.85 20.39 13.83 39.7 21.86 56.48l-35 49.62c-17.17-5.7-36.12-8.69-55.23-8.69-35.64 0-69.64 10.03-96.61 28.38-26.97-18.34-60.98-28.38-96.61-28.38-19.1 0-38.05 2.99-55.22 8.69zM412.61 88.06c7.02 25.12 3 52.37-10.77 72.88-20.25 30.19-24.08 63.24-19.87 95.05H66.05c4.2-31.81.38-64.86-19.87-95.04-13.78-20.52-17.81-47.77-10.78-72.89 6-21.44 19.29-38.3 36.48-46.27l152.1-70.52 152.16 70.52c17.18 7.97 30.47 24.83 36.47 46.27z"/><glyph glyph-name="route-interstate" unicode="" horiz-adv-x="480" d="M464.83 392.86C501.83 272.889 486.68 37.66 240-64-6.68 37.66-21.83 272.89 15.17 392.87c3.07 9.94 11.66 16.67 20.94 16.67 1.73 0 3.49-.23 5.24-.72 18.23-5.12 37.74-7.96 58.1-7.96 49.12 0 93.61 16.07 126.17 42.11 4.2 3.35 9.29 5.03 14.38 5.03s10.18-1.68 14.38-5.04c32.56-26.04 77.05-42.11 126.17-42.11 20.36 0 39.87 2.84 58.1 7.96 1.75.49 3.51.72 5.24.72 9.28 0 17.87-6.72 20.94-16.67zM43.37 375.27c-7.13-25.89-11.14-55.71-11.3-87.27h415.81c-.36 38.981-6.65 70.08-11.28 87.26-18.28-4.25-37.09-6.4-56.05-6.4-52.1 0-101.72 15.86-140.55 44.79-38.84-28.93-88.45-44.79-140.55-44.79-18.97 0-37.79 2.16-56.08 6.41zM240.01-29.18c94.32 42.02 157.721 108.32 188.561 197.23 10.79 31.13 15.94 60.77 18.08 87.95H33.321c8.72-104.52 63.79-221.26 206.69-285.18z"/><glyph glyph-name="abacus" unicode="" horiz-adv-x="576" d="M560 448c8.84 0 16-7.16 16-16V-56c0-4.42-3.58-8-8-8h-16c-4.42 0-8 3.58-8 8v72h-64V0c0-17.67-14.33-32-32-32h-32c-17.67 0-32 14.33-32 32v16h-96V0c0-17.67-14.33-32-32-32h-32c-17.67 0-32 14.33-32 32v16h-32V0c0-17.67-14.33-32-32-32H96C78.33-32 64-17.67 64 0v16H32v-72c0-4.42-3.58-8-8-8H8c-4.42 0-8 3.58-8 8v488c0 8.84 7.16 16 16 16s16-7.16 16-16v-64h32v16c0 17.67 14.33 32 32 32h32c17.67 0 32-14.33 32-32v-16h32v16c0 17.67 14.33 32 32 32h32c17.67 0 32-14.33 32-32v-16h96v16c0 17.67 14.33 32 32 32h32c17.67 0 32-14.33 32-32v-16h64v64c0 8.84 7.16 16 16 16zm-144-64v-64h32v64h-32zm-192 0v-64h32v64h-32zm-128 0v-64h32v64H96zM128 0v64H96V0h32zm128 0v64h-32V0h32zm192 0v64h-32V0h32zm96 48v128H416v-16c0-17.67-14.33-32-32-32h-32c-17.67 0-32 14.33-32 32v16h-32v-16c0-17.67-14.33-32-32-32h-32c-17.67 0-32 14.33-32 32v16h-32v-16c0-17.67-14.33-32-32-32H96c-17.67 0-32 14.33-32 32v16H32V48h32v16c0 17.67 14.33 32 32 32h32c17.67 0 32-14.33 32-32V48h32v16c0 17.67 14.33 32 32 32h32c17.67 0 32-14.33 32-32V48h96v16c0 17.67 14.33 32 32 32h32c17.67 0 32-14.33 32-32V48h64zM96 160h32v64H96v-64zm128 0h32v64h-32v-64zm128 0h32v64h-32v-64zm192 48v128h-64v-16c0-17.67-14.33-32-32-32h-32c-17.67 0-32 14.33-32 32v16h-96v-16c0-17.67-14.33-32-32-32h-32c-17.67 0-32 14.33-32 32v16h-32v-16c0-17.67-14.33-32-32-32H96c-17.67 0-32 14.33-32 32v16H32V208h32v16c0 17.67 14.33 32 32 32h32c17.67 0 32-14.33 32-32v-16h32v16c0 17.67 14.33 32 32 32h32c17.67 0 32-14.33 32-32v-16h32v16c0 17.67 14.33 32 32 32h32c17.67 0 32-14.33 32-32v-16h128z"/><glyph glyph-name="ad" unicode="" horiz-adv-x="512" d="M464 384c26.5 0 48-21.5 48-48V48c0-26.5-21.5-48-48-48H48C21.5 0 0 21.5 0 48v288c0 26.5 21.5 48 48 48h416zm16-336v288c0 8.82-7.18 16-16 16H48c-8.82 0-16-7.18-16-16V48c0-8.82 7.18-16 16-16h416c8.82 0 16 7.18 16 16zm-72 240c4.42 0 8-3.58 8-8V104c0-4.42-3.58-8-8-8h-16c-4.42 0-8 3.58-8 8v.88c-9.45-5.5-20.28-8.88-32-8.88-35.35 0-64 28.65-64 64s28.65 64 64 64c11.72 0 22.55-3.38 32-8.88V280c0 4.42 3.58 8 8 8h16zm-56-160c17.64 0 32 14.36 32 32s-14.36 32-32 32-32-14.36-32-32 14.36-32 32-32zM196.97 282.87l67.69-176c2.01-5.24-1.85-10.87-7.47-10.87h-17.15c-3.033 0-6.38 2.299-7.47 5.13L209.93 160h-67.86l-22.65-58.87a8.007 8.007 0 0 0-7.47-5.13H94.8c-5.62 0-9.49 5.63-7.47 10.87l67.69 176a8.008 8.008 0 0 0 7.47 5.13h27.01c3.033-.001 6.38-2.299 7.47-5.13zM154.37 192h43.26L176 248.23z"/><glyph glyph-name="analytics" unicode="" horiz-adv-x="576" d="M80 96c8.84 0 16-7.16 16-16V-48c0-8.84-7.16-16-16-16H16C7.16-64 0-56.84 0-48V80c0 8.84 7.16 16 16 16h64zM64-32v96H32v-96h32zm496 288c8.84 0 16-7.16 16-16V-48c0-8.84-7.16-16-16-16h-64c-8.84 0-16 7.16-16 16v288c0 8.84 7.16 16 16 16h64zM544-32v256h-32V-32h32zm-41.23 391.32l-89.6-71.67c1.71-4.93 2.83-10.14 2.83-15.65 0-26.51-21.49-48-48-48s-48 21.49-48 48c0 5.51 1.12 10.72 2.83 15.65l-89.599 71.68c-7.35-4.57-15.94-7.33-25.23-7.33-7.4 0-14.32 1.81-20.58 4.8L91.2 260.58C94.19 254.32 96 247.4 96 240c0-26.51-21.49-48-48-48S0 213.49 0 240s21.49 48 48 48c7.4 0 14.32-1.81 20.58-4.8l96.22 96.22c-2.991 6.26-4.8 13.18-4.8 20.58 0 26.51 21.49 48 48 48s48-21.49 48-48c0-5.51-1.12-10.72-2.83-15.64l89.599-71.68c7.35 4.57 15.94 7.33 25.23 7.33s17.88-2.76 25.231-7.33l89.6 71.68c-1.71 4.93-2.83 10.13-2.83 15.64 0 26.51 21.49 48 48 48s48-21.49 48-48-21.49-48-48-48c-9.29 0-17.88 2.76-25.231 7.32zM528 416c-8.82 0-16-7.18-16-16s7.18-16 16-16 16 7.18 16 16-7.18 16-16 16zM48 224c8.82 0 16 7.18 16 16s-7.18 16-16 16-16-7.18-16-16 7.18-16 16-16zm160 160c8.82 0 16 7.18 16 16s-7.18 16-16 16-16-7.18-16-16 7.18-16 16-16zm160-128c8.82 0 16 7.18 16 16s-7.18 16-16 16-16-7.18-16-16 7.18-16 16-16zm-128 0c8.84 0 16-7.16 16-16V-48c0-8.84-7.16-16-16-16h-64c-8.84 0-16 7.16-16 16v288c0 8.84 7.16 16 16 16h64zM224-32v256h-32V-32h32zm176 160c8.84 0 16-7.16 16-16V-48c0-8.84-7.16-16-16-16h-64c-8.84 0-16 7.16-16 16v160c0 8.84 7.16 16 16 16h64zM384-32V96h-32V-32h32z"/><glyph glyph-name="ankh" unicode="" horiz-adv-x="320" d="M312 160c4.42 0 8-3.58 8-8v-16c0-4.42-3.58-8-8-8H176V-56c0-4.42-3.58-8-8-8h-16c-4.42 0-8 3.58-8 8v184H8c-4.42 0-8 3.58-8 8v16c0 4.42 3.58 8 8 8h96.58C67.78 195.95 32 256.37 32 310.86 32 395.02 89.31 448 160 448s128-52.98 128-137.14c0-54.49-35.78-114.92-72.58-150.86H312zM64 310.86c0-71.79 75.25-149.021 96.18-150.86h.03c20.54 1.84 95.79 79.08 95.79 150.86 0 61.9-39.48 105.14-96 105.14s-96-43.24-96-105.14z"/><glyph glyph-name="badge-dollar" unicode="" horiz-adv-x="512" d="M289.94 198.95c27.86-7.98 45.29-38.13 35.14-67.78C317.69 109.59 296.17 96 273.36 96H272V72c0-4.42-3.58-8-8-8h-16c-4.42 0-8 3.58-8 8v24h-1.38c-15.72 0-30.64 5.1-42.9 14.51-3.93 3.02-4.49 8.73-.99 12.23l11.42 11.42c2.62 2.62 6.85 3.33 9.84 1.16 6.55-4.76 14.39-7.32 22.63-7.32h36.91c11.28 0 20.47 9.18 20.47 20.48 0 9.09-6.13 17.18-14.88 19.7l-56.44 16.11c-21.39 6.1-38.39 24.06-40.45 46.22-2.89 31.18 21.65 57.48 52.24 57.48H240v24c0 4.42 3.58 8 8 8h16c4.42 0 8-3.58 8-8v-24h1.38c15.72 0 30.64-5.1 42.9-14.51 3.93-3.01 4.49-8.73.99-12.23l-11.42-11.42c-2.62-2.62-6.85-3.33-9.84-1.16-6.55 4.76-14.39 7.32-22.63 7.32h-36.91c-11.28 0-20.47-9.18-20.47-20.48 0-9.09 6.13-17.18 14.88-19.7zM512 192c0-35.5-19.4-68.2-49.6-85.5 9.1-33.6-.3-70.4-25.4-95.5-26.1-26.1-62.8-34.3-95.5-25.4C324.1-44.6 291.5-64 256-64s-68.1 19.4-85.5 49.6c-32.1-8.7-69-1.1-95.5 25.4-25.1 25.1-34.5 61.9-25.4 95.5C19.4 123.8 0 156.5 0 192s19.4 68.2 49.6 85.5c-9.1 33.6.3 70.4 25.4 95.5s61.9 34.5 95.5 25.4c17.3 30.2 50 49.6 85.5 49.6s68.2-19.4 85.5-49.6c33.6 9.1 70.4-.3 95.5-25.4s34.5-61.9 25.4-95.5c30.2-17.3 49.6-50 49.6-85.5zm-91.1-68.3c9.6 3.6 59.1 16.2 59.1 68.3 0 51-47 63.7-59.1 68.3 4.4 9.6 30.3 53.4-6.5 90.1-36 36-78.3 11.8-90.1 6.5-3.6 9.6-16.2 59.1-68.3 59.1-51 0-63.7-47-68.3-59.1-9.3 4.2-53.3 30.4-90.1-6.5-36-36-11.8-78.3-6.5-90.1C81.5 256.7 32 244.1 32 192c0-51 47-63.7 59.1-68.3-4.4-9.6-30.3-53.4 6.5-90.1 28.8-28.7 57.5-21.3 90.1-6.5C191.3 17.5 203.9-32 256-32c51 0 63.7 47 68.3 59.1 32.6-14.8 61.2-22.4 90.1 6.5 36 36 11.8 78.3 6.5 90.1z"/><glyph glyph-name="badge-percent" unicode="" horiz-adv-x="512" d="M349.66 274.35c3.12-3.13 3.12-8.19-.01-11.31L184.96 98.35c-3.12-3.119-8.19-3.119-11.31 0l-11.31 11.31c-3.12 3.121-3.12 8.19 0 11.31l164.7 164.69c3.12 3.12 8.19 3.12 11.31 0zM240 256c0-26.47-21.53-48-48-48s-48 21.53-48 48 21.53 48 48 48 48-21.53 48-48zm-64 0c0-8.83 7.19-16 16-16s16 7.17 16 16-7.19 16-16 16-16-7.17-16-16zm144-80c26.47 0 48-21.53 48-48s-21.53-48-48-48-48 21.53-48 48 21.53 48 48 48zm0-64c8.81 0 16 7.17 16 16s-7.19 16-16 16-16-7.17-16-16 7.19-16 16-16zm192 80c0-35.5-19.4-68.2-49.6-85.5 9.1-33.6-.3-70.4-25.4-95.5-26.1-26.1-62.8-34.3-95.5-25.4C324.1-44.6 291.5-64 256-64s-68.1 19.4-85.5 49.6c-32.1-8.7-69-1.1-95.5 25.4-25.1 25.1-34.5 61.9-25.4 95.5C19.4 123.8 0 156.5 0 192s19.4 68.2 49.6 85.5c-9.1 33.6.3 70.4 25.4 95.5s61.9 34.5 95.5 25.4c17.3 30.2 50 49.6 85.5 49.6s68.2-19.4 85.5-49.6c33.6 9.1 70.4-.3 95.5-25.4s34.5-61.9 25.4-95.5c30.2-17.3 49.6-50 49.6-85.5zm-91.1-68.3c9.6 3.6 59.1 16.2 59.1 68.3 0 51-47 63.7-59.1 68.3 4.4 9.6 30.3 53.4-6.5 90.1-36 36-78.3 11.8-90.1 6.5-3.6 9.6-16.2 59.1-68.3 59.1-51 0-63.7-47-68.3-59.1-9.3 4.2-53.3 30.4-90.1-6.5-36-36-11.8-78.3-6.5-90.1C81.5 256.7 32 244.1 32 192c0-51 47-63.7 59.1-68.3-4.4-9.6-30.3-53.4 6.5-90.1 28.8-28.7 57.5-21.3 90.1-6.5C191.3 17.5 203.9-32 256-32c51 0 63.7 47 68.3 59.1 32.6-14.8 61.2-22.4 90.1 6.5 36 36 11.8 78.3 6.5 90.1z"/><glyph glyph-name="bible" unicode="" horiz-adv-x="448" d="M448 56c0-10-6.2-18.6-14.9-22.2-3.6-16.1-4.4-45.6-.4-65.8h3.3c6.6 0 12-5.4 12-12v-8c0-6.6-5.4-12-12-12H64C28.65-64 0-35.35 0 0v368c0 44.2 35.8 80 80 80h344c13.3 0 24-10.7 24-24V56zm-43.7-88c-3.1 20.4-2.9 45.2 0 64H64C46.33 32 32 17.67 32 0s14.33-32 32-32h340.3zM416 64v352H80c-26.5 0-48-21.5-48-48V55.12C41.45 60.62 52.28 64 64 64h352zM152 224c-13.22 0-24 10.77-24 24v48c0 13.23 10.78 24 24 24h40v40c0 13.23 10.78 24 24 24h48c13.22 0 24-10.77 24-24v-40h40c13.22 0 24-10.77 24-24v-48c0-13.23-10.78-24-24-24h-40V120c0-13.23-10.78-24-24-24h-48c-13.22 0-24 10.77-24 24v104h-40zm8 64v-32h64V128h32v128h64v32h-64v64h-32v-64h-64z"/><glyph glyph-name="bullseye-arrow" unicode="" horiz-adv-x="496" d="M305.05 349.26c-.58 1.745-1.05 4.654-1.05 6.494 0 4.702 2.696 11.219 6.02 14.546l63.67 63.67c4.11 4.11 9.33 6.03 14.47 6.03 8.38 0 16.57-5.08 19.55-14.07l18.55-55.65 55.66-18.55c14.5-4.84 18.84-23.24 8.04-34.04l-63.67-63.67c-3.322-3.322-9.83-6.019-14.529-6.019-1.845 0-4.762.475-6.51 1.059l-53.62 23.96-92.331-92.33c-3.12-3.13-7.22-4.69-11.31-4.69s-8.19 1.57-11.31 4.69c-6.25 6.24-6.25 16.37 0 22.62l92.33 92.33zm78.18 48.99l-44.92-44.94 21.93-49.09 49.09-21.93 44.93 44.93-38.09 12.7-15.18 5.06-5.06 15.18zm101.2-131.35A247.837 247.837 0 0 0 496 192C496 55.03 384.97-56 248-56S0 55.03 0 192s111.03 248 248 248h.058c21.15 0 54.68-5.184 74.843-11.57l-26.181-26.18C281.04 405.89 264.78 408 248 408c-119.1 0-216-96.9-216-216S128.9-24 248-24s216 96.9 216 216c0 16.77-2.12 33.03-5.75 48.72zM274.7 339.15c.71-2.14-.62 1 9.07-20.7C272.32 321.7 260.48 324 248 324c-72.79 0-132-59.21-132-132S175.21 60 248 60s132 59.21 132 132c0 12.48-2.3 24.32-5.55 35.77 21.71-9.69 18.57-8.36 20.69-9.07 4.65-1.55 9.52-2.13 14.41-2.34 1.2-8.01 2.45-16.01 2.45-24.36 0-90.64-73.35-164-164-164-90.64 0-164 73.35-164 164 0 90.64 73.35 164 164 164 8.23 0 16.12-1.25 24.02-2.41.183-4.09 1.383-10.558 2.68-14.44zM248 272c3.77 0 7.38-.61 11.01-1.11l-44.95-44.95.01-.01c-8.69-8.7-14.07-20.7-14.07-33.93 0-26.47 21.53-48 48-48 13.23 0 25.23 5.38 33.93 14.07l.01-.01 44.95 44.95c.5-3.63 1.11-7.24 1.11-11.01 0-44.11-35.89-80-80-80s-80 35.89-80 80 35.89 80 80 80z"/><glyph glyph-name="bullseye-pointer" unicode="" horiz-adv-x="496" d="M241.5 207.3c13.29 3.78 25.59-8.49 21.82-21.79L200.6-35.16c-2.4-8.42-9.7-12.83-17.04-12.83-6.3 0-12.61 3.25-15.86 10.01l-26.54 55.27L80.57-43.3c-6.25-6.25-14.44-9.37-22.63-9.37s-16.38 3.12-22.63 9.37L12.69-20.68C.19-8.19.19 12.07 12.69 24.57l60.59 60.59-55.27 26.54c-14.64 7.03-12.81 28.45 2.82 32.89zM180.15 9.98l45.34 159.51-159.5-45.33 61.84-29.71L35.32 1.94l22.62-22.62 92.51 92.51zM328 192c0-33.74-21.07-62.53-50.69-74.26C292.9 172.56 296 180.74 296 192c0 26.47-21.53 48-48 48-11.33 0-19.93-3.24-74.26-18.69C185.47 250.93 214.26 272 248 272c44.11 0 80-35.89 80-80zM251.92 28.39l9.37 32.95C327.76 68.12 380 123.77 380 192c0 72.79-59.21 132-132 132-68.24 0-123.88-52.23-130.66-118.72l-32.95-9.36C86.53 284.7 158.69 356 248 356c90.64 0 164-73.35 164-164 0-89.29-71.29-161.47-160.08-163.61zM248 440c136.97 0 248-111.02 248-247.99 0-136.97-111.03-248-248-248-7.35 0-14.58.47-21.77 1.1 1.99 3.48 4 6.96 5.14 10.98l5.82 20.46c3.6-.18 7.16-.55 10.81-.55 119.1 0 216 96.9 216 216s-96.9 216-216 216S32 311.1 32 192c0-3.65.37-7.21.55-10.81l-20.47-5.82c-3.99-1.13-7.53-3.03-10.99-5C.47 177.51 0 184.7 0 192c0 136.97 111.03 248 248 248z"/><glyph glyph-name="business-time" unicode="" d="M48 32h278.8c2.596-9.175 8.227-23.512 12.57-32H48C21.49 0 0 21.49 0 48v256c0 26.51 21.49 48 48 48h112v72c0 13.26 10.74 24 24 24h144c13.26 0 24-10.74 24-24v-72h112c26.51 0 48-21.49 48-48v-48.81c-5.28.48-10.6.81-16 .81s-10.72-.33-16-.81V304c0 8.82-7.18 16-16 16H48c-8.82 0-16-7.18-16-16v-80h363c-12.96-9.1-24.71-19.81-34.77-32H320v-40c0-13.25-10.75-24-24-24h-80c-13.25 0-24 10.75-24 24v40H32V48c0-8.82 7.18-16 16-16zm176 160v-32h64v32h-64zm-32 224v-64h128v64H192zM550.29 96c5.34 0 9.71-4.37 9.71-9.71V73.72c0-5.34-4.37-9.71-9.71-9.71h-60.57c-5.34 0-9.71 4.37-9.71 9.71v76.57c0 5.34 4.37 9.71 9.71 9.71h12.57c5.34 0 9.71-4.37 9.71-9.71V96h38.29zM496 224c79.59 0 144-64.41 144-144S575.59-64 496-64 352 .41 352 80s64.41 144 144 144zm0-256c61.76 0 112 50.24 112 112s-50.24 112-112 112-112-50.24-112-112S434.24-32 496-32z"/><glyph glyph-name="cabinet-filing" unicode="" horiz-adv-x="512" d="M464 448c26.51 0 48-21.49 48-48V-16c0-26.51-21.49-48-48-48H48C21.49-64 0-42.51 0-16v416c0 26.51 21.49 48 48 48h416zm16-464v192H32V-16c0-8.82 7.18-16 16-16h416c8.82 0 16 7.18 16 16zm0 224v192c0 8.82-7.18 16-16 16H48c-8.82 0-16-7.18-16-16V208h448zM336 352c8.84 0 16-7.16 16-16v-40c0-4.42-3.58-8-8-8h-16c-4.42 0-8 3.58-8 8v24H192v-24c0-4.42-3.58-8-8-8h-16c-4.42 0-8 3.58-8 8v40c0 8.84 7.16 16 16 16h160zM168 32c-4.42 0-8 3.58-8 8v40c0 8.84 7.16 16 16 16h160c8.84 0 16-7.16 16-16V40c0-4.42-3.58-8-8-8h-16c-4.42 0-8 3.58-8 8v24H192V40c0-4.42-3.58-8-8-8h-16z"/><glyph glyph-name="calculator-alt" unicode="" horiz-adv-x="480" d="M72 288c-4.42 0-8 3.58-8 8v16c0 4.42 3.58 8 8 8h112c4.42 0 8-3.58 8-8v-16c0-4.42-3.58-8-8-8H72zm5.09-247.6c-1.297 1.294-2.349 3.832-2.349 5.665 0 1.828 1.048 4.36 2.339 5.655L105.37 80l-28.28 28.29c-3.12 3.12-3.12 8.19 0 11.31l11.31 11.32c3.12 3.12 8.19 3.12 11.31 0L128 102.63l28.3 28.28c3.12 3.12 8.19 3.12 11.31 0l11.31-11.31c3.12-3.12 3.12-8.19 0-11.31L150.63 80l28.28-28.3c3.12-3.12 3.12-8.19 0-11.31L167.6 29.08c-3.12-3.12-8.19-3.12-11.31 0L128 57.37 99.71 29.09c-3.12-3.12-8.19-3.12-11.31 0zM448 432c17.67 0 32-14.33 32-32V-16c0-17.67-14.33-32-32-32H32C14.33-48 0-33.67 0-16v416c0 17.67 14.33 32 32 32h416zM224-16v192H32V-16h192zm0 224v192H32V208h192zM448-16v192H256V-16h192zm0 224v192H256V208h192zm-152 80c-4.42 0-8 3.58-8 8v16c0 4.42 3.58 8 8 8h40v40c0 4.42 3.58 8 8 8h16c4.42 0 8-3.58 8-8v-40h40c4.42 0 8-3.58 8-8v-16c0-4.42-3.58-8-8-8h-40v-40c0-4.42-3.58-8-8-8h-16c-4.42 0-8 3.58-8 8v40h-40zm0-256c-4.42 0-8 3.58-8 8v16c0 4.42 3.58 8 8 8h112c4.42 0 8-3.58 8-8V40c0-4.42-3.58-8-8-8H296zm0 64c-4.42 0-8 3.58-8 8v16c0 4.42 3.58 8 8 8h112c4.42 0 8-3.58 8-8v-16c0-4.42-3.58-8-8-8H296z"/><glyph glyph-name="chart-line-down" unicode="" horiz-adv-x="512" d="M504 32c4.42 0 8-3.58 8-8V8c0-4.42-3.58-8-8-8H16C7.16 0 0 7.16 0 16v360c0 4.42 3.58 8 8 8h16c4.42 0 8-3.58 8-8V32h472zM182.45 211.71l-84.11 83.32c-3.12 3.12-3.12 8.19 0 11.31l11.31 11.31c3.12 3.12 8.19 3.12 11.31 0l72.69-72.01 84.69 84.69c6.25 6.25 16.38 6.25 22.63 0l93.53-93.53 44.03 44.04c4.95 4.95 11.03 7.16 17 7.16 12.48 0 24.46-9.7 24.46-24.34V144.19c0-8.94-7.25-16.19-16.19-16.19H344.33c-21.63 0-32.47 26.16-17.17 41.46l44.71 44.71-82.22 82.22-84.63-84.63c-6.22-6.23-16.31-6.25-22.57-.05zM448 245.04L362.96 160H448v85.04z"/><glyph glyph-name="chart-pie-alt" unicode="" horiz-adv-x="512" d="M461.29 160c9.54 0 17.39-8.39 16.06-17.84C460.89 25.66 361.04-64 240-64c-2.68 0-5.38.04-8.07.13C107.91-59.8 4.2 43.901.13 167.93c-4.09 124.641 86.95 228.601 206.02 245.42.71.1 1.42.15 2.11.15 8.56 0 15.74-7.38 15.74-16.21V160h237.29zM240-32c96.49 0 180.27 67.57 202.15 160H192v250.17C96.45 355.77 28.84 268.981 32.11 168.99 35.63 61.75 125.74-28.361 232.98-31.88c2.34-.08 4.69-.12 7.02-.12zm48.8 479.96c119.46-8.24 214.92-103.7 223.17-223.16.62-9.11-7.06-16.8-16.2-16.8H272v223.77c0 8.79 7.1 16.23 15.76 16.23.34 0 .69-.01 1.04-.04zM304 240h174.1c-13.82 89.25-84.85 160.29-174.1 174.1V240z"/><glyph glyph-name="city" unicode="" d="M132 80c6.62 0 12-5.37 12-12V28c0-6.63-5.38-12-12-12H92c-6.62 0-12 5.37-12 12v40c0 6.63 5.38 12 12 12h40zm0 96c6.62 0 12-5.37 12-12v-40c0-6.63-5.38-12-12-12H92c-6.62 0-12 5.37-12 12v40c0 6.63 5.38 12 12 12h40zm0 96c6.62 0 12-5.37 12-12v-40c0-6.63-5.38-12-12-12H92c-6.62 0-12 5.37-12 12v40c0 6.63 5.38 12 12 12h40zm96-192c6.62 0 12-5.37 12-12V28c0-6.63-5.38-12-12-12h-40c-6.62 0-12 5.37-12 12v40c0 6.63 5.38 12 12 12h40zm0 96c6.62 0 12-5.37 12-12v-40c0-6.63-5.38-12-12-12h-40c-6.62 0-12 5.37-12 12v40c0 6.63 5.38 12 12 12h40zm0 96c6.62 0 12-5.37 12-12v-40c0-6.63-5.38-12-12-12h-40c-6.62 0-12 5.37-12 12v40c0 6.63 5.38 12 12 12h40zm192-96c6.62 0 12-5.37 12-12v-40c0-6.63-5.38-12-12-12h-40c-6.62 0-12 5.37-12 12v40c0 6.63 5.38 12 12 12h40zm0 96c6.62 0 12-5.37 12-12v-40c0-6.63-5.38-12-12-12h-40c-6.62 0-12 5.37-12 12v40c0 6.63 5.38 12 12 12h40zm0 96c6.62 0 12-5.37 12-12v-40c0-6.63-5.38-12-12-12h-40c-6.62 0-12 5.37-12 12v40c0 6.63 5.38 12 12 12h40zM548 80c6.62 0 12-5.37 12-12V28c0-6.63-5.38-12-12-12h-40c-6.62 0-12 5.37-12 12v40c0 6.63 5.38 12 12 12h40zm0 96c6.62 0 12-5.37 12-12v-40c0-6.63-5.38-12-12-12h-40c-6.62 0-12 5.37-12 12v40c0 6.63 5.38 12 12 12h40zm68 80c13.25 0 24-10.74 24-24V-56c0-4.42-3.58-8-8-8h-16c-4.42 0-8 3.58-8 8v280H480v192H320v-96H32V-56c0-4.42-3.58-8-8-8H8c-4.42 0-8 3.58-8 8v384c0 13.26 10.75 24 24 24h72v88c0 4.42 3.58 8 8 8h16c4.42 0 8-3.58 8-8v-88h64v88c0 4.42 3.58 8 8 8h16c4.42 0 8-3.58 8-8v-88h64v72c0 13.26 10.75 24 24 24h176c13.25 0 24-10.74 24-24V256h104z"/><glyph glyph-name="comment-alt-dollar" unicode="" horiz-adv-x="512" d="M448 448c35.35 0 64-28.65 64-64V96c0-35.35-28.65-64-64-64H304L179.13-61.63c-2.21-1.63-4.67-2.37-7.08-2.37-6.22 0-12.05 4.92-12.05 12.02V32H64C28.65 32 0 60.65 0 96v288c0 35.35 28.65 64 64 64h384zm32-352v288c0 17.64-14.36 32-32 32H64c-17.64 0-32-14.36-32-32V96c0-17.64 14.36-32 32-32h128v-75.98l92.81 69.58 8.53 6.4H448c17.64 0 32 14.36 32 32zM289.94 246.95c27.86-7.98 45.29-38.13 35.14-67.77-7.39-21.58-28.91-35.17-51.72-35.17H272v-24c0-4.42-3.58-8-8-8h-16c-4.42 0-8 3.58-8 8v24h-1.38c-15.72 0-30.64 5.1-42.9 14.51-3.93 3.02-4.49 8.73-.99 12.23l11.42 11.42c2.62 2.62 6.85 3.33 9.84 1.16 6.55-4.76 14.39-7.32 22.63-7.32h36.91c11.28 0 20.47 9.18 20.47 20.48 0 9.09-6.13 17.18-14.88 19.7l-56.44 16.11c-21.39 6.1-38.39 24.06-40.45 46.22-2.89 31.18 21.65 57.48 52.24 57.48H240v24c0 4.42 3.58 8 8 8h16c4.42 0 8-3.58 8-8v-24.01h1.38c15.72 0 30.64-5.1 42.9-14.51 3.93-3.01 4.49-8.73.99-12.23l-11.42-11.42c-2.62-2.62-6.85-3.33-9.84-1.16-6.55 4.76-14.39 7.32-22.63 7.32h-36.91c-11.28 0-20.47-9.18-20.47-20.48 0-9.09 6.13-17.18 14.88-19.7z"/><glyph glyph-name="comment-dollar" unicode="" horiz-adv-x="512" d="M256 416c141.38 0 256-93.12 256-208S397.38 0 256 0c-32.8 0-64.05 5.2-92.87 14.33C134-6.28 85.49-32 23.98-32c-9.59 0-18.24 5.73-22.03 14.52C-1.84-8.69-.02 1.55 6.54 8.5 6.97 8.94 38 42.28 52.9 81.73 19.86 116.77 0 160.45 0 208c0 114.88 114.62 208 256 208zm0-384c123.51 0 224 78.95 224 176S379.51 384 256 384 32 305.05 32 208c0-37.6 15.28-73.67 44.18-104.33L89.9 89.12l-7.07-18.71C71.84 41.3 54.01 15.95 42.02.86c44.09 4.25 79.6 23.3 102.62 39.59l12.99 9.19 15.16-4.8C199.68 36.32 227.67 32 256 32zm33.94 182.95c27.86-7.98 45.29-38.13 35.14-67.78-7.39-21.58-28.91-35.17-51.72-35.17H272V88c0-4.42-3.58-8-8-8h-16c-4.42 0-8 3.58-8 8v24h-1.38c-15.72 0-30.64 5.1-42.9 14.51-3.93 3.02-4.49 8.73-.99 12.23l11.42 11.42c2.62 2.62 6.85 3.33 9.84 1.16 6.55-4.76 14.39-7.32 22.63-7.32h36.91c11.28 0 20.47 9.18 20.47 20.48 0 9.09-6.13 17.18-14.88 19.7l-56.44 16.11c-21.39 6.1-38.39 24.06-40.45 46.22-2.89 31.18 21.65 57.48 52.24 57.48H240v24c0 4.42 3.58 8 8 8h16c4.42 0 8-3.58 8-8v-24h1.38c15.72 0 30.64-5.1 42.9-14.51 3.93-3.01 4.49-8.73.99-12.23l-11.42-11.42c-2.62-2.62-6.85-3.33-9.84-1.16-6.55 4.76-14.39 7.32-22.63 7.32h-36.91c-11.28 0-20.47-9.18-20.47-20.48 0-9.09 6.13-17.18 14.88-19.7z"/><glyph glyph-name="comments-alt-dollar" unicode="" horiz-adv-x="576" d="M224 213.4V200c0-4.42-3.58-8-8-8h-16c-4.42 0-8 3.58-8 8v13.32c-10.11.74-19.9 4.29-28.08 10.32-3.92 2.89-4.07 8.75-.54 12.11l11.44 10.87c2.69 2.55 6.83 3.34 10 1.4 3.31-2.02 7.06-3.1 10.96-3.1h25.94c5.32 0 9.66 4.91 9.66 10.94 0 4.96-2.97 9.31-7.19 10.58l-41.56 12.47c-17.66 5.29-30 22.25-30 41.23 0 22.84 17.53 41.17 39.38 42.46V376c0 4.42 3.58 8 8 8h16c4.42 0 8-3.58 8-8v-13.32c10.11-.74 19.9-4.29 28.08-10.32 3.92-2.89 4.07-8.75.54-12.11l-11.44-10.87c-2.69-2.55-6.83-3.33-10-1.4-3.31 2.02-7.06 3.1-10.96 3.1h-25.94c-5.32 0-9.66-4.91-9.66-10.94 0-4.96 2.97-9.31 7.19-10.58l41.56-12.47c17.66-5.29 30-22.25 30-41.23 0-22.84-17.53-41.17-39.38-42.46zM512 288c35.35 0 64-28.65 64-64V64c0-35.35-28.65-64-64-64h-32v-51.98c0-7.1-5.83-12.02-12.05-12.02-2.4 0-4.87.74-7.08 2.37L352 0h-96c-35.35 0-64 28.65-64 64v45.88l-76.87-43.51c-2.21-1.63-4.67-2.37-7.08-2.37C101.83 64 96 68.92 96 76.02V128H64c-35.35 0-64 28.65-64 64v192c0 35.35 28.65 64 64 64h288c35.35 0 64-28.65 64-64v-96h96zM128 110.43L215.57 160H352c17.64 0 32 14.36 32 32v192c0 17.64-14.36 32-32 32H64c-17.64 0-32-14.36-32-32V192c0-17.64 14.36-32 32-32h64v-49.57zM544 64v160c0 17.64-14.36 32-32 32h-96v-64c0-35.35-28.65-64-64-64H224V64c0-17.64 14.36-32 32-32h104.43L448-17.57V32h64c17.64 0 32 14.36 32 32z"/><glyph glyph-name="comments-dollar" unicode="" horiz-adv-x="576" d="M532.01 61.83c15.3-30.74 37.34-54.52 37.69-54.88a23.137 23.137 0 0 0 4.42-24.99A23.054 23.054 0 0 0 552.94-32c-53.54 0-96.67 20.24-125.17 38.78A265.811 265.811 0 0 0 368 0c-86.27 0-160.26 40.41-191.77 97.96-9.55 1.14-18.92 2.73-28 4.82C119.73 84.24 76.6 64 23.06 64c-8.38.004-17.874 6.254-21.19 13.95-3.63 8.46-1.89 18.3 4.42 24.99.36.36 22.4 24.15 37.7 54.89C16.519 184.95 0 218.96 0 256c0 88.37 93.12 160 208 160 86.34 0 160.37-40.47 191.83-98.09 0 .01-.01.02-.01.03C499.55 306.13 576 240.02 576 160c0-37.04-16.52-71.05-43.99-98.17zm-376.59 72.13c17.16-3.95 34.85-5.96 52.58-5.96 97.05 0 176 57.42 176 128s-78.95 128-176 128S32 326.58 32 256c0-34.19 18.75-59.87 34.48-75.4l16.49-16.28-10.32-20.75c-9.37-18.83-20.77-35.14-29.54-46.44 37.19 4.22 67.61 19.41 87.68 32.47l11.39 7.41zm289.8-100.35c20.07-13.06 50.48-28.25 87.67-32.47-8.72 11.25-20.15 27.58-29.53 46.44l-10.32 20.75 16.49 16.28C525.25 100.13 544 125.81 544 160c0 59.33-55.88 109.22-131.32 123.66 2.051-9 3.32-18.21 3.32-27.66 0-86.4-89.09-156.62-200.43-159.71C246 57.94 302.86 32 368 32h.035c14.692 0 38.237 2.675 52.555 5.97l13.24 3.05zM233.38 265.09c17.65-5.29 30-22.25 30-41.23 0-22.84-17.53-41.17-39.38-42.46V168c0-4.42-3.58-8-8-8h-16c-4.42 0-8 3.58-8 8v13.32c-10.11.74-19.9 4.29-28.08 10.32-3.92 2.89-4.07 8.75-.54 12.11l11.44 10.87c2.69 2.55 6.83 3.34 10 1.4 3.31-2.02 7.06-3.1 10.96-3.1h25.94c5.32 0 9.66 4.91 9.66 10.94 0 4.96-2.97 9.31-7.19 10.58l-41.56 12.47c-17.66 5.29-30 22.25-30 41.23 0 22.84 17.53 41.17 39.38 42.46V344c0 4.42 3.58 8 8 8h16c4.42 0 8-3.58 8-8v-13.32c10.11-.74 19.9-4.29 28.08-10.32 3.92-2.89 4.07-8.75.54-12.11l-11.44-10.87c-2.69-2.55-6.83-3.33-10-1.4-3.31 2.02-7.06 3.1-10.96 3.1h-25.94c-5.32 0-9.66-4.91-9.66-10.94 0-4.96 2.97-9.31 7.19-10.58z"/><glyph glyph-name="cross" unicode="" horiz-adv-x="384" d="M352 320c17.67 0 32-14.33 32-32v-64c0-17.67-14.33-32-32-32h-96V-32c0-17.67-14.33-32-32-32h-64c-17.67 0-32 14.33-32 32v224H32c-17.67 0-32 14.33-32 32v64c0 17.67 14.33 32 32 32h96v96c0 17.67 14.33 32 32 32h64c17.67 0 32-14.33 32-32v-96h96zm0-96v64H224v128h-64V288H32v-64h128V-32h64v256h128z"/><glyph glyph-name="dharmachakra" unicode="" horiz-adv-x="512" d="M503.67 215.65c4.54.19 8.33-3.44 8.32-7.99v-31.32c0-4.55-3.78-8.18-8.33-7.99l-24.81 1.03c-4.5-44.89-22.27-85.84-49.31-118.94l18.31-16.84c1.427-1.31 2.586-3.947 2.586-5.885 0-1.83-1.051-4.362-2.346-5.655L425.94-.09c-3.21-3.22-8.46-3.11-11.54.24l-16.84 18.31c-33.1-27.03-74.05-44.81-118.94-49.31l1.031-24.81a7.997 7.997 0 0 0-7.99-8.33h-31.32a8 8 0 0 0-7.99 8.33l1.03 24.81c-44.89 4.5-85.84 22.27-118.94 49.31L97.602.15c-3.08-3.35-8.33-3.46-11.54-.24L63.91 22.06c-3.22 3.21-3.11 8.46.24 11.54l18.3 16.84c-27.03 33.1-44.81 74.05-49.31 118.94l-24.81-1.03A7.997 7.997 0 0 0 0 176.34v31.32c0 4.55 3.79 8.18 8.34 8l24.81-1.03c4.5 44.89 22.27 85.84 49.31 118.94l-18.31 16.84c-1.427 1.31-2.585 3.947-2.585 5.884 0 1.83 1.05 4.362 2.345 5.655l22.15 22.14c3.21 3.22 8.46 3.11 11.54-.24l16.85-18.31c33.1 27.03 74.06 44.81 118.94 49.31l-1.03 24.81a7.996 7.996 0 0 0 7.99 8.33h31.32a8 8 0 0 0 7.99-8.33l-1.03-24.81c44.89-4.5 85.84-22.28 118.94-49.31l16.84 18.31c3.08 3.35 8.33 3.45 11.54.24l22.149-22.15c3.22-3.21 3.11-8.46-.24-11.54l-18.31-16.84c27.03-33.1 44.81-74.05 49.31-118.94zm-56.92-2.37c-4.1 37.01-18.79 70.82-40.92 98.46l-70.91-65.24c7.6-10.97 12.86-23.6 15.34-37.24zM256 128c35.29 0 64 28.71 64 64s-28.71 64-64 64-64-28.71-64-64 28.71-64 64-64zm119.74 213.83c-27.64 22.13-61.45 36.82-98.46 40.92l-4.02-96.49c13.64-2.48 26.27-7.74 37.24-15.34zm-141.02 40.92c-37.01-4.1-70.82-18.79-98.46-40.92l65.24-70.91c10.97 7.6 23.6 12.86 37.24 15.34zm-128.55-71.01c-22.13-27.64-36.82-61.45-40.92-98.46l96.49-4.02c2.48 13.64 7.74 26.27 15.34 37.24zM65.25 170.72c4.1-37.01 18.79-70.82 40.92-98.46l70.91 65.24c-7.6 10.97-12.86 23.6-15.34 37.24zm71.01-128.55c27.64-22.13 61.45-36.82 98.46-40.92l4.02 96.49c-13.64 2.48-26.27 7.74-37.24 15.34zM277.28 1.25c37.01 4.1 70.82 18.79 98.46 40.92l-65.24 70.91c-10.97-7.6-23.6-12.86-37.24-15.34zm128.55 71.01c22.13 27.64 36.82 61.45 40.92 98.46l-96.49 4.02c-2.48-13.64-7.74-26.27-15.34-37.24z"/><glyph glyph-name="empty-set" unicode="" horiz-adv-x="448" d="M445.66 402.35c1.292-1.295 2.34-3.83 2.34-5.66s-1.048-4.364-2.34-5.66l-75.12-75.12C398.85 282.46 416 239.26 416 192 416 85.96 330.04 0 224 0c-47.26 0-90.46 17.151-123.92 45.47L24.96-29.65c-3.12-3.119-8.19-3.119-11.31 0L2.34-18.34c-3.12 3.12-3.12 8.19 0 11.31l75.12 75.12C49.15 101.54 32 144.74 32 192c0 106.04 85.96 192 192 192 47.26 0 90.46-17.15 123.92-45.46l75.12 75.12c3.12 3.12 8.19 3.12 11.31 0zM64 192c0-38.34 14.11-73.1 36.69-100.69l224 224C297.1 337.88 262.34 352 224 352c-88.22 0-160-71.78-160-160zm320 0c0 38.34-14.11 73.1-36.69 100.69l-224-224C150.9 46.12 185.66 32 224 32c88.22 0 160 71.78 160 160z"/><glyph glyph-name="envelope-open-dollar" unicode="" horiz-adv-x="512" d="M494.59 283.48A47.975 47.975 0 0 0 512 246.49V-16c0-26.51-21.49-48-48-48H48C21.49-64 0-42.51 0-16v262.52c.003 12.515 7.852 29.123 17.52 37.07 1.73 1.42 21.96 17.72 46.48 37.43V352c0 17.67 14.33 32 32 32h46.46c4.1 3.27 7.67 6.13 10.2 8.14C175.36 410.28 212.79 448 256 448c43.44 0 81.23-38.19 103.33-55.86 2.49-1.98 6.07-4.83 10.2-8.14H416c17.67 0 32-14.33 32-32v-30.99c24.4-19.62 44.61-35.9 46.59-37.53zM256 416c-21.68 0-44.57-16.73-63.1-32h126.24c-18.5 15.28-41.37 32-63.14 32zM96 352V178.66c32.35-26.01 65.3-52.44 86.59-69.34C199.44 95.88 232.79 63.62 256 64c23.22-.37 56.56 31.88 73.41 45.31 21.29 16.9 54.26 43.34 86.59 69.34V352H96zM32 246.52v-16.33c9.49-7.65 20.47-16.5 32-25.78v75.55c-14.54-11.7-24.92-20.06-26.16-21.08A15.954 15.954 0 0 1 32 246.52zM480-16v205.1c-42.76-34.44-99.28-79.9-130.69-104.83-21.04-16.8-56.86-52.52-93.31-52.26-36.58-.27-72.83 35.9-93.32 52.26-31.37 24.9-87.93 70.38-130.68 104.82V-16c0-8.82 7.18-16 16-16h416c8.82 0 16 7.18 16 16zm0 246.19v16.3c0 4.79-2.11 9.28-5.8 12.33-1.4 1.15-11.76 9.5-26.2 21.12V204.4c11.73 9.45 22.38 18.04 32 25.79zm-251.09-22.77c-18.6 5.58-31.58 23.42-31.58 43.39 0 24.52 19.05 44.44 42.67 45.07V312c0 4.42 3.58 8 8 8h16c4.42 0 8-3.58 8-8v-16.29c11.29-.58 22.27-4.52 31.37-11.35 3.9-2.93 4.1-8.77.57-12.14l-11.75-11.21c-2.77-2.64-6.89-2.76-10.13-.73-3.86 2.43-8.26 3.72-12.82 3.72h-28.11c-6.5 0-11.8-5.92-11.8-13.19 0-5.95 3.61-11.18 8.77-12.73l45-13.5c18.6-5.58 31.58-23.42 31.58-43.39 0-24.53-19.05-44.44-42.67-45.07V120c0-4.42-3.58-8-8-8h-16c-4.42 0-8 3.58-8 8v16.29c-11.29.58-22.27 4.52-31.37 11.35-3.9 2.93-4.1 8.77-.57 12.14l11.75 11.21c2.77 2.64 6.89 2.76 10.13.73 3.86-2.43 8.26-3.72 12.82-3.72h28.11c6.5 0 11.8 5.92 11.8 13.19 0 5.95-3.61 11.18-8.77 12.73z"/><glyph glyph-name="envelope-open-text" unicode="" horiz-adv-x="512" d="M352 200c0-4.42-3.58-8-8-8H168c-4.42 0-8 3.58-8 8v16c0 4.42 3.58 8 8 8h176c4.42 0 8-3.58 8-8v-16zm-184 56c-4.42 0-8 3.58-8 8v16c0 4.42 3.58 8 8 8h176c4.42 0 8-3.58 8-8v-16c0-4.42-3.58-8-8-8H168zm326.59 27.48A47.975 47.975 0 0 0 512 246.49V-16c0-26.51-21.49-48-48-48H48C21.49-64 0-42.51 0-16v262.52c.003 12.515 7.852 29.123 17.52 37.07 1.73 1.42 21.96 17.72 46.48 37.43V352c0 17.67 14.33 32 32 32h46.46c4.1 3.27 7.67 6.13 10.2 8.14C175.36 410.28 212.79 448 256 448c43.44 0 81.23-38.19 103.33-55.86 2.49-1.98 6.07-4.83 10.2-8.14H416c17.67 0 32-14.33 32-32v-30.99c24.4-19.62 44.61-35.9 46.59-37.53zM256 416c-21.68 0-44.57-16.73-63.1-32h126.24c-18.5 15.28-41.37 32-63.14 32zM96 352V178.66c32.35-26.01 65.3-52.44 86.59-69.34C199.44 95.88 232.79 63.62 256 64c23.22-.37 56.56 31.88 73.41 45.31 21.29 16.9 54.26 43.34 86.59 69.34V352H96zM32 246.52v-16.33c9.49-7.65 20.47-16.5 32-25.78v75.55c-14.54-11.7-24.92-20.06-26.16-21.08A15.954 15.954 0 0 1 32 246.52zM480-16v205.1c-42.76-34.44-99.28-79.9-130.69-104.83-21.04-16.8-56.86-52.52-93.31-52.26-36.58-.27-72.83 35.9-93.32 52.26-31.37 24.9-87.93 70.38-130.68 104.82V-16c0-8.82 7.18-16 16-16h416c8.82 0 16 7.18 16 16zm0 246.19v16.3c0 4.79-2.11 9.28-5.8 12.33-1.4 1.15-11.76 9.5-26.2 21.12V204.4c11.73 9.45 22.38 18.04 32 25.79z"/><glyph glyph-name="file-chart-line" unicode="" horiz-adv-x="384" d="M136 128c4.4 0 8-3.6 8-8V24c0-4.4-3.6-8-8-8h-16c-4.4 0-8 3.6-8 8v96c0 4.4 3.6 8 8 8h16zm64 96c4.4 0 8-3.6 8-8V24c0-4.4-3.6-8-8-8h-16c-4.4 0-8 3.6-8 8v192c0 4.4 3.6 8 8 8h16zm40-72c0 4.4 3.6 8 8 8h16c4.4 0 8-3.6 8-8V24c0-4.4-3.6-8-8-8h-16c-4.4 0-8 3.6-8 8v128zm129.9 198.02c9-9 14.1-21.3 14.1-33.99V-16.01C384-42.5 362.5-64 336.01-64H47.99C21.5-64 0-42.5 0-16.01v415.92C0 426.4 21.5 447.9 47.99 448h204.14c12.69 0 24.889-5.1 33.889-14.1zm-113.87 65.39v-95.48h95.48c-.7 2.8-2.1 5.3-4.2 7.4l-83.88 83.88c-2.1 2.1-4.6 3.5-7.4 4.2zm95.98-431.42V288H248.031c-13.3 0-24 10.63-24 23.93V416H47.991c-8.8 0-16-7.29-16-16.09V-16.01c0-8.8 7.2-16 16-16h288.02c8.8 0 16 7.2 16 16z"/><glyph glyph-name="file-chart-pie" unicode="" horiz-adv-x="384" d="M369.9 350.02c9-9 14.1-21.3 14.1-33.99V-16.01C384-42.5 362.5-64 336.01-64H47.99C21.5-64 0-42.5 0-16.01v415.92C0 426.4 21.5 447.9 47.99 448h204.14c12.69 0 24.889-5.1 33.889-14.1zm-113.87 65.39v-95.48h95.48c-.7 2.8-2.1 5.3-4.2 7.4l-83.88 83.88c-2.1 2.1-4.6 3.5-7.4 4.2zm95.98-431.42V288H248.031c-13.3 0-24 10.63-24 23.93V416H47.991c-8.8 0-16-7.29-16-16.09V-16.01c0-8.8 7.2-16 16-16h288.02c8.8 0 16 7.2 16 16zM192 256c70.68-.01 127.98-57.3 127.99-127.98 0-.01.01-.02 0-.02H192v128zm32-37.49V160h58.5c-9.65 27.23-31.28 48.85-58.5 58.51zM176 32c38.64 0 70.95 27.53 78.38 64h32C278.54 41.87 232.27 0 176 0 114.25 0 64 50.25 64 112c0 56.27 41.87 102.53 96 110.38v-32c-36.48-7.43-64-39.75-64-78.38 0-44.11 35.88-80 80-80z"/><glyph glyph-name="file-spreadsheet" unicode="" horiz-adv-x="384" d="M369.9 350.02c9-9 14.1-21.3 14.1-33.99V-16.01C384-42.5 362.5-64 336.01-64H47.99C21.5-64 0-42.5 0-16.01v415.92C0 426.4 21.5 447.9 47.99 448h204.14c12.69 0 24.889-5.1 33.889-14.1zm-113.87 65.39v-95.48h95.48c-.7 2.8-2.1 5.3-4.2 7.4l-83.88 83.88c-2.1 2.1-4.6 3.5-7.4 4.2zm95.98-431.42V288H248.031c-13.3 0-24 10.63-24 23.93V416H47.991c-8.8 0-16-7.29-16-16.09V-16.01c0-8.8 7.2-16 16-16h288.02c8.8 0 16 7.2 16 16zM64 240c0 8.84 7.16 16 16 16h224c8.84 0 16-7.16 16-16V16c0-8.84-7.16-16-16-16H80c-8.84 0-16 7.16-16 16v224zM288 32v48h-80V32h80zm0 80v48h-80v-48h80zM96 224v-32h192v32H96zm0-64v-48h80v48H96zm0-80V32h80v48H96z"/><glyph glyph-name="file-user" unicode="" horiz-adv-x="384" d="M369.9 350.02c9-9 14.1-21.3 14.1-33.99V-16.01C384-42.5 362.5-64 336.01-64H47.99C21.5-64 0-42.5 0-16.01v415.92C0 426.4 21.5 447.9 47.99 448h204.14c12.69 0 24.889-5.1 33.889-14.1zm-113.87 65.39v-95.48h95.48c-.7 2.8-2.1 5.3-4.2 7.4l-83.88 83.88c-2.1 2.1-4.6 3.5-7.4 4.2zM272-32.01V-.86C272 17.57 258.91 32 238.75 32c-12.19 0-21.25-6.99-46.75-6.99-25.95 0-34.3 6.99-46.75 6.99C125.05 32 112 17.52 112-.86v-31.15h160zm80.01 16V288H248.031c-13.3 0-24 10.63-24 23.93V416H47.991c-8.8 0-16-7.29-16-16.09V-16.01c0-8.8 7.2-16 16-16h32.01V-.86c0 13.88 4.21 26.78 11.42 37.48C103.49 54.56 124.08 64 145.25 64c19.49 0 24.34-6.99 46.75-6.99 22.39 0 27.29 6.99 46.75 6.99 21.17 0 41.76-9.44 53.84-27.38C299.79 25.91 304 13.02 304-.86v-31.15h32.01c8.8 0 16 7.2 16 16zM112 160c0 44.19 35.82 80 80 80s80-35.81 80-80c0-44.18-35.82-80-80-80s-80 35.82-80 80zm128 0c0 26.47-21.53 48-48 48s-48-21.53-48-48 21.53-48 48-48 48 21.53 48 48z"/><glyph glyph-name="folder-minus" unicode="" horiz-adv-x="512" d="M344 176c4.42 0 8-3.58 8-8v-16c0-4.42-3.58-8-8-8H168c-4.42 0-8 3.58-8 8v16c0 4.42 3.58 8 8 8h176zM194.74 352H48c-8.84 0-16-7.16-16-16V48c0-8.84 7.16-16 16-16h416c8.84 0 16 7.16 16 16v224c0 8.84-7.16 16-16 16H272a32 32 0 0 0-22.63 9.37zM48 384h146.74a32 32 0 0 0 22.63-9.37L272 320h192c26.51 0 48-21.49 48-48V48c0-26.51-21.49-48-48-48H48C21.49 0 0 21.49 0 48v288c0 26.51 21.49 48 48 48z"/><glyph glyph-name="folder-plus" unicode="" horiz-adv-x="512" d="M344 176c4.42 0 8-3.58 8-8v-16c0-4.42-3.58-8-8-8h-72V72c0-4.42-3.58-8-8-8h-16c-4.42 0-8 3.58-8 8v72h-72c-4.42 0-8 3.58-8 8v16c0 4.42 3.58 8 8 8h72v72c0 4.42 3.58 8 8 8h16c4.42 0 8-3.58 8-8v-72h72zM194.74 352H48c-8.84 0-16-7.16-16-16V48c0-8.84 7.16-16 16-16h416c8.84 0 16 7.16 16 16v224c0 8.84-7.16 16-16 16H272a32 32 0 0 0-22.63 9.37zM48 384h146.74a32 32 0 0 0 22.63-9.37L272 320h192c26.51 0 48-21.49 48-48V48c0-26.51-21.49-48-48-48H48C21.49 0 0 21.49 0 48v288c0 26.51 21.49 48 48 48z"/><glyph glyph-name="folder-times" unicode="" horiz-adv-x="512" d="M329.54 222.23c1.292-1.296 2.34-3.831 2.34-5.66s-1.048-4.365-2.34-5.66L278.63 160l50.9-50.92c3.12-3.12 3.12-8.19 0-11.31l-11.31-11.31c-3.12-3.12-8.19-3.12-11.31 0L256 137.37l-50.92-50.9c-3.12-3.12-8.19-3.12-11.31 0l-11.31 11.31c-3.12 3.12-3.12 8.19 0 11.31L233.37 160l-50.9 50.92c-3.12 3.12-3.12 8.19 0 11.31l11.31 11.31c3.12 3.12 8.19 3.12 11.31 0L256 182.63l50.92 50.91c3.12 3.12 8.19 3.12 11.31 0zM194.74 352H48c-8.84 0-16-7.16-16-16V48c0-8.84 7.16-16 16-16h416c8.84 0 16 7.16 16 16v224c0 8.84-7.16 16-16 16H272a32 32 0 0 0-22.63 9.37zM48 384h146.74a32 32 0 0 0 22.63-9.37L272 320h192c26.51 0 48-21.49 48-48V48c0-26.51-21.49-48-48-48H48C21.49 0 0 21.49 0 48v288c0 26.51 21.49 48 48 48z"/><glyph glyph-name="folders" unicode="" d="M592 384c26.51 0 48-21.49 48-48V112c0-26.51-21.49-48-48-48h-80v-80c0-26.51-21.49-48-48-48H48C21.49-64 0-42.51 0-16v288c0 26.51 21.49 48 48 48h80v80c0 26.51 21.49 48 48 48h146.74a32 32 0 0 0 22.63-9.37L400 384h192zM480-16v80H176c-26.51 0-48 21.49-48 48v176H48c-8.84 0-16-7.16-16-16V-16c0-8.84 7.16-16 16-16h416c8.84 0 16 7.16 16 16zm128 128v224c0 8.84-7.16 16-16 16H400a32 32 0 0 0-22.63 9.37L322.74 416H176c-8.84 0-16-7.16-16-16V112c0-8.84 7.16-16 16-16h416c8.84 0 16 7.16 16 16z"/><glyph glyph-name="function" unicode="" d="M308.8 341.4c3.5-2.5 4.2-7.2 1.7-10.6-36.1-51.7-55.2-110.5-55.2-170.8s19-119.2 55.2-170.8c2.5-3.401 1.7-8.101-1.7-10.601l-12.7-9.1c-3.6-2.6-8.7-1.8-11.2 1.8-39.9 56.9-61 122-61 188.7s21.1 131.8 61 188.7c2.6 3.6 7.6 4.4 11.2 1.8zM224 408v-16c0-4.4-3.6-8-8-8h-56c-26.5 0-48-21.5-48-48v-80h72c4.4 0 8-3.6 8-8v-16c0-4.4-3.6-8-8-8h-72V80c0-44.2-35.8-80-80-80H8C3.6 0 0 3.6 0 8v16c0 4.4 3.6 8 8 8h24c26.5 0 48 21.5 48 48v144H8c-4.4 0-8 3.6-8 8v16c0 4.4 3.6 8 8 8h72v80c0 44.2 35.8 80 80 80h56c4.4 0 8-3.6 8-8zm355-59.3c39.9-56.9 61-122 61-188.7S618.9 28.2 579-28.7c-2.5-3.6-7.6-4.4-11.2-1.8l-12.7 9.1c-3.4 2.4-4.1 7.1-1.7 10.6 36.1 51.7 55.2 110.5 55.2 170.8s-19 119.2-55.2 170.8c-2.5 3.4-1.7 8.101 1.7 10.601l12.7 9.1c3.6 2.6 8.7 1.8 11.2-1.8zm-69.3-122.3c3.1-3.2 3.1-8.2 0-11.3l-55-55 55-55c3.1-3.1 3.1-8.2 0-11.3l-11.3-11.3c-3.1-3.1-8.2-3.1-11.3 0l-55 55-55-55c-3.1-3.1-8.2-3.1-11.3 0l-11.3 11.3c-3.1 3.1-3.1 8.2 0 11.3l55 55-55 55c-3.1 3.1-3.1 8.2 0 11.3l11.3 11.3c3.1 3.1 8.2 3.1 11.3 0l55-55 55 55c3.1 3.1 8.2 3.1 11.3 0z"/><glyph glyph-name="funnel-dollar" unicode="" d="M464.02 288C561.22 288 640 209.36 640 112.01c0-97.2-78.64-175.979-175.98-175.979-42.56 0-81.59 15.09-112.02 40.21v-13.22C352-52.97 338.87-64 324.88-64c-5.21 0-10.54 1.53-15.36 4.9l-74 46.98A26.997 26.997 0 0 0 224 10v182L7.94 401.91C-9.05 418.9 3.05 448 27.03 448h521.939c24.04 0 36.05-29.13 19.09-46.09L450.089 287.3c4.61.36 9.23.7 13.93.7zM320-26v37.02c-20.08 28.59-31.96 63.36-31.96 101.01 0 69.14 39.89 128.78 97.9 157.56L536.64 416H39.35L256 205.53V12.47l.26-.22zm144.02-5.96C543.41-31.96 608 32.63 608 112.019c0 79.39-64.59 143.98-143.98 143.98-79.39 0-143.979-64.59-143.979-143.98 0-79.39 64.59-143.979 143.979-143.979zm27.11 152.54c18.6-5.58 31.58-23.42 31.58-43.39 0-24.53-19.05-44.44-42.67-45.07V16c0-4.42-3.58-8-8-8h-16c-4.42 0-8 3.58-8 8v16.29c-11.29.58-22.27 4.52-31.37 11.35-3.9 2.93-4.1 8.77-.57 12.14l11.75 11.21c2.77 2.64 6.89 2.76 10.13.73 3.86-2.43 8.26-3.72 12.82-3.72h28.11c6.5 0 11.8 5.92 11.8 13.19 0 5.95-3.61 11.18-8.77 12.73l-45 13.5c-18.6 5.58-31.58 23.42-31.58 43.39 0 24.52 19.05 44.44 42.67 45.07V208c0 4.42 3.58 8 8 8h16c4.42 0 8-3.58 8-8v-16.29c11.29-.58 22.27-4.52 31.37-11.35 3.9-2.93 4.1-8.77.57-12.14l-11.75-11.21c-2.77-2.64-6.89-2.76-10.13-.73-3.86 2.43-8.26 3.72-12.82 3.72h-28.11c-6.5 0-11.8-5.92-11.8-13.19 0-5.95 3.61-11.18 8.77-12.73z"/><glyph glyph-name="gift-card" unicode="" horiz-adv-x="576" d="M528 320c26.51 0 48-21.49 48-48V-16c0-26.51-21.49-48-48-48H48C21.49-64 0-42.51 0-16v288c0 26.51 21.49 48 48 48h71.3c-9.5 13.4-15.3 29.9-15.3 48 0 44.1 33.4 80 74.5 80 42.3 0 66.8-25.4 109.5-95.8 42.7 70.4 67.2 95.8 109.5 95.8 41.1 0 74.5-35.9 74.5-80 0-18.1-5.8-34.6-15.3-48H528zm-219.8 3.6L306 320h91.5c23.4 0 42.5 21.5 42.5 48s-19.1 48-42.5 48c-23.3 0-39.8-9.1-89.3-92.4zM178.5 416c-23.4 0-42.5-21.5-42.6-48 0-26.5 19.1-48 42.5-48h91.5l-2.1 3.6c-49.5 83.3-65.9 92.4-89.3 92.4zM544-16v32H32v-32c0-8.82 7.18-16 16-16h480c8.82 0 16 7.18 16 16zm0 64v64H32V48h512zm0 96v128c0 8.84-7.16 16-16 16H326.62l79.03-79.03c3.12-3.12 3.12-8.19 0-11.31l-11.31-11.31c-3.12-3.12-8.19-3.12-11.31 0L288 281.38l-95.03-95.03c-3.12-3.12-8.19-3.12-11.31 0l-11.31 11.31c-3.12 3.12-3.12 8.19 0 11.31L249.38 288H48c-8.84 0-16-7.16-16-16V144h512z"/><glyph glyph-name="hamsa" unicode="" horiz-adv-x="512" d="M256 120c13.25 0 24-10.74 24-24s-10.75-24-24-24-24 10.74-24 24 10.75 24 24 24zm195.95 104c40.74 0 60-37.24 60.05-64 .02-15.19-5.05-30.13-14.79-42.07L407.41 7.89C370.09-37.79 314.9-64 256.01-64S141.93-37.8 104.6 7.9L14.79 117.94C5.04 129.88-.03 144.82 0 160c.05 26.69 18.96 64 60.06 64H96v128c0 35.29 28.71 64 64 64h.084c10.715 0 26.627-4.856 35.516-10.84C204.35 430.09 228.12 448 256 448s51.65-17.91 60.4-42.84A63.603 63.603 0 0 0 352 416c35.29 0 64-28.71 64-64V224h35.95zm20.48-85.83c7.6 9.31 9.65 22.89 5.19 34.58-4.42 11.69-14.51 19.25-25.67 19.25H384v160c0 19.39-17.48 34.9-37.47 31.54-15.73-2.65-26.53-17.53-26.53-33.49V232c0-4.42-3.58-8-8-8h-16c-4.42 0-8 3.58-8 8v152c0 19.39-17.48 34.9-37.47 31.54-15.73-2.65-26.53-17.53-26.53-33.49V232c0-4.42-3.58-8-8-8h-16c-4.42 0-8 3.58-8 8v120c0 19.39-17.48 34.9-37.47 31.54-15.73-2.65-26.53-17.53-26.53-33.49V192H60.06c-11.16 0-21.25-7.56-25.66-19.25-4.46-11.69-2.41-25.27 5.19-34.58l89.8-110.03c37.91-46.4 97.79-68.78 158.591-57.07 38.4 7.39 72.33 29.74 97.07 60.03zM256 176c18.76 0 57.93-1.78 112.12-69.86 4.59-5.76 4.59-14.5 0-20.27C313.96 17.82 274.79 16 256 16c-18.76 0-57.93 1.78-112.12 69.87-4.59 5.76-4.59 14.5 0 20.27C198.04 174.18 237.21 176 256 176zm0-128c44.18 0 80 48 80 48s-35.82 48-80 48-80-48-80-48 35.82-48 80-48z"/><glyph glyph-name="haykal" unicode="" horiz-adv-x="512" d="M496.25 245.48c17.54-2.46 21.68-26.27 6.03-34.67l-98.16-52.66 74.48-83.54c10.92-12.24 1.73-30.93-13.28-30.93-1.32 0-2.68.15-4.07.45L352.68 67.78l4.11-112.55c.43-11.65-8.86-19.22-18.41-19.22-5.16 0-10.39 2.21-14.2 7.18L256 32.09l-68.18-88.9c-3.81-4.97-9.04-7.18-14.2-7.18-9.54 0-18.84 7.57-18.41 19.22l4.11 112.55L50.75 44.13c-1.4-.31-2.75-.45-4.07-.45-15 0-24.199 18.68-13.28 30.93l74.49 83.53L9.731 210.8c-15.64 8.4-11.5 32.21 6.03 34.67l110 15.44-41.82 104.34c-5.26 13.12 4.98 25.55 16.89 25.55 3.189 0 6.51-.9 9.689-2.92l94.04-59.89 34.09 107.189c2.71 8.55 10.03 12.82 17.35 12.82s14.64-4.27 17.35-12.82l34.1-107.18 94.04 59.89c3.17 2.02 6.49 2.92 9.69 2.92 11.91 0 22.15-12.44 16.89-25.55l-41.82-104.34zm-106.88-59.05l61.68 33.08-69.11 9.7-40.18 5.64 15.27 38.11 26.27 65.55-59.08-37.62-34.35-21.87-12.45 39.15L256 385.51l-21.41-67.33-12.45-39.15-34.35 21.87-59.08 37.62 26.27-65.55 15.27-38.11-40.18-5.64-69.11-9.7 61.67-33.09 35.85-19.24-27.2-30.51L84.49 84.2l68.21 14.86 39.65 8.64-1.5-41.11-2.58-70.71 42.83 55.85L256 84.2l24.9-32.47 42.83-55.85-2.58 70.71-1.5 41.11 39.65-8.64 68.21-14.86-46.79 52.48-27.2 30.51z"/><glyph glyph-name="integral" unicode="" horiz-adv-x="366" d="M88.46-31.84c-19.3 1.3-36.8 11.91-48.88 27.02L1.75 42.46c-.968 1.21-1.753 3.45-1.753 5 0 2.123 1.346 4.923 3.003 6.25l12.5 10c1.208.968 3.443 1.753 4.991 1.753 2.121 0 4.916-1.346 6.24-3.003l39.72-49.65C74.14 3.17 86.38-1.6 98.87.48c14.059 2.34 24.719 14.1 27.929 27.99l76.85 333.31c6.43 27.9 28.9 50.51 57.32 53.77 23.05 2.64 45.12-6.59 59.38-24.38l43.9-54.92c.968-1.208 1.753-3.447 1.753-4.995 0-2.122-1.346-4.92-3.003-6.245l-12.5-10c-3.45-2.76-8.48-2.2-11.23 1.25l-43.9 54.92c-7.7 9.62-19.83 14.39-32.29 12.37-14.09-2.29-24.83-14.02-28.04-27.95L157.49 19.29c-7.31-31.69-36.1-53.35-69.03-51.13z"/><glyph glyph-name="intersection" unicode="" horiz-adv-x="320" d="M149.35 383.65C242.54 389.69 320 315.89 320 224V8c0-4.42-3.58-8-8-8h-16c-4.42 0-8 3.58-8 8v216c0 73.48-62.24 132.7-136.76 127.7C83.28 347.15 32 287.59 32 219.48V8c0-4.42-3.58-8-8-8H8C3.58 0 0 3.58 0 8v210.52c0 85.22 64.31 159.631 149.35 165.131z"/><glyph glyph-name="jedi" unicode="" horiz-adv-x="544" d="M429.33 427.59C501.13 376.82 544 294.27 544 206.77 544 57.47 421.98-64 272-64 125.57-64 6.78 53.23.29 194.05c-4.26 92.55 38.47 179.84 114.3 233.49 4.09 2.89 8.84 4.42 13.75 4.42 7.95 0 15.39-3.98 19.92-10.64 4.45-6.55 5.35-14.89 2.41-22.3-5.94-14.97-8.96-30.67-8.96-46.66 0-41.11 19.17-78.9 52.61-103.67 5.89-4.36 9.47-11 9.82-18.23.36-7.24-2.57-14.22-8.02-19.14-23.99-21.66-37.2-51.66-37.2-83.31 0-56.56 42.35-102.41 97.08-110.22v71.59l-20.68-20.69c-6.26-6.25-16.38-6.25-22.63 0-6.25 6.24-6.25 16.37 0 22.62L233.38 112H208c-8.84 0-16 7.16-16 16s7.16 16 16 16h25.37l-20.69 20.69c-6.25 6.24-6.25 16.369 0 22.619s16.38 6.25 22.63 0l20.69-20.69V432c0 8.84 7.16 16 16 16s16-7.16 16-16V166.62l20.68 20.69c6.25 6.25 16.38 6.24 22.63 0s6.25-16.37 0-22.62L310.62 144H336c8.84 0 16-7.16 16-16s-7.16-16-16-16h-25.38l20.69-20.7c6.25-6.24 6.25-16.37 0-22.62-6.26-6.25-16.38-6.25-22.63 0l-20.69 20.69V17.71c83.5 11.3 96.97 88.14 97.02 110.29.06 31.52-13.06 61.55-37.13 83.3-5.45 4.93-8.37 11.91-8.02 19.15.35 7.23 3.93 13.88 9.82 18.24 33.43 24.77 52.6 62.55 52.6 103.66 0 16-3.02 31.72-8.98 46.71-2.95 7.41-2.05 15.74 2.4 22.3 4.52 6.66 11.96 10.64 19.9 10.64 4.9 0 9.65-1.53 13.73-4.41zM272-32c122.96 0 224.48 92.51 238.25 211.21l-35.74-31.27c-6.32-5.54-16.5-5.44-22.56 1.52-5.84 6.64-5.16 16.75 1.5 22.58l57.68 50.47c-.83 12.46-2.42 24.79-5.17 36.83l-30.66-30.66c-6.26-6.25-16.38-6.25-22.63 0-6.25 6.24-6.25 16.37 0 22.62l42.4 42.4c-13.83 35.03-35.6 66.79-64.38 92.08 2.38-10.96 3.58-22.14 3.58-33.44 0-48.29-21.13-92.88-58.3-123.69 26.7-27.29 41.14-63.16 41.05-100.66-.21-87.89-72.87-143.83-145.03-143.83-80 0-145.08 64.81-145.08 144.46 0 37.19 14.88 73.15 41.1 100.03-37.18 30.81-58.31 75.39-58.31 123.69v.095c0 9.32 1.609 24.277 3.59 33.385-28.97-25.37-50.75-57.01-64.52-91.98l42.53-42.53c6.25-6.24 6.25-16.37 0-22.62-6.26-6.25-16.38-6.25-22.63 0l-30.5 30.5c-2.69-11.93-4.81-24.02-5.64-36.4l57.99-50.74c6.66-5.83 7.34-15.94 1.5-22.58-6.01-6.91-16.18-7.11-22.56-1.52l-35.65 31.2C44.79 85.66 126.79-32 272-32z"/><glyph glyph-name="journal-whills" unicode="" horiz-adv-x="448" d="M448 56c0-10-6.2-18.6-14.9-22.2-3.6-16.1-4.4-45.6-.4-65.8h3.3c6.6 0 12-5.4 12-12v-8c0-6.6-5.4-12-12-12H64C28.65-64 0-35.35 0 0v368c0 44.2 35.8 80 80 80h344c13.3 0 24-10.7 24-24V56zm-43.7-88c-3.1 20.4-2.9 45.2 0 64H64C46.33 32 32 17.67 32 0s14.33-32 32-32h340.3zM416 64v352H80c-26.5 0-48-21.5-48-48V55.12C41.45 60.62 52.28 64 64 64h352zm-176 37.05c-77.19 0-140 62.79-140 140 0 50.18 27.56 96.81 71.93 121.69 4.78 2.69 10.72 1.77 14.53-2.14 1.847-1.919 3.346-5.637 3.346-8.3 0-1.876-.8-4.694-1.786-6.29-6.1-9.97-9.19-20.69-9.19-31.83 0-18.11 8.25-35.26 22.66-47.06a11.9 11.9 0 0 0 4.38-8.56c.22-3.34-1-6.61-3.31-9.03-9.37-9.79-14.56-22.55-14.56-35.91 0-24.52 17.11-45.01 40-50.46v25.53l-6.34-6.34c-3.12-3.13-8.18-3.13-11.31 0-3.12 3.12-3.12 8.19 0 11.31L220.69 204H208c-4.41 0-8 3.58-8 8s3.59 8 8 8h12.69l-10.34 10.34c-3.12 3.12-3.12 8.19 0 11.31 3.12 3.119 8.19 3.119 11.31 0l6.34-6.341V364c0 6.62 5.38 12 12 12s12-5.38 12-12V235.31l6.34 6.34c3.12 3.12 8.19 3.12 11.31 0 3.12-3.12 3.12-8.19 0-11.31L259.31 220H272c4.41 0 8-3.58 8-8s-3.59-8-8-8h-12.69l10.33-10.33c3.12-3.12 3.12-8.189 0-11.31-3.12-3.129-8.18-3.129-11.31 0l-6.34 6.34v-25.53c22.89 5.44 40 25.93 40 50.46 0 13.36-5.18 26.13-14.56 35.91-2.31 2.42-3.53 5.691-3.31 9.03.17 2.895 2.131 6.73 4.38 8.56 14.41 11.79 22.66 28.95 22.66 47.061 0 11.14-3.1 21.86-9.19 31.83-2.88 4.65-2.22 10.65 1.56 14.59 3.81 3.909 9.75 4.83 14.53 2.14 44.38-24.89 71.94-71.51 71.94-121.7 0-77.2-62.81-140-140-140zm-90.72 104.97c3.31-2.91 3.66-7.96.73-11.28-3.03-3.45-8.07-3.56-11.31-.75l-6.85 5.99c16.66-43.68 58.67-74.93 108.13-74.93 49.46 0 91.48 31.25 108.13 74.93l-6.85-5.99c-3.21-2.79-8.25-2.73-11.31.75-2.91 3.33-2.56 8.37.75 11.28l23.85 20.87c.58 4.69 1.43 9.31 1.43 14.16 0 7.3-.71 14.52-2.08 21.56l-12.26-12.26c-3.12-3.13-8.18-3.13-11.31 0-3.12 3.12-3.12 8.19 0 11.31l18.44 18.44c-5.29 14.44-13.22 27.83-23.78 39.19.1-1.7.16-3.39.16-5.09 0-21.37-8.16-41.73-22.72-57.42 8.81-12.64 13.56-27.589 13.56-43.14 0-41.909-34.09-76-76-76s-76 34.091-76 76c0 15.551 4.75 30.5 13.56 43.14-14.56 15.69-22.72 36.04-22.72 57.42 0 1.7.07 3.39.16 5.09-10.56-11.36-18.49-24.76-23.78-39.19l18.44-18.44c3.12-3.12 3.12-8.19 0-11.31-3.12-3.13-8.18-3.13-11.31 0l-12.26 12.26c-1.37-7.04-2.08-14.26-2.08-21.56 0-4.85.85-9.47 1.43-14.16z"/><glyph glyph-name="kaaba" unicode="" horiz-adv-x="576" d="M261.89 281.46c5.09 1.39 10.11-2.44 10.11-7.73v-16.576c0-3.37-2.638-6.826-5.89-7.714l-96-26.18c-5.09-1.39-10.11 2.44-10.11 7.72v16.585c0 3.37 2.639 6.827 5.89 7.715zm48-32.01c-3.251.889-5.89 4.346-5.89 7.717v16.582c0 5.281 5.02 9.111 10.11 7.72l96-26.18a7.997 7.997 0 0 0 5.89-7.719v-16.58c0-5.28-5.02-9.11-10.11-7.72zm244.23 115.04c13.07-4.36 21.88-16.59 21.9-30.36V23.33c0-15-10.42-27.99-25.06-31.24l-242.12-53.8C301.98-63.24 295-64 288.01-64s-13.97.76-20.83 2.29L25.06-7.91C10.42-4.65 0 8.33 0 23.33v310.8c.001 12.731 9.803 26.332 21.88 30.36l235.76 78.58c9.85 3.29 20.11 4.93 30.36 4.93s20.51-1.64 30.36-4.93zM544 218.7v42.61l-242.22 72.65a47.72 47.72 0 0 1-27.53.02L32 261.3v-42.44l85.89 23.34c5.09 1.39 10.11-2.44 10.11-7.72v-16.586c0-3.37-2.639-6.826-5.89-7.715L32 185.7V23.33l242.11-53.8c3.786-.842 10.006-1.525 13.884-1.525s10.099.683 13.885 1.525L544 23.33v162.59l-90.11 24.25a7.997 7.997 0 0 0-5.89 7.72v16.58c0 5.28 5.02 9.11 10.11 7.72zm0 76.02v39.41l-235.76 78.58c-17.77 5.92-32.91 2.53-40.48 0L32 334.12v-39.41l233.03 69.92c14.97 4.53 30.88 4.54 45.97-.02z"/><glyph glyph-name="keynote" unicode="" horiz-adv-x="512" d="M505.24 173.51a63.87 63.87 0 0 0 6.76-28.62V96c0-17.67-14.33-32-32-32H320v-96h56c4.42 0 8-3.58 8-8v-16c0-4.42-3.58-8-8-8H136c-4.42 0-8 3.58-8 8v16c0 4.42 3.58 8 8 8h56v96H32C14.33 64 0 78.33 0 96v48.911c0 8.335 3.028 21.147 6.76 28.599l48.4 96.8C60.042 280.074 72.863 288 83.78 288H96v16c0 57.13 43.17 103.88 98.52 110.64C200.73 433.941 218.63 448 240 448h64c26.51 0 48-21.49 48-48s-21.49-48-48-48h-64c-20.4 0-37.71 12.78-44.66 30.72C157.25 376.6 128 343.77 128 304v-16h300.22c10.917 0 23.738-7.925 28.62-17.69zM240 416c-8.82 0-16-7.18-16-16s7.18-16 16-16h64c8.82 0 16 7.18 16 16s-7.18 16-16 16h-64zM83.78 256l-48-96h440.45l-48 96H83.78zM288-32v96h-64v-96h64zM480 96v32H32V96h448z"/><glyph glyph-name="khanda" unicode="" horiz-adv-x="512" d="M415.81 382c73.71-40.24 111.78-123.85 90.16-207.51-7.25-28.09-22.38-53.57-41.25-75.59l-52.51-61.31c-3.12-3.65-7.6-5.59-12.15-5.59-2.55 0-5.12.62-7.5 1.88l-79.35 42.23L284 55.77l47.08-32.78c1.67.37 3.23 1.01 5.01 1.01 13.25 0 23.99-10.74 23.99-24 0-13.25-10.74-24-23.99-24-12.09 0-21.68 9.11-23.33 20.76l-40.91 28.48V-4.91c9.38-5.58 15.99-15.39 15.99-27.1 0-17.67-14.32-32-31.98-32s-31.98 14.33-31.98 32c0 11.72 6.6 21.53 15.99 27.1v29.95L199.24-3.24C197.6-14.89 188.01-24 175.91-24c-13.25 0-23.99 10.75-23.99 24 0 13.26 10.74 24 23.99 24 1.78 0 3.34-.64 5.01-1.01L228 55.77l-29.21 20.34-79.35-42.23a15.865 15.865 0 0 0-7.5-1.88c-4.55 0-9.03 1.94-12.15 5.59l-55.97 65.36c-12.57 14.68-23.39 31.07-30.46 49.06-35.66 90.69 2.96 186.39 81.49 229.24 2.53 1.4 5.44 2.1 8.33 2.1 4.35 0 8.69-1.59 11.69-4.8 4.99-5.31 6.46-12.92 2.59-19.08-16.49-26.16-25.2-56.39-25.2-87.47.18-53.19 26.76-102.62 71.03-132.18l76.59-53.33v19.899l-44.05 36.09c-3.91 4.21-5 10.1-2.81 15.28l7.85 17.24c-33.85 19.26-56.94 55.24-56.94 96.99 0 40.79 22.02 76.14 54.59 95.72l-5.22 11.44c-2.2 5.23-1.18 11.6 3.57 16.04L255.86 448l58.99-52.82c4.81-4.5 5.74-10.9 3.57-16.04l-5.22-11.44c32.57-19.58 54.59-54.92 54.59-95.71 0-41.74-23.1-77.73-56.94-96.99l7.85-17.24c2.19-5.19 1.11-11.08-2.81-15.28l-44.05-36.09v-20.1l76.63 53.35c44.5 29.72 71.08 79.16 71.27 132.41 0 31.02-8.71 61.25-25.2 87.41-1.363 2.157-2.47 5.98-2.47 8.532 0 3.515 1.962 8.437 4.38 10.989 3.09 3.3 7.32 5.01 11.6 5.01h.008c2.28 0 5.754-.892 7.752-1.99zM115.73 68.15l53.56 28.51-24.28 16.91C92.37 148.7 60.5 208.02 60.28 271.89v.1c0 12.27 2.218 31.937 4.95 43.9-33.52-41.24-43.2-98.53-22.11-152.16 5.2-13.23 13.6-26.67 24.98-39.96zm184.21 270.48l-14.62-32.05c-8.75-24.52-8.75-51.04 0-75.56l12.27-26.93c22.83 14.1 38.21 39.15 38.21 67.91 0 27.8-14.28 52.29-35.86 66.63zm-44.08 66.43l-27.88-24.95 27.49-60.26.38-.83.38.83 27.48 60.28zm-41.75-200.97l12.26 26.92c8.75 24.53 8.75 51.04 0 75.56l-14.61 32.06c-21.57-14.34-35.86-38.82-35.86-66.63 0-28.76 15.38-53.81 38.21-67.91zm41.75-69.43l27.83 22.81-27.47 60.28-.37.82-.37-.82-27.46-60.28zm219.16 47.84c12.46 48.25 1.3 96.68-28.14 133a196.534 196.534 0 0 0 4.851-43.43c-.23-64.01-32.19-123.42-85.5-159.02l-23.52-16.38 53.57-28.51 44.17 51.57c17.44 20.36 29.069 41.48 34.569 62.77z"/><glyph glyph-name="lambda" unicode="" horiz-adv-x="448" d="M440 0c4.42 0 8-3.58 8-8v-16c0-4.42-3.58-8-8-8h-77.78c-11.3.001-24.315 8.33-29.05 18.59L177.92 322.97 32.75-27.08C31.62-29.796 28.315-32 25.373-32H8.01C2.3-32-1.57-26.19.62-20.92l159.06 383.39-7.79 16.88a7.976 7.976 0 0 1-7.26 4.65H8c-4.42 0-8 3.58-8 8v16c0 4.42 3.58 8 8 8h141.78c11.3 0 24.315-8.33 29.05-18.59L360.11 4.65A7.976 7.976 0 0 1 367.37 0H440z"/><glyph glyph-name="landmark" unicode="" horiz-adv-x="576" d="M565.62 355.89A16 16 0 0 0 576 340.91V304c0-8.84-7.16-16-16-16H16c-8.84 0-16 7.16-16 16v36.91c0 6.12 4.65 12.83 10.38 14.98l266.38 90.07c3.62 1.36 7.43 2.04 11.24 2.04s7.62-.68 11.24-2.04zM544 320v9.44L288 416 32 329.42V320h512zm24-352c4.42 0 8-3.58 8-8v-16c0-4.42-3.58-8-8-8H8c-4.42 0-8 3.58-8 8v16c0 4.42 3.58 8 8 8h24v64c0 17.67 16.37 32 36.57 32H80v192h32V64h96v192h32V64h96v192h32V64h96v192h32V64h11.43C527.63 64 544 49.67 544 32v-64h24zm-56 0v62.72c-.7.52-2.2 1.28-4.57 1.28H68.57c-2.36 0-3.87-.76-4.57-1.28V-32h448z"/><glyph glyph-name="lightbulb-dollar" unicode="" horiz-adv-x="352" d="M203.09 264.58c18.6-5.58 31.58-23.42 31.58-43.39 0-24.53-19.05-44.44-42.67-45.07V160c0-4.42-3.58-8-8-8h-16c-4.42 0-8 3.58-8 8v16.29c-11.29.58-22.27 4.52-31.37 11.35-3.9 2.93-4.1 8.77-.57 12.14l11.75 11.21c2.77 2.64 6.89 2.76 10.13.73 3.86-2.43 8.26-3.72 12.82-3.72h28.11c6.5 0 11.8 5.92 11.8 13.19 0 5.95-3.61 11.18-8.77 12.73l-45 13.5c-18.6 5.58-31.58 23.42-31.58 43.39 0 24.52 19.05 44.44 42.67 45.07V352c0 4.42 3.58 8 8 8h16c4.42 0 8-3.58 8-8v-16.29c11.29-.58 22.27-4.52 31.37-11.35 3.9-2.93 4.1-8.77.57-12.14l-11.75-11.21c-2.77-2.64-6.89-2.76-10.13-.73-3.86 2.43-8.26 3.72-12.82 3.72h-28.11c-6.5 0-11.8-5.92-11.8-13.19 0-5.95 3.61-11.18 8.77-12.73zM176 448c97.2 0 176-78.8 176-176 0-44.37-16.45-84.85-43.56-115.78C282.99 127.19 258.26 79.72 256 64l-.07-75.18c-.01-3.14-.94-6.22-2.68-8.84l-24.51-36.84A15.982 15.982 0 0 0 215.42-64h-78.85c-5.35 0-10.35 2.68-13.32 7.14L98.74-20.02a15.973 15.973 0 0 0-2.68 8.84L96 64c-2.15 15.32-26.79 62.97-52.44 92.22C16.5 187.09.06 227.48 0 271.76-.12 364.46 73.05 448 176 448zM223.94-6.31V0h-95.9l.01-6.31L145.14-32h61.71zm.04 38.31l.04 32h-96.08l.07-32h95.97zm60.4 145.32A143.574 143.574 0 0 1 320 272c0 79.4-64.6 144-144 144-83.57 0-144.13-67.01-143.95-144 .08-34.85 12.45-68.3 35.58-94.68 13.99-15.96 36.32-48.09 50.58-81.31H233.8c14.25 33.21 36.59 65.35 50.58 81.31z"/><glyph glyph-name="lightbulb-exclamation" unicode="" horiz-adv-x="352" d="M176 200c13.25 0 24-10.74 24-24 0-13.25-10.75-24-24-24s-24 10.75-24 24c0 13.26 10.75 24 24 24zm-16.47 31.5l-7 112c-.29 4.61 3.37 8.5 7.98 8.5h30.97c4.61 0 8.27-3.89 7.98-8.5l-7-112c-.26-4.138-3.834-7.498-7.98-7.5h-16.97c-4.22 0-7.72 3.28-7.98 7.5zM176 448c97.2 0 176-78.8 176-176 0-44.37-16.45-84.85-43.56-115.78C282.99 127.19 258.26 79.72 256 64l-.07-75.18c-.01-3.14-.94-6.22-2.68-8.84l-24.51-36.84A15.982 15.982 0 0 0 215.42-64h-78.85c-5.35 0-10.35 2.68-13.32 7.14L98.74-20.02a15.973 15.973 0 0 0-2.68 8.84L96 64c-2.15 15.32-26.79 62.97-52.44 92.22C16.5 187.09.06 227.48 0 271.76-.12 364.46 73.05 448 176 448zM223.94-6.31V0h-95.9l.01-6.31L145.14-32h61.71zm.04 38.31l.04 32h-96.08l.07-32h95.97zm60.4 145.32A143.574 143.574 0 0 1 320 272c0 79.4-64.6 144-144 144-83.57 0-144.13-67.01-143.95-144 .08-34.85 12.45-68.3 35.58-94.68 13.99-15.96 36.32-48.09 50.58-81.31H233.8c14.25 33.21 36.59 65.35 50.58 81.31z"/><glyph glyph-name="lightbulb-on" unicode="" d="M41.8 113.86l97.21 56.11c5.23-9.26 11.31-18.08 18.01-26.55L57.8 86.14c-1.025-.592-2.817-1.073-4.001-1.073-2.55 0-5.654 1.793-6.929 4.003l-8 13.86c-.593 1.025-1.073 2.817-1.073 4.001 0 2.55 1.794 5.655 4.003 6.929zM112.33 272c.02-10.77.56-21.48 2.19-32H8c-4.42 0-8 3.58-8 8v16c0 4.42 3.58 8 8 8h104.33zM41.8 398.15c-3.83 2.21-5.14 7.1-2.93 10.92l8 13.86c1.275 2.21 4.378 4.002 6.929 4.002 1.183 0 2.976-.48 4-1.072l83.33-48.11c-5.45-9.19-10.2-18.76-14.169-28.77zm556.4 0L513.06 349c-4 10-8.8 19.56-14.24 28.73l83.38 48.14c1.024.591 2.817 1.072 4.001 1.072 2.55 0 5.654-1.793 6.929-4.002l8-13.86c.592-1.026 1.073-2.818 1.073-4.001 0-2.551-1.794-5.656-4.003-6.93zM632 272c4.42 0 8-3.58 8-8v-16c0-4.42-3.58-8-8-8H525.1c1.65 10.55 2.9 21.2 2.9 32h104zm-33.8-158.14c3.83-2.21 5.14-7.1 2.93-10.92l-8-13.86a7.998 7.998 0 0 0-10.93-2.93l-99.52 57.46c6.68 8.45 12.88 17.18 18.13 26.48zM320 384c8.84 0 16-7.15 16-16 0-8.84-7.16-16-16-16-44.12 0-80-35.89-80-80 0-8.84-7.16-16-16-16s-16 7.16-16 16c0 61.75 50.25 112 112 112zm0 64c97.2 0 176-78.8 176-176 0-44.37-16.45-84.85-43.56-115.78C426.99 127.19 402.26 79.72 400 64l-.07-75.18c-.01-3.14-.94-6.22-2.68-8.84l-24.51-36.84A15.982 15.982 0 0 0 359.42-64h-78.85c-5.35 0-10.35 2.68-13.32 7.14l-24.51 36.84a15.973 15.973 0 0 0-2.68 8.84L240 64c-2.15 15.31-26.79 62.96-52.44 92.22-27.06 30.87-43.5 71.26-43.56 115.54-.12 92.7 73.05 176.24 176 176.24zM367.94-6.31V0h-95.9l.01-6.31L289.14-32h61.71zm.04 38.31l.04 32h-96.08l.07-32h95.97zm60.4 145.32A143.574 143.574 0 0 1 464 272c0 79.4-64.6 144-144 144-83.57 0-144.13-67.01-143.95-144 .08-34.84 12.45-68.3 35.58-94.68 13.99-15.96 36.32-48.09 50.58-81.31H377.8c14.25 33.21 36.59 65.35 50.58 81.31z"/><glyph glyph-name="lightbulb-slash" unicode="" d="M224 328.7c19.5 32.9 55 55.3 96 55.3 8.8 0 16-7.2 16-16s-7.2-16-16-16c-30.8 0-57.3-17.7-70.6-43.3zm96 87.3c-62.9 0-102.5-36.7-121.7-67l-25.2 19.8C196.8 404.6 244.9 448 320 448c97.2 0 176-78.8 176-175.9 0-73.2-44.4-116.8-47.3-120.3l-25 19.7c5 6.1 40.3 41.4 40.3 100.5 0 79.4-64.6 144-144 144zM637-37.2c3.5-2.8 4-7.8 1.2-11.3l-10-12.5c-2.7-3.4-7.8-4-11.2-1.2L3 421.3c-3.4 2.7-4 7.7-1.2 11.2l10 12.5c2.7 3.5 7.8 4 11.2 1.2zM262.2 96h102.1L401 67.1c-.1-.5-.9-2.7-1-3.1l-.1-75.2c0-3.1-1-6.2-2.7-8.8l-24.5-36.8c-2.9-4.4-7.9-7.1-13.3-7.1h-78.9c-5.3 0-10.3 2.6-13.3 7.1L242.7-20c-1.8 2.6-2.7 5.7-2.7 8.8l-.1 75.2c-2.1 15.3-26.7 62.9-52.4 92.2-26.5 30.3-42.6 69.8-43.3 113.1l35.3-27.8c5.1-23.6 15.9-45.7 32.1-64.2 14-15.9 36.3-48.1 50.6-81.3zM367.9-6.3h.1V0h-95.9v-6.3L289.2-32h61.7zM368 32v32h-96.1l.1-32h96z"/><glyph glyph-name="mail-bulk" unicode="" d="M592 352c26.47 0 48-21.53 48-48V80c0-26.47-21.53-48-48-48H416v32h176c8.84 0 16 7.16 16 16v224c0 8.84-7.16 16-16 16H240c-8.84 0-16-7.16-16-16v-16h-32v16c0 26.47 21.53 48 48 48h352zM96 400V288H64v112c0 26.47 21.53 48 48 48h288c26.47 0 48-21.53 48-48v-16h-32v16c0 8.84-7.16 16-16 16H112c-8.84 0-16-7.16-16-16zm464-208h-64c-8.84 0-16 7.16-16 16v64c0 8.84 7.16 16 16 16h64c8.84 0 16-7.16 16-16v-64c0-8.84-7.16-16-16-16zm-48 64v-32h32v32h-32zm-176 0c26.47 0 48-21.53 48-48V-16c0-26.47-21.53-48-48-48H48C21.53-64 0-42.47 0-16v224c0 26.47 21.53 48 48 48h288zm16-272v150.4c-12.8-9.6-32-25.6-96-70.4-12.8-9.6-38.4-32-64-32s-51.2 22.4-64 32c-64 44.8-83.2 60.8-96 70.4V-16c0-8.84 7.16-16 16-16h288c8.84 0 16 7.16 16 16zm0 188.8V208c0 8.84-7.16 16-16 16H48c-8.84 0-16-7.16-16-16v-32c25.6-19.2 22.4-19.2 115.2-86.4C156.8 83.2 176 64 192 64s35.2 19.2 44.8 22.4c92.8 67.2 89.6 67.2 115.2 86.4z"/><glyph glyph-name="megaphone" unicode="" horiz-adv-x="576" d="M568 416c4.42 0 8-3.58 8-8V-24c0-4.42-3.58-8-8-8h-16c-4.42 0-8 3.58-8 8v19.33L348.64 41.3C338.45-.69 301.13-31.99 256-31.99c-53.02 0-96 42.98-96 96 0 7.27 1.02 14.27 2.58 21.07L32 115.8V104c0-4.42-3.58-8-8-8H8c-4.42 0-8 3.58-8 8v176c0 4.42 3.58 8 8 8h16c4.42 0 8-3.58 8-8v-11.8l512 120.47V408c0 4.42 3.58 8 8 8h16zM256 0c29.93 0 54.92 20.73 61.89 48.53L193.76 77.74C192.72 73.31 192 68.75 192 64c0-35.29 28.71-64 64-64zM32 148.67L544 28.2v327.6L32 235.33v-86.66z"/><glyph glyph-name="mosque" unicode="" d="M240 64c26.47 0 48-21.53 48-48v-72c0-4.42-3.58-8-8-8h-16c-4.42 0-8 3.58-8 8v72c0 8.83-7.19 16-16 16s-16-7.17-16-16v-72c0-4.42-3.58-8-8-8h-16c-4.42 0-8 3.58-8 8v70.11C192 38.94 210.47 64 240 64zm352 128c26.51 0 48-21.49 48-48V-56c0-4.42-3.58-8-8-8h-16c-4.42 0-8 3.58-8 8v200c0 8.84-7.16 16-16 16H176c-8.84 0-16-7.16-16-16V-56c0-4.42-3.58-8-8-8h-16c-4.42 0-8 3.58-8 8v312H32V-64H0v392c0 80 80 120 80 120s80-40 80-120V189.05c5.03 1.8 10.36 2.95 16 2.95h6.17c-3.77 8.64-6.17 17.59-6.17 26.91 0 53.93 43.52 95.46 90.74 124.66C309.39 369.95 341.75 396.15 384 448c42.39-52.01 75.48-78.59 117.26-104.43 47.22-29.2 90.74-70.73 90.74-124.66 0-9.32-2.4-18.27-6.17-26.91H592zm-464 96v40c0 40.6-29.55 68.62-48 82.15C61.55 396.62 32 368.6 32 328v-40h96zm421.07-96c7.26 9.22 10.93 18.24 10.93 26.91 0 33.03-24.56 65.28-73 95.84-40.98 25.86-74.89 53.45-103 83.86-28.11-30.41-62.01-58-103-83.86-48.44-30.57-73-62.81-73-95.84 0-8.67 3.67-17.69 10.93-26.91h330.14zM384 128c61.02-30.51 64-76.18 64-89.89V-56c0-4.42-3.58-8-8-8h-16c-4.42 0-8 3.58-8 8v94.11c0 27.19-20.69 45.33-32 53.22-11.31-7.89-32-26.03-32-53.22V-56c0-4.42-3.58-8-8-8h-16c-4.42 0-8 3.58-8 8v94.11c0 13.69 2.98 59.38 64 89.89zm144-64c26.47 0 48-21.53 48-48v-72c0-4.42-3.58-8-8-8h-16c-4.42 0-8 3.58-8 8v72c0 8.83-7.19 16-16 16s-16-7.17-16-16v-72c0-4.42-3.58-8-8-8h-16c-4.42 0-8 3.58-8 8v70.11C480 38.94 498.47 64 528 64z"/><glyph glyph-name="om" unicode="" horiz-adv-x="448" d="M296.62 355.06l-21.56 21.56c-1.689 1.687-3.06 4.994-3.06 7.38s1.371 5.694 3.06 7.38l21.56 21.56c1.687 1.69 4.993 3.06 7.38 3.06s5.693-1.37 7.38-3.06l21.56-21.56c1.689-1.686 3.06-4.993 3.06-7.38s-1.371-5.693-3.06-7.38l-21.56-21.56c-4.08-4.07-10.68-4.07-14.76 0zM310.56 288c-56.03 0-84.07 41.78-85.24 43.56-4.92 7.5 4.24 16.12 11.23 10.87.3-.23 30.2-22.37 69.89-22.37 23.12 0 45.01 7.54 65.06 22.4 5.15 3.83 12.5.12 12.5-6.46v-25.975c0-1.436-.68-3.548-1.52-4.715-2.08-2.89-15.33-17.31-71.92-17.31zm44.54-48.47c50.28 5.28 92.9-34.18 92.89-83.42V71.99c0-39.76-32.23-72-72-72h-24c-50.4 0-48 32.62-48 32.62v19.3c0 3.85 4.95 5.55 7.45 2.56 7.95-9.5 19.87-22.47 40.55-22.47h24c22.09 0 40 17.91 40 40v84.13c0 32.34-29.74 57.85-63.28 50.65-10.07-2.16-19.1-7.78-26.38-15.06l-23.14-23.15A83.895 83.895 0 0 0 243.87 144h-49.13c17.64-18.31 28.77-42.95 29.24-70.21C224.98 15.6 173.64-32 115.44-32 27.36-32-.04 29.95 0 48.35c.01 4.69 6.161 6.8 8.87 2.78C22.54 30.88 54.42 0 112 0h8c42.06 0 75.831 36.27 71.651 79.17-3.64 37.41-37.27 64.82-74.86 64.82l-37.3-.17c-2.79.23-5.32 1.75-6.59 4.28l-8.04 16.09c-2.66 5.33 1.19 11.61 7.15 11.64L104 176c35.29 0 63.06 32.82 54.39 69.54-5.02 21.28-23.11 38.09-44.68 41.67-18.86 3.13-36.99-2.96-49.66-15.91-2.95-3.02-7.49-3.72-10.86-1.19l-12.86 9.67c-3.65 2.75-4.43 8.15-1.36 11.53 20.21 22.27 50.2 32.78 81.39 27.25 32.74-5.81 59.87-31.02 68.49-63.13 8.21-30.55-.3-58.74-17.53-79.42h72.56c11.866 0 28.307 6.81 36.7 15.2l22.03 22.03c14.2 14.2 32.52 24.19 52.49 26.29z"/><glyph glyph-name="omega" unicode="" horiz-adv-x="448" d="M448 192c0-81.63-43.81-152.85-109.06-192H440c4.42 0 8-3.58 8-8v-16c0-4.42-3.58-8-8-8H296c-4.42 0-8 3.58-8 8V.31c0 6.57 4.1 12.28 10.16 14.83C367.27 44.21 416 112.44 416 192c0 108.52-90.49 196.3-199.98 191.84-97.409-3.97-178.319-83.63-183.72-180.97C27.63 118.7 77.6 45.53 149.84 15.14 155.9 12.6 160 6.88 160 .31V-24c0-4.42-3.58-8-8-8H8c-4.42 0-8 3.58-8 8v16c0 4.42 3.58 8 8 8h101.06C36.42 43.59-9.65 126.92 1.72 220.12 14.1 321.55 96.64 403.21 198.2 414.55 333.46 429.67 448 324.21 448 192z"/><glyph glyph-name="pastafarianism" unicode="" d="M629.28 92.86c8.61-3.14 12.9-12.39 9.62-20.65-3.25-8.27-12.87-12.41-21.45-9.25-13.1 4.83-23.34-1.17-40.3-12.2-13.69-8.9-29.9-19.45-49.86-19.45-6.53 0-13.52 1.14-20.9 3.84-29.93 10.97-36.66 36.45-42.05 56.92-2.52 9.57-4.66 17.1-7.82 22.85-19.39-17.37-44.71-33.15-76.63-42.41C392.34 22.48 416.3-30.34 448-30.34c8.84 0 16-7.53 16-16.83S456.84-64 448-64c-60.44 0-89.31 88.06-99.63 129.86C339.33 64.73 329.94 64 320 64s-19.33.719-28.37 1.86C281.31 24.059 252.44-64 192-64c-8.84 0-16 7.53-16 16.83s7.16 16.83 16 16.83c31.7 0 55.66 52.82 68.11 102.84-31.92 9.26-57.24 25.05-76.63 42.41-3.17-5.74-5.31-13.28-7.82-22.85-5.39-20.47-12.12-45.95-42.05-56.92-7.38-2.7-14.37-3.84-20.9-3.84-19.96 0-36.18 10.54-49.86 19.45-16.96 11.03-27.2 17.03-40.3 12.2-8.58-3.16-18.2.98-21.45 9.25-3.28 8.27 1.01 17.52 9.62 20.66 29.93 10.97 52.58-3.78 70.75-15.61 16.97-11 27.2-16.95 40.3-12.2 13.09 4.8 16.6 15.83 21.61 34.89 3.35 12.71 7.23 27.35 16.85 39.25-7.51 9.17-13.47 17.9-18.21 25.65-9.74-11.26-22.76-20.84-42.18-20.84-30.03 0-44.88 22.84-55.71 39.52C33.05 200.55 27.14 208 16.64 208 7.44 208 0 215.16 0 224s7.44 16 16.64 16c30.03 0 44.88-22.84 55.71-39.52C83.43 183.45 89.34 176 99.84 176c46.08 0 20.68 62.88 119.11 118.33l-21.13 42.26c-1.94-.21-3.83-.59-5.82-.59-30.93 0-56 25.07-56 56s25.07 56 56 56 56-25.07 56-56c0-17.42-8.12-32.78-20.59-43.05l20.56-41.11C268.74 315.34 292.62 320 320 320s51.26-4.66 72.019-12.16l20.56 41.11C400.12 359.22 392 374.58 392 392c0 30.93 25.07 56 56 56s56-25.07 56-56-25.07-56-56-56c-2 0-3.88.39-5.82.59l-21.13-42.26C519.48 238.88 494.08 176 540.16 176c10.49 0 16.41 7.45 27.49 24.48 10.83 16.68 25.68 39.52 55.71 39.52 9.2 0 16.64-7.16 16.64-16s-7.44-16-16.64-16c-10.49 0-16.41-7.45-27.49-24.48-10.83-16.68-25.68-39.52-55.71-39.52-19.42 0-32.44 9.58-42.18 20.84-4.74-7.75-10.7-16.48-18.21-25.65 9.62-11.9 13.5-26.54 16.85-39.25 5-19.06 8.51-30.09 21.61-34.89 13.1-4.75 23.33 1.2 40.3 12.2 18.16 11.83 40.82 26.58 70.75 15.61zM448 416c-13.23 0-24-10.77-24-24s10.77-24 24-24 24 10.77 24 24-10.77 24-24 24zm-256-48c13.23 0 24 10.77 24 24s-10.77 24-24 24-24-10.77-24-24 10.77-24 24-24zM320 96c97.04 0 142.39 68.26 156.81 96.01C462.45 219.64 417.12 288 320 288s-142.45-68.36-156.81-95.99C177.61 164.26 222.96 96 320 96z"/><glyph glyph-name="peace" unicode="" horiz-adv-x="496" d="M248 440c136.97 0 248-111.03 248-248S384.97-56 248-56 0 55.03 0 192s111.03 248 248 248zm216-248c0 113.7-88.37 206.95-200 215.19V199.7L426.1 70.03C449.96 104.77 464 146.76 464 192zM232 407.19C120.37 398.95 32 305.7 32 192c0-45.24 14.04-87.23 37.9-121.97L232 199.7v207.49zM90.05 45.15C126.1 6.4 176.07-19.06 232-23.19V158.7zM264-23.19c55.93 4.13 105.9 29.59 141.95 68.34L264 158.7V-23.19z"/><glyph glyph-name="phone-office" unicode="" horiz-adv-x="576" d="M352 128c17.66 0 32-14.36 32-32V64c0-17.64-14.34-32-32-32h-32c-17.66 0-32 14.36-32 32v32c0 17.64 14.34 32 32 32h32zm0-64v32h-32V64h32zm0 192c17.66 0 32-14.36 32-32v-32c0-17.64-14.34-32-32-32h-32c-17.66 0-32 14.36-32 32v32c0 17.64 14.34 32 32 32h32zm0-64v32h-32v-32h32zm128-64c17.66 0 32-14.36 32-32V64c0-17.64-14.34-32-32-32h-32c-17.66 0-32 14.36-32 32v32c0 17.64 14.34 32 32 32h32zm0-64v32h-32V64h32zm0 192c17.66 0 32-14.36 32-32v-32c0-17.64-14.34-32-32-32h-32c-17.66 0-32 14.36-32 32v32c0 17.64 14.34 32 32 32h32zm0-64v32h-32v-32h32zm32 224c35.35 0 64-28.65 64-64V0c0-35.35-28.65-64-64-64H64C28.65-64 0-35.35 0 0v352c0 35.35 28.65 64 64 64h18.94c6.61 18.6 24.19 32 45.06 32h64c20.87 0 38.45-13.4 45.06-32H512zm-192-32v-64h160v64H320zm-208 16V64c0-8.82 7.18-16 16-16h64c8.82 0 16 7.18 16 16v336c0 8.82-7.18 16-16 16h-64c-8.82 0-16-7.18-16-16zM544 0v352c0 17.64-14.36 32-32 32v-64c0-17.64-14.34-32-32-32H320c-17.66 0-32 14.36-32 32v64h-48V64c0-26.51-21.49-48-48-48h-64c-26.51 0-48 21.49-48 48v320H64c-17.64 0-32-14.36-32-32V0c0-17.64 14.36-32 32-32h448c17.64 0 32 14.36 32 32z"/><glyph glyph-name="pi" unicode="" horiz-adv-x="448" d="M444.79 62.4c3.54-2.65 4.26-7.66 1.62-11.21l-20.78-27.73C408.17.26 374.59-8.16 347.02 9.34 329.6 20.4 320 40.5 320 61.13V320H160V188.53c0-32.914-14.157-82.28-31.6-110.19L81.8 3.77C80.5 1.695 77.46.012 75.015.012c-1.269 0-3.17.545-4.246 1.217L57.21 9.71c-2.072 1.298-3.754 4.336-3.754 6.781 0 1.266.544 3.165 1.215 4.24l46.58 74.529A176.002 176.002 0 0 1 128 188.54V320H8.02c-7.13 0-10.7 8.62-5.66 13.66l13.66 13.65c3 3 7.07 4.69 11.31 4.69H440c4.42 0 8-3.58 8-8v-16c0-4.42-3.58-8-8-8h-88V58.67C352 43.97 363.97 32 378.66 32c8.34 0 16.34 3.98 21.36 10.67l20.75 27.72c1.324 1.77 4.193 3.208 6.404 3.208 1.471 0 3.62-.716 4.796-1.598z"/><glyph glyph-name="place-of-worship" unicode="" horiz-adv-x="576" d="M558.57 92.01c10.47-5 17.43-17.9 17.43-32.33V-56c0-4.42-3.58-8-8-8h-16c-4.42 0-8 3.58-8 8 0 0 .35 119.22 0 120l-96 45.29V-56c0-4.42-3.58-8-8-8h-16c-4.42 0-8 3.58-8 8v229.88l-64 38.4v133.09l-64 64-64-64V212.28l-64-38.4V-56c0-4.42-3.58-8-8-8h-16c-4.42 0-8 3.58-8 8v165.29L32 64c-.35-.78 0-120 0-120 0-4.42-3.58-8-8-8H8c-4.42 0-8 3.58-8 8V59.68c0 14.43 6.96 27.33 17.43 32.33L128 144.73v29.16c0 9.998 6.956 22.287 15.53 27.43L192 230.4v114.98c0 8.48 3.37 16.62 9.37 22.62l75.32 75.31c3.119 3.13 7.22 4.69 11.31 4.69s8.19-1.56 11.309-4.69l75.31-75.31c6.01-6 9.38-14.14 9.38-22.63V230.4l48.47-29.08A32.023 32.023 0 0 0 448 173.88v-29.14zM281.71 127.7C319.88 131.34 352 101.42 352 64V-56c0-4.42-3.58-8-8-8h-16c-4.42 0-8 3.58-8 8V64c0 19.42-17.39 34.85-37.41 31.56C266.86 92.96 256 78.15 256 62.2V-56c0-4.42-3.58-8-8-8h-16c-4.42 0-8 3.58-8 8V61.25c0 33.43 24.43 63.28 57.71 66.45z"/><glyph glyph-name="podium" unicode="" horiz-adv-x="448" d="M440 288c4.42 0 8-3.58 8-8v-16c0-4.42-3.58-8-8-8h-56L352.1-32H408c4.42 0 8-3.58 8-8v-16c0-4.42-3.58-8-8-8H40c-4.42 0-8 3.58-8 8v16c0 4.42 3.58 8 8 8h56L64.1 254.23l-.01 1.77H8c-4.42 0-8 3.58-8 8v16c0 4.42 3.58 8 8 8h56v16c0 57.13 43.17 103.88 98.52 110.64C168.73 433.94 186.63 448 208 448h64c26.51 0 48-21.49 48-48s-21.49-48-48-48h-64c-20.4 0-37.71 12.78-44.66 30.72C125.25 376.6 96 343.77 96 304v-16h344zM208 416c-8.82 0-16-7.18-16-16s7.18-16 16-16h64c8.82 0 16 7.18 16 16s-7.18 16-16 16h-64zM320-32l31.9 288H96l31.9-286.23.01-1.77H320z"/><glyph glyph-name="poll" unicode="" horiz-adv-x="448" d="M400 416c26.5 0 48-21.5 48-48V16c0-26.5-21.5-48-48-48H48C21.5-32 0-10.5 0 16v352c0 26.5 21.5 48 48 48h352zm16-400v352c0 8.82-7.18 16-16 16H48c-8.82 0-16-7.18-16-16V16c0-8.82 7.18-16 16-16h352c8.82 0 16 7.18 16 16zM136 224c4.42 0 8-3.58 8-8V72c0-4.42-3.58-8-8-8h-16c-4.42 0-8 3.58-8 8v144c0 4.42 3.58 8 8 8h16zm96 96c4.42 0 8-3.58 8-8V72c0-4.42-3.58-8-8-8h-16c-4.42 0-8 3.58-8 8v240c0 4.42 3.58 8 8 8h16zm96-160c4.42 0 8-3.58 8-8V72c0-4.42-3.58-8-8-8h-16c-4.42 0-8 3.58-8 8v80c0 4.42 3.58 8 8 8h16z"/><glyph glyph-name="poll-h" unicode="" horiz-adv-x="448" d="M448 16c0-26.5-21.5-48-48-48H48C21.5-32 0-10.5 0 16v352c0 26.5 21.5 48 48 48h352c26.5 0 48-21.5 48-48V16zM48 0h352c8.82 0 16 7.18 16 16v352c0 8.82-7.18 16-16 16H48c-8.82 0-16-7.18-16-16V16c0-8.82 7.18-16 16-16zm208 280c0-4.42-3.58-8-8-8H104c-4.42 0-8 3.58-8 8v16c0 4.42 3.58 8 8 8h144c4.42 0 8-3.58 8-8v-16zm96-96c0-4.42-3.58-8-8-8H104c-4.42 0-8 3.58-8 8v16c0 4.42 3.58 8 8 8h240c4.42 0 8-3.58 8-8v-16zM192 88c0-4.42-3.58-8-8-8h-80c-4.42 0-8 3.58-8 8v16c0 4.42 3.58 8 8 8h80c4.42 0 8-3.58 8-8V88z"/><glyph glyph-name="pray" unicode="" horiz-adv-x="384" d="M240 304c-39.7 0-72 32.3-72 72s32.3 72 72 72 72-32.3 72-72-32.3-72-72-72zm0 112c-22.05 0-40-17.95-40-40s17.95-40 40-40 40 17.95 40 40-17.95 40-40 40zm-20.75-294.89l-16.56 19.72-24.49-45.62 102.75-74.95c15.69-12.08 21.65-32.17 15.18-51.19C289.4-50.71 270.87-64 250.03-64H48C21.53-64 0-42.47 0-16s21.53 48 48 48h18.94C31.8 62.23 22.5 111.5 45.51 154.43l49.38 92.04c9.32 17.29 32.64 41.53 71.17 41.53 24.4 0 47.14-10.43 62.38-28.59l31.31-35.16 42.31 49.69c18.74 18.75 49.13 18.75 67.88 0 18.74-18.74 18.74-49.13 0-67.88l-80.13-88c-15.51-17.08-50.07-21.36-70.56 3.05zm-82.44-35.33l59.99 111.76 46.94-55.84c4.77-5.67 14.72-8.46 22.38-2.12l81.19 89.11c6.25 6.25 6.25 16.38 0 22.63s-16.38 6.25-22.63 0l-66.4-77.16-54.34 64.67c-24.33 28.99-67.17 17.88-80.88-7.55L73.72 139.3c-17.22-32.11-9.5-68.84 22.5-89.28L186.25 0H48c-8.81 0-16-7.17-16-16s7.19-16 16-16h202.02c14.7 0 22.5 18.36 11.4 26.9z"/><glyph glyph-name="praying-hands" unicode="" d="M502.58 107.77c-13.42 4.14-22.58 16.54-22.57 30.58v66.51c0 14.074-5.667 35.412-12.65 47.63l-86.51 151.4c-6.88 12.08-21.78 15.2-32.75 8.94-11.5-6.58-15.5-21.25-8.94-32.75l64.19-112.33A95.966 95.966 0 0 0 416 220.12v-84.13c0-4.42-3.58-8-8-8h-16c-4.42 0-8 3.58-8 8v64c0 13.25-10.75 24-24 24s-24-10.75-24-24v-86.08c0-35.86 23.86-67.34 58.39-77.03l239.77-68.56a8 8 0 0 0 5.84-7.7V-56c0-5.3-5.06-9.13-10.16-7.7L385.75 6.07c-28.41 7.97-51.4 26.64-65.75 50.73-14.35-24.1-37.34-42.76-65.75-50.73L10.16-63.7C5.06-65.13 0-61.3 0-56v16.62c.004 3.345 2.62 6.794 5.84 7.7l239.77 68.56C280.13 46.57 304 78.05 304 113.91v86.08c0 13.25-10.75 24-24 24s-24-10.75-24-24v-64c0-4.42-3.58-8-8-8h-16c-4.42 0-8 3.58-8 8v84.13c.002 14.073 5.668 35.411 12.65 47.63l64.19 112.33c6.561 11.5 2.561 26.17-8.939 32.75-10.91 6.22-25.82 3.22-32.75-8.94l-86.51-151.4a95.965 95.965 0 0 1-12.65-47.63v-66.51c0-14.04-9.16-26.45-22.58-30.58L10.35 67.78C5.21 66.2 0 70.05 0 75.43v16.74c.002 3.262 2.533 6.689 5.65 7.65L128 138.35v66.52c0 18.761 7.554 47.21 16.861 63.5l86.49 151.37c9.94 17.43 28.58 28.26 48.66 28.26 14.79 0 29.26-6.01 39.99-16.94 10.73 10.93 25.2 16.94 39.99 16.94 20.08 0 38.72-10.83 48.66-28.26l86.48-151.36A127.913 127.913 0 0 0 512 204.87v-66.51l122.34-38.54a8.012 8.012 0 0 0 5.65-7.65V75.43c0-5.39-5.21-9.23-10.35-7.65zM374.27 254.15L320 349.11l-54.269-94.96c6.36 1.68 13.15 2.26 20.16 1.54 13.66-1.4 25.38-8.22 34.11-17.95 8.74 9.73 20.45 16.55 34.11 17.95 7.02.72 13.81.14 20.16-1.54z"/><glyph glyph-name="presentation" unicode="" horiz-adv-x="576" d="M568 448c4.42 0 8-3.59 8-8.02v-16.05c0-4.43-3.58-8.02-8-8.02h-24V128.14c0-17.69-14.34-32.09-32-32.09H304V46.92l85.65-85.89c3.12-3.13 3.12-8.21 0-11.34l-11.31-11.34c-1.292-1.297-3.825-2.347-5.655-2.347s-4.363 1.05-5.655 2.346L288 17.59l-79.04-79.24c-1.292-1.296-3.825-2.346-5.655-2.346s-4.364 1.05-5.655 2.346l-11.31 11.34c-3.12 3.13-3.12 8.21 0 11.34L272 46.92v49.13H64c-17.66 0-32 14.4-32 32.09v287.78H8c-4.42 0-8 3.589-8 8.02v16.04c0 4.43 3.58 8.02 8 8.02h560zm-56-320v288H64V128h448z"/><glyph glyph-name="print-slash" unicode="" d="M637-37.2c3.5-2.8 4-7.8 1.2-11.3l-10-12.5c-2.7-3.4-7.8-4-11.2-1.2L3 421.3c-3.4 2.7-4 7.7-1.2 11.2l10 12.5c2.7 3.5 7.8 4 11.2 1.2zM192.1 416v-62.2L160 379.1V416c0 17.7 13.6 32 30.5 32h180.3c8.5 0 16.601-3.4 22.601-9.4l77.1-77.2c6-6 9.4-14.1 9.4-22.6V256h16c44.2 0 80-35.8 80-80V80c0-8.8-7.1-15.9-15.9-16l-40.6 32h24.5v80c0 26.5-21.5 48-48 48h-139l-40.6 32H448v64h-64c-17.7 0-32 14.3-32 32v64H192.1zM384 402.8V352h50.8zM448-32v62.1l32-25.2V-48c0-8.8-7.2-16-16-16H176c-8.8 0-16 7.2-16 16V64H80c-8.8 0-16 7.2-16 16v96c0 44.2 35.8 80 80 80h16v.9l41.8-32.9H144c-26.5 0-48-21.5-48-48V96h268.4L405 64H192v-96h256zm-8 192c0 13.3 10.7 24 23.9 24s24-10.7 24-24c0-11.9-8.8-21.3-20.2-23.2l-27.4 21.6c0 .5-.3 1-.3 1.6z"/><glyph glyph-name="quran" unicode="" horiz-adv-x="448" d="M246.25 109.62c-70.13 0-127.18 57.07-127.18 127.2s57.07 127.189 127.189 127.189c15.09 0 30.09-2.75 44.59-8.19 8.66-3.2 13.62-12.16 11.78-21.28-1.72-8.72-9.44-15.06-18.38-15.06l-4.16.2c-45.65 0-82.84-37.17-82.84-82.86s37.19-82.86 82.88-82.86l4.12.2c10.37 0 18.81-8.43 18.81-18.77v-.026c0-7.442-5.725-15.404-12.78-17.774-14.06-5.25-29-7.97-44.03-7.97zm0 230.38c-56.91 0-103.19-46.3-103.19-103.19 0-58.73 49.97-106.689 108.69-103.029-45.22 12.45-78.5 53.92-78.5 103.029 0 49.09 33.31 90.58 78.5 103.03-1.84.11-3.66.16-5.5.16zM448 56c0-10-6.2-18.6-14.9-22.2-3.6-16.1-4.4-45.6-.4-65.8h3.3c6.6 0 12-5.4 12-12v-8c0-6.6-5.4-12-12-12H64C28.65-64 0-35.35 0 0v368c0 44.2 35.8 80 80 80h344c13.3 0 24-10.7 24-24V56zm-43.7-88c-3.1 20.4-2.9 45.2 0 64H64C46.33 32 32 17.67 32 0s14.33-32 32-32h340.3zM416 64v352H80c-26.5 0-48-21.5-48-48V55.12C41.45 60.62 52.28 64 64 64h352zM292.72 292.73c5.37 10.94 23.31 10.94 28.68.01l10.16-20.58 22.72-3.3c6.03-.86 11.06-5.091 12.94-10.89s.32-12.16-4.06-16.41l-16.47-16.03 3.91-22.62c1.03-6-1.44-12.07-6.38-15.66-2.325-1.684-6.544-3.051-9.415-3.051-2.185 0-5.53.824-7.465 1.84l-20.28 10.69-20.28-10.69c-5.38-2.85-11.94-2.38-16.88 1.2a16.02 16.02 0 0 0-6.38 15.66l3.91 22.62-16.47 16.03a15.999 15.999 0 0 0-4.06 16.41c1.88 5.8 6.91 10.03 12.94 10.89l22.72 3.3zm24.22-39.41l-9.88 20.03-9.88-20.03-22.12-3.2 16.03-15.6-3.78-22.02 19.75 10.41 19.75-10.41-3.78 22.02 16.03 15.6z"/><glyph glyph-name="search-dollar" unicode="" horiz-adv-x="512" d="M235.09 248.58c18.6-5.58 31.58-23.42 31.58-43.39 0-24.53-19.05-44.44-42.67-45.07V144c0-4.42-3.58-8-8-8h-16c-4.42 0-8 3.58-8 8v16.29c-11.29.58-22.27 4.52-31.37 11.35-3.9 2.93-4.1 8.77-.57 12.14l11.75 11.21c2.77 2.64 6.89 2.76 10.13.73 3.86-2.43 8.26-3.72 12.82-3.72h28.11c6.5 0 11.8 5.92 11.8 13.19 0 5.95-3.61 11.18-8.77 12.73l-45 13.5c-18.6 5.58-31.58 23.42-31.58 43.39 0 24.52 19.05 44.44 42.67 45.07V336c0 4.42 3.58 8 8 8h16c4.42 0 8-3.58 8-8v-16.29c11.29-.58 22.27-4.52 31.37-11.35 3.9-2.93 4.1-8.77.57-12.14l-11.75-11.21c-2.77-2.64-6.89-2.76-10.13-.73-3.86 2.43-8.26 3.72-12.82 3.72h-28.11c-6.5 0-11.8-5.92-11.8-13.19 0-5.95 3.61-11.18 8.77-12.73zM508.47-33.58c4.71-4.7 4.71-12.3 0-16.99l-9.9-9.9c-4.7-4.7-12.3-4.7-17 0L352.58 68.52c-2.2 2.3-3.5 5.3-3.5 8.5v10.2c-37.099-34.2-86.59-55.2-141.09-55.2C93.1 32.02 0 125.12 0 240.01 0 354.9 93.1 448 207.99 448c114.89 0 207.99-93.1 207.99-207.99 0-54.49-21-103.99-55.3-141.09h10.3c3.2 0 6.2-1.2 8.5-3.5zm-300.48 97.6c97.3 0 175.99 78.69 175.99 175.99 0 97.29-78.7 175.99-175.99 175.99S32 337.31 32 240.01 110.7 64.02 207.99 64.02z"/><glyph glyph-name="search-location" unicode="" horiz-adv-x="512" d="M208 352c49.53 0 89.81-40.3 89.81-89.83 0-34.65-38.34-87.2-70.5-125.2-4.84-5.7-11.87-8.97-19.31-8.97s-14.47 3.27-19.28 8.97c-32.19 38-70.53 90.54-70.53 125.2 0 49.53 40.28 89.83 89.81 89.83zm0-188.23c35.31 42.7 57.81 80.89 57.81 98.41 0 31.89-25.94 57.83-57.81 57.83s-57.81-25.94-57.81-57.83c0-17.52 22.5-55.71 57.81-98.41zM208 288c13.25 0 24-10.74 24-24 0-13.25-10.75-24-24-24s-24 10.75-24 24c0 13.26 10.75 24 24 24zM508.47-33.58c4.71-4.7 4.71-12.3 0-16.99l-9.9-9.9c-4.7-4.7-12.3-4.7-17 0L352.58 68.52c-2.2 2.3-3.5 5.3-3.5 8.5v10.2c-37.099-34.2-86.59-55.2-141.09-55.2C93.1 32.02 0 125.12 0 240.01 0 354.9 93.1 448 207.99 448c114.89 0 207.99-93.1 207.99-207.99 0-54.49-21-103.99-55.3-141.09h10.3c3.2 0 6.2-1.2 8.5-3.5zm-300.48 97.6c97.3 0 175.99 78.69 175.99 175.99 0 97.29-78.7 175.99-175.99 175.99S32 337.31 32 240.01 110.7 64.02 207.99 64.02z"/><glyph glyph-name="shredder" unicode="" horiz-adv-x="512" d="M432 256c44.18 0 80-35.82 80-80V80c0-8.84-7.16-16-16-16H16C7.16 64 0 71.16 0 80v96c0 44.18 35.82 80 80 80h16v160c0 17.67 13.64 32 30.48 32h180.26a32 32 0 0 0 22.63-9.37l77.26-77.25c6-6.01 9.37-14.14 9.37-22.63V256h16zM320 402.75V352h50.75zM128.12 416l-.1-160H384v64h-64c-17.67 0-32 14.33-32 32v64H128.12zM480 96v80c0 26.47-21.53 48-48 48H80c-26.47 0-48-21.53-48-48V96h448zm-80 88c13.25 0 24-10.74 24-24 0-13.25-10.75-24-24-24s-24 10.75-24 24c0 13.26 10.75 24 24 24zM48-56v88h32v-88c0-4.42-3.58-8-8-8H56c-4.42 0-8 3.58-8 8zm96 0v88h32v-88c0-4.42-3.58-8-8-8h-16c-4.42 0-8 3.58-8 8zm96 0v88h32v-88c0-4.42-3.58-8-8-8h-16c-4.42 0-8 3.58-8 8zm96 0v88h32v-88c0-4.42-3.58-8-8-8h-16c-4.42 0-8 3.58-8 8zm96 0v88h32v-88c0-4.42-3.58-8-8-8h-16c-4.42 0-8 3.58-8 8z"/><glyph glyph-name="sigma" unicode="" horiz-adv-x="320" d="M296 288c-4.41 0-7.99 3.58-7.99 8v56H32.05l129.4-138.12c11.5-12.27 11.5-31.49-.03-43.77L31.35 31.19 288 32v56c0 4.42 3.58 8 8 8h16c4.42 0 8-3.58 8-8V32c0-17.67-14.32-32-31.99-32H33.61C22.38 0 11.3 5.04 5.23 14.49-2.52 26.58-1.51 41.5 7.3 52.27L138.09 192 7.99 330.94c-9.56 11.63-10.49 26.42-2.8 38.5C11.2 378.879 22.2 384 33.39 384h254.62c17.669 0 31.99-14.33 31.99-32v-56c0-4.42-3.58-8-8-8h-16z"/><glyph glyph-name="signal-1" unicode="" d="M80 64c4.42 0 8-3.58 8-8V-56c0-4.42-3.58-8-8-8H48c-4.42 0-8 3.58-8 8V56c0 4.42 3.58 8 8 8h32z"/><glyph glyph-name="signal-2" unicode="" d="M208 160c4.42 0 8-3.58 8-8V-56c0-4.42-3.58-8-8-8h-32c-4.42 0-8 3.58-8 8v208c0 4.42 3.58 8 8 8h32zM80 64c4.42 0 8-3.58 8-8V-56c0-4.42-3.58-8-8-8H48c-4.42 0-8 3.58-8 8V56c0 4.42 3.58 8 8 8h32z"/><glyph glyph-name="signal-3" unicode="" d="M208 160c4.42 0 8-3.58 8-8V-56c0-4.42-3.58-8-8-8h-32c-4.42 0-8 3.58-8 8v208c0 4.42 3.58 8 8 8h32zM80 64c4.42 0 8-3.58 8-8V-56c0-4.42-3.58-8-8-8H48c-4.42 0-8 3.58-8 8V56c0 4.42 3.58 8 8 8h32zm256 192c4.42 0 8-3.58 8-8V-56c0-4.42-3.58-8-8-8h-32c-4.42 0-8 3.58-8 8v304c0 4.42 3.58 8 8 8h32z"/><glyph glyph-name="signal-4" unicode="" d="M208 160c4.42 0 8-3.58 8-8V-56c0-4.42-3.58-8-8-8h-32c-4.42 0-8 3.58-8 8v208c0 4.42 3.58 8 8 8h32zM80 64c4.42 0 8-3.58 8-8V-56c0-4.42-3.58-8-8-8H48c-4.42 0-8 3.58-8 8V56c0 4.42 3.58 8 8 8h32zm256 192c4.42 0 8-3.58 8-8V-56c0-4.42-3.58-8-8-8h-32c-4.42 0-8 3.58-8 8v304c0 4.42 3.58 8 8 8h32zm128 96c4.42 0 8-3.58 8-8V-56c0-4.42-3.58-8-8-8h-32c-4.42 0-8 3.58-8 8v400c0 4.42 3.58 8 8 8h32z"/><glyph glyph-name="signal-alt" unicode="" d="M576 416h-32V-32h32v448zM416 288h-32V-32h32v320zM256 160h-32V-32h32v192zM96 32H64v-64h32v64zm480 416c17.67 0 32-14.33 32-32V-32c0-17.67-14.33-32-32-32h-32c-17.67 0-32 14.33-32 32v448c0 17.67 14.33 32 32 32h32zM416 320c17.67 0 32-14.33 32-32V-32c0-17.67-14.33-32-32-32h-32c-17.67 0-32 14.33-32 32v320c0 17.67 14.33 32 32 32h32zM256 192c17.67 0 32-14.33 32-32V-32c0-17.67-14.33-32-32-32h-32c-17.67 0-32 14.33-32 32v192c0 17.67 14.33 32 32 32h32zM96 64c17.67 0 32-14.33 32-32v-64c0-17.67-14.33-32-32-32H64c-17.67 0-32 14.33-32 32v64c0 17.67 14.33 32 32 32h32z"/><glyph glyph-name="signal-alt-1" unicode="" d="M96 32H64v-64h32v64zm0 32c17.67 0 32-14.33 32-32v-64c0-17.67-14.33-32-32-32H64c-17.67 0-32 14.33-32 32v64c0 17.67 14.33 32 32 32h32z"/><glyph glyph-name="signal-alt-2" unicode="" d="M256 160h-32V-32h32v192zM96 32H64v-64h32v64zm160 160c17.67 0 32-14.33 32-32V-32c0-17.67-14.33-32-32-32h-32c-17.67 0-32 14.33-32 32v192c0 17.67 14.33 32 32 32h32zM96 64c17.67 0 32-14.33 32-32v-64c0-17.67-14.33-32-32-32H64c-17.67 0-32 14.33-32 32v64c0 17.67 14.33 32 32 32h32z"/><glyph glyph-name="signal-alt-3" unicode="" d="M416 288h-32V-32h32v320zM256 160h-32V-32h32v192zM96 32H64v-64h32v64zm320 288c17.67 0 32-14.33 32-32V-32c0-17.67-14.33-32-32-32h-32c-17.67 0-32 14.33-32 32v320c0 17.67 14.33 32 32 32h32zM256 192c17.67 0 32-14.33 32-32V-32c0-17.67-14.33-32-32-32h-32c-17.67 0-32 14.33-32 32v192c0 17.67 14.33 32 32 32h32zM96 64c17.67 0 32-14.33 32-32v-64c0-17.67-14.33-32-32-32H64c-17.67 0-32 14.33-32 32v64c0 17.67 14.33 32 32 32h32z"/><glyph glyph-name="signal-alt-slash" unicode="" d="M384 288v-85.3l-32 25.2V288c0 17.7 14.3 32 32 32h32c17.7 0 32-14.3 32-32V152.3l-32 25.2V288h-32zm160 128V76.7l-32 25.2V416c0 17.7 14.3 32 32 32h32c17.7 0 32-14.3 32-32V26.3l-32 25.2V416h-32zm93-453.2c3.5-2.8 4-7.8 1.2-11.3l-10-12.5c-2.7-3.4-7.8-4-11.2-1.2L3 421.3c-3.4 2.7-4 7.7-1.2 11.2l10 12.5c2.7 3.5 7.8 4 11.2 1.2zM224 192h18.4l45.6-35.9V-32c0-17.7-14.3-32-32-32h-32c-17.7 0-32 14.3-32 32v192c0 17.7 14.3 32 32 32zm32-224v192h-32V-32h32zm160 0v87.3l32-25.2V-32c0-17.7-14.3-32-32-32h-32c-17.7 0-32 14.3-32 32v137.7l32-25.2V-32h32zM96 64c17.7 0 32-14.3 32-32v-64c0-17.7-14.3-32-32-32H64c-17.7 0-32 14.3-32 32v64c0 17.7 14.3 32 32 32h32zm0-96v64H64v-64h32z"/><glyph glyph-name="signal-slash" unicode="" d="M80 64c4.4 0 8-3.6 8-8V-56c0-4.4-3.6-8-8-8H48c-4.4 0-8 3.6-8 8V56c0 4.4 3.6 8 8 8h32zm392 280V133.4l-48 37.8V344c0 4.4 3.6 8 8 8h32c4.4 0 8-3.6 8-8zm128 96V32.6l-48 37.8V440c0 4.401 3.6 8 8 8h32c4.4 0 8-3.599 8-8zM424-56V49l48-37.8V-56c0-4.4-3.6-8-8-8h-32c-4.4 0-8 3.6-8 8zM208 160c4.4 0 8-3.6 8-8V-56c0-4.4-3.6-8-8-8h-32c-4.4 0-8 3.6-8 8v208c0 4.4 3.6 8 8 8h32zM637-37.2c3.5-2.8 4-7.8 1.2-11.3l-10-12.5c-2.7-3.4-7.8-4-11.2-1.2L3 421.3c-3.4 2.7-4 7.7-1.2 11.2l10 12.5c2.7 3.5 7.8 4 11.2 1.2zM296-56v205.8l48-37.8V-56c0-4.4-3.6-8-8-8h-32c-4.4 0-8 3.6-8 8z"/><glyph glyph-name="socks" unicode="" horiz-adv-x="512" d="M448 448c35.35 0 64-28.65 63.99-64V152.02c-.003-35.33-22.945-81.204-51.21-102.399l-121.61-91.2c-20.12-15.11-43.71-22.41-67.09-22.41-29.01 0-57.67 11.26-79.14 32.72l-13.76-10.32c-20.12-15.11-43.71-22.41-67.09-22.41C73.8-64 35.46-44.47 14.17-7.64-14.59 42.12 2.26 106.12 48.23 140.61L128 200s.1 110.73.17 184.22c.04 35.32 28.68 63.78 64 63.78H288c11.71 0 22.43-3.49 31.8-9.04 9.53 5.61 20.5 9.04 32.37 9.04H448zm-95.83-32c-17.62 0-31.98-14.27-32-31.82l-.03-32.18H480v32c0 17.64-14.36 32-32 32h-95.83zm-160 0c-17.62 0-31.98-14.27-32-31.82l-.03-32.18h128l.03 32.22c.01 11.14 3.12 21.44 8.14 30.54-2.63.77-5.4 1.24-8.31 1.24h-95.83zM173.85-5.6c-27.19 49.46-10.38 112.18 34.99 146.21L288 200s.05 59.37.11 120h-128l-.13-136-92.55-68.98C33.32 89.43 22.09 42.59 41.87 8.38 56.48-16.91 83.11-32 112.09-32c17.38 0 33.94 5.54 47.88 16zM480 152.01V320H320.11l-.13-136-91.95-68.98c-34.11-25.59-45.34-72.43-25.56-106.64C217.09-16.91 243.11-32 272.09-32c17.38 0 33.94 5.54 47.88 16L441.6 75.21c24.04 18.03 38.4 46.74 38.4 76.8z"/><glyph glyph-name="square-root" unicode="" horiz-adv-x="512" d="M160.13-29.29c-9.51 3.62-16.88 11.43-21.15 20.66L58.06 166.7c-2.62 5.67-8.29 9.3-14.53 9.3H8c-4.42 0-8 3.58-8 8v16c0 4.42 3.58 8 8 8h35.53c18.62 0 35.75-10.94 43.59-27.88l81.31-176.2c2.31-5.16 11.12-4.39 12.66 1.09l101.101 375.46c5.59 20.92 24.65 35.53 46.34 35.53H504c4.42 0 8-3.58 8-8v-16c0-4.42-3.58-8-8-8H328.53c-7.22 0-13.59-4.86-15.44-11.83L211.97-3.309c-5.8-21.47-29.03-34.68-51.84-25.98z"/><glyph glyph-name="square-root-alt" unicode="" horiz-adv-x="512" d="M509.16 199.03L454.12 144l55.03-55.03c3.12-3.12 3.12-8.19 0-11.31l-11.31-11.31c-3.12-3.12-8.19-3.12-11.31 0l-55.03 55.03-55.03-55.03c-3.12-3.12-8.19-3.12-11.31 0l-11.31 11.31c-3.12 3.12-3.12 8.19 0 11.31L408.88 144l-55.03 55.03c-3.12 3.12-3.12 8.19 0 11.31l11.31 11.31c3.12 3.12 8.19 3.12 11.31 0l55.03-55.03 55.03 55.03c3.12 3.12 8.19 3.12 11.31 0l11.31-11.31c3.13-3.12 3.13-8.18.01-11.31zM211.97-3.31c-5.8-21.47-29.03-34.68-51.84-25.98-9.51 3.62-16.89 11.42-21.15 20.66L58.06 166.7c-2.61 5.67-8.29 9.3-14.53 9.3H8c-4.42 0-8 3.58-8 8v16c0 4.42 3.58 8 8 8h35.53c18.63 0 35.75-10.94 43.59-27.87l81.31-176.2c2.32-5.16 11.13-4.39 12.66 1.09l101.101 375.45c5.59 20.92 24.65 35.53 46.34 35.53h175.47c4.42 0 8-3.58 8-8v-16c0-4.42-3.58-8-8-8h-175.47c-7.22 0-13.6-4.86-15.44-11.83z"/><glyph glyph-name="star-and-crescent" unicode="" horiz-adv-x="512" d="M340.47-18.36c8.74 0 15.13-6.97 15.13-15.06 0-6.62-4.32-12.24-10.28-14.26C316.28-58.51 286.23-64 256-64 114.84-64 0 50.84 0 192s114.84 256 256 256c30.39 0 60.58-5.54 89.75-16.48 6.92-2.6 10.93-9.84 9.47-17.09-1.42-7.04-7.62-12.07-14.75-12.07-1.48 0-6.86.46-9.18.46-116.25 0-210.82-94.57-210.82-210.82S215.04-18.82 331.29-18.82c2.29 0 7.73.46 9.18.46zM32 192C32 75.45 121.47-20.59 235.34-31.05 149.02 6.22 88.47 92.17 88.47 192s60.55 185.78 146.86 223.05C121.46 404.59 32 308.55 32 192zm471.46 42.14c8.17-1.18 11.43-11.22 5.52-16.99l-55.27-53.87 13.05-76.07c1.11-6.43-4.01-11.66-9.81-11.66-1.53 0-3.11.37-4.64 1.17L384 112.63l-68.33-35.91a9.863 9.863 0 0 0-4.64-1.17c-5.8 0-10.92 5.22-9.81 11.66l13.05 76.07L259 217.15c-5.91 5.77-2.65 15.81 5.52 16.99l76.38 11.1 34.16 69.21c1.83 3.7 5.38 5.55 8.93 5.55s7.1-1.85 8.93-5.55l34.16-69.21zm-72.08-47.94l23.29 22.69-32.18 4.68-16.65 2.42-7.45 15.09L384 260.24l-14.38-29.15-7.45-15.09-16.65-2.42-32.18-4.68 23.28-22.7 12.05-11.74-2.84-16.58-5.5-32.05 28.78 15.13 14.89 7.83 14.89-7.83 28.78-15.13-5.5 32.05-2.84 16.58z"/><glyph glyph-name="star-of-david" unicode="" horiz-adv-x="464" d="M405.68 192l53.22-89.39C473.31 78.4 455.49 48 426.89 48H319.96l-55.95-93.98C256.86-57.99 244.43-64 232-64s-24.86 6.01-32.01 18.02L144.04 48H37.11C8.51 48-9.31 78.4 5.1 102.61L58.32 192 5.1 281.39C-9.31 305.6 8.51 336 37.11 336h106.93l55.95 93.98C207.14 441.99 219.57 448 232 448s24.86-6.01 32.01-18.02L319.96 336h106.92c28.6 0 46.42-30.4 32.01-54.61zm21.21 112h-87.88l48.06-80.72 44.34 74.48c.36.62 1.12 1.89.04 3.78-.93 1.63-2.46 2.46-4.56 2.46zm-58.45-112l-66.67 112H162.23L95.56 192l66.67-112h139.54zM227.49 413.62L181.28 336h101.439l-46.21 77.62c-.94 1.58-2.46 2.38-4.51 2.38s-3.57-.8-4.51-2.38zM32.6 297.76l44.34-74.48L124.99 304H37.11c-2.1 0-3.63-.82-4.56-2.46-1.07-1.9-.32-3.17.05-3.78zM37.11 80h87.88l-48.06 80.72-44.34-74.48c-.36-.61-1.12-1.89-.04-3.78.93-1.63 2.46-2.46 4.56-2.46zm199.4-109.61L282.72 48H181.281l46.21-77.62c.94-1.58 2.46-2.38 4.51-2.38s3.57.81 4.51 2.39zM431.45 82.46c1.07 1.9.31 3.17-.05 3.78l-44.34 74.48L339.01 80h87.88c2.1 0 3.63.83 4.56 2.46z"/><glyph glyph-name="synagogue" unicode="" d="M406.38 297.23c2.31-4.18 2.12-9.29-.43-13.32L388.22 256l17.73-27.91c2.56-4.01 2.75-9.12.44-13.31a13.179 13.179 0 0 0-11.56-6.84h-37.14l-26.51-41.73c-2.44-3.83-6.59-6.111-11.16-6.111s-8.72 2.29-11.16 6.12l-26.5 41.72h-37.155c-4.306 0-9.483 3.064-11.555 6.84-2.31 4.19-2.12 9.3.44 13.33l17.73 27.91-17.73 27.91a13.045 13.045 0 0 0-.44 13.31 13.18 13.18 0 0 0 11.56 6.84h37.14l26.51 41.73c4.87 7.65 17.43 7.64 22.31-.02l26.5-41.72h37.155c4.307 0 9.484-3.064 11.555-6.84zM320 333.53l-18.71-29.45h37.42zm-69.62-45.45l10.89-17.15 10.9 17.15h-21.79zm0-64.16h21.8l-10.9 17.16zM320 178.47l18.71 29.45h-37.42zm28.87 45.45L369.25 256l-20.37 32.08h-57.75L270.75 256l20.37-32.08h57.75zm40.75 0l-10.89 17.15-10.9-17.15h21.79zm-10.9 47l10.9 17.16h-21.8zM313.71 127.7C351.88 131.34 384 101.42 384 64V-56c0-4.42-3.58-8-8-8h-16c-4.42 0-8 3.58-8 8V64c0 19.42-17.39 34.85-37.41 31.56C298.86 92.96 288 78.15 288 62.2V-56c0-4.42-3.58-8-8-8h-16c-4.42 0-8 3.58-8 8V61.25c0 33.43 24.43 63.28 57.71 66.45zm318.28 52.01c5.16-4.87 8.01-11.14 8.01-17.64V-56c0-4.42-3.58-8-8-8h-16c-4.42 0-8 3.58-8 8v214.36l-64 60.45-64-60.45V-56c0-4.42-3.58-8-8-8h-16c-4.42 0-8 3.58-8 8v369.6L320 416 192 313.6V-56c0-4.42-3.58-8-8-8h-16c-4.42 0-8 3.58-8 8v214.36l-64 60.45-64-60.45V-56c0-4.42-3.58-8-8-8H8c-4.42 0-8 3.58-8 8v218.07c0 6.5 2.85 12.77 8 17.63l76 71.78c6.6 6.23 17.4 6.23 24 0l52-49.11V313.6c0 8.49 5.38 19.686 12.01 24.99l128 102.4c5.84 4.67 12.92 7.01 19.99 7.01s14.15-2.34 19.98-7.01l128-102.4a32.005 32.005 0 0 0 12.01-24.99V202.38l52 49.11c6.6 6.23 17.4 6.23 24 0z"/></font>
</defs>
</svg>
