<svg xmlns="http://www.w3.org/2000/svg"><defs><font id="FontAwesome5Pro-Light" horiz-adv-x="512"><font-face font-family="Font Awesome 5 Pro Light" font-weight="300" units-per-em="512" panose-1="2 0 3 3 0 0 0 0 0 0" ascent="448" descent="-64" bbox="-0.0996094 -64.0996 640.1 448.15" underline-thickness="25" underline-position="-51" unicode-range="U+0020-F89D"/><glyph glyph-name="bolt" unicode="" horiz-adv-x="320" d="M296 288c18.5 0 30-20.1 20.7-36l-176-304c-4.4-7.6-12.5-12-20.8-12-15.3 0-26.9 14.3-23.3 29.5L142.7 160H24C9.5 160-1.7 172.8.2 187.2l32 240C33.8 439.1 44 448 56 448h144c15.7 0 27.2-15 23.2-30.2L180.6 288H296zM140.3 11.1L282.1 256H136.401l13.8 42 38.7 118h-125.9l-29.9-223.9h150l-9.3-39.4z"/><glyph glyph-name="sun" unicode="" d="M256 304.3c61.8 0 112-50.3 112-112.1S317.8 80.099 256 80.099s-112 50.3-112 112.101 50.2 112.1 112 112.1zm0-192.2c44.1 0 80 35.9 80 80.1s-35.9 80.1-80 80.1-80-35.9-80-80.1 35.9-80.1 80-80.1zm256 80.1c0-5.3-2.7-10.3-7.1-13.3L422 123.4l19.4-97.9c1-5.2-.6-10.6-4.4-14.4-3.7-3.8-9-5.6-14.4-4.4l-97.8 19.4-55.5-83c-3-4.4-8-7.1-13.3-7.1s-10.3 2.6-13.3 7.1l-55.5 83L89.4 6.7c-5.3-1.1-10.6.6-14.4 4.4-3.8 3.7-5.4 9.2-4.4 14.4L90 123.4 7.1 178.9c-4.4 3-7.1 8-7.1 13.3s2.7 10.3 7.1 13.3L90 261l-19.4 98c-1 5.2.6 10.6 4.4 14.4 3.8 3.8 9.1 5.5 14.4 4.4l97.8-19.5 55.5 83c6 8.9 20.6 8.9 26.6 0l55.5-83 97.8 19.4c5.3 1.1 10.6-.6 14.4-4.4 3.8-3.7 5.4-9.2 4.4-14.4L422 261l82.9-55.5c4.4-3 7.1-8 7.1-13.3zm-116.7-48.1l71.9 48-71.9 48.2c-5.4 3.6-8 10.1-6.8 16.4l16.8 84.9-84.8-16.8c-6.5-1.3-12.8 1.4-16.4 6.8l-48.1 72-48.1-72c-3.6-5.4-9.9-8.1-16.4-6.8l-84.8 16.8 16.8-84.9c1.2-6.3-1.4-12.8-6.8-16.4l-71.9-48.2 71.9-48.1c5.4-3.6 8-10.1 6.8-16.4l-16.8-84.9 84.8 16.8c1 .2 2.1.3 3.1.3 5.3 0 10.3-2.6 13.3-7.1L256-19.2l48.1 72c3.6 5.4 9.8 8.2 16.4 6.8l84.8-16.8-16.8 84.9c-1.2 6.3 1.4 12.8 6.8 16.4z"/><glyph glyph-name="snowflake" unicode="" horiz-adv-x="448" d="M388.1 114.5l56.2-32.7c3.8-2.2 5.1-7.1 2.9-10.9L439.3 57c-2.2-3.8-7-5.1-10.8-2.9l-55.9 32.7 14.1-53.3c1.1-4.3-1.4-8.7-5.6-9.8l-15.3-4.1c-4.2-1.1-8.6 1.4-9.7 5.7l-22.3 84.2-93.8 54.8V54.7L300.9-7c3.1-3.1 3.1-8.2 0-11.3l-11.2-11.3c-3.1-3.1-8.1-3.1-11.2 0l-38.6 39V-56c0-4.4-3.5-8-7.9-8h-15.8c-4.4 0-7.9 3.6-7.9 8V9.4l-38.6-39c-3.1-3.1-8.1-3.1-11.2 0l-11.2 11.3c-3.1 3.1-3.1 8.2 0 11.3l61 61.7v109.7l-93.8-54.801-22.3-84.2c-1.1-4.3-5.5-6.8-9.7-5.7l-15.3 4.1c-4.2 1.1-6.7 5.5-5.6 9.8l14.1 53.3-55.9-32.7C16 52 11.2 53.3 9 57.1L1.1 71C-1.1 74.8.2 79.7 4 81.9l55.9 32.6-52.7 14.3c-4.2 1.1-6.7 5.5-5.6 9.8l4.1 15.5c1.1 4.3 5.5 6.8 9.7 5.7l83.2-22.6 93.8 54.8-93.8 54.8-83.2-22.6c-4.2-1.1-8.6 1.4-9.7 5.7l-4.1 15.5c-1.1 4.3 1.4 8.7 5.6 9.8l52.6 14.4-55.9 32.7c-3.8 2.2-5.1 7.1-2.9 10.9l7.9 13.9c2.2 3.8 7 5.1 10.8 2.9l55.9-32.7-14.1 53.3c-1.1 4.3 1.4 8.7 5.6 9.8l15.3 4.1c4.2 1.1 8.6-1.4 9.7-5.7l22.1-84.4 93.8-54.8v109.7L147.1 391c-3.1 3.1-3.1 8.2 0 11.3l11.2 11.3c3.1 3.1 8.1 3.1 11.2 0l38.6-39V440c0 4.4 3.5 8 7.9 8h15.8c4.4 0 7.9-3.6 7.9-8v-65.4l38.6 39c3.1 3.1 8.1 3.1 11.2 0l11.2-11.3c3.1-3.1 3.1-8.2 0-11.3l-61-61.6V219.7l93.8 54.8 22.3 84.2c1.1 4.3 5.5 6.8 9.7 5.7l15.3-4.1c4.2-1.1 6.7-5.5 5.6-9.8l-14.1-53.3 55.9 32.7c3.8 2.2 8.6.9 10.8-2.9l7.9-13.9c2.2-3.8.9-8.7-2.9-10.9l-55.9-32.7 52.7-14.3c4.2-1.1 6.7-5.5 5.6-9.8l-4.1-15.5c-1.1-4.3-5.5-6.8-9.7-5.7l-83.2 22.6-93.8-54.8 93.8-54.8 83.2 22.6c4.2 1.1 8.6-1.4 9.7-5.7l4.1-15.5c1.1-4.3-1.4-8.7-5.6-9.8z"/><glyph glyph-name="cloud-moon" unicode="" horiz-adv-x="640" d="M351.5 134.4C405 132.9 448 89 448 35.2c0-54.7-44.5-99.2-99.2-99.2H99.2C44.5-64 0-19.5-.1 35.1c0 42 25.7 78.4 64 92.7 1.7 53.4 45.5 96.2 99.2 96.2 24.9 0 48.5-9.5 66.8-26.3 12.2 6.8 25.6 10.3 39.5 10.3 42.5 0 77.6-32.3 82.1-73.6zM348.8-32c37.1 0 67.3 30.3 67.3 67.3s-30.1 67.2-67.2 67.2c-3.8 0-7.4-.6-11-1.2l-21.2-3.6 2.6 21.3c.5 3.6.7 4.9.7 6.4 0 27.9-22.7 50.6-50.6 50.6-11.4 0-22.4-4-31.7-11.5l-12.4-10.1-10.1 12.5c-13 16-31.9 25.2-52 25.2-37.1 0-67.2-30.1-67.2-67.2 0-1.3.2-2.6.4-3.8l2-14.6-14-5.9C53.5 93.7 32 66.8 32 35.2 32-1.9 62.1-32 99.2-32h249.6zm288.8 192.8c4.1-8.5 2.9-18.4-3.1-25.6-36.6-45.2-90.9-71.1-149-71.1-3.2 0-6.3.5-9.4.7-2.8 11.6-6.8 22.8-12.5 33.1 7.1-1.2 14.4-1.9 21.9-1.9 41.5 0 80.7 15.9 110.3 44.2-2.6-.1-5.2-.2-7.8-.2-84.599 0-153.5 69-153.5 153.8 0 48 22.5 93 59.901 121.9-3 .1-5.9.2-8.9.2-88.1 0-159.8-71.8-159.8-160 0-11.7 1.899-22.8 4.5-33.7-10.8 6.8-22.7 11.7-35.4 14.6-.701 6.4-1.1 12.7-1.1 19.2 0 105.9 86.1 192 191.8 192 11.8 0 23.5-1.1 35-3.1 10.1-1.9 17.8-9.6 19.5-19.8 1.7-10.1-3-20-11.9-25.1-38-21.7-61.6-62.3-61.6-106 0-67.2 54.5-121.9 121.5-121.9 7.7 0 15.5.7 23.2 2.2 1.6.3 3.1.4 4.6.4 9.4 0 17.7-5.3 21.8-13.9z"/><glyph glyph-name="cloud-sun" unicode="" horiz-adv-x="640" d="M543.7 143.7C597.4 139.8 640 94.8 640 40c0-57.3-46.7-104-104-104H232c-57.3 0-104 46.7-104 104 0 42.1 25.7 79.6 64 95.6v.4c0 66.2 53.8 120 120 120 37.5 0 72.3-17.7 94.8-47.2 14.4 9.9 31.4 15.2 49.2 15.2 46 0 83.8-35.4 87.7-80.3zM536-32c39.7 0 72 32.2 72 71.9s-32.3 72-72 72c-1.3 0-2.6-.2-3.8-.4l-23.5-2.4 2.5 20c.5 3.8.8 5.3.8 6.9 0 30.9-25.1 56-56 56-15.6 0-30.2-6.4-41-18.1l-15.2-16.5-10.6 19.8c-15.4 28.9-45 46.8-77.2 46.8-48.5 0-88-39.5-88-88 0-2 .3-4 .6-6l2-17.2-13.3-3.6C181.9 100.7 160 72.3 160 40c0-39.7 32.3-72 72-72h304zM92.6 125l40.6 8.1c-10.5-11.1-18.9-23.8-25.1-37.6L75.3 89c-1-.2-2.1-.3-3.1-.3-4.2 0-8.3 1.7-11.3 4.7-3.8 3.8-5.4 9.2-4.4 14.4L71.6 184 7.1 227.2c-4.4 3-7.1 8-7.1 13.3s2.7 10.3 7.1 13.3l64.6 43.1-15.1 76.2c-1 5.2.6 10.6 4.4 14.4 3.7 3.8 9.1 5.5 14.4 4.4l76.1-15.1 43.2 64.5c6 8.9 20.6 8.9 26.6 0l43.1-64.4 76.2 15.1c5.2 1.1 10.6-.6 14.4-4.4 3.8-3.8 5.4-9.2 4.4-14.4l-17.2-86.7c-.1-.6-.4-1-.6-1.5-9.6 1.9-19.5 3-29.6 3-.4 0-.7-.1-1.1-.1-.1 1.6-.3 3.2 0 4.8l12.5 63.2-63.2-12.5c-6.5-1.3-12.8 1.5-16.4 6.8L208 403.7l-35.8-53.5c-3.6-5.3-10-8.1-16.4-6.8l-63.2 12.5 12.5-63.3c1.2-6.3-1.4-12.8-6.8-16.4l-53.5-35.8 53.5-35.8c5.4-3.6 8-10.1 6.8-16.4zM208 298.3c-31.9 0-57.8-26-57.8-57.8 0-18.5 8.8-34.8 22.4-45.4-4.3-10.2-7.6-20.8-9.6-31.9-26.7 15.6-44.8 44.3-44.8 77.3 0 49.5 40.3 89.8 89.8 89.8 33.1 0 61.7-18.2 77.3-44.8-11.1-2-21.7-5.3-31.9-9.6-10.6 13.5-26.9 22.4-45.4 22.4z"/><glyph glyph-name="wind" unicode="" d="M8 224c-4.4 0-8 3.6-8 8v16c0 4.4 3.6 8 8 8h344c40.2 0 71.9 37.3 62.3 79.1-5.4 23.1-24.1 41.9-47.2 47.2-39.2 9-74.4-18.2-78.7-54.8-.5-4.1-3.7-7.4-7.9-7.4h-16.2c-4.5 0-8.4 3.8-8 8.4 4.8 55.6 57.2 97.7 116.3 85.4 36.3-7.6 65.6-36.9 73.2-73.2 13-62.1-34-116.7-93.8-116.7H8zm148-32c52.5 0 98.4-40.5 100-93.2 1.6-54.3-42-98.9-96-98.9-50.1 0-91.3 38.5-95.6 87.6-.4 4.5 3.4 8.4 8 8.4h16c4.2 0 7.4-3.2 7.9-7.4C100 56.8 127.1 32 159.9 32c37.4 0 67.4 32.3 63.7 70.4-3.2 33.2-33.1 57.6-66.5 57.6H8c-4.4 0-8 3.6-8 8v16c0 4.4 3.6 8 8 8h148zm239.3 0c61.3 0 114.8-47.3 116.7-108.6C513.9 20 463-32 400-32c-53 0-97.1 37-108.6 86.5-1.1 4.9 2.9 9.5 7.9 9.5h16.1c3.7 0 6.7-2.5 7.7-6 9.6-33.5 40.4-58 76.9-58 46.7 0 84.3 40.3 79.6 88-4.1 41.6-41.4 72-83.2 72H270.2c-7 12.1-15.9 22.8-26.4 32h151.5z"/><glyph glyph-name="ballot" unicode="" horiz-adv-x="448" d="M144 368c17.7 0 32-14.4 32-32v-32c0-17.6-14.3-32-32-32h-32c-17.7 0-32 14.4-32 32v32c0 17.6 14.3 32 32 32h32zm0-64v32h-32v-32h32zm272 144c17.7 0 32-14.4 32-32V-32c0-17.6-14.3-32-32-32H32C14.3-64 0-49.6 0-32v448c0 17.6 14.3 32 32 32h384zm0-480v448H32V-32h384zm-72 240c4.4 0 8-3.6 8-8v-16c0-4.4-3.6-8-8-8H216c-4.4 0-8 3.6-8 8v16c0 4.4 3.6 8 8 8h128zm-200-96c17.7 0 32-14.4 32-32V48c0-17.6-14.3-32-32-32h-32c-17.7 0-32 14.4-32 32v32c0 17.6 14.3 32 32 32h32zm0-64v32h-32V48h32zm200 32c4.4 0 8-3.6 8-8V56c0-4.4-3.6-8-8-8H216c-4.4 0-8 3.6-8 8v16c0 4.4 3.6 8 8 8h128zm0 256c4.4 0 8-3.6 8-8v-16c0-4.4-3.6-8-8-8H216c-4.4 0-8 3.6-8 8v16c0 4.4 3.6 8 8 8h128zm-200-96c17.7 0 32-14.4 32-32v-32c0-17.6-14.3-32-32-32h-32c-17.7 0-32 14.4-32 32v32c0 17.6 14.3 32 32 32h32zm0-64v32h-32v-32h32z"/><glyph glyph-name="ballot-check" unicode="" horiz-adv-x="448" d="M112 16c-17.7 0-32 14.4-32 32v32c0 17.6 14.3 32 32 32h32c17.7 0 32-14.4 32-32V48c0-17.6-14.3-32-32-32h-32zm0 64V48h32v32h-32zm0 192c-17.7 0-32 14.4-32 32v32c0 17.6 14.3 32 32 32h32c17.7 0 32-14.4 32-32v-32c0-17.6-14.3-32-32-32h-32zm0 64v-32h32v32h-32zm304 112c17.7 0 32-14.4 32-32V-32c0-17.6-14.3-32-32-32H32C14.3-64 0-49.6 0-32v448c0 17.6 14.3 32 32 32h384zm0-480v448H32V-32h384zM216 304c-4.4 0-8 3.6-8 8v16c0 4.4 3.6 8 8 8h128c4.4 0 8-3.6 8-8v-16c0-4.4-3.6-8-8-8H216zm0-128c-4.4 0-8 3.6-8 8v16c0 4.4 3.6 8 8 8h128c4.4 0 8-3.6 8-8v-16c0-4.4-3.6-8-8-8H216zm0-128c-4.4 0-8 3.6-8 8v16c0 4.4 3.6 8 8 8h128c4.4 0 8-3.6 8-8V56c0-4.4-3.6-8-8-8H216zm-97.4 113.6L81.7 199a5.37 5.37 0 0 0 0 7.6l12.7 12.6c2.1 2.1 5.5 2.1 7.6 0l20.6-20.9 47.6 47.2c2.1 2.1 5.5 2.1 7.6 0l12.6-12.7c2.1-2.1 2.1-5.5 0-7.6l-64.2-63.6c-2.1-2.1-5.5-2.1-7.6 0z"/><glyph glyph-name="booth-curtain" unicode="" d="M0 416c0 17.7 14.3 32 32 32h448c17.7 0 32-14.3 32-32V-56c0-4.4-3.6-8-8-8h-16c-4.4 0-8 3.6-8 8V8.9C470.5 3.4 459.7 0 448 0c-19.2 0-36.3 8.7-48 22.1C388.3 8.7 371.2 0 352 0s-36.3 8.7-48 22.1C292.3 8.7 275.2 0 256 0s-36.3 8.7-48 22.1C196.3 8.7 179.2 0 160 0c-35.3 0-64 28.7-64 64v352H32V-56c0-4.4-3.6-8-8-8H8c-4.4 0-8 3.6-8 8v472zm416 0V64c0-17.7 14.3-32 32-32s32 14.3 32 32v352h-64zm-96 0V64c0-17.7 14.3-32 32-32s32 14.3 32 32v352h-64zm-96 0V64c0-17.7 14.3-32 32-32s32 14.3 32 32v352h-64zm-96 0V64c0-17.7 14.3-32 32-32s32 14.3 32 32v352h-64z"/><glyph glyph-name="box-ballot" unicode="" horiz-adv-x="576" d="M571.4 171.4c3-7.5 4.6-15.6 4.6-23.7V-31.8c.1-17.8-14.3-32.2-32-32.2H32.3C14.6-64 .2-49.5.3-31.8L0 147.599c0 8.2 1.5 16.4 4.6 24l51.6 128.1C61 311.9 72.8 320 86 320h42.1v96c0 17.7 14.3 32 32 32h256c17.7 0 32-14.3 32-32v-96.1h42.2c13.2 0 25-8 29.8-20.3zM160.2 416V224h256v192h-256zM86 288L34.5 160h507l-51 127.8-.1.2h-42.2v-64H472c4.4 0 8-3.6 8-8v-16c0-4.4-3.6-8-8-8H104c-4.4 0-8 3.6-8 8v16c0 4.4 3.6 8 8 8h24.2v64H86zM544-32v160H32.2l.1-159.8z"/><glyph glyph-name="calendar-star" unicode="" horiz-adv-x="448" d="M149.8 79l-33.4 32.8c-7.7 7.5-10.4 18.5-7.1 28.7s12 17.5 22.6 19l46.4 6.8 20.7 42.1c4.7 9.6 14.3 15.6 25 15.6s20.3-6 25.2-15.7l20.7-42.1 46.4-6.8c10.6-1.5 19.3-8.8 22.6-19 3.3-10.2.6-21.2-7.1-28.7L298.3 79l7.9-46.3c1.8-10.6-2.5-21.1-11.2-27.4s-20-7.1-29.5-2.1L224 25 182.5 3.2c-4.1-2.2-8.6-3.3-13-3.3-5.7 0-11.5 1.9-16.4 5.4-8.7 6.3-13 16.8-11.2 27.4zm49.6 58.1l-55-8.1 39.8-38.9-9.4-54.8L224 61.2l49.2-25.8-9.4 54.8 39.8 38.9-55 8L224 187zM400 384c26.5 0 48-21.5 48-48V-16c0-26.5-21.5-48-48-48H48C21.5-64 0-42.5 0-16v352c0 26.5 21.5 48 48 48h48v56c0 4.4 3.6 8 8 8h16c4.4 0 8-3.6 8-8v-56h192v56c0 4.4 3.6 8 8 8h16c4.4 0 8-3.6 8-8v-56h48zm16-400v272H32V-16c0-8.8 7.2-16 16-16h352c8.8 0 16 7.2 16 16zm0 304v48c0 8.8-7.2 16-16 16H48c-8.8 0-16-7.2-16-16v-48h384z"/><glyph glyph-name="clipboard-list-check" unicode="" horiz-adv-x="384" d="M336 384c26.5 0 48-21.5 48-48V-16c0-26.5-21.5-48-48-48H48C21.5-64 0-42.5 0-16v352c0 26.5 21.5 48 48 48h88.6c-.4 2.6-.6 5.3-.6 8 0 30.9 25.1 56 56 56s56-25.1 56-56c0-2.7-.2-5.4-.6-8H336zm-144 32c-13.3 0-24-10.7-24-24s10.7-24 24-24 24 10.7 24 24-10.7 24-24 24zM352-16v352c0 8.8-7.2 16-16 16h-48v-20c0-6.6-5.4-12-12-12H108c-6.6 0-12 5.4-12 12v20H48c-8.8 0-16-7.2-16-16V-16c0-8.8 7.2-16 16-16h288c8.8 0 16 7.2 16 16zM112 120c13.3 0 24-10.7 24-24s-10.7-24-24-24-24 10.7-24 24 10.7 24 24 24zm168-8c4.4 0 8-3.6 8-8V88c0-4.4-3.6-8-8-8H168c-4.4 0-8 3.6-8 8v16c0 4.4 3.6 8 8 8h112zm-153.8 65.6c-2.1-2.1-5.5-2.1-7.4 0L81.7 215a5.37 5.37 0 0 0 0 7.6l12.7 12.6c2.1 2.1 5.5 2.1 7.6 0l20.6-20.9 47.6 47.2c2.1 2.1 5.5 2.1 7.6 0l12.6-12.7c2.1-2.1 2.1-5.5 0-7.6zM280 208c4.4 0 8-3.6 8-8v-16c0-4.4-3.6-8-8-8H170.1l32.3 32H280z"/><glyph glyph-name="cloud-drizzle" unicode="" d="M48 88c8.8 0 16-7.2 16-16V32c0-8.8-7.2-16-16-16s-16 7.2-16 16v40c0 8.8 7.2 16 16 16zm96-80c8.8 0 16-7.2 16-16v-40c0-8.8-7.2-16-16-16s-16 7.2-16 16v40c0 8.8 7.2 16 16 16zm96 80c8.8 0 16-7.2 16-16V32c0-8.8-7.2-16-16-16s-16 7.2-16 16v40c0 8.8 7.2 16 16 16zm96-80c8.8 0 16-7.2 16-16v-40c0-8.8-7.2-16-16-16s-16 7.2-16 16v40c0 8.8 7.2 16 16 16zm96 80c8.8 0 16-7.2 16-16V32c0-8.8-7.2-16-16-16s-16 7.2-16 16v40c0 8.8 7.2 16 16 16zm-16.3 247.7c53.7-3.9 96.3-48.9 96.3-103.7 0-57.3-46.7-104-104-104H104C46.7 128 0 174.7 0 232c0 42.1 25.7 79.6 64 95.6v.4c0 66.2 53.8 120 120 120 37.5 0 72.3-17.7 94.8-47.2 14.4 9.9 31.4 15.2 49.2 15.2 45.9 0 83.8-35.4 87.7-80.3zM408 160c39.7 0 72 32.2 72 71.9s-32.3 72-72 72c-1.3 0-2.6-.2-3.8-.4l-23.5-2.4 2.5 20c.5 3.8.8 5.3.8 6.9 0 30.9-25.1 56-56 56-15.6 0-30.1-6.4-41-18.1l-15.2-16.5-10.6 19.8c-15.4 28.9-45 46.8-77.2 46.8-48.5 0-88-39.5-88-88 0-2 .3-4 .6-6l2-17.2-13.3-3.6C53.9 292.7 32 264.3 32 232c0-39.7 32.3-72 72-72h304z"/><glyph glyph-name="cloud-hail" unicode="" d="M376 80c13.3 0 24-10.7 24-24s-10.7-24-24-24-24 10.7-24 24 10.7 24 24 24zM184-16c13.3 0 24-10.7 24-24s-10.7-24-24-24-24 10.7-24 24 10.7 24 24 24zm128 0c13.3 0 24-10.7 24-24s-10.7-24-24-24-24 10.7-24 24 10.7 24 24 24zm-64 96c13.3 0 24-10.7 24-24s-10.7-24-24-24-24 10.7-24 24 10.7 24 24 24zM56-16c13.3 0 24-10.7 24-24S69.3-64 56-64 32-53.3 32-40s10.7 24 24 24zm64 96c13.3 0 24-10.7 24-24s-10.7-24-24-24-24 10.7-24 24 10.7 24 24 24zm295.7 255.7c53.7-3.9 96.3-48.9 96.3-103.7 0-57.3-46.7-104-104-104H104C46.7 128 0 174.7 0 232c0 42.1 25.7 79.6 64 95.6v.4c0 66.2 53.8 120 120 120 37.5 0 72.3-17.7 94.8-47.2 14.4 9.9 31.4 15.2 49.2 15.2 45.9 0 83.8-35.4 87.7-80.3zM408 160c39.7 0 72 32.2 72 71.9s-32.3 72-72 72c-1.3 0-2.6-.2-3.8-.4l-23.5-2.4 2.5 20c.5 3.8.8 5.3.8 6.9 0 30.9-25.1 56-56 56-15.6 0-30.1-6.4-41-18.1l-15.2-16.5-10.6 19.8c-15.4 28.9-45 46.8-77.2 46.8-48.5 0-88-39.5-88-88 0-2 .3-4 .6-6l2-17.2-13.3-3.6C53.9 292.7 32 264.3 32 232c0-39.7 32.3-72 72-72h304z"/><glyph glyph-name="cloud-hail-mixed" unicode="" d="M415.7 335.7c53.7-3.9 96.3-48.9 96.3-103.7 0-57.3-46.7-104-104-104H104C46.7 128 0 174.7 0 232c0 42.1 25.7 79.6 64 95.6v.4c0 66.2 53.8 120 120 120 37.5 0 72.3-17.7 94.8-47.2 14.4 9.9 31.4 15.2 49.2 15.2 45.9 0 83.8-35.4 87.7-80.3zM408 160c39.7 0 72 32.2 72 71.9s-32.3 72-72 72c-1.3 0-2.6-.2-3.8-.4l-23.5-2.4 2.5 20c.5 3.8.8 5.3.8 6.9 0 30.9-25.1 56-56 56-15.6 0-30.1-6.4-41-18.1l-15.2-16.5-10.6 19.8c-15.4 28.9-45 46.8-77.2 46.8-48.5 0-88-39.5-88-88 0-2 .3-4 .6-6l2-17.2-13.3-3.6C53.9 292.7 32 264.3 32 232c0-39.7 32.3-72 72-72h304zM183.9 77.9c7.7-4.4 10.4-14.2 6-21.8l-64-112c-3-5.2-8.4-8.1-13.9-8.1-2.7 0-5.4.7-7.9 2.1-7.7 4.3-10.4 14.1-6 21.8l64 112c4.4 7.8 14.2 10.4 21.8 6zM216-16c13.3 0 24-10.7 24-24s-10.7-24-24-24-24 10.7-24 24 10.7 24 24 24zM87.2 78.3c7.9-3.9 11-13.5 7.2-21.6l-16-32c-2.8-5.6-8.5-8.8-14.3-8.8-2.4 0-4.9.6-7.2 1.7-8 4-11.1 13.6-7.2 21.5l16 32c4 8 13.6 11.1 21.5 7.2zM24-16c13.3 0 24-10.7 24-24S37.3-64 24-64 0-53.3 0-40s10.7 24 24 24zm447.2 94.3c7.9-3.9 11-13.5 7.2-21.6l-16-32c-2.8-5.6-8.5-8.8-14.3-8.8-2.4 0-4.9.6-7.2 1.7-8 4-11.1 13.6-7.2 21.5l16 32c4 8 13.6 11.1 21.5 7.2zm-192 0c7.9-3.9 11-13.5 7.2-21.6l-16-32c-2.8-5.6-8.5-8.8-14.3-8.8-2.4 0-4.9.6-7.2 1.7-8 4-11.1 13.6-7.2 21.5l16 32c4 8 13.6 11.1 21.5 7.2zM408-16c13.3 0 24-10.7 24-24s-10.7-24-24-24-24 10.7-24 24 10.7 24 24 24zm-32.1 93.9c7.7-4.4 10.4-14.2 6-21.8l-64-112c-3-5.2-8.4-8.1-13.9-8.1-2.7 0-5.4.7-7.9 2.1-7.7 4.3-10.4 14.1-6 21.8l64 112c4.4 7.8 14.2 10.4 21.8 6z"/><glyph glyph-name="cloud-meatball" unicode="" d="M48 96c26.5 0 48-21.5 48-48S74.5 0 48 0 0 21.5 0 48s21.5 48 48 48zm0-64c8.8 0 16 7.2 16 16s-7.2 16-16 16-16-7.2-16-16 7.2-16 16-16zm416 64c26.5 0 48-21.5 48-48S490.5 0 464 0s-48 21.5-48 48 21.5 48 48 48zm0-64c8.8 0 16 7.2 16 16s-7.2 16-16 16-16-7.2-16-16 7.2-16 16-16zM346.5 154.5c12.2-12.2 18-29.2 16.3-46.3C376.1 97.3 384 81.2 384 64s-7.9-33.3-21.2-44.2c1.7-17.1-4.1-34.1-16.3-46.3-12.3-12.3-30.3-19-46.5-16.6C289.1-56.2 273.2-64 256-64s-33.1 7.8-44 20.9c-16-2.4-34.2 4.3-46.5 16.6-12.2 12.2-18 29.2-16.3 46.3C135.9 30.7 128 46.8 128 64s7.9 33.3 21.2 44.2c-1.7 17.1 4.1 34.1 16.3 46.3 12.3 12.2 29.4 17.9 46.3 16.3 21.7 26.6 66.6 26.6 88.4 0 17 1.6 34.1-4.1 46.3-16.3zm-8.8-113.2C346.5 45.9 352 54.6 352 64s-5.5 18.1-14.3 22.7l-11.9 6.2 4.1 12.8c3 9.5.8 19.5-5.9 26.2-6.7 6.7-16.8 8.9-26.2 5.9l-12.8-4.1-6.2 11.9c-9.2 17.7-36.2 17.7-45.4 0l-6.2-11.9-12.8 4.1c-9.5 3-19.5.8-26.2-5.9-6.7-6.7-8.9-16.7-5.9-26.2l4.1-12.8-11.9-6.2c-8.8-4.6-14.3-13.3-14.3-22.7s5.5-18.1 14.3-22.7l11.9-6.2-4.1-12.8c-3-9.5-.8-19.5 5.9-26.2 4.9-4.9 11.5-7.6 18.4-7.6 2 0 4.6.7 7.8 1.7l12.8 4.1 6.2-12c9.2-17.7 36.2-17.7 45.4 0l6.2 12 12.8-4.1c3.3-1 5.8-1.7 7.8-1.7 7 0 13.5 2.7 18.4 7.6 6.7 6.7 8.9 16.7 5.9 26.2l-4.1 12.8zM512 232c0-57.3-46.7-104-104-104.1h-14.3c-1.8 11.4-5.7 22.2-11.6 32H408c39.7 0 72 32.3 72 72s-32.3 72-72 72c-1.3 0-2.6-.2-3.8-.4l-23.5-2.4 2.5 20c.5 3.8.8 5.3.8 6.9 0 30.9-25.1 56-56 56-15.6 0-30.1-6.4-41-18.1l-15.2-16.5-10.6 19.8c-15.4 28.9-45 46.8-77.2 46.8-48.5 0-88-39.5-88-88 0-2 .3-4 .6-6l2-17.2-13.3-3.6C53.9 292.7 32 264.3 32 232c0-39.7 32.3-72 72-72h25.9c-5.9-9.8-9.8-20.6-11.6-32H104C46.7 128 0 174.7 0 232c0 42.1 25.7 79.6 64 95.6v.4c0 66.2 53.8 120 120 120 37.5 0 72.3-17.7 94.8-47.2 14.4 9.9 31.4 15.2 49.2 15.2 45.9 0 83.8-35.4 87.7-80.3 53.7-3.9 96.3-48.9 96.3-103.7z"/><glyph glyph-name="cloud-moon-rain" unicode="" horiz-adv-x="576" d="M573.9 210.5c3.6-7.7 2.5-16.7-2.8-23.2-30.7-37.6-76.3-59.2-125-59.2-.7 0-1.4.1-2.1.1 2.6 10.2 4.1 20.9 4.1 31.9v.2c29.5.4 57.5 10.6 79.8 28.8-70.6 1.6-127.601 59.4-127.601 130.1 0 37.2 16.2 72.4 43.5 96.8-52.6-.9-97.4-33.3-116.5-78.9-9 5.1-18.8 8.9-29 11.4 24.1 58.1 80.6 99.5 147.7 99.5 9.8 0 19.7-.9 29.4-2.8 9.3-1.7 16.2-8.7 17.8-18 1.5-9.2-2.7-18.2-10.9-22.8-30.9-17.4-50.1-50.1-50.1-85.3 0-54.2 44.3-98.2 98.7-98.2 6.3 0 12.6.6 18.9 1.8l2.8.4h1.4c8.4 0 16.3-4.9 19.9-12.6zm-222.6 40.2c36.9-12.7 62.7-47.1 64.4-86.7 0-1.4.3-2.7.3-4 0-52.9-43.1-96-96-96H96c-52.9 0-96 43.1-96 96 0 41.1 26.2 77.1 64 90.4C65.3 306.7 111.5 352 168 352c30.6 0 59.1-13.3 78.8-36.3 8.2 2.9 16.6 4.3 25.2 4.3 40.5 0 74-30.2 79.3-69.3zM320 96c35.3 0 64 28.7 64.1 64 0 30.4-21.5 56.7-51.3 62.7l-12.8 2.6.2 16.2c-.1 32.2-38.1 58.2-70.8 40.4l-13-7.1-8.1 12.4c-13.4 20.6-35.9 32.8-60.2 32.8-39.7 0-72-32.3-72-72 0-1.5.2-2.9.4-4.4l2-18-14.5-2.8C53.8 217 32 190.6 32 160c0-35.3 28.7-64 64-64h224zM170.2 29.9c7.7-4.4 10.4-14.1 6-21.8l-36.6-64c-3-5.2-8.4-8.1-13.9-8.1-2.7 0-5.4.7-7.9 2.1-7.7 4.4-10.4 14.1-6 21.8l36.6 64c4.4 7.8 14.2 10.3 21.8 6zm-96 0c7.7-4.4 10.4-14.1 6-21.8l-36.6-64c-3-5.2-8.4-8.1-13.9-8.1-2.7 0-5.4.7-7.9 2.1-7.7 4.4-10.4 14.1-6 21.8l36.6 64c4.4 7.8 14.2 10.3 21.8 6zm192 0c7.7-4.4 10.4-14.1 6-21.8l-36.6-64c-3-5.2-8.4-8.1-13.9-8.1-2.7 0-5.4.7-7.9 2.1-7.7 4.4-10.4 14.1-6 21.8l36.6 64c4.4 7.8 14.2 10.3 21.8 6zm96 0c7.7-4.4 10.4-14.1 6-21.8l-36.6-64c-3-5.2-8.4-8.1-13.9-8.1-2.7 0-5.4.7-7.9 2.1-7.7 4.4-10.4 14.1-6 21.8l36.6 64c4.4 7.8 14.2 10.3 21.8 6z"/><glyph glyph-name="cloud-rain" unicode="" d="M118.5 78.8c4.7-16.3 11.8-26.8 18.8-37.1 8.6-12.6 17.4-25.6 17.4-45.2C154.7-36.9 128.4-64 96-64S37.3-36.9 37.3-3.5c0 19.5 8.8 32.6 17.4 45.3 7 10.2 14.1 20.8 18.8 37.1 3 10.3 11.1 16.4 22.7 17.1 10.5-.1 19.5-7 22.3-17.2zM96-32c14.7 0 26.7 12.8 26.6 28.5 0 9.3-4.1 15.8-11.9 27.3-4.6 6.8-10 14.7-14.8 24.6-4.8-9.9-10.1-17.8-14.7-24.6-7.8-11.5-11.9-18-11.9-27.3C69.3-19.2 81.3-32 96-32zM278.5 78.8c4.7-16.3 11.8-26.8 18.8-37.1 8.6-12.6 17.4-25.6 17.4-45.2 0-33.4-26.3-60.5-58.7-60.5s-58.7 27.1-58.7 60.5c0 19.5 8.8 32.6 17.4 45.3 7 10.2 14.1 20.8 18.8 37.1 3 10.3 12 17.1 22.5 17.1h.2c10.5-.1 19.5-7 22.3-17.2zM256-32c14.7 0 26.7 12.8 26.6 28.5 0 9.3-4.1 15.8-11.9 27.3-4.6 6.8-10 14.7-14.8 24.6-4.8-9.9-10.1-17.8-14.7-24.6-7.8-11.5-11.9-18-11.9-27.3 0-15.7 12-28.5 26.7-28.5zM438.5 78.8c4.7-16.3 11.8-26.8 18.8-37.1 8.6-12.6 17.4-25.6 17.4-45.2 0-33.4-26.3-60.5-58.7-60.5s-58.7 27.1-58.7 60.5c0 19.5 8.8 32.6 17.4 45.3 7 10.2 14.1 20.8 18.8 37.1 3 10.3 12.3 16.4 22.7 17.1 10.5-.1 19.5-7 22.3-17.2zM416-32c14.7 0 26.7 12.8 26.6 28.5 0 9.3-4.1 15.8-11.9 27.3-4.6 6.8-10 14.7-14.8 24.6-4.8-9.9-10.1-17.8-14.7-24.6-7.8-11.5-11.9-18-11.9-27.3 0-15.7 12-28.5 26.7-28.5zm-.3 367.7c53.7-3.9 96.3-48.9 96.3-103.7 0-57.3-46.7-104-104-104H104C46.7 128 0 174.7 0 232c0 42.1 25.7 79.6 64 95.6v.4c0 66.2 53.8 120 120 120 37.5 0 72.3-17.7 94.8-47.2 14.4 9.9 31.4 15.2 49.2 15.2 45.9 0 83.8-35.4 87.7-80.3zM408 160c39.7 0 72 32.2 72 71.9s-32.3 72-72 72c-1.3 0-2.6-.2-3.8-.4l-23.5-2.4 2.5 20c.5 3.8.8 5.3.8 6.9 0 30.9-25.1 56-56 56-15.6 0-30.1-6.4-41-18.1l-15.2-16.5-10.6 19.8c-15.4 28.9-45 46.8-77.2 46.8-48.5 0-88-39.5-88-88 0-2 .3-4 .6-6l2-17.2-13.3-3.6C53.9 292.7 32 264.3 32 232c0-39.7 32.3-72 72-72h304z"/><glyph glyph-name="cloud-rainbow" unicode="" horiz-adv-x="576" d="M568.2 416c-130-2.8-245.4-75.2-305.3-190.5 5.7-5.1 11.2-10.4 15.9-16.6 14.4 9.9 31.4 15.2 49.2 15.2 7.5 0 14.6-1.2 21.5-3 51.5 69.8 131.1 112.3 218.2 114.8 4.5.2 8.3-3.6 8.3-8.1v-16c0-4.3-3.5-7.8-7.8-7.9-74.9-2.3-143.601-37.9-189.2-96.6 20.3-14.6 34.3-37.3 36.6-63.6 4.3-.3 8.3-1.3 12.4-2.1 30.8 48.5 83 79.4 139.8 82.1 4.5.2 8.3-3.6 8.3-8.1v-16c0-4.3-3.4-7.7-7.7-7.9-43.7-2.4-84.2-25.4-109.5-61.5C490.4 112.4 512 78.8 512 40c0-57.3-46.7-104-104-104H104C46.7-64 0-17.3 0 40c0 42.1 25.7 79.6 64 95.6v.4c0 66.2 53.8 120 120 120 18.4 0 36.1-4.4 52.1-12.2C301.9 367.7 427.2 445.1 567.8 448c4.5.1 8.2-3.6 8.2-8.1v-16c0-4.4-3.5-7.8-7.8-7.9zM287 173.9l-15.2-16.6-10.6 19.8c-15.4 28.9-45 46.8-77.2 46.8-48.5 0-88-39.5-88-88 0-2 .3-4 .6-6l2-17.2-13.3-3.6C53.9 100.6 32 72.2 32 39.9c0-39.7 32.3-72 72-72h304c39.7 0 72 32.3 72 72s-32.3 72-72 72c-1.3 0-2.6-.2-3.8-.4l-23.5-2.4 2.5 20c.5 3.8.8 5.3.8 6.9 0 30.9-25.1 56-56 56-15.6 0-30.2-6.4-41-18.1z"/><glyph glyph-name="cloud-showers" unicode="" d="M415.7 335.7c53.7-3.9 96.3-48.9 96.3-103.7 0-57.3-46.7-104-104-104H104C46.7 128 0 174.7 0 232c0 42.1 25.7 79.6 64 95.6v.4c0 66.2 53.8 120 120 120 37.5 0 72.3-17.7 94.8-47.2 14.4 9.9 31.4 15.2 49.2 15.2 45.9 0 83.8-35.4 87.7-80.3zM408 160c39.7 0 72 32.2 72 71.9s-32.3 72-72 72c-1.3 0-2.6-.2-3.8-.4l-23.5-2.4 2.5 20c.5 3.8.8 5.3.8 6.9 0 30.9-25.1 56-56 56-15.6 0-30.1-6.4-41-18.1l-15.2-16.5-10.6 19.8c-15.4 28.9-45 46.8-77.2 46.8-48.5 0-88-39.5-88-88 0-2 .3-4 .6-6l2-17.2-13.3-3.6C53.9 292.7 32 264.3 32 232c0-39.7 32.3-72 72-72h304zM48 80c8.8 0 16-7.2 16-16v-80c0-8.8-7.2-16-16-16s-16 7.2-16 16v80c0 8.8 7.2 16 16 16zm96-32c8.8 0 16-7.2 16-16v-80c0-8.8-7.2-16-16-16s-16 7.2-16 16v80c0 8.8 7.2 16 16 16zm96 32c8.8 0 16-7.2 16-16v-80c0-8.8-7.2-16-16-16s-16 7.2-16 16v80c0 8.8 7.2 16 16 16zm96-32c8.8 0 16-7.2 16-16v-80c0-8.8-7.2-16-16-16s-16 7.2-16 16v80c0 8.8 7.2 16 16 16zm96 32c8.8 0 16-7.2 16-16v-80c0-8.8-7.2-16-16-16s-16 7.2-16 16v80c0 8.8 7.2 16 16 16z"/><glyph glyph-name="cloud-showers-heavy" unicode="" d="M183.9 77.9c7.7-4.4 10.4-14.2 6-21.8l-64-112c-3-5.2-8.4-8.1-13.9-8.1-2.7 0-5.4.7-7.9 2.1-7.7 4.3-10.4 14.1-6 21.8l64 112c4.4 7.8 14.2 10.4 21.8 6zm96 0c7.7-4.4 10.4-14.2 6-21.8l-64-112c-3-5.2-8.4-8.1-13.9-8.1-2.7 0-5.4.7-7.9 2.1-7.7 4.3-10.4 14.1-6 21.8l64 112c4.4 7.8 14.2 10.4 21.8 6zm-192 0c7.7-4.4 10.4-14.2 6-21.8l-64-112c-3-5.2-8.4-8.1-13.9-8.1-2.7 0-5.4.7-7.9 2.1-7.7 4.3-10.4 14.1-6 21.8l64 112c4.4 7.8 14.2 10.4 21.8 6zm384 0c7.7-4.4 10.4-14.2 6-21.8l-64-112c-3-5.2-8.4-8.1-13.9-8.1-2.7 0-5.4.7-7.9 2.1-7.7 4.3-10.4 14.1-6 21.8l64 112c4.4 7.8 14.2 10.4 21.8 6zm-96 0c7.7-4.4 10.4-14.2 6-21.8l-64-112c-3-5.2-8.4-8.1-13.9-8.1-2.7 0-5.4.7-7.9 2.1-7.7 4.3-10.4 14.1-6 21.8l64 112c4.4 7.8 14.2 10.4 21.8 6zm39.8 257.8c53.7-3.9 96.3-48.9 96.3-103.7 0-57.3-46.7-104-104-104H104C46.7 128 0 174.7 0 232c0 42.1 25.7 79.6 64 95.6v.4c0 66.2 53.9 120 120 120 37.5 0 72.3-17.7 94.8-47.2 14.4 9.9 31.4 15.2 49.2 15.2 45.9 0 83.8-35.4 87.7-80.3zM408 160c39.7 0 72 32.2 72 71.9s-32.3 72-72 72c-1.3 0-2.6-.2-3.8-.4l-23.5-2.4 2.5 20c.5 3.8.8 5.3.8 6.9 0 30.9-25.1 56-56 56-15.6 0-30.1-6.4-41-18.1l-15.2-16.5-10.6 19.8c-15.4 28.9-45 46.8-77.2 46.8-48.5 0-88-39.5-88-88 0-2 .3-4 .6-6l2-17.2-13.3-3.6C53.9 292.7 32 264.3 32 232c0-39.7 32.3-72 72-72h304z"/><glyph glyph-name="cloud-sleet" unicode="" d="M87.2 94.3c7.9-3.9 11-13.5 7.2-21.6l-64-128c-2.8-5.6-8.5-8.8-14.3-8.8-2.4 0-4.9.6-7.2 1.7-8 4-11.1 13.6-7.2 21.5l64 128c4 7.9 13.6 11.1 21.5 7.2zm256 0c7.9-3.9 11-13.5 7.2-21.6l-64-128c-2.8-5.6-8.5-8.8-14.3-8.8-2.4 0-4.9.6-7.2 1.7-8 4-11.1 13.6-7.2 21.5l64 128c4 7.9 13.6 11.1 21.5 7.2zm151.7-35.4c2.2-3.8.9-8.7-2.9-10.9l-27.9-16L492 16c3.8-2.2 5.1-7.1 2.9-10.9l-8-13.9c-2.2-3.8-7.1-5.1-10.9-2.9L448 4.4V-24c0-4.4-3.6-8-8-8h-16c-4.4 0-8 3.6-8 8V4.4l-28-16.1c-3.8-2.2-8.7-.9-10.9 2.9l-8 13.9c-2.2 3.8-.9 8.7 2.9 10.9l27.9 16L372 48c-3.8 2.2-5.1 7.1-2.9 10.9l8 13.9c2.2 3.8 7.1 5.1 10.9 2.9l28-16.1V88c0 4.4 3.6 8 8 8h16c4.4 0 8-3.6 8-8V59.6l28 16.1c3.8 2.2 8.7.9 10.9-2.9zm-256 0c2.2-3.8.9-8.7-2.9-10.9l-27.9-16L236 16c3.8-2.2 5.1-7.1 2.9-10.9l-8-13.9c-2.2-3.8-7.1-5.1-10.9-2.9L192 4.4V-24c0-4.4-3.6-8-8-8h-16c-4.4 0-8 3.6-8 8V4.4l-28-16.1c-3.8-2.2-8.7-.9-10.9 2.9l-8 13.9c-2.2 3.8-.9 8.7 2.9 10.9l27.9 16L116 48c-3.8 2.2-5.1 7.1-2.9 10.9l8 13.9c2.2 3.8 7.1 5.1 10.9 2.9l28-16.1V88c0 4.4 3.6 8 8 8h16c4.4 0 8-3.6 8-8V59.6l28 16.1c3.8 2.2 8.7.9 10.9-2.9zM512 232c0-57.3-46.7-104-104-104H104C46.7 128 0 174.7 0 232c0 42.1 25.7 79.6 64 95.6v.4c0 66.2 53.8 120 120 120 37.5 0 72.3-17.7 94.8-47.2 14.4 9.9 31.4 15.2 49.2 15.2 45.9 0 83.8-35.4 87.7-80.3 53.7-3.9 96.3-48.9 96.3-103.7zm-480 0c0-39.7 32.3-72 72-72.1h304c39.7 0 72 32.3 72 72s-32.3 72-72 72c-1.3 0-2.6-.2-3.8-.4l-23.5-2.4 2.5 20c.5 3.8.8 5.3.8 6.9 0 30.9-25.1 56-56 56-15.6 0-30.1-6.4-41-18.1l-15.2-16.5-10.6 19.8c-15.4 28.9-45 46.8-77.2 46.8-48.5 0-88-39.5-88-88 0-2 .3-4 .6-6l2-17.2-13.3-3.6C53.9 292.7 32 264.3 32 232z"/><glyph glyph-name="cloud-snow" unicode="" d="M126.9 58.9c2.2-3.8.9-8.7-2.9-10.9L96.1 32 124 16c3.8-2.2 5.1-7.1 2.9-10.9l-8-13.9c-2.2-3.8-7.1-5.1-10.9-2.9L80 4.4V-24c0-4.4-3.6-8-8-8H56c-4.4 0-8 3.6-8 8V4.4L20-11.7c-3.8-2.2-8.7-.9-10.9 2.9l-8 13.9C-1.1 8.9.2 13.8 4 16l27.9 16L4 48c-3.8 2.2-5.1 7.1-2.9 10.9l8 13.9c2.2 3.8 7.1 5.1 10.9 2.9l28-16.1V88c0 4.4 3.6 8 8 8h16c4.4 0 8-3.6 8-8V59.6l28 16.1c3.8 2.2 8.7.9 10.9-2.9zm384 0c2.2-3.8.9-8.7-2.9-10.9l-27.9-16L508 16c3.8-2.2 5.1-7.1 2.9-10.9l-8-13.9c-2.2-3.8-7.1-5.1-10.9-2.9L464 4.4V-24c0-4.4-3.6-8-8-8h-16c-4.4 0-8 3.6-8 8V4.4l-28-16.1c-3.8-2.2-8.7-.9-10.9 2.9l-8 13.9c-2.2 3.8-.9 8.7 2.9 10.9l27.9 16L388 48c-3.8 2.2-5.1 7.1-2.9 10.9l8 13.9c2.2 3.8 7.1 5.1 10.9 2.9l28-16.1V88c0 4.4 3.6 8 8 8h16c4.4 0 8-3.6 8-8V59.6l28 16.1c3.8 2.2 8.7.9 10.9-2.9zm-192-32c2.2-3.8.9-8.7-2.9-10.9L288.1 0 316-16c3.8-2.2 5.1-7.1 2.9-10.9l-8-13.9c-2.2-3.8-7.1-5.1-10.9-2.9l-28 16.1V-56c0-4.4-3.6-8-8-8h-16c-4.4 0-8 3.6-8 8v28.4l-28-16.1c-3.8-2.2-8.7-.9-10.9 2.9l-8 13.9c-2.2 3.8-.9 8.7 2.9 10.9l27.9 16L196 16c-3.8 2.2-5.1 7.1-2.9 10.9l8 13.9c2.2 3.8 7.1 5.1 10.9 2.9l28-16.1V56c0 4.4 3.6 8 8 8h16c4.4 0 8-3.6 8-8V27.6l28 16.1c3.8 2.2 8.7.9 10.9-2.9zM104 128C46.7 128 0 174.7 0 232c0 42.1 25.7 79.6 64 95.6v.4c0 66.2 53.8 120 120 120 37.5 0 72.3-17.7 94.8-47.2 14.4 9.9 31.4 15.2 49.2 15.2 45.9 0 83.7-35.4 87.7-80.3 53.7-3.9 96.3-48.9 96.3-103.7 0-57.3-46.7-104-104-104H104zM85.3 301.2C53.9 292.7 32 264.3 32 231.9c0-39.7 32.3-72 72-72h304c39.7 0 72 32.3 72 72s-32.3 72-72 72c-1.3 0-2.6-.2-3.8-.4l-23.5-2.4 2.5 20c.5 3.8.8 5.3.8 6.9 0 30.9-25.1 56-56 56-15.6 0-30.1-6.4-41-18.1l-15.2-16.5-10.6 19.8c-15.4 28.9-45 46.8-77.2 46.8-48.5 0-88-39.5-88-88 0-2 .3-4 .6-6l2-17.2z"/><glyph glyph-name="cloud-sun-rain" unicode="" horiz-adv-x="640" d="M298.2 29.9c7.7-4.4 10.4-14.1 6-21.8l-36.6-64c-3-5.2-8.4-8.1-13.9-8.1-2.7 0-5.4.7-7.9 2.1-7.7 4.4-10.4 14.1-6 21.8l36.6 64c4.4 7.8 14.2 10.3 21.8 6zM192 308c-28.5 0-51.7-23.3-51.6-51.9 0-28.5 23.2-51.7 51.7-51.7 2.9 0 5.7.4 8.5.9-4-10.4-6.6-21.4-7.7-32.8-.3 0-.6-.1-.9-.1-46.2 0-83.7 37.6-83.7 83.8S145.8 340 192 340c31.5 0 58.7-17.7 73-43.4-2.9-7.8-5.3-15.9-6.8-24.3-5.3-3-10.3-6.3-15.1-9.9C240 288 218.4 308 192 308zm-31.7-151.7l44.9-67.4c4.9-7.3 2.9-17.3-4.4-22.2-2.7-1.8-5.8-2.7-8.9-2.7-5.1 0-10.2 2.5-13.3 7.1l-39.1 58.5-68.9-13.7c-5.4-1.1-10.6.6-14.4 4.4s-5.4 9.2-4.4 14.5l13.7 69-58.4 39.1c-4.4 3-7.1 8-7.1 13.3 0 5.4 2.7 10.3 7.1 13.3l58.4 39.1-13.7 69c-1 5.3.6 10.7 4.4 14.5 3.7 3.8 9.1 5.5 14.4 4.4l69-13.7 39.1 58.5c6 8.9 20.7 8.9 26.6 0l39.2-58.5 68.9 13.6c8.5 1.9 17.1-3.9 18.8-12.6s-3.9-17.1-12.6-18.8l-79.4-15.7c-6.4-1.3-12.8 1.5-16.4 6.8L192 403.6l-31.7-47.5c-3.6-5.4-9.9-8.1-16.4-6.8l-56 11.1 11.1-56c1.2-6.3-1.4-12.8-6.8-16.4l-47.4-31.8 47.4-31.8c5.4-3.6 8-10 6.8-16.4l-11.1-56 56 11.1c6.5 1.3 12.8-1.5 16.4-6.8zM490.2 29.9c7.7-4.4 10.4-14.1 6-21.8l-36.6-64c-3-5.2-8.4-8.1-13.9-8.1-2.7 0-5.4.7-7.9 2.1-7.7 4.4-10.4 14.1-6 21.8l36.6 64c4.4 7.8 14.2 10.3 21.8 6zm85.1 220.8c38.1-13.1 64.7-49.4 64.7-90.7 0-52.9-43.1-96-96-96H320c-52.9 0-96 43.1-96 96 0 41.1 26.2 77.1 64 90.4 1.3 56.3 47.5 101.6 104 101.6 30.6 0 59.1-13.4 78.8-36.3 8.2 2.9 16.6 4.3 25.2 4.3 40.5 0 74-30.2 79.3-69.3zM544 96c35.3 0 64 28.7 64.1 64 0 30.4-21.5 56.7-51.3 62.7l-12.8 2.6.2 16.2c-.1 32.2-38.1 58.2-70.8 40.4l-13-7.1-8.1 12.4c-13.4 20.6-35.9 32.8-60.2 32.8-39.7 0-72-32.3-72-72 0-1.5.2-2.9.4-4.4l2-18-14.5-2.8c-30.2-5.8-52-32.2-52-62.8 0-35.3 28.7-64 64-64h224zm42.2-66.1c7.7-4.4 10.4-14.1 6-21.8l-36.6-64c-3-5.2-8.4-8.1-13.9-8.1-2.7 0-5.4.7-7.9 2.1-7.7 4.4-10.4 14.1-6 21.8l36.6 64c4.4 7.8 14.2 10.3 21.8 6zm-192 0c7.7-4.4 10.4-14.1 6-21.8l-36.6-64c-3-5.2-8.4-8.1-13.9-8.1-2.7 0-5.4.7-7.9 2.1-7.7 4.4-10.4 14.1-6 21.8l36.6 64c4.4 7.8 14.2 10.3 21.8 6z"/><glyph glyph-name="clouds" unicode="" horiz-adv-x="640" d="M543.7 143.7C597.4 139.8 640 94.8 640 40c0-57.3-46.7-104-104-104H232c-57.3 0-104 46.7-104 104 0 42.1 25.7 79.6 64 95.6v.4c0 8.2.8 16.2 2.4 24H94.2C42.3 160 0 202.2 0 254.2c0 42 27.5 78.2 66.9 90C78.2 404.1 130.2 448 192 448c47.4 0 91-27 113-68.5 10.1 3 20.5 4.5 31 4.5 61.8 0 112-50.2 112-112 0-18.3-4.8-35.4-12.7-50.7 6.7 1.6 13.6 2.7 20.7 2.7 46 0 83.8-35.4 87.7-80.3zM94.2 192h112.3c20.2 37.9 59.7 64 105.5 64 32.3 0 62.1-13.7 84.3-36.2 12.3 14.1 19.7 32.3 19.7 52.2 0 44.1-35.9 80-80 80-11.2 0-22.3-2.5-32.9-7.3l-15.5-7-6 16C267.5 391 231.5 416 192 416c-49.2 0-90-37.2-95-86.6l-1.2-12.1-12-2c-30-5.1-51.8-30.8-51.8-61.1 0-34.3 27.9-62.2 62.2-62.2zM536-32c39.7 0 72 32.2 72 71.9s-32.3 72-72 72c-1.3 0-2.6-.2-3.8-.4l-23.5-2.4 2.5 20c.5 3.8.8 5.3.8 6.9 0 30.9-25.1 56-56 56-15.6 0-30.2-6.4-41-18.1l-15.2-16.5-10.6 19.8c-15.4 28.9-45 46.8-77.2 46.8-48.5 0-88-39.5-88-88 0-2 .3-4 .6-6l2-17.2-13.3-3.6C181.9 100.7 160 72.3 160 40c0-39.7 32.3-72 72-72h304z"/><glyph glyph-name="clouds-moon" unicode="" horiz-adv-x="640" d="M462.6 126.9C508.6 119.8 544 80 544 32c0-52.9-43.1-96-96-96H208c-52.9 0-96 43.1-96 96 0 24.5 9.4 46.9 24.8 64H96c-52.9 0-96 43.1-96 96s43.1 96 96 96h5.5c13.3 37.8 49.5 64 90.5 64s77.2-26.2 90.5-64h5.5c52.9 0 96-43.1 96-96 39 0 71.6-28.1 78.6-65.1zM96 128h80c0 52.9 43.1 96 96 96 30.9 0 59.8-15.2 77.6-39.9.5.2 1 .3 1.4.5.3 2.4 1 4.8 1 7.4 0 35.3-28.7 64-64 64h-30.7l-2.6 12.8c-6 29.7-32.4 51.2-62.7 51.2s-56.7-21.5-62.7-51.2l-2.6-12.8H96c-35.3 0-64-28.7-64-64s28.7-64 64-64zM448-32c35.3 0 63.9 28.6 63.9 63.9s-28.7 64-64 64h-16v16c0 26.5-21.5 48-48 48-10.7 0-21-3.7-29.8-10.7l-15.8-12.7-8.6 18.4c-10.5 22.5-33.1 37-57.7 37-35.3 0-64-28.7-64-64 0-4.3.6-8.9 1.7-13.9l3.6-16.3-16.5-2.9C166.2 89.4 144 63 144 32c0-35.3 28.7-64 64-64h240zm189.8 230.6c3.8-8.1 2.7-17.5-3.1-24.5-23.7-29-55.9-48.9-91.6-57.4-9.8 11.1-21.4 20.5-34.5 27.7 31.6 1.2 61.6 12.7 85.1 33.2h-1c-74.8 0-135.7 60.6-135.7 135.101 0 40.1 18 77.9 48.4 103.3h-1.9c-71.6 0-129.8-54.8-135.8-124.3-9.2 7.4-19.3 13.5-30.2 18.1 14.2 78.4 83 138.2 166 138.2 10.3 0 20.7-.9 30.8-2.9 9.7-1.8 17.1-9.2 18.7-18.9 1.7-9.7-2.8-19.1-11.4-23.9-32.5-18.3-52.6-52.6-52.6-89.6 0-56.9 46.5-103.101 103.7-103.101 6.6 0 13.2.7 19.8 1.9l2.9.4h1.5c8.9 0 17.1-5.2 20.9-13.3z"/><glyph glyph-name="clouds-sun" unicode="" horiz-adv-x="640" d="M640 189.7c0-51.3-39.8-93-88.8-93.5 15.4-17 24.8-39.4 24.8-64.1 0-53-43.1-96.1-96-96.1H240c-52.9 0-96 43.1-96 96.1 0 41.3 26.2 77.3 64.2 90.5-.1 1.9-.2 3.8-.2 5.6 0 49.6 38 90.1 86.3 95.1 9.5 25.8 29.4 46.1 54.7 54.9 15.3 44.1 55.1 74.2 101.5 74.2 44.1 0 82.8-28.5 99.4-69.2h.5c49.4 0 89.6-41.9 89.6-93.5zM480-32c35.3 0 64 28.7 64 64.1 0 35.4-28.7 64.1-64 64.1h-16v16c0 26.5-21.5 48-48 48-10.7 0-21-3.7-29.8-10.7l-15.8-12.7-8.6 18.4c-10.6 22.5-33.2 37-57.8 37-35.3 0-64-28.8-64-64.1 0-4.3.6-8.9 1.7-13.9l3.6-16.3-16.5-2.9C198.2 89.6 176 63.1 176 32.1 176-3.3 204.7-32 240-32h240zm70.4 160.2c31.8 0 57.6 27.5 57.5 61.5 0 34-25.8 61.5-57.6 61.5-8.7 0-16.6-2.6-24-6.3-3 42.2-35.6 75.5-75.9 75.5-38.3 0-69.7-30.1-75.3-69.4-20-1-37.1-12.8-46.7-30.1 21.2-5.7 40.2-18.5 53.2-36.5 10.7 5.2 22.4 7.9 34.4 7.9 38.6 0 70.8-27.6 78.3-64.1h56.1zm-384.9 7.7c-13.6-9.7-25.1-22-33.9-36L75.3 88.8c-5.2-1-10.6.7-14.4 4.4-3.8 3.7-5.4 9.1-4.4 14.4l15.1 76.2L7.1 227c-4.4 3-7.1 8-7.1 13.3s2.7 10.3 7.1 13.3l64.5 43.2-15.1 76.3c-1 5.2.6 10.6 4.4 14.4 3.8 3.7 9.1 5.5 14.4 4.4l76.2-15.2 43.2 64.6c6 8.9 20.6 8.9 26.6 0l43.1-64.6 76.2 15.1c5.4 1.1 10.6-.6 14.4-4.4 3.8-3.8 5.4-9.2 4.4-14.4l-5.8-29.5c-11.8-11.8-22-25.5-29.3-41.2-4.6-2.3-8.8-5-13-7.8l12.1 61.2-63.2-12.5c-6.5-1.3-12.8 1.5-16.4 6.8L208 403.6l-35.8-53.5c-3.6-5.3-9.9-8.1-16.4-6.8l-63.2 12.5 12.5-63.2c1.2-6.4-1.4-12.9-6.8-16.5l-53.5-35.8 53.5-35.8c5.4-3.7 8-10.2 6.8-16.5l-12.5-63.2 63.2 12.5c1 .2 2.1.3 3.1.3 2.3 0 4.5-.7 6.6-1.7zM208 298.2c-31.9 0-57.8-26-57.9-57.9 0-25.6 16.8-47.1 39.8-54.7-4.7-9.5-8.3-19.5-10.6-30.1-35.4 12.1-61.1 45.3-61.1 84.8 0 49.6 40.3 89.9 89.8 89.9 36.7 0 68.3-22.2 82.2-53.9-6.8-7.4-13-15.5-18-24.5-2.5-.6-4.9-1.6-7.3-2.4-4.4 27.6-28.1 48.8-56.9 48.8z"/><glyph glyph-name="democrat" unicode="" horiz-adv-x="640" d="M283.7 221.2l18.2-2.7c3.3-.5 4.6-4.5 2.2-6.8l-13.2-12.9 3.1-18.2c.6-3.3-2.9-5.7-5.8-4.2l-16.3 8.6-16.3-8.6c-2.9-1.5-6.4.9-5.8 4.2l3.1 18.2-13.2 12.9c-2.4 2.3-1.1 6.3 2.2 6.8l18.2 2.7 8.2 16.5c1.5 3 5.7 3 7.2 0zm96 0l18.2-2.7c3.3-.5 4.6-4.5 2.2-6.8l-13.2-12.9 3.1-18.2c.6-3.3-2.9-5.7-5.8-4.2l-16.3 8.6-16.3-8.6c-2.9-1.5-6.4.9-5.8 4.2l3.1 18.2-13.2 12.9c-2.4 2.3-1.1 6.3 2.2 6.8l18.2 2.7 8.2 16.5c1.5 3 5.7 3 7.2 0zm259 .6c2.4-3.7 1.4-8.7-2.3-11.1l-13.3-8.9c-3.7-2.5-8.7-1.5-11.1 2.2l-15.3 22.8c-8.7 13.1-20.2 23.5-33.2 31.3 7.7-13.3 12.4-28.5 12.4-44.9V-17.3c0-25.8-21-46.7-46.7-46.7h-49.3c-25.8 0-46.7 21-46.7 46.7V32H319.9v-49.3c0-25.8-21-46.7-46.7-46.7h-50.6c-25.8 0-46.7 21-46.7 46.7v138.7l-27.2 63.5-14.6-12.2c-9.3-8.2-21.3-12.7-34.1-12.7H65.6c-18.7 0-35.6 9.7-44.2 25.5L5.5 214.6c-8.8 16.1-6.9 35.7 4.8 50l75.2 91.9c-10.8 23.4-9.3 51.5 5.5 73.9 7.3 11 19.6 17.6 32.8 17.6 10.6 0 20.5-4.1 28-11.6l15.8-15.8 14.9 14.9c7.8 7.7 18.1 12 29.1 12 13.8-.1 26.6-6.9 34.2-18.4 18.7-28.3 18.5-64.7 1.2-92.7l24.8-32.4h213.4c31.099 0 94.399 6.3 138.3-59.4zM544-17.3V112H208V-17.3c0-8.1 6.6-14.7 14.7-14.7h50.6c8.1 0 14.7 6.6 14.7 14.7V64h177.3v-81.3c0-8.1 6.6-14.7 14.7-14.7h49.3c8.1 0 14.7 6.6 14.7 14.7zm0 161.3h.1v69.2c0 32.5-26.3 58.8-58.8 58.8H256l-50.6 66.1c2.4 1.6 4.7 3.4 6.8 5.5 18.4 18.4 20.7 46.9 6.9 67.8-1.7 2.6-4.6 4-7.5 4-2.3 0-4.6-.9-6.4-2.7l-37.5-37.5-38.5 38.5c-1.5 1.5-3.4 2.2-5.3 2.2-2.4 0-4.8-1.1-6.2-3.3-11.3-17.1-9.5-40.3 5.6-55.4 2.5-2.4 5.5-3.8 8.3-5.5-5.5-.3-10.6-2.5-13.7-6.3L35 244.2c-3.5-4.3-4.1-9.7-1.5-14.4l15.9-29.1c2.9-5.3 9.3-8.7 16.2-8.7h34.5c4.9 0 9.7 1.8 13.1 4.9l48.1 40.1 39.8-93H544zm-68.3 77.2l18.2-2.7c3.3-.5 4.6-4.5 2.2-6.8l-13.2-12.9 3.1-18.2c.6-3.3-2.9-5.7-5.8-4.2l-16.3 8.6-16.3-8.6c-2.9-1.5-6.4.9-5.8 4.2l3.1 18.2-13.2 12.9c-2.4 2.3-1.1 6.3 2.2 6.8l18.2 2.7 8.2 16.5c1.5 3 5.7 3 7.2 0z"/><glyph glyph-name="dewpoint" unicode="" horiz-adv-x="448" d="M176 448c12.6 0 25.2-7.1 29.2-20.7C252.2 278.8 352 207.8 352 103c0-92.3-78.7-167-176-167S0 10.7 0 103c0 104.2 100 176.4 146.8 324.3 4.5 13.9 16.8 20.7 29.2 20.7zm144-345c0 47.7-26.1 89.2-59.1 141.8-29.2 46.5-62.2 99.1-84.9 168.8-22.6-69.3-55.6-122-84.8-168.6C58.1 192.2 32 150.5 32 103 32 28.5 96.6-32 176-32s144 60.6 144 135zm64 345c35.3 0 64-28.7 64-64s-28.7-64-64-64-64 28.7-64 64 28.7 64 64 64zm0-96c17.7 0 32 14.3 32 32s-14.3 32-32 32-32-14.3-32-32 14.3-32 32-32z"/><glyph glyph-name="eclipse" unicode="" horiz-adv-x="640" d="M256-19.4l34.9 51.8c7.6-7.5 15.9-14.3 24.6-20.7l-46.4-68.6c-2.9-4.4-7.9-7-13.2-7-5.3 0-10.2 2.6-13.2 7l-55.8 82.4L89.2 6.6c-5.1-1-10.6.7-14.3 4.4-3.7 3.7-5.4 9.1-4.4 14.3L89.4 123 7 178.8c-4.4 2.9-7 7.9-7 13.2s2.6 10.2 7 13.2L89.4 261l-18.8 97.7c-1 5.2.7 10.6 4.4 14.3s9.1 5.4 14.3 4.4l97.7-18.8 55.8 82.4c2.9 4.4 7.9 7 13.2 7s10.2-2.6 13.2-7l46.5-68.8c-8.7-6.3-17-13.2-24.6-20.7L256 403.4l-48.3-71.5c-3.6-5.3-10.1-7.9-16.3-6.8l-84.8 16.4 16.4-84.8c1.2-6.3-1.5-12.7-6.8-16.3L44.6 192l71.6-48.4c5.4-3.6 8-10 6.8-16.3l-16.4-84.8 84.8 16.4c1 .2 2 .3 3 .3 5.2 0 10.2-2.6 13.2-7zm-17.8 289.2c-15.9-3.7-29.3-11.9-38.7-21.2-20.7-20.7-35.5-60.4-9.6-104.3 4.4-7.5 10.9-14 18.4-18.4 10.3-6.1 20.4-9.8 30-11.8 4.4-11.9 9.7-23.2 16-34-20.8.4-42.2 6.3-62.3 18.2-12.2 7.3-22.5 17.5-29.7 29.7-29 49.2-23.3 105.4 14.5 143.2 21.4 21.4 48.8 32.1 77.3 32.5-6.2-10.8-11.5-22.1-15.9-33.9zM448 384c106 0 192-86 192-192S554 0 448 0 256 86 256 192s86 192 192 192zm0-352c88.2 0 160 71.8 160 160s-71.8 160-160 160-160-71.8-160-160S359.8 32 448 32z"/><glyph glyph-name="eclipse-alt" unicode="" d="M512 192c0-5.3-2.6-10.3-7-13.2L422.6 123l18.7-97.7c1-5.2-.7-10.6-4.4-14.3-3.7-3.7-9.1-5.4-14.3-4.4l-97.7 18.9-55.8-82.4c-2.9-4.4-7.9-7-13.2-7-5.3 0-10.2 2.6-13.2 7l-55.8 82.4L89.2 6.6c-5.2-1-10.6.7-14.3 4.4-3.7 3.7-5.4 9.1-4.4 14.3L89.4 123 7 178.8c-4.4 2.9-7 7.9-7 13.2s2.6 10.2 7 13.2L89.4 261l-18.8 97.7c-1 5.2.7 10.6 4.4 14.3s9.1 5.4 14.3 4.4l97.7-18.8 55.8 82.4c2.9 4.4 7.9 7 13.2 7s10.2-2.6 13.2-7l55.8-82.4 97.7 18.8c5.2.9 10.6-.7 14.3-4.4s5.4-9.1 4.4-14.3L422.5 261l82.5-55.8c4.4-2.9 7-7.9 7-13.2zm-116.1-48.4l71.6 48.3-71.6 48.4c-5.4 3.6-8 10-6.8 16.3l16.4 84.8-84.8-16.4c-6.2-1.1-12.7 1.5-16.3 6.8L256 403.4l-48.3-71.5c-3.6-5.3-10.1-7.9-16.3-6.8l-84.8 16.4 16.4-84.8c1.2-6.3-1.5-12.7-6.8-16.3L44.6 192l71.6-48.4c5.4-3.6 8-10 6.8-16.3l-16.4-84.8 84.8 16.4c1 .2 2 .3 3 .3 5.2 0 10.2-2.6 13.2-7L256-19.4l48.4 71.5c3.6 5.3 10 8 16.3 6.8l84.8-16.4-16.4 84.8c-1.2 6.3 1.5 12.7 6.8 16.3zM327 154.9c7.8 0 15-4.6 18.4-11.7 3.4-7.2 2.4-15.5-2.6-21.7-21.3-26.4-53-41.5-86.9-41.5C194.2 80 144 130.2 144 192s50.2 112 111.9 111.9c6.8 0 13.7-.7 20.4-1.9 8.6-1.5 15.1-8.1 16.5-16.701 1.4-8.6-2.5-16.9-10.1-21.2-18.4-10.5-29.9-30.3-29.9-51.5 0-32.6 26.5-59.2 59-59.2 3.8 0 7.6.4 11.3 1.1 1 .2 2.9.4 3.9.4zM255.9 112c14.3 0 28.1 3.8 40.2 10.7-42.7 7.5-75.3 45-75.3 89.9.005 18.109 9.369 44.137 20.9 58.1C204.4 264 176 231.3 176 192c0-44.1 35.8-80 79.9-80z"/><glyph glyph-name="fire-smoke" unicode="" horiz-adv-x="576" d="M464 160c61.8 0 112-50.2 112-112S525.8-64 464-64H112C50.2-64 0-13.8 0 48s50.2 112 112 112c25.5 0 50-8.9 69.8-24.8C205.2 170.3 244.9 192 288 192s82.8-21.7 106.2-56.8C414 151.1 438.5 160 464 160zm0-192c44.1 0 79.9 35.9 79.9 80s-35.9 80-80 80c-23.4 0-45.8-10.6-61.2-29.2l-16.5-19.9-10.4 23.7C360.4 137.4 326 160 288 160s-72.4-22.6-87.9-57.4l-10.4-23.7-16.5 19.9C157.8 117.3 135.5 128 112 128c-44.1 0-80-35.9-80-80s35.9-80 80-80h352zm-63.1 209.2c-7.3 7.3-15.3 13.7-23.7 19.5 2.3 15.9.8 32.7-5.6 48.7L334 227.3l-20.9-10.1-16.1 16.7c-11.3 11.8-38.5 40.2-59.5 62.3-27.2-35.7-39.6-58.3-39.6-80 0-7 .7-13.3 1.8-19.4-8.8-5.8-17.1-12.2-24.6-19.6-1.2.6-2.5 1-3.7 1.6-3.3 11.6-5.6 23.9-5.6 37.4 0 38.1 23.2 71.7 69.5 129.1 6.6-7.9 84.7-89.3 84.7-89.3l65.5 31.5c4-6.7 7.6-13.4 10.8-19.7 14.1-27.7 17-59.5 9.7-88.4-1.7-.8-3.4-1.4-5.1-2.2zM112 192c-4.8 0-9.4-1-14.1-1.4-1.1 8.2-1.9 16.6-1.9 25.1 0 59.1 59.8 157.1 144 232.3 32.8-29.3 56.6-65 80-96 14.2 16.8 35.5 37.8 53.4 53.9 62.1-55.5 106.7-146.2 106.7-190.1 0-8.5-.8-16.9-1.9-25.1-4.7.4-9.3 1.4-14.1 1.4-6.3 0-12.5-.5-18.6-1.3 1.4 8.2 2.6 16.4 2.6 25 0 28-29.3 94.8-75.3 145.6-10.9-10.7-21-21.4-28.3-30l-25.9-30.5-24.1 31.9c-4.4 5.7-8.7 11.6-13.1 17.6-13.2 17.9-26.7 36.2-42 53.1C169.2 333.6 128 255.6 128 215.7c0-8.6 1.3-16.8 2.6-25-6.2.8-12.3 1.3-18.6 1.3z"/><glyph glyph-name="flag-alt" unicode="" d="M472.5 448c20.9 0 39.5-13 39.6-33.4V88.2c0-13.3-8.8-25.8-22.8-31.2-48.6-18.5-88.4-25-123.7-25-81.3 0-137.9 34.4-219.1 34.4-32.9 0-70.3-6.2-114.5-22V-56c0-4.4-3.6-8-8-8H8c-4.4 0-8 3.6-8 8v488c0 8.8 7.2 16 16 16s16-7.2 16-16v-7.599c49.2 16.7 87.8 23.2 119.4 23.2 76.3 0 114.699-34.5 180.8-34.5 31.3 0 68.6 7.6 119.1 30.3 6.9 3.1 14.2 4.6 21.2 4.6zm-107-384c55.6 0 113.6 22 114.4 24.5v320.1c0 6.1-6.3 9.8-15.7 5.6-50.3-22.6-92.3-33.1-132.101-33.1-72.4 0-111.3 34.5-180.8 34.5-34.1 0-73.4-8.1-119.4-24.8V78.6C72 91.901 109.7 98.401 146.4 98.401c86.1 0 143.5-34.4 219.1-34.4z"/><glyph glyph-name="flag-usa" unicode="" d="M472.5 448c20.9 0 39.5-13 39.6-33.4V88.2c0-13.3-8.8-25.8-22.8-31.2-48.6-18.5-88.4-25-123.7-25-81.3 0-137.9 34.4-219.1 34.4-32.9 0-70.3-6.2-114.5-22V-56c0-4.4-3.6-8-8-8H8c-4.4 0-8 3.6-8 8v488c0 8.8 7.2 16 16 16s16-7.2 16-16v-7.599c49.2 16.7 87.8 23.2 119.4 23.2 76.3 0 114.699-34.5 180.8-34.5 31.3 0 68.6 7.6 119.1 30.3 6.9 3.1 14.2 4.6 21.2 4.6zM256 393.7v-53.6c70.8-12.2 125.2-25.6 224 16.1v52.4c0 6.1-6.3 9.8-15.7 5.6-94.4-42.3-150-38-208.3-20.5zm0-86v-51.3c61.2-14.4 120.5-29.4 224 4V322c-49.4-19.3-90-26.3-125.2-26.3-34.6 0-64.3 5.9-98.8 12zM32 390.8V253.1c83.4 25.2 140.9 20.8 192 10.4v140c-22.1 6.6-44.9 12.1-72.6 12.1-34.1 0-73.4-8.1-119.4-24.8zm0-171.1v-54.6c103.2 31.1 166.7 16.9 227.7 2.5 61.4-14.5 119.899-27.7 220.399 4.7v54.5c-107.5-32.4-170.199-16-227.699-2.4-61.3 14.5-119.801 27.7-220.4-4.7zM365.5 64c55.6 0 113.6 22 114.4 24.5v50.3c-107.2-32.3-168.9-16.2-227.7-2.4-61.3 14.5-119.7 27.7-220.3-4.7V78.6C72 91.9 109.7 98.4 146.4 98.4c86.1 0 143.5-34.4 219.1-34.4zM96 384c8.8 0 16-7.2 16-16s-7.2-16-16-16-16 7.2-16 16 7.2 16 16 16zm72-32c-8.8 0-16 7.2-16 16s7.2 16 16 16 16-7.2 16-16-7.2-16-16-16zm-72-24c8.8 0 16-7.2 16-16s-7.2-16-16-16-16 7.2-16 16 7.2 16 16 16zm72-32c-8.8 0-16 7.2-16 16s7.2 16 16 16 16-7.2 16-16-7.2-16-16-16z"/><glyph glyph-name="fog" unicode="" horiz-adv-x="640" d="M168 128c-57.3 0-104 46.7-104 104 0 42.1 25.7 79.6 64 95.6v.4c0 66.2 53.8 120 120 120 37.5 0 72.3-17.7 94.8-47.2 14.4 9.9 31.4 15.2 49.2 15.2 45.9 0 83.8-35.4 87.7-80.3 53.7-3.9 96.3-48.9 96.3-103.7 0-57.3-46.7-104-104-104H168zm-18.7 173.2c-31.4-8.5-53.3-36.9-53.3-69.3 0-39.7 32.3-72 72-72h304c39.7 0 72 32.3 72 72s-32.3 72-72 72c-1.3 0-2.6-.2-3.8-.4l-23.5-2.4 2.5 20c.5 3.8.8 5.3.8 6.9 0 30.9-25.1 56-56 56-15.6 0-30.1-6.4-41-18.1l-15.2-16.5-10.6 19.8c-15.4 28.9-45 46.8-77.2 46.8-48.5 0-88-39.5-88-88 0-2 .3-4 .6-6l2-17.2zM216-32c4.4 0 8-3.6 8-8v-16c0-4.4-3.6-8-8-8H72c-4.4 0-8 3.6-8 8v16c0 4.4 3.6 8 8 8h144zm416 0c4.4 0 8-3.6 8-8v-16c0-4.4-3.6-8-8-8H296c-4.4 0-8 3.6-8 8v16c0 4.4 3.6 8 8 8h336zm-56 72c0-4.4-3.6-8-8-8H8c-4.4 0-8 3.6-8 8v16c0 4.4 3.6 8 8 8h560c4.4 0 8-3.6 8-8V40z"/><glyph glyph-name="house-flood" unicode="" horiz-adv-x="576" d="M252 255h72c15.4 0 28-12.6 28-28v-72c0-15.4-12.6-28-28-28h-72c-15.4 0-28 12.6-28 28v72c0 15.4 12.6 28 28 28zm68-96v64h-64v-64h64zM568.3-1c4.3-.2 7.7-3.6 7.7-7.9v-16c0-4.5-3.8-8.3-8.3-8.1-32 1.5-63 11.4-87.6 27.9-52.8-35.8-138.3-36.1-192 0-52.8-35.8-138.2-36.1-192 0C71.6-21.6 40.6-31.5 8.3-33 3.8-33.2 0-29.4 0-24.9v16C0-4.6 3.4-1.2 7.7-1c29.8 1.5 58 11.6 78.2 28.2 5.9 4.8 14.3 4.9 20.2.1 44.8-36.3 128.1-36 171.8-.1 5.9 4.9 14.3 4.9 20.2.1 44.8-36.4 128.101-36 171.801-.1 5.9 4.9 14.3 4.9 20.2.1C510.6 10.6 538.8.5 568.3-1zM45.9 195.6l-12.6 15.6c-2.1 2.5-1.7 6.3.9 8.4l233.5 188.301c11.7 9.5 28.5 9.5 40.2 0L447.7 295.1v50.1c0 3.3 2.7 6 6 6h20c3.3 0 6-2.7 6-6v-75.9l61.8-49.7c2.5-2.1 3-5.9.9-8.5l-12.6-15.6c-2.1-2.6-5.9-3-8.5-.9l-41.6 33.5V62.8c-11-.1-21.7-3.9-30.2-10.9-.6-.4-1.3-.8-1.9-1.2V254l-156 125.9c-2.2 1.8-5.3 1.8-7.5 0L128 254V51c-.6.4-1.3.7-1.8 1.1-8.6 6.9-19.3 10.7-30.2 10.7v165.4l-41.6-33.5c-2.6-2.1-6.4-1.7-8.5.9z"/><glyph glyph-name="humidity" unicode="" horiz-adv-x="384" d="M160 156c0-15.5-12.5-28-28-28s-28 12.5-28 28 12.5 28 28 28 28-12.5 28-28zm92-60c15.5 0 28-12.5 28-28s-12.5-28-28-28-28 12.5-28 28 12.5 28 28 28zm-28.1 329.9C275.1 267.4 384 225.799 384 114.099c0-98.4-85.9-178.1-192-178.1S0 15.699 0 114.099C0 225.299 109.1 268.2 160.2 425.9 165 440.8 178.5 448 192 448c13.8 0 27.5-7.5 31.9-22.1zM192-32c88.2 0 160 65.5 160 146.1 0 47.9-24.9 80.5-59.4 125.7-32.6 42.7-73.1 95.7-99.1 176.101h-.1c-.2 0-.7.1-1.4.1-1 0-1.7-.2-1.8-.3-25.5-79.7-66-132.9-98.6-175.7C57 194.5 32 161.7 32 114.1 32 33.5 103.8-32 192-32zm61 212.2c3.4-2.7 4-7.8 1.2-11.2L154.7 35c-2.7-3.4-7.7-4-11.2-1.2l-12.5 10c-3.4 2.7-4 7.7-1.2 11.2l99.5 134c2.7 3.4 7.7 4 11.2 1.2z"/><glyph glyph-name="hurricane" unicode="" horiz-adv-x="384" d="M176 352c114.9 0 208-93.1 208-208 0-106.4-80-195.6-183.1-207.9-.7-.1-1.3-.1-2-.1-10.8 0-18.9 10.6-15.4 21.2L208 32C93.1 32 0 125.1 0 240c0 106.4 80 195.6 183.1 207.9.7.1 1.3.1 2 .1 10.8 0 18.9-10.6 15.4-21.2zm46.3-379.2C297.8-6.7 352 62.9 352 144c0 97-79 176-176 176h-44.1l13.7 42 16.1 49.3C86.2 390.8 32 321.2 32 240.1c0-97 79-176 176-176h44.1l-13.7-42zM192 264c39.8 0 72-32.2 72-72s-32.2-72-72-72-72 32.2-72 72 32.2 72 72 72zm0-112c22.1 0 40 17.9 40 40s-17.9 40-40 40-40-17.9-40-40 17.9-40 40-40z"/><glyph glyph-name="landmark-alt" unicode="" d="M504-32c4.4 0 8-3.6 8-8v-16c0-4.4-3.6-8-8-8H8c-4.4 0-8 3.6-8 8v16c0 4.4 3.6 8 8 8h24v80c0 8.8 7.2 16 16 16h16v128H40c-4.4 0-8 3.6-8 8v16c0 4.4 3.6 8 8 8h24c0 100.5 77.6 183 176 191.2V440c0 4.4 3.6 8 8 8h16c4.4 0 8-3.6 8-8v-24.8c98.4-8.2 176-90.7 176-191.2h24c4.4 0 8-3.6 8-8v-16c0-4.4-3.6-8-8-8h-24V64h16c8.8 0 16-7.2 16-16v-80h24zM256 384c-88.2 0-160-71.8-160-160h320c0 88.2-71.8 160-160 160zm160-192h-80V64h80v128zm-112 0h-96V64h96v128zm-208 0V64h80v128H96zM448-32v64H64v-64h384z"/><glyph glyph-name="meteor" unicode="" d="M223.9 111.9c8.9 0 16-7.1 16-16 0-8.8-7.2-16-16-16s-16 7.2-16 16 7.2 16 16 16zm-40 80.1c13.3 0 24-10.8 24-24 0-13.3-10.7-24-24-24s-24 10.7-24 24 10.7 24 24 24zm320.9 248.8c6.4-6.4 8.8-15.8 6.2-24.6-9.8-32.4-33.8-109.2-58.8-167.4 2.9-.899 5.5-1.7 7.9-2.399 8.9-2.7 16-9.2 19.6-17.7 3.5-8.5 3.1-18.1-1.2-26.4C455.9 159.1 397.3 52.3 339-6c-38.8-38.7-89.6-58.1-140.5-58.1C147.7-64.1 96.8-44.7 58.1-6c-77.4 77.4-77.4 203.5 0 280.9 58.301 58.3 165.101 117 208.301 139.5 8.2 4.399 17.8 4.8 26.4 1.199 8.5-3.6 15-10.7 17.7-19.6.7-2.4 1.6-5 2.4-7.9 58.5 25.3 135.1 49.1 167.4 58.9 8.7 2.6 18.1.2 24.5-6.2zm-89.3-195.3c23.9 51 48.3 126.2 60.6 166.6-40.4-12.4-115.3-36.6-166.7-60.7l-16.9-7.9-5.2 18c-2.8 9.7-5.4 18.4-7.4 25-40.6-22.3-144.1-79.1-199.2-134.2-64.9-64.899-64.9-170.6 0-235.6s170.7-64.9 235.6 0C371.402 71.8 428.2 175.3 450 217.2c-6 .8-14.7 3.4-24.4 6.2l-18 5.2zM199.9 264c70.6 0 128.1-57.5 128-128 0-70.6-57.4-128-128-128s-128 57.4-128 128 57.4 128 128 128zm0-224.1c53 0 96.1 43.1 96 96 0 52.9-43.1 96-96 96s-96-43.1-96-96 43.1-96 96-96z"/><glyph glyph-name="moon-cloud" unicode="" horiz-adv-x="576" d="M320 147.2c0-45.9-37.3-83.2-83.2-83.2H83.2C37.3 64 0 101.3 0 147.2c0 36.2 23 66.9 55.5 78.3C70.4 262.8 106.3 288 148 288c39.4 0 74.1-23.5 90.2-57.6 45.2-.8 81.8-37.8 81.8-83.2zM236.8 96c28.3 0 51.2 22.9 51.2 51.2s-22.9 51.2-51.2 51.2c-7.7 0-14.8-2.2-21.3-5.3-2.7 35.1-31.7 62.9-67.5 62.9-34.1 0-62.1-25.1-67-57.8-27.2-1.2-49-23.5-49-51C32 118.9 54.9 96 83.2 96h153.6zm336.8.8c4.1-8.5 2.9-18.4-3.1-25.6C533.9 26 479.6.1 421.5.1c-48.6 0-92.9 18.3-126.7 48.2 9.601 5.7 18.3 12.5 25.9 20.6C348.3 46.2 383.1 32 421.5 32c41.5 0 80.701 15.9 110.3 44.2-2.599-.1-5.2-.2-7.799-.2-84.6 0-153.5 69-153.5 153.9 0 48 22.5 93 59.9 121.899-3 .1-5.9.2-8.9.2-65.5 0-121.8-39.8-146.5-96.2-5.5 2-11.2 3.7-17.1 4.8-3 4.5-6.3 8.9-9.8 13 30.7 65.2 96.8 110.5 173.4 110.5 11.7 0 23.5-1.1 35-3.2 10.1-1.9 17.8-9.6 19.5-19.8 1.7-10.1-3-20-11.9-25.1-38-21.7-61.6-62.3-61.6-106 0-67.2 54.5-121.9 121.5-121.9 7.7 0 15.5.7 23.2 2.2 1.6.3 3.1.4 4.6.4 9.4 0 17.7-5.299 21.8-13.9z"/><glyph glyph-name="moon-stars" unicode="" d="M333.9 21.8c7.2 0 11.8-8.7 6.9-14.7C305-37.1 251-64 191.8-64 85.8-64 0 22 0 128c0 106.1 85.9 192 191.8 192 11.7 0 23.4-1.1 35-3.2 8.2-1.6 10.1-12.6 2.8-16.7-47.1-26.8-76.1-76.6-76.1-130.8 0-84.3 68.7-150.4 150-150.4 9.4 0 19 .9 28.6 2.7.6.1 1.2.2 1.8.2zM191.8-32c28.7 0 56.3 7.6 80.3 21.6-85.4 15-150.5 89.9-150.5 179.7 0 43 15.2 84 41.8 116.2C88.8 272 32 206.5 32 128c0-88.2 71.7-160 159.8-160zm311.4 286.3c5.4-2.7 8.8-8.2 8.8-14.3s-3.4-11.6-8.8-14.3l-48.6-24.3-24.3-48.6c-2.7-5.4-8.2-8.8-14.3-8.8s-11.6 3.4-14.3 8.8l-24.3 48.6-48.6 24.3c-5.4 2.7-8.8 8.2-8.8 14.3s3.4 11.6 8.8 14.3l48.6 24.3 24.3 48.6c5.4 10.8 23.2 10.8 28.6 0l24.3-48.6zm-67.7-26.7l24.7 12.4-24.7 12.4c-3.1 1.6-5.6 4.1-7.2 7.2L416 284.3l-12.3-24.7c-1.6-3.1-4.1-5.7-7.2-7.2L371.8 240l24.7-12.3c3.1-1.6 5.6-4.1 7.2-7.2l12.3-24.7 12.3 24.6c1.6 3.1 4.1 5.7 7.2 7.2zM304 352l-16 32-32 16 32 16 16 32 16-32 32-16-32-16z"/><glyph glyph-name="person-booth" unicode="" horiz-adv-x="576" d="M224.1-56v184h32V-56c0-4.4-3.6-8-8-8h-16c-4.4 0-8 3.6-8 8zM544 448c17.7 0 32-14.3 32-32V-56c0-4.4-3.6-8-8-8h-16c-4.4 0-8 3.6-8 8v93.6c-7.3-3.5-15.4-5.6-24-5.6-15.7 0-29.8 6.5-40 16.9C469.8 38.5 455.7 32 440 32c-12.1 0-23.3 4-32.5 10.6-10-6.7-21.7-10.6-34-10.6-34 0-61.7 27.7-61.7 61.8 0 23.9 18.1 95.9 23.5 117.1L256.1 416V288h-32v128c0 17.701 14.3 32 32 32H544zM373.5 64c5.2 0 9.9 1.7 14.4 4.3-2.4 6.1-3.8 12.7-3.8 19.7v328h-93.2l76.2-198.4c1.2-3.1 1.3-6.6.5-9.8-9.2-35.1-23.8-97.1-23.8-114 0-16.4 13.3-29.8 29.7-29.8zM464 88v328h-48V88c0-13.3 10.7-24 24-24s24 10.7 24 24zm80 0v328h-48V88c0-13.3 10.8-24 24-24 13.3 0 24 10.7 24 24zM240.1 256c26.5 0 48.1-21.4 48.1-47.9s-21.5-48-48-48h-57.6c-14 0-27.7 4.7-38.8 13.1v-55.8c34.5-33.7 48-40.1 48-76.9V-16c0-26.5-21.5-48-48-48-25.5 0-46.3 19.9-47.9 45-1.6-25.1-22.5-45-48-45C21.5-63.9 0-42.4 0-15.9L.2 144l-.1 95.8c-.1 21.4 8.2 41.6 23.3 56.7 8 8 17.4 13.9 27.6 17.9C30 327 15.8 349.8 15.8 376c0 39.7 32.3 72 72 72s72-32.3 72-72c0-25.7-13.7-48.2-34.1-60.9 11-3.9 21.1-10 29.6-18.5l40.5-40.6h44.3zM47.8 376c0-22.1 17.9-40 40-40s40 17.9 40 40-17.9 40-40 40-40-17.9-40-40zm192.3-184c8.9 0 16 7.2 16 16s-7.2 16-16 16h-57.6l-49.9 49.9c-9 9.1-21.1 14.1-33.9 14.1H80c-26.8 0-48-21.9-48-48.1l.2-95.9L32-16c0-8.8 7.2-16 16-16s16 7.2 16 16l.1 121.9c79.1-76.1 63.6-43.7 63.6-121.9 0-8.8 7.2-16 16-16s16 7.2 16 16v56.5c0 21.3-5.9 22.2-48 63.4v145.7l48.2-48.2c6-6 14.2-9.4 22.6-9.4h57.6z"/><glyph glyph-name="person-sign" unicode="" d="M501.5 381.4c8.3-3.1 12.6-12.2 9.5-20.5l-36.5-100.4c-2.5-6.8-11.6-12.9-20.5-9.6l-76.6 27.9-28.6-70.2c3-8.2 3.9-17.2 2.1-26-3.1-15-13.2-26.7-26.2-33.1l-6.7-16.6c-1.7-4.1-6.4-6-10.5-4.3l-14.8 6.2c-4.1 1.7-6 6.4-4.3 10.5l.3.8-60.8 12.2c-7 1.4-13.8 3.7-20.1 6.9v-20.3l46.5-58.1c11.3-14.2 17.5-31.9 17.5-50V-16c0-26.5-21.5-48-48-48s-48 21.5-48 48v47.2l-15.9 19.9-17.2-77.5C137.9-48.2 118.2-64 95.9-64c-3.4 0-6.8.3-10.4 1.1-25.8 5.8-42.1 31.5-36.4 57.3l28.4 127.7c-24.5-19.1-50.3-5.3-51-5C2.8 128.9-6.8 157.8 5 181.5l36.3 72.4c11.9 23.8 31 42.2 53.8 53.5C81 320.6 72 339.2 72 360c0 39.7 32.1 72 71.8 72s72-32.3 72-72c0-19.6-7.9-37.4-20.7-50.4 19.6-9 36.5-23.5 48.4-42.5l10.1-16.1 59.7-11.9c4.2-.9 7.8-3 11.5-4.8l22.5 55.4-73.6 26.8c-8.4 3-12.6 12.2-9.6 20.5l36.5 100.4c2.5 6.9 11.6 12.8 20.5 9.6l78.6-28.6 10 24.699c1.7 4.1 6.4 6 10.5 4.3l14.8-6.2c4.1-1.7 6-6.4 4.3-10.5l-9.5-23.2zM143.9 400c-22.1 0-40-17.9-40-40s17.9-40 40-40 40 17.9 40 40-17.9 40-40 40zm157.2-223.7l11.5 28.9c-1.7 1.2-3.7 2.1-5.9 2.5L240.3 221c-4.3.9-8.1 3.5-10.4 7.2l-13.7 21.9c-14.8 23.7-40.3 37.9-68.3 37.9-33.3 0-63.3-18.6-78.2-48.4l-36.2-72.5c-3.9-7.9-.7-17.5 7.2-21.5 9.4-4.7 18.4 1 21.5 7.2l36.2 72.5c3.3 6.7 8.1 12 13.4 16.7V129.7L80.2-12.6c-1.9-8.6 3.6-17.2 12.2-19.1 9.5-2 17.4 4.5 19.1 12.2L140.7 112h11.5l52.2-65.2c2.3-2.8 3.5-6.4 3.5-10V-16c0-8.8 7.2-16 16-16s16 7.2 16 16v52.7c0 10.9-3.7 21.5-10.5 30l-53.5 66.9v113.2c10.8-7.6 12.5-12.3 27.1-35.6 7-11.1 18.4-19 31.3-21.6l66.4-13.3h.4zm148.8 110.1l25.6 70.4-150.3 54.7-25.601-70.4z"/><glyph glyph-name="podium-star" unicode="" horiz-adv-x="448" d="M440 288c4.4 0 8-3.6 8-8v-16c0-4.4-3.6-8-8-8h-56L352.1-32H408c4.4 0 8-3.6 8-8v-16c0-4.4-3.6-8-8-8H40c-4.4 0-8 3.6-8 8v16c0 4.4 3.6 8 8 8h56L64.1 254.2v1.8H8c-4.4 0-8 3.6-8 8v16c0 4.4 3.6 8 8 8h56v16c0 57.1 43.2 103.9 98.5 110.6 6.2 19.3 24.1 33.4 45.5 33.4h64c26.5 0 48-21.5 48-48s-21.5-48-48-48h-64c-20.4 0-37.7 12.8-44.7 30.7C125.2 376.6 96 343.8 96 304v-16h344zM208 416c-8.8 0-16-7.2-16-16s7.2-16 16-16h64c8.8 0 16 7.2 16 16s-7.2 16-16 16h-64zM320-32l31.9 288H96l31.9-286.2V-32H320zM164.1 101.9L140.4 125c-6.8 6.6-9.3 16.5-6.3 25.6 3 9.1 10.7 15.6 20.2 17l32.7 4.8 14.7 29.7c4.2 8.6 12.8 13.9 22.4 13.9 9.6 0 18.2-5.3 22.4-13.9l14.6-29.7 32.7-4.8c9.5-1.4 17.2-7.9 20.2-17 3-9.2.6-19-6.3-25.7L284 101.8l5.6-32.6c1.6-9.5-2.2-18.9-10-24.5-7.8-5.7-17.9-6.3-26.3-1.9l-29.2 15.4-29.3-15.4c-3.7-1.9-7.6-2.9-11.6-2.9-5.1 0-10.2 1.6-14.6 4.8-7.9 5.6-11.7 15-10.1 24.5zm44.1 41.3l-35.4-5.1 25.6-25-6-35.2L224 94.5l31.5-16.7-6 35.2 25.6 25-35.3 5.2-15.8 32z"/><glyph glyph-name="poll-people" unicode="" horiz-adv-x="640" d="M145.8 56.3C173 43.5 192 16 192-16v-17.6c0-16.8-13.6-30.4-30.4-30.4H30.4C13.6-64 0-50.4 0-33.6V-16c0 32 19 59.5 46.2 72.3C37.5 67.2 32 80.9 32 96c0 35.3 28.7 64 64 64s64-28.7 64-64c0-15-5.4-28.7-14.2-39.7zM96 128c-17.7 0-32-14.4-32-32s14.3-32 32-32 32 14.4 32 32-14.3 32-32 32zM32-33.6L161.6-32 160-16c0 26.5-21.5 48-48 48H80c-26.5 0-48-21.5-48-48v-17.6zm113.8 377.9C173 331.5 192 304 192 272v-17.6c0-16.8-13.6-30.4-30.4-30.4H30.4C13.6 224 0 237.6 0 254.4V272c0 32 19 59.5 46.2 72.3C37.5 355.2 32 368.9 32 384c0 35.3 28.7 64 64 64s64-28.7 64-64c0-15-5.4-28.7-14.2-39.7zM96 416c-17.7 0-32-14.4-32-32s14.3-32 32-32 32 14.4 32 32-14.3 32-32 32zM32 254.4l129.6 1.6-1.6 16c0 26.5-21.5 48-48 48H80c-26.5 0-48-21.5-48-48v-17.6zM616 416c13.3 0 24-10.7 24-24V280c0-13.3-10.7-24-24-24H248c-13.3 0-24 10.7-24 24v112c0 13.3 10.7 24 24 24h368zM480 288v96H256v-96h224zm128 0v96h-96v-96h96zm8-160c13.3 0 24-10.7 24-24V-8c0-13.3-10.7-24-24-24H248c-13.3 0-24 10.7-24 24v112c0 13.3 10.7 24 24 24h368zM320 0v96h-64V0h64zm288 0v96H352V0h256z"/><glyph glyph-name="poo-storm" unicode="" horiz-adv-x="448" d="M320 144c12.5 0 20.3-13.8 13.5-24.5 0 0-108.5-170.5-111.9-175.8-.9-1.4-5.1-7.6-13.6-7.6-8.1 0-17.4 7.1-15.8 18.2L205.6 48H144c-10.3 0-18 9.7-15.5 19.9l32 128c1.7 7.1 8.2 12.1 15.5 12.1h80c4.9 0 9.6-2.3 12.6-6.2 3-3.9 4.1-8.9 2.9-13.7l-11-44.1H320zM234.3 22.8c13.9 22.2 32.4 51.2 56.5 89.1H240c-10.3 0-18 9.7-15.5 19.9l11 44.1h-47l-24-96H224c4.6 0 9.1-2 12.1-5.5 3.1-3.5 4.5-8.1 3.8-12.7zm158.6 227.4c32.7-16.4 55.1-49.8 55.1-87.5 0-54.4-45.1-98.7-100.6-98.7h-11.301c9.5 14.9 17 26.7 21 33 33.2 4.7 58.9 32.3 58.9 65.7 0 34.8-27.9 63.3-63 66.1 5 8 8.2 17.1 8.2 27.2 0 29.4-24.6 53.3-54.9 53.3h-5c3 8.4 5 17.3 5 26.7 0 44.2-36.9 80-82.3 80-4.4 0-8.7-.7-12.9-1.3 8-10.9 12.9-24.2 12.9-38.7 0-36.9-30.7-66.7-68.6-66.7h-13.7c-30.3 0-54.9-23.8-54.9-53.3 0-10 3.2-19.2 8.2-27.2-35.1-2.8-63-31.3-63-66.1C32 126 62.9 96 100.6 96.1h1.9l-5.1-20.4C96.5 72 96 68.2 96 64.5c-53.3 2.4-96 45.3-96 98.2 0 37.7 22.4 71.1 55 87.6-.1 2-.2 3.9-.2 5.8 0 47 39 85.3 86.9 85.3h13.7c20.2 0 36.6 15.6 36.6 34.7 0 8.8-3.6 15.6-6.7 19.7-6.6 9-8 20.9-3.8 31.2s13.6 17.7 24.7 19.4c5.4.8 11.3 1.6 17.8 1.6 63 0 114.3-50.2 114.2-112v-.7c32.1-12.5 54.9-43.3 54.9-79.3 0-2-.1-3.9-.2-5.8z"/><glyph glyph-name="rainbow" unicode="" horiz-adv-x="576" d="M288 223.6c52.9 0 96-42.5 96-95.5V-24c0-4.4-3.6-8-8-8h-16c-4.4 0-8 3.6-8 8v152.1c0 35.3-28.8 63.7-64 63.7-35.2-.1-64-28.4-64-63.7V-24c0-4.4-3.6-8-8-8h-16c-4.4 0-8 3.6-8 8v152.1c0 52.9 43.1 95.4 96 95.5zm0 192.4c158.8 0 288-129 288-287.9V-24c0-4.4-3.6-8-8-8h-16c-4.4 0-8 3.6-8 8v152.1C544 269.401 429.1 384 288 384c-141.1-.1-256-114.6-256-255.9V-24c0-4.4-3.6-8-8-8H8c-4.4 0-8 3.6-8 8v152.1C0 287 129.2 416 288 416zm0-95.8c105.9-.1 192-86.1 192-192.101v-152.1c0-4.4-3.6-8-8-8h-16c-4.4 0-8 3.6-8 8v152.1c0 88.3-71.8 159.9-160 159.9s-160-71.6-160-159.9v-152.1c0-4.4-3.6-8-8-8h-16c-4.4 0-8 3.6-8 8v152.2c0 105.899 86.1 192 192 192z"/><glyph glyph-name="raindrops" unicode="" horiz-adv-x="448" d="M406.6 195.3c21.3-29.9 41.4-58.2 41.5-100 0-70.2-57.4-127.3-128-127.3s-128 57.1-128 127.3c0 41.6 20.2 70 41.5 100 18.4 25.9 39.2 55.2 52.6 99.5 4.6 15.2 19.8 25.5 34.2 25.2 15.8-.2 29.3-10.3 33.6-25.3 13.4-44.4 34.2-73.7 52.6-99.4zM320 0c52.9 0 96 42.7 95.9 95.4 0 31.6-14.9 52.5-35.5 81.4-18.8 26.4-42.2 59.3-57.2 108.8l-.1.3c-.4 1.4-1.9 1.6-3.2 2.1-2.4 0-3-1.7-3.2-2.5-14.9-49.3-38.3-82.2-57.1-108.7-19.9-28-35.6-50.1-35.6-81.5C224 42.7 267.1 0 320 0zm-80 306.1c0-36.4-28.7-66.1-64-66.1s-64 29.7-64 66.1c0 21.3 9.8 35.8 19.3 49.8 7.9 11.6 16.1 23.7 21.4 42.3 3.1 10.8 11.2 17.9 23.6 17.8 10.9-.1 20.2-7.3 23.1-17.9 5.4-18.6 13.5-30.6 21.4-42.2 9.4-14 19.2-28.4 19.2-49.8zM176 272c17.7 0 32 15.3 32 34.2 0 11.1-4.7 18.5-13.7 31.8-5.8 8.4-12.5 18.3-18.3 31.2-5.8-12.9-12.5-22.7-18.2-31.2-9.1-13.4-13.8-20.9-13.8-31.9 0-18.8 14.3-34.1 32-34.1zm-88.6-49.9c5.4-18.6 13.5-30.6 21.4-42.2 9.4-14 19.2-28.4 19.2-49.8C128 93.7 99.3 64 64 64S0 93.7 0 130.1c0 21.3 9.8 35.8 19.3 49.8 7.9 11.6 16.1 23.7 21.4 42.3 3.1 10.8 13.5 16.6 23.6 17.8 10.9-.1 20.2-7.3 23.1-17.9zM64 96c17.7 0 32 15.3 32 34.2 0 11.1-4.7 18.5-13.7 31.8-5.8 8.4-12.5 18.3-18.3 31.2-5.8-12.9-12.5-22.7-18.2-31.2-9.1-13.4-13.8-20.9-13.8-31.9C32 111.3 46.3 96 64 96z"/><glyph glyph-name="republican" unicode="" horiz-adv-x="640" d="M173 287.8c4.9-.7 6.8-6.7 3.3-10.2l-19.8-19.3 4.7-27.3c.8-4.9-4.4-8.6-8.7-6.3L128 237.6l-24.5-12.9c-4.4-2.3-9.5 1.4-8.7 6.3l4.8 27.3-19.8 19.3c-3.6 3.4-1.6 9.5 3.3 10.2l27.4 4 12.2 24.8c2.2 4.5 8.5 4.4 10.7 0l12.2-24.8zm128 0c4.9-.7 6.8-6.7 3.4-10.2l-19.8-19.3 4.7-27.3c.8-4.9-4.4-8.6-8.7-6.3l-24.5 12.9-24.5-12.9c-4.4-2.3-9.5 1.4-8.7 6.3l4.7 27.3-19.8 19.3c-3.6 3.4-1.6 9.5 3.3 10.2l27.4 4 12.2 24.8c2.2 4.5 8.5 4.4 10.7 0l12.2-24.8zM608 192c17.7 0 32-14.3 32.1-32V84.6c0-55.4-38.3-105.8-92.9-115-40-6.8-76.5 8.1-100.9 34.3-5.4-20.6-24-35.9-46.3-35.9h-64c-26.5 0-48 21.5-48 48v48H160V16c0-26.5-21.5-48-48-48H48C21.5-32 0-10.5 0 16v240c0 88.4 71.6 160 160 160h192c88.4 0 160-71.6 160-160V80c0-8.8 7.2-16 16-16s16 7.2 16 16v80c0 17.7 14.3 32 32 32h32zM32 256v-64h448v64c0 70.6-57.4 128-128 128H160c-70.6 0-128-57.4-128-128zM608 80v80h-32V80c0-26.5-21.5-48-48-48s-48 21.5-48 48v80H32V16c0-8.8 7.2-16 16-16h64c8.8 0 16 7.2 16 16v80h192V16c0-8.8 7.2-16 16-16h64c8.8 0 16 7.2 16 16v80h32V80c0-44.1 35.9-80 80-80s80 35.9 80 80zM429 287.8c4.9-.7 6.8-6.7 3.4-10.2l-19.8-19.3 4.7-27.3c.8-4.9-4.4-8.6-8.7-6.3l-24.5 12.9-24.5-12.9c-4.4-2.3-9.5 1.4-8.7 6.3l4.7 27.3-19.8 19.3c-3.6 3.4-1.6 9.5 3.3 10.2l27.4 4 12.2 24.8c2.2 4.5 8.5 4.4 10.7 0l12.2-24.8z"/><glyph glyph-name="smog" unicode="" horiz-adv-x="640" d="M179.2 160C98 160 32 224.6 32 304s66 144 147.2 144c30.2 0 58.9-8.9 83.2-25.4 24.3 16.5 53 25.4 83.2 25.4 44.3 0 85.8-19.8 113.4-53 9 2.1 18.2 3.2 27.4 3.2 67 0 121.6-53.4 121.6-119.1 0-65.7-54.5-119.1-121.6-119.1H458c-24.3-20.701-54.6-32-86.8-32s-62.5 11.299-86.8 32H179.2zm0 256C115.6 416 64 365.9 64 304s51.6-112 115.2-112h117.899c18.7-19.6 44.9-32 74.1-32s55.4 12.4 74.1 32h41.1c49.5 0 89.6 39 89.6 87.1 0 48.1-40.1 87.1-89.6 87.1-14.4 0-27.8-3.6-39.8-9.4-19.4 35.1-57.1 59.2-101 59.2-32.8 0-62.2-13.5-83.2-34.9-21 21.4-50.4 34.9-83.2 34.9zM632 64c4.4 0 8-3.6 8-8V40c0-4.4-3.6-8-8-8H72c-4.4 0-8 3.6-8 8v16c0 4.4 3.6 8 8 8h560zm-64-96c4.4 0 8-3.6 8-8v-16c0-4.4-3.6-8-8-8H232c-4.4 0-8 3.6-8 8v16c0 4.4 3.6 8 8 8h336zm-416 0c4.4 0 8-3.6 8-8v-16c0-4.4-3.6-8-8-8H8c-4.4 0-8 3.6-8 8v16c0 4.4 3.6 8 8 8h144z"/><glyph glyph-name="smoke" unicode="" horiz-adv-x="640" d="M640 208c0-28.7-9.1-54.9-23.7-77.3 14.7-20.2 23.7-45 23.7-71.9C640-8.9 584.9-64 517.2-64H155.7C69.8-64 0 5.8 0 91.7c0 42.4 17.1 80.8 44.7 108.899-27.4 26.1-44.7 62.6-44.7 103.4 0 79.4 64.6 144 144 144 39.6 0 76.8-16.3 104.1-45.2 19.3 8.7 39.4 13.2 59.9 13.2 55.8 0 104.2-31.3 129.4-77 18.3 8.3 38.1 13 58.6 13 79.4 0 144-64.6 144-144zm-32 0c0 61.8-50.2 112-112.1 112.2-33.4 0-64.9-15.2-86.5-41.7l-8.6-10.5-11.8 6.7c-15.7 9-32.2 13.5-49.2 13.5-44.4 0-81.8-29.3-94.7-69.5 10-7.1 19.2-15.3 27.4-24.6 21.9 13.4 46.5 20.5 72 20.5 42.4 0 81.6-19.1 107.9-51.7 19.6 12.3 41.6 18.8 64.699 18.8 29.1 0 55.5-10.6 76.5-27.5 9 15.9 14.4 34.2 14.4 53.8zM32 304c0-33 14.5-62.5 37.3-83 24.7 16.6 54.4 26.3 86.4 26.3 21.4 0 42.3-4.6 61.5-13 18.8 49.8 66.4 85.6 122.8 85.6 18.4 0 36.3-4 53.4-11.8 5.1 5.3 10.8 9.6 16.5 14-19.4 36.7-57.6 61.8-101.9 61.8-19.2 0-38.099-5.1-56.099-15.1l-11.9-6.6-8.4 10.7C210 400.3 178.1 416 144 416c-61.8 0-112-50.2-112-112zM517.2-32c50 0 90.9 40.9 90.9 91s-40.7 90.8-90.8 90.8c-21.1 0-41.2-7.5-58-21.6l-14.1-11.8-9.8 15.6c-19.9 31.7-53.8 50.6-90.7 50.6-23.5 0-46.1-7.9-65.4-22.9l-13.2-10.2-9.7 13.6c-23.2 32.7-60.9 52.3-100.7 52.3C87.5 215.4 32 159.9 32 91.7S87.5-32 155.7-32h361.5z"/><glyph glyph-name="snow-blowing" unicode="" horiz-adv-x="640" d="M351 332.2c2.1-3.6.8-8.2-2.9-10.3l-40.6-23.5 29.9-8c4.1-1.1 6.5-5.2 5.4-9.3l-3.9-14.7c-1.1-4.1-5.2-6.5-9.3-5.4l-59.3 15.9-63.9-36.9 64-36.9 59.3 15.9c4 1.1 8.2-1.3 9.3-5.4l3.9-14.7c1.1-4-1.3-8.2-5.4-9.3l-29.9-8 40.6-23.5c3.7-2.1 4.9-6.8 2.8-10.4l-7.6-13.2c-2.1-3.7-6.8-4.9-10.4-2.8l-40.6 23.5 8-29.9c1.1-4-1.3-8.2-5.4-9.3l-14.7-3.9c-4-1.1-8.2 1.3-9.3 5.4l-15.9 59.3-63.1 36.4v-78.6L237.5 89c3.1-3.1 3.1-8.2 0-11.3l-11.3-11.3c-3.1-3.1-8.2-3.1-11.3 0l-23 23V40c0-4.4-3.6-8-8-8h-16c-4.4 0-8 3.6-8 8v49.4l-23-23c-3.1-3.1-8.2-3.1-11.3 0l-11.3 11.3c-3.1 3.1-3.1 8.2 0 11.3l45.7 45.6v78.6l-63.1-36.4L81 117.5c-1.1-4.1-5.2-6.5-9.3-5.4L57 116c-4.1 1.1-6.5 5.2-5.4 9.3l8 29.9L19 131.7c-3.7-2.1-8.3-.8-10.4 2.8L1 147.7c-2.1 3.7-.8 8.3 2.8 10.4l40.7 23.5-29.9 8c-4.1 1.1-6.5 5.2-5.4 9.3l3.9 14.7c1.1 4.1 5.2 6.5 9.3 5.4l59.2-16 63.9 36.9-63.9 36.9-59.3-15.9c-4-1.1-8.2 1.3-9.3 5.4L9.1 281c-1.1 4 1.3 8.2 5.4 9.3l29.9 8-40.6 23.5c-3.7 2.1-4.9 6.8-2.8 10.4l7.6 13.2c2.1 3.7 6.8 4.9 10.4 2.8l40.6-23.5-8 29.9c-1.1 4 1.3 8.2 5.4 9.3l14.7 4c4 1.1 8.2-1.3 9.3-5.4l16.1-59.4 63.1-36.4v78.6L114.5 391c-3.1 3.1-3.1 8.2 0 11.3l11.3 11.3c3.1 3.1 8.2 3.1 11.3 0l23-23V440c0 4.4 3.6 8 8 8h16c4.4 0 8-3.6 8-8v-49.4l23 23c3.1 3.1 8.2 3.1 11.3 0l11.3-11.3c3.1-3.1 3.1-8.2 0-11.3L192 345.4v-78.6l63.1 36.3 15.9 59.3c1.1 4.1 5.2 6.5 9.3 5.4l14.7-3.9c4.1-1.1 6.5-5.2 5.4-9.3l-8-29.9 40.6 23.5c3.7 2.1 8.3.8 10.4-2.8zM392 160c-4.4 0-8 3.6-8 8v16c0 4.4 3.6 8 8 8h152c40.2 0 71.9 37.3 62.3 79.1-5.4 23.1-24.1 41.9-47.2 47.2-39.2 9-74.5-18.2-78.7-54.8-.5-4.1-3.7-7.4-7.9-7.4h-16.2c-4.5 0-8.4 3.8-8 8.4 4.8 55.6 57.2 97.7 116.3 85.4 36.3-7.6 65.6-36.9 73.2-73.2 13-62.1-34-116.7-93.8-116.7H392zm147.7-32c52.5 0 98.4-40.5 99.9-93.2 1.6-54.3-42-98.9-96-98.9-50.1 0-91.3 38.5-95.6 87.6-.4 4.5 3.4 8.4 8 8.4h16.1c4.2 0 7.4-3.2 7.9-7.4C483.7-7.2 510.8-32 543.6-32 581-32 611 .3 607.3 38.4 604.1 71.6 574.2 96 540.8 96H376c-4.4 0-8 3.6-8 8v16c0 4.4 3.6 8 8 8h163.7z"/><glyph glyph-name="stars" unicode="" d="M364.3 181.1c18.8-2.8 26.4-26 12.8-39.4l-75.9-74.1 17.9-104.699c2.5-14.9-9.4-26.9-22.7-26.9-3.5 0-7.1.9-10.6 2.7L192-11.9 98.2-61.3C94.7-63.2 91-64 87.5-64c-13.3 0-25.2 12-22.6 27l18 104.7L7 141.8c-13.6 13.3-6.1 36.6 12.7 39.3l104.8 15.3 46.9 95.3c4.2 8.6 12.3 12.8 20.5 12.8s16.4-4.3 20.6-12.8l46.9-95.3zm-85.5-90.5l62.8 61.4-86.8 12.7-16.6 2.4-7.4 15.1L192 261l-38.9-78.8-7.4-15.1-16.6-2.4L42.3 152 105 90.6l12-11.8-2.8-16.6-14.8-86.6L177 16.5l14.9 7.9 14.9-7.9 77.6-40.9-14.8 86.6-2.8 16.6zm-30 247.6c-5.4 2.8-8.8 8.5-8.8 14.5s3.4 11.6 8.8 14.3l48.6 24.3 24.3 48.6c5.4 10.9 23.2 10.9 28.6 0l24.3-48.8 48.6-24.3c5.4-2.7 8.8-8.3 8.8-14.3s-3.4-11.6-8.8-14.3l-48.6-24.3-24.3-48.6c-2.7-5.5-8.2-8.9-14.3-8.9s-11.6 3.5-14.3 8.9l-24.3 48.6zm67.7 26.8l-24.7-12.4 24.7-12.4c3.1-1.6 5.6-4.1 7.2-7.2l12.3-24.7 12.3 24.7c1.6 3.1 4.1 5.7 7.2 7.2l24.7 12.4-24.7 12.4c-3.1 1.6-5.6 4.1-7.2 7.2L336 396.9l-12.3-24.7c-1.6-3.1-4.1-5.7-7.2-7.2zM480 256.4l32-16-32-16-16-32-16 32-32 16 32 16 16 32z"/><glyph glyph-name="sun-cloud" unicode="" horiz-adv-x="640" d="M558.2 262.4c45.2-.8 81.8-37.8 81.8-83.2 0-45.9-37.3-83.2-83.2-83.2H403.2c-45.9 0-83.2 37.3-83.2 83.2 0 36.2 23 66.9 55.5 78.3 14.9 37.3 50.8 62.5 92.5 62.5 39.4 0 74.099-23.5 90.2-57.6zM556.8 128c28.3 0 51.2 22.9 51.2 51.2s-22.9 51.2-51.2 51.2c-7.7 0-14.8-2.2-21.3-5.3-2.7 35.1-31.7 62.9-67.5 62.9-34.1 0-62.1-25.1-67-57.8-27.2-1.2-49-23.5-49-51 0-28.3 22.9-51.2 51.2-51.2h153.6zM403.2 64h30.5l7.6-38.6c1-5.2-.6-10.6-4.4-14.4-3.7-3.8-9-5.5-14.4-4.4L324.7 26l-55.4-82.9c-3-4.4-8-7.1-13.3-7.1s-10.3 2.7-13.3 7.1L187.2 26 89.4 6.6c-5.3-1-10.6.6-14.4 4.4-3.8 3.7-5.4 9.2-4.4 14.4L90 123.2 7.1 178.7c-4.4 3-7.1 7.9-7.1 13.3s2.7 10.3 7.1 13.3L90 260.8l-19.4 97.8c-1 5.2.6 10.6 4.4 14.4s9.1 5.5 14.4 4.4l97.8-19.4 55.5 82.9c3 4.4 8 7.1 13.3 7.1s10.3-2.7 13.3-7.1l55.5-82.9 97.8 19.4c8.7 1.8 17.1-3.9 18.8-12.6 1.7-8.7-3.9-17.1-12.6-18.8l-108.3-21.5c-6.5-1.3-12.8 1.5-16.4 6.8L256 403.2l-48.1-71.9c-3.6-5.3-9.9-8.1-16.4-6.8l-84.8 16.8 16.8-84.8c1.2-6.3-1.4-12.8-6.8-16.4L44.8 192l71.9-48.1c5.4-3.6 8-10.1 6.8-16.4l-16.8-84.8 84.8 16.8c6.5 1.3 12.8-1.5 16.4-6.8L256-19.2l48.2 71.8c3.6 5.4 9.8 8.1 16.4 6.8l84.8-16.8-4.3 21.6c.7 0 1.4-.2 2.1-.2zM256 268.3c-42.1 0-76.3-34.2-76.3-76.3s34.2-76.3 76.3-76.3c16.3 0 31.3 5.2 43.7 13.9 4.7-9.7 10.7-18.6 17.8-26.6C300 90.9 278.8 83.7 256 83.7c-59.7 0-108.3 48.5-108.3 108.2S196.3 300.2 256 300.2c29.5 0 56.3-11.9 75.8-31.1-8.4-6.7-15.8-14.4-22-23.1-13.8 13.8-32.8 22.3-53.8 22.3z"/><glyph glyph-name="sun-dust" unicode="" d="M123.5 256.5c1.2-6.3-1.3-12.8-6.8-16.4L44.8 192l71.9-48.1c5.6-3.8 8.3-10.6 6.6-17.2L101.8 41c-.7-2.9-2.2-5.4-4.2-7.4-3.8-3.8-9.5-5.6-15.2-4.2-8.6 2.1-13.8 10.8-11.6 19.4l18.7 74.8-82.4 55.1c-4.4 3-7.1 8-7.1 13.3 0 5.4 2.6 10.3 7.1 13.3L90 260.7l-19.3 97.8v.1c-.2 1 0 2.1 0 3.1s-.2 2 0 3.1c.4 2.1 1.2 4.1 2.4 5.8.9 1.2 2 2.2 3.1 3.1.5.4.8 1 1.3 1.3 1.7 1.1 3.7 2 5.8 2.4 1.1.2 2.1 0 3.2 0 1 0 2 .2 3 0h.1l97.7-19.4 55.4 82.9c3 4.6 8 7.1 13.3 7.1 5.4 0 10.3-2.7 13.3-7.1l55.1-82.4 74.8 18.7c8.6 2.2 17.3-3 19.4-11.6 1.4-5.7-.4-11.4-4.2-15.2-2-2-4.5-3.5-7.4-4.2l-85.7-21.5c-6.6-1.7-13.4 1-17.2 6.6L256 403.2l-48.1-71.9c-3.7-5.6-10-8-16.4-6.8l-84.8 16.8zm183.4-2.8c-31.3 25.9-78.1 24.3-107.5-5.1-29.4-29.4-31.1-76.1-5.1-107.5 2.7-3.3 2.7-8-.3-11l-11.3-11.3c-3.2-3.3-8.6-3.3-11.6.2-37.9 43.9-36 110.5 5.7 152.2 41.6 41.7 108.3 43.6 152.2 5.7 3.4-3 3.4-8.4.2-11.6L317.9 254c-3-3.1-7.7-3-11-.3zm183.8-275c11.7 0 21.3-9.6 21.3-21.3 0-11.7-9.5-21.3-21.3-21.3s-21.3 9.5-21.3 21.3c0 11.7 9.5 21.3 21.3 21.3zm0 170.6c11.7 0 21.3-9.5 21.3-21.3 0-11.7-9.5-21.3-21.3-21.3s-21.3 9.5-21.3 21.3c0 11.7 9.5 21.3 21.3 21.3zm0 128c-11.8 0-21.4 9.6-21.3 21.3 0 11.7 9.5 21.3 21.3 21.3 11.7 0 21.3-9.5 21.3-21.3 0-11.7-9.5-21.3-21.3-21.3zM149.3-21.3c11.8 0 21.4-9.6 21.3-21.3 0-11.7-9.5-21.3-21.3-21.3-11.7 0-21.3 9.5-21.3 21.3 0 11.7 9.5 21.3 21.3 21.3zM234.7 64c11.7 0 21.3-9.6 21.3-21.3s-9.5-21.3-21.3-21.3-21.3 9.5-21.3 21.3c0 11.7 9.5 21.3 21.3 21.3zm85.3 85.3c11.8 0 21.3-9.5 21.3-21.3 0-11.7-9.6-21.3-21.3-21.3s-21.3 9.5-21.3 21.3c0 11.7 9.5 21.3 21.3 21.3zm85.3 85.4c11.8 0 21.4-9.6 21.3-21.3 0-11.7-9.5-21.3-21.3-21.3-11.7 0-21.3 9.5-21.3 21.3 0 11.7 9.5 21.3 21.3 21.3zM320-21.3c11.8 0 21.3-9.6 21.3-21.3 0-11.7-9.6-21.3-21.3-21.3s-21.3 9.5-21.3 21.3c0 11.7 9.5 21.3 21.3 21.3zM405.3 64c11.8 0 21.4-9.6 21.3-21.3 0-11.7-9.5-21.3-21.3-21.3-11.7 0-21.3 9.5-21.3 21.3 0 11.7 9.5 21.3 21.3 21.3z"/><glyph glyph-name="sun-haze" unicode="" horiz-adv-x="640" d="M216-32c4.4 0 8-3.6 8-8v-16c0-4.4-3.6-8-8-8H72c-4.4 0-8 3.6-8 8v16c0 4.4 3.6 8 8 8h144zm416 0c4.4 0 8-3.6 8-8v-16c0-4.4-3.6-8-8-8H296c-4.4 0-8 3.6-8 8v16c0 4.4 3.6 8 8 8h336zm-56 56c0-4.4-3.6-8-8-8H8c-4.4 0-8 3.6-8 8v16c0 4.4 3.6 8 8 8h560c4.4 0 8-3.6 8-8V24zm56 104.1c4.4 0 8-3.6 8-8v-16c0-4.4-3.6-8-8-8H488c-4.4 0-8 3.6-8 8v16c0 4.4 3.6 8 8 8h144zM72 96c-4.4 0-8 3.6-8 8v16c0 4.4 3.6 8 8 8h336c4.4 0 8-3.6 8-8v-16c0-4.4-3.6-8-8-8H72zm136.3 104.5c4.3 57.8 52.8 103.6 111.7 103.6s107.4-45.7 111.7-103.6c.3-4.6-3.5-8.4-8.1-8.4h-16c-4.3 0-7.6 3.4-8 7.6-3.8 40.6-38.1 72.4-79.6 72.4s-75.8-31.8-79.6-72.4c-.4-4.2-3.7-7.6-8-7.6h-16c-4.6 0-8.4 3.9-8.1 8.4zM96 192.1c-5.4 0-10.7 2.7-13.6 7.8-4.6 7.5-2.1 17.4 5.5 21.9l66.1 39.6-19.3 97.3c-1 5.2.6 10.6 4.4 14.4 3.8 3.8 9.1 5.5 14.4 4.4l97.8-19.4 55.4 82.8.1.1c.6.9 1.5 1.5 2.2 2.2s1.3 1.6 2.2 2.2c1.8 1.2 3.8 2 5.8 2.4 1.4.3 2.9.1 4.3 0 .6 0 1.2.1 1.8 0 2-.4 4-1.2 5.8-2.4 1-.6 1.5-1.5 2.3-2.3.7-.7 1.5-1.2 2.1-2.1l.1-.1 55.4-82.9 97.8 19.4c5.3 1.1 10.6-.6 14.4-4.4s5.4-9.2 4.4-14.4l-19.3-97.3 66.1-39.6c7.6-4.5 10.1-14.3 5.5-21.9-3-5-8.3-7.8-13.7-7.8-2.8 0-5.6.8-8.2 2.3L460 239.7c-5.8 3.4-8.8 10.2-7.5 16.8l16.8 84.9-84.8-16.8c-6.5-1.3-12.8 1.4-16.4 6.8L320 403.3l-48.1-71.8c-3.6-5.4-9.9-8.1-16.4-6.8l-84.8 16.8 16.8-84.9c1.3-6.6-1.7-13.3-7.5-16.8l-75.8-45.4c-2.5-1.6-5.4-2.3-8.2-2.3z"/><glyph glyph-name="sunrise" unicode="" horiz-adv-x="576" d="M95.8 0L50.5 68.1c-3 4.4-3.6 10-1.5 15s6.5 8.6 11.7 9.6l99 19.8 19.8 99c1.1 5.3 4.7 9.7 9.6 11.7 4.9 2 10.6 1.4 15-1.5l84-56 84 56c4.4 3 10 3.6 15 1.5s8.6-6.5 9.6-11.7l19.8-99 99-19.8c5.3-1.1 9.7-4.7 11.7-9.6 2-4.9 1.5-10.6-1.5-15L480.2 0h-38.5l44 66-86 17.2c-6.4 1.3-11.4 6.3-12.6 12.6l-17.2 86-73-48.7c-5.4-3.6-12.4-3.6-17.8 0l-73 48.7-17.2-86c-1.3-6.4-6.3-11.3-12.6-12.6L90.3 66l44-66H95.8zm101.9 330.3l-11.4 11.4c-3.1 3.1-3.1 8.2 0 11.3l90.4 90.3c3.1 3.1 7.2 4.7 11.3 4.7s8.2-1.6 11.3-4.7l90.3-90.3c3.1-3.1 3.1-8.2 0-11.3l-11.3-11.3c-3.1-3.1-8.2-3.1-11.3 0l-63 63V232c0-4.4-3.6-8-8-8h-16c-4.4 0-8 3.6-8 8v161.3l-63-63c-3.1-3.099-8.2-3.099-11.3 0zM568-32c4.4 0 8-3.6 8-8v-16c0-4.4-3.6-8-8-8H8c-4.4 0-8 3.6-8 8v16c0 4.4 3.6 8 8 8h560zM287.8 96c56.3 0 102.601-41.9 110.4-96h-32c-7.5 36.5-39.7 64-78.4 64s-71-27.5-78.4-64h-32c7.9 54.1 54.1 96 110.4 96z"/><glyph glyph-name="sunset" unicode="" horiz-adv-x="576" d="M276.7 228.7L186.4 319c-3.1 3.1-3.1 8.2 0 11.3l11.3 11.3c3.1 3.1 8.2 3.1 11.3 0l63-63V440c0 4.4 3.6 8 8 8h16c4.4 0 8-3.6 8-8V278.6l63 63c3.1 3.1 8.2 3.1 11.3 0l11.3-11.3c3.1-3.1 3.1-8.2 0-11.3l-90.3-90.3c-3.1-3.1-7.2-4.7-11.3-4.7s-8.2 1.6-11.3 4.7zM95.8 0L50.5 68.1c-3 4.4-3.6 10-1.5 15s6.5 8.6 11.7 9.6l99 19.8 19.8 99c1.1 5.3 4.7 9.7 9.6 11.7 4.9 2 10.6 1.4 15-1.5l84-56 84 56c4.4 3 10 3.6 15 1.5s8.6-6.5 9.6-11.7l19.8-99 99-19.8c5.3-1.1 9.7-4.7 11.7-9.6 2-4.9 1.5-10.6-1.5-15L480.2 0h-38.5l44 66-86 17.2c-6.4 1.3-11.4 6.3-12.6 12.6l-17.2 86-73-48.7c-5.4-3.6-12.4-3.6-17.8 0l-73 48.7-17.2-86c-1.3-6.4-6.3-11.3-12.6-12.6L90.3 66l44-66H95.8zm192 96c56.3 0 102.601-41.9 110.4-96h-32c-7.5 36.5-39.7 64-78.4 64s-71-27.5-78.4-64h-32c7.9 54.1 54.1 96 110.4 96zM568-32c4.4 0 8-3.6 8-8v-16c0-4.4-3.6-8-8-8H8c-4.4 0-8 3.6-8 8v16c0 4.4 3.6 8 8 8h560z"/><glyph glyph-name="temperature-frigid" unicode="" d="M416 93.1c18.6-6.6 32-24.2 32-45.1 0-26.5-21.5-48-48-48s-48 21.5-48 48c0 20.9 13.4 38.5 32 45.1V112c0 8.8 7.2 16 16 16s16-7.2 16-16V93.1zm64 33c20.3-20.7 32-48.9 32-78.1 0-61.8-50.2-112-112-112S288-13.8 288 48c0 29.2 11.7 57.3 32 78.1V368c0 44.1 35.9 80 80 80s80-35.9 80-80V126.1zM400-32c44.1 0 80 35.9 80 80 0 25.5-12.2 49-32 63.8V368c0 26.5-21.5 48-48 48s-48-21.5-48-48V111.8c-19.8-14.9-32-38.3-32-63.8 0-44.1 35.9-80 80-80zM277.1 122L208 163.9V70.6L253.5 25c3.1-3.1 3.1-8.2 0-11.3L242.2 2.4c-3.1-3.1-8.2-3.1-11.3 0l-23 23V-24c0-4.4-3.6-8-8-8h-16c-4.4 0-8 3.6-8 8v49.4l-23-23c-3.1-3.1-8.2-3.1-11.3 0l-11.3 11.3c-3.1 3.1-3.1 8.2 0 11.3L176 70.8v93.3l-77.7-46.5-16.1-62.4c-1.1-4.3-5.3-6.8-9.4-5.7l-14.9 4.1c-4.2 1.1-6.6 5.5-5.5 9.8l8.1 31.5-41.2-24.7c-3.6-2.2-8.4-.9-10.5 2.9L1.1 87c-2.2 3.8-.9 8.7 2.8 10.9l41.2 24.5-30.3 8.4c-4.2 1.1-6.6 5.5-5.5 9.8l4 15.5c1.1 4.3 5.3 6.8 9.4 5.7l60.2-16.7 78.2 46.8-78.2 46.8L22.7 222c-4.1-1.1-8.3 1.4-9.4 5.7l-4 15.5c-1.1 4.3 1.4 8.7 5.5 9.8l30.2 8.5-41.2 24.7c-3.7 2.2-4.9 7.1-2.8 10.9L9 311c2.1 3.8 6.8 5.1 10.5 2.9l41.2-24.7-8.1 31.5c-1.1 4.3 1.4 8.7 5.5 9.8l14.9 4.1c4.1 1.1 8.3-1.4 9.4-5.7l16.1-62.4 77.7-46.5v93.3L130.5 359c-3.1 3.1-3.1 8.2 0 11.3l11.3 11.3c3.1 3.1 8.2 3.1 11.3 0l23-23V408c0 4.4 3.6 8 8 8h16c4.4 0 8-3.6 8-8v-49.4l23 23c3.1 3.1 8.2 3.1 11.3 0l11.3-11.3c3.1-3.1 3.1-8.2 0-11.3L208 313.3V220l80 48.6v-37.1L222.9 192l65.1-39.6v-14.2c-4.1-5.1-7.5-10.6-10.9-16.2z"/><glyph glyph-name="temperature-high" unicode="" horiz-adv-x="384" d="M320 448c35.3 0 64-28.7 64-64s-28.7-64-64-64-64 28.7-64 64 28.7 64 64 64zm0-96c17.7 0 32 14.3 32 32s-14.3 32-32 32-32-14.3-32-32 14.3-32 32-32zm-128 16V126.1c20.3-20.7 32-48.9 32-78.1 0-61.8-50.2-112-112-112S0-13.8 0 48c0 29.2 11.7 57.4 32 78.1V368c0 44.1 35.9 80 80 80s80-35.9 80-80zM112-32c44.1 0 80 35.9 80 80 0 25.5-12.2 49-32 63.8V368c0 26.5-21.5 48-48 48s-48-21.5-48-48V111.8C44.2 96.9 32 73.5 32 48c0-44.1 35.9-80 80-80zm16 125.1c18.6-6.6 32-24.2 32-45.1 0-26.5-21.5-48-48-48S64 21.5 64 48c0 20.9 13.4 38.5 32 45.1V368c0 8.8 7.2 16 16 16s16-7.2 16-16V93.1z"/><glyph glyph-name="temperature-hot" unicode="" horiz-adv-x="576" d="M128 208c0 52.9 43.1 96 96 96s96-43.1 96-96-43.1-96-96-96-96 43.1-96 96zm160 0c0 35.3-28.7 64-64 64s-64-28.7-64-64 28.7-64 64-64 64 28.7 64 64zM480 93.1c18.6-6.6 32-24.2 32-45.1 0-26.5-21.5-48-48-48s-48 21.5-48 48c0 20.9 13.4 38.5 32 45.1V368c0 8.8 7.2 16 16 16s16-7.2 16-16V93.1zm64 33c20.3-20.7 32-48.9 32-78.1 0-61.8-50.2-112-112-112S352-13.8 352 48c0 29.2 11.7 57.3 32 78.1V368c0 44.1 35.9 80 80 80s80-35.9 80-80V126.1zM464-32c44.1 0 80 35.9 80 80 0 25.5-12.2 49-32 63.8V368c0 26.5-21.5 48-48 48s-48-21.5-48-48V111.8c-19.7-14.9-32-38.3-32-63.8 0-44.1 35.9-80 80-80zM263.9 88.4c3.6 5.4 9.9 8.2 16.4 6.8l45.5-9c-2.9-10.3-4.7-20.9-5.2-31.6l-36 7.1L237.3-9c-3-4.4-8-7.1-13.3-7.1s-10.3 2.6-13.3 7.1l-47.3 70.7-83.3-16.5c-5.3-1.1-10.6.6-14.4 4.4-3.8 3.7-5.4 9.2-4.4 14.4l16.5 83.4-70.7 47.3c-4.4 3-7.1 8-7.1 13.3s2.7 10.3 7.1 13.3l70.7 47.3L61.3 352c-1 5.2.6 10.6 4.4 14.4 3.7 3.8 9.1 5.5 14.4 4.4l83.3-16.6 47.3 70.7c6 8.9 20.6 8.9 26.6 0l47.3-70.7 67.4 13.4V335l-71.7-14.3c-6.5-1.3-12.8 1.4-16.4 6.8L224 387.2l-39.8-59.7c-3.6-5.4-10-8.1-16.4-6.8l-70.4 14 13.9-70.4c1.2-6.3-1.4-12.8-6.8-16.4L44.8 208l59.6-39.9c5.4-3.6 8.1-10.1 6.8-16.4L97.3 81.3l70.4 14c6.4 1.4 12.8-1.4 16.4-6.8L224 28.8z"/><glyph glyph-name="temperature-low" unicode="" horiz-adv-x="384" d="M128 93.1c18.6-6.6 32-24.2 32-45.1 0-26.5-21.5-48-48-48S64 21.5 64 48c0 20.9 13.4 38.5 32 45.1V144c0 8.8 7.2 16 16 16s16-7.2 16-16V93.1zM320 448c35.3 0 64-28.7 64-64s-28.7-64-64-64-64 28.7-64 64 28.7 64 64 64zm0-96c17.7 0 32 14.3 32 32s-14.3 32-32 32-32-14.3-32-32 14.3-32 32-32zm-128 16V126.1c20.3-20.7 32-48.9 32-78.1 0-61.8-50.2-112-112-112S0-13.8 0 48c0 29.2 11.7 57.4 32 78.1V368c0 44.1 35.9 80 80 80s80-35.9 80-80zM112-32c44.1 0 80 35.9 80 80 0 25.5-12.2 49-32 63.8V368c0 26.5-21.5 48-48 48s-48-21.5-48-48V111.8C44.2 96.9 32 73.5 32 48c0-44.1 35.9-80 80-80z"/><glyph glyph-name="thunderstorm" unicode="" d="M368 192c5.5 0 10.7-2.9 13.6-7.7 2.9-4.8 3.2-10.6.7-15.6l-112-224c-2.7-5.5-8.3-8.8-14.3-8.8-1.2 0-2.5.1-3.7.4-7.2 1.7-12.3 8.2-12.3 15.6v128h-80c-4.8 0-9.2 2.2-12.3 5.8-3.1 3.6-4.3 8.4-3.5 13.1l32 176c1.5 7.6 8.1 13.1 15.8 13.1h112c5.2 0 10-2.4 13-6.6s3.8-9.5 2.2-14.4l-25-74.9H368zM272 19.8l70.2 140.3h-70.1c-5.2 0-10 2.4-13 6.6s-3.8 9.5-2.2 14.4l25 74.9h-76.5l-26.2-144H256c8.8 0 16-7.2 16-16V19.8zm143.7 315.9c53.7-3.9 96.3-48.9 96.3-103.7 0-57.3-46.7-104-104-104h-10.3l13.2 26.4c1 2 1.4 4 2.1 6 37.3 2.6 67 33.5 67 71.5 0 39.7-32.3 72-72 72-1.3 0-2.6-.2-3.8-.4l-23.5-2.4 2.5 20c.5 3.8.8 5.3.8 6.9 0 30.9-25.1 56-56 56-15.6 0-30.1-6.4-41-18.1l-15.2-16.5-10.6 19.8c-15.4 28.9-45 46.8-77.2 46.8-48.5 0-88-39.5-88-88 0-2 .3-4 .6-6l2-17.2-13.3-3.6C53.9 292.7 32 264.3 32 232c0-39.7 32.3-72 72-72h18.8l-5.8-32h-13C46.7 128 0 174.7 0 232c0 42.1 25.7 79.6 64 95.6v.4c0 66.2 53.8 120 120 120 37.5 0 72.3-17.7 94.8-47.2 14.4 9.9 31.4 15.2 49.2 15.2 45.9 0 83.8-35.4 87.7-80.3z"/><glyph glyph-name="thunderstorm-moon" unicode="" horiz-adv-x="576" d="M573.9 210.5c3.6-7.7 2.5-16.7-3-23.2-30.7-37.6-76.3-59.2-125-59.2-.8 0-1.6.2-2.4.2 2.7 10.3 4.5 20.8 4.5 31.8v.2c29.5.4 57.5 10.6 79.8 28.8-70.6 1.6-127.6 59.4-127.6 130.1 0 37.2 16.2 72.4 43.5 96.8-52.601-.9-97.601-33.2-116.8-78.7-9.2 5.2-19.2 9-29.7 11.5C321.298 406.9 378.9 448 446 448c9.799 0 19.7-.9 29.5-2.8 9.299-1.7 16.2-8.7 17.799-18 1.5-9.2-2.7-18.2-10.9-22.8-30.9-17.4-50.1-50.1-50.1-85.3 0-54.2 44.3-98.2 98.7-98.2 6.3 0 12.6.6 18.9 1.8l2.7.4h1.4c8.4 0 16.3-4.9 19.9-12.6zM304 144c12.5 0 20.3-13.8 13.5-24.5 0 0-108.5-170.5-111.9-175.8-.9-1.4-5.1-7.6-13.6-7.6-8.1 0-17.4 7.1-15.8 18.2L189.6 48H128c-10.3 0-18 9.7-15.5 19.9l32 128c1.7 7.1 8.2 12.1 15.5 12.1h80c4.9 0 9.6-2.3 12.6-6.2 3-3.9 4.1-8.9 2.9-13.7l-11-44.1H304zM218.3 22.8c13.9 22.2 32.4 51.2 56.5 89.1H224c-10.3 0-18 9.7-15.5 19.9l11 44.1h-47l-24-96H208c4.6 0 9.1-2 12.1-5.5 3.1-3.5 4.5-8.1 3.8-12.7zm133 227.9c38.1-13.1 64.7-49.4 64.8-90.7 0-52.9-42.9-95.9-95.8-96 11.7 18.4 20.5 32.3 23.3 36.6 23.6 9.4 40.5 32.4 40.5 59.4 0 30.4-21.5 56.7-51.3 62.7l-12.8 2.6.2 16.2c-.1 32.2-38.1 58.2-70.8 40.4l-13-7.1-8.1 12.4c-13.4 20.6-35.9 32.8-60.2 32.8-39.7 0-72-32.3-72-72 0-1.5.2-2.9.4-4.4l2-18-14.5-2.8C53.8 217 32 190.6 32 160c0-32.1 23.9-58.5 54.7-63l-5.3-21.3c-.8-3.4-1.2-6.7-1.3-10.1C34.7 73.2 0 112.5 0 160c0 41.1 26.2 77.1 64 90.4C65.3 306.7 111.5 352 168 352c30.6 0 59.1-13.3 78.8-36.3 8.2 2.9 16.6 4.3 25.2 4.3 40.5 0 74-30.2 79.3-69.3z"/><glyph glyph-name="thunderstorm-sun" unicode="" horiz-adv-x="640" d="M160.3 156.3l44.9-67.4c4.9-7.3 2.9-17.3-4.4-22.2-2.7-1.8-5.8-2.7-8.9-2.7-5.1 0-10.2 2.5-13.3 7.1l-39.1 58.5-68.9-13.7c-5.4-1.1-10.6.6-14.4 4.4s-5.4 9.2-4.4 14.5l13.7 69-58.4 39.1c-4.4 3-7.1 8-7.1 13.3 0 5.4 2.7 10.3 7.1 13.3l58.4 39.1-13.7 69c-1 5.3.6 10.7 4.4 14.5 3.7 3.8 9.1 5.5 14.4 4.4l69-13.7 39.1 58.5c6 8.9 20.7 8.9 26.6 0l39.2-58.5 68.9 13.6c8.5 1.9 17.1-3.9 18.8-12.6s-3.9-17.1-12.6-18.8l-79.4-15.7c-6.4-1.3-12.8 1.5-16.4 6.8L192 403.6l-31.7-47.5c-3.6-5.4-9.9-8.1-16.4-6.8l-56 11.1 11.1-56c1.2-6.3-1.4-12.8-6.8-16.4l-47.4-31.8 47.4-31.8c5.4-3.6 8-10 6.8-16.4l-11.1-56 56 11.1c6.5 1.3 12.8-1.5 16.4-6.8zM192 308c-28.5 0-51.7-23.3-51.6-51.9 0-28.5 23.2-51.7 51.7-51.7 2.9 0 5.7.4 8.5.9-4-10.4-6.6-21.4-7.7-32.8-.3 0-.6-.1-.9-.1-46.2 0-83.7 37.6-83.7 83.8S145.8 340 192 340c31.5 0 58.7-17.7 73-43.4-2.9-7.8-5.3-15.9-6.8-24.3-5.3-3-10.3-6.3-15.1-9.9C240 288 218.4 308 192 308zm336-164c12.5 0 20.3-13.8 13.5-24.5 0 0-108.5-170.5-111.9-175.8-.9-1.4-5.1-7.6-13.6-7.6-8.1 0-17.4 7.1-15.8 18.2L413.6 48H352c-10.3 0-18 9.7-15.5 19.9l32 128c1.7 7.1 8.2 12.1 15.5 12.1h80c4.9 0 9.6-2.3 12.6-6.2 3-3.9 4.1-8.9 2.9-13.7l-11-44.1H528zM442.3 22.8c13.9 22.2 32.4 51.2 56.5 89.1H448c-10.3 0-18 9.7-15.5 19.9l11 44.1h-47l-24-96H432c4.6 0 9.1-2 12.1-5.5 3.1-3.5 4.5-8.1 3.8-12.7zm133 227.9c38.1-13.1 64.7-49.4 64.7-90.5 0-52.9-42.9-95.9-95.8-96 11.7 18.4 20.5 32.3 23.3 36.6 23.6 9.4 40.5 32.4 40.5 59.4 0 30.4-21.5 56.7-51.3 62.7l-12.8 2.6.2 16.2c-.1 32.2-38.1 58.2-70.8 40.4l-13-7.1-8.1 12.4c-13.4 20.5-35.9 32.7-60.2 32.7-39.7 0-72-32.3-72-72 0-1.5.2-2.9.4-4.4l2-18-14.5-2.8c-30.2-5.8-52-32.2-52-62.8 0-32.2 23.9-58.6 54.8-63.1l-5.3-21.3c-.8-3.4-1.2-6.7-1.3-10.1-45.3 7.6-80.1 46.9-80.1 94.4 0 41.1 26.2 77.1 64 90.4 1.3 56.3 47.5 101.6 104 101.6 30.6 0 59.1-13.3 78.8-36.3 8.2 2.9 16.6 4.3 25.2 4.3 40.5 0 74-30.2 79.3-69.3zM560 239.2z"/><glyph glyph-name="tornado" unicode="" d="M429.1 422.8C256.201 174.1 715.701 231 395.1-55.7c-5.9-5.3-13.8-8.3-21.7-8.3H346c-11.7 0-19.3 12.3-14.3 22.9C452 211.7 13.3 78.8 0 431.5c-.3 8.901 7.1 16.5 16.2 16.5h400c12.9 0 20.3-14.599 12.9-25.2zm-42.4-6.8H33c2-24 6.4-45.1 12.5-64h314.8c4.4 19.4 12.7 40.5 26.4 64zM58.4 320c13.1-25.9 30.3-46.7 50.2-64h265c-10.4 18.5-17.3 39.5-17.2 64h-298zm95.3-96c26.7-15.7 55.6-28.4 84.2-41 17.1-7.5 33.9-15 49.8-23h170.899c-7.7 8.9-16.7 18.1-27.9 28.8s-23.3 22.3-34.4 35.2H153.7zm185.2-96c17.1-14.2 30.7-30.9 38.6-52.1 1.4-3.8 2-7.9 3-11.9H461c12.3 19.3 18.9 36.3 19.1 50.7 0 4.6-1.2 8.9-2.4 13.3H338.9zm34.5-160c26 23.2 47.2 44.5 63.8 64h-53.1c-.4-19.6-4.7-40.7-13.6-64h2.9z"/><glyph glyph-name="volcano" unicode="" d="M505.5-12.6c15.9-21.2.8-51.4-25.5-51.4H32.1C5.7-64-9.4-33.8 6.5-12.6l175.8 225c4.9 6.3 12.101 9.7 19.8 11.1l-16.4 49.4h-25.799c-44.1 0-80 36-80 80.2s35.9 80.2 80 80.2c13.1 0 26-3.3 37.6-9.6 30 32.6 87 32.6 116.9 0 11.6 6.2 24.5 9.6 37.6 9.6 44.099 0 80-36 80-80.2s-35.901-80.2-80-80.2h-25.8L309.8 223.5c7.7-1.4 14.9-4.8 19.8-11.1zM160 304.9h48.8l26.7-80.2h40.9l26.7 80.2H352c26.5 0 48 21.6 48 48.1s-21.5 48.1-48 48.1c-14.1 0-24.6-6.3-30.8-11.6l-14.4-12.2-9.7 16.2c-17.7 29.7-64.5 29.7-82.2 0l-9.7-16.2-14.4 12.2c-6.2 5.3-16.6 11.6-30.8 11.6-26.5 0-48-21.6-48-48.1s21.5-48.1 48-48.1zm47.6-112.3l-51.5-65.9 9.6-12c6.6-8.3 20.5-8.3 27.1 0 9.2 11.6 22.9 18.3 37.7 18.6 15.2-.3 28.7-6.1 38.3-17.3l25.3-29.6c6.6-7.8 19.6-7.9 26.3 0l35 41-51 65.2h-96.8zM31.7-32.4l448.3.5-104.4 133.6-30.8-36.1c-9.399-11-23.1-17.3-37.5-17.3-14.399 0-28.1 6.3-37.5 17.3l-25.3 29.5c-3.3 3.9-8.099 6-13.4 6.1-5.199 0-10-2.4-13.3-6.5-18.8-23.6-58.3-23.5-77.1 0l-4.9 6.1z"/><glyph glyph-name="vote-nay" unicode="" horiz-adv-x="640" d="M393.5 294.2c3.2-3.1 3.2-8.2 0-11.3L342.6 232l51-50.9c3.1-3.1 3.1-8.2 0-11.3l-11.3-11.3c-1.6-1.5-3.6-2.3-5.7-2.3s-4.1.7-5.7 2.3L320 209.4l-50.9-50.9c-1.6-1.5-3.6-2.3-5.7-2.3s-4.1.7-5.7 2.3l-11.3 11.3c-3.1 3.1-3.1 8.2 0 11.3l50.9 50.9-50.9 50.9c-3.1 3.1-3.1 8.2 0 11.3l11.3 11.3c1.6 1.5 3.6 2.3 5.7 2.3s4.1-.7 5.7-2.3l50.9-50.9 50.8 50.9c1.6 1.5 3.6 2.3 5.7 2.3s4.1-.7 5.7-2.3zM608 160c17.7 0 32-14.3 32-32V0c0-17.7-14.3-32-32-32H32C14.3-32 0-17.7 0 0v128c0 17.7 14.3 32 32 32h64v225.5c0 16.8 14.3 30.5 32 30.5h384c17.7 0 32-13.7 32-30.5V160h64zM128 384V80h384v304H128zM608 0v128h-64V80h22.4c5.3 0 9.6-3.6 9.6-8V56c0-4.4-4.3-8-9.6-8H73.6c-5.3 0-9.6 3.6-9.6 8v16c0 4.4 4.3 8 9.6 8H96v48H32V0h576z"/><glyph glyph-name="vote-yea" unicode="" horiz-adv-x="640" d="M409.3 309.4l11.4-11.2c3.1-3.1 3.1-8.2 0-11.3L296.2 162.4c-1.6-1.5-3.6-2.3-5.7-2.3s-4.1.7-5.7 2.3l-65.5 65.5c-3.1 3.1-3.1 8.2 0 11.3l11.3 11.3c1.6 1.5 3.7 2.3 5.7 2.3 2.1 0 4.1-.7 5.7-2.3l48.5-48.6 107.4 107.5c1.6 1.5 3.7 2.3 5.7 2.3 2.1 0 4.1-.7 5.7-2.3zM608 160c17.7 0 32-14.3 32-32V0c0-17.7-14.3-32-32-32H32C14.3-32 0-17.7 0 0v128c0 17.7 14.3 32 32 32h64v225.5c0 16.8 14.3 30.5 32 30.5h384c17.7 0 32-13.7 32-30.5V160h64zM128 384V80h384v304H128zM608 0v128h-64V80h22.4c5.3 0 9.6-3.6 9.6-8V56c0-4.4-4.3-8-9.6-8H73.6c-5.3 0-9.6 3.6-9.6 8v16c0 4.4 4.3 8 9.6 8H96v48H32V0h576z"/><glyph glyph-name="water" unicode="" horiz-adv-x="576" d="M568.3 32c4.3-.2 7.7-3.6 7.7-7.9v-16c0-4.5-3.8-8.3-8.3-8.1-32 1.5-63 11.4-87.6 27.9-52.8-35.8-138.3-36.1-192 0-52.8-35.8-138.2-36.1-192 0C71.6 11.4 40.6 1.5 8.3 0 3.8-.2 0 3.6 0 8.1v16c0 4.3 3.4 7.7 7.7 7.9 29.8 1.5 58 11.6 78.2 28.2 5.9 4.8 14.3 4.9 20.2.1 44.8-36.4 128.1-36 171.8-.1 5.9 4.9 14.3 4.9 20.2.1 44.8-36.4 128.101-36 171.801-.1 5.9 4.9 14.3 4.9 20.2.1 20.5-16.7 48.7-26.8 78.2-28.3zm0 106.7c4.3-.2 7.7-3.6 7.8-7.9v-16c0-4.5-3.8-8.3-8.3-8.1-32 1.5-63 11.4-87.6 27.9-52.8-35.8-138.3-36.1-192 0-52.8-35.8-138.2-36.1-192 0-24.5-16.5-55.5-26.4-87.8-27.9-4.5-.2-8.3 3.6-8.3 8.1v16c0 4.3 3.4 7.7 7.7 7.9 29.8 1.5 57.9 11.6 78.1 28.2 5.9 4.8 14.3 4.9 20.2.1 44.8-36.4 128.1-36 171.8-.1 5.9 4.9 14.3 4.9 20.2.1 44.8-36.4 128.101-36 171.801-.1 5.9 4.9 14.3 4.9 20.2.1 20.5-16.7 48.7-26.8 78.2-28.3zm0 106.7c4.3-.2 7.7-3.6 7.7-7.9v-16c0-4.5-3.8-8.3-8.3-8.1-32 1.5-63 11.4-87.6 27.9-52.8-35.8-138.3-36.1-192 0-52.8-35.8-138.2-36.1-192 0-24.5-16.5-55.5-26.4-87.8-27.9-4.5-.2-8.3 3.6-8.3 8.1v16c0 4.3 3.4 7.7 7.7 7.9 29.8 1.5 58 11.6 78.2 28.2 5.9 4.8 14.3 4.9 20.2.1 44.8-36.4 128.1-36 171.8-.1 5.9 4.9 14.3 4.9 20.2.1 44.8-36.4 128.101-36 171.801-.1 5.9 4.9 14.3 4.9 20.2.1 20.5-16.7 48.7-26.8 78.2-28.3zm0 106.7c4.3-.2 7.7-3.6 7.7-7.9v-16c0-4.5-3.8-8.3-8.3-8.1-32 1.5-63 11.4-87.6 27.9-52.8-35.8-138.3-36.1-192 0-52.8-35.8-138.2-36.1-192 0-24.5-16.5-55.5-26.4-87.8-27.9-4.5-.2-8.3 3.6-8.3 8.1v16c0 4.3 3.4 7.7 7.7 7.9 29.8 1.5 58 11.6 78.2 28.2 5.9 4.8 14.3 4.9 20.2.1 44.8-36.4 128.1-36 171.8-.1 5.9 4.9 14.3 4.9 20.2.1 44.8-36.4 128.101-36 171.801-.1 5.9 4.9 14.3 4.9 20.2.1 20.5-16.7 48.7-26.8 78.2-28.3z"/><glyph glyph-name="water-lower" unicode="" horiz-adv-x="576" d="M276.7 212.3l-90.3 84.8c-3.1 2.9-3.1 7.7 0 10.6l11.3 10.6c3.1 2.9 8.2 2.9 11.3 0l63-59.1v181.3c0 4.1 3.6 7.5 8 7.5h16c4.4 0 8-3.4 8-7.5V259.1l63 59.101c3.1 2.9 8.2 2.9 11.3 0l11.3-10.6c3.1-2.9 3.1-7.7 0-10.6l-90.3-84.7c-3.1-2.9-7.2-4.4-11.3-4.4s-8.2 1.5-11.3 4.4zM568.3-2c4.3-.2 7.7-3.4 7.8-7.4v-15c0-4.3-3.8-7.8-8.3-7.6-32 1.4-63 10.7-87.6 26.2-52.8-33.5-138.3-33.9-192 0-52.8-33.5-138.2-33.9-192 0C71.7-21.4 40.7-30.6 8.4-32 3.9-32.2.1-28.6.1-24.4v15c0 4 3.4 7.2 7.7 7.4C37.6-.6 65.7 8.8 85.9 24.4c5.9 4.5 14.3 4.6 20.2.1 44.8-34.1 128.1-33.7 171.8-.1 5.9 4.6 14.3 4.6 20.2.1 44.8-34.1 128.101-33.7 171.801-.1 5.9 4.6 14.3 4.6 20.2.1C510.6 8.9 538.8-.6 568.3-2zm0 119.9c4.3-.2 7.7-3.4 7.8-7.4v-15c0-4.3-3.8-7.8-8.3-7.6-32 1.4-63 10.7-87.6 26.2-52.8-33.5-138.3-33.9-192 0-52.8-33.5-138.2-33.9-192 0C71.7 98.5 40.7 89.3 8.4 87.9 3.9 87.7.1 91.3.1 95.5v15c0 4 3.4 7.2 7.7 7.4 29.8 1.4 57.9 10.8 78.1 26.4 5.9 4.5 14.3 4.6 20.2.1 44.8-34.1 128.1-33.7 171.8-.1 5.9 4.6 14.3 4.6 20.2.1 44.8-34.1 128.101-33.7 171.801-.1 5.9 4.6 14.3 4.6 20.2.1 20.5-15.6 48.7-25.1 78.2-26.5z"/><glyph glyph-name="water-rise" unicode="" horiz-adv-x="576" d="M197.7 330.3l-11.3 11.3c-3.1 3.1-3.1 8.2 0 11.3l90.3 90.4c3.1 3.1 7.2 4.7 11.3 4.7s8.2-1.6 11.3-4.7l90.3-90.3c3.1-3.1 3.1-8.2 0-11.3l-11.3-11.3c-3.1-3.1-8.2-3.1-11.3 0l-63 63V199.9c0-4.4-3.6-8-8-8h-16c-4.4 0-8 3.6-8 8v193.4l-63-63c-3.1-3.1-8.2-3.1-11.3 0zM568.3-32c4.3-.2 7.7-3.6 7.7-7.9v-16c0-4.5-3.8-8.3-8.3-8.1-32 1.5-63 11.4-87.6 27.9-52.8-35.8-138.3-36.1-192 0-52.8-35.8-138.2-36.1-192 0C71.6-52.6 40.6-62.5 8.3-64 3.8-64.2 0-60.4 0-55.9v16c0 4.3 3.4 7.7 7.7 7.9 29.8 1.5 58 11.6 78.2 28.2 5.9 4.8 14.3 4.9 20.2.1 44.8-36.4 128.1-36 171.8-.1 5.9 4.9 14.3 4.9 20.2.1 44.8-36.4 128.101-36 171.801-.1 5.9 4.9 14.3 4.9 20.2.1 20.5-16.7 48.7-26.8 78.2-28.3zm0 128.1c4.3-.3 7.7-3.6 7.8-7.9v-16c0-4.5-3.8-8.3-8.3-8.1-32 1.5-63 11.4-87.6 27.9-52.8-35.8-138.3-36.1-192 0-52.8-35.8-138.2-36.1-192 0C71.7 75.5 40.7 65.6 8.4 64.1 3.9 63.9.1 67.7.1 72.2v16c0 4.3 3.4 7.7 7.7 7.9 29.8 1.5 57.9 11.6 78.1 28.2 5.9 4.8 14.3 4.9 20.2.1 44.8-36.4 128.1-36 171.8-.1 5.9 4.9 14.3 4.9 20.2.1 44.8-36.4 128.101-36 171.801-.1 5.9 4.9 14.3 4.9 20.2.1 20.5-16.7 48.7-26.8 78.2-28.3z"/><glyph glyph-name="wind-warning" unicode="" horiz-adv-x="640" d="M192 448c106 0 192-86 192-192S298 64 192 64 0 150 0 256s86 192 192 192zm0-352c88.2 0 160 71.8 160 160s-71.8 160-160 160S32 344.2 32 256 103.8 96 192 96zm-8.5 144c-4.2 0-7.7 3.3-8 7.5l-7 112c-.3 4.6 3.4 8.5 8 8.5h31c4.6 0 8.3-3.9 8-8.5l-7-112c-.3-4.2-3.8-7.5-8-7.5h-17zm8.5-24c13.3 0 24-10.7 24-24s-10.7-24-24-24-24 10.7-24 24 10.7 24 24 24zm347.7-88c52.5 0 98.4-40.5 100-93.2 1.6-54.3-42-98.9-96-98.9-50.1 0-91.3 38.5-95.6 87.6-.4 4.5 3.4 8.4 8 8.4h16.1c4.2 0 7.4-3.2 7.9-7.4C483.8-7.2 510.9-32 543.7-32c37.4 0 67.4 32.3 63.7 70.4-3.2 33.2-33.1 57.6-66.5 57.6H348.5c10 9.8 19.1 20.5 27.1 32h164.1zm98.1 148.7c13-62.1-34-116.7-93.8-116.7H394.1c4.9 10.3 9.2 20.9 12.5 32H544c40.2 0 71.9 37.3 62.3 79.1-5.4 23.1-24.1 41.9-47.2 47.2-39.2 9-74.5-18.2-78.7-54.8-.5-4.1-3.7-7.4-7.9-7.4h-16.2c-4.5 0-8.4 3.8-8 8.4 4.8 55.6 57.2 97.7 116.3 85.4 36.3-7.6 65.6-36.9 73.2-73.2z"/><glyph glyph-name="windsock" unicode="" d="M497.3 290c8.4-1.2 14.7-7.9 14.7-15.9V117.8c0-7.9-6.3-14.7-14.7-15.8L64 44.3v-99.7c0-4.7-3.6-8.6-8-8.6H40c-4.4 0-8 3.8-8 8.6v410.3C13.4 361.5 0 379.1 0 400c0 26.5 21.5 48 48 48s48-21.5 48-48c0-20.9-13.4-38.5-32-45.1v-7.2zM48 416c-8.8 0-16-7.2-16-16s7.2-16 16-16 16 7.2 16 16-7.2 16-16 16zm256-132.5v-175l80 10.7v153.6zm-32-179.2v183.4l-96 12.8v-209zM64 315.5v-239l80 10.7v217.6zM480 132v128l-64 8.5v-145z"/></font>
</defs>
</svg>
