<svg width="50" height="40" fill="none" xmlns="http://www.w3.org/2000/svg"><rect x=".679" y=".19" width="23.046" height="10.176" rx="1.5" transform="matrix(.87058 -.48873 .48842 .86872 11.12 16.109)" fill="#C9473E" stroke="#363636"/><ellipse rx="4.677" ry="2.097" transform="matrix(.87045 -.48892 .4882 .86882 24.322 14.73)" fill="#363636"/><ellipse rx="1.329" ry="1.381" transform="matrix(.87327 -.48462 .49283 .86663 31.032 10.857)" fill="#363636"/><ellipse rx="1.329" ry="1.381" transform="matrix(.87327 -.48462 .49283 .86663 17.613 18.604)" fill="#363636"/><path d="M11.626 16.442a1.5 1.5 0 0 1 1.5-1.5h22.947a1.5 1.5 0 0 1 1.5 1.5v17.559a1.5 1.5 0 0 1-1.5 1.5H13.126a1.5 1.5 0 0 1-1.5-1.5v-17.56z" fill="#F5F5F5" stroke="#363636"/><path d="M31.836 24.526a1.5 1.5 0 0 1 1.5-1.5h4.084a1.5 1.5 0 0 1 1.5 1.5v2.235a.655.655 0 0 1-.655.655h-5.774a.655.655 0 0 1-.655-.655v-2.235z" fill="#F5F5F5" stroke="#363636"/></svg>