<svg width="50" height="40" fill="none" xmlns="http://www.w3.org/2000/svg"><mask id="a" fill="#fff"><path fill-rule="evenodd" clip-rule="evenodd" d="M23.814 22.452a6.226 6.226 0 1 0 0-12.452 6.226 6.226 0 0 0 0 12.452zM36.106 34.47c.177 1.09-.735 1.992-1.84 1.992H13.363c-1.105 0-2.017-.902-1.84-1.992a12.453 12.453 0 0 1 24.584 0z"/></mask><path fill-rule="evenodd" clip-rule="evenodd" d="M23.814 22.452a6.226 6.226 0 1 0 0-12.452 6.226 6.226 0 0 0 0 12.452zM36.106 34.47c.177 1.09-.735 1.992-1.84 1.992H13.363c-1.105 0-2.017-.902-1.84-1.992a12.453 12.453 0 0 1 24.584 0z" fill="#F5F5F5"/><path d="M36.106 34.47l-.987.16.987-.16zm-12.292 1.992v1-1zm-10.452 0v-1 1zm-1.84-1.992l.987.16-.987-.16zm3.487-6.814l.707.707-.707-.707zm14.031-11.43a5.226 5.226 0 0 1-5.226 5.226v2a7.226 7.226 0 0 0 7.226-7.226h-2zM23.814 11a5.226 5.226 0 0 1 5.226 5.226h2A7.226 7.226 0 0 0 23.814 9v2zm-5.226 5.226A5.226 5.226 0 0 1 23.814 11V9a7.226 7.226 0 0 0-7.226 7.226h2zm5.226 5.226a5.226 5.226 0 0 1-5.226-5.226h-2a7.226 7.226 0 0 0 7.226 7.226v-2zm10.453 16.01c1.604 0 3.12-1.344 2.827-3.152l-1.975.32c.06.372-.247.831-.852.831v2zm-10.453 0h10.453v-2H23.814v2zm-10.452 0h10.452v-2H13.362v2zm-2.827-3.152c-.293 1.808 1.223 3.151 2.827 3.151v-2c-.605 0-.913-.459-.853-.831l-1.974-.32zm3.767-7.36a13.452 13.452 0 0 0-3.767 7.36l1.974.32a11.452 11.452 0 0 1 3.207-6.267l-1.414-1.414zm9.512-3.941a13.45 13.45 0 0 0-9.512 3.94l1.414 1.414a11.452 11.452 0 0 1 8.098-3.354v-2zm9.513 3.94a13.452 13.452 0 0 0-9.513-3.94v2c3.038 0 5.95 1.207 8.098 3.354l1.415-1.414zm3.767 7.361a13.453 13.453 0 0 0-3.767-7.36l-1.415 1.413a11.452 11.452 0 0 1 3.207 6.267l1.975-.32z" fill="#363636" mask="url(#a)"/><circle cx="31" cy="11" r="6.5" fill="#C9473E" stroke="#363636"/><path stroke="#363636" stroke-linecap="round" d="M28.896 13.205l4.293-4.293"/><circle r="1.143" transform="rotate(44.999 3.65 39.472)" fill="#363636"/><circle r="1.143" transform="rotate(44.999 .793 46.37)" fill="#363636"/></svg>