<svg width="168" height="80" fill="none" xmlns="http://www.w3.org/2000/svg"><path d="M66.723 40.728l.273.962-.273-.962-4.274 1.213c-.806.228-1.25.941-1.321 1.62a23.239 23.239 0 0 0 0 4.878c.071.679.515 1.392 1.32 1.62l4.275 1.213.273-.962-.273.962a2.22 2.22 0 0 1 1.333 3.217l-2.165 3.88c-.408.73-.218 1.546.21 2.076a23.136 23.136 0 0 0 3.454 3.454c.53.428 1.346.618 2.076.21l3.88-2.165a2.22 2.22 0 0 1 3.217 1.333l1.213 4.274c.228.806.941 1.25 1.62 1.321a23.239 23.239 0 0 0 4.878 0c.679-.071 1.392-.515 1.62-1.32l1.213-4.275a2.22 2.22 0 0 1 3.217-1.333l3.88 2.165c.73.408 1.546.218 2.076-.21a23.135 23.135 0 0 0 3.454-3.454c.428-.53.618-1.346.21-2.076l-2.165-3.88a2.22 2.22 0 0 1 1.333-3.217l4.274-1.213c.806-.228 1.25-.941 1.321-1.62a23.131 23.131 0 0 0 0-4.878c-.071-.679-.515-1.392-1.321-1.62l-4.274-1.213a2.22 2.22 0 0 1-1.333-3.217l2.165-3.88-.873-.487.873.487c.408-.73.218-1.546-.21-2.076a23.136 23.136 0 0 0-3.454-3.454l-.628.778.628-.778c-.53-.428-1.346-.618-2.076-.21l.487.873-.487-.873-3.88 2.165a2.22 2.22 0 0 1-3.217-1.333l-.962.273.962-.273-1.213-4.274c-.228-.806-.941-1.25-1.62-1.321a23.239 23.239 0 0 0-4.878 0c-.679.071-1.392.515-1.62 1.32l-1.213 4.275a2.22 2.22 0 0 1-3.217 1.333l-3.88-2.165c-.73-.408-1.546-.218-2.076.21a23.136 23.136 0 0 0-3.454 3.454c-.428.53-.618 1.346-.21 2.076l2.165 3.88a2.22 2.22 0 0 1-1.333 3.217zM95 46c0 6.075-4.925 11-11 11s-11-4.925-11-11 4.925-11 11-11 11 4.925 11 11z" fill="#F5F5F5" stroke="#363636" stroke-width="2"/><circle cx="102" cy="26" r="13" fill="#C9473E" stroke="#363636" stroke-width="2"/><path transform="scale(.99594 1.00404) rotate(45 15.034 126.845)" stroke="#363636" stroke-width="2" stroke-linecap="round" d="M1-1h7.18"/><path transform="scale(.99595 1.00404) rotate(-45 90.143 -104.913)" stroke="#363636" stroke-width="2" stroke-linecap="round" d="M1-1h11.77"/></svg>