<svg width="120" height="32" fill="none" xmlns="http://www.w3.org/2000/svg"><rect width="31.429" height="32" rx="2" fill="#C9473E"/><path fill-rule="evenodd" clip-rule="evenodd" d="M17.418 6.12l-1.515-1.543a.705.705 0 0 0-1.01 0l-1.516 1.542-9.596 9.771a.737.737 0 0 0 0 1.029l1.01 1.028a.705.705 0 0 0 1.01 0l9.091-9.256a.705.705 0 0 1 1.01 0l5.051 5.142a.705.705 0 0 0 1.01 0l1.01-1.028a.737.737 0 0 0 0-1.029L17.419 6.12zm-5.57 9.579h-1.43a.72.72 0 0 0-.714.727v10.182c0 .401.32.727.715.727h1.428a.72.72 0 0 0 .715-.727V16.426a.72.72 0 0 0-.715-.727zm4.285 0h10a.72.72 0 0 1 .714.727v1.455a.72.72 0 0 1-.714.727h-2.857a.72.72 0 0 0-.714.727v7.273a.72.72 0 0 1-.715.727H20.42a.72.72 0 0 1-.715-.727v-7.273a.72.72 0 0 0-.714-.727h-2.857a.72.72 0 0 1-.714-.727v-1.455a.72.72 0 0 1 .714-.727z" fill="#F5F5F5"/><path d="M45 23.753V8.21h2.536v15.543H45zm12.003 0h-2.536V10.39h-4.564V8.21h11.663v2.18h-4.563v13.363zm5.667-4.773v-2.127h5.455v2.127H62.67zm20.907-3.147c0 2.566-.71 4.529-2.133 5.89-1.422 1.353-3.47 2.03-6.145 2.03h-4.34V8.21h4.797c2.469 0 4.39.667 5.762 1.999 1.373 1.332 2.06 3.207 2.06 5.624zm-2.674.085c0-3.72-1.737-5.581-5.211-5.581h-2.197v11.28H75.3c3.736 0 5.604-1.9 5.604-5.699zm19.792.042c0 2.53-.633 4.497-1.9 5.9-1.259 1.404-3.045 2.106-5.359 2.106-2.342 0-4.142-.695-5.402-2.084-1.252-1.396-1.878-3.377-1.878-5.943 0-2.565.63-4.536 1.89-5.91 1.266-1.376 3.07-2.063 5.412-2.063 2.306 0 4.09.698 5.348 2.094 1.26 1.396 1.889 3.363 1.889 5.9zm-11.843 0c0 1.914.385 3.367 1.156 4.36.772.985 1.914 1.477 3.428 1.477 1.507 0 2.643-.489 3.407-1.467.771-.978 1.157-2.435 1.157-4.37 0-1.906-.382-3.352-1.146-4.337-.757-.985-1.89-1.478-3.396-1.478-1.522 0-2.671.493-3.45 1.478-.77.985-1.156 2.431-1.156 4.338zm21.883 7.793l-4.5-12.98h-.085a86.79 86.79 0 0 1 .181 5.421v7.56h-2.303V8.21h3.576l4.309 12.364h.064l4.436-12.364H120v15.543h-2.441v-7.686c0-.773.018-1.78.053-3.02.043-1.24.078-1.991.106-2.253h-.085l-4.659 12.96h-2.239z" fill="#363636"/></svg>