<svg width="56" height="108" fill="none" xmlns="http://www.w3.org/2000/svg"><rect width="56" height="108" rx="8" fill="#363636"/><path fill-rule="evenodd" clip-rule="evenodd" d="M16 4H8a4 4 0 0 0-4 4v92a4 4 0 0 0 4 4h40a4 4 0 0 0 4-4V8a4 4 0 0 0-4-4h-8a4 4 0 0 1-4 4H20a4 4 0 0 1-4-4z" fill="#E7E7E7"/><rect x="19" y="39" width="18" height="38" rx="1" fill="#fff" stroke="#363636" stroke-width="2"/><path fill="#C9473E" d="M20 68h16v8H20z"/><path d="M22 36a2 2 0 0 1 2-2h8a2 2 0 0 1 2 2v2H22v-2z" fill="#363636"/></svg>