<svg width="168" height="116" fill="none" xmlns="http://www.w3.org/2000/svg"><path fill-rule="evenodd" clip-rule="evenodd" d="M65.4 3.3a1.92 1.92 0 0 1 0-2.734 1.963 1.963 0 0 1 2.758 0l17.928 17.768L98.5 6.033a1.962 1.962 0 0 1 2.758 0 1.92 1.92 0 0 1 0 2.733L89.922 20H164a4 4 0 0 1 4 4v88a4 4 0 0 1-4 4H4a4 4 0 0 1-4-4V24a4 4 0 0 1 4-4h78.251L65.4 3.3z" fill="#363636"/><path fill-rule="evenodd" clip-rule="evenodd" d="M10 28a2 2 0 0 0-2 2v76a2 2 0 0 0 2 2h124a2 2 0 0 0 2-2V30a2 2 0 0 0-2-2H10zm146 56a4 4 0 1 0-8 0 4 4 0 0 0 8 0zm-4 8a2 2 0 1 1 0 4 2 2 0 0 1 0-4zm2 10a2 2 0 1 0-3.999-.001A2 2 0 0 0 154 102z" fill="#E7E7E7"/><path d="M62.761 70.827a10.001 10.001 0 0 0 2.618 3.667c.828.732 1.173 1.942.621 2.898-.552.957-1.787 1.295-2.655.612a14.016 14.016 0 0 1-4.28-5.646 14 14 0 1 1 21.59 5.646c-.868.683-2.103.345-2.655-.612-.552-.956-.207-2.166.62-2.898a10.007 10.007 0 0 0 2.619-3.667 10 10 0 1 0-18.478 0z" fill="#D6D6D6"/><path d="M51.675 75.419a22 22 0 0 0 6.044 8.316c.58.495 1.205.938 1.525 1.19.868.682 2.203.353 2.756-.604.552-.957.216-2.172-.673-2.827a18.01 18.01 0 0 1-5.957-7.606 18 18 0 1 1 28.87 6.31c-.98.91-1.242 1.057-1.567 1.296-.89.655-1.225 1.87-.673 2.827.552.957 1.888 1.286 2.756.603.32-.251.945-.694 1.525-1.189a22.001 22.001 0 1 0-34.606-8.316z" fill="#D6D6D6"/><path d="M62.761 70.827a10.001 10.001 0 0 0 2.618 3.667c.828.732 1.173 1.942.621 2.898-.552.957-1.787 1.295-2.655.612a14.016 14.016 0 0 1-4.28-5.646 14 14 0 1 1 21.59 5.646c-.868.683-2.103.345-2.655-.612-.552-.956-.207-2.166.62-2.898a10.007 10.007 0 0 0 2.619-3.667 10 10 0 1 0-18.478 0z" fill="#AEAEAE"/><path fill-rule="evenodd" clip-rule="evenodd" d="M74 72.659A6.002 6.002 0 0 0 72 61a6 6 0 0 0-2 11.659V89a2 2 0 1 0 4 0V72.659z" fill="#C9473E"/></svg>