<svg width="137" height="137" fill="none" xmlns="http://www.w3.org/2000/svg"><path d="M132.276 23.62H4.724A4.725 4.725 0 0 0 0 28.346v80.31a4.726 4.726 0 0 0 4.724 4.724h127.552a4.725 4.725 0 0 0 4.724-4.724v-80.31a4.724 4.724 0 0 0-4.724-4.724z" fill="#D6D6D6"/><path d="M0 80.31v28.345a4.726 4.726 0 0 0 4.724 4.724h127.552a4.726 4.726 0 0 0 4.724-4.724V80.31H0zm103.931-21.258H33.069a9.449 9.449 0 0 1-9.448-9.448V23.62h89.759v25.982c0 5.218-4.231 9.449-9.449 9.449z" fill="#363636"/><path d="M106.294 23.62H30.708V2.363A2.363 2.363 0 0 1 33.07 0h70.862a2.363 2.363 0 0 1 2.362 2.362v21.259z" fill="#F5F5F5"/><path d="M75.587 47.603a2 2 0 0 0 2 2h24.344a2 2 0 0 0 2-2V37.431a2 2 0 0 0-2-2H77.587a2 2 0 0 0-2 2v10.172z" fill="#D6D6D6"/></svg>