<svg width="60" height="50" fill="none" xmlns="http://www.w3.org/2000/svg"><path d="M57.931 10.417H2.07A2.076 2.076 0 0 0 0 12.5v35.417C0 49.067.927 50 2.069 50h55.862A2.077 2.077 0 0 0 60 47.917V12.5a2.076 2.076 0 0 0-2.069-2.083z" fill="#D6D6D6"/><path d="M0 35.416v12.5C0 49.066.927 50 2.069 50H57.93A2.077 2.077 0 0 0 60 47.916v-12.5H0zm45.517-9.374H14.483c-2.286 0-4.138-1.866-4.138-4.167V10.417h39.31v11.458c0 2.301-1.853 4.167-4.138 4.167z" fill="#363636"/><path d="M46.552 10.417H13.448V1.042A1.04 1.04 0 0 1 14.483 0h31.034a1.04 1.04 0 0 1 1.035 1.042v9.375z" fill="#F5F5F5"/><path d="M33.103 19.875a2 2 0 0 0 2 2h8.414a2 2 0 0 0 2-2v-2.25a2 2 0 0 0-2-2h-8.414a2 2 0 0 0-2 2v2.25z" fill="#D6D6D6"/></svg>