<svg width="36" height="60" fill="none" xmlns="http://www.w3.org/2000/svg"><path d="M29.92 60H6.08C2.723 60 0 57.34 0 54.059V5.941C0 2.66 2.722 0 6.08 0h23.84C33.277 0 36 2.66 36 5.941v48.118C36 57.34 33.278 60 29.92 60z" fill="#363636"/><path d="M32.824 6.207H3.177V50.69h29.647V6.207zM21.177 4.138h-6.353a1.046 1.046 0 0 1-1.06-1.035c0-.572.474-1.034 1.06-1.034h6.353c.585 0 1.058.462 1.058 1.034 0 .572-.473 1.035-1.058 1.035zm9.529 0h-1.059a1.046 1.046 0 0 1-1.059-1.035c0-.572.473-1.034 1.059-1.034h1.059c.585 0 1.059.462 1.059 1.034 0 .572-.474 1.035-1.06 1.035zm-4.236 0h-1.058a1.046 1.046 0 0 1-1.059-1.035c0-.572.473-1.034 1.059-1.034h1.059c.585 0 1.058.462 1.058 1.034 0 .572-.473 1.035-1.058 1.035zm-5.823 52.758h-5.294c-.873 0-1.588-.698-1.588-1.551 0-.854.715-1.552 1.588-1.552h5.294c.874 0 1.588.698 1.588 1.552 0 .853-.714 1.551-1.588 1.551z" fill="#D6D6D6"/></svg>