<svg width="60" height="56" fill="none" xmlns="http://www.w3.org/2000/svg"><path d="M56.712 56H3.288A3.29 3.29 0 0 1 0 52.707v-34.86a3.29 3.29 0 0 1 3.288-3.293h53.424A3.29 3.29 0 0 1 60 17.847v34.86A3.29 3.29 0 0 1 56.712 56z" fill="#363636"/><path d="M55.862 18.698H4.138v31.084h51.724V18.698z" fill="#D6D6D6"/><path d="M9.391 53.927H5.253a1.036 1.036 0 0 1 0-2.072h4.138a1.036 1.036 0 0 1 0 2.072z" fill="#F5F5F5"/><path fill-rule="evenodd" clip-rule="evenodd" d="M29.98 13.533l-3.41-3.416a1.036 1.036 0 0 0-1.463 1.465l4.137 4.144a1.032 1.032 0 0 0 1.433.029c.033-.026.064-.053.094-.083l9.31-9.325a1.036 1.036 0 0 0-1.463-1.465l-8.638 8.651z" fill="#363636"/></svg>