<svg width="56" height="108" fill="none" xmlns="http://www.w3.org/2000/svg"><rect width="56" height="108" rx="8" fill="#363636"/><path fill-rule="evenodd" clip-rule="evenodd" d="M16 4H8a4 4 0 0 0-4 4v92a4 4 0 0 0 4 4h40a4 4 0 0 0 4-4V8a4 4 0 0 0-4-4h-8a4 4 0 0 1-4 4H20a4 4 0 0 1-4-4z" fill="#E7E7E7"/><path d="M13.5 27l2.79 15.63M29.5 64.815l6-15.126m-6 15.126l6.5 5.546m-6.5-5.546l-3.68-4.033m9.68-11.093l7-6.05m-7 6.05l-2-7.059M45 87l-2.5-11.092L36 70.36m0 0h8m-18.18-9.58L18 52.212l-1.71-9.58m9.53 18.15L11 55.74m5.29-13.11l5.131-5.042m3.079-3.025l-3.079 3.025m0 0L20 31.538" stroke="#C9473E" stroke-linecap="round" stroke-linejoin="round"/></svg>