<svg width="168" height="80" fill="none" xmlns="http://www.w3.org/2000/svg"><mask id="a" fill="#fff"><path fill-rule="evenodd" clip-rule="evenodd" d="M80.629 44.905c6.877 0 12.452-5.575 12.452-12.453C93.081 25.575 87.506 20 80.628 20c-6.877 0-12.452 5.575-12.452 12.452 0 6.878 5.575 12.453 12.453 12.453zm24.584 24.035c.353 2.18-1.471 3.983-3.68 3.983H59.724c-2.21 0-4.033-1.802-3.68-3.983a24.906 24.906 0 0 1 49.169 0z"/></mask><path fill-rule="evenodd" clip-rule="evenodd" d="M80.629 44.905c6.877 0 12.452-5.575 12.452-12.453C93.081 25.575 87.506 20 80.628 20c-6.877 0-12.452 5.575-12.452 12.452 0 6.878 5.575 12.453 12.453 12.453zm24.584 24.035c.353 2.18-1.471 3.983-3.68 3.983H59.724c-2.21 0-4.033-1.802-3.68-3.983a24.906 24.906 0 0 1 49.169 0z" fill="#F5F5F5"/><path d="M105.213 68.94l-1.974.32 1.974-.32zm-24.585 3.983v2-2zm-20.904 0v-2 2zm-3.68-3.983l1.974.32-1.974-.32zm6.974-13.627l1.414 1.414-1.414-1.414zm28.063-22.86c0 5.772-4.68 10.452-10.453 10.452v4c7.982 0 14.453-6.47 14.453-14.453h-4zM80.628 22c5.773 0 10.453 4.68 10.453 10.452h4c0-7.981-6.47-14.452-14.453-14.452v4zM70.177 32.452C70.176 26.68 74.856 22 80.63 22v-4c-7.982 0-14.453 6.47-14.453 14.452h4zM80.63 42.905c-5.773 0-10.453-4.68-10.453-10.453h-4c0 7.982 6.47 14.453 14.453 14.453v-4zm20.904 32.018c3.209 0 6.24-2.687 5.654-6.303l-3.948.64c.12.745-.496 1.663-1.706 1.663v4zm-20.905 0h20.905v-4H80.628v4zm-20.904 0h20.904v-4H59.724v4zM54.07 68.62c-.586 3.616 2.445 6.303 5.654 6.303v-4c-1.21 0-1.826-.918-1.706-1.663l-3.948-.64zm7.534-14.722A26.905 26.905 0 0 0 54.07 68.62l3.948.64a22.905 22.905 0 0 1 6.414-12.533l-2.828-2.829zm19.024-7.88a26.905 26.905 0 0 0-19.024 7.88l2.828 2.829a22.905 22.905 0 0 1 16.196-6.709v-4zm19.025 7.88a26.905 26.905 0 0 0-19.025-7.88v4a22.905 22.905 0 0 1 16.197 6.709l2.828-2.829zm7.534 14.722a26.908 26.908 0 0 0-7.534-14.722l-2.828 2.829a22.91 22.91 0 0 1 6.414 12.533l3.948-.64z" fill="#363636" mask="url(#a)"/><circle cx="95" cy="22" r="13" fill="#C9473E" stroke="#363636" stroke-width="2"/><path stroke="#363636" stroke-width="2" stroke-linecap="round" d="M90.792 26.41l8.586-8.586"/><circle r="2.286" transform="rotate(45 23.8 118.779)" fill="#363636"/><circle r="2.286" transform="rotate(45 18.086 132.573)" fill="#363636"/></svg>