<svg width="168" height="80" fill="none" xmlns="http://www.w3.org/2000/svg"><rect x="1.364" y=".373" width="46.17" height="20.133" rx="3" transform="matrix(.86821 -.49314 .49539 .86605 55.995 32.477)" fill="#C9473E" stroke="#363636" stroke-width="2"/><ellipse rx="9.368" ry="4.151" transform="matrix(.86814 -.49324 .49526 .86611 82.393 29.461)" fill="#363636"/><ellipse rx="2.662" ry="2.744" transform="matrix(.86954 -.4911 .49776 .86488 95.812 21.714)" fill="#363636"/><ellipse rx="2.662" ry="2.744" transform="matrix(.86954 -.4911 .49776 .86488 68.974 37.209)" fill="#363636"/><path d="M57 32.884a3 3 0 0 1 3-3h45.895a3 3 0 0 1 3 3v35.117a3 3 0 0 1-3 3H60a3 3 0 0 1-3-3V32.883z" fill="#F5F5F5" stroke="#363636" stroke-width="2"/><path d="M97.42 49.053a3 3 0 0 1 3.001-3h8.168a3 3 0 0 1 3 3v4.469a1.31 1.31 0 0 1-1.309 1.31H98.73a1.31 1.31 0 0 1-1.31-1.31v-4.47z" fill="#F5F5F5" stroke="#363636" stroke-width="2"/></svg>