<svg width="50" height="40" fill="none" xmlns="http://www.w3.org/2000/svg"><path stroke="#363636" d="M28.976 28.617l4.895-1.312m-12.774 1.312l-4.895-1.312m9.196-2.237V20"/><mask id="a" fill="#fff"><path fill-rule="evenodd" clip-rule="evenodd" d="M10.211 20.604a3.468 3.468 0 1 0 0-6.935 3.468 3.468 0 0 0 0 6.935zm6.65 5.83c.313 1.06-.61 1.973-1.714 1.973H5.276c-1.105 0-2.028-.914-1.714-1.973a6.935 6.935 0 0 1 13.298 0z"/></mask><path fill-rule="evenodd" clip-rule="evenodd" d="M10.211 20.604a3.468 3.468 0 1 0 0-6.935 3.468 3.468 0 0 0 0 6.935zm6.65 5.83c.313 1.06-.61 1.973-1.714 1.973H5.276c-1.105 0-2.028-.914-1.714-1.973a6.935 6.935 0 0 1 13.298 0z" fill="#F5F5F5"/><path d="M16.86 26.434l-.958.285.958-.285zm-13.298 0l.959.285-.959-.285zm1.745-2.931l-.707-.708.707.707zm7.372-6.366a2.468 2.468 0 0 1-2.468 2.467v2c2.468 0 4.468-2 4.468-4.467h-2zm-2.468-2.468a2.468 2.468 0 0 1 2.468 2.468h2c0-2.468-2-4.468-4.468-4.468v2zm-2.467 2.468a2.468 2.468 0 0 1 2.467-2.468v-2c-2.467 0-4.467 2-4.467 4.468h2zm2.467 2.467a2.468 2.468 0 0 1-2.467-2.467h-2c0 2.467 2 4.467 4.467 4.467v-2zm4.936 9.803c.82 0 1.6-.338 2.127-.915a2.408 2.408 0 0 0 .545-2.342l-1.917.569a.411.411 0 0 1-.105.424.89.89 0 0 1-.65.264v2zm-4.936 0h4.936v-2H10.21v2zm-4.935 0h4.935v-2H5.276v2zM2.603 26.15a2.41 2.41 0 0 0 .546 2.342 2.886 2.886 0 0 0 2.127.915v-2a.89.89 0 0 1-.65-.264.411.411 0 0 1-.105-.424l-1.918-.57zM4.6 22.795a7.936 7.936 0 0 0-1.997 3.355l1.918.569a5.935 5.935 0 0 1 1.493-2.51L4.6 22.796zm5.611-2.324A7.935 7.935 0 0 0 4.6 22.795l1.414 1.415a5.935 5.935 0 0 1 4.197-1.739v-2zm5.611 2.324a7.935 7.935 0 0 0-5.61-2.324v2c1.573 0 3.083.625 4.196 1.739l1.415-1.415zm1.997 3.355a7.936 7.936 0 0 0-1.996-3.355l-1.415 1.415a5.935 5.935 0 0 1 1.494 2.509l1.917-.57z" fill="#363636" mask="url(#a)"/><mask id="b" fill="#fff"><path fill-rule="evenodd" clip-rule="evenodd" d="M25.554 13.323c1.855 0 3.359-1.527 3.359-3.411 0-1.885-1.504-3.412-3.359-3.412-1.854 0-3.358 1.527-3.358 3.412 0 1.884 1.503 3.411 3.358 3.411zm6.43 5.705C32.3 20.087 31.377 21 30.272 21h-9.434c-1.104 0-2.028-.913-1.713-1.972a6.845 6.845 0 0 1 1.68-2.853 6.664 6.664 0 0 1 4.75-1.998c1.782 0 3.49.718 4.75 1.998a6.844 6.844 0 0 1 1.68 2.853z"/></mask><path fill-rule="evenodd" clip-rule="evenodd" d="M25.554 13.323c1.855 0 3.359-1.527 3.359-3.411 0-1.885-1.504-3.412-3.359-3.412-1.854 0-3.358 1.527-3.358 3.412 0 1.884 1.503 3.411 3.358 3.411zm6.43 5.705C32.3 20.087 31.377 21 30.272 21h-9.434c-1.104 0-2.028-.913-1.713-1.972a6.845 6.845 0 0 1 1.68-2.853 6.664 6.664 0 0 1 4.75-1.998c1.782 0 3.49.718 4.75 1.998a6.844 6.844 0 0 1 1.68 2.853z" fill="#F5F5F5"/><path d="M31.985 19.028l.958-.285-.958.285zM25.555 21v1-1zm-4.718 0v-1 1zm-1.713-1.972l.958.285-.958-.285zm1.68-2.853l-.712-.702.713.702zm9.5 0l.713-.701-.713.701zm-2.391-6.263c0 1.347-1.07 2.411-2.359 2.411v2c2.422 0 4.359-1.99 4.359-4.411h-2zM25.554 7.5c1.288 0 2.359 1.065 2.359 2.412h2c0-2.422-1.937-4.412-4.359-4.412v2zm-2.358 2.412c0-1.347 1.07-2.412 2.358-2.412v-2c-2.421 0-4.358 1.99-4.358 4.412h2zm2.358 2.411c-1.287 0-2.358-1.064-2.358-2.411h-2c0 2.421 1.936 4.411 4.358 4.411v-2zM30.272 22c.82 0 1.6-.338 2.127-.915a2.408 2.408 0 0 0 .544-2.342l-1.917.57a.41.41 0 0 1-.104.423.89.89 0 0 1-.65.264v2zm-4.718 0h4.718v-2h-4.718v2zm-4.717 0h4.717v-2h-4.717v2zm-2.672-3.257c-.267.899.003 1.75.545 2.342a2.887 2.887 0 0 0 2.127.915v-2a.89.89 0 0 1-.65-.264.41.41 0 0 1-.105-.423l-1.917-.57zm1.927-3.27a7.845 7.845 0 0 0-1.927 3.27l1.917.57a5.846 5.846 0 0 1 1.435-2.436l-1.425-1.403zm5.462-2.296a7.665 7.665 0 0 0-5.462 2.296l1.425 1.404a5.665 5.665 0 0 1 4.037-1.7v-2zm5.463 2.297a7.665 7.665 0 0 0-5.463-2.297v2c1.512 0 2.964.61 4.037 1.7l1.426-1.403zm1.926 3.269a7.844 7.844 0 0 0-1.926-3.27l-1.426 1.404a5.844 5.844 0 0 1 1.435 2.436l1.917-.57z" fill="#363636" mask="url(#b)"/><mask id="c" fill="#fff"><path fill-rule="evenodd" clip-rule="evenodd" d="M39.898 20.604a3.468 3.468 0 1 0 0-6.935 3.468 3.468 0 0 0 0 6.935zm6.649 5.83c.314 1.06-.61 1.973-1.714 1.973h-9.871c-1.104 0-2.028-.914-1.713-1.973a6.935 6.935 0 0 1 13.298 0z"/></mask><path fill-rule="evenodd" clip-rule="evenodd" d="M39.898 20.604a3.468 3.468 0 1 0 0-6.935 3.468 3.468 0 0 0 0 6.935zm6.649 5.83c.314 1.06-.61 1.973-1.714 1.973h-9.871c-1.104 0-2.028-.914-1.713-1.973a6.935 6.935 0 0 1 13.298 0z" fill="#F5F5F5"/><path d="M46.547 26.434l-.959.285.959-.285zm-13.298 0l.958.285-.958-.285zm1.745-2.931l-.707-.708.707.707zm7.371-6.366a2.468 2.468 0 0 1-2.467 2.467v2c2.467 0 4.467-2 4.467-4.467h-2zm-2.467-2.468a2.468 2.468 0 0 1 2.467 2.468h2c0-2.468-2-4.468-4.467-4.468v2zm-2.468 2.468a2.468 2.468 0 0 1 2.468-2.468v-2c-2.468 0-4.468 2-4.468 4.468h2zm2.468 2.467a2.468 2.468 0 0 1-2.468-2.467h-2c0 2.467 2 4.467 4.468 4.467v-2zm4.935 9.803c.821 0 1.6-.338 2.127-.915a2.408 2.408 0 0 0 .545-2.342l-1.917.569a.411.411 0 0 1-.104.424.89.89 0 0 1-.65.264v2zm-4.935 0h4.935v-2h-4.935v2zm-4.936 0h4.936v-2h-4.936v2zM32.29 26.15a2.406 2.406 0 0 0 .545 2.342 2.886 2.886 0 0 0 2.127.915v-2a.89.89 0 0 1-.65-.264.411.411 0 0 1-.105-.424l-1.917-.57zm1.997-3.355a7.935 7.935 0 0 0-1.997 3.355l1.917.569a5.935 5.935 0 0 1 1.494-2.51l-1.414-1.414zm5.61-2.324a7.935 7.935 0 0 0-5.61 2.324L35.7 24.21a5.935 5.935 0 0 1 4.197-1.739v-2zm5.612 2.324a7.935 7.935 0 0 0-5.611-2.324v2c1.574 0 3.084.625 4.197 1.739l1.414-1.415zm1.996 3.355a7.936 7.936 0 0 0-1.996-3.355l-1.414 1.415a5.935 5.935 0 0 1 1.493 2.509l1.917-.57z" fill="#363636" mask="url(#c)"/><circle cx="25.278" cy="28.668" r="4" fill="#C9473E" stroke="#363636"/></svg>