<svg width="168" height="108" fill="none" xmlns="http://www.w3.org/2000/svg"><path fill-rule="evenodd" clip-rule="evenodd" d="M60.535 100H4a4 4 0 0 0 0 8h160a4 4 0 0 0 0-8h-56.535a3.998 3.998 0 0 1-3.465 2H64a3.998 3.998 0 0 1-3.465-2z" fill="#363636"/><mask id="a" fill="#fff"><rect x="4" width="160" height="96" rx="4"/></mask><rect x="4" width="160" height="96" rx="4" fill="#E7E7E7" stroke="#363636" stroke-width="16" mask="url(#a)"/><mask id="b" fill="#fff"><path d="M98.142 62.142a20.004 20.004 0 0 0 4.336-21.796 20.002 20.002 0 0 0-29.59-8.975 20 20 0 0 0-3.03 30.771l10.606-10.607a5 5 0 1 1 7.072 0l10.606 10.607z"/></mask><path d="M98.142 62.142a20.004 20.004 0 0 0 4.336-21.796 20.002 20.002 0 0 0-29.59-8.975 20 20 0 0 0-3.03 30.771l10.606-10.607a5 5 0 1 1 7.072 0l10.606 10.607z" fill="#fff" stroke="#363636" stroke-width="4" stroke-linecap="round" stroke-linejoin="round" mask="url(#b)"/><rect x="83" y="28" width="2" height="6" rx="1" fill="#363636"/><rect x="104" y="47" width="2" height="6" rx="1" transform="rotate(90 104 47)" fill="#363636"/><rect x="70" y="47" width="2" height="6" rx="1" transform="rotate(90 70 47)" fill="#363636"/><rect width="2" height="6" rx="1" transform="rotate(44.999 8.7 134.193)" fill="#363636"/><rect width="2" height="6" rx="1" transform="rotate(135.001 29.66 34.19)" fill="#363636"/><path d="M71.443 44.635l13.023 1.693a1.751 1.751 0 1 1-.898 3.353l-12.125-5.046z" fill="#C9473E"/></svg>