<svg width="168" height="116" fill="none" xmlns="http://www.w3.org/2000/svg"><path fill-rule="evenodd" clip-rule="evenodd" d="M65.4 3.3a1.92 1.92 0 0 1 0-2.734 1.963 1.963 0 0 1 2.758 0l17.928 17.768L98.5 6.033a1.963 1.963 0 0 1 2.758 0 1.92 1.92 0 0 1 0 2.733L89.922 20H164a4 4 0 0 1 4 4v88a4 4 0 0 1-4 4H4a4 4 0 0 1-4-4V24a4 4 0 0 1 4-4h78.251L65.4 3.3z" fill="#363636"/><path fill-rule="evenodd" clip-rule="evenodd" d="M10 28a2 2 0 0 0-2 2v76a2 2 0 0 0 2 2h124a2 2 0 0 0 2-2V30a2 2 0 0 0-2-2H10zm146 56a4 4 0 1 0-8 0 4 4 0 0 0 8 0zm-4 8a2 2 0 1 1 0 4 2 2 0 0 1 0-4zm2 10a2 2 0 1 0-3.999-.001A2 2 0 0 0 154 102z" fill="#E7E7E7"/><path fill-rule="evenodd" clip-rule="evenodd" d="M83.526 56.477a1.624 1.624 0 0 0-2.3 0l-9.211 9.229-9.234-9.226a1.63 1.63 0 0 0-2.304 0 1.626 1.626 0 0 0 0 2.302l9.238 9.229-9.193 9.21a1.632 1.632 0 0 0 0 2.305 1.624 1.624 0 0 0 2.3 0l9.196-9.213 9.192 9.183a1.63 1.63 0 0 0 2.303 0 1.627 1.627 0 0 0 0-2.301l-9.195-9.187 9.208-9.226a1.632 1.632 0 0 0 0-2.305z" fill="#C9473E"/></svg>