<svg width="56" height="108" fill="none" xmlns="http://www.w3.org/2000/svg"><rect width="56" height="108" rx="8" fill="#363636"/><path fill-rule="evenodd" clip-rule="evenodd" d="M16 4H8a4 4 0 0 0-4 4v92a4 4 0 0 0 4 4h40a4 4 0 0 0 4-4V8a4 4 0 0 0-4-4h-8a4 4 0 0 1-4 4H20a4 4 0 0 1-4-4z" fill="#E7E7E7"/><path d="M35.693 56.03c0-1.265.953-2.29 2.127-2.29h.047c1.173 0 2.125 1.021 2.128 2.284.01 4.13.003 4.536-.002 10.706-.004 3.464-2.613 6.27-5.831 6.27h-6.909c-2.114 0-4.063-1.233-5.093-3.22L16 57.887l.643-.537c1.333-1.23 3.337-1.08 4.497.339l1.724 2.11.01-14.51c0-1.265.953-2.289 2.127-2.289 1.176 0 2.128 1.026 2.128 2.29v8.782c.028-1.238.97-2.23 2.126-2.23h.05c1.175 0 2.128 1.024 2.128 2.29v.736c0-1.265.952-2.29 2.128-2.29h.005c1.174 0 2.127 1.025 2.127 2.29v1.162z" fill="#AEAEAE"/><path d="M19.5 46c0-6 5-6 5.5-6s5.5 0 5.5 6" stroke="#C9473E" stroke-width="2" stroke-linecap="round"/></svg>