<svg width="168" height="80" fill="none" xmlns="http://www.w3.org/2000/svg"><mask id="a" fill="#fff"><path fill-rule="evenodd" clip-rule="evenodd" d="M62.091 47.746c5.095 0 9.225-4.11 9.225-9.18 0-5.07-4.13-9.18-9.225-9.18s-9.225 4.11-9.225 9.18c0 5.07 4.13 9.18 9.225 9.18zm18.014 16.687c.48 2.157-1.355 3.969-3.564 3.969h-28.9c-2.21 0-4.044-1.812-3.564-3.969a18.336 18.336 0 0 1 4.968-9.014A18.496 18.496 0 0 1 62.09 50.04c4.893 0 9.586 1.934 13.046 5.378a18.334 18.334 0 0 1 4.968 9.014z"/></mask><path fill-rule="evenodd" clip-rule="evenodd" d="M62.091 47.746c5.095 0 9.225-4.11 9.225-9.18 0-5.07-4.13-9.18-9.225-9.18s-9.225 4.11-9.225 9.18c0 5.07 4.13 9.18 9.225 9.18zm18.014 16.687c.48 2.157-1.355 3.969-3.564 3.969h-28.9c-2.21 0-4.044-1.812-3.564-3.969a18.336 18.336 0 0 1 4.968-9.014A18.496 18.496 0 0 1 62.09 50.04c4.893 0 9.586 1.934 13.046 5.378a18.334 18.334 0 0 1 4.968 9.014z" fill="#F5F5F5"/><path d="M80.105 64.433l-1.952.435 1.952-.435zm-36.028 0L42.125 64l1.952.434zm4.968-9.014l1.41 1.417-1.41-1.417zm26.092 0L76.548 54l-1.41 1.418zm-5.82-16.853c0 3.956-3.226 7.18-7.226 7.18v4c6.19 0 11.225-4.997 11.225-11.18h-4zm-7.226-7.18c4 0 7.225 3.223 7.225 7.18h4c0-6.184-5.035-11.18-11.225-11.18v4zm-7.225 7.18c0-3.957 3.226-7.18 7.225-7.18v-4c-6.19 0-11.225 4.996-11.225 11.18h4zm7.225 7.18c-4 0-7.225-3.224-7.225-7.18h-4c0 6.183 5.035 11.18 11.225 11.18v-4zm14.45 24.656c3.159 0 6.342-2.694 5.516-6.403l-3.904.869c.084.377-.018.709-.283.993-.287.307-.764.54-1.329.54v4zm-14.45 0h14.45v-4h-14.45v4zm-14.45 0h14.45v-4h-14.45v4zm-5.516-6.403c-.825 3.71 2.358 6.403 5.516 6.403v-4c-.565 0-1.042-.234-1.329-.541-.265-.284-.367-.616-.283-.993l-3.904-.869zm5.509-9.998A20.336 20.336 0 0 0 42.124 64l3.905.869a16.335 16.335 0 0 1 4.427-8.032l-2.822-2.835zm14.457-5.96a20.496 20.496 0 0 0-14.457 5.96l2.822 2.835a16.496 16.496 0 0 1 11.635-4.795v-4zm14.457 5.96a20.496 20.496 0 0 0-14.457-5.96v4a16.5 16.5 0 0 1 11.636 4.795l2.821-2.835zM82.058 64a20.335 20.335 0 0 0-5.51-9.998l-2.822 2.835a16.336 16.336 0 0 1 4.427 8.032L82.057 64z" fill="#363636" mask="url(#a)"/><mask id="b" fill="#fff"><path fill-rule="evenodd" clip-rule="evenodd" d="M105.91 47.746c5.095 0 9.225-4.11 9.225-9.18 0-5.07-4.13-9.18-9.225-9.18s-9.225 4.11-9.225 9.18c0 5.07 4.13 9.18 9.225 9.18zm18.014 16.687c.48 2.157-1.355 3.969-3.564 3.969h-28.9c-2.21 0-4.044-1.812-3.564-3.969a18.336 18.336 0 0 1 4.968-9.014 18.496 18.496 0 0 1 13.046-5.378c4.893 0 9.586 1.934 13.046 5.378a18.324 18.324 0 0 1 4.968 9.014z"/></mask><path fill-rule="evenodd" clip-rule="evenodd" d="M105.91 47.746c5.095 0 9.225-4.11 9.225-9.18 0-5.07-4.13-9.18-9.225-9.18s-9.225 4.11-9.225 9.18c0 5.07 4.13 9.18 9.225 9.18zm18.014 16.687c.48 2.157-1.355 3.969-3.564 3.969h-28.9c-2.21 0-4.044-1.812-3.564-3.969a18.336 18.336 0 0 1 4.968-9.014 18.496 18.496 0 0 1 13.046-5.378c4.893 0 9.586 1.934 13.046 5.378a18.324 18.324 0 0 1 4.968 9.014z" fill="#F5F5F5"/><path d="M123.924 64.433l-1.952.435 1.952-.435zm-36.028 0L85.944 64l1.952.434zm4.968-9.014l1.41 1.417-1.41-1.417zm26.092 0L120.367 54l-1.411 1.418zm-5.821-16.853c0 3.956-3.225 7.18-7.225 7.18v4c6.19 0 11.225-4.997 11.225-11.18h-4zm-7.225-7.18c4 0 7.225 3.223 7.225 7.18h4c0-6.184-5.035-11.18-11.225-11.18v4zm-7.225 7.18c0-3.957 3.226-7.18 7.225-7.18v-4c-6.19 0-11.225 4.996-11.225 11.18h4zm7.225 7.18c-3.999 0-7.225-3.224-7.225-7.18h-4c0 6.183 5.035 11.18 11.225 11.18v-4zm14.45 24.656c3.159 0 6.342-2.694 5.516-6.403l-3.904.869c.084.377-.017.709-.283.993-.287.307-.764.54-1.329.54v4zm-14.45 0h14.45v-4h-14.45v4zm-14.45 0h14.45v-4H91.46v4zm-5.516-6.403c-.825 3.71 2.358 6.403 5.516 6.403v-4c-.565 0-1.042-.234-1.329-.541-.265-.284-.367-.616-.283-.993l-3.904-.869zm5.51-9.998A20.336 20.336 0 0 0 85.943 64l3.904.869a16.335 16.335 0 0 1 4.427-8.032l-2.822-2.835zm14.456-5.96a20.497 20.497 0 0 0-14.457 5.96l2.822 2.835a16.495 16.495 0 0 1 11.635-4.795v-4zm14.457 5.96a20.495 20.495 0 0 0-14.457-5.96v4a16.5 16.5 0 0 1 11.636 4.795l2.821-2.835zm5.51 9.998a20.339 20.339 0 0 0-5.51-9.998l-2.821 2.835a16.333 16.333 0 0 1 4.426 8.032l3.905-.869z" fill="#363636" mask="url(#b)"/><mask id="c" fill="#fff"><path fill-rule="evenodd" clip-rule="evenodd" d="M83.712 54.344c5.095 0 9.225-4.11 9.225-9.18 0-5.07-4.13-9.18-9.225-9.18-5.094 0-9.225 4.11-9.225 9.18 0 5.07 4.13 9.18 9.225 9.18zm18.014 16.688c.48 2.156-1.354 3.968-3.564 3.968h-28.9c-2.209 0-4.043-1.812-3.564-3.968a18.336 18.336 0 0 1 4.968-9.015 18.496 18.496 0 0 1 13.046-5.378c4.894 0 9.587 1.935 13.047 5.378a18.33 18.33 0 0 1 4.967 9.015z"/></mask><path fill-rule="evenodd" clip-rule="evenodd" d="M83.712 54.344c5.095 0 9.225-4.11 9.225-9.18 0-5.07-4.13-9.18-9.225-9.18-5.094 0-9.225 4.11-9.225 9.18 0 5.07 4.13 9.18 9.225 9.18zm18.014 16.688c.48 2.156-1.354 3.968-3.564 3.968h-28.9c-2.209 0-4.043-1.812-3.564-3.968a18.336 18.336 0 0 1 4.968-9.015 18.496 18.496 0 0 1 13.046-5.378c4.894 0 9.587 1.935 13.047 5.378a18.33 18.33 0 0 1 4.967 9.015z" fill="#F5F5F5"/><path d="M101.726 71.032l-1.952.434 1.952-.434zm-36.028 0l-1.952-.434 1.952.434zm4.968-9.015l1.41 1.418-1.41-1.418zm26.093 0l1.41-1.418-1.41 1.418zm-5.822-16.853c0 3.956-3.225 7.18-7.225 7.18v4c6.19 0 11.225-4.996 11.225-11.18h-4zm-7.225-7.18c4 0 7.225 3.224 7.225 7.18h4c0-6.184-5.034-11.18-11.225-11.18v4zm-7.225 7.18c0-3.956 3.226-7.18 7.225-7.18v-4c-6.19 0-11.225 4.996-11.225 11.18h4zm7.225 7.18c-4 0-7.225-3.224-7.225-7.18h-4c0 6.184 5.035 11.18 11.225 11.18v-4zM98.162 77c3.159 0 6.342-2.693 5.517-6.403l-3.905.87c.084.377-.017.708-.283.992-.287.307-.763.541-1.329.541v4zm-14.45 0h14.45v-4h-14.45v4zm-14.45 0h14.45v-4h-14.45v4zm-5.516-6.403C62.921 74.307 66.104 77 69.262 77v-4c-.565 0-1.042-.234-1.329-.54-.265-.285-.367-.616-.283-.994l-3.904-.868zm5.51-9.997a20.335 20.335 0 0 0-5.51 9.997l3.904.87a16.335 16.335 0 0 1 4.427-8.032l-2.822-2.836zm14.456-5.96a20.496 20.496 0 0 0-14.457 5.96l2.822 2.835a16.496 16.496 0 0 1 11.635-4.796v-4zM98.17 60.6a20.496 20.496 0 0 0-14.457-5.96v4c4.366 0 8.551 1.725 11.636 4.795l2.821-2.836zm5.51 9.997a20.333 20.333 0 0 0-5.51-9.997l-2.821 2.835a16.335 16.335 0 0 1 4.426 8.031l3.905-.868z" fill="#363636" mask="url(#c)"/><path d="M86.493 5.14h0c-.188-.663-.77-1.01-1.297-1.064a13.892 13.892 0 0 0-2.9 0c-.527.055-1.109.401-1.297 1.064l-.7 2.452a.859.859 0 0 1-1.243.51L76.82 6.858c-.598-.332-1.252-.171-1.666.161a13.734 13.734 0 0 0-2.055 2.045c-.335.413-.499 1.07-.162 1.67l.872-.488-.872.489 1.248 2.226a.845.845 0 0 1-.514 1.226l.272.962-.272-.962-2.464.695c-.66.187-1.012.764-1.068 1.295a13.719 13.719 0 0 0 0 2.89c.056.53.408 1.108 1.068 1.294l2.464.696.272-.962-.272.962c.535.151.78.753.514 1.226l.873.49-.873-.49-1.248 2.226c-.337.6-.173 1.258.162 1.67l.776-.63-.776.63c.61.753 1.3 1.439 2.055 2.046.414.332 1.068.493 1.666.16l2.237-1.241a.859.859 0 0 1 1.243.508l.7 2.453c.188.662.77 1.009 1.297 1.064a13.875 13.875 0 0 0 2.9 0c.527-.055 1.109-.402 1.297-1.064l.7-2.453a.859.859 0 0 1 1.243-.508l2.237 1.242c.598.332 1.252.171 1.666-.161a13.729 13.729 0 0 0 2.055-2.045l-.776-.63.776.63c.335-.413.499-1.07.162-1.67l-1.248-2.227a.845.845 0 0 1 .513-1.226l2.465-.696c.66-.186 1.012-.763 1.068-1.294a13.692 13.692 0 0 0 0-2.89c-.056-.53-.408-1.108-1.068-1.295l-2.465-.695a.845.845 0 0 1-.513-1.226l1.248-2.226h0c.337-.601.173-1.258-.162-1.671a13.73 13.73 0 0 0-2.055-2.045l-.627.78.627-.78c-.414-.332-1.068-.493-1.666-.16L88.436 8.1a.859.859 0 0 1-1.243-.509l-.7-2.452zm3.172 12.483c0 3.246-2.646 5.885-5.919 5.885-3.273 0-5.919-2.64-5.919-5.885 0-3.246 2.645-5.885 5.919-5.885 3.273 0 5.919 2.64 5.919 5.885z" fill="#C9473E" stroke="#363636" stroke-width="2"/></svg>