<?xml version="1.0" encoding="utf-8"?><svg xmlns="http://www.w3.org/2000/svg" xmlns:xlink="http://www.w3.org/1999/xlink"><symbol viewBox="0 0 21.9 21.9" id="icon-cancel" xmlns="http://www.w3.org/2000/svg"><path d="M14.1 11.3c-.2-.2-.2-.5 0-.7l7.5-7.5c.2-.2.3-.5.3-.7s-.1-.5-.3-.7L20.2.3c-.2-.2-.5-.3-.7-.3-.3 0-.5.1-.7.3l-7.5 7.5c-.2.2-.5.2-.7 0L3.1.3C2.9.1 2.6 0 2.4 0s-.5.1-.7.3L.3 1.7c-.2.2-.3.5-.3.7s.1.5.3.7l7.5 7.5c.2.2.2.5 0 .7L.3 18.8c-.2.2-.3.5-.3.7s.1.5.3.7l1.4 1.4c.2.2.5.3.7.3s.5-.1.7-.3l7.5-7.5c.2-.2.5-.2.7 0l7.5 7.5c.2.2.5.3.7.3s.5-.1.7-.3l1.4-1.4c.2-.2.3-.5.3-.7s-.1-.5-.3-.7l-7.5-7.5z"/></symbol><symbol viewBox="0 0 512 512" id="icon-check" xmlns="http://www.w3.org/2000/svg"><path d="M468.907 214.604c-11.423 0-20.682 9.26-20.682 20.682v20.831c-.031 54.338-21.221 105.412-59.666 143.812-38.417 38.372-89.467 59.5-143.761 59.5h-.12C132.506 459.365 41.3 368.056 41.364 255.883c.031-54.337 21.221-105.411 59.667-143.813 38.417-38.372 89.468-59.5 143.761-59.5h.12c28.672.016 56.49 5.942 82.68 17.611 10.436 4.65 22.659-.041 27.309-10.474 4.648-10.433-.04-22.659-10.474-27.309-31.516-14.043-64.989-21.173-99.492-21.192h-.144c-65.329 0-126.767 25.428-172.993 71.6C25.536 129.014.038 190.473 0 255.861c-.037 65.386 25.389 126.874 71.599 173.136 46.21 46.262 107.668 71.76 173.055 71.798h.144c65.329 0 126.767-25.427 172.993-71.6 46.262-46.209 71.76-107.668 71.798-173.066v-20.842c0-11.423-9.259-20.683-20.682-20.683z"/><path d="M505.942 39.803c-8.077-8.076-21.172-8.076-29.249 0L244.794 271.701l-52.609-52.609c-8.076-8.077-21.172-8.077-29.248 0-8.077 8.077-8.077 21.172 0 29.249l67.234 67.234a20.616 20.616 0 0 0 14.625 6.058 20.618 20.618 0 0 0 14.625-6.058L505.942 69.052c8.077-8.077 8.077-21.172 0-29.249z"/></symbol><symbol viewBox="0 0 26 26" id="icon-checked" xmlns="http://www.w3.org/2000/svg"><path d="M.3 14c-.2-.2-.3-.5-.3-.7s.1-.5.3-.7l1.4-1.4c.4-.4 1-.4 1.4 0l.1.1 5.5 5.9c.2.2.5.2.7 0L22.8 3.3h.1c.4-.4 1-.4 1.4 0l1.4 1.4c.4.4.4 1 0 1.4l-16 16.6c-.2.2-.4.3-.7.3-.3 0-.5-.1-.7-.3L.5 14.3.3 14z"/></symbol><symbol viewBox="0 0 212.982 212.982" id="icon-close" xmlns="http://www.w3.org/2000/svg"><path d="M131.804 106.491l75.936-75.936c6.99-6.99 6.99-18.323 0-25.312-6.99-6.99-18.322-6.99-25.312 0L106.491 81.18 30.554 5.242c-6.99-6.99-18.322-6.99-25.312 0-6.989 6.99-6.989 18.323 0 25.312l75.937 75.936-75.937 75.937c-6.989 6.99-6.989 18.323 0 25.312 6.99 6.99 18.322 6.99 25.312 0l75.937-75.937 75.937 75.937c6.989 6.99 18.322 6.99 25.312 0 6.99-6.99 6.99-18.322 0-25.312l-75.936-75.936z" fill-rule="evenodd" clip-rule="evenodd"/></symbol><symbol viewBox="0 0 512 512" id="icon-close-button" xmlns="http://www.w3.org/2000/svg"><path d="M505.943 6.058c-8.077-8.077-21.172-8.077-29.249 0L6.058 476.693c-8.077 8.077-8.077 21.172 0 29.249A20.612 20.612 0 0 0 20.683 512a20.614 20.614 0 0 0 14.625-6.059L505.943 35.306c8.076-8.076 8.076-21.171 0-29.248z"/><path d="M505.942 476.694L35.306 6.059c-8.076-8.077-21.172-8.077-29.248 0-8.077 8.076-8.077 21.171 0 29.248l470.636 470.636a20.616 20.616 0 0 0 14.625 6.058 20.615 20.615 0 0 0 14.624-6.057c8.075-8.078 8.075-21.173-.001-29.25z"/></symbol><symbol viewBox="0 0 306 306" id="icon-left-bold" xmlns="http://www.w3.org/2000/svg"><path d="M247.35 270.3L130.05 153l117.3-117.3L211.65 0l-153 153 153 153z"/></symbol><symbol viewBox="0 0 129 129" id="icon-left-light" xmlns="http://www.w3.org/2000/svg"><path d="M88.6 121.3c.8.8 1.8 1.2 2.9 1.2s2.1-.4 2.9-1.2c1.6-1.6 1.6-4.2 0-5.8l-51-51 51-51c1.6-1.6 1.6-4.2 0-5.8s-4.2-1.6-5.8 0l-54 53.9c-1.6 1.6-1.6 4.2 0 5.8l54 53.9z"/></symbol><symbol viewBox="0 0 24 24" id="icon-plus" xmlns="http://www.w3.org/2000/svg"><path d="M23 10h-8.5c-.3 0-.5-.2-.5-.5V1c0-.6-.4-1-1-1h-2c-.6 0-1 .4-1 1v8.5c0 .3-.2.5-.5.5H1c-.6 0-1 .4-1 1v2c0 .6.4 1 1 1h8.5c.3 0 .5.2.5.5V23c0 .6.4 1 1 1h2c.6 0 1-.4 1-1v-8.5c0-.3.2-.5.5-.5H23c.6 0 1-.4 1-1v-2c0-.6-.4-1-1-1z"/></symbol><symbol viewBox="0 0 306 306" id="icon-right-bold" xmlns="http://www.w3.org/2000/svg"><path d="M94.35 0l-35.7 35.7L175.95 153 58.65 270.3l35.7 35.7 153-153z"/></symbol><symbol viewBox="0 0 129 129" id="icon-right-light" xmlns="http://www.w3.org/2000/svg"><path d="M40.4 121.3c-.8.8-1.8 1.2-2.9 1.2s-2.1-.4-2.9-1.2c-1.6-1.6-1.6-4.2 0-5.8l51-51-51-51c-1.6-1.6-1.6-4.2 0-5.8 1.6-1.6 4.2-1.6 5.8 0l53.9 53.9c1.6 1.6 1.6 4.2 0 5.8l-53.9 53.9z"/></symbol><symbol viewBox="0 0 512 512" id="icon-tick-light" xmlns="http://www.w3.org/2000/svg"><path d="M504.502 75.496c-9.997-9.998-26.205-9.998-36.204 0L161.594 382.203 43.702 264.311c-9.997-9.998-26.205-9.997-36.204 0-9.998 9.997-9.998 26.205 0 36.203l135.994 135.992c9.994 9.997 26.214 9.99 36.204 0L504.502 111.7c9.998-9.997 9.997-26.206 0-36.204z"/></symbol></svg>